<?xml version="1.0" encoding="UTF-8"?>
<svg version="1.1" id="Layer_1" x="0px" y="0px" width="578" height="52" viewBox="0 0 578 52"
xml:space="preserve" xmlns="http://www.w3.org/2000/svg" xmlns:svg="http://www.w3.org/2000/svg" xmlns:rdf="http://www.w3.org/1999/02/22-rdf-syntax-ns#"  xmlns:cc="http://creativecommons.org/ns#" xmlns:dc="http://purl.org/dc/elements/1.1/">
     <g>
<path d="M 259.45,8.77 c -1.92,2.63 -1.92,2.63 -1.92,2.63 -0.06,0.08 -0.05,0.20 0.03,0.25 3.27,2.38 3.27,2.38 3.27,2.38 0.08,0.06 0.19,0.04 0.25,-0.05 1.91,-2.63 1.91,-2.63 1.91,-2.63 0.06,-0.08 0.05,-0.20 -0.03,-0.25 -3.27,-2.38 -3.27,-2.38 -3.27,-2.38 -0.08,-0.06 -0.19,-0.04 -0.25,0.05 z M 287.82,43.11 c 0.06,0.05 0.15,0.03 0.20,-0.04 1.53,-2.10 1.53,-2.10 1.53,-2.10 0.05,-0.07 0.04,-0.16 -0.03,-0.20 -2.61,-1.91 -2.61,-1.91 -2.61,-1.91 -0.06,-0.05 -0.15,-0.03 -0.20,0.04 -1.32,1.81 -1.32,1.81 -1.32,1.81 -2.54,-1.85 -2.54,-1.85 -2.54,-1.85 -0.06,-0.05 -0.15,-0.03 -0.20,0.04 -1.53,2.10 -1.53,2.10 -1.53,2.10 -0.05,0.07 -0.04,0.16 0.03,0.21 2.61,1.91 2.61,1.91 2.61,1.91 0.06,0.05 0.15,0.03 0.20,-0.04 1.32,-1.81 1.32,-1.81 1.32,-1.81 z M 226.95,10.23 c 0.17,0.08 0.35,0.08 0.38,-0.13 0.03,-0.20 0.22,-0.67 0.56,-0.37 0.29,0.25 2.12,1.52 3.27,4.45 0.19,0.39 0.56,0.39 0.60,-0.18 0.09,-1.41 -0.01,-3.83 0.04,-4.58 0.07,-1.04 0.38,-3.21 1.78,-2.21 0.32,0.23 0.66,0.53 0.66,0.53 0.31,0.32 0.69,0.69 0.82,0.28 0.20,-0.63 0.33,-1.65 0.00,-2.18 -0.14,-0.23 -1.93,-2.14 -2.92,-0.64 -1.22,1.85 -1.11,4.14 -1.08,6.69 -0.24,-0.52 -1.61,-3.83 -5.26,-5.48 -0.26,-0.12 -0.76,0.19 -0.74,1.00 0.01,0.47 -0.03,1.62 0.33,1.91 0.36,0.29 1.38,0.84 1.55,0.92 z M 255.80,43.11 c -0.30,0.98 -1.26,1.74 -2.16,0.57 -0.15,-0.24 -0.79,-1.32 -0.10,-3.91 0.14,-0.50 0.31,-1.25 0.31,-1.25 0.16,-0.57 -0.13,-0.84 -0.37,-0.14 -0.23,0.70 -1.26,3.13 -0.78,5.82 0.11,0.62 0.70,1.79 1.75,1.72 0.54,-0.06 1.20,-0.49 1.54,-2.07 0.05,-0.36 0.08,-0.64 0.10,-0.78 0.03,-0.21 -0.16,-0.44 -0.29,0.05 z M 245.75,17.30 c 0.16,-0.57 -0.13,-0.84 -0.37,-0.14 -0.23,0.70 -1.26,3.13 -0.78,5.82 0.11,0.62 0.70,1.79 1.75,1.72 0.54,-0.06 1.20,-0.49 1.54,-2.07 0.05,-0.35 0.08,-0.64 0.10,-0.78 0.03,-0.21 -0.16,-0.44 -0.29,0.05 -0.30,0.98 -1.26,1.74 -2.16,0.57 -0.15,-0.24 -0.79,-1.32 -0.10,-3.92 0.14,-0.50 0.31,-1.25 0.31,-1.25 z M 269.76,11.32 c 0.54,-0.06 1.20,-0.49 1.54,-2.07 0.05,-0.36 0.08,-0.64 0.10,-0.78 0.03,-0.21 -0.16,-0.44 -0.29,0.05 -0.30,0.98 -1.26,1.74 -2.16,0.57 -0.15,-0.24 -0.79,-1.32 -0.10,-3.92 0.14,-0.50 0.31,-1.25 0.31,-1.25 0.16,-0.57 -0.13,-0.84 -0.36,-0.14 -0.23,0.70 -1.26,3.13 -0.78,5.82 0.11,0.62 0.70,1.79 1.75,1.72 z M 236.10,26.12 c 0.23,-0.93 -0.14,-1.41 -0.47,-0.27 -0.33,1.14 -1.78,5.10 -1.27,9.65 0.12,1.05 0.84,3.07 2.22,3.04 0.71,-0.04 1.60,-0.69 2.11,-3.30 0.08,-0.59 0.12,-1.06 0.16,-1.29 0.05,-0.35 -0.20,-0.75 -0.38,0.06 -0.43,1.61 -1.72,2.79 -2.86,0.73 -0.19,-0.41 -0.98,-2.29 0.04,-6.55 0.21,-0.83 0.46,-2.06 0.46,-2.06 z M 254.10,5.60 c 0.77,0.52 1.87,0.92 1.87,0.92 -3.32,4.38 -5.67,5.28 -7.66,6.55 -0.51,0.32 -0.40,0.60 -0.09,0.50 0.16,-0.05 2.88,-0.57 5.98,-3.11 1.68,-1.37 2.65,-3.65 2.65,-3.65 0.00,0.00 0.89,0.69 1.01,0.83 0.27,0.32 0.43,0.55 0.54,0.20 0.41,-1.28 -0.26,-2.01 -0.89,-2.38 0.00,0.00 0.57,-1.99 -0.67,-3.92 -0.21,-0.32 -1.41,-1.33 -2.68,0.80 -0.50,0.81 -0.82,2.74 -0.05,3.25 z M 254.72,3.65 c 0.65,-0.99 0.99,-0.97 1.26,-0.82 0.81,0.70 0.73,1.90 0.71,2.17 0.00,0.00 -1.02,-0.43 -1.47,-0.61 -0.45,-0.17 -0.70,-0.45 -0.50,-0.74 z M 271.16,17.61 c -0.51,0.39 -0.36,0.66 -0.05,0.54 0.16,-0.07 3.15,-1.23 6.17,-4.18 1.63,-1.60 3.59,-5.41 3.59,-5.41 0.00,0.00 1.00,0.64 1.14,0.78 0.32,0.30 0.50,0.54 0.58,0.16 0.31,-1.38 -0.46,-2.08 -1.16,-2.41 0.00,0.00 0.41,-2.14 -1.08,-4.04 -0.25,-0.32 -1.60,-1.27 -2.74,1.09 -0.44,0.90 -0.60,2.95 0.26,3.42 0.85,0.47 2.05,0.79 2.05,0.79 -3.07,4.91 -6.79,7.76 -8.76,9.28 z M 278.93,6.16 c -0.49,-0.14 -0.77,-0.41 -0.60,-0.73 0.59,-1.10 0.95,-1.11 1.24,-0.98 0.91,0.66 0.95,1.92 0.95,2.21 0.00,0.00 -1.11,-0.36 -1.60,-0.50 z M 229.56,19.61 c -0.30,1.44 0.06,2.85 0.99,3.00 0.65,0.10 1.02,0.48 1.19,0.70 0.07,0.09 0.18,0.03 0.21,-0.04 0.74,-1.46 0.07,-2.38 -1.19,-2.74 -0.50,-0.14 -0.73,-0.84 1.13,-2.03 1.71,-1.10 18.59,-9.64 18.97,-9.91 0.51,-0.36 0.82,-0.49 1.02,-1.01 0.20,-0.51 0.25,-0.60 0.35,-0.96 0.11,-0.38 0.22,-0.78 -0.71,-0.20 -0.49,0.31 -19.03,9.54 -20.45,10.69 -0.71,0.58 -1.30,1.49 -1.51,2.48 z M 282.41,32.20 c 0.66,-0.35 2.90,-1.24 3.32,-2.79 0.18,-0.66 1.04,-2.85 -0.30,-5.73 -0.33,-0.54 -2.49,-3.33 -2.49,-3.33 0.64,0.03 1.11,0.10 1.35,0.11 0.25,0.02 0.58,-0.15 0.25,-0.46 -0.33,-0.31 -3.23,-2.54 -3.33,-2.72 -0.10,-0.18 -0.53,-1.24 -0.69,-0.58 -0.17,0.66 -0.43,2.21 -0.43,2.61 0.00,0.40 -0.02,0.61 0.30,0.84 0.31,0.23 0.53,0.66 0.76,1.14 0.23,0.48 2.24,3.83 3.22,4.80 0.53,0.58 0.89,1.24 0.51,1.53 -0.38,0.30 -1.70,1.29 -3.28,1.78 0.00,0.00 -1.58,-2.24 -3.47,-3.43 -0.66,-0.38 -1.85,-1.01 -3.43,0.51 -1.58,1.52 -1.95,4.85 -1.02,6.21 0.43,0.64 2.03,1.60 4.69,0.91 0.73,-0.17 2.38,-0.51 2.62,-0.61 0.25,-0.10 0.23,0.38 0.12,0.68 -0.12,0.30 -4.95,8.75 -11.99,9.92 -1.26,0.21 -5.64,0.22 -6.86,-4.27 -0.21,-0.75 -0.20,-4.35 0.65,-6.53 0.28,0.00 0.56,-0.02 0.84,-0.07 0.53,-0.10 1.60,-0.54 2.24,-2.01 0.18,-0.45 0.65,-2.76 -0.01,-4.61 -0.90,-2.76 -3.53,-6.31 -3.53,-6.31 0.00,0.00 1.36,0.22 1.58,0.24 0.22,0.02 0.66,-0.10 0.29,-0.48 -0.38,-0.38 -3.37,-3.19 -3.37,-3.19 -0.11,-0.19 -0.40,-0.88 -0.52,-0.37 -0.12,0.51 -0.56,3.04 -0.56,3.04 -0.02,0.24 0.15,0.42 0.30,0.54 0.14,0.12 0.48,0.88 0.63,1.20 0.14,0.32 3.76,6.47 4.00,7.06 0.24,0.59 0.70,1.98 -1.63,1.89 -2.33,-0.09 -3.56,-1.43 -3.61,-1.94 -0.04,-0.50 -0.26,-1.20 -0.70,-0.16 -0.45,1.04 -0.90,3.66 -3.08,3.50 -0.31,-0.02 -2.10,-0.37 -2.15,-1.87 0.01,-0.51 0.14,-0.68 0.25,-1.04 0.21,-0.54 -0.10,-1.03 -0.45,-0.36 -0.35,0.67 -2.87,5.06 -6.82,3.36 0.00,0.00 -1.39,-1.95 -1.62,-2.27 -0.23,-0.32 -0.44,-0.36 -0.47,-0.06 -0.03,0.31 -0.17,2.42 -0.17,2.42 0.00,0.00 2.17,3.54 2.60,5.62 0.08,0.37 -0.18,1.16 -0.69,1.69 -0.51,0.53 -6.70,6.67 -13.64,7.02 -1.19,0.06 -7.41,-0.13 -8.49,-5.02 -0.21,-0.95 -0.68,-4.47 0.81,-8.14 0.71,-0.17 1.53,-0.99 2.02,-3.50 0.08,-0.63 0.13,-1.13 0.17,-1.38 0.05,-0.38 -0.21,-0.81 -0.41,0.06 -0.46,1.72 -1.84,2.98 -3.06,0.78 -0.20,-0.44 -1.05,-2.45 0.04,-7.01 0.22,-0.88 0.49,-2.20 0.49,-2.20 0.25,-1.00 -0.15,-1.51 -0.51,-0.29 -0.36,1.22 -1.91,5.46 -1.36,10.32 0.11,0.99 0.73,2.80 1.90,3.18 -0.59,1.62 -4.26,10.57 1.84,14.97 0.64,0.46 7.17,4.14 16.08,-2.13 0.64,-0.45 4.97,-3.37 5.54,-6.12 0.42,-1.23 0.20,-4.55 0.20,-4.55 0.40,0.00 2.90,0.08 4.62,-2.47 0.00,0.00 1.31,2.06 2.70,2.17 0.52,0.04 2.31,0.42 3.70,-3.24 0.00,0.00 1.36,1.32 3.20,1.66 0.00,0.01 -0.01,0.02 -0.01,0.03 -0.35,1.28 -2.70,9.83 1.67,12.78 0.93,0.62 5.43,3.21 12.98,-3.00 1.80,-1.48 3.90,-3.69 5.02,-6.04 0.65,-1.36 0.64,-4.28 0.64,-4.28 z M 275.17,30.55 c -0.66,-0.26 -0.52,-0.69 0.21,-1.35 0.73,-0.66 2.39,-0.64 3.60,1.16 0.00,0.00 -1.62,0.83 -3.82,0.19 z M 327.72,7.03 c 0.17,0.10 0.36,0.11 0.41,-0.10 0.05,-0.21 0.29,-0.68 0.62,-0.34 0.28,0.28 2.09,1.78 3.03,4.95 0.16,0.42 0.55,0.46 0.64,-0.14 0.22,-1.47 0.34,-4.02 0.45,-4.79 0.16,-1.09 0.68,-3.33 2.06,-2.16 0.31,0.26 0.64,0.61 0.64,0.61 0.29,0.37 0.66,0.79 0.84,0.36 0.27,-0.64 0.49,-1.70 0.19,-2.28 -0.13,-0.26 -1.84,-2.41 -3.00,-0.93 -1.44,1.83 -1.53,4.23 -1.72,6.91 -0.20,-0.56 -1.35,-4.16 -5.02,-6.21 -0.27,-0.15 -0.81,0.13 -0.86,0.98 -0.03,0.49 -0.17,1.69 0.18,2.03 0.35,0.34 1.37,1.01 1.54,1.10 z M 348.32,14.30 c 0.18,-0.50 -0.04,-0.77 -0.29,-0.16 -0.25,0.61 -1.30,2.73 -1.14,5.22 0.04,0.58 0.42,1.70 1.29,1.73 0.45,0.00 1.03,-0.33 1.44,-1.74 0.07,-0.32 0.12,-0.57 0.15,-0.70 0.04,-0.19 -0.10,-0.42 -0.24,0.02 -0.33,0.86 -1.18,1.47 -1.82,0.31 -0.10,-0.23 -0.53,-1.28 0.26,-3.57 0.16,-0.44 0.36,-1.11 0.36,-1.11 z M 345.56,6.37 c 0.79,0.58 1.94,1.04 1.94,1.04 -3.66,4.48 -10.84,7.67 -12.56,9.01 -0.51,0.39 -0.44,0.61 -0.12,0.53 0.28,-0.08 5.76,-1.61 10.76,-5.90 2.29,-1.97 2.23,-2.11 2.81,-3.31 0.50,0.26 0.84,0.67 1.03,0.91 0.28,0.34 0.43,0.60 0.56,0.23 0.48,-1.33 -0.20,-2.13 -0.84,-2.54 0.00,0.00 0.67,-2.07 -0.56,-4.14 -0.21,-0.35 -1.43,-1.46 -2.85,0.74 -0.55,0.84 -0.96,2.85 -0.17,3.42 z M 346.29,4.34 c 0.73,-1.02 1.08,-0.98 1.36,-0.82 0.82,0.77 0.70,2.02 0.67,2.31 0.00,0.00 -1.05,-0.49 -1.52,-0.70 -0.47,-0.20 -0.72,-0.50 -0.50,-0.80 z M 322.21,20.27 c 0.48,0.00 1.11,-0.35 1.55,-1.87 0.08,-0.34 0.13,-0.62 0.16,-0.75 0.05,-0.21 -0.10,-0.45 -0.26,0.02 -0.36,0.93 -1.27,1.58 -1.96,0.33 -0.11,-0.25 -0.58,-1.38 0.28,-3.86 0.17,-0.48 0.39,-1.20 0.39,-1.20 0.19,-0.54 -0.04,-0.84 -0.31,-0.17 -0.27,0.66 -1.40,2.94 -1.23,5.64 0.04,0.62 0.45,1.83 1.39,1.86 z M 353.90,24.89 c -0.25,-0.27 -0.37,-0.01 -0.46,0.31 -0.09,0.32 -0.36,1.52 -0.54,2.27 0.00,0.00 0.71,1.16 0.97,1.76 0.25,0.59 -0.12,0.92 -0.86,1.01 -2.08,0.25 -3.73,-0.94 -4.30,-1.48 -0.57,-0.55 0.05,-1.52 0.51,-2.68 0.37,-0.93 -0.32,-1.04 -0.84,0.00 -1.76,4.63 -4.23,5.12 -4.88,5.30 -5.86,1.60 -5.36,-3.76 -5.33,-4.64 0.02,-0.88 -0.62,-0.55 -1.34,0.03 -2.47,1.98 -4.45,3.14 -5.52,3.62 -0.92,-1.80 -2.26,-2.93 -2.82,-3.34 -6.34,-4.63 -6.87,4.71 -6.67,5.71 0.97,3.97 7.45,1.56 8.46,1.44 1.02,-0.12 0.68,1.22 0.11,2.02 -1.41,1.97 -3.03,3.38 -4.50,4.57 -6.28,5.13 -9.44,4.72 -10.41,4.69 -6.17,-0.17 -5.60,-6.82 -5.26,-8.24 1.86,-1.57 3.45,-3.28 4.38,-5.04 0.38,-0.96 1.03,-3.16 -0.15,-5.91 -0.62,-1.21 -2.56,-4.60 -2.56,-4.60 0.00,0.00 1.43,0.04 1.57,0.04 0.14,0.00 0.41,-0.14 0.06,-0.55 -0.35,-0.40 -3.36,-3.40 -3.54,-3.65 -0.18,-0.24 -0.35,-0.41 -0.45,-0.06 -0.10,0.36 -0.36,1.88 -0.42,2.20 -0.06,0.31 -0.06,0.63 0.10,0.90 0.16,0.27 0.55,1.20 0.84,1.96 0.29,0.76 3.25,6.47 3.53,6.98 0.27,0.51 0.33,0.88 0.06,1.22 -9.53,10.05 -27.91,16.23 -28.50,16.58 -0.59,0.34 -0.43,0.61 0.56,0.43 1.48,-0.26 9.74,-1.64 12.09,-2.78 1.55,-0.75 6.97,-3.41 11.41,-6.89 -0.12,0.90 -0.24,2.22 -0.17,3.89 0.30,8.08 7.53,6.74 9.43,6.33 5.68,-1.25 12.64,-9.11 13.23,-10.69 0.58,-1.56 0.67,-2.98 0.54,-4.22 1.50,-0.81 4.71,-3.40 4.71,-3.40 0.13,3.45 2.87,4.48 3.72,4.63 3.96,0.60 5.94,-2.70 6.78,-3.78 0.72,1.89 2.45,2.26 3.34,2.43 3.41,0.68 4.08,-1.73 4.25,-2.29 1.07,-3.33 -0.86,-5.81 -1.11,-6.08 z M 325.27,31.57 c -2.03,-0.14 -1.85,-0.92 -1.57,-1.22 0.30,-0.33 2.78,-1.89 4.85,0.89 0.00,0.00 -0.86,0.50 -3.28,0.33 z M 287.84,13.78 c 0.17,-0.04 3.05,-0.49 6.41,-3.05 1.82,-1.38 2.92,-3.74 2.92,-3.74 0.00,0.00 0.91,0.76 1.03,0.91 0.28,0.34 0.43,0.60 0.56,0.23 0.48,-1.33 -0.20,-2.13 -0.84,-2.54 0.00,0.00 0.67,-2.07 -0.56,-4.14 -0.21,-0.35 -1.43,-1.46 -2.85,0.74 -0.55,0.84 -0.96,2.85 -0.17,3.42 0.79,0.58 1.94,1.04 1.94,1.04 -3.66,4.48 -6.16,5.34 -8.30,6.59 -0.55,0.32 -0.44,0.61 -0.12,0.53 z M 295.55,4.39 c -0.47,-0.20 -0.72,-0.50 -0.50,-0.80 0.73,-1.02 1.08,-0.98 1.36,-0.82 0.82,0.77 0.70,2.02 0.67,2.31 0.00,0.00 -1.05,-0.49 -1.52,-0.70 z M 294.79,23.91 c 0.00,0.00 1.25,-0.31 1.47,-0.38 0.22,-0.06 0.34,-0.35 -0.05,-0.55 -0.39,-0.20 -4.09,-1.67 -4.37,-1.79 -0.28,-0.11 -0.38,-0.24 -0.41,0.06 -0.02,0.30 -0.07,2.73 -0.07,2.73 0.00,0.00 -0.06,0.17 0.27,0.35 0.32,0.18 0.64,0.58 0.90,0.84 0.26,0.26 3.70,2.98 3.87,3.07 0.00,0.00 -1.72,3.02 -1.94,5.38 -0.22,2.36 0.04,5.63 3.27,4.57 0.87,-0.25 4.49,-1.69 5.30,-4.21 0.26,-0.93 1.01,-2.61 -0.21,-4.31 -0.70,-1.00 -3.53,-2.69 -3.53,-2.69 0.00,0.00 2.17,-3.00 2.38,-3.37 0.21,-0.37 1.00,-2.69 1.09,-3.26 0.09,-0.56 0.13,-0.84 -0.29,-0.32 -0.42,0.52 -4.63,6.05 -4.63,6.05 z M 301.75,32.79 c -1.20,0.99 -3.72,2.29 -4.43,2.36 -0.71,0.07 -2.59,-0.28 -1.77,-2.20 0.28,-0.62 2.16,-3.84 2.16,-3.84 0.70,0.39 5.24,2.70 4.04,3.69 z M 295.42,14.16 c -0.06,-0.05 -0.15,-0.03 -0.20,0.04 -1.53,2.10 -1.53,2.10 -1.53,2.10 -0.05,0.07 -0.04,0.16 0.03,0.21 2.61,1.91 2.61,1.91 2.61,1.91 0.06,0.05 0.15,0.03 0.20,-0.04 1.32,-1.81 1.32,-1.81 1.32,-1.81 2.54,1.85 2.54,1.85 2.54,1.85 0.06,0.05 0.15,0.03 0.20,-0.04 1.53,-2.10 1.53,-2.10 1.53,-2.10 0.05,-0.07 0.04,-0.16 -0.03,-0.21 -2.61,-1.91 -2.61,-1.91 -2.61,-1.91 -0.06,-0.05 -0.15,-0.03 -0.20,0.04 -1.32,1.81 -1.32,1.81 -1.32,1.81 z M 304.52,12.30 c 0.25,-0.16 13.84,-8.02 14.32,-8.31 0.46,-0.29 0.72,-0.41 0.90,-0.85 0.18,-0.44 0.23,-0.52 0.33,-0.82 0.10,-0.32 0.21,-0.67 -0.61,-0.19 -0.53,0.31 -14.04,8.11 -14.59,8.46 -0.55,0.35 -0.74,0.44 -0.83,0.87 -0.09,0.42 -0.13,0.67 -0.16,0.73 -0.10,0.28 -0.17,0.63 0.64,0.10 z M 350.70,37.21 c -0.24,0.68 -0.34,1.12 -0.31,1.38 0.03,0.26 0.12,1.10 0.12,1.10 -0.25,0.20 -1.33,0.87 -2.40,0.08 0.07,-0.23 0.21,-0.70 0.24,-0.95 0.12,-0.40 -0.13,-0.69 -0.32,-0.28 -0.20,0.41 -0.65,1.79 -0.99,2.10 -0.34,0.31 -0.74,1.45 -3.30,0.29 -0.45,-0.17 -1.23,-0.75 -2.46,0.48 -2.77,2.57 -4.68,2.78 -7.79,3.88 -0.38,0.17 -1.16,0.77 -0.23,0.67 0.94,-0.09 4.87,0.00 7.01,-2.46 0.45,-0.43 0.96,-1.58 2.66,-0.92 0.94,0.36 2.68,1.85 4.58,-1.10 1.12,0.75 2.82,0.45 3.09,-0.38 0.27,-0.82 0.58,-1.64 0.58,-2.20 0.00,-0.56 -0.05,-1.30 -0.05,-1.30 -0.04,-0.44 -0.19,-1.07 -0.44,-0.40 z" />
     </g>
</svg>
