<?xml version="1.0" encoding="UTF-8"?>
<svg version="1.1" id="Layer_1" x="0px" y="0px" width="578" height="50" viewBox="0 0 578 50"
xml:space="preserve" xmlns="http://www.w3.org/2000/svg" xmlns:svg="http://www.w3.org/2000/svg" xmlns:rdf="http://www.w3.org/1999/02/22-rdf-syntax-ns#"  xmlns:cc="http://creativecommons.org/ns#" xmlns:dc="http://purl.org/dc/elements/1.1/">
     <g>
<path d="M 310.65,43.22 c -0.04,0.46 0.17,0.63 0.38,0.19 0.11,-0.24 0.59,-1.22 0.73,-3.80 0.11,-1.94 -0.05,-4.91 -0.60,-9.01 -0.08,-0.60 -2.95,-21.37 -2.95,-21.37 0.00,0.00 1.55,1.46 1.80,1.72 0.25,0.26 0.55,0.12 0.41,-0.30 -0.14,-0.42 -3.32,-8.09 -3.42,-8.36 -0.10,-0.27 -0.20,-0.46 -0.33,-0.15 -0.13,0.31 -1.08,2.64 -1.08,2.64 0.02,0.14 0.28,1.16 0.33,1.54 0.44,3.37 3.20,23.25 3.99,29.54 0.39,3.09 0.69,5.88 0.73,7.37 z M 210.50,25.75 c -1.53,2.10 -1.53,2.10 -1.53,2.10 -0.05,0.07 -0.04,0.16 0.03,0.21 2.61,1.91 2.61,1.91 2.61,1.91 0.06,0.05 0.15,0.03 0.20,-0.04 1.32,-1.81 1.32,-1.81 1.32,-1.81 2.54,1.85 2.54,1.85 2.54,1.85 0.06,0.05 0.15,0.03 0.20,-0.04 1.53,-2.10 1.53,-2.10 1.53,-2.10 0.05,-0.07 0.04,-0.16 -0.03,-0.20 -2.62,-1.91 -2.62,-1.91 -2.62,-1.91 -0.06,-0.05 -0.15,-0.03 -0.20,0.04 -1.32,1.81 -1.32,1.81 -1.32,1.81 -2.54,-1.85 -2.54,-1.85 -2.54,-1.85 -0.06,-0.05 -0.15,-0.03 -0.20,0.04 z M 238.70,43.14 c -0.06,-0.05 -0.15,-0.03 -0.20,0.04 -1.32,1.81 -1.32,1.81 -1.32,1.81 -2.54,-1.85 -2.54,-1.85 -2.54,-1.85 -0.06,-0.05 -0.15,-0.03 -0.20,0.04 -1.53,2.10 -1.53,2.10 -1.53,2.10 -0.05,0.07 -0.04,0.16 0.03,0.20 2.61,1.91 2.61,1.91 2.61,1.91 0.06,0.05 0.15,0.03 0.20,-0.04 1.32,-1.81 1.32,-1.81 1.32,-1.81 2.54,1.85 2.54,1.85 2.54,1.85 0.06,0.05 0.15,0.03 0.20,-0.04 1.53,-2.10 1.53,-2.10 1.53,-2.10 0.05,-0.07 0.04,-0.16 -0.03,-0.21 z M 242.12,22.75 c 0.27,0.19 0.57,0.46 0.57,0.46 0.26,0.28 0.59,0.60 0.71,0.24 0.18,-0.54 0.28,-1.43 0.00,-1.88 -0.12,-0.20 -1.67,-1.84 -2.52,-0.55 -1.05,1.59 -0.96,3.56 -0.92,5.77 -0.21,-0.44 -1.39,-3.30 -4.54,-4.73 -0.23,-0.10 -0.65,0.17 -0.63,0.86 0.01,0.41 -0.02,1.39 0.29,1.65 0.31,0.25 1.19,0.73 1.34,0.79 0.15,0.07 0.30,0.06 0.33,-0.11 0.03,-0.17 0.19,-0.58 0.48,-0.32 0.25,0.21 1.83,1.31 2.82,3.84 0.16,0.33 0.48,0.34 0.52,-0.16 0.08,-1.21 -0.01,-3.31 0.03,-3.95 0.06,-0.90 0.33,-2.76 1.53,-1.91 z M 275.22,6.12 c 0.16,0.07 0.33,0.07 0.36,-0.12 0.03,-0.19 0.20,-0.63 0.52,-0.35 0.27,0.23 1.99,1.42 3.07,4.17 0.18,0.36 0.53,0.37 0.56,-0.17 0.08,-1.32 -0.01,-3.60 0.04,-4.29 0.06,-0.98 0.36,-3.01 1.67,-2.08 0.30,0.21 0.62,0.50 0.62,0.50 0.29,0.30 0.65,0.65 0.77,0.26 0.19,-0.59 0.30,-1.55 0.00,-2.04 -0.14,-0.22 -1.81,-2.00 -2.74,-0.60 -1.14,1.73 -1.04,3.88 -1.01,6.27 -0.22,-0.48 -1.52,-3.59 -4.94,-5.14 -0.25,-0.11 -0.71,0.18 -0.69,0.94 0.01,0.44 -0.02,1.52 0.31,1.79 0.33,0.28 1.29,0.79 1.46,0.86 z M 205.15,7.73 c 0.16,0.08 0.32,0.08 0.36,-0.10 0.04,-0.19 0.23,-0.62 0.54,-0.32 0.26,0.24 1.92,1.52 2.87,4.31 0.16,0.37 0.51,0.39 0.57,-0.14 0.14,-1.31 0.16,-3.59 0.24,-4.28 0.11,-0.97 0.50,-2.99 1.76,-2.00 0.29,0.23 0.59,0.52 0.59,0.52 0.27,0.32 0.61,0.68 0.76,0.30 0.22,-0.58 0.38,-1.54 0.09,-2.04 -0.13,-0.22 -1.72,-2.09 -2.70,-0.73 -1.22,1.68 -1.22,3.83 -1.30,6.22 -0.20,-0.49 -1.35,-3.66 -4.69,-5.37 -0.24,-0.12 -0.72,0.15 -0.73,0.90 -0.01,0.44 -0.09,1.51 0.23,1.80 0.32,0.29 1.26,0.85 1.41,0.93 z M 234.18,18.44 c 0.30,-0.16 22.80,-10.71 23.36,-11.01 0.54,-0.29 0.83,-0.47 1.04,-0.97 0.21,-0.50 0.26,-0.59 0.38,-0.94 0.12,-0.37 0.29,-0.67 -0.70,-0.21 -0.69,0.32 -22.96,10.84 -23.67,11.18 -0.67,0.32 -0.85,0.51 -0.95,0.99 -0.10,0.48 -0.15,0.76 -0.18,0.84 -0.11,0.32 -0.19,0.61 0.73,0.12 z M 272.02,21.87 c 0.30,-0.16 22.80,-10.71 23.36,-11.01 0.54,-0.29 0.83,-0.47 1.04,-0.97 0.21,-0.50 0.26,-0.59 0.38,-0.94 0.12,-0.37 0.29,-0.67 -0.70,-0.21 -0.69,0.32 -22.96,10.84 -23.67,11.18 -0.67,0.32 -0.85,0.51 -0.95,0.99 -0.10,0.48 -0.15,0.76 -0.18,0.84 -0.11,0.32 -0.19,0.61 0.73,0.12 z M 268.71,42.48 c -0.55,0.28 -7.51,3.00 -8.08,3.31 -0.57,0.32 -0.77,0.40 -0.88,0.81 -0.11,0.42 -0.17,0.66 -0.20,0.72 -0.12,0.28 -0.21,0.62 0.63,0.14 0.26,-0.15 7.33,-2.91 7.79,-3.18 0.47,-0.27 0.75,-0.36 0.96,-0.79 0.21,-0.42 0.26,-0.50 0.38,-0.80 0.12,-0.32 0.25,-0.65 -0.60,-0.22 z M 223.39,41.77 c -0.55,0.28 -12.64,5.01 -13.20,5.33 -0.57,0.32 -0.77,0.40 -0.88,0.81 -0.11,0.41 -0.17,0.66 -0.20,0.72 -0.12,0.28 -0.21,0.62 0.63,0.14 0.26,-0.15 12.45,-4.93 12.92,-5.20 0.47,-0.27 0.75,-0.36 0.96,-0.79 0.21,-0.42 0.26,-0.50 0.38,-0.80 0.12,-0.32 0.25,-0.65 -0.60,-0.23 z M 278.50,22.24 c 0.20,-0.58 -0.04,-0.89 -0.33,-0.19 -0.29,0.71 -1.50,3.14 -1.31,6.01 0.04,0.66 0.48,1.95 1.48,1.99 0.52,0.00 1.18,-0.38 1.66,-2.00 0.08,-0.37 0.13,-0.66 0.17,-0.81 0.05,-0.22 -0.11,-0.48 -0.28,0.02 -0.38,0.99 -1.36,1.69 -2.09,0.35 -0.12,-0.26 -0.62,-1.47 0.30,-4.11 0.18,-0.51 0.41,-1.27 0.41,-1.27 z M 239.10,8.93 c 0.47,0.00 1.08,-0.34 1.52,-1.83 0.08,-0.34 0.12,-0.60 0.15,-0.74 0.05,-0.20 -0.10,-0.44 -0.25,0.02 -0.35,0.91 -1.25,1.55 -1.92,0.33 -0.11,-0.24 -0.56,-1.35 0.27,-3.77 0.17,-0.47 0.38,-1.17 0.38,-1.17 0.19,-0.53 -0.04,-0.82 -0.30,-0.17 -0.26,0.65 -1.37,2.88 -1.20,5.50 0.04,0.61 0.44,1.79 1.36,1.82 z M 209.33,15.50 c 0.19,-0.53 -0.04,-0.82 -0.30,-0.17 -0.26,0.65 -1.37,2.88 -1.20,5.50 0.04,0.61 0.44,1.79 1.36,1.82 0.47,0.00 1.08,-0.34 1.52,-1.83 0.07,-0.34 0.12,-0.60 0.15,-0.74 0.05,-0.20 -0.10,-0.44 -0.26,0.02 -0.35,0.91 -1.24,1.55 -1.92,0.33 -0.11,-0.24 -0.56,-1.35 0.27,-3.77 0.17,-0.47 0.38,-1.17 0.38,-1.17 z M 258.99,18.40 c 0.08,0.71 0.60,2.09 1.61,2.07 0.52,-0.03 1.16,-0.47 1.54,-2.26 0.06,-0.40 0.09,-0.72 0.12,-0.88 0.04,-0.24 -0.14,-0.51 -0.28,0.04 -0.32,1.10 -1.26,1.91 -2.08,0.50 -0.13,-0.28 -0.71,-1.56 0.04,-4.47 0.15,-0.56 0.34,-1.40 0.34,-1.40 0.17,-0.64 -0.10,-0.96 -0.34,-0.18 -0.25,0.78 -1.31,3.48 -0.95,6.58 z M 292.47,15.72 c 0.26,-0.79 -0.04,-1.23 -0.40,-0.26 -0.36,0.97 -1.86,4.31 -1.66,8.27 0.05,0.91 0.57,2.70 1.80,2.75 0.63,0.00 1.45,-0.51 2.05,-2.74 0.10,-0.51 0.17,-0.91 0.21,-1.11 0.06,-0.30 -0.13,-0.66 -0.34,0.03 -0.47,1.37 -1.68,2.31 -2.57,0.47 -0.14,-0.36 -0.74,-2.03 0.40,-5.66 0.23,-0.70 0.52,-1.75 0.52,-1.75 z M 221.56,16.86 c 0.73,0.03 1.71,-0.54 2.50,-3.17 0.14,-0.60 0.24,-1.07 0.30,-1.31 0.09,-0.35 -0.12,-0.79 -0.40,0.02 -0.61,1.60 -2.05,2.68 -3.00,0.46 -0.15,-0.44 -0.77,-2.45 0.71,-6.71 0.30,-0.83 0.68,-2.06 0.68,-2.06 0.33,-0.93 0.01,-1.46 -0.46,-0.32 -0.46,1.14 -2.35,5.05 -2.30,9.75 0.01,1.09 0.55,3.23 1.96,3.35 z M 346.11,20.73 c 0.48,0.00 1.11,-0.35 1.55,-1.87 0.08,-0.34 0.13,-0.62 0.16,-0.75 0.05,-0.21 -0.10,-0.45 -0.26,0.02 -0.35,0.93 -1.27,1.58 -1.96,0.33 -0.11,-0.25 -0.58,-1.38 0.28,-3.86 0.17,-0.48 0.39,-1.20 0.39,-1.20 0.19,-0.54 -0.04,-0.84 -0.31,-0.17 -0.27,0.66 -1.40,2.94 -1.23,5.63 0.04,0.62 0.45,1.83 1.39,1.87 z M 351.61,7.48 c 0.17,0.10 0.36,0.11 0.41,-0.10 0.05,-0.21 0.28,-0.68 0.62,-0.34 0.28,0.28 2.09,1.78 3.03,4.95 0.16,0.42 0.55,0.46 0.64,-0.14 0.22,-1.47 0.34,-4.02 0.45,-4.79 0.16,-1.09 0.68,-3.32 2.06,-2.16 0.31,0.26 0.64,0.61 0.64,0.61 0.29,0.37 0.66,0.79 0.84,0.36 0.27,-0.64 0.49,-1.70 0.19,-2.28 -0.13,-0.25 -1.84,-2.41 -3.00,-0.93 -1.44,1.83 -1.53,4.23 -1.72,6.91 -0.20,-0.56 -1.35,-4.16 -5.02,-6.21 -0.27,-0.15 -0.81,0.13 -0.86,0.98 -0.03,0.49 -0.17,1.69 0.18,2.03 0.35,0.34 1.37,1.00 1.54,1.10 z M 377.80,25.35 c -0.25,-0.28 -0.37,-0.01 -0.46,0.31 -0.09,0.32 -0.36,1.52 -0.53,2.27 0.00,0.00 0.71,1.16 0.97,1.76 0.25,0.59 -0.12,0.92 -0.86,1.01 -2.08,0.25 -3.73,-0.94 -4.30,-1.48 -0.57,-0.55 0.05,-1.52 0.51,-2.68 0.37,-0.93 -0.32,-1.04 -0.84,0.00 -1.76,4.63 -4.23,5.13 -4.88,5.30 -5.86,1.60 -5.36,-3.76 -5.34,-4.64 0.02,-0.88 -0.62,-0.55 -1.34,0.03 -2.47,1.98 -4.45,3.14 -5.52,3.62 -0.92,-1.80 -2.26,-2.93 -2.82,-3.33 -6.34,-4.63 -6.87,4.71 -6.67,5.71 0.97,3.97 7.45,1.56 8.46,1.44 1.02,-0.12 0.68,1.22 0.11,2.02 -1.41,1.97 -3.03,3.38 -4.50,4.57 -6.28,5.13 -9.44,4.72 -10.41,4.69 -6.17,-0.17 -5.60,-6.82 -5.26,-8.24 1.86,-1.57 3.45,-3.28 4.38,-5.04 0.38,-0.96 1.03,-3.16 -0.15,-5.91 -0.62,-1.21 -2.56,-4.61 -2.56,-4.61 0.00,0.00 1.43,0.04 1.57,0.04 0.14,0.00 0.41,-0.14 0.06,-0.54 -0.35,-0.40 -3.36,-3.40 -3.54,-3.65 -0.18,-0.24 -0.35,-0.42 -0.45,-0.06 -0.10,0.35 -0.36,1.88 -0.42,2.20 -0.06,0.31 -0.06,0.63 0.10,0.90 0.15,0.27 0.55,1.20 0.84,1.96 0.29,0.76 3.26,6.47 3.53,6.98 0.27,0.51 0.33,0.88 0.06,1.22 -9.53,10.05 -27.91,16.23 -28.50,16.57 -0.59,0.34 -0.43,0.61 0.56,0.43 1.48,-0.26 9.74,-1.64 12.09,-2.77 1.55,-0.75 6.98,-3.41 11.41,-6.89 -0.12,0.90 -0.24,2.22 -0.18,3.89 0.30,8.08 7.53,6.74 9.43,6.33 5.68,-1.25 12.64,-9.11 13.23,-10.69 0.58,-1.56 0.67,-2.98 0.54,-4.22 1.50,-0.81 4.71,-3.40 4.71,-3.40 0.13,3.45 2.88,4.48 3.72,4.63 3.96,0.60 5.94,-2.70 6.78,-3.78 0.72,1.89 2.45,2.26 3.34,2.43 3.41,0.68 4.08,-1.73 4.26,-2.29 1.07,-3.33 -0.86,-5.81 -1.11,-6.08 z M 349.16,32.02 c -2.03,-0.14 -1.85,-0.92 -1.57,-1.22 0.30,-0.33 2.78,-1.89 4.85,0.89 0.00,0.00 -0.86,0.50 -3.28,0.33 z M 328.42,12.75 c 0.25,-0.16 13.84,-8.02 14.32,-8.32 0.46,-0.28 0.72,-0.41 0.91,-0.84 0.18,-0.44 0.23,-0.52 0.33,-0.82 0.10,-0.32 0.21,-0.67 -0.61,-0.19 -0.53,0.31 -14.04,8.11 -14.59,8.46 -0.55,0.35 -0.74,0.44 -0.83,0.87 -0.09,0.42 -0.13,0.67 -0.16,0.73 -0.10,0.28 -0.17,0.63 0.64,0.11 z M 372.22,14.75 c 0.18,-0.50 -0.04,-0.77 -0.29,-0.16 -0.25,0.61 -1.30,2.73 -1.14,5.22 0.04,0.58 0.42,1.70 1.29,1.73 0.45,0.00 1.03,-0.33 1.44,-1.73 0.07,-0.32 0.12,-0.57 0.15,-0.70 0.04,-0.19 -0.10,-0.42 -0.24,0.02 -0.33,0.86 -1.18,1.47 -1.82,0.31 -0.10,-0.23 -0.53,-1.28 0.26,-3.57 0.16,-0.44 0.36,-1.11 0.36,-1.11 z M 374.59,37.66 c -0.24,0.68 -0.34,1.12 -0.31,1.38 0.03,0.26 0.11,1.10 0.11,1.10 -0.25,0.20 -1.33,0.87 -2.40,0.08 0.07,-0.23 0.21,-0.70 0.24,-0.95 0.12,-0.40 -0.13,-0.69 -0.32,-0.28 -0.20,0.41 -0.65,1.79 -0.99,2.10 -0.34,0.31 -0.73,1.45 -3.30,0.29 -0.45,-0.17 -1.23,-0.75 -2.46,0.48 -2.77,2.57 -4.68,2.77 -7.79,3.88 -0.38,0.17 -1.16,0.77 -0.23,0.67 0.94,-0.09 4.87,0.00 7.01,-2.46 0.45,-0.43 0.96,-1.58 2.66,-0.92 0.94,0.36 2.68,1.85 4.58,-1.10 1.12,0.75 2.82,0.45 3.09,-0.38 0.27,-0.82 0.58,-1.64 0.58,-2.20 0.00,-0.56 -0.05,-1.30 -0.05,-1.30 -0.04,-0.44 -0.19,-1.07 -0.44,-0.40 z M 369.46,6.82 c 0.79,0.58 1.93,1.04 1.93,1.04 -3.66,4.49 -10.84,7.67 -12.55,9.01 -0.51,0.39 -0.44,0.61 -0.12,0.53 0.29,-0.08 5.76,-1.61 10.76,-5.90 2.29,-1.97 2.23,-2.11 2.82,-3.31 0.50,0.26 0.84,0.67 1.03,0.91 0.28,0.34 0.43,0.60 0.56,0.23 0.48,-1.33 -0.20,-2.13 -0.84,-2.54 0.00,0.00 0.67,-2.07 -0.56,-4.14 -0.21,-0.35 -1.43,-1.46 -2.85,0.74 -0.55,0.84 -0.96,2.85 -0.17,3.42 z M 370.19,4.79 c 0.73,-1.02 1.08,-0.99 1.36,-0.82 0.82,0.77 0.70,2.02 0.67,2.31 0.00,0.00 -1.05,-0.49 -1.52,-0.69 -0.47,-0.20 -0.72,-0.50 -0.50,-0.80 z M 311.74,14.23 c 0.17,-0.04 3.05,-0.49 6.41,-3.05 1.82,-1.38 2.92,-3.74 2.92,-3.74 0.00,0.00 0.91,0.76 1.03,0.91 0.28,0.34 0.43,0.60 0.56,0.23 0.48,-1.33 -0.20,-2.13 -0.84,-2.54 0.00,0.00 0.67,-2.07 -0.56,-4.14 -0.21,-0.35 -1.43,-1.46 -2.85,0.74 -0.55,0.84 -0.96,2.85 -0.17,3.42 0.79,0.58 1.93,1.04 1.93,1.04 -3.66,4.49 -6.16,5.34 -8.30,6.60 -0.55,0.32 -0.44,0.61 -0.12,0.52 z M 319.45,4.84 c -0.47,-0.20 -0.72,-0.50 -0.50,-0.80 0.73,-1.02 1.08,-0.99 1.36,-0.82 0.82,0.77 0.70,2.02 0.67,2.31 0.00,0.00 -1.05,-0.49 -1.52,-0.69 z M 318.69,24.36 c 0.00,0.00 1.25,-0.31 1.47,-0.38 0.22,-0.06 0.34,-0.35 -0.05,-0.55 -0.39,-0.20 -4.09,-1.67 -4.37,-1.79 -0.28,-0.12 -0.38,-0.24 -0.41,0.06 -0.02,0.30 -0.07,2.73 -0.07,2.73 0.00,0.00 -0.06,0.17 0.27,0.35 0.32,0.18 0.64,0.58 0.90,0.84 0.26,0.26 3.70,2.98 3.87,3.07 0.00,0.00 -1.72,3.02 -1.94,5.38 -0.22,2.36 0.04,5.63 3.27,4.57 0.87,-0.25 4.49,-1.69 5.30,-4.21 0.26,-0.93 1.01,-2.61 -0.21,-4.31 -0.70,-1.00 -3.53,-2.69 -3.53,-2.69 0.00,0.00 2.17,-3.00 2.38,-3.37 0.21,-0.37 1.00,-2.69 1.09,-3.26 0.09,-0.56 0.13,-0.84 -0.29,-0.32 -0.42,0.52 -4.63,6.05 -4.63,6.05 z M 325.65,33.25 c -1.20,0.99 -3.72,2.29 -4.43,2.36 -0.71,0.07 -2.59,-0.28 -1.77,-2.20 0.28,-0.62 2.16,-3.84 2.16,-3.84 0.70,0.39 5.24,2.70 4.04,3.69 z M 319.32,14.62 c -0.06,-0.05 -0.15,-0.03 -0.20,0.04 -1.53,2.10 -1.53,2.10 -1.53,2.10 -0.05,0.07 -0.04,0.16 0.03,0.20 2.61,1.91 2.61,1.91 2.61,1.91 0.06,0.05 0.15,0.03 0.20,-0.04 1.32,-1.81 1.32,-1.81 1.32,-1.81 2.54,1.85 2.54,1.85 2.54,1.85 0.06,0.05 0.15,0.03 0.20,-0.04 1.53,-2.10 1.53,-2.10 1.53,-2.10 0.05,-0.07 0.04,-0.16 -0.03,-0.20 -2.61,-1.91 -2.61,-1.91 -2.61,-1.91 -0.06,-0.05 -0.15,-0.03 -0.20,0.04 -1.32,1.81 -1.32,1.81 -1.32,1.81 z M 300.22,9.20 c 0.00,0.00 1.42,1.48 1.67,1.74 0.25,0.26 0.55,0.12 0.41,-0.30 -0.14,-0.42 -3.31,-8.09 -3.42,-8.36 -0.10,-0.27 -0.20,-0.46 -0.33,-0.15 -0.13,0.31 -1.15,2.55 -1.15,2.55 0.03,0.18 0.27,0.73 0.43,1.87 0.12,0.83 0.28,1.91 0.46,3.13 0.00,0.00 3.29,24.61 3.29,25.83 0.00,1.23 0.07,2.10 -0.07,2.31 -0.14,0.20 -3.49,3.66 -7.65,0.81 -0.28,-0.18 -0.78,-0.62 -1.35,-1.16 3.21,-1.69 5.65,-3.15 5.72,-3.32 0.15,-0.40 0.60,-2.09 0.60,-2.09 -0.51,-0.40 -9.25,-4.79 -16.85,-0.55 -0.32,0.17 -0.75,0.64 -1.19,2.60 -0.06,0.38 0.19,0.60 0.51,0.45 0.11,-0.05 1.94,-0.81 3.70,-0.01 0.74,0.35 1.77,1.21 2.89,2.23 -0.32,0.15 -0.60,0.29 -0.85,0.39 -0.55,0.28 -8.41,4.75 -13.53,1.83 -0.73,-0.38 -3.47,-1.85 -3.84,-10.10 -0.12,-1.56 -1.48,-21.26 -3.33,-26.93 -0.30,-0.76 -0.36,-0.50 -0.54,-0.24 -0.18,0.26 -1.10,1.69 -0.77,3.20 1.00,3.58 2.10,13.77 2.27,15.16 0.24,1.98 0.79,12.47 1.36,14.87 0.57,2.40 1.25,8.91 10.43,7.99 2.56,-0.33 6.96,-2.24 10.89,-4.19 1.28,1.22 2.51,2.40 3.45,3.09 0.98,0.72 5.60,2.42 8.25,-1.44 0.64,-1.13 1.71,-3.09 1.39,-7.13 -0.12,-1.96 -2.84,-24.09 -2.84,-24.09 z M 288.96,33.82 c -0.23,-0.25 -0.58,-0.58 -1.01,-0.90 1.85,-0.14 3.96,-0.04 6.18,0.54 -0.30,0.17 -1.92,1.08 -3.62,1.99 -0.67,-0.70 -1.26,-1.32 -1.55,-1.64 z M 266.48,31.87 c -0.22,-1.10 -1.25,-2.38 -2.73,-3.08 -1.47,-0.70 -5.87,-2.09 -6.86,-2.53 -2.46,-1.06 -3.23,-2.01 -3.23,-2.01 0.00,0.00 1.33,-0.29 1.54,-0.36 0.21,-0.07 0.47,-0.35 0.15,-0.54 -0.32,-0.19 -4.24,-1.41 -4.46,-1.56 -0.22,-0.16 -0.51,-0.44 -0.62,-0.07 -0.11,0.36 -0.11,3.04 -0.11,3.04 0.33,0.24 1.30,1.15 2.09,1.92 0.79,0.77 3.33,2.77 7.84,4.07 1.12,0.38 4.69,1.76 5.32,3.12 0.20,0.46 0.33,0.88 -0.35,1.45 -0.68,0.57 -6.88,5.70 -14.83,8.71 -0.59,0.23 -4.70,2.16 -4.43,-1.90 0.01,-0.41 0.19,-2.04 0.23,-2.72 0.01,-0.09 0.01,-0.17 0.00,-0.24 1.45,-0.73 2.82,-1.97 3.20,-4.06 0.16,-0.82 0.64,-4.47 -2.92,-7.57 -0.37,-0.27 -0.41,-0.18 -0.49,0.10 -0.08,0.28 -0.52,2.61 -0.52,2.61 0.37,0.37 2.37,2.72 2.53,3.34 0.16,0.63 0.75,1.54 -1.54,2.52 -2.29,0.98 -9.01,2.37 -12.53,0.24 -0.57,-0.35 -2.13,-1.73 -2.54,-5.79 -0.15,-1.50 -1.20,-17.31 -1.40,-19.32 -0.20,-2.01 -1.21,-8.26 -1.41,-8.80 -0.20,-0.54 -0.35,-0.69 -0.69,-0.07 -0.33,0.61 -1.08,1.87 -0.78,3.11 0.96,3.38 1.64,10.66 1.97,16.98 0.37,7.10 -0.13,12.98 3.11,16.07 1.15,1.10 3.08,2.77 10.46,1.68 0.55,-0.08 1.52,-0.24 2.55,-0.62 -0.07,0.56 -0.21,3.26 -0.25,4.06 -0.04,0.84 -0.23,5.87 6.53,3.31 0.89,-0.34 8.14,-3.71 14.33,-8.85 1.03,-0.86 1.89,-0.96 0.84,-6.25 z M 223.33,26.41 c -0.30,-0.46 -0.53,-0.52 -0.67,-0.04 -0.13,0.48 -0.63,2.88 -0.63,2.88 0.49,0.65 2.67,3.45 2.10,4.02 -0.57,0.57 -5.73,4.93 -17.83,5.63 -1.36,0.08 -7.64,-0.10 -7.31,-5.16 0.05,-0.69 0.50,-2.79 1.19,-4.18 0.56,-0.36 1.16,-1.20 1.68,-2.93 0.14,-0.60 0.24,-1.07 0.30,-1.31 0.09,-0.35 -0.12,-0.79 -0.40,0.02 -0.61,1.60 -2.05,2.68 -3.00,0.45 -0.15,-0.44 -0.77,-2.45 0.71,-6.71 0.30,-0.83 0.68,-2.06 0.68,-2.06 0.33,-0.93 0.01,-1.46 -0.46,-0.33 -0.46,1.14 -2.35,5.05 -2.30,9.76 0.01,1.06 0.52,3.11 1.86,3.33 -1.06,1.99 -3.20,6.94 0.09,10.53 0.34,0.40 3.62,3.84 16.23,0.15 2.99,-0.84 7.32,-2.62 9.21,-5.23 0.33,-0.46 1.52,-2.85 0.67,-5.15 -0.34,-0.90 -1.83,-3.21 -2.13,-3.67 z" />
     </g>
</svg>
