<?xml version="1.0" encoding="UTF-8"?>
<svg version="1.1" id="Layer_1" x="0px" y="0px" width="578" height="50" viewBox="0 0 578 50"
xml:space="preserve" xmlns="http://www.w3.org/2000/svg" xmlns:svg="http://www.w3.org/2000/svg" xmlns:rdf="http://www.w3.org/1999/02/22-rdf-syntax-ns#"  xmlns:cc="http://creativecommons.org/ns#" xmlns:dc="http://purl.org/dc/elements/1.1/">
     <g>
<path d="M 301.75,40.74 c -0.04,0.46 0.17,0.64 0.38,0.19 0.11,-0.24 0.59,-1.22 0.73,-3.80 0.11,-1.94 -0.04,-4.91 -0.60,-9.01 -0.08,-0.60 -2.59,-19.34 -2.59,-19.34 0.00,0.00 1.55,1.46 1.80,1.72 0.25,0.26 0.55,0.12 0.41,-0.30 -0.14,-0.42 -3.31,-8.09 -3.42,-8.36 -0.10,-0.27 -0.20,-0.46 -0.33,-0.15 -0.13,0.31 -1.08,2.64 -1.08,2.64 0.02,0.14 0.28,1.15 0.33,1.54 0.44,3.37 2.84,21.22 3.63,27.50 0.39,3.09 0.69,5.88 0.73,7.37 z M 291.20,8.52 c 0.00,0.00 1.37,1.42 1.61,1.68 0.25,0.26 0.55,0.12 0.41,-0.30 -0.14,-0.42 -3.06,-7.80 -3.16,-8.06 -0.10,-0.27 -0.20,-0.46 -0.33,-0.15 -0.13,0.31 -1.15,2.55 -1.15,2.55 0.03,0.18 0.27,0.73 0.43,1.87 0.17,1.15 3.28,27.13 3.32,29.56 0.03,0.73 0.10,0.66 -0.04,0.92 -0.14,0.27 -2.51,2.64 -6.91,2.17 -0.30,-0.06 -1.11,-0.11 -1.97,-0.86 0.84,-0.63 1.54,-1.32 2.00,-2.09 0.82,-1.17 2.06,-4.14 -0.22,-7.76 -0.46,-0.62 -1.90,-1.57 -3.16,-0.20 -1.03,1.12 -3.22,4.05 -1.60,8.84 -0.19,0.08 -0.37,0.15 -0.57,0.22 -1.36,0.57 -9.41,4.31 -15.35,1.28 -0.90,-0.51 -3.16,-2.23 -3.62,-8.04 -0.26,-2.71 -1.48,-21.48 -3.23,-26.93 -0.50,-1.32 -0.63,-0.29 -0.73,-0.10 -0.20,0.40 -0.99,2.51 -0.89,2.81 1.97,6.24 3.15,27.14 4.07,30.04 0.92,2.90 1.41,7.66 12.32,6.20 0.58,-0.05 5.35,-1.06 9.08,-3.06 0.19,0.34 0.39,0.69 0.61,1.04 0.93,1.08 3.45,3.16 8.37,0.95 1.75,-0.96 4.06,-3.17 3.50,-8.65 -0.17,-2.21 -2.78,-23.93 -2.78,-23.93 z M 282.05,35.86 c -0.58,-1.29 -1.31,-3.34 -0.86,-4.11 0.62,-1.08 1.81,-2.37 3.04,-0.69 1.23,1.69 1.06,1.89 0.97,2.04 -0.07,0.12 -1.12,1.54 -3.15,2.76 z M 224.07,16.59 c -0.25,1.18 0.05,2.36 0.82,2.48 0.54,0.09 0.85,0.40 0.98,0.58 0.06,0.08 0.14,0.02 0.17,-0.03 0.61,-1.21 0.06,-1.96 -0.98,-2.26 -0.41,-0.12 -0.60,-0.69 0.93,-1.68 1.41,-0.91 20.56,-10.05 20.87,-10.27 0.42,-0.29 0.68,-0.41 0.84,-0.83 0.16,-0.42 0.21,-0.50 0.29,-0.79 0.09,-0.31 0.18,-0.64 -0.59,-0.16 -0.41,0.25 -20.92,9.96 -22.09,10.91 -0.59,0.48 -1.08,1.23 -1.25,2.05 z M 264.47,19.89 c -0.25,1.18 0.05,2.36 0.82,2.48 0.54,0.09 0.84,0.40 0.98,0.58 0.06,0.08 0.14,0.02 0.17,-0.03 0.61,-1.21 0.06,-1.96 -0.98,-2.26 -0.41,-0.12 -0.60,-0.69 0.93,-1.68 1.41,-0.91 20.03,-9.52 20.34,-9.74 0.42,-0.30 0.68,-0.41 0.84,-0.83 0.16,-0.42 0.21,-0.50 0.29,-0.79 0.09,-0.31 0.18,-0.64 -0.59,-0.16 -0.41,0.25 -20.39,9.44 -21.56,10.39 -0.59,0.48 -1.08,1.23 -1.25,2.05 z M 282.86,19.78 c -1.32,1.81 -1.32,1.81 -1.32,1.81 -2.54,-1.85 -2.54,-1.85 -2.54,-1.85 -0.06,-0.05 -0.15,-0.03 -0.20,0.04 -1.53,2.10 -1.53,2.10 -1.53,2.10 -0.05,0.07 -0.04,0.16 0.03,0.20 2.61,1.91 2.61,1.91 2.61,1.91 0.06,0.05 0.15,0.03 0.20,-0.04 1.32,-1.81 1.32,-1.81 1.32,-1.81 2.54,1.85 2.54,1.85 2.54,1.85 0.06,0.05 0.15,0.03 0.20,-0.04 1.53,-2.10 1.53,-2.10 1.53,-2.10 0.05,-0.07 0.04,-0.16 -0.03,-0.20 -2.61,-1.91 -2.61,-1.91 -2.61,-1.91 -0.06,-0.05 -0.15,-0.03 -0.20,0.04 z M 217.23,23.93 c 0.06,0.05 0.15,0.03 0.20,-0.04 1.32,-1.81 1.32,-1.81 1.32,-1.81 2.54,1.85 2.54,1.85 2.54,1.85 0.06,0.05 0.15,0.03 0.20,-0.04 1.53,-2.10 1.53,-2.10 1.53,-2.10 0.05,-0.07 0.04,-0.16 -0.03,-0.20 -2.61,-1.91 -2.61,-1.91 -2.61,-1.91 -0.06,-0.05 -0.15,-0.03 -0.20,0.04 -1.32,1.81 -1.32,1.81 -1.32,1.81 -2.54,-1.85 -2.54,-1.85 -2.54,-1.85 -0.06,-0.05 -0.15,-0.03 -0.20,0.04 -1.53,2.10 -1.53,2.10 -1.53,2.10 -0.05,0.07 -0.04,0.16 0.03,0.20 z M 217.00,8.46 c 0.16,0.09 0.32,0.10 0.37,-0.09 0.05,-0.19 0.26,-0.62 0.56,-0.31 0.25,0.26 1.88,1.61 2.73,4.47 0.15,0.38 0.50,0.42 0.58,-0.12 0.20,-1.32 0.30,-3.62 0.41,-4.32 0.15,-0.98 0.62,-3.00 1.86,-1.95 0.28,0.24 0.58,0.55 0.58,0.55 0.26,0.33 0.59,0.71 0.76,0.33 0.24,-0.58 0.44,-1.54 0.17,-2.06 -0.12,-0.23 -1.66,-2.18 -2.71,-0.84 -1.30,1.65 -1.38,3.82 -1.55,6.24 -0.18,-0.51 -1.22,-3.75 -4.53,-5.60 -0.24,-0.13 -0.73,0.12 -0.78,0.88 -0.03,0.45 -0.15,1.53 0.16,1.83 0.31,0.31 1.24,0.91 1.39,0.99 z M 265.73,7.36 c 0.16,0.07 0.33,0.07 0.36,-0.11 0.03,-0.19 0.21,-0.63 0.54,-0.34 0.27,0.24 1.99,1.47 3.04,4.27 0.17,0.37 0.53,0.38 0.57,-0.16 0.10,-1.33 0.05,-3.64 0.11,-4.34 0.08,-0.99 0.41,-3.04 1.72,-2.07 0.30,0.22 0.62,0.51 0.62,0.51 0.29,0.31 0.64,0.67 0.78,0.27 0.20,-0.59 0.33,-1.56 0.03,-2.06 -0.13,-0.22 -1.80,-2.06 -2.76,-0.65 -1.18,1.73 -1.11,3.90 -1.12,6.33 -0.22,-0.49 -1.48,-3.66 -4.91,-5.28 -0.25,-0.12 -0.72,0.17 -0.71,0.94 0.00,0.45 -0.05,1.53 0.28,1.82 0.33,0.28 1.30,0.82 1.46,0.89 z M 258.10,41.32 c -0.55,0.28 -6.91,2.76 -7.48,3.08 -0.57,0.32 -0.77,0.40 -0.88,0.81 -0.11,0.42 -0.17,0.66 -0.20,0.72 -0.12,0.28 -0.21,0.62 0.63,0.15 0.26,-0.15 6.73,-2.68 7.20,-2.95 0.47,-0.27 0.75,-0.36 0.96,-0.79 0.21,-0.43 0.26,-0.50 0.38,-0.80 0.13,-0.32 0.25,-0.65 -0.60,-0.23 z M 226.15,41.45 c -0.55,0.28 -7.04,2.76 -7.61,3.07 -0.57,0.32 -0.77,0.40 -0.88,0.81 -0.11,0.41 -0.17,0.66 -0.20,0.72 -0.12,0.28 -0.21,0.62 0.63,0.14 0.26,-0.15 6.86,-2.68 7.33,-2.95 0.47,-0.27 0.75,-0.36 0.96,-0.79 0.21,-0.42 0.26,-0.50 0.38,-0.80 0.12,-0.32 0.25,-0.65 -0.60,-0.23 z M 208.32,14.39 c 0.43,0.00 0.98,-0.31 1.38,-1.66 0.07,-0.31 0.11,-0.55 0.14,-0.67 0.04,-0.18 -0.09,-0.40 -0.23,0.02 -0.31,0.83 -1.13,1.41 -1.74,0.30 -0.10,-0.22 -0.51,-1.22 0.25,-3.42 0.15,-0.43 0.35,-1.06 0.35,-1.06 0.17,-0.48 -0.03,-0.74 -0.28,-0.16 -0.24,0.59 -1.25,2.61 -1.09,5.00 0.04,0.55 0.40,1.63 1.23,1.65 z M 249.99,16.97 c 0.51,0.00 1.17,-0.43 1.64,-2.26 0.08,-0.41 0.13,-0.75 0.17,-0.91 0.05,-0.25 -0.11,-0.54 -0.28,0.02 -0.37,1.12 -1.34,1.91 -2.07,0.40 -0.12,-0.30 -0.61,-1.66 0.29,-4.65 0.18,-0.58 0.41,-1.44 0.41,-1.44 0.20,-0.65 -0.04,-1.01 -0.33,-0.21 -0.29,0.80 -1.48,3.55 -1.30,6.79 0.04,0.75 0.48,2.21 1.47,2.25 z M 271.99,26.80 c 0.21,-0.64 -0.10,-0.96 -0.40,-0.18 -0.30,0.78 -1.59,3.50 -1.19,6.59 0.09,0.71 0.69,2.08 1.88,2.05 0.61,-0.04 1.38,-0.49 1.85,-2.27 0.08,-0.40 0.12,-0.72 0.15,-0.88 0.05,-0.24 -0.16,-0.51 -0.33,0.04 -0.39,1.10 -1.51,1.92 -2.46,0.53 -0.16,-0.28 -0.82,-1.55 0.10,-4.47 0.19,-0.57 0.41,-1.41 0.41,-1.41 z M 369.25,24.89 c -0.25,-0.28 -0.37,-0.01 -0.46,0.31 -0.09,0.32 -0.36,1.52 -0.54,2.27 0.00,0.00 0.71,1.16 0.97,1.75 0.25,0.59 -0.12,0.92 -0.86,1.01 -2.08,0.25 -3.73,-0.94 -4.30,-1.48 -0.57,-0.55 0.05,-1.52 0.51,-2.68 0.37,-0.93 -0.32,-1.04 -0.84,0.00 -1.76,4.63 -4.23,5.12 -4.88,5.30 -5.86,1.60 -5.36,-3.76 -5.34,-4.64 0.02,-0.88 -0.62,-0.55 -1.34,0.03 -2.47,1.98 -4.45,3.14 -5.52,3.62 -0.92,-1.80 -2.26,-2.93 -2.82,-3.34 -6.34,-4.63 -6.87,4.71 -6.67,5.71 0.97,3.97 7.45,1.56 8.46,1.44 1.02,-0.12 0.68,1.22 0.11,2.02 -1.41,1.97 -3.03,3.38 -4.50,4.58 -6.28,5.12 -9.44,4.72 -10.41,4.69 -6.17,-0.17 -5.60,-6.82 -5.26,-8.24 1.86,-1.57 3.45,-3.28 4.38,-5.04 0.38,-0.96 1.03,-3.16 -0.15,-5.91 -0.62,-1.21 -2.56,-4.60 -2.56,-4.60 0.00,0.00 1.43,0.04 1.57,0.04 0.14,0.00 0.41,-0.14 0.06,-0.54 -0.35,-0.40 -3.36,-3.40 -3.54,-3.65 -0.18,-0.24 -0.35,-0.42 -0.45,-0.06 -0.10,0.36 -0.36,1.88 -0.42,2.20 -0.06,0.31 -0.06,0.63 0.10,0.90 0.16,0.27 0.55,1.20 0.84,1.96 0.29,0.76 3.25,6.47 3.53,6.98 0.27,0.51 0.33,0.88 0.06,1.22 -9.53,10.05 -27.91,16.23 -28.50,16.57 -0.59,0.34 -0.43,0.61 0.56,0.43 1.48,-0.26 9.74,-1.64 12.09,-2.77 1.55,-0.75 6.98,-3.41 11.41,-6.89 -0.12,0.90 -0.24,2.22 -0.17,3.89 0.30,8.08 7.53,6.74 9.43,6.33 5.68,-1.25 12.64,-9.11 13.23,-10.69 0.58,-1.56 0.67,-2.98 0.54,-4.22 1.50,-0.81 4.71,-3.40 4.71,-3.40 0.13,3.45 2.87,4.48 3.72,4.63 3.96,0.60 5.94,-2.71 6.78,-3.78 0.72,1.89 2.45,2.25 3.34,2.43 3.41,0.68 4.08,-1.73 4.25,-2.29 1.07,-3.33 -0.86,-5.81 -1.11,-6.08 z M 340.61,31.57 c -2.03,-0.14 -1.85,-0.92 -1.57,-1.22 0.30,-0.33 2.78,-1.89 4.85,0.89 0.00,0.00 -0.86,0.50 -3.28,0.33 z M 254.88,35.65 c 0.39,-0.91 1.07,-2.98 0.03,-5.63 -0.56,-1.17 -2.32,-4.46 -2.32,-4.46 0.00,0.00 1.37,0.08 1.50,0.08 0.13,0.00 0.39,-0.13 0.07,-0.52 -0.32,-0.39 -3.11,-3.34 -3.27,-3.57 -0.17,-0.24 -0.32,-0.41 -0.43,-0.07 -0.11,0.34 -0.39,1.79 -0.46,2.08 -0.07,0.30 -0.07,0.60 0.07,0.86 0.14,0.26 0.49,1.16 0.75,1.89 0.25,0.73 2.92,6.26 3.17,6.75 0.25,0.49 0.05,1.00 -0.22,1.31 -10.24,8.39 -25.96,13.41 -26.53,13.72 -0.57,0.31 -0.43,0.57 0.52,0.43 1.42,-0.21 9.33,-1.29 11.61,-2.31 2.28,-1.02 12.29,-4.84 15.53,-10.56 z M 310.14,23.91 c 0.00,0.00 1.25,-0.31 1.47,-0.38 0.22,-0.06 0.34,-0.35 -0.05,-0.55 -0.39,-0.20 -4.09,-1.67 -4.37,-1.79 -0.28,-0.11 -0.38,-0.24 -0.41,0.06 -0.02,0.30 -0.07,2.73 -0.07,2.73 0.00,0.00 -0.06,0.17 0.27,0.35 0.32,0.18 0.64,0.58 0.90,0.84 0.26,0.26 3.70,2.98 3.87,3.07 0.00,0.00 -1.72,3.02 -1.94,5.38 -0.22,2.36 0.04,5.63 3.27,4.57 0.87,-0.25 4.49,-1.69 5.30,-4.21 0.26,-0.93 1.01,-2.61 -0.21,-4.31 -0.70,-1.00 -3.53,-2.69 -3.53,-2.69 0.00,0.00 2.17,-3.00 2.38,-3.37 0.21,-0.37 1.00,-2.69 1.09,-3.26 0.09,-0.56 0.13,-0.84 -0.29,-0.32 -0.42,0.52 -4.63,6.05 -4.63,6.05 z M 317.10,32.79 c -1.20,0.99 -3.72,2.29 -4.43,2.36 -0.71,0.07 -2.59,-0.28 -1.77,-2.20 0.28,-0.62 2.16,-3.84 2.16,-3.84 0.70,0.39 5.24,2.70 4.04,3.69 z M 310.77,14.16 c -0.06,-0.05 -0.15,-0.03 -0.20,0.04 -1.53,2.10 -1.53,2.10 -1.53,2.10 -0.05,0.07 -0.04,0.16 0.03,0.20 2.61,1.91 2.61,1.91 2.61,1.91 0.06,0.05 0.15,0.03 0.20,-0.04 1.32,-1.81 1.32,-1.81 1.32,-1.81 2.54,1.85 2.54,1.85 2.54,1.85 0.06,0.05 0.15,0.03 0.20,-0.04 1.53,-2.10 1.53,-2.10 1.53,-2.10 0.05,-0.07 0.04,-0.16 -0.03,-0.21 -2.61,-1.91 -2.61,-1.91 -2.61,-1.91 -0.06,-0.05 -0.15,-0.03 -0.20,0.04 -1.32,1.81 -1.32,1.81 -1.32,1.81 z M 343.06,7.03 c 0.17,0.10 0.36,0.11 0.41,-0.10 0.05,-0.21 0.28,-0.68 0.62,-0.34 0.28,0.28 2.09,1.78 3.03,4.95 0.16,0.42 0.55,0.46 0.64,-0.14 0.22,-1.47 0.34,-4.02 0.45,-4.79 0.16,-1.09 0.68,-3.33 2.06,-2.16 0.31,0.26 0.64,0.61 0.64,0.61 0.29,0.37 0.66,0.79 0.84,0.36 0.27,-0.64 0.49,-1.70 0.19,-2.28 -0.13,-0.26 -1.84,-2.41 -3.00,-0.93 -1.44,1.83 -1.53,4.23 -1.72,6.91 -0.20,-0.56 -1.35,-4.15 -5.02,-6.21 -0.27,-0.15 -0.81,0.13 -0.86,0.98 -0.03,0.49 -0.17,1.69 0.18,2.03 0.35,0.34 1.37,1.01 1.54,1.10 z M 319.87,12.30 c 0.25,-0.16 13.84,-8.02 14.32,-8.31 0.46,-0.29 0.72,-0.41 0.90,-0.85 0.18,-0.44 0.23,-0.52 0.33,-0.82 0.10,-0.32 0.21,-0.67 -0.61,-0.19 -0.53,0.31 -14.04,8.11 -14.59,8.46 -0.55,0.35 -0.74,0.44 -0.83,0.87 -0.09,0.42 -0.13,0.67 -0.15,0.73 -0.10,0.28 -0.17,0.63 0.64,0.10 z M 363.67,14.30 c 0.18,-0.50 -0.04,-0.77 -0.29,-0.16 -0.25,0.61 -1.30,2.73 -1.14,5.22 0.04,0.58 0.42,1.70 1.29,1.73 0.45,0.00 1.03,-0.33 1.44,-1.74 0.07,-0.32 0.12,-0.57 0.15,-0.70 0.04,-0.19 -0.10,-0.42 -0.24,0.02 -0.33,0.86 -1.18,1.47 -1.82,0.31 -0.10,-0.23 -0.53,-1.28 0.26,-3.57 0.16,-0.44 0.36,-1.11 0.36,-1.11 z M 337.56,20.27 c 0.49,0.00 1.11,-0.35 1.55,-1.87 0.08,-0.34 0.13,-0.62 0.16,-0.75 0.05,-0.21 -0.10,-0.45 -0.26,0.02 -0.36,0.93 -1.28,1.58 -1.96,0.33 -0.11,-0.25 -0.58,-1.38 0.28,-3.86 0.17,-0.48 0.39,-1.20 0.39,-1.20 0.19,-0.54 -0.04,-0.84 -0.31,-0.17 -0.27,0.66 -1.40,2.94 -1.23,5.64 0.04,0.62 0.45,1.83 1.39,1.86 z M 360.91,6.37 c 0.79,0.58 1.94,1.04 1.94,1.04 -3.66,4.49 -10.85,7.68 -12.56,9.01 -0.51,0.39 -0.44,0.61 -0.12,0.53 0.28,-0.08 5.76,-1.61 10.76,-5.90 2.29,-1.97 2.23,-2.11 2.81,-3.31 0.50,0.26 0.84,0.67 1.03,0.91 0.28,0.34 0.43,0.60 0.56,0.23 0.48,-1.33 -0.20,-2.13 -0.84,-2.54 0.00,0.00 0.67,-2.07 -0.56,-4.14 -0.21,-0.35 -1.43,-1.46 -2.85,0.74 -0.55,0.84 -0.96,2.85 -0.17,3.42 z M 361.64,4.34 c 0.73,-1.02 1.08,-0.98 1.36,-0.82 0.82,0.77 0.70,2.03 0.67,2.31 0.00,0.00 -1.05,-0.49 -1.52,-0.69 -0.47,-0.20 -0.72,-0.50 -0.50,-0.80 z M 303.19,13.78 c 0.17,-0.05 3.05,-0.49 6.41,-3.05 1.82,-1.38 2.92,-3.74 2.92,-3.74 0.00,0.00 0.91,0.76 1.03,0.91 0.28,0.34 0.43,0.60 0.56,0.23 0.48,-1.33 -0.20,-2.13 -0.84,-2.54 0.00,0.00 0.67,-2.07 -0.56,-4.14 -0.21,-0.35 -1.43,-1.46 -2.85,0.74 -0.55,0.84 -0.96,2.85 -0.17,3.42 0.79,0.58 1.94,1.04 1.94,1.04 -3.66,4.49 -6.16,5.34 -8.30,6.60 -0.55,0.32 -0.44,0.61 -0.12,0.53 z M 310.90,4.39 c -0.47,-0.20 -0.72,-0.50 -0.50,-0.80 0.73,-1.02 1.08,-0.99 1.36,-0.82 0.82,0.77 0.70,2.03 0.67,2.31 0.00,0.00 -1.05,-0.49 -1.52,-0.69 z M 366.04,37.21 c -0.24,0.68 -0.34,1.12 -0.31,1.38 0.03,0.26 0.12,1.10 0.12,1.10 -0.25,0.20 -1.33,0.87 -2.40,0.08 0.07,-0.23 0.21,-0.70 0.24,-0.95 0.12,-0.40 -0.13,-0.69 -0.32,-0.28 -0.20,0.41 -0.65,1.79 -0.99,2.10 -0.34,0.31 -0.73,1.45 -3.30,0.29 -0.45,-0.17 -1.23,-0.75 -2.46,0.48 -2.77,2.57 -4.68,2.78 -7.79,3.88 -0.38,0.17 -1.16,0.77 -0.23,0.67 0.94,-0.09 4.87,0.00 7.01,-2.46 0.45,-0.43 0.96,-1.58 2.66,-0.92 0.94,0.36 2.68,1.85 4.58,-1.10 1.12,0.75 2.82,0.45 3.09,-0.38 0.27,-0.82 0.58,-1.64 0.58,-2.20 0.00,-0.56 -0.05,-1.30 -0.05,-1.30 -0.04,-0.44 -0.19,-1.07 -0.44,-0.40 z M 220.40,32.18 c 0.50,-0.35 1.58,-0.86 2.24,0.46 0.66,1.32 1.81,7.84 11.91,5.31 1.56,-0.39 10.26,-4.72 11.62,-7.00 0.43,-0.89 0.86,-1.77 0.86,-1.77 0.30,-0.91 0.80,-2.29 -0.09,-1.55 -0.89,0.73 -4.32,3.79 -7.38,5.19 -1.10,0.50 -3.93,1.60 -6.77,-0.91 -0.75,-0.66 -2.65,-2.81 -3.09,-5.72 -0.05,-0.66 0.07,-1.39 0.66,-1.81 0.59,-0.41 4.00,-2.32 7.61,-2.70 1.64,-0.17 3.34,-0.18 4.59,0.62 0.41,0.30 1.01,-0.25 0.46,-0.73 -1.58,-1.33 -5.53,-2.01 -7.61,-1.71 -2.08,0.30 -5.38,0.91 -6.63,4.21 -0.28,0.74 -1.61,4.42 0.15,7.44 0.51,0.77 1.74,2.93 2.99,3.83 -1.05,0.23 -5.52,0.49 -8.41,-5.26 -0.52,-1.02 -1.43,-2.08 -3.38,-0.82 -1.94,1.26 -4.13,3.98 -5.25,8.11 -0.76,2.18 -1.35,4.59 -3.14,4.65 -1.78,0.07 -5.35,-2.81 -5.38,-9.93 0.01,-0.35 -0.04,-0.64 -0.11,-0.83 0.27,0.26 0.58,0.42 0.94,0.42 0.66,-0.04 1.48,-0.70 1.93,-3.39 0.07,-0.61 0.11,-1.09 0.14,-1.33 0.04,-0.36 -0.19,-0.78 -0.35,0.06 -0.39,1.66 -1.58,2.86 -2.64,0.74 -0.18,-0.42 -0.92,-2.37 0.00,-6.75 0.19,-0.85 0.41,-2.12 0.41,-2.12 0.21,-0.96 -0.13,-1.46 -0.44,-0.28 -0.30,1.18 -1.62,5.25 -1.12,9.93 0.07,0.69 0.38,1.77 0.91,2.47 -0.14,0.01 -0.29,0.28 -0.36,0.92 -0.17,1.48 -0.13,10.46 5.02,12.84 1.09,0.50 3.00,0.63 4.03,-2.54 0.44,-1.34 1.73,-7.25 5.68,-10.03 z" />
     </g>
</svg>
