<?xml version="1.0" encoding="UTF-8"?>
<svg version="1.1" id="Layer_1" x="0px" y="0px" width="578" height="50" viewBox="0 0 578 50"
xml:space="preserve" xmlns="http://www.w3.org/2000/svg" xmlns:svg="http://www.w3.org/2000/svg" xmlns:rdf="http://www.w3.org/1999/02/22-rdf-syntax-ns#"  xmlns:cc="http://creativecommons.org/ns#" xmlns:dc="http://purl.org/dc/elements/1.1/">
     <g>
<path d="M 298.22,43.30 c -0.04,0.46 0.17,0.64 0.38,0.19 0.11,-0.24 0.59,-1.22 0.73,-3.80 0.11,-1.94 -0.05,-4.91 -0.60,-9.01 -0.08,-0.60 -2.95,-21.37 -2.95,-21.37 0.00,0.00 1.55,1.46 1.80,1.72 0.25,0.26 0.55,0.12 0.41,-0.30 -0.14,-0.42 -3.31,-8.09 -3.42,-8.36 -0.10,-0.27 -0.20,-0.46 -0.33,-0.15 -0.13,0.31 -1.08,2.64 -1.08,2.64 0.02,0.14 0.28,1.16 0.33,1.54 0.44,3.37 3.20,23.25 3.99,29.54 0.39,3.10 0.69,5.88 0.73,7.37 z M 287.65,9.30 c 0.00,0.00 1.55,1.46 1.80,1.72 0.25,0.26 0.55,0.12 0.41,-0.30 -0.14,-0.42 -3.32,-8.09 -3.42,-8.36 -0.10,-0.27 -0.21,-0.46 -0.33,-0.15 -0.13,0.31 -1.15,2.55 -1.15,2.55 0.03,0.18 0.27,0.73 0.43,1.87 0.15,1.04 0.36,2.48 0.60,4.08 0.00,0.00 3.92,23.83 3.33,24.66 -0.58,0.83 -4.81,2.61 -7.04,0.09 -0.26,-0.30 -1.02,-1.53 -1.15,-2.80 -0.03,-0.43 -0.23,-0.92 -0.69,-0.45 -0.46,0.48 -2.04,3.19 -4.58,4.39 -0.89,0.42 -4.49,1.72 -7.99,-0.59 -0.96,-0.53 -2.31,-1.52 -4.59,-3.83 -1.58,-1.42 -9.36,-7.09 -16.43,-8.91 -0.73,-0.19 -1.75,-0.46 -1.06,-1.09 0.69,-0.63 10.50,-9.16 21.88,-13.99 1.02,-0.43 6.67,-2.18 4.62,1.12 -2.05,3.30 -4.13,5.81 -4.52,6.50 -0.40,0.69 -1.25,2.44 -1.39,3.07 -0.13,0.63 -0.23,1.45 0.40,0.36 0.63,-1.09 4.79,-6.70 5.41,-7.62 2.71,-4.49 2.84,-8.71 -1.65,-7.42 -4.49,1.29 -18.66,9.15 -24.42,14.52 -1.37,1.27 -1.39,1.75 -1.58,2.38 -0.05,0.17 -0.17,0.54 -0.28,1.00 -0.78,-6.07 -1.86,-13.14 -3.22,-17.57 -0.30,-0.86 -0.46,-1.06 -0.86,-0.23 -0.40,0.83 -0.76,1.49 -0.36,2.71 0.40,1.22 3.68,18.29 4.05,25.10 0.10,1.94 0.39,10.23 6.12,11.44 1.49,0.32 4.46,0.17 7.79,-3.12 1.00,-0.99 2.83,-3.53 0.21,-8.55 2.73,1.12 7.52,6.05 8.23,6.60 0.83,0.65 8.18,5.64 13.73,-2.92 0.80,1.87 2.36,5.98 7.79,4.07 0.79,-0.28 3.60,-0.87 3.21,-6.86 -0.09,-1.34 -3.31,-23.46 -3.31,-23.46 z M 257.48,37.46 c -0.96,0.92 -4.06,2.84 -5.91,3.00 -1.85,0.17 -4.87,0.10 -5.97,-7.16 -0.15,-0.99 -0.45,-3.90 -0.89,-7.60 0.15,0.16 0.32,0.29 0.53,0.41 2.01,1.09 9.64,5.08 12.61,8.94 0.59,1.02 0.59,1.48 -0.36,2.41 z M 276.41,17.51 c -0.17,0.33 -0.27,0.55 -0.26,0.84 0.01,0.30 0.05,1.57 0.03,1.97 -0.03,0.40 0.00,1.70 0.77,2.06 0.77,0.37 1.88,0.03 2.72,-1.57 0.65,0.95 1.64,0.95 2.17,0.76 0.45,-0.17 0.96,-0.84 1.11,-1.78 0.15,-0.94 -0.09,-1.58 -0.39,-2.11 -0.39,-0.65 -0.65,-1.75 -0.65,-1.75 -0.14,-0.39 -0.24,-0.79 -0.42,-0.25 -0.17,0.54 -0.30,0.96 -0.07,1.58 0.23,0.62 0.87,2.02 0.97,2.22 0.10,0.20 0.13,0.43 -0.22,0.57 -0.35,0.15 -1.94,0.49 -2.23,-1.21 -0.30,-1.70 -0.32,-2.19 -0.47,-2.48 -0.15,-0.29 -0.29,-0.32 -0.40,-0.03 -0.11,0.29 -0.18,0.88 -0.20,0.97 -0.02,0.10 -0.02,0.17 0.04,0.27 0.06,0.10 0.70,2.00 0.41,2.52 -0.29,0.52 -1.71,1.46 -2.46,0.48 -0.36,-0.69 -0.14,-2.43 -0.14,-2.84 0.00,-0.41 -0.13,-0.55 -0.30,-0.22 z M 233.56,10.17 c -1.53,2.10 -1.53,2.10 -1.53,2.10 -0.05,0.07 -0.04,0.16 0.03,0.20 2.61,1.91 2.61,1.91 2.61,1.91 0.06,0.05 0.15,0.03 0.20,-0.04 1.53,-2.10 1.53,-2.10 1.53,-2.10 0.05,-0.07 0.04,-0.16 -0.03,-0.21 -2.61,-1.91 -2.61,-1.91 -2.61,-1.91 -0.06,-0.05 -0.15,-0.03 -0.20,0.04 z M 281.60,23.95 c -1.32,1.81 -1.32,1.81 -1.32,1.81 -2.54,-1.85 -2.54,-1.85 -2.54,-1.85 -0.06,-0.05 -0.15,-0.03 -0.20,0.04 -1.53,2.10 -1.53,2.10 -1.53,2.10 -0.05,0.07 -0.04,0.16 0.03,0.20 2.61,1.91 2.61,1.91 2.61,1.91 0.06,0.05 0.15,0.03 0.20,-0.04 1.32,-1.81 1.32,-1.81 1.32,-1.81 2.54,1.85 2.54,1.85 2.54,1.85 0.06,0.05 0.15,0.03 0.20,-0.04 1.53,-2.10 1.53,-2.10 1.53,-2.10 0.05,-0.07 0.04,-0.16 -0.03,-0.21 -2.61,-1.91 -2.61,-1.91 -2.61,-1.91 -0.06,-0.05 -0.15,-0.03 -0.20,0.04 z M 232.59,14.44 c -0.06,-0.05 -0.15,-0.03 -0.20,0.04 -1.53,2.10 -1.53,2.10 -1.53,2.10 -0.05,0.07 -0.04,0.16 0.03,0.20 2.61,1.91 2.61,1.91 2.61,1.91 0.06,0.05 0.15,0.03 0.20,-0.04 1.32,-1.81 1.32,-1.81 1.32,-1.81 2.54,1.85 2.54,1.85 2.54,1.85 0.06,0.05 0.15,0.03 0.20,-0.04 1.53,-2.10 1.53,-2.10 1.53,-2.10 0.05,-0.07 0.04,-0.16 -0.03,-0.20 -2.61,-1.91 -2.61,-1.91 -2.61,-1.91 -0.06,-0.05 -0.15,-0.03 -0.20,0.04 -1.32,1.81 -1.32,1.81 -1.32,1.81 z M 246.28,11.26 c 0.27,-0.14 12.08,-5.74 12.57,-6.00 0.48,-0.25 0.72,-0.41 0.91,-0.85 0.18,-0.44 0.23,-0.51 0.33,-0.82 0.11,-0.32 0.25,-0.58 -0.61,-0.19 -0.61,0.28 -12.22,5.85 -12.84,6.15 -0.59,0.28 -0.74,0.44 -0.83,0.87 -0.09,0.42 -0.13,0.67 -0.16,0.73 -0.10,0.28 -0.17,0.53 0.64,0.10 z M 235.16,43.52 c -0.55,0.28 -6.84,2.60 -7.41,2.92 -0.57,0.32 -0.77,0.40 -0.88,0.81 -0.11,0.42 -0.17,0.66 -0.20,0.72 -0.12,0.28 -0.21,0.62 0.63,0.14 0.26,-0.15 6.66,-2.52 7.13,-2.79 0.47,-0.27 0.75,-0.36 0.96,-0.79 0.21,-0.42 0.26,-0.50 0.38,-0.80 0.12,-0.32 0.25,-0.65 -0.60,-0.23 z M 274.81,14.20 c 0.26,-0.15 6.66,-2.52 7.13,-2.79 0.47,-0.27 0.75,-0.36 0.96,-0.79 0.21,-0.42 0.26,-0.50 0.38,-0.80 0.13,-0.32 0.25,-0.65 -0.60,-0.23 -0.55,0.28 -6.84,2.60 -7.41,2.92 -0.57,0.32 -0.77,0.40 -0.88,0.81 -0.11,0.42 -0.17,0.66 -0.20,0.72 -0.12,0.28 -0.21,0.62 0.63,0.14 z M 280.62,43.37 c -0.32,0.83 -1.13,1.41 -1.74,0.30 -0.10,-0.22 -0.51,-1.22 0.25,-3.42 0.15,-0.43 0.34,-1.06 0.34,-1.06 0.17,-0.48 -0.03,-0.74 -0.28,-0.15 -0.24,0.59 -1.25,2.61 -1.09,5.00 0.04,0.55 0.40,1.63 1.23,1.66 0.43,0.00 0.98,-0.31 1.38,-1.66 0.07,-0.31 0.11,-0.55 0.14,-0.67 0.04,-0.18 -0.09,-0.40 -0.23,0.02 z M 266.10,44.52 c -0.31,0.83 -1.13,1.41 -1.74,0.30 -0.10,-0.22 -0.51,-1.22 0.24,-3.42 0.15,-0.43 0.35,-1.06 0.35,-1.06 0.17,-0.48 -0.03,-0.74 -0.28,-0.16 -0.24,0.59 -1.25,2.61 -1.09,5.00 0.04,0.55 0.40,1.63 1.23,1.65 0.43,0.00 0.98,-0.31 1.38,-1.66 0.07,-0.31 0.11,-0.55 0.14,-0.67 0.04,-0.18 -0.09,-0.40 -0.23,0.02 z M 260.55,16.89 c 0.17,-0.48 -0.03,-0.74 -0.28,-0.15 -0.24,0.59 -1.25,2.61 -1.09,5.00 0.04,0.55 0.40,1.63 1.23,1.66 0.43,0.00 0.98,-0.31 1.38,-1.66 0.07,-0.31 0.11,-0.55 0.14,-0.67 0.04,-0.18 -0.09,-0.40 -0.23,0.02 -0.31,0.83 -1.13,1.41 -1.74,0.30 -0.10,-0.22 -0.51,-1.22 0.24,-3.42 0.15,-0.43 0.35,-1.06 0.35,-1.06 z M 269.22,23.55 c 0.21,-0.73 -0.11,-1.10 -0.42,-0.21 -0.31,0.89 -1.63,3.98 -1.20,7.50 0.10,0.82 0.73,2.38 1.97,2.35 0.64,-0.04 1.44,-0.55 1.91,-2.58 0.08,-0.46 0.12,-0.82 0.15,-1.00 0.05,-0.27 -0.17,-0.58 -0.34,0.05 -0.40,1.25 -1.56,2.18 -2.56,0.59 -0.17,-0.32 -0.86,-1.77 0.08,-5.09 0.19,-0.64 0.42,-1.60 0.42,-1.60 z M 241.24,42.68 c -0.35,1.11 -1.39,1.93 -2.27,0.52 -0.15,-0.28 -0.77,-1.57 0.07,-4.52 0.17,-0.57 0.38,-1.42 0.38,-1.42 0.19,-0.64 -0.10,-0.97 -0.37,-0.18 -0.27,0.79 -1.45,3.53 -1.07,6.65 0.09,0.72 0.65,2.11 1.75,2.08 0.57,-0.03 1.27,-0.48 1.69,-2.29 0.07,-0.41 0.11,-0.73 0.13,-0.89 0.04,-0.24 -0.15,-0.52 -0.30,0.04 z M 220.94,23.48 c 0.23,-0.92 -0.13,-1.40 -0.47,-0.27 -0.33,1.13 -1.77,5.06 -1.26,9.56 0.12,1.04 0.83,3.04 2.20,3.02 0.71,-0.04 1.58,-0.68 2.09,-3.28 0.08,-0.58 0.12,-1.05 0.16,-1.28 0.05,-0.35 -0.20,-0.75 -0.38,0.06 -0.43,1.60 -1.71,2.76 -2.83,0.72 -0.19,-0.41 -0.97,-2.27 0.04,-6.50 0.21,-0.82 0.45,-2.04 0.45,-2.04 z M 315.98,12.30 c 0.25,-0.16 13.84,-8.02 14.32,-8.31 0.46,-0.29 0.72,-0.41 0.90,-0.85 0.18,-0.44 0.23,-0.52 0.33,-0.82 0.11,-0.32 0.21,-0.67 -0.61,-0.19 -0.53,0.31 -14.04,8.11 -14.59,8.46 -0.55,0.35 -0.74,0.44 -0.83,0.87 -0.09,0.42 -0.13,0.67 -0.15,0.73 -0.10,0.28 -0.17,0.63 0.64,0.10 z M 365.36,24.89 c -0.25,-0.28 -0.37,-0.01 -0.46,0.31 -0.09,0.32 -0.36,1.52 -0.54,2.27 0.00,0.00 0.71,1.16 0.97,1.75 0.25,0.59 -0.12,0.92 -0.86,1.01 -2.08,0.25 -3.73,-0.94 -4.30,-1.48 -0.57,-0.55 0.05,-1.52 0.51,-2.68 0.37,-0.93 -0.32,-1.04 -0.84,0.00 -1.76,4.63 -4.23,5.12 -4.88,5.30 -5.86,1.60 -5.36,-3.76 -5.34,-4.64 0.02,-0.88 -0.62,-0.55 -1.34,0.03 -2.47,1.98 -4.45,3.14 -5.52,3.62 -0.92,-1.80 -2.26,-2.93 -2.82,-3.33 -6.34,-4.63 -6.87,4.71 -6.67,5.71 0.97,3.97 7.45,1.56 8.46,1.44 1.02,-0.12 0.68,1.22 0.11,2.02 -1.41,1.97 -3.03,3.38 -4.50,4.58 -6.28,5.13 -9.44,4.72 -10.41,4.69 -6.17,-0.17 -5.60,-6.82 -5.26,-8.24 1.86,-1.57 3.45,-3.28 4.38,-5.04 0.38,-0.96 1.03,-3.16 -0.15,-5.91 -0.62,-1.21 -2.56,-4.60 -2.56,-4.60 0.00,0.00 1.43,0.04 1.57,0.04 0.14,0.00 0.41,-0.14 0.06,-0.55 -0.35,-0.40 -3.36,-3.40 -3.54,-3.65 -0.18,-0.24 -0.35,-0.41 -0.45,-0.06 -0.10,0.36 -0.36,1.88 -0.42,2.20 -0.06,0.31 -0.06,0.63 0.10,0.90 0.16,0.27 0.55,1.20 0.84,1.96 0.29,0.76 3.25,6.47 3.53,6.98 0.27,0.51 0.33,0.88 0.06,1.22 -9.53,10.05 -27.91,16.23 -28.50,16.57 -0.59,0.34 -0.43,0.61 0.56,0.43 1.48,-0.26 9.74,-1.64 12.09,-2.77 1.55,-0.75 6.97,-3.41 11.41,-6.89 -0.12,0.90 -0.24,2.22 -0.17,3.89 0.30,8.08 7.53,6.74 9.43,6.33 5.68,-1.25 12.64,-9.11 13.23,-10.69 0.58,-1.56 0.67,-2.98 0.54,-4.22 1.50,-0.81 4.71,-3.40 4.71,-3.40 0.13,3.45 2.87,4.48 3.72,4.63 3.96,0.60 5.94,-2.71 6.78,-3.78 0.72,1.89 2.45,2.26 3.34,2.43 3.41,0.68 4.08,-1.74 4.25,-2.29 1.07,-3.33 -0.86,-5.81 -1.11,-6.08 z M 336.73,31.57 c -2.03,-0.14 -1.85,-0.92 -1.57,-1.23 0.30,-0.33 2.78,-1.89 4.85,0.89 0.00,0.00 -0.86,0.50 -3.28,0.33 z M 306.25,23.91 c 0.00,0.00 1.25,-0.31 1.47,-0.38 0.22,-0.06 0.34,-0.35 -0.05,-0.55 -0.39,-0.20 -4.09,-1.67 -4.37,-1.79 -0.28,-0.11 -0.38,-0.24 -0.41,0.06 -0.02,0.30 -0.07,2.73 -0.07,2.73 0.00,0.00 -0.06,0.17 0.27,0.35 0.32,0.18 0.64,0.58 0.90,0.84 0.26,0.26 3.70,2.98 3.87,3.07 0.00,0.00 -1.72,3.02 -1.94,5.38 -0.22,2.36 0.04,5.63 3.27,4.57 0.87,-0.25 4.49,-1.69 5.30,-4.21 0.26,-0.93 1.01,-2.61 -0.21,-4.31 -0.70,-1.00 -3.53,-2.69 -3.53,-2.69 0.00,0.00 2.17,-3.00 2.38,-3.37 0.21,-0.37 1.01,-2.69 1.09,-3.26 0.09,-0.56 0.13,-0.84 -0.29,-0.32 -0.42,0.52 -4.63,6.05 -4.63,6.05 z M 313.21,32.79 c -1.20,0.99 -3.72,2.29 -4.43,2.36 -0.71,0.07 -2.59,-0.28 -1.77,-2.20 0.28,-0.62 2.16,-3.84 2.16,-3.84 0.70,0.39 5.24,2.70 4.04,3.69 z M 339.18,7.03 c 0.17,0.10 0.36,0.11 0.41,-0.10 0.05,-0.21 0.28,-0.68 0.62,-0.34 0.28,0.28 2.09,1.78 3.03,4.95 0.16,0.42 0.55,0.46 0.64,-0.14 0.22,-1.47 0.34,-4.02 0.45,-4.79 0.16,-1.09 0.68,-3.33 2.06,-2.16 0.31,0.26 0.64,0.61 0.64,0.61 0.29,0.37 0.66,0.79 0.84,0.36 0.27,-0.64 0.49,-1.70 0.19,-2.28 -0.13,-0.26 -1.84,-2.41 -3.00,-0.93 -1.44,1.83 -1.53,4.23 -1.72,6.91 -0.20,-0.56 -1.35,-4.16 -5.02,-6.21 -0.27,-0.15 -0.81,0.13 -0.86,0.98 -0.03,0.49 -0.17,1.69 0.18,2.03 0.35,0.34 1.37,1.01 1.54,1.10 z M 333.67,20.27 c 0.49,0.00 1.11,-0.35 1.55,-1.87 0.08,-0.34 0.13,-0.62 0.16,-0.75 0.05,-0.21 -0.10,-0.45 -0.26,0.02 -0.35,0.93 -1.27,1.58 -1.96,0.33 -0.11,-0.25 -0.58,-1.38 0.28,-3.86 0.17,-0.48 0.39,-1.20 0.39,-1.20 0.19,-0.54 -0.04,-0.84 -0.31,-0.17 -0.27,0.66 -1.40,2.95 -1.23,5.64 0.04,0.62 0.45,1.83 1.39,1.86 z M 362.16,37.21 c -0.24,0.68 -0.34,1.12 -0.31,1.38 0.03,0.26 0.12,1.10 0.12,1.10 -0.25,0.20 -1.33,0.87 -2.40,0.08 0.07,-0.23 0.21,-0.70 0.24,-0.95 0.12,-0.40 -0.13,-0.69 -0.32,-0.28 -0.20,0.41 -0.65,1.79 -0.99,2.10 -0.34,0.31 -0.73,1.45 -3.30,0.29 -0.45,-0.17 -1.23,-0.75 -2.46,0.48 -2.77,2.57 -4.68,2.77 -7.79,3.88 -0.38,0.17 -1.16,0.76 -0.23,0.67 0.94,-0.09 4.87,0.00 7.01,-2.46 0.45,-0.43 0.96,-1.58 2.66,-0.92 0.94,0.36 2.68,1.85 4.58,-1.10 1.12,0.75 2.82,0.45 3.09,-0.37 0.27,-0.82 0.58,-1.64 0.58,-2.20 0.00,-0.56 -0.05,-1.30 -0.05,-1.30 -0.04,-0.44 -0.19,-1.07 -0.44,-0.40 z M 357.02,6.37 c 0.79,0.58 1.94,1.04 1.94,1.04 -3.66,4.48 -10.85,7.67 -12.56,9.01 -0.51,0.39 -0.44,0.61 -0.12,0.53 0.28,-0.08 5.76,-1.61 10.76,-5.90 2.29,-1.97 2.23,-2.11 2.81,-3.31 0.50,0.26 0.84,0.67 1.03,0.91 0.28,0.34 0.43,0.60 0.56,0.23 0.48,-1.33 -0.20,-2.13 -0.84,-2.54 0.00,0.00 0.67,-2.07 -0.56,-4.14 -0.21,-0.35 -1.43,-1.46 -2.85,0.74 -0.55,0.84 -0.96,2.85 -0.17,3.42 z M 357.75,4.34 c 0.73,-1.02 1.08,-0.98 1.36,-0.82 0.82,0.77 0.70,2.03 0.67,2.31 0.00,0.00 -1.05,-0.49 -1.52,-0.70 -0.47,-0.20 -0.72,-0.50 -0.50,-0.80 z M 299.30,13.78 c 0.17,-0.04 3.05,-0.49 6.41,-3.05 1.82,-1.38 2.92,-3.74 2.92,-3.74 0.00,0.00 0.91,0.76 1.03,0.91 0.28,0.34 0.43,0.60 0.56,0.23 0.48,-1.33 -0.20,-2.13 -0.84,-2.54 0.00,0.00 0.67,-2.07 -0.56,-4.14 -0.21,-0.35 -1.43,-1.46 -2.85,0.74 -0.55,0.84 -0.96,2.85 -0.17,3.42 0.79,0.58 1.94,1.04 1.94,1.04 -3.66,4.48 -6.16,5.34 -8.30,6.59 -0.55,0.32 -0.44,0.61 -0.12,0.53 z M 307.01,4.39 c -0.47,-0.20 -0.72,-0.50 -0.50,-0.80 0.73,-1.02 1.08,-0.98 1.36,-0.82 0.82,0.77 0.70,2.03 0.67,2.31 0.00,0.00 -1.05,-0.49 -1.52,-0.70 z M 359.78,14.30 c 0.18,-0.50 -0.04,-0.77 -0.29,-0.16 -0.25,0.61 -1.30,2.73 -1.14,5.22 0.04,0.58 0.42,1.70 1.29,1.73 0.45,0.00 1.03,-0.33 1.44,-1.74 0.07,-0.32 0.12,-0.57 0.15,-0.70 0.04,-0.19 -0.10,-0.42 -0.24,0.02 -0.33,0.86 -1.18,1.47 -1.82,0.31 -0.10,-0.23 -0.53,-1.28 0.26,-3.57 0.16,-0.45 0.36,-1.11 0.36,-1.11 z M 306.88,14.16 c -0.06,-0.05 -0.15,-0.03 -0.20,0.04 -1.53,2.10 -1.53,2.10 -1.53,2.10 -0.05,0.07 -0.04,0.16 0.03,0.21 2.61,1.91 2.61,1.91 2.61,1.91 0.06,0.05 0.15,0.03 0.20,-0.04 1.32,-1.81 1.32,-1.81 1.32,-1.81 2.54,1.85 2.54,1.85 2.54,1.85 0.06,0.05 0.15,0.03 0.20,-0.04 1.53,-2.10 1.53,-2.10 1.53,-2.10 0.05,-0.07 0.04,-0.16 -0.03,-0.20 -2.61,-1.91 -2.61,-1.91 -2.61,-1.91 -0.06,-0.05 -0.15,-0.03 -0.20,0.04 -1.32,1.81 -1.32,1.81 -1.32,1.81 z M 215.64,10.04 c 0.15,0.09 0.32,0.10 0.36,-0.09 0.05,-0.18 0.25,-0.61 0.55,-0.31 0.21,0.22 1.96,1.75 2.49,3.85 0.44,1.82 -4.04,5.50 -4.27,5.67 -0.42,0.30 -0.28,0.49 -0.09,0.39 0.20,-0.11 0.39,-0.13 2.69,-1.65 1.85,-1.22 2.24,-2.64 2.40,-3.73 0.02,-0.05 0.04,-0.11 0.05,-0.19 0.19,-1.32 0.30,-3.62 0.40,-4.31 0.15,-0.98 0.61,-3.00 1.83,-1.95 0.28,0.24 0.57,0.55 0.57,0.55 0.26,0.33 0.59,0.71 0.74,0.33 0.24,-0.58 0.43,-1.54 0.17,-2.05 -0.12,-0.23 -1.63,-2.17 -2.66,-0.84 -1.28,1.65 -1.36,3.81 -1.53,6.23 -0.18,-0.50 -1.20,-3.74 -4.46,-5.60 -0.24,-0.13 -0.72,0.12 -0.76,0.88 -0.03,0.45 -0.15,1.52 0.16,1.83 0.31,0.31 1.22,0.91 1.37,0.99 z M 229.95,5.81 c 0.65,0.51 1.62,0.93 1.62,0.93 -3.21,3.72 -7.64,7.19 -9.49,8.20 -0.48,0.26 -0.39,0.51 -0.11,0.44 0.14,-0.03 2.57,-0.85 5.51,-2.91 2.47,-1.73 4.86,-5.43 4.86,-5.43 0.00,0.00 0.76,0.67 0.86,0.80 0.23,0.30 0.35,0.52 0.47,0.21 0.44,-1.12 -0.12,-1.81 -0.66,-2.18 0.00,0.00 0.62,-1.74 -0.38,-3.53 -0.17,-0.30 -1.18,-1.27 -2.44,0.56 -0.49,0.70 -0.88,2.40 -0.23,2.90 z M 230.62,4.10 c 0.64,-0.85 0.94,-0.81 1.17,-0.66 0.68,0.67 0.55,1.74 0.51,1.98 0.00,0.00 -0.88,-0.44 -1.28,-0.63 -0.39,-0.18 -0.60,-0.44 -0.41,-0.69 z M 234.09,35.11 c 0.11,-0.54 0.41,-2.21 -0.03,-4.32 1.32,-0.11 4.29,-0.38 5.04,-3.33 0.15,-0.46 1.14,-3.30 -1.50,-6.59 -0.20,-0.25 -0.41,-0.27 -0.55,0.08 -0.13,0.35 -0.56,2.27 -0.16,2.82 0.40,0.54 1.66,2.43 1.00,3.02 -0.64,0.56 -2.20,1.33 -4.87,1.12 -0.24,-0.45 -0.52,-0.91 -0.85,-1.37 -0.31,-0.50 -1.03,-1.87 -1.25,-0.55 -0.22,1.32 0.20,2.16 0.57,3.04 0.37,0.88 2.27,3.94 1.89,4.82 -0.37,0.88 -4.11,6.32 -17.05,11.77 -1.32,0.56 -6.70,2.51 -7.23,2.74 -0.53,0.23 -0.59,0.53 0.13,0.46 0.73,-0.07 10.10,-1.48 11.05,-1.91 0.96,-0.43 6.90,-3.13 11.22,-7.46 2.38,-2.41 2.57,-4.32 2.57,-4.32 z" />
     </g>
</svg>
