<?xml version="1.0" encoding="UTF-8"?>
<svg version="1.1" id="Layer_1" x="0px" y="0px" width="578" height="51" viewBox="0 0 578 51"
xml:space="preserve" xmlns="http://www.w3.org/2000/svg" xmlns:svg="http://www.w3.org/2000/svg" xmlns:rdf="http://www.w3.org/1999/02/22-rdf-syntax-ns#"  xmlns:cc="http://creativecommons.org/ns#" xmlns:dc="http://purl.org/dc/elements/1.1/">
     <g>
<path d="M 296.51,42.66 c -0.05,0.46 0.15,0.64 0.37,0.20 0.12,-0.23 0.63,-1.20 0.85,-3.78 0.17,-1.93 0.11,-4.91 -0.32,-9.03 -0.06,-0.60 -2.29,-21.45 -2.29,-21.45 0.00,0.00 1.50,1.50 1.74,1.77 0.24,0.27 0.55,0.14 0.42,-0.29 -0.13,-0.43 -3.06,-8.19 -3.16,-8.46 -0.09,-0.27 -0.19,-0.47 -0.33,-0.16 -0.14,0.30 -1.16,2.61 -1.16,2.61 0.02,0.14 0.25,1.16 0.29,1.55 0.34,3.38 2.48,23.34 3.08,29.65 0.29,3.11 0.51,5.90 0.51,7.39 z M 246.29,14.06 c 0.46,-0.49 0.78,-0.99 2.12,-0.95 1.34,0.04 4.55,-0.09 3.35,0.79 -1.20,0.88 -2.01,1.39 -2.01,1.39 -0.78,0.56 -1.46,1.60 -0.09,1.02 1.38,-0.58 3.19,-1.50 4.58,-3.60 0.41,-0.61 0.88,-1.43 -1.00,-1.71 -1.89,-0.28 -4.94,-0.72 -5.92,0.35 -0.99,1.07 -1.29,1.81 -1.59,2.27 -0.41,0.63 0.11,0.92 0.56,0.42 z M 221.50,12.23 c 0.66,-0.37 4.49,-1.86 5.12,-5.65 0.05,-0.50 -0.05,-0.87 -0.17,-1.12 0.05,0.01 0.11,0.05 0.17,0.11 0.27,0.27 1.99,1.69 2.88,4.71 0.15,0.40 0.53,0.44 0.61,-0.13 0.21,-1.40 0.32,-3.82 0.43,-4.56 0.16,-1.03 0.65,-3.16 1.96,-2.06 0.30,0.25 0.61,0.58 0.61,0.58 0.28,0.35 0.63,0.75 0.80,0.35 0.26,-0.61 0.46,-1.62 0.18,-2.17 -0.12,-0.24 -1.75,-2.29 -2.85,-0.89 -1.37,1.74 -1.46,4.03 -1.64,6.58 -0.19,-0.53 -1.28,-3.95 -4.78,-5.91 -0.25,-0.14 -0.77,0.13 -0.82,0.93 -0.03,0.47 -0.16,1.61 0.17,1.93 0.32,0.31 2.68,1.14 1.40,2.49 -0.57,0.61 -3.45,3.59 -4.06,4.31 -0.62,0.72 -0.68,0.85 -0.01,0.49 z M 234.45,23.08 c 0.33,0.32 1.31,0.96 1.47,1.05 0.16,0.09 0.34,0.10 0.39,-0.09 0.05,-0.19 0.27,-0.65 0.59,-0.32 0.27,0.27 1.99,1.69 2.88,4.71 0.15,0.40 0.53,0.44 0.61,-0.13 0.21,-1.40 0.32,-3.82 0.43,-4.56 0.16,-1.03 0.65,-3.16 1.96,-2.06 0.30,0.25 0.61,0.58 0.61,0.58 0.28,0.35 0.63,0.75 0.80,0.34 0.26,-0.61 0.46,-1.62 0.18,-2.17 -0.12,-0.24 -1.75,-2.30 -2.85,-0.89 -1.37,1.74 -1.46,4.03 -1.64,6.58 -0.19,-0.53 -1.29,-3.95 -4.78,-5.91 -0.25,-0.14 -0.77,0.13 -0.82,0.93 -0.03,0.47 -0.16,1.61 0.17,1.93 z M 262.19,6.57 c 0.17,0.09 0.34,0.10 0.39,-0.09 0.05,-0.20 0.27,-0.65 0.59,-0.32 0.27,0.27 1.99,1.69 2.88,4.71 0.15,0.40 0.53,0.44 0.61,-0.13 0.21,-1.40 0.32,-3.82 0.43,-4.56 0.16,-1.03 0.65,-3.16 1.96,-2.06 0.30,0.25 0.61,0.58 0.61,0.58 0.28,0.35 0.63,0.75 0.80,0.34 0.26,-0.61 0.46,-1.62 0.18,-2.17 -0.12,-0.24 -1.74,-2.30 -2.85,-0.89 -1.37,1.74 -1.46,4.03 -1.64,6.58 -0.19,-0.53 -1.29,-3.95 -4.78,-5.91 -0.25,-0.14 -0.77,0.13 -0.82,0.93 -0.03,0.47 -0.16,1.61 0.17,1.93 0.33,0.32 1.31,0.96 1.47,1.04 z M 239.19,41.55 c -0.55,0.28 -7.24,2.85 -7.81,3.17 -0.57,0.32 -0.77,0.39 -0.88,0.81 -0.11,0.42 -0.17,0.66 -0.20,0.72 -0.12,0.28 -0.21,0.62 0.63,0.14 0.26,-0.15 7.06,-2.77 7.52,-3.04 0.47,-0.27 0.75,-0.36 0.96,-0.79 0.21,-0.42 0.26,-0.50 0.38,-0.80 0.12,-0.32 0.25,-0.65 -0.60,-0.22 z M 258.48,20.06 c 0.32,-0.18 21.51,-8.72 22.08,-9.04 0.56,-0.32 0.90,-0.44 1.15,-0.95 0.25,-0.51 0.32,-0.60 0.46,-0.96 0.15,-0.38 0.30,-0.79 -0.72,-0.27 -0.66,0.33 -21.73,8.81 -22.42,9.20 -0.69,0.38 -0.93,0.48 -1.07,0.98 -0.14,0.50 -0.21,0.79 -0.24,0.87 -0.14,0.33 -0.25,0.75 0.76,0.17 z M 280.23,15.96 c 0.18,-0.52 -0.04,-0.80 -0.30,-0.17 -0.26,0.63 -1.34,2.81 -1.18,5.38 0.04,0.59 0.43,1.75 1.33,1.78 0.46,0.00 1.06,-0.34 1.48,-1.79 0.07,-0.33 0.12,-0.59 0.15,-0.72 0.05,-0.20 -0.10,-0.43 -0.25,0.02 -0.34,0.89 -1.22,1.51 -1.87,0.32 -0.11,-0.24 -0.55,-1.32 0.26,-3.68 0.16,-0.46 0.37,-1.14 0.37,-1.14 z M 252.76,42.37 c -0.39,-0.14 -1.00,-0.03 -1.79,1.08 -0.16,0.26 -0.28,0.47 -0.34,0.57 -0.10,0.15 -0.04,0.39 0.22,0.06 0.55,-0.66 1.48,-0.93 1.69,0.28 0.02,0.23 0.08,1.28 -1.31,3.05 -0.27,0.34 -0.65,0.86 -0.65,0.86 -0.31,0.39 -0.21,0.69 0.20,0.23 0.41,-0.46 1.97,-1.99 2.59,-4.23 0.14,-0.52 0.15,-1.62 -0.60,-1.91 z M 247.32,8.28 c 0.43,0.00 0.98,-0.31 1.38,-1.66 0.07,-0.31 0.11,-0.55 0.14,-0.67 0.04,-0.18 -0.09,-0.40 -0.23,0.02 -0.31,0.83 -1.13,1.41 -1.74,0.30 -0.10,-0.22 -0.51,-1.22 0.25,-3.42 0.15,-0.43 0.35,-1.06 0.35,-1.06 0.17,-0.48 -0.03,-0.74 -0.27,-0.16 -0.24,0.59 -1.25,2.61 -1.09,5.00 0.04,0.55 0.40,1.63 1.23,1.66 z M 239.54,14.33 c 0.47,0.00 1.08,-0.34 1.51,-1.82 0.07,-0.33 0.12,-0.60 0.15,-0.73 0.05,-0.20 -0.10,-0.44 -0.25,0.02 -0.34,0.91 -1.24,1.54 -1.91,0.32 -0.11,-0.24 -0.56,-1.34 0.27,-3.75 0.17,-0.47 0.38,-1.16 0.38,-1.16 0.19,-0.53 -0.04,-0.81 -0.30,-0.17 -0.26,0.64 -1.36,2.86 -1.20,5.48 0.04,0.60 0.44,1.78 1.35,1.81 z M 229.43,19.63 c 0.07,-0.33 0.12,-0.60 0.15,-0.73 0.05,-0.20 -0.10,-0.44 -0.25,0.02 -0.34,0.91 -1.24,1.54 -1.91,0.32 -0.11,-0.24 -0.56,-1.34 0.27,-3.75 0.17,-0.47 0.38,-1.16 0.38,-1.16 0.19,-0.53 -0.04,-0.81 -0.30,-0.17 -0.26,0.64 -1.36,2.86 -1.20,5.48 0.04,0.60 0.44,1.78 1.35,1.81 0.47,0.00 1.08,-0.34 1.51,-1.82 z M 226.88,27.53 c 0.19,-0.53 -0.04,-0.81 -0.30,-0.17 -0.26,0.64 -1.36,2.86 -1.20,5.48 0.04,0.60 0.44,1.78 1.35,1.81 0.47,0.00 1.08,-0.34 1.51,-1.82 0.07,-0.33 0.12,-0.60 0.15,-0.73 0.05,-0.20 -0.10,-0.44 -0.25,0.02 -0.34,0.91 -1.24,1.54 -1.91,0.32 -0.11,-0.24 -0.56,-1.34 0.27,-3.75 0.17,-0.47 0.38,-1.16 0.38,-1.16 z M 272.42,43.24 c -0.38,0.95 -1.39,1.63 -2.17,0.38 -0.13,-0.25 -0.67,-1.39 0.23,-3.91 0.18,-0.49 0.41,-1.22 0.41,-1.22 0.20,-0.55 -0.06,-0.85 -0.35,-0.17 -0.29,0.68 -1.50,3.01 -1.26,5.73 0.06,0.63 0.54,1.85 1.58,1.86 0.54,-0.01 1.23,-0.38 1.69,-1.93 0.08,-0.35 0.13,-0.63 0.16,-0.77 0.05,-0.21 -0.12,-0.45 -0.29,0.03 z M 291.56,43.11 c -0.38,0.95 -1.39,1.63 -2.17,0.38 -0.13,-0.25 -0.67,-1.39 0.23,-3.91 0.18,-0.49 0.41,-1.22 0.41,-1.22 0.20,-0.55 -0.06,-0.85 -0.35,-0.17 -0.29,0.68 -1.50,3.01 -1.26,5.73 0.06,0.63 0.54,1.85 1.58,1.86 0.54,-0.01 1.23,-0.38 1.69,-1.93 0.08,-0.35 0.13,-0.63 0.16,-0.77 0.05,-0.21 -0.12,-0.45 -0.29,0.03 z M 358.15,14.98 c 0.18,-0.50 -0.04,-0.77 -0.29,-0.16 -0.25,0.61 -1.30,2.73 -1.14,5.22 0.04,0.58 0.42,1.70 1.29,1.73 0.45,0.00 1.03,-0.33 1.44,-1.74 0.07,-0.32 0.12,-0.57 0.15,-0.70 0.04,-0.19 -0.10,-0.42 -0.24,0.02 -0.33,0.86 -1.18,1.47 -1.82,0.31 -0.10,-0.23 -0.53,-1.28 0.26,-3.57 0.16,-0.45 0.36,-1.11 0.36,-1.11 z M 332.04,20.96 c 0.48,0.00 1.11,-0.35 1.55,-1.88 0.08,-0.34 0.13,-0.62 0.16,-0.75 0.05,-0.21 -0.10,-0.45 -0.26,0.02 -0.35,0.93 -1.27,1.58 -1.96,0.33 -0.11,-0.25 -0.58,-1.38 0.28,-3.86 0.17,-0.48 0.39,-1.20 0.39,-1.20 0.19,-0.54 -0.04,-0.84 -0.31,-0.17 -0.27,0.66 -1.40,2.94 -1.23,5.64 0.04,0.62 0.45,1.83 1.39,1.87 z M 314.35,12.98 c 0.25,-0.16 13.84,-8.02 14.32,-8.31 0.46,-0.29 0.72,-0.41 0.91,-0.85 0.18,-0.44 0.23,-0.51 0.33,-0.82 0.10,-0.32 0.21,-0.67 -0.61,-0.19 -0.53,0.31 -14.04,8.11 -14.59,8.46 -0.55,0.35 -0.74,0.44 -0.83,0.86 -0.09,0.42 -0.13,0.67 -0.16,0.73 -0.10,0.28 -0.17,0.63 0.64,0.10 z M 355.39,7.05 c 0.79,0.58 1.93,1.04 1.93,1.04 -3.66,4.48 -10.84,7.67 -12.55,9.01 -0.51,0.39 -0.44,0.61 -0.12,0.53 0.29,-0.08 5.76,-1.61 10.76,-5.90 2.29,-1.97 2.23,-2.11 2.82,-3.31 0.50,0.26 0.84,0.67 1.03,0.91 0.28,0.34 0.43,0.60 0.56,0.23 0.48,-1.33 -0.20,-2.13 -0.84,-2.54 0.00,0.00 0.67,-2.07 -0.56,-4.14 -0.21,-0.35 -1.43,-1.46 -2.85,0.74 -0.55,0.84 -0.96,2.85 -0.17,3.42 z M 356.12,5.02 c 0.73,-1.02 1.08,-0.99 1.36,-0.82 0.83,0.77 0.70,2.03 0.67,2.31 0.00,0.00 -1.05,-0.49 -1.52,-0.69 -0.47,-0.20 -0.72,-0.50 -0.50,-0.80 z M 363.73,25.58 c -0.25,-0.28 -0.38,-0.01 -0.46,0.31 -0.09,0.32 -0.36,1.52 -0.53,2.27 0.00,0.00 0.71,1.16 0.97,1.75 0.25,0.59 -0.12,0.92 -0.86,1.01 -2.08,0.25 -3.73,-0.94 -4.30,-1.49 -0.57,-0.55 0.05,-1.52 0.51,-2.68 0.37,-0.93 -0.32,-1.04 -0.84,0.00 -1.76,4.63 -4.23,5.12 -4.88,5.30 -5.86,1.60 -5.36,-3.76 -5.34,-4.64 0.02,-0.88 -0.62,-0.55 -1.34,0.03 -2.47,1.98 -4.45,3.14 -5.52,3.62 -0.92,-1.80 -2.26,-2.93 -2.82,-3.34 -6.34,-4.63 -6.86,4.71 -6.67,5.71 0.97,3.97 7.44,1.56 8.46,1.44 1.01,-0.12 0.68,1.22 0.11,2.02 -1.41,1.97 -3.03,3.38 -4.50,4.58 -6.28,5.13 -9.43,4.72 -10.41,4.69 -6.17,-0.17 -5.60,-6.82 -5.26,-8.24 1.86,-1.57 3.45,-3.28 4.38,-5.04 0.38,-0.96 1.03,-3.15 -0.15,-5.91 -0.62,-1.21 -2.56,-4.60 -2.56,-4.60 0.00,0.00 1.43,0.04 1.57,0.04 0.14,0.00 0.41,-0.14 0.06,-0.55 -0.35,-0.40 -3.36,-3.40 -3.54,-3.65 -0.18,-0.24 -0.35,-0.41 -0.45,-0.06 -0.10,0.36 -0.36,1.88 -0.42,2.20 -0.06,0.32 -0.06,0.63 0.10,0.90 0.15,0.27 0.55,1.20 0.84,1.96 0.29,0.76 3.26,6.47 3.53,6.98 0.27,0.51 0.33,0.88 0.06,1.22 -9.53,10.05 -27.91,16.23 -28.50,16.58 -0.59,0.34 -0.43,0.61 0.56,0.43 1.48,-0.26 9.74,-1.64 12.09,-2.77 1.55,-0.75 6.97,-3.41 11.41,-6.89 -0.12,0.90 -0.24,2.22 -0.18,3.89 0.30,8.08 7.53,6.74 9.43,6.33 5.68,-1.25 12.64,-9.11 13.23,-10.68 0.58,-1.56 0.67,-2.98 0.54,-4.22 1.50,-0.81 4.71,-3.40 4.71,-3.40 0.13,3.45 2.88,4.48 3.72,4.63 3.96,0.60 5.94,-2.71 6.78,-3.78 0.72,1.89 2.45,2.26 3.34,2.43 3.41,0.68 4.08,-1.74 4.26,-2.29 1.07,-3.33 -0.86,-5.81 -1.11,-6.08 z M 335.10,32.25 c -2.03,-0.14 -1.85,-0.92 -1.57,-1.22 0.30,-0.33 2.78,-1.89 4.85,0.89 0.00,0.00 -0.86,0.50 -3.28,0.33 z M 337.55,7.71 c 0.17,0.09 0.36,0.11 0.41,-0.10 0.05,-0.21 0.29,-0.68 0.62,-0.34 0.28,0.28 2.09,1.78 3.03,4.95 0.16,0.42 0.55,0.46 0.64,-0.14 0.22,-1.47 0.34,-4.02 0.45,-4.79 0.16,-1.09 0.68,-3.32 2.06,-2.16 0.31,0.26 0.64,0.61 0.64,0.61 0.29,0.37 0.66,0.79 0.84,0.36 0.27,-0.64 0.49,-1.70 0.19,-2.28 -0.13,-0.26 -1.84,-2.41 -3.00,-0.93 -1.44,1.83 -1.53,4.23 -1.72,6.91 -0.20,-0.56 -1.35,-4.16 -5.02,-6.21 -0.27,-0.15 -0.81,0.13 -0.86,0.98 -0.03,0.49 -0.17,1.69 0.18,2.03 0.35,0.34 1.37,1.01 1.54,1.10 z M 297.67,14.46 c 0.17,-0.04 3.05,-0.49 6.41,-3.05 1.82,-1.38 2.92,-3.74 2.92,-3.74 0.00,0.00 0.91,0.76 1.03,0.91 0.28,0.34 0.43,0.60 0.56,0.23 0.48,-1.33 -0.20,-2.13 -0.84,-2.54 0.00,0.00 0.67,-2.07 -0.56,-4.14 -0.21,-0.35 -1.43,-1.46 -2.85,0.74 -0.55,0.84 -0.96,2.85 -0.17,3.42 0.79,0.58 1.93,1.04 1.93,1.04 -3.66,4.48 -6.16,5.34 -8.30,6.59 -0.55,0.32 -0.44,0.61 -0.12,0.53 z M 305.39,5.07 c -0.47,-0.20 -0.72,-0.50 -0.50,-0.80 0.73,-1.02 1.08,-0.98 1.36,-0.82 0.82,0.77 0.70,2.03 0.67,2.31 0.00,0.00 -1.05,-0.49 -1.52,-0.70 z M 360.53,37.89 c -0.24,0.68 -0.34,1.12 -0.32,1.38 0.03,0.26 0.12,1.09 0.12,1.09 -0.25,0.20 -1.33,0.87 -2.40,0.08 0.07,-0.23 0.21,-0.70 0.24,-0.95 0.12,-0.40 -0.13,-0.69 -0.32,-0.28 -0.20,0.41 -0.65,1.79 -0.99,2.10 -0.34,0.31 -0.73,1.45 -3.30,0.29 -0.45,-0.17 -1.23,-0.75 -2.46,0.48 -2.77,2.57 -4.68,2.77 -7.79,3.88 -0.38,0.17 -1.16,0.76 -0.23,0.67 0.94,-0.09 4.87,0.00 7.01,-2.46 0.45,-0.43 0.96,-1.58 2.66,-0.92 0.94,0.36 2.68,1.85 4.58,-1.10 1.12,0.75 2.82,0.45 3.09,-0.38 0.27,-0.82 0.58,-1.64 0.58,-2.20 0.00,-0.56 -0.05,-1.30 -0.05,-1.30 -0.04,-0.44 -0.19,-1.07 -0.44,-0.40 z M 305.25,14.85 c -0.06,-0.05 -0.15,-0.03 -0.20,0.04 -1.53,2.10 -1.53,2.10 -1.53,2.10 -0.05,0.07 -0.04,0.16 0.03,0.21 2.61,1.91 2.61,1.91 2.61,1.91 0.06,0.05 0.15,0.03 0.20,-0.04 1.32,-1.81 1.32,-1.81 1.32,-1.81 2.54,1.85 2.54,1.85 2.54,1.85 0.06,0.05 0.15,0.03 0.20,-0.04 1.53,-2.10 1.53,-2.10 1.53,-2.10 0.05,-0.07 0.04,-0.16 -0.03,-0.20 -2.61,-1.91 -2.61,-1.91 -2.61,-1.91 -0.06,-0.05 -0.15,-0.03 -0.20,0.04 -1.32,1.81 -1.32,1.81 -1.32,1.81 z M 304.63,24.59 c 0.00,0.00 1.25,-0.31 1.47,-0.38 0.22,-0.06 0.34,-0.34 -0.05,-0.55 -0.39,-0.20 -4.09,-1.67 -4.37,-1.79 -0.28,-0.11 -0.38,-0.24 -0.41,0.06 -0.02,0.30 -0.07,2.73 -0.07,2.73 0.00,0.00 -0.06,0.17 0.27,0.35 0.32,0.18 0.64,0.58 0.90,0.84 0.26,0.26 3.70,2.98 3.87,3.07 0.00,0.00 -1.72,3.02 -1.94,5.38 -0.22,2.36 0.04,5.63 3.27,4.58 0.87,-0.25 4.49,-1.69 5.30,-4.21 0.26,-0.93 1.01,-2.61 -0.21,-4.31 -0.70,-1.00 -3.53,-2.69 -3.53,-2.69 0.00,0.00 2.17,-3.00 2.38,-3.37 0.21,-0.37 1.00,-2.69 1.09,-3.26 0.09,-0.56 0.13,-0.84 -0.29,-0.32 -0.42,0.52 -4.63,6.05 -4.63,6.05 z M 311.58,33.47 c -1.20,0.99 -3.72,2.29 -4.43,2.36 -0.71,0.07 -2.59,-0.28 -1.77,-2.20 0.28,-0.62 2.16,-3.84 2.16,-3.84 0.70,0.39 5.24,2.70 4.04,3.69 z M 288.76,29.87 c -0.02,-1.40 -0.49,-7.10 -0.66,-8.57 -0.17,-1.47 -1.49,-13.34 -1.49,-13.34 0.00,0.00 1.29,1.37 1.53,1.64 0.24,0.27 0.55,0.14 0.42,-0.29 -0.13,-0.43 -2.72,-7.39 -2.81,-7.66 -0.09,-0.27 -0.19,-0.47 -0.33,-0.16 -0.14,0.30 -1.22,2.51 -1.22,2.51 0.02,0.18 0.24,0.74 0.38,1.88 0.10,0.85 0.23,1.97 0.37,3.23 0.00,0.00 1.60,16.06 1.71,17.57 0.11,1.51 0.92,6.57 0.15,7.64 -0.77,1.08 -5.19,3.59 -8.81,0.64 -0.17,-0.14 -0.52,-0.53 -0.99,-1.05 2.12,-1.04 4.10,-1.99 4.84,-2.19 0.31,-0.49 1.65,-2.50 0.87,-3.08 -0.78,-0.58 -7.28,-4.16 -15.53,-0.69 -0.49,0.27 -1.38,1.41 -1.67,2.91 -0.07,0.36 0.16,0.71 0.63,0.43 0.13,-0.07 1.69,-0.94 2.78,-0.23 0.32,0.21 1.69,1.11 3.27,2.41 -2.61,1.04 -5.66,2.08 -8.56,2.64 -0.11,0.02 -0.27,0.04 -0.47,0.08 0.70,-1.31 1.49,-3.91 1.47,-4.89 -0.08,-3.46 -3.67,-4.42 -5.11,-4.75 -5.26,-1.21 -9.40,4.52 -10.14,5.49 -0.38,0.49 -1.81,2.62 -3.16,4.67 -0.62,-0.24 -1.16,-0.55 -1.61,-0.92 -0.59,-0.50 -1.15,-1.29 -1.95,-2.18 -0.79,-0.89 -3.84,-2.64 -8.51,-0.40 -1.73,0.83 -6.14,4.13 -10.96,8.68 -1.09,1.09 -4.62,4.09 -7.46,2.67 -0.79,-0.40 -2.31,-2.66 -0.13,-7.78 0.45,-1.07 1.67,-3.59 2.11,-4.52 0.06,0.01 0.12,0.03 0.19,0.03 0.76,0.03 1.77,-0.57 2.59,-3.30 0.15,-0.62 0.24,-1.11 0.30,-1.36 0.09,-0.37 -0.13,-0.82 -0.41,0.02 -0.63,1.67 -2.13,2.79 -3.12,0.48 -0.16,-0.46 -0.81,-2.54 0.73,-6.97 0.31,-0.86 0.70,-2.14 0.70,-2.14 0.34,-0.97 0.00,-1.52 -0.48,-0.34 -0.48,1.18 -2.43,5.25 -2.36,10.14 0.01,0.86 0.34,2.36 1.15,3.07 -1.37,2.38 -6.88,13.47 -0.41,15.63 1.07,0.36 3.98,0.34 7.23,-2.97 1.68,-1.62 7.06,-6.77 10.59,-8.32 1.90,-0.83 5.25,-2.02 7.36,0.50 0.52,0.62 1.23,1.73 2.74,2.61 -0.49,0.78 -0.85,1.37 -0.94,1.58 -0.59,1.33 0.58,0.58 1.14,-0.45 0.00,0.00 0.21,-0.30 0.52,-0.75 1.36,0.62 3.25,1.04 5.95,0.91 14.92,-0.70 20.48,-3.78 23.09,-5.32 0.68,0.64 1.35,1.32 1.94,2.01 0.51,0.51 5.66,4.79 10.63,-0.11 0.41,-0.49 2.11,-3.00 1.91,-7.36 z M 262.49,33.80 c -5.06,4.12 -13.61,3.41 -15.35,3.20 0.54,-0.77 1.01,-1.43 1.21,-1.69 3.31,-4.17 5.61,-5.61 7.48,-6.02 3.64,-0.78 6.04,2.15 6.70,2.88 0.66,0.73 0.39,1.26 -0.05,1.62 z M 275.31,32.17 c -0.98,-0.97 -2.11,-1.94 -3.20,-2.52 2.17,-0.27 4.65,-0.20 6.95,0.74 -0.19,0.07 -1.63,0.82 -3.75,1.78 z" />
     </g>
</svg>
