<?xml version="1.0" encoding="UTF-8"?>
<svg version="1.1" id="Layer_1" x="0px" y="0px" width="578" height="50" viewBox="0 0 578 50"
xml:space="preserve" xmlns="http://www.w3.org/2000/svg" xmlns:svg="http://www.w3.org/2000/svg" xmlns:rdf="http://www.w3.org/1999/02/22-rdf-syntax-ns#"  xmlns:cc="http://creativecommons.org/ns#" xmlns:dc="http://purl.org/dc/elements/1.1/">
     <g>
<path d="M 239.17,24.06 c -1.92,2.63 -1.92,2.63 -1.92,2.63 -0.06,0.08 -0.05,0.20 0.03,0.25 3.27,2.38 3.27,2.38 3.27,2.38 0.08,0.06 0.19,0.04 0.25,-0.05 1.91,-2.63 1.91,-2.63 1.91,-2.63 0.06,-0.08 0.05,-0.20 -0.03,-0.25 -3.27,-2.38 -3.27,-2.38 -3.27,-2.38 -0.08,-0.06 -0.19,-0.04 -0.25,0.05 z M 293.23,42.50 c -0.05,0.46 0.15,0.64 0.37,0.20 0.12,-0.24 0.62,-1.21 0.82,-3.78 0.15,-1.93 0.07,-4.91 -0.39,-9.02 -0.07,-0.60 -2.46,-21.43 -2.46,-21.43 0.00,0.00 1.52,1.49 1.76,1.76 0.24,0.27 0.55,0.14 0.42,-0.29 -0.13,-0.43 -3.13,-8.17 -3.22,-8.44 -0.10,-0.27 -0.19,-0.46 -0.33,-0.16 -0.13,0.30 -1.14,2.61 -1.14,2.61 0.02,0.14 0.26,1.16 0.30,1.54 0.36,3.37 2.66,23.32 3.31,29.62 0.32,3.10 0.56,5.89 0.56,7.39 z M 268.64,18.91 c 0.74,0.69 1.86,1.31 1.86,1.31 -4.30,4.15 -10.05,7.85 -12.40,8.88 -0.60,0.26 -0.53,0.57 -0.19,0.53 0.18,-0.03 3.20,-0.75 6.99,-2.91 3.19,-1.82 6.49,-6.04 6.49,-6.04 0.00,0.00 0.84,0.89 0.95,1.06 0.24,0.38 0.36,0.66 0.54,0.31 0.65,-1.30 0.06,-2.21 -0.55,-2.71 0.00,0.00 0.94,-2.04 -0.07,-4.32 -0.17,-0.38 -1.29,-1.67 -3.02,0.41 -0.67,0.79 -1.33,2.81 -0.60,3.49 z M 269.63,16.92 c 0.87,-0.96 1.23,-0.88 1.49,-0.68 0.75,0.89 0.47,2.16 0.40,2.46 0.00,0.00 -1.02,-0.64 -1.48,-0.90 -0.46,-0.26 -0.67,-0.60 -0.41,-0.88 z M 233.74,6.32 c 0.16,0.09 0.34,0.10 0.39,-0.09 0.05,-0.19 0.27,-0.65 0.59,-0.32 0.27,0.27 1.99,1.69 2.88,4.71 0.15,0.40 0.53,0.44 0.61,-0.13 0.21,-1.40 0.32,-3.82 0.43,-4.56 0.16,-1.03 0.65,-3.16 1.96,-2.06 0.30,0.25 0.61,0.58 0.61,0.58 0.28,0.35 0.63,0.75 0.80,0.34 0.26,-0.61 0.46,-1.62 0.18,-2.17 -0.12,-0.24 -1.75,-2.30 -2.85,-0.89 -1.37,1.74 -1.46,4.03 -1.64,6.58 -0.19,-0.53 -1.29,-3.95 -4.78,-5.91 -0.25,-0.14 -0.77,0.13 -0.82,0.93 -0.03,0.47 -0.16,1.61 0.17,1.93 0.33,0.32 1.31,0.96 1.47,1.05 z M 220.83,39.33 c -0.53,0.27 -6.03,2.36 -6.58,2.67 -0.55,0.31 -0.74,0.39 -0.84,0.77 -0.09,0.38 -0.14,0.60 -0.16,0.66 -0.10,0.25 -0.17,0.57 0.64,0.10 0.25,-0.14 5.85,-2.28 6.31,-2.54 0.45,-0.26 0.72,-0.36 0.91,-0.75 0.19,-0.39 0.23,-0.46 0.33,-0.73 0.11,-0.29 0.21,-0.60 -0.61,-0.18 z M 245.41,22.74 c -0.08,0.42 -0.12,0.67 -0.15,0.74 -0.10,0.28 -0.16,0.63 0.64,0.10 0.25,-0.17 15.51,-7.07 15.96,-7.37 0.45,-0.30 0.72,-0.41 0.90,-0.86 0.18,-0.44 0.22,-0.52 0.32,-0.82 0.10,-0.32 0.20,-0.67 -0.61,-0.18 -0.53,0.32 -15.68,7.16 -16.23,7.52 -0.54,0.36 -0.74,0.45 -0.82,0.88 z M 234.25,18.44 c -0.13,0.49 -0.20,0.77 -0.24,0.85 -0.14,0.32 -0.24,0.73 0.74,0.17 0.31,-0.17 21.47,-9.82 22.02,-10.14 0.55,-0.31 0.87,-0.42 1.12,-0.92 0.25,-0.50 0.31,-0.59 0.44,-0.94 0.15,-0.37 0.29,-0.77 -0.70,-0.26 -0.64,0.32 -21.68,9.92 -22.35,10.29 -0.67,0.37 -0.90,0.46 -1.03,0.95 z M 268.00,9.02 c 0.43,0.00 0.98,-0.31 1.38,-1.66 0.07,-0.30 0.11,-0.55 0.14,-0.67 0.04,-0.18 -0.09,-0.40 -0.23,0.02 -0.31,0.83 -1.13,1.41 -1.74,0.30 -0.10,-0.22 -0.51,-1.22 0.24,-3.42 0.15,-0.43 0.35,-1.06 0.35,-1.06 0.17,-0.48 -0.03,-0.74 -0.28,-0.15 -0.24,0.59 -1.25,2.61 -1.09,5.00 0.04,0.55 0.40,1.63 1.23,1.65 z M 223.26,9.21 c 0.43,0.00 0.98,-0.31 1.38,-1.66 0.07,-0.30 0.11,-0.55 0.14,-0.67 0.04,-0.18 -0.09,-0.40 -0.23,0.02 -0.31,0.83 -1.13,1.41 -1.74,0.30 -0.10,-0.22 -0.51,-1.22 0.25,-3.42 0.15,-0.43 0.35,-1.06 0.35,-1.06 0.17,-0.48 -0.03,-0.74 -0.28,-0.15 -0.24,0.59 -1.25,2.61 -1.09,5.00 0.04,0.55 0.40,1.63 1.23,1.66 z M 285.95,21.72 c 0.52,-0.03 1.17,-0.47 1.55,-2.26 0.06,-0.40 0.09,-0.72 0.12,-0.88 0.04,-0.24 -0.14,-0.51 -0.28,0.04 -0.32,1.10 -1.27,1.91 -2.09,0.51 -0.14,-0.28 -0.71,-1.56 0.05,-4.47 0.15,-0.56 0.34,-1.41 0.34,-1.41 0.17,-0.64 -0.09,-0.96 -0.34,-0.18 -0.25,0.78 -1.32,3.48 -0.96,6.58 0.08,0.71 0.61,2.09 1.62,2.07 z M 245.71,44.22 c -0.48,0.96 -1.54,1.55 -2.14,0.15 -0.09,-0.28 -0.47,-1.54 0.71,-4.09 0.24,-0.49 0.55,-1.24 0.55,-1.24 0.26,-0.56 0.05,-0.90 -0.31,-0.22 -0.36,0.68 -1.82,2.99 -1.93,5.88 -0.02,0.67 0.29,2.01 1.29,2.14 0.52,0.05 1.23,-0.26 1.87,-1.83 0.12,-0.36 0.20,-0.65 0.25,-0.79 0.07,-0.21 -0.06,-0.49 -0.28,-0.01 z M 276.33,44.69 c -0.43,0.82 -1.42,1.35 -2.04,0.15 -0.10,-0.24 -0.49,-1.31 0.56,-3.51 0.21,-0.43 0.49,-1.06 0.49,-1.06 0.24,-0.48 0.02,-0.77 -0.30,-0.18 -0.32,0.58 -1.65,2.58 -1.67,5.06 0.00,0.57 0.33,1.72 1.29,1.82 0.50,0.04 1.16,-0.23 1.73,-1.59 0.10,-0.31 0.17,-0.56 0.22,-0.68 0.06,-0.19 -0.08,-0.42 -0.27,0.00 z M 360.79,24.89 c -0.25,-0.28 -0.37,-0.01 -0.46,0.31 -0.09,0.32 -0.36,1.52 -0.54,2.27 0.00,0.00 0.71,1.16 0.97,1.75 0.25,0.59 -0.12,0.92 -0.86,1.01 -2.08,0.25 -3.73,-0.94 -4.30,-1.49 -0.57,-0.55 0.05,-1.52 0.51,-2.68 0.37,-0.93 -0.32,-1.04 -0.84,0.00 -1.76,4.63 -4.23,5.12 -4.88,5.30 -5.86,1.60 -5.36,-3.76 -5.34,-4.64 0.02,-0.88 -0.62,-0.55 -1.34,0.03 -2.47,1.98 -4.45,3.14 -5.52,3.62 -0.92,-1.80 -2.26,-2.93 -2.82,-3.34 -6.34,-4.63 -6.87,4.71 -6.67,5.71 0.97,3.97 7.45,1.56 8.46,1.44 1.02,-0.12 0.68,1.22 0.11,2.02 -1.41,1.97 -3.03,3.38 -4.50,4.57 -6.28,5.13 -9.44,4.72 -10.41,4.69 -6.17,-0.17 -5.60,-6.82 -5.26,-8.24 1.86,-1.57 3.45,-3.28 4.38,-5.04 0.38,-0.96 1.03,-3.15 -0.15,-5.91 -0.62,-1.21 -2.56,-4.60 -2.56,-4.60 0.00,0.00 1.43,0.04 1.57,0.04 0.14,0.00 0.41,-0.14 0.06,-0.54 -0.35,-0.40 -3.36,-3.41 -3.54,-3.65 -0.18,-0.24 -0.35,-0.41 -0.45,-0.06 -0.10,0.36 -0.36,1.88 -0.42,2.20 -0.06,0.31 -0.06,0.63 0.10,0.90 0.15,0.27 0.55,1.20 0.84,1.96 0.29,0.76 3.26,6.47 3.53,6.98 0.27,0.51 0.33,0.88 0.06,1.22 -9.53,10.05 -27.91,16.23 -28.50,16.57 -0.59,0.34 -0.43,0.61 0.56,0.43 1.48,-0.26 9.74,-1.64 12.09,-2.77 1.55,-0.75 6.97,-3.41 11.41,-6.89 -0.12,0.90 -0.24,2.22 -0.17,3.89 0.30,8.08 7.53,6.74 9.43,6.33 5.68,-1.25 12.64,-9.11 13.23,-10.68 0.58,-1.56 0.67,-2.98 0.54,-4.22 1.50,-0.81 4.71,-3.40 4.71,-3.40 0.13,3.45 2.88,4.48 3.72,4.63 3.96,0.60 5.94,-2.71 6.78,-3.78 0.72,1.89 2.45,2.26 3.34,2.43 3.41,0.68 4.08,-1.74 4.26,-2.29 1.07,-3.33 -0.86,-5.81 -1.11,-6.08 z M 332.16,31.57 c -2.02,-0.14 -1.85,-0.92 -1.57,-1.22 0.30,-0.33 2.78,-1.89 4.85,0.89 0.00,0.00 -0.86,0.50 -3.28,0.33 z M 301.68,23.91 c 0.00,0.00 1.25,-0.31 1.47,-0.38 0.22,-0.06 0.34,-0.34 -0.05,-0.55 -0.39,-0.20 -4.09,-1.67 -4.37,-1.79 -0.28,-0.11 -0.38,-0.24 -0.41,0.06 -0.02,0.30 -0.07,2.73 -0.07,2.73 0.00,0.00 -0.06,0.17 0.26,0.35 0.32,0.18 0.64,0.58 0.90,0.84 0.26,0.26 3.70,2.98 3.87,3.07 0.00,0.00 -1.72,3.02 -1.94,5.38 -0.22,2.36 0.04,5.63 3.27,4.58 0.87,-0.25 4.49,-1.69 5.30,-4.21 0.26,-0.93 1.01,-2.61 -0.21,-4.31 -0.70,-1.00 -3.53,-2.69 -3.53,-2.69 0.00,0.00 2.17,-3.00 2.38,-3.37 0.21,-0.37 1.00,-2.69 1.09,-3.26 0.09,-0.56 0.13,-0.84 -0.29,-0.32 -0.42,0.52 -4.63,6.05 -4.63,6.05 z M 308.64,32.79 c -1.20,0.99 -3.72,2.29 -4.43,2.36 -0.71,0.07 -2.59,-0.28 -1.77,-2.20 0.28,-0.62 2.16,-3.84 2.16,-3.84 0.70,0.39 5.24,2.70 4.04,3.69 z M 302.31,14.16 c -0.06,-0.05 -0.15,-0.03 -0.20,0.04 -1.53,2.10 -1.53,2.10 -1.53,2.10 -0.05,0.07 -0.04,0.16 0.03,0.20 2.61,1.91 2.61,1.91 2.61,1.91 0.06,0.05 0.15,0.03 0.20,-0.04 1.32,-1.81 1.32,-1.81 1.32,-1.81 2.54,1.85 2.54,1.85 2.54,1.85 0.06,0.05 0.15,0.03 0.20,-0.04 1.53,-2.10 1.53,-2.10 1.53,-2.10 0.05,-0.07 0.04,-0.16 -0.03,-0.20 -2.61,-1.91 -2.61,-1.91 -2.61,-1.91 -0.06,-0.05 -0.15,-0.03 -0.20,0.04 -1.32,1.81 -1.32,1.81 -1.32,1.81 z M 221.55,17.18 c 0.06,0.05 0.15,0.03 0.20,-0.04 1.32,-1.81 1.32,-1.81 1.32,-1.81 2.54,1.85 2.54,1.85 2.54,1.85 0.06,0.05 0.15,0.03 0.20,-0.04 1.53,-2.10 1.53,-2.10 1.53,-2.10 0.05,-0.07 0.04,-0.16 -0.03,-0.21 -2.61,-1.91 -2.61,-1.91 -2.61,-1.91 -0.06,-0.05 -0.15,-0.03 -0.20,0.04 -1.32,1.81 -1.32,1.81 -1.32,1.81 -2.54,-1.85 -2.54,-1.85 -2.54,-1.85 -0.06,-0.05 -0.15,-0.03 -0.20,0.04 -1.53,2.10 -1.53,2.10 -1.53,2.10 -0.05,0.07 -0.04,0.16 0.03,0.21 z M 334.61,7.03 c 0.17,0.09 0.36,0.11 0.41,-0.10 0.05,-0.21 0.28,-0.68 0.62,-0.34 0.28,0.28 2.09,1.78 3.03,4.95 0.16,0.42 0.55,0.46 0.64,-0.14 0.22,-1.47 0.34,-4.02 0.45,-4.79 0.16,-1.09 0.68,-3.32 2.06,-2.16 0.31,0.26 0.64,0.61 0.64,0.61 0.29,0.37 0.66,0.79 0.84,0.36 0.27,-0.64 0.49,-1.70 0.19,-2.28 -0.13,-0.26 -1.84,-2.41 -3.00,-0.93 -1.44,1.83 -1.53,4.23 -1.72,6.91 -0.20,-0.56 -1.35,-4.16 -5.02,-6.21 -0.27,-0.15 -0.81,0.13 -0.86,0.98 -0.03,0.49 -0.17,1.69 0.18,2.03 0.35,0.34 1.37,1.01 1.54,1.10 z M 311.41,12.30 c 0.25,-0.16 13.84,-8.02 14.32,-8.31 0.46,-0.29 0.72,-0.41 0.91,-0.85 0.18,-0.44 0.23,-0.51 0.33,-0.82 0.11,-0.32 0.21,-0.67 -0.61,-0.19 -0.53,0.31 -14.04,8.11 -14.59,8.46 -0.55,0.35 -0.74,0.44 -0.83,0.86 -0.09,0.42 -0.13,0.67 -0.16,0.73 -0.10,0.28 -0.17,0.63 0.64,0.10 z M 355.21,14.30 c 0.18,-0.50 -0.04,-0.77 -0.29,-0.16 -0.25,0.61 -1.30,2.73 -1.14,5.22 0.04,0.58 0.42,1.70 1.29,1.73 0.45,0.00 1.03,-0.33 1.44,-1.73 0.07,-0.32 0.12,-0.57 0.15,-0.70 0.04,-0.19 -0.10,-0.42 -0.24,0.02 -0.33,0.86 -1.18,1.47 -1.82,0.31 -0.10,-0.23 -0.53,-1.28 0.26,-3.57 0.16,-0.45 0.36,-1.11 0.36,-1.11 z M 329.10,20.28 c 0.48,0.00 1.11,-0.35 1.55,-1.88 0.08,-0.34 0.13,-0.62 0.16,-0.75 0.05,-0.21 -0.10,-0.45 -0.26,0.02 -0.35,0.93 -1.27,1.58 -1.96,0.33 -0.11,-0.25 -0.58,-1.38 0.28,-3.86 0.17,-0.48 0.39,-1.20 0.39,-1.20 0.19,-0.54 -0.04,-0.84 -0.31,-0.17 -0.27,0.66 -1.40,2.94 -1.23,5.64 0.04,0.62 0.45,1.83 1.39,1.87 z M 352.45,6.37 c 0.79,0.58 1.93,1.04 1.93,1.04 -3.66,4.48 -10.84,7.67 -12.55,9.01 -0.51,0.39 -0.44,0.61 -0.12,0.53 0.29,-0.08 5.76,-1.61 10.77,-5.90 2.29,-1.97 2.23,-2.11 2.81,-3.31 0.50,0.26 0.84,0.67 1.03,0.91 0.28,0.34 0.43,0.60 0.56,0.23 0.48,-1.33 -0.20,-2.13 -0.84,-2.54 0.00,0.00 0.67,-2.07 -0.56,-4.14 -0.21,-0.35 -1.43,-1.46 -2.85,0.74 -0.55,0.84 -0.96,2.85 -0.17,3.42 z M 353.18,4.34 c 0.73,-1.02 1.08,-0.99 1.36,-0.82 0.82,0.77 0.70,2.03 0.67,2.31 0.00,0.00 -1.05,-0.49 -1.52,-0.70 -0.47,-0.20 -0.72,-0.50 -0.50,-0.80 z M 294.73,13.78 c 0.17,-0.04 3.05,-0.49 6.41,-3.05 1.82,-1.38 2.92,-3.74 2.92,-3.74 0.00,0.00 0.91,0.76 1.03,0.91 0.28,0.34 0.43,0.60 0.56,0.23 0.48,-1.33 -0.20,-2.13 -0.84,-2.54 0.00,0.00 0.67,-2.07 -0.56,-4.14 -0.21,-0.35 -1.43,-1.46 -2.85,0.74 -0.55,0.84 -0.96,2.85 -0.17,3.42 0.79,0.58 1.93,1.04 1.93,1.04 -3.66,4.48 -6.16,5.34 -8.30,6.59 -0.55,0.32 -0.44,0.61 -0.12,0.53 z M 302.44,4.39 c -0.47,-0.20 -0.72,-0.50 -0.50,-0.80 0.73,-1.02 1.08,-0.98 1.36,-0.82 0.82,0.77 0.70,2.03 0.67,2.31 0.00,0.00 -1.05,-0.49 -1.52,-0.70 z M 357.59,37.21 c -0.24,0.68 -0.34,1.12 -0.31,1.38 0.03,0.26 0.11,1.09 0.11,1.09 -0.25,0.20 -1.33,0.87 -2.40,0.08 0.07,-0.23 0.21,-0.70 0.24,-0.95 0.12,-0.40 -0.13,-0.69 -0.32,-0.28 -0.20,0.41 -0.65,1.79 -0.99,2.10 -0.34,0.31 -0.73,1.45 -3.30,0.29 -0.45,-0.17 -1.23,-0.75 -2.46,0.48 -2.77,2.57 -4.68,2.78 -7.79,3.88 -0.38,0.17 -1.16,0.76 -0.23,0.67 0.94,-0.09 4.87,0.00 7.01,-2.46 0.45,-0.43 0.96,-1.58 2.66,-0.92 0.94,0.36 2.68,1.85 4.58,-1.10 1.12,0.75 2.82,0.45 3.09,-0.38 0.27,-0.82 0.58,-1.64 0.58,-2.20 0.00,-0.56 -0.05,-1.30 -0.05,-1.30 -0.04,-0.44 -0.19,-1.07 -0.44,-0.40 z M 286.95,30.03 c -2.21,-1.06 -5.64,-0.86 -7.23,-5.74 -0.66,-1.95 -2.66,-16.94 -2.66,-16.94 0.00,0.00 1.52,1.49 1.76,1.76 0.24,0.27 0.55,0.14 0.41,-0.29 -0.13,-0.43 -2.96,-7.44 -3.06,-7.71 -0.10,-0.27 -0.19,-0.46 -0.33,-0.16 -0.13,0.30 -1.20,2.52 -1.20,2.52 0.02,0.18 0.24,0.78 0.38,1.92 0.13,1.09 0.23,2.62 0.44,4.32 0.14,1.17 1.55,11.64 1.82,13.06 0.09,0.47 0.23,1.40 0.53,2.51 -0.56,0.00 -1.04,0.11 -1.29,0.20 -0.92,0.33 -3.63,2.54 -4.46,6.63 -0.25,1.10 -0.74,3.10 0.50,4.80 -0.63,0.16 -1.31,0.31 -2.05,0.45 -1.68,0.17 -13.49,1.46 -19.01,-4.82 -0.54,-0.61 -0.63,-0.79 -0.83,-0.20 -0.05,0.15 -0.10,0.44 -0.15,0.80 -0.58,-0.08 -1.25,-0.12 -2.05,-0.10 -1.68,0.04 -4.65,0.02 -9.81,4.15 -1.77,1.42 -7.97,7.30 -8.98,8.09 -1.35,1.05 -4.25,2.04 -5.91,0.36 -0.74,-0.75 -1.63,-4.03 1.55,-9.17 0.14,-0.22 0.18,-0.48 0.13,-0.64 1.17,-0.71 2.36,-1.74 2.79,-3.06 0.26,-0.93 1.01,-2.61 -0.21,-4.31 -0.70,-1.00 -3.53,-2.69 -3.53,-2.69 0.00,0.00 2.17,-3.00 2.38,-3.37 0.21,-0.37 1.00,-2.69 1.09,-3.26 0.09,-0.56 0.13,-0.84 -0.29,-0.32 -0.42,0.52 -4.63,6.05 -4.63,6.05 -3.06,-2.18 -3.06,-2.18 -3.06,-2.18 0.00,0.00 1.25,-0.31 1.47,-0.38 0.22,-0.06 0.34,-0.35 -0.05,-0.55 -0.39,-0.20 -4.09,-1.67 -4.37,-1.79 -0.28,-0.11 -0.38,-0.24 -0.41,0.06 -0.02,0.30 -0.07,2.73 -0.07,2.73 0.00,0.00 -0.06,0.17 0.27,0.35 0.32,0.18 0.64,0.58 0.90,0.84 0.26,0.26 3.70,2.98 3.87,3.07 0.00,0.00 -1.72,3.02 -1.94,5.38 -0.22,2.36 0.04,5.63 3.27,4.58 0.25,-0.07 0.72,-0.24 1.29,-0.50 -0.12,0.17 -0.26,0.36 -0.40,0.59 -1.64,2.63 -4.09,11.13 2.67,11.95 1.37,0.17 3.74,0.21 8.48,-5.12 1.03,-1.15 4.16,-4.13 6.47,-5.48 3.65,-2.12 6.49,-2.17 6.49,-2.17 0.14,-0.02 0.80,-0.07 1.63,0.07 -0.14,2.06 0.05,4.74 1.67,6.14 3.20,2.75 3.91,1.04 4.08,0.38 0.14,-0.52 0.56,-1.80 0.47,-3.38 0.01,0.00 0.03,0.01 0.04,0.02 1.59,0.55 9.23,3.30 19.02,-0.79 0.49,0.22 1.05,0.43 1.71,0.60 0.96,0.23 4.59,0.50 9.14,-0.69 1.06,-0.33 2.18,-0.46 2.77,-2.74 0.59,-2.28 0.66,-4.75 -1.55,-5.81 z M 222.54,33.92 c -0.71,0.07 -2.59,-0.28 -1.77,-2.20 0.28,-0.62 2.16,-3.84 2.16,-3.84 0.70,0.39 5.24,2.70 4.04,3.69 -1.20,0.99 -3.72,2.29 -4.43,2.36 z M 253.40,40.15 c -0.65,-0.26 -2.34,-0.96 -2.52,-3.05 0.00,-0.09 -0.01,-0.24 -0.01,-0.43 1.14,0.44 2.31,1.31 2.95,3.01 0.15,0.39 0.23,0.75 -0.42,0.48 z M 275.95,35.70 c -0.22,-0.08 -0.42,-0.18 -0.62,-0.29 -0.96,-0.53 -2.94,-1.35 -1.72,-3.73 1.98,-3.76 4.12,-4.35 5.21,-2.08 0.46,0.96 1.06,2.44 0.63,3.10 -0.28,0.43 -1.02,1.77 -3.51,2.99 z M 287.02,35.11 c -0.86,0.28 -4.59,1.26 -7.93,1.15 0.74,-0.89 1.49,-2.47 1.92,-5.43 0.46,0.38 0.97,0.70 1.55,0.95 1.42,0.53 3.07,1.22 3.73,1.55 0.66,0.33 1.95,1.39 0.73,1.78 z" />
     </g>
</svg>
