<?xml version="1.0" encoding="UTF-8"?>
<svg version="1.1" id="Layer_1" x="0px" y="0px" width="578" height="51" viewBox="0 0 578 51"
xml:space="preserve" xmlns="http://www.w3.org/2000/svg" xmlns:svg="http://www.w3.org/2000/svg" xmlns:rdf="http://www.w3.org/1999/02/22-rdf-syntax-ns#"  xmlns:cc="http://creativecommons.org/ns#" xmlns:dc="http://purl.org/dc/elements/1.1/">
     <g>
<path d="M 275.67,16.75 c -1.92,2.63 -1.92,2.63 -1.92,2.63 -0.06,0.08 -0.05,0.20 0.03,0.25 3.27,2.38 3.27,2.38 3.27,2.38 0.08,0.06 0.19,0.04 0.25,-0.05 1.91,-2.63 1.91,-2.63 1.91,-2.63 0.06,-0.08 0.05,-0.20 -0.03,-0.25 -3.27,-2.38 -3.27,-2.38 -3.27,-2.38 -0.08,-0.06 -0.19,-0.04 -0.25,0.05 z M 297.13,44.60 c -0.04,0.46 0.17,0.63 0.38,0.19 0.11,-0.24 0.59,-1.22 0.73,-3.80 0.11,-1.94 -0.04,-4.92 -0.60,-9.01 -0.08,-0.60 -2.95,-21.37 -2.95,-21.37 0.00,0.00 1.55,1.46 1.80,1.72 0.25,0.26 0.55,0.12 0.41,-0.30 -0.14,-0.42 -3.32,-8.09 -3.42,-8.36 -0.10,-0.27 -0.20,-0.46 -0.33,-0.15 -0.13,0.31 -1.08,2.64 -1.08,2.64 0.02,0.14 0.28,1.16 0.33,1.54 0.44,3.36 3.20,23.25 3.99,29.54 0.39,3.09 0.69,5.88 0.73,7.37 z M 286.18,9.80 c 0.00,0.00 1.22,1.31 1.47,1.57 0.25,0.26 0.55,0.12 0.41,-0.30 -0.14,-0.42 -3.12,-7.67 -3.23,-7.93 -0.10,-0.27 -0.20,-0.46 -0.33,-0.15 -0.13,0.31 -1.15,2.55 -1.15,2.55 0.03,0.18 0.27,0.73 0.43,1.87 0.06,0.40 4.75,27.77 4.80,28.31 0.05,0.54 0.26,0.99 -0.33,1.43 -0.59,0.44 -1.97,1.67 -4.84,1.71 -0.94,0.01 -3.02,0.19 -4.59,-1.70 0.44,-0.36 0.85,-0.73 1.22,-1.12 0.64,-0.68 3.98,-4.73 1.08,-9.06 -0.40,-0.64 -1.69,-2.31 -3.67,-0.90 -1.41,1.00 -2.73,5.71 -1.45,10.03 -0.99,0.55 -2.11,1.08 -3.33,1.54 -1.06,0.37 -9.44,4.27 -15.86,1.50 -0.93,-0.40 -4.05,-1.98 -4.51,-4.69 -0.04,-0.55 -0.20,-1.43 -1.10,-0.11 -0.90,1.32 -2.52,6.31 -7.04,6.17 -0.86,-0.03 -4.92,-0.56 -5.91,-9.47 -0.36,-1.98 -2.92,-21.76 -4.63,-27.04 -0.40,-1.32 -0.48,-0.97 -0.70,-0.44 -0.22,0.53 -0.92,1.45 -0.53,3.96 0.40,2.51 4.40,25.34 3.83,26.71 -0.57,1.36 -5.02,5.94 -7.08,7.30 -2.07,1.36 -10.25,6.53 -14.26,-1.50 -0.55,-1.09 -0.67,-4.68 0.69,-8.03 0.00,-0.01 0.01,-0.02 0.01,-0.03 0.29,0.22 0.62,0.35 1.00,0.34 0.76,-0.05 1.71,-0.70 2.26,-3.35 0.09,-0.60 0.14,-1.07 0.17,-1.31 0.06,-0.36 -0.21,-0.76 -0.41,0.06 -0.47,1.63 -1.85,2.83 -3.06,0.75 -0.20,-0.42 -1.04,-2.31 0.06,-6.63 0.22,-0.84 0.50,-2.08 0.50,-2.08 0.25,-0.94 -0.14,-1.43 -0.51,-0.27 -0.36,1.16 -1.92,5.17 -1.39,9.76 0.07,0.64 0.38,1.63 0.94,2.31 -0.06,0.11 -0.12,0.23 -0.17,0.37 -0.48,1.19 -4.77,11.12 2.80,14.96 2.44,1.24 8.19,1.37 14.30,-4.31 1.60,-1.48 4.62,-4.05 5.19,-7.30 0.00,0.00 0.90,6.87 5.94,8.23 1.93,0.52 6.07,-0.09 8.05,-5.72 0.00,0.00 1.79,6.53 13.43,5.23 1.01,-0.11 7.55,-1.63 12.30,-4.58 0.52,0.90 1.20,1.74 2.05,2.48 0.72,0.63 5.40,3.27 9.57,-0.99 0.49,-0.50 1.85,-3.13 1.28,-7.26 -0.16,-1.16 -3.72,-22.86 -3.72,-22.86 z M 277.67,35.06 c -0.19,-0.51 -0.35,-1.08 -0.48,-1.74 -0.25,-0.80 -1.08,-2.56 0.09,-3.97 0.28,-0.38 1.37,-0.91 2.03,-0.25 0.66,0.66 2.14,1.90 1.31,3.25 -0.44,0.71 -1.48,1.70 -2.95,2.70 z M 254.41,45.55 c -0.06,-0.04 -0.15,-0.03 -0.20,0.04 -1.32,1.81 -1.32,1.81 -1.32,1.81 -2.54,-1.85 -2.54,-1.85 -2.54,-1.85 -0.06,-0.04 -0.15,-0.03 -0.20,0.04 -1.53,2.10 -1.53,2.10 -1.53,2.10 -0.05,0.07 -0.04,0.16 0.03,0.21 2.61,1.91 2.61,1.91 2.61,1.91 0.06,0.05 0.15,0.03 0.20,-0.04 1.32,-1.81 1.32,-1.81 1.32,-1.81 2.54,1.85 2.54,1.85 2.54,1.85 0.06,0.05 0.15,0.03 0.20,-0.04 1.53,-2.10 1.53,-2.10 1.53,-2.10 0.05,-0.07 0.04,-0.16 -0.03,-0.20 z M 269.54,8.47 c 0.34,0.27 1.33,0.76 1.49,0.83 0.16,0.07 0.33,0.06 0.36,-0.13 0.03,-0.19 0.19,-0.64 0.52,-0.37 0.28,0.23 2.05,1.38 3.20,4.12 0.19,0.36 0.54,0.36 0.56,-0.19 0.05,-1.33 -0.10,-3.62 -0.08,-4.33 0.04,-0.99 0.28,-3.04 1.62,-2.14 0.31,0.21 0.64,0.48 0.64,0.48 0.30,0.30 0.67,0.64 0.79,0.24 0.18,-0.60 0.27,-1.57 -0.06,-2.06 -0.14,-0.22 -1.88,-1.97 -2.77,-0.53 -1.10,1.78 -0.94,3.94 -0.84,6.35 -0.24,-0.48 -1.62,-3.58 -5.11,-5.05 -0.25,-0.11 -0.71,0.20 -0.67,0.96 0.02,0.45 0.02,1.53 0.36,1.80 z M 240.24,9.66 c 0.34,0.27 1.33,0.76 1.49,0.83 0.16,0.07 0.33,0.06 0.36,-0.13 0.03,-0.19 0.19,-0.64 0.52,-0.37 0.28,0.22 2.05,1.38 3.21,4.12 0.19,0.36 0.54,0.36 0.56,-0.19 0.05,-1.33 -0.10,-3.62 -0.08,-4.33 0.04,-0.99 0.28,-3.04 1.62,-2.14 0.31,0.21 0.64,0.48 0.64,0.48 0.30,0.30 0.67,0.64 0.78,0.24 0.18,-0.60 0.27,-1.57 -0.06,-2.06 -0.14,-0.21 -1.88,-1.97 -2.77,-0.53 -1.10,1.78 -0.94,3.94 -0.84,6.35 -0.24,-0.48 -1.62,-3.58 -5.11,-5.05 -0.25,-0.11 -0.71,0.20 -0.67,0.96 0.02,0.44 0.02,1.53 0.36,1.80 z M 219.65,10.06 c 0.34,0.27 1.33,0.76 1.49,0.83 0.16,0.07 0.33,0.06 0.36,-0.13 0.03,-0.19 0.19,-0.64 0.52,-0.37 0.28,0.23 2.05,1.38 3.21,4.12 0.19,0.36 0.54,0.36 0.56,-0.19 0.05,-1.33 -0.10,-3.62 -0.08,-4.33 0.04,-0.99 0.28,-3.04 1.62,-2.14 0.31,0.21 0.64,0.48 0.64,0.48 0.30,0.30 0.67,0.64 0.79,0.24 0.18,-0.60 0.26,-1.57 -0.06,-2.06 -0.14,-0.21 -1.88,-1.97 -2.77,-0.53 -1.10,1.78 -0.94,3.94 -0.84,6.35 -0.24,-0.48 -1.62,-3.58 -5.11,-5.05 -0.25,-0.11 -0.71,0.20 -0.67,0.96 0.02,0.44 0.02,1.53 0.36,1.80 z M 238.26,45.41 c -0.55,0.28 -8.07,3.09 -8.64,3.41 -0.57,0.32 -0.77,0.40 -0.88,0.81 -0.11,0.42 -0.17,0.66 -0.20,0.72 -0.12,0.28 -0.21,0.62 0.63,0.14 0.26,-0.15 7.88,-3.01 8.35,-3.28 0.47,-0.27 0.75,-0.36 0.96,-0.79 0.21,-0.42 0.26,-0.50 0.38,-0.80 0.12,-0.32 0.25,-0.65 -0.60,-0.22 z M 278.13,43.30 c -0.55,0.28 -8.07,3.09 -8.64,3.41 -0.57,0.32 -0.77,0.40 -0.88,0.81 -0.11,0.42 -0.17,0.66 -0.20,0.72 -0.12,0.28 -0.21,0.62 0.63,0.14 0.26,-0.15 7.89,-3.01 8.35,-3.28 0.47,-0.27 0.75,-0.36 0.96,-0.79 0.21,-0.43 0.26,-0.50 0.38,-0.80 0.12,-0.32 0.25,-0.65 -0.60,-0.22 z M 228.35,25.11 c 0.05,-0.21 -0.11,-0.46 -0.27,0.02 -0.36,0.95 -1.30,1.62 -2.01,0.34 -0.11,-0.25 -0.59,-1.41 0.28,-3.94 0.18,-0.49 0.40,-1.22 0.40,-1.22 0.20,-0.55 -0.04,-0.85 -0.32,-0.18 -0.28,0.68 -1.43,3.01 -1.26,5.75 0.04,0.64 0.46,1.87 1.42,1.91 0.49,0.00 1.13,-0.36 1.59,-1.92 0.08,-0.35 0.13,-0.63 0.16,-0.77 z M 225.83,32.59 c 0.20,-0.55 -0.04,-0.85 -0.32,-0.18 -0.28,0.68 -1.43,3.01 -1.26,5.76 0.04,0.63 0.46,1.87 1.42,1.90 0.49,0.00 1.13,-0.36 1.59,-1.91 0.08,-0.35 0.13,-0.63 0.16,-0.77 0.05,-0.21 -0.11,-0.46 -0.27,0.02 -0.36,0.95 -1.30,1.62 -2.01,0.34 -0.11,-0.25 -0.59,-1.41 0.28,-3.94 0.18,-0.49 0.40,-1.22 0.40,-1.22 z M 265.58,33.56 c 0.61,-0.04 1.38,-0.49 1.85,-2.28 0.07,-0.40 0.12,-0.72 0.15,-0.88 0.05,-0.24 -0.16,-0.51 -0.33,0.04 -0.39,1.10 -1.51,1.92 -2.46,0.53 -0.16,-0.28 -0.82,-1.55 0.10,-4.47 0.19,-0.57 0.41,-1.41 0.41,-1.41 0.21,-0.64 -0.10,-0.96 -0.40,-0.18 -0.30,0.78 -1.58,3.50 -1.19,6.59 0.09,0.71 0.69,2.08 1.88,2.05 z M 246.83,26.31 c -0.17,-0.35 -0.88,-1.96 0.05,-5.62 0.19,-0.71 0.42,-1.77 0.42,-1.77 0.21,-0.80 -0.12,-1.21 -0.43,-0.23 -0.31,0.98 -1.63,4.38 -1.18,8.28 0.11,0.90 0.76,2.63 2.01,2.60 0.65,-0.04 1.45,-0.60 1.92,-2.84 0.07,-0.50 0.12,-0.91 0.15,-1.11 0.05,-0.30 -0.18,-0.65 -0.35,0.05 -0.40,1.38 -1.57,2.40 -2.60,0.63 z M 337.49,7.03 c 0.17,0.09 0.36,0.11 0.41,-0.10 0.05,-0.21 0.29,-0.68 0.62,-0.34 0.28,0.28 2.09,1.78 3.03,4.95 0.16,0.42 0.55,0.46 0.64,-0.14 0.22,-1.47 0.33,-4.02 0.45,-4.79 0.16,-1.09 0.68,-3.32 2.06,-2.16 0.31,0.26 0.64,0.61 0.64,0.61 0.29,0.37 0.66,0.79 0.84,0.36 0.27,-0.64 0.49,-1.70 0.19,-2.28 -0.13,-0.26 -1.84,-2.41 -3.00,-0.93 -1.44,1.83 -1.53,4.23 -1.72,6.91 -0.20,-0.56 -1.35,-4.16 -5.02,-6.21 -0.27,-0.15 -0.81,0.13 -0.86,0.98 -0.03,0.49 -0.17,1.69 0.18,2.03 0.35,0.34 1.37,1.01 1.54,1.10 z M 358.09,14.30 c 0.18,-0.50 -0.04,-0.77 -0.29,-0.16 -0.25,0.61 -1.30,2.73 -1.14,5.22 0.04,0.58 0.42,1.70 1.29,1.73 0.45,0.00 1.03,-0.33 1.44,-1.73 0.07,-0.32 0.12,-0.57 0.15,-0.70 0.04,-0.19 -0.10,-0.42 -0.24,0.02 -0.33,0.86 -1.18,1.47 -1.82,0.31 -0.10,-0.23 -0.53,-1.28 0.26,-3.57 0.16,-0.45 0.36,-1.11 0.36,-1.11 z M 363.67,24.89 c -0.25,-0.28 -0.37,-0.01 -0.46,0.31 -0.09,0.32 -0.36,1.52 -0.54,2.27 0.00,0.00 0.71,1.16 0.97,1.75 0.25,0.59 -0.12,0.92 -0.86,1.01 -2.08,0.25 -3.73,-0.94 -4.30,-1.48 -0.57,-0.55 0.05,-1.52 0.51,-2.68 0.37,-0.93 -0.32,-1.04 -0.84,0.00 -1.76,4.63 -4.23,5.12 -4.88,5.30 -5.86,1.60 -5.36,-3.76 -5.33,-4.64 0.02,-0.88 -0.62,-0.55 -1.34,0.03 -2.47,1.98 -4.45,3.14 -5.52,3.62 -0.92,-1.80 -2.26,-2.93 -2.82,-3.34 -6.34,-4.63 -6.87,4.71 -6.67,5.71 0.97,3.97 7.45,1.56 8.46,1.44 1.02,-0.12 0.68,1.22 0.11,2.02 -1.41,1.97 -3.03,3.38 -4.50,4.58 -6.28,5.13 -9.43,4.72 -10.41,4.69 -6.17,-0.17 -5.60,-6.82 -5.26,-8.24 1.86,-1.57 3.45,-3.28 4.38,-5.04 0.38,-0.96 1.03,-3.16 -0.15,-5.91 -0.62,-1.21 -2.56,-4.60 -2.56,-4.60 0.00,0.00 1.43,0.04 1.57,0.04 0.14,0.00 0.41,-0.14 0.06,-0.54 -0.35,-0.40 -3.36,-3.41 -3.54,-3.65 -0.18,-0.24 -0.35,-0.41 -0.45,-0.06 -0.10,0.35 -0.36,1.88 -0.42,2.20 -0.06,0.31 -0.06,0.63 0.10,0.90 0.16,0.27 0.55,1.20 0.84,1.96 0.29,0.76 3.25,6.47 3.53,6.98 0.27,0.51 0.33,0.88 0.06,1.22 -9.53,10.05 -27.91,16.23 -28.50,16.57 -0.59,0.34 -0.43,0.61 0.56,0.43 1.48,-0.26 9.74,-1.64 12.09,-2.77 1.55,-0.75 6.97,-3.41 11.41,-6.89 -0.12,0.90 -0.24,2.22 -0.18,3.89 0.30,8.08 7.53,6.74 9.43,6.33 5.68,-1.25 12.64,-9.11 13.23,-10.68 0.58,-1.56 0.67,-2.98 0.54,-4.22 1.50,-0.81 4.71,-3.40 4.71,-3.40 0.13,3.45 2.87,4.48 3.72,4.63 3.96,0.60 5.94,-2.70 6.78,-3.78 0.72,1.89 2.45,2.26 3.34,2.43 3.41,0.68 4.08,-1.73 4.25,-2.29 1.07,-3.33 -0.86,-5.81 -1.11,-6.08 z M 335.04,31.57 c -2.03,-0.14 -1.85,-0.92 -1.57,-1.22 0.30,-0.33 2.78,-1.89 4.85,0.89 0.00,0.00 -0.86,0.50 -3.28,0.33 z M 355.33,6.37 c 0.79,0.58 1.94,1.04 1.94,1.04 -3.66,4.48 -10.84,7.67 -12.56,9.01 -0.51,0.39 -0.44,0.61 -0.12,0.53 0.28,-0.08 5.76,-1.61 10.76,-5.90 2.29,-1.97 2.23,-2.11 2.81,-3.31 0.50,0.26 0.84,0.67 1.03,0.91 0.28,0.34 0.43,0.60 0.56,0.23 0.48,-1.33 -0.20,-2.13 -0.84,-2.54 0.00,0.00 0.67,-2.07 -0.56,-4.14 -0.21,-0.35 -1.43,-1.46 -2.85,0.74 -0.55,0.84 -0.96,2.85 -0.17,3.42 z M 356.06,4.34 c 0.73,-1.02 1.08,-0.99 1.36,-0.82 0.82,0.77 0.70,2.03 0.67,2.31 0.00,0.00 -1.05,-0.49 -1.52,-0.69 -0.47,-0.20 -0.72,-0.50 -0.50,-0.80 z M 331.98,20.28 c 0.48,0.00 1.11,-0.35 1.55,-1.88 0.08,-0.34 0.12,-0.62 0.16,-0.75 0.05,-0.21 -0.10,-0.45 -0.26,0.02 -0.36,0.93 -1.27,1.58 -1.96,0.33 -0.11,-0.25 -0.58,-1.38 0.28,-3.86 0.17,-0.48 0.39,-1.20 0.39,-1.20 0.19,-0.54 -0.04,-0.84 -0.31,-0.17 -0.27,0.66 -1.40,2.94 -1.23,5.64 0.04,0.62 0.45,1.83 1.39,1.87 z M 305.19,14.16 c -0.06,-0.05 -0.15,-0.03 -0.20,0.04 -1.53,2.10 -1.53,2.10 -1.53,2.10 -0.05,0.07 -0.04,0.16 0.03,0.20 2.61,1.91 2.61,1.91 2.61,1.91 0.06,0.05 0.15,0.03 0.20,-0.04 1.32,-1.81 1.32,-1.81 1.32,-1.81 2.54,1.85 2.54,1.85 2.54,1.85 0.06,0.05 0.15,0.03 0.20,-0.04 1.53,-2.10 1.53,-2.10 1.53,-2.10 0.05,-0.07 0.04,-0.16 -0.03,-0.20 -2.61,-1.91 -2.61,-1.91 -2.61,-1.91 -0.06,-0.05 -0.15,-0.03 -0.20,0.04 -1.32,1.81 -1.32,1.81 -1.32,1.81 z M 297.61,13.78 c 0.17,-0.04 3.05,-0.49 6.41,-3.05 1.82,-1.38 2.92,-3.74 2.92,-3.74 0.00,0.00 0.91,0.76 1.03,0.91 0.28,0.34 0.43,0.60 0.56,0.23 0.48,-1.33 -0.20,-2.13 -0.84,-2.54 0.00,0.00 0.67,-2.07 -0.56,-4.14 -0.21,-0.35 -1.43,-1.46 -2.85,0.74 -0.55,0.84 -0.96,2.85 -0.17,3.42 0.79,0.58 1.94,1.04 1.94,1.04 -3.66,4.48 -6.16,5.34 -8.30,6.59 -0.55,0.32 -0.44,0.61 -0.12,0.53 z M 305.33,4.39 c -0.47,-0.20 -0.72,-0.50 -0.50,-0.80 0.73,-1.02 1.08,-0.99 1.36,-0.82 0.82,0.77 0.70,2.03 0.67,2.31 0.00,0.00 -1.05,-0.49 -1.52,-0.70 z M 360.47,37.21 c -0.24,0.68 -0.34,1.12 -0.32,1.38 0.03,0.26 0.12,1.09 0.12,1.09 -0.25,0.20 -1.33,0.87 -2.40,0.08 0.07,-0.23 0.21,-0.70 0.24,-0.95 0.12,-0.40 -0.13,-0.69 -0.32,-0.28 -0.20,0.41 -0.65,1.79 -0.99,2.10 -0.34,0.31 -0.74,1.45 -3.30,0.29 -0.45,-0.17 -1.23,-0.75 -2.46,0.48 -2.77,2.57 -4.68,2.77 -7.79,3.88 -0.38,0.17 -1.16,0.76 -0.23,0.67 0.94,-0.09 4.87,0.00 7.01,-2.46 0.45,-0.43 0.96,-1.58 2.66,-0.92 0.94,0.36 2.68,1.85 4.58,-1.10 1.12,0.75 2.82,0.45 3.09,-0.38 0.27,-0.82 0.58,-1.64 0.58,-2.20 0.00,-0.56 -0.05,-1.30 -0.05,-1.30 -0.04,-0.44 -0.19,-1.07 -0.44,-0.40 z M 314.29,12.30 c 0.25,-0.16 13.84,-8.02 14.32,-8.31 0.46,-0.29 0.72,-0.41 0.90,-0.85 0.18,-0.44 0.23,-0.51 0.33,-0.82 0.10,-0.32 0.21,-0.67 -0.61,-0.19 -0.53,0.31 -14.04,8.11 -14.59,8.46 -0.55,0.35 -0.74,0.44 -0.83,0.87 -0.09,0.42 -0.13,0.67 -0.16,0.73 -0.10,0.28 -0.17,0.63 0.64,0.10 z M 304.57,23.91 c 0.00,0.00 1.25,-0.31 1.47,-0.38 0.22,-0.06 0.34,-0.34 -0.05,-0.55 -0.39,-0.20 -4.09,-1.67 -4.37,-1.79 -0.28,-0.11 -0.38,-0.24 -0.41,0.06 -0.02,0.30 -0.07,2.73 -0.07,2.73 0.00,0.00 -0.06,0.17 0.27,0.35 0.32,0.18 0.64,0.58 0.90,0.84 0.26,0.26 3.70,2.98 3.87,3.07 0.00,0.00 -1.72,3.02 -1.94,5.38 -0.22,2.36 0.04,5.63 3.27,4.57 0.87,-0.25 4.49,-1.69 5.30,-4.21 0.26,-0.93 1.01,-2.61 -0.21,-4.31 -0.70,-1.00 -3.53,-2.69 -3.53,-2.69 0.00,0.00 2.17,-3.00 2.38,-3.37 0.21,-0.37 1.00,-2.69 1.09,-3.26 0.09,-0.56 0.13,-0.84 -0.29,-0.32 -0.42,0.52 -4.63,6.05 -4.63,6.05 z M 311.52,32.79 c -1.20,0.99 -3.72,2.29 -4.43,2.36 -0.71,0.07 -2.59,-0.28 -1.77,-2.20 0.28,-0.62 2.16,-3.84 2.16,-3.84 0.70,0.39 5.24,2.70 4.04,3.69 z" />
     </g>
</svg>
