<?xml version="1.0" encoding="UTF-8"?>
<svg version="1.1" id="Layer_1" x="0px" y="0px" width="578" height="51" viewBox="0 0 578 51"
xml:space="preserve" xmlns="http://www.w3.org/2000/svg" xmlns:svg="http://www.w3.org/2000/svg" xmlns:rdf="http://www.w3.org/1999/02/22-rdf-syntax-ns#"  xmlns:cc="http://creativecommons.org/ns#" xmlns:dc="http://purl.org/dc/elements/1.1/">
     <g>
<path d="M 261.34,7.07 c 0.43,-0.46 0.73,-0.93 1.99,-0.90 1.26,0.03 4.28,-0.08 3.15,0.75 -1.13,0.83 -1.89,1.31 -1.89,1.31 -0.73,0.52 -1.38,1.51 -0.08,0.96 1.29,-0.55 3.00,-1.41 4.31,-3.39 0.38,-0.58 0.83,-1.34 -0.95,-1.61 -1.78,-0.26 -4.65,-0.68 -5.58,0.33 -0.93,1.01 -1.22,1.71 -1.49,2.14 -0.38,0.60 0.10,0.86 0.53,0.40 z M 252.05,11.81 c -1.53,2.10 -1.53,2.10 -1.53,2.10 -0.05,0.07 -0.04,0.16 0.03,0.20 2.62,1.91 2.62,1.91 2.62,1.91 0.06,0.05 0.15,0.03 0.20,-0.04 1.53,-2.10 1.53,-2.10 1.53,-2.10 0.05,-0.07 0.04,-0.16 -0.03,-0.20 -2.61,-1.91 -2.61,-1.91 -2.61,-1.91 -0.06,-0.05 -0.15,-0.03 -0.20,0.04 z M 251.98,20.54 c 0.06,0.05 0.15,0.03 0.20,-0.04 1.32,-1.81 1.32,-1.81 1.32,-1.81 2.54,1.85 2.54,1.85 2.54,1.85 0.06,0.05 0.15,0.03 0.20,-0.04 1.53,-2.10 1.53,-2.10 1.53,-2.10 0.05,-0.07 0.04,-0.16 -0.03,-0.20 -2.61,-1.91 -2.61,-1.91 -2.61,-1.91 -0.06,-0.05 -0.15,-0.03 -0.20,0.04 -1.32,1.81 -1.32,1.81 -1.32,1.81 -2.54,-1.85 -2.54,-1.85 -2.54,-1.85 -0.06,-0.05 -0.15,-0.03 -0.20,0.04 -1.53,2.10 -1.53,2.10 -1.53,2.10 -0.05,0.07 -0.04,0.16 0.03,0.20 z M 281.76,12.64 c -1.53,2.10 -1.53,2.10 -1.53,2.10 -0.05,0.07 -0.04,0.16 0.03,0.20 2.61,1.91 2.61,1.91 2.61,1.91 0.06,0.05 0.15,0.03 0.20,-0.04 1.32,-1.81 1.32,-1.81 1.32,-1.81 2.54,1.85 2.54,1.85 2.54,1.85 0.06,0.05 0.15,0.03 0.20,-0.04 1.53,-2.10 1.53,-2.10 1.53,-2.10 0.05,-0.07 0.04,-0.16 -0.03,-0.20 -2.61,-1.91 -2.61,-1.91 -2.61,-1.91 -0.06,-0.05 -0.15,-0.03 -0.20,0.04 -1.32,1.81 -1.32,1.81 -1.32,1.81 -2.54,-1.85 -2.54,-1.85 -2.54,-1.85 -0.06,-0.05 -0.15,-0.03 -0.20,0.04 z M 266.81,35.78 c -1.32,1.81 -1.32,1.81 -1.32,1.81 -2.54,-1.85 -2.54,-1.85 -2.54,-1.85 -0.06,-0.05 -0.15,-0.03 -0.20,0.04 -1.53,2.10 -1.53,2.10 -1.53,2.10 -0.05,0.07 -0.04,0.16 0.03,0.21 2.61,1.91 2.61,1.91 2.61,1.91 0.06,0.05 0.15,0.03 0.20,-0.04 1.32,-1.81 1.32,-1.81 1.32,-1.81 2.54,1.85 2.54,1.85 2.54,1.85 0.06,0.05 0.15,0.03 0.20,-0.04 1.53,-2.10 1.53,-2.10 1.53,-2.10 0.05,-0.07 0.04,-0.16 -0.03,-0.20 -2.61,-1.91 -2.61,-1.91 -2.61,-1.91 -0.06,-0.05 -0.15,-0.03 -0.20,0.04 z M 255.73,43.47 c 0.21,-0.42 0.26,-0.50 0.38,-0.80 0.13,-0.32 0.25,-0.65 -0.60,-0.22 -0.55,0.28 -7.72,3.08 -8.29,3.40 -0.57,0.32 -0.77,0.40 -0.88,0.81 -0.11,0.41 -0.17,0.66 -0.20,0.72 -0.12,0.28 -0.21,0.62 0.63,0.14 0.26,-0.15 7.54,-3.00 8.00,-3.27 0.47,-0.27 0.75,-0.36 0.96,-0.79 z M 254.16,41.13 c 0.47,-0.27 0.75,-0.36 0.96,-0.79 0.21,-0.42 0.26,-0.50 0.38,-0.80 0.12,-0.32 0.25,-0.65 -0.60,-0.22 -0.55,0.28 -7.72,3.08 -8.29,3.40 -0.57,0.32 -0.77,0.39 -0.88,0.81 -0.11,0.42 -0.17,0.66 -0.20,0.72 -0.12,0.28 -0.21,0.62 0.63,0.14 0.26,-0.15 7.53,-3.00 8.00,-3.27 z M 269.87,23.74 c 0.26,-0.15 7.92,-3.15 8.39,-3.42 0.47,-0.27 0.75,-0.36 0.96,-0.79 0.21,-0.43 0.26,-0.50 0.38,-0.80 0.13,-0.32 0.25,-0.65 -0.60,-0.22 -0.55,0.28 -8.10,3.23 -8.67,3.55 -0.57,0.32 -0.77,0.40 -0.88,0.81 -0.11,0.41 -0.17,0.66 -0.20,0.72 -0.12,0.28 -0.21,0.62 0.63,0.14 z M 251.27,9.59 c 0.48,0.00 1.11,-0.35 1.55,-1.87 0.08,-0.34 0.13,-0.62 0.16,-0.75 0.05,-0.21 -0.10,-0.45 -0.26,0.02 -0.35,0.93 -1.27,1.58 -1.96,0.33 -0.11,-0.25 -0.58,-1.38 0.28,-3.85 0.17,-0.48 0.39,-1.20 0.39,-1.20 0.19,-0.54 -0.04,-0.84 -0.31,-0.17 -0.27,0.66 -1.40,2.94 -1.23,5.63 0.04,0.62 0.45,1.83 1.39,1.86 z M 288.19,41.41 c 0.05,-0.24 -0.16,-0.51 -0.33,0.04 -0.39,1.10 -1.51,1.92 -2.46,0.53 -0.16,-0.28 -0.82,-1.55 0.10,-4.47 0.19,-0.57 0.41,-1.41 0.41,-1.41 0.21,-0.64 -0.10,-0.96 -0.40,-0.18 -0.30,0.78 -1.59,3.50 -1.19,6.59 0.09,0.72 0.69,2.08 1.88,2.05 0.61,-0.04 1.38,-0.49 1.85,-2.27 0.08,-0.40 0.12,-0.72 0.15,-0.88 z M 290.16,8.69 c 0.54,0.01 1.24,-0.32 1.78,-1.84 0.10,-0.34 0.16,-0.62 0.20,-0.76 0.06,-0.21 -0.10,-0.46 -0.29,0.01 -0.42,0.93 -1.46,1.56 -2.19,0.27 -0.12,-0.25 -0.60,-1.42 0.42,-3.89 0.21,-0.48 0.47,-1.20 0.47,-1.20 0.23,-0.54 -0.02,-0.85 -0.34,-0.19 -0.32,0.66 -1.65,2.93 -1.54,5.66 0.03,0.63 0.45,1.87 1.48,1.93 z M 240.60,20.73 c 0.76,0.03 1.78,-0.56 2.60,-3.29 0.15,-0.62 0.25,-1.11 0.31,-1.36 0.09,-0.37 -0.13,-0.82 -0.41,0.02 -0.64,1.67 -2.14,2.78 -3.12,0.47 -0.16,-0.46 -0.80,-2.54 0.75,-6.97 0.31,-0.86 0.71,-2.14 0.71,-2.14 0.35,-0.97 0.01,-1.52 -0.47,-0.34 -0.48,1.18 -2.45,5.24 -2.40,10.13 0.01,1.13 0.56,3.36 2.03,3.48 z M 232.85,32.67 c -0.13,-0.39 -0.67,-2.16 0.64,-5.92 0.26,-0.73 0.60,-1.82 0.60,-1.82 0.29,-0.82 0.01,-1.29 -0.40,-0.29 -0.41,1.00 -2.08,4.45 -2.04,8.60 0.01,0.96 0.48,2.85 1.73,2.96 0.65,0.03 1.51,-0.47 2.21,-2.79 0.13,-0.53 0.21,-0.95 0.26,-1.15 0.08,-0.31 -0.11,-0.70 -0.35,0.02 -0.54,1.41 -1.81,2.36 -2.65,0.39 z M 330.74,7.74 c 0.17,0.10 0.36,0.11 0.41,-0.10 0.05,-0.21 0.29,-0.68 0.62,-0.34 0.28,0.28 2.09,1.78 3.03,4.95 0.16,0.42 0.55,0.46 0.64,-0.14 0.22,-1.47 0.33,-4.02 0.45,-4.79 0.17,-1.09 0.68,-3.33 2.06,-2.16 0.31,0.26 0.64,0.61 0.64,0.61 0.29,0.37 0.66,0.79 0.84,0.36 0.27,-0.64 0.49,-1.70 0.19,-2.28 -0.13,-0.26 -1.83,-2.41 -3.00,-0.93 -1.44,1.83 -1.53,4.23 -1.72,6.91 -0.20,-0.56 -1.35,-4.15 -5.02,-6.21 -0.27,-0.15 -0.81,0.13 -0.86,0.98 -0.03,0.49 -0.17,1.69 0.18,2.03 0.35,0.34 1.37,1.01 1.54,1.10 z M 356.92,25.61 c -0.25,-0.28 -0.37,-0.01 -0.46,0.31 -0.09,0.32 -0.36,1.52 -0.54,2.27 0.00,0.00 0.71,1.16 0.97,1.75 0.25,0.59 -0.12,0.92 -0.86,1.01 -2.08,0.25 -3.73,-0.94 -4.30,-1.48 -0.57,-0.55 0.05,-1.52 0.51,-2.68 0.37,-0.93 -0.32,-1.04 -0.84,0.00 -1.76,4.63 -4.23,5.12 -4.88,5.30 -5.86,1.60 -5.36,-3.76 -5.33,-4.64 0.02,-0.88 -0.62,-0.55 -1.34,0.03 -2.47,1.98 -4.45,3.14 -5.52,3.62 -0.92,-1.80 -2.26,-2.93 -2.82,-3.34 -6.34,-4.63 -6.87,4.71 -6.67,5.71 0.96,3.97 7.44,1.56 8.46,1.44 1.02,-0.12 0.68,1.22 0.11,2.02 -1.41,1.97 -3.03,3.38 -4.50,4.58 -6.28,5.13 -9.43,4.72 -10.41,4.69 -6.17,-0.17 -5.60,-6.82 -5.26,-8.24 1.86,-1.57 3.45,-3.28 4.38,-5.04 0.38,-0.96 1.03,-3.16 -0.15,-5.91 -0.62,-1.21 -2.56,-4.60 -2.56,-4.60 0.00,0.00 1.43,0.04 1.57,0.04 0.14,0.00 0.41,-0.14 0.06,-0.54 -0.35,-0.40 -3.36,-3.40 -3.54,-3.65 -0.18,-0.24 -0.35,-0.42 -0.45,-0.06 -0.10,0.36 -0.36,1.88 -0.42,2.20 -0.06,0.31 -0.06,0.63 0.10,0.90 0.15,0.27 0.55,1.20 0.84,1.96 0.29,0.76 3.26,6.47 3.53,6.98 0.27,0.51 0.33,0.88 0.06,1.22 -9.53,10.05 -27.91,16.23 -28.50,16.57 -0.59,0.34 -0.43,0.61 0.56,0.43 1.48,-0.26 9.74,-1.64 12.09,-2.77 1.55,-0.75 6.97,-3.41 11.41,-6.89 -0.12,0.90 -0.24,2.22 -0.18,3.89 0.30,8.08 7.53,6.74 9.43,6.33 5.68,-1.25 12.64,-9.11 13.23,-10.69 0.58,-1.56 0.67,-2.98 0.54,-4.22 1.50,-0.81 4.71,-3.40 4.71,-3.40 0.13,3.45 2.87,4.48 3.72,4.63 3.96,0.60 5.94,-2.71 6.78,-3.78 0.72,1.89 2.45,2.25 3.34,2.43 3.41,0.68 4.08,-1.74 4.25,-2.29 1.07,-3.33 -0.86,-5.81 -1.11,-6.08 z M 328.28,32.28 c -2.03,-0.14 -1.85,-0.92 -1.57,-1.22 0.30,-0.33 2.78,-1.89 4.85,0.89 0.00,0.00 -0.86,0.50 -3.28,0.33 z M 297.81,24.62 c 0.00,0.00 1.25,-0.31 1.47,-0.38 0.22,-0.06 0.34,-0.35 -0.05,-0.55 -0.39,-0.20 -4.09,-1.67 -4.37,-1.79 -0.28,-0.11 -0.38,-0.24 -0.41,0.06 -0.02,0.30 -0.07,2.73 -0.07,2.73 0.00,0.00 -0.06,0.17 0.27,0.35 0.32,0.18 0.64,0.58 0.90,0.84 0.26,0.26 3.70,2.98 3.87,3.07 0.00,0.00 -1.72,3.02 -1.94,5.38 -0.22,2.36 0.04,5.63 3.27,4.57 0.87,-0.25 4.49,-1.69 5.30,-4.21 0.26,-0.93 1.01,-2.61 -0.21,-4.31 -0.70,-1.00 -3.53,-2.69 -3.53,-2.69 0.00,0.00 2.17,-3.00 2.38,-3.37 0.21,-0.37 1.00,-2.69 1.09,-3.26 0.09,-0.56 0.13,-0.84 -0.29,-0.32 -0.42,0.52 -4.63,6.05 -4.63,6.05 z M 304.77,33.50 c -1.20,0.99 -3.72,2.29 -4.43,2.36 -0.71,0.07 -2.59,-0.28 -1.77,-2.20 0.28,-0.62 2.16,-3.84 2.16,-3.84 0.70,0.39 5.24,2.70 4.04,3.69 z M 298.44,14.87 c -0.06,-0.05 -0.15,-0.03 -0.20,0.04 -1.53,2.10 -1.53,2.10 -1.53,2.10 -0.05,0.07 -0.04,0.16 0.03,0.21 2.61,1.91 2.61,1.91 2.61,1.91 0.06,0.05 0.15,0.03 0.20,-0.04 1.32,-1.81 1.32,-1.81 1.32,-1.81 2.54,1.85 2.54,1.85 2.54,1.85 0.06,0.05 0.15,0.03 0.20,-0.04 1.53,-2.10 1.53,-2.10 1.53,-2.10 0.05,-0.07 0.04,-0.16 -0.03,-0.21 -2.61,-1.91 -2.61,-1.91 -2.61,-1.91 -0.06,-0.05 -0.15,-0.03 -0.20,0.04 -1.32,1.81 -1.32,1.81 -1.32,1.81 z M 307.54,13.01 c 0.25,-0.16 13.84,-8.02 14.32,-8.31 0.46,-0.29 0.72,-0.41 0.91,-0.85 0.18,-0.44 0.23,-0.52 0.33,-0.82 0.10,-0.32 0.21,-0.67 -0.61,-0.19 -0.53,0.31 -14.04,8.11 -14.59,8.46 -0.55,0.35 -0.74,0.44 -0.83,0.87 -0.09,0.42 -0.13,0.67 -0.16,0.73 -0.10,0.28 -0.17,0.63 0.64,0.10 z M 325.23,20.99 c 0.48,0.00 1.11,-0.35 1.55,-1.87 0.08,-0.34 0.13,-0.62 0.16,-0.75 0.05,-0.21 -0.10,-0.45 -0.26,0.02 -0.35,0.93 -1.28,1.58 -1.96,0.33 -0.11,-0.25 -0.58,-1.38 0.28,-3.86 0.17,-0.48 0.39,-1.20 0.39,-1.20 0.19,-0.54 -0.04,-0.84 -0.31,-0.17 -0.27,0.66 -1.40,2.94 -1.23,5.64 0.04,0.62 0.45,1.83 1.39,1.86 z M 351.34,15.01 c 0.18,-0.50 -0.04,-0.77 -0.29,-0.16 -0.25,0.61 -1.30,2.73 -1.14,5.22 0.04,0.58 0.42,1.70 1.29,1.73 0.45,0.00 1.03,-0.33 1.44,-1.74 0.07,-0.32 0.12,-0.57 0.15,-0.70 0.04,-0.19 -0.10,-0.42 -0.24,0.02 -0.33,0.86 -1.18,1.47 -1.82,0.31 -0.10,-0.23 -0.54,-1.28 0.26,-3.57 0.16,-0.44 0.36,-1.11 0.36,-1.11 z M 348.58,7.08 c 0.79,0.58 1.94,1.04 1.94,1.04 -3.66,4.49 -10.84,7.68 -12.56,9.01 -0.51,0.39 -0.44,0.61 -0.12,0.53 0.28,-0.08 5.76,-1.61 10.76,-5.90 2.29,-1.97 2.23,-2.11 2.81,-3.31 0.50,0.26 0.84,0.67 1.03,0.91 0.28,0.34 0.43,0.60 0.56,0.23 0.48,-1.33 -0.20,-2.13 -0.84,-2.54 0.00,0.00 0.67,-2.07 -0.56,-4.14 -0.21,-0.35 -1.43,-1.46 -2.85,0.74 -0.55,0.84 -0.96,2.85 -0.18,3.42 z M 349.31,5.05 c 0.73,-1.02 1.08,-0.98 1.36,-0.82 0.83,0.77 0.70,2.02 0.67,2.31 0.00,0.00 -1.05,-0.49 -1.52,-0.70 -0.47,-0.20 -0.72,-0.50 -0.50,-0.80 z M 297.34,6.33 c 0.79,0.58 1.94,1.04 1.94,1.04 -3.66,4.49 -6.16,5.34 -8.30,6.60 -0.55,0.32 -0.44,0.61 -0.12,0.53 0.17,-0.04 3.05,-0.49 6.41,-3.05 1.82,-1.38 2.92,-3.74 2.92,-3.74 0.00,0.00 0.91,0.76 1.03,0.91 0.28,0.34 0.43,0.60 0.56,0.23 0.48,-1.33 -0.20,-2.13 -0.84,-2.54 0.00,0.00 0.67,-2.07 -0.56,-4.14 -0.21,-0.35 -1.43,-1.46 -2.85,0.74 -0.55,0.84 -0.96,2.85 -0.18,3.42 z M 298.07,4.30 c 0.73,-1.02 1.08,-0.99 1.36,-0.82 0.83,0.77 0.70,2.02 0.67,2.31 0.00,0.00 -1.05,-0.49 -1.52,-0.69 -0.47,-0.20 -0.72,-0.50 -0.50,-0.80 z M 353.71,37.92 c -0.24,0.68 -0.34,1.12 -0.32,1.38 0.03,0.26 0.12,1.10 0.12,1.10 -0.25,0.20 -1.33,0.87 -2.40,0.08 0.07,-0.23 0.21,-0.70 0.24,-0.95 0.12,-0.40 -0.13,-0.69 -0.32,-0.28 -0.20,0.41 -0.65,1.79 -0.99,2.10 -0.34,0.31 -0.73,1.45 -3.30,0.29 -0.45,-0.17 -1.23,-0.75 -2.46,0.48 -2.77,2.57 -4.68,2.78 -7.79,3.88 -0.38,0.17 -1.16,0.77 -0.23,0.67 0.94,-0.09 4.87,0.00 7.01,-2.46 0.45,-0.43 0.96,-1.58 2.66,-0.92 0.94,0.36 2.68,1.85 4.58,-1.10 1.12,0.75 2.82,0.45 3.09,-0.38 0.27,-0.82 0.58,-1.64 0.58,-2.20 0.00,-0.56 -0.05,-1.30 -0.05,-1.30 -0.04,-0.44 -0.19,-1.07 -0.44,-0.40 z M 226.31,8.68 c 0.18,0.08 0.36,0.08 0.39,-0.13 0.03,-0.21 0.22,-0.70 0.58,-0.39 0.26,0.22 2.32,1.76 3.11,4.03 0.66,1.98 -3.96,6.45 -4.20,6.66 -0.44,0.37 -0.27,0.57 -0.06,0.44 0.21,-0.13 0.42,-0.19 2.82,-2.07 1.94,-1.52 2.23,-3.13 2.31,-4.34 0.02,-0.06 0.03,-0.13 0.03,-0.21 0.09,-1.48 0.00,-4.03 0.05,-4.81 0.07,-1.10 0.39,-3.37 1.84,-2.32 0.33,0.24 0.68,0.56 0.68,0.56 0.32,0.34 0.71,0.73 0.85,0.29 0.21,-0.66 0.34,-1.74 0.00,-2.29 -0.15,-0.24 -2.00,-2.25 -3.02,-0.69 -1.26,1.94 -1.15,4.34 -1.12,7.03 -0.25,-0.54 -1.67,-4.03 -5.45,-5.78 -0.27,-0.13 -0.78,0.20 -0.76,1.05 0.01,0.49 -0.03,1.70 0.34,2.01 0.37,0.31 1.43,0.89 1.61,0.97 z M 269.96,14.19 c 0.16,-0.02 2.85,-0.61 6.24,-2.46 2.86,-1.56 5.85,-5.24 5.85,-5.24 0.00,0.00 0.73,0.80 0.82,0.96 0.21,0.34 0.31,0.59 0.47,0.28 0.60,-1.14 0.09,-1.95 -0.44,-2.41 0.00,0.00 0.87,-1.79 0.01,-3.83 -0.14,-0.34 -1.11,-1.50 -2.68,0.31 -0.61,0.69 -1.23,2.46 -0.59,3.08 0.64,0.62 1.62,1.19 1.62,1.19 -3.88,3.60 -9.04,6.79 -11.14,7.65 -0.54,0.22 -0.48,0.50 -0.17,0.46 z M 280.92,3.93 c -0.40,-0.24 -0.59,-0.54 -0.35,-0.79 0.79,-0.83 1.11,-0.76 1.34,-0.57 0.65,0.80 0.38,1.92 0.31,2.18 0.00,0.00 -0.89,-0.58 -1.29,-0.82 z M 285.57,33.96 c 2.28,-0.48 4.71,-1.15 5.34,-4.00 0.50,-2.26 0.14,-3.96 0.14,-3.96 -0.38,-2.38 -2.92,-8.43 -6.91,-6.68 -3.07,1.28 -3.61,5.29 -2.65,6.55 0.58,0.76 1.19,1.75 5.21,1.45 3.05,-0.05 3.40,1.53 2.92,1.91 -0.65,0.50 -5.99,3.53 -9.78,0.96 -0.27,-0.66 -0.56,-1.31 -0.85,-1.86 -0.22,-0.52 -0.22,-0.30 -0.41,0.07 -0.19,0.37 -0.47,2.00 -0.47,2.00 0.00,0.00 1.42,3.49 1.66,4.37 0.24,0.88 0.81,1.93 -1.07,3.42 -1.88,1.48 -9.11,6.83 -25.81,10.86 -0.82,0.23 -1.19,0.92 -0.08,0.86 1.10,-0.06 10.30,-0.98 10.30,-0.98 10.67,-3.11 15.91,-8.26 15.91,-8.26 0.34,-0.34 2.10,-1.64 2.15,-6.01 0.00,-0.09 -0.02,-0.23 -0.05,-0.41 1.01,0.04 2.87,0.05 4.45,-0.28 z M 285.04,24.28 c -1.72,-0.04 -2.53,-0.86 -1.67,-1.56 0.86,-0.70 2.64,-0.64 3.61,0.53 0.30,0.36 0.61,0.79 0.91,1.23 -0.88,-0.18 -1.82,-0.17 -2.85,-0.20 z M 246.19,32.79 c 1.38,0.21 4.29,0.06 5.77,-2.22 0.14,-0.20 0.24,-0.36 0.24,-0.36 0.00,0.00 0.82,1.92 2.49,2.52 0.49,0.17 2.17,0.52 3.52,-0.95 0.49,-0.54 1.19,-1.98 1.30,-2.29 0.00,0.00 0.90,2.07 3.78,2.42 0.57,0.07 2.46,0.15 3.62,-0.99 0.33,-0.36 1.88,-3.10 0.78,-6.82 -0.35,-0.97 -2.07,-5.96 -2.07,-5.96 0.00,0.00 1.26,0.70 1.48,0.81 0.22,0.11 0.44,-0.19 0.05,-0.81 -0.39,-0.62 -2.83,-4.00 -3.08,-4.33 -0.25,-0.33 -0.36,-0.34 -0.56,0.17 -0.20,0.51 -0.69,2.06 -0.14,3.61 0.54,1.56 2.49,7.35 2.85,8.33 0.36,0.98 0.89,2.15 0.26,2.48 -0.62,0.33 -4.48,1.43 -6.04,-2.10 0.08,-0.30 0.16,-0.58 0.21,-0.78 0.05,-0.20 -0.18,-0.63 -0.42,-0.24 -0.24,0.39 -1.15,2.66 -1.66,3.31 -0.51,0.65 -1.32,1.46 -3.13,1.07 -0.40,-0.09 -1.56,-0.79 -1.75,-2.13 0.13,-0.29 0.44,-1.04 0.50,-1.25 0.07,-0.21 0.05,-0.85 -0.45,-0.32 -0.48,0.51 -3.42,6.11 -8.61,3.06 -0.37,-0.85 -0.76,-1.57 -1.08,-2.11 -0.17,-0.38 -0.41,-0.57 -0.57,-0.29 -0.15,0.28 -0.63,2.43 -0.63,2.43 0.76,1.59 0.61,1.33 0.76,1.59 0.15,0.26 1.33,2.77 1.47,3.33 0.14,0.57 0.32,1.36 -0.03,1.78 -0.35,0.41 -7.27,7.43 -16.18,7.56 -1.45,-0.13 -7.56,-0.53 -8.32,-6.14 -0.20,-1.12 0.10,-4.06 0.76,-5.68 0.04,-0.11 0.08,-0.21 0.11,-0.30 0.03,0.00 0.05,0.01 0.08,0.01 0.76,0.03 1.78,-0.56 2.60,-3.29 0.15,-0.62 0.25,-1.11 0.31,-1.36 0.09,-0.37 -0.13,-0.82 -0.41,0.02 -0.63,1.67 -2.14,2.78 -3.12,0.47 -0.16,-0.46 -0.80,-2.54 0.75,-6.97 0.31,-0.86 0.71,-2.14 0.71,-2.14 0.35,-0.97 0.01,-1.52 -0.47,-0.34 -0.48,1.18 -2.45,5.24 -2.40,10.13 0.01,0.92 0.38,2.57 1.31,3.22 -0.05,0.10 -0.09,0.20 -0.13,0.32 -0.46,1.32 -3.70,9.74 2.31,13.83 1.22,0.73 6.44,3.30 14.52,-1.02 2.15,-1.15 7.79,-4.65 8.32,-6.43 0.53,-1.72 0.59,-3.35 0.39,-4.83 z" />
     </g>
</svg>
