<?xml version="1.0" encoding="UTF-8"?>
<svg version="1.1" id="Layer_1" x="0px" y="0px" width="578" height="53" viewBox="0 0 578 53"
xml:space="preserve" xmlns="http://www.w3.org/2000/svg" xmlns:svg="http://www.w3.org/2000/svg" xmlns:rdf="http://www.w3.org/1999/02/22-rdf-syntax-ns#"  xmlns:cc="http://creativecommons.org/ns#" xmlns:dc="http://purl.org/dc/elements/1.1/">
     <g>
<path d="M 216.41,22.25 c -1.92,2.63 -1.92,2.63 -1.92,2.63 -0.06,0.08 -0.05,0.20 0.03,0.25 3.27,2.38 3.27,2.38 3.27,2.38 0.08,0.06 0.19,0.04 0.25,-0.05 1.91,-2.63 1.91,-2.63 1.91,-2.63 0.06,-0.08 0.05,-0.20 -0.03,-0.25 -3.27,-2.38 -3.27,-2.38 -3.27,-2.38 -0.08,-0.06 -0.19,-0.04 -0.25,0.05 z M 304.85,34.87 c 0.39,3.09 0.69,5.88 0.73,7.37 -0.04,0.46 0.17,0.64 0.38,0.19 0.11,-0.24 0.59,-1.22 0.73,-3.80 0.11,-1.94 -0.04,-4.91 -0.60,-9.01 -0.08,-0.60 -2.95,-21.37 -2.95,-21.37 0.00,0.00 1.55,1.46 1.80,1.72 0.25,0.26 0.55,0.12 0.41,-0.30 -0.14,-0.42 -3.32,-8.09 -3.42,-8.36 -0.10,-0.27 -0.20,-0.46 -0.33,-0.15 -0.13,0.31 -1.08,2.64 -1.08,2.64 0.02,0.14 0.28,1.16 0.33,1.54 0.44,3.37 3.20,23.25 3.99,29.54 z M 235.66,19.43 c 0.18,-0.05 3.30,-1.20 7.05,-3.98 3.15,-2.34 6.11,-7.23 6.11,-7.23 0.00,0.00 1.01,0.84 1.14,1.01 0.30,0.38 0.47,0.66 0.61,0.26 0.53,-1.46 -0.22,-2.35 -0.93,-2.80 0.00,0.00 0.74,-2.28 -0.62,-4.57 -0.23,-0.38 -1.58,-1.61 -3.15,0.82 -0.61,0.92 -1.06,3.15 -0.19,3.78 0.87,0.64 2.14,1.15 2.14,1.15 -4.04,4.95 -9.67,9.61 -12.03,11.00 -0.61,0.36 -0.49,0.68 -0.13,0.58 z M 247.05,5.34 c -0.52,-0.22 -0.79,-0.55 -0.55,-0.88 0.80,-1.13 1.20,-1.09 1.50,-0.91 0.91,0.85 0.77,2.24 0.74,2.55 0.00,0.00 -1.16,-0.54 -1.68,-0.77 z M 218.09,42.55 c -0.61,0.28 -9.68,4.72 -10.29,5.02 -0.59,0.28 -0.74,0.44 -0.83,0.87 -0.09,0.42 -0.13,0.67 -0.16,0.73 -0.10,0.28 -0.17,0.53 0.64,0.10 0.27,-0.14 9.53,-4.61 10.02,-4.87 0.48,-0.25 0.72,-0.41 0.91,-0.85 0.18,-0.44 0.23,-0.52 0.33,-0.82 0.10,-0.32 0.25,-0.58 -0.61,-0.19 z M 271.96,27.37 c 0.26,-0.15 15.77,-6.81 16.24,-7.08 0.47,-0.27 0.75,-0.36 0.96,-0.79 0.21,-0.42 0.26,-0.50 0.38,-0.80 0.12,-0.32 0.25,-0.65 -0.60,-0.23 -0.55,0.28 -15.95,6.89 -16.52,7.21 -0.57,0.32 -0.77,0.40 -0.88,0.81 -0.11,0.42 -0.17,0.66 -0.20,0.72 -0.12,0.28 -0.21,0.62 0.63,0.15 z M 293.15,45.10 c -0.31,0.83 -1.13,1.41 -1.74,0.30 -0.10,-0.22 -0.51,-1.22 0.24,-3.42 0.15,-0.43 0.35,-1.06 0.35,-1.06 0.17,-0.48 -0.03,-0.74 -0.28,-0.16 -0.24,0.59 -1.25,2.61 -1.09,5.00 0.04,0.55 0.40,1.63 1.23,1.66 0.43,0.00 0.98,-0.31 1.38,-1.66 0.07,-0.31 0.11,-0.55 0.14,-0.67 0.04,-0.18 -0.09,-0.40 -0.23,0.02 z M 274.22,9.18 c 0.43,0.00 0.98,-0.31 1.38,-1.66 0.07,-0.31 0.11,-0.55 0.14,-0.67 0.04,-0.18 -0.09,-0.40 -0.23,0.02 -0.31,0.83 -1.13,1.41 -1.74,0.30 -0.10,-0.22 -0.51,-1.22 0.24,-3.42 0.15,-0.43 0.35,-1.06 0.35,-1.06 0.17,-0.48 -0.03,-0.74 -0.28,-0.16 -0.24,0.59 -1.25,2.61 -1.09,5.00 0.04,0.55 0.40,1.63 1.23,1.66 z M 275.32,19.96 c 0.47,0.06 1.12,-0.21 1.73,-1.62 0.12,-0.32 0.20,-0.58 0.24,-0.71 0.07,-0.19 -0.05,-0.45 -0.26,-0.01 -0.46,0.86 -1.42,1.38 -1.94,0.09 -0.08,-0.25 -0.39,-1.41 0.74,-3.70 0.22,-0.44 0.52,-1.11 0.52,-1.11 0.25,-0.50 0.07,-0.81 -0.28,-0.21 -0.34,0.61 -1.71,2.68 -1.87,5.30 -0.04,0.61 0.21,1.83 1.12,1.97 z M 283.16,26.69 c 0.17,-0.54 -0.09,-0.81 -0.34,-0.15 -0.25,0.66 -1.34,2.95 -1.00,5.56 0.08,0.60 0.58,1.76 1.59,1.73 0.52,-0.03 1.17,-0.41 1.56,-1.92 0.06,-0.34 0.10,-0.61 0.13,-0.74 0.04,-0.20 -0.14,-0.43 -0.28,0.04 -0.33,0.93 -1.27,1.62 -2.08,0.44 -0.13,-0.24 -0.69,-1.31 0.08,-3.77 0.16,-0.48 0.35,-1.19 0.35,-1.19 z M 231.42,13.01 c 0.61,-0.04 1.38,-0.54 1.83,-2.59 0.07,-0.46 0.11,-0.83 0.14,-1.01 0.05,-0.27 -0.17,-0.59 -0.33,0.05 -0.38,1.26 -1.50,2.18 -2.46,0.58 -0.16,-0.32 -0.83,-1.78 0.06,-5.12 0.18,-0.65 0.40,-1.61 0.40,-1.61 0.20,-0.73 -0.11,-1.10 -0.41,-0.21 -0.29,0.89 -1.56,3.99 -1.14,7.53 0.10,0.82 0.71,2.39 1.90,2.36 z M 260.20,13.01 c 0.61,-0.04 1.38,-0.54 1.83,-2.59 0.07,-0.46 0.11,-0.83 0.14,-1.01 0.05,-0.27 -0.17,-0.59 -0.33,0.05 -0.38,1.26 -1.50,2.18 -2.46,0.58 -0.16,-0.32 -0.83,-1.78 0.06,-5.12 0.18,-0.65 0.40,-1.61 0.40,-1.61 0.20,-0.73 -0.11,-1.10 -0.41,-0.21 -0.29,0.89 -1.56,3.99 -1.14,7.53 0.10,0.82 0.71,2.39 1.90,2.36 z M 265.41,42.99 c -0.38,1.26 -1.50,2.18 -2.46,0.58 -0.16,-0.32 -0.83,-1.78 0.06,-5.12 0.18,-0.65 0.40,-1.61 0.40,-1.61 0.20,-0.73 -0.11,-1.10 -0.41,-0.21 -0.29,0.89 -1.56,3.99 -1.14,7.54 0.10,0.82 0.71,2.39 1.90,2.36 0.61,-0.04 1.38,-0.54 1.83,-2.59 0.07,-0.46 0.11,-0.83 0.14,-1.01 0.04,-0.27 -0.17,-0.59 -0.33,0.05 z M 283.70,12.88 c 0.61,-0.04 1.38,-0.54 1.83,-2.59 0.07,-0.46 0.11,-0.83 0.14,-1.01 0.05,-0.28 -0.17,-0.59 -0.33,0.05 -0.38,1.26 -1.50,2.18 -2.46,0.58 -0.16,-0.32 -0.83,-1.78 0.06,-5.12 0.18,-0.65 0.40,-1.61 0.40,-1.61 0.20,-0.73 -0.11,-1.10 -0.41,-0.21 -0.29,0.89 -1.56,3.99 -1.14,7.53 0.10,0.82 0.71,2.39 1.90,2.37 z M 346.54,7.03 c 0.17,0.09 0.36,0.11 0.41,-0.10 0.05,-0.21 0.29,-0.68 0.62,-0.34 0.28,0.28 2.09,1.78 3.03,4.95 0.16,0.42 0.55,0.46 0.64,-0.14 0.22,-1.47 0.34,-4.02 0.45,-4.79 0.16,-1.09 0.68,-3.32 2.06,-2.16 0.31,0.26 0.64,0.61 0.64,0.61 0.29,0.37 0.66,0.79 0.84,0.36 0.27,-0.64 0.49,-1.70 0.19,-2.28 -0.13,-0.25 -1.83,-2.41 -3.00,-0.93 -1.44,1.83 -1.53,4.23 -1.72,6.91 -0.20,-0.56 -1.35,-4.16 -5.02,-6.21 -0.27,-0.15 -0.81,0.13 -0.86,0.98 -0.03,0.49 -0.17,1.69 0.18,2.03 0.35,0.34 1.37,1.00 1.54,1.10 z M 367.15,14.30 c 0.18,-0.50 -0.04,-0.77 -0.29,-0.16 -0.25,0.61 -1.30,2.73 -1.14,5.22 0.04,0.58 0.42,1.70 1.29,1.73 0.45,0.00 1.03,-0.33 1.44,-1.73 0.07,-0.32 0.12,-0.57 0.15,-0.70 0.04,-0.19 -0.10,-0.42 -0.24,0.02 -0.33,0.86 -1.18,1.47 -1.82,0.31 -0.10,-0.23 -0.53,-1.28 0.26,-3.57 0.16,-0.44 0.36,-1.11 0.36,-1.11 z M 372.72,24.89 c -0.25,-0.28 -0.38,-0.01 -0.46,0.31 -0.09,0.32 -0.36,1.52 -0.53,2.27 0.00,0.00 0.71,1.16 0.97,1.75 0.25,0.59 -0.12,0.92 -0.86,1.01 -2.08,0.25 -3.73,-0.94 -4.30,-1.48 -0.57,-0.55 0.05,-1.52 0.51,-2.68 0.37,-0.93 -0.32,-1.04 -0.84,0.00 -1.76,4.63 -4.23,5.13 -4.88,5.30 -5.86,1.60 -5.36,-3.76 -5.34,-4.64 0.02,-0.88 -0.62,-0.55 -1.34,0.03 -2.47,1.98 -4.45,3.14 -5.52,3.62 -0.92,-1.80 -2.26,-2.93 -2.82,-3.34 -6.34,-4.63 -6.86,4.71 -6.67,5.71 0.97,3.97 7.44,1.56 8.46,1.44 1.01,-0.12 0.68,1.22 0.11,2.02 -1.41,1.97 -3.03,3.38 -4.50,4.57 -6.28,5.13 -9.43,4.72 -10.41,4.69 -6.17,-0.17 -5.60,-6.82 -5.26,-8.24 1.86,-1.57 3.45,-3.28 4.38,-5.04 0.38,-0.96 1.03,-3.16 -0.15,-5.91 -0.62,-1.21 -2.56,-4.61 -2.56,-4.61 0.00,0.00 1.43,0.04 1.57,0.04 0.14,0.00 0.41,-0.14 0.06,-0.55 -0.35,-0.40 -3.36,-3.41 -3.54,-3.65 -0.18,-0.24 -0.35,-0.41 -0.45,-0.06 -0.10,0.35 -0.36,1.88 -0.42,2.20 -0.06,0.31 -0.06,0.63 0.10,0.90 0.15,0.27 0.55,1.20 0.84,1.96 0.29,0.76 3.26,6.47 3.53,6.98 0.27,0.51 0.33,0.88 0.06,1.22 -9.53,10.05 -27.91,16.23 -28.50,16.57 -0.59,0.34 -0.43,0.61 0.56,0.43 1.48,-0.26 9.74,-1.64 12.09,-2.78 1.55,-0.75 6.97,-3.41 11.41,-6.89 -0.12,0.90 -0.24,2.22 -0.18,3.89 0.30,8.08 7.53,6.74 9.43,6.33 5.68,-1.25 12.64,-9.11 13.23,-10.69 0.58,-1.56 0.67,-2.98 0.54,-4.22 1.50,-0.81 4.71,-3.40 4.71,-3.40 0.13,3.45 2.88,4.48 3.72,4.63 3.96,0.60 5.94,-2.70 6.78,-3.78 0.72,1.89 2.45,2.26 3.34,2.43 3.41,0.68 4.08,-1.73 4.26,-2.29 1.07,-3.33 -0.86,-5.81 -1.11,-6.08 z M 344.09,31.57 c -2.02,-0.14 -1.85,-0.92 -1.57,-1.22 0.30,-0.33 2.78,-1.89 4.85,0.89 0.00,0.00 -0.86,0.50 -3.28,0.33 z M 341.03,20.27 c 0.48,0.00 1.11,-0.35 1.55,-1.87 0.08,-0.34 0.13,-0.62 0.16,-0.75 0.05,-0.21 -0.10,-0.45 -0.26,0.02 -0.35,0.93 -1.27,1.58 -1.96,0.33 -0.11,-0.25 -0.58,-1.38 0.28,-3.86 0.17,-0.48 0.39,-1.20 0.39,-1.20 0.19,-0.54 -0.04,-0.84 -0.31,-0.17 -0.27,0.66 -1.40,2.94 -1.23,5.63 0.04,0.62 0.45,1.83 1.39,1.87 z M 369.52,37.21 c -0.24,0.68 -0.34,1.12 -0.32,1.38 0.03,0.26 0.12,1.10 0.12,1.10 -0.25,0.20 -1.33,0.87 -2.40,0.08 0.07,-0.23 0.21,-0.70 0.24,-0.95 0.12,-0.40 -0.13,-0.69 -0.32,-0.28 -0.20,0.41 -0.65,1.79 -0.99,2.10 -0.34,0.31 -0.73,1.45 -3.30,0.29 -0.45,-0.17 -1.23,-0.75 -2.46,0.48 -2.77,2.57 -4.68,2.77 -7.79,3.88 -0.38,0.17 -1.16,0.77 -0.23,0.67 0.94,-0.09 4.87,0.00 7.01,-2.46 0.45,-0.43 0.96,-1.58 2.66,-0.92 0.94,0.36 2.68,1.85 4.58,-1.10 1.12,0.75 2.82,0.45 3.09,-0.38 0.27,-0.82 0.58,-1.64 0.58,-2.20 0.00,-0.56 -0.05,-1.30 -0.05,-1.30 -0.04,-0.44 -0.19,-1.07 -0.44,-0.40 z M 364.39,6.37 c 0.79,0.58 1.93,1.04 1.93,1.04 -3.66,4.49 -10.84,7.67 -12.55,9.01 -0.51,0.39 -0.44,0.61 -0.12,0.53 0.29,-0.08 5.76,-1.61 10.76,-5.90 2.29,-1.97 2.23,-2.11 2.81,-3.31 0.50,0.26 0.84,0.67 1.03,0.91 0.28,0.34 0.43,0.60 0.56,0.23 0.48,-1.33 -0.20,-2.13 -0.84,-2.54 0.00,0.00 0.67,-2.07 -0.56,-4.14 -0.21,-0.35 -1.43,-1.46 -2.85,0.74 -0.55,0.84 -0.96,2.85 -0.17,3.42 z M 365.11,4.34 c 0.73,-1.02 1.08,-0.99 1.36,-0.82 0.82,0.77 0.70,2.02 0.67,2.31 0.00,0.00 -1.05,-0.49 -1.52,-0.69 -0.47,-0.20 -0.72,-0.50 -0.50,-0.80 z M 323.34,12.30 c 0.25,-0.16 13.84,-8.02 14.32,-8.32 0.46,-0.28 0.72,-0.41 0.91,-0.85 0.18,-0.44 0.23,-0.51 0.33,-0.82 0.10,-0.32 0.21,-0.67 -0.61,-0.19 -0.53,0.31 -14.04,8.11 -14.59,8.46 -0.55,0.35 -0.74,0.44 -0.83,0.87 -0.09,0.42 -0.13,0.67 -0.16,0.73 -0.10,0.28 -0.17,0.63 0.64,0.11 z M 306.66,13.78 c 0.17,-0.04 3.05,-0.49 6.41,-3.05 1.82,-1.38 2.92,-3.74 2.92,-3.74 0.00,0.00 0.91,0.76 1.03,0.91 0.28,0.34 0.43,0.60 0.56,0.23 0.48,-1.33 -0.20,-2.13 -0.84,-2.54 0.00,0.00 0.67,-2.07 -0.56,-4.14 -0.21,-0.35 -1.43,-1.46 -2.85,0.74 -0.55,0.84 -0.96,2.85 -0.17,3.42 0.79,0.58 1.93,1.04 1.93,1.04 -3.66,4.48 -6.16,5.34 -8.30,6.59 -0.55,0.32 -0.44,0.61 -0.12,0.53 z M 314.38,4.39 c -0.47,-0.20 -0.72,-0.50 -0.50,-0.80 0.73,-1.02 1.08,-0.99 1.36,-0.82 0.83,0.77 0.70,2.02 0.67,2.31 0.00,0.00 -1.05,-0.49 -1.52,-0.69 z M 314.24,14.16 c -0.06,-0.05 -0.15,-0.03 -0.20,0.04 -1.53,2.10 -1.53,2.10 -1.53,2.10 -0.05,0.07 -0.04,0.16 0.03,0.20 2.61,1.91 2.61,1.91 2.61,1.91 0.06,0.05 0.15,0.03 0.20,-0.04 1.32,-1.81 1.32,-1.81 1.32,-1.81 2.54,1.85 2.54,1.85 2.54,1.85 0.06,0.05 0.15,0.03 0.20,-0.04 1.53,-2.10 1.53,-2.10 1.53,-2.10 0.05,-0.07 0.04,-0.16 -0.03,-0.20 -2.61,-1.91 -2.61,-1.91 -2.61,-1.91 -0.06,-0.05 -0.15,-0.03 -0.20,0.04 -1.32,1.81 -1.32,1.81 -1.32,1.81 z M 313.62,23.91 c 0.00,0.00 1.25,-0.31 1.47,-0.38 0.22,-0.06 0.34,-0.35 -0.05,-0.55 -0.39,-0.20 -4.09,-1.67 -4.37,-1.79 -0.28,-0.11 -0.38,-0.24 -0.41,0.06 -0.02,0.30 -0.07,2.73 -0.07,2.73 0.00,0.00 -0.06,0.17 0.27,0.35 0.32,0.18 0.64,0.58 0.90,0.84 0.26,0.26 3.70,2.98 3.87,3.07 0.00,0.00 -1.72,3.02 -1.94,5.38 -0.22,2.36 0.04,5.63 3.27,4.57 0.87,-0.25 4.49,-1.69 5.30,-4.21 0.26,-0.93 1.01,-2.61 -0.21,-4.31 -0.70,-1.00 -3.53,-2.69 -3.53,-2.69 0.00,0.00 2.17,-3.00 2.38,-3.37 0.21,-0.37 1.00,-2.69 1.09,-3.26 0.09,-0.56 0.13,-0.84 -0.29,-0.32 -0.42,0.52 -4.63,6.05 -4.63,6.05 z M 320.57,32.79 c -1.20,0.99 -3.72,2.29 -4.43,2.36 -0.71,0.07 -2.59,-0.28 -1.77,-2.20 0.28,-0.62 2.16,-3.84 2.16,-3.84 0.70,0.39 5.24,2.70 4.04,3.69 z M 211.93,8.76 c 0.16,0.08 0.32,0.08 0.36,-0.11 0.04,-0.19 0.22,-0.63 0.53,-0.33 0.23,0.21 2.04,1.65 2.69,3.71 0.54,1.80 -3.74,5.70 -3.97,5.88 -0.40,0.32 -0.26,0.51 -0.07,0.40 0.19,-0.11 0.38,-0.16 2.60,-1.79 1.79,-1.32 2.10,-2.75 2.20,-3.85 0.02,-0.05 0.03,-0.11 0.04,-0.19 0.12,-1.33 0.11,-3.63 0.17,-4.33 0.09,-0.98 0.45,-3.02 1.72,-2.04 0.29,0.22 0.60,0.52 0.60,0.52 0.28,0.32 0.62,0.68 0.76,0.29 0.21,-0.59 0.35,-1.56 0.06,-2.06 -0.13,-0.22 -1.74,-2.08 -2.70,-0.70 -1.19,1.71 -1.16,3.88 -1.20,6.30 -0.21,-0.49 -1.39,-3.67 -4.75,-5.35 -0.24,-0.12 -0.71,0.16 -0.72,0.92 0.00,0.45 -0.07,1.53 0.25,1.82 0.32,0.29 1.26,0.84 1.42,0.92 z M 254.30,47.33 c -0.10,-0.06 -0.27,-0.03 -0.38,-0.03 -0.16,0.00 -0.32,0.01 -0.47,0.01 -0.36,0.02 -0.73,0.05 -1.09,0.05 -0.72,0.00 -1.46,-0.09 -2.15,-0.32 -0.66,-0.22 -1.26,-0.67 -1.56,-1.31 -0.30,-0.63 -0.25,-1.39 0.03,-2.02 0.60,-1.33 2.03,-2.04 3.27,-2.65 0.15,-0.07 0.31,-0.11 0.37,-0.27 0.05,-0.15 0.09,-0.30 0.13,-0.46 0.12,-0.44 -0.48,-0.11 -0.63,-0.04 -0.54,0.28 -1.25,0.82 -1.89,0.66 -0.44,-0.11 -0.92,-0.44 -1.17,-0.82 -0.04,-0.07 -0.10,-0.14 -0.05,-0.22 0.07,-0.10 0.18,-0.17 0.28,-0.24 0.22,-0.14 0.46,-0.25 0.71,-0.34 0.47,-0.17 0.86,-0.23 1.34,-0.09 0.08,0.02 0.18,0.07 0.26,0.03 0.09,-0.04 0.13,-0.16 0.08,-0.24 -0.10,-0.18 -0.42,-0.31 -0.60,-0.39 -0.90,-0.38 -1.96,-0.07 -2.42,0.82 -0.20,0.39 -0.29,0.91 -0.11,1.32 0.21,0.49 0.67,0.77 1.12,1.00 -1.41,1.30 -2.17,4.20 -0.54,5.62 0.77,0.67 1.86,0.83 2.85,0.83 0.55,0.00 1.07,-0.18 1.59,-0.34 0.24,-0.07 0.48,-0.15 0.73,-0.19 0.13,-0.02 0.24,-0.05 0.33,-0.16 0.05,-0.06 0.09,-0.18 -0.01,-0.23 z M 295.30,33.83 c -0.29,-0.70 -0.56,-1.49 -0.74,-2.35 -0.40,-1.62 -1.70,-10.65 -1.88,-12.03 -0.18,-1.39 -1.25,-11.44 -1.25,-11.44 0.00,0.00 1.47,1.47 1.72,1.74 0.25,0.26 0.55,0.12 0.41,-0.30 -0.14,-0.42 -3.21,-7.87 -3.31,-8.14 -0.10,-0.27 -0.20,-0.46 -0.33,-0.15 -0.13,0.31 -1.15,2.55 -1.15,2.55 0.03,0.18 0.27,0.73 0.43,1.87 0.13,0.87 0.29,2.01 0.48,3.29 0.00,0.00 1.08,10.29 1.42,13.09 0.30,2.51 0.96,8.69 2.17,12.84 -2.42,1.17 -7.60,3.52 -11.28,4.01 -1.03,0.14 -8.06,1.57 -11.53,-4.88 -2.43,-4.53 -0.97,-23.10 -4.43,-31.91 -0.50,-0.99 -0.46,-0.33 -0.66,0.03 -0.20,0.36 -0.86,2.34 -0.86,2.34 4.45,14.22 -0.17,30.46 8.18,36.27 1.08,0.75 6.55,2.97 14.29,-0.03 2.13,-0.83 5.75,-2.41 6.62,-2.74 0.19,-0.07 0.45,-0.18 0.74,-0.31 0.79,1.62 2.20,3.85 4.88,4.40 1.15,0.23 1.77,-0.02 2.44,-1.29 0.26,-0.50 1.75,-3.91 0.46,-5.91 -0.28,-0.44 -2.36,-2.81 -6.83,-0.93 z M 300.50,38.80 c -0.71,-0.07 -2.38,-0.57 -3.30,-1.62 -0.07,-0.09 -0.22,-0.28 -0.40,-0.55 0.43,-0.12 0.85,-0.19 1.19,-0.17 0.52,0.04 1.82,-0.06 2.92,1.39 0.13,0.26 0.30,1.01 -0.40,0.94 z M 250.85,33.72 c 1.68,-0.79 12.24,-6.25 12.24,-6.25 0.00,0.00 0.60,-1.65 0.79,-2.38 0.19,-0.73 0.16,-1.08 -0.38,-0.82 -0.54,0.25 -8.69,4.85 -9.83,5.10 -1.14,0.25 -3.87,1.11 -7.83,-1.33 -0.60,-0.48 -3.39,-2.73 -4.12,-5.14 -0.29,-0.86 -0.13,-0.76 0.22,-1.11 0.35,-0.35 6.91,-5.48 14.15,-3.75 0.69,0.17 1.36,0.10 0.62,-0.51 -0.57,-0.46 -2.20,-1.23 -4.00,-1.54 -1.25,-0.22 -2.60,-0.24 -3.79,-0.10 -2.92,0.35 -6.34,2.06 -7.32,3.84 -0.48,1.01 -2.25,4.03 -0.63,6.85 0.67,1.11 2.57,4.38 6.09,5.71 0.00,0.00 -2.47,1.11 -4.22,1.73 -0.30,-0.61 -0.71,-1.24 -1.25,-1.88 -0.46,-0.59 -2.71,-3.76 -5.81,-1.68 -0.96,0.79 -2.74,3.80 -1.25,6.14 0.69,1.06 2.44,1.85 5.84,1.12 0.30,-0.06 0.88,-0.22 1.72,-0.48 0.14,0.23 0.24,0.38 0.27,0.45 0.18,0.33 0.24,0.64 -0.20,1.28 -0.44,0.64 -7.04,8.28 -12.85,8.95 -0.85,0.10 -4.41,0.34 -6.53,-3.20 -0.26,-0.43 -1.02,-3.79 0.36,-7.72 0.07,-0.18 0.10,-0.35 0.11,-0.49 1.26,-0.78 2.62,-1.71 4.06,-2.84 0.93,-0.73 5.50,-3.74 4.15,-8.47 -0.16,-0.66 -2.93,-6.73 -2.93,-6.73 0.63,0.24 1.03,0.35 1.25,0.44 0.22,0.09 0.59,-0.14 0.24,-0.60 -0.36,-0.45 -2.71,-3.20 -2.78,-3.38 -0.07,-0.18 -0.17,-0.32 -0.24,-0.56 -0.07,-0.24 -0.23,-0.19 -0.32,0.01 -0.09,0.21 -0.64,2.22 -0.67,2.41 -0.03,0.19 0.49,2.00 0.82,2.82 0.86,2.35 2.64,5.63 2.92,6.16 0.28,0.54 0.77,1.42 0.18,2.25 -0.59,0.84 -5.42,5.89 -13.65,8.22 -1.30,0.37 -6.75,1.67 -9.81,-2.42 -0.49,-0.65 -2.68,-3.81 -0.76,-9.88 0.07,0.01 0.13,0.02 0.20,0.02 0.70,-0.01 1.60,-0.61 2.22,-3.15 0.10,-0.58 0.17,-1.04 0.21,-1.26 0.07,-0.34 -0.16,-0.75 -0.38,0.04 -0.50,1.56 -1.82,2.66 -2.84,0.59 -0.17,-0.41 -0.86,-2.30 0.33,-6.44 0.24,-0.80 0.54,-2.00 0.54,-2.00 0.27,-0.91 -0.07,-1.40 -0.45,-0.29 -0.38,1.11 -1.98,4.94 -1.69,9.43 0.05,0.80 0.44,2.18 1.24,2.79 -0.98,2.58 -3.95,13.40 4.80,15.91 1.69,0.49 5.61,1.32 12.23,-2.41 -0.03,0.07 -0.05,0.15 -0.08,0.23 -0.73,2.21 -2.17,9.74 1.72,12.31 1.21,0.80 5.28,3.44 13.10,-2.38 1.26,-0.93 6.19,-4.57 6.77,-9.11 0.02,-0.17 0.09,-0.72 0.01,-1.50 1.83,-0.64 4.29,-1.62 7.22,-2.99 z M 236.12,34.47 c -0.36,-0.29 -0.47,-0.80 0.05,-1.12 0.51,-0.32 1.34,-0.60 2.13,-0.17 0.62,0.35 1.23,0.88 1.78,1.47 -1.54,0.19 -3.31,0.23 -3.96,-0.19 z" />
     </g>
</svg>
