<?xml version="1.0" encoding="UTF-8"?>
<svg version="1.1" id="Layer_1" x="0px" y="0px" width="578" height="53" viewBox="0 0 578 53"
xml:space="preserve" xmlns="http://www.w3.org/2000/svg" xmlns:svg="http://www.w3.org/2000/svg" xmlns:rdf="http://www.w3.org/1999/02/22-rdf-syntax-ns#"  xmlns:cc="http://creativecommons.org/ns#" xmlns:dc="http://purl.org/dc/elements/1.1/">
     <g>
<path d="M 294.89,45.17 c -0.05,0.46 0.15,0.64 0.37,0.20 0.12,-0.24 0.62,-1.21 0.83,-3.78 0.16,-1.93 0.08,-4.91 -0.36,-9.02 -0.06,-0.60 -2.38,-21.44 -2.38,-21.44 0.00,0.00 1.51,1.50 1.75,1.76 0.24,0.27 0.55,0.14 0.42,-0.29 -0.13,-0.43 -3.10,-8.18 -3.19,-8.45 -0.09,-0.27 -0.19,-0.46 -0.33,-0.16 -0.14,0.30 -1.15,2.61 -1.15,2.61 0.02,0.14 0.25,1.16 0.29,1.55 0.35,3.38 2.58,23.33 3.21,29.63 0.31,3.10 0.54,5.89 0.54,7.39 z M 284.79,10.11 c -0.01,-0.04 1.50,1.43 1.74,1.70 0.24,0.27 0.55,0.14 0.42,-0.29 -0.13,-0.43 -2.91,-7.31 -3.01,-7.58 -0.09,-0.27 -0.19,-0.47 -0.33,-0.16 -0.14,0.30 -1.21,2.52 -1.21,2.52 0.02,0.18 0.25,0.74 0.38,1.88 0.07,0.59 2.72,25.63 2.72,26.16 0.00,0.53 0.05,0.78 -0.29,1.07 -0.34,0.29 -4.51,2.08 -7.18,0.58 -0.97,-0.49 -4.12,-3.06 -6.35,-5.38 -1.31,-1.26 -7.42,-6.89 -22.50,-15.86 -0.68,-0.58 -1.50,-0.99 -0.47,-1.58 1.03,-0.59 11.71,-6.13 22.09,-9.30 2.33,-0.66 9.11,-1.63 6.78,1.10 -2.33,2.73 -6.56,5.98 -8.27,8.89 -0.84,1.32 -0.62,1.63 0.62,0.44 1.23,-1.19 9.28,-8.32 9.68,-11.48 0.09,-1.14 -0.31,-2.82 -3.61,-2.55 -3.30,0.26 -17.47,4.44 -26.93,9.86 -0.82,0.57 -1.17,1.23 -1.33,1.59 -0.16,0.38 -1.37,3.49 -0.22,4.55 1.16,1.07 12.84,9.78 15.78,14.59 0.14,0.31 0.86,1.83 -3.69,2.93 -0.18,-0.40 -0.39,-0.81 -0.64,-1.23 -2.43,-4.55 -5.10,-3.39 -5.83,-2.64 -0.73,0.75 -1.93,2.46 -1.96,4.17 -0.04,1.70 0.75,3.64 4.18,3.59 0.55,-0.02 2.07,-0.02 3.86,-0.47 0.18,0.45 0.24,0.86 0.08,1.14 -0.66,1.14 -5.17,5.65 -9.53,7.55 -1.41,0.48 -11.53,3.87 -9.59,-7.74 0.03,-0.26 0.02,-0.47 -0.01,-0.62 0.42,-0.50 0.72,-0.99 0.86,-1.46 0.15,-0.67 0.79,-2.95 0.19,-5.89 0.96,-0.12 3.58,-0.84 5.13,-3.35 0.38,-0.61 0.76,-0.76 0.83,-0.04 0.06,0.72 0.19,2.23 0.19,2.72 0.00,0.49 0.32,0.42 0.40,-0.02 0.08,-0.40 0.68,-3.91 0.59,-4.78 -0.08,-0.87 -0.66,-1.93 -1.55,-1.19 -0.89,0.74 -1.68,1.78 -2.04,2.19 -0.34,0.38 -2.22,2.38 -5.02,0.66 -0.31,-0.55 -0.68,-1.11 -1.11,-1.67 -0.33,-0.46 -0.30,0.04 -0.37,0.28 -0.08,0.25 -0.46,2.22 -0.46,2.22 0.41,0.92 2.16,4.26 2.41,5.16 0.24,0.90 0.35,1.65 -0.18,2.16 -0.53,0.50 -8.36,7.74 -27.46,13.20 -0.48,0.26 -0.70,0.70 0.13,0.62 0.84,-0.09 11.44,-1.54 11.44,-1.54 0.52,-0.19 10.88,-4.42 15.14,-8.35 0.00,0.01 0.00,0.02 -0.01,0.03 -0.31,1.54 -1.72,9.33 3.21,10.96 0.92,0.31 5.15,1.89 12.63,-3.83 1.12,-0.84 5.66,-3.80 5.28,-8.74 1.07,-0.38 2.19,-0.94 3.22,-1.77 0.57,-0.47 1.39,-1.18 0.99,-4.42 -0.07,-0.57 -0.35,-2.14 -1.22,-3.58 0.00,0.00 4.44,3.12 6.59,5.30 2.14,2.18 6.60,7.23 10.30,7.49 0.86,0.03 5.48,0.33 6.50,-4.29 0.20,-1.12 0.46,-3.89 0.13,-6.86 -0.20,-1.91 -2.14,-18.60 -2.14,-18.60 z M 256.62,34.33 c -3.35,0.40 -3.71,-0.58 -3.46,-0.96 0.22,-0.33 1.87,-1.69 3.56,0.29 0.06,0.09 0.25,0.30 0.49,0.59 -0.19,0.03 -0.39,0.06 -0.59,0.09 z M 228.91,13.55 c 0.56,0.13 0.86,0.48 0.99,0.67 0.06,0.09 0.15,0.03 0.18,-0.02 0.72,-1.23 0.19,-2.06 -0.88,-2.44 -0.43,-0.15 -0.58,-0.77 1.09,-1.70 1.54,-0.86 14.78,-6.55 15.13,-6.76 0.46,-0.28 0.74,-0.38 0.94,-0.82 0.20,-0.43 0.25,-0.51 0.36,-0.81 0.12,-0.32 0.23,-0.66 -0.61,-0.21 -0.45,0.24 -15.16,6.44 -16.45,7.36 -0.65,0.46 -1.21,1.22 -1.45,2.07 -0.34,1.23 -0.10,2.48 0.70,2.66 z M 241.53,13.83 c 1.53,-2.10 1.53,-2.10 1.53,-2.10 0.05,-0.07 0.04,-0.16 -0.03,-0.21 -2.62,-1.91 -2.62,-1.91 -2.62,-1.91 -0.06,-0.05 -0.15,-0.03 -0.20,0.04 -1.53,2.10 -1.53,2.10 -1.53,2.10 -0.05,0.07 -0.04,0.16 0.03,0.20 2.61,1.91 2.61,1.91 2.61,1.91 0.06,0.05 0.15,0.03 0.20,-0.04 z M 237.36,16.51 c 2.61,1.91 2.61,1.91 2.61,1.91 0.06,0.05 0.15,0.03 0.20,-0.04 1.32,-1.81 1.32,-1.81 1.32,-1.81 2.54,1.85 2.54,1.85 2.54,1.85 0.06,0.05 0.15,0.03 0.20,-0.04 1.53,-2.10 1.53,-2.10 1.53,-2.10 0.05,-0.07 0.04,-0.16 -0.03,-0.21 -2.62,-1.91 -2.62,-1.91 -2.62,-1.91 -0.06,-0.05 -0.15,-0.03 -0.20,0.04 -1.32,1.81 -1.32,1.81 -1.32,1.81 -2.54,-1.85 -2.54,-1.85 -2.54,-1.85 -0.06,-0.05 -0.15,-0.03 -0.20,0.04 -1.53,2.10 -1.53,2.10 -1.53,2.10 -0.05,0.07 -0.04,0.16 0.03,0.20 z M 270.52,40.57 c -1.14,1.56 -1.15,3.56 -1.23,5.79 -0.19,-0.46 -1.24,-3.41 -4.35,-5.01 -0.23,-0.12 -0.67,0.13 -0.69,0.84 -0.01,0.41 -0.09,1.41 0.20,1.68 0.30,0.27 1.17,0.80 1.31,0.87 0.15,0.07 0.30,0.08 0.34,-0.09 0.04,-0.17 0.22,-0.57 0.50,-0.30 0.24,0.23 1.79,1.42 2.66,4.03 0.15,0.34 0.47,0.37 0.53,-0.13 0.14,-1.22 0.16,-3.34 0.24,-3.99 0.10,-0.91 0.47,-2.78 1.65,-1.85 0.27,0.21 0.55,0.49 0.55,0.49 0.25,0.30 0.57,0.63 0.71,0.28 0.21,-0.54 0.36,-1.43 0.09,-1.90 -0.12,-0.21 -1.59,-1.95 -2.51,-0.69 z M 277.38,19.27 c -1.14,1.56 -1.15,3.56 -1.23,5.79 -0.18,-0.46 -1.24,-3.41 -4.35,-5.01 -0.23,-0.12 -0.67,0.13 -0.69,0.84 -0.01,0.41 -0.09,1.41 0.21,1.68 0.30,0.27 1.17,0.80 1.31,0.87 0.15,0.08 0.30,0.08 0.34,-0.09 0.04,-0.17 0.22,-0.57 0.50,-0.30 0.24,0.23 1.78,1.42 2.66,4.02 0.15,0.34 0.47,0.37 0.53,-0.13 0.14,-1.22 0.16,-3.34 0.24,-3.99 0.11,-0.91 0.47,-2.78 1.65,-1.85 0.27,0.21 0.55,0.49 0.55,0.49 0.25,0.30 0.57,0.64 0.71,0.28 0.21,-0.54 0.36,-1.43 0.09,-1.90 -0.12,-0.21 -1.59,-1.95 -2.51,-0.69 z M 245.07,7.07 c -0.09,0.42 -0.13,0.67 -0.16,0.73 -0.10,0.28 -0.17,0.53 0.64,0.10 0.27,-0.14 10.07,-4.74 10.56,-5.01 0.48,-0.25 0.72,-0.41 0.91,-0.85 0.18,-0.44 0.23,-0.51 0.33,-0.82 0.10,-0.32 0.25,-0.58 -0.61,-0.19 -0.61,0.28 -10.21,4.85 -10.83,5.15 -0.59,0.28 -0.74,0.44 -0.83,0.87 z M 236.72,45.18 c -0.54,0.27 -7.22,2.86 -7.78,3.17 -0.55,0.31 -0.75,0.39 -0.86,0.79 -0.11,0.41 -0.17,0.64 -0.20,0.71 -0.11,0.27 -0.20,0.60 0.61,0.14 0.25,-0.14 7.04,-2.78 7.50,-3.05 0.46,-0.26 0.73,-0.35 0.93,-0.77 0.21,-0.42 0.26,-0.49 0.37,-0.78 0.12,-0.31 0.24,-0.64 -0.58,-0.22 z M 224.12,13.09 c 0.51,0.00 1.16,-0.37 1.62,-1.96 0.08,-0.36 0.13,-0.65 0.16,-0.79 0.05,-0.22 -0.11,-0.47 -0.27,0.02 -0.37,0.97 -1.33,1.65 -2.05,0.35 -0.12,-0.26 -0.60,-1.44 0.29,-4.03 0.18,-0.50 0.41,-1.25 0.41,-1.25 0.20,-0.56 -0.04,-0.87 -0.32,-0.18 -0.28,0.69 -1.46,3.07 -1.28,5.88 0.04,0.65 0.47,1.91 1.45,1.95 z M 263.52,10.88 c 0.16,-0.53 -0.08,-0.80 -0.31,-0.15 -0.23,0.65 -1.20,2.90 -0.88,5.47 0.07,0.59 0.54,1.73 1.44,1.71 0.47,-0.03 1.05,-0.40 1.40,-1.88 0.06,-0.33 0.09,-0.60 0.11,-0.73 0.04,-0.20 -0.13,-0.43 -0.25,0.04 -0.29,0.91 -1.15,1.59 -1.88,0.43 -0.12,-0.23 -0.63,-1.29 0.06,-3.71 0.14,-0.47 0.31,-1.17 0.31,-1.17 z M 290.50,43.91 c -0.39,0.99 -1.39,1.66 -2.11,0.32 -0.11,-0.27 -0.60,-1.48 0.36,-4.10 0.19,-0.51 0.44,-1.27 0.44,-1.27 0.21,-0.57 -0.03,-0.89 -0.33,-0.19 -0.30,0.70 -1.56,3.11 -1.42,5.98 0.03,0.66 0.46,1.96 1.46,2.01 0.52,0.01 1.20,-0.36 1.70,-1.97 0.09,-0.36 0.14,-0.66 0.18,-0.80 0.06,-0.22 -0.10,-0.48 -0.28,0.02 z M 312.60,14.93 c 0.25,-0.16 13.84,-8.02 14.32,-8.31 0.46,-0.29 0.72,-0.41 0.91,-0.85 0.18,-0.44 0.23,-0.51 0.33,-0.82 0.10,-0.32 0.21,-0.67 -0.61,-0.19 -0.53,0.31 -14.04,8.11 -14.59,8.46 -0.55,0.35 -0.74,0.44 -0.83,0.87 -0.09,0.42 -0.13,0.67 -0.16,0.73 -0.10,0.28 -0.17,0.63 0.64,0.10 z M 330.30,22.91 c 0.48,0.00 1.11,-0.35 1.55,-1.87 0.08,-0.34 0.13,-0.62 0.16,-0.75 0.05,-0.21 -0.10,-0.45 -0.26,0.02 -0.35,0.93 -1.28,1.58 -1.96,0.33 -0.11,-0.25 -0.58,-1.38 0.28,-3.86 0.17,-0.48 0.39,-1.20 0.39,-1.20 0.19,-0.54 -0.04,-0.84 -0.31,-0.17 -0.27,0.66 -1.40,2.94 -1.23,5.63 0.04,0.62 0.45,1.83 1.39,1.87 z M 353.65,9.00 c 0.79,0.58 1.93,1.04 1.93,1.04 -3.66,4.48 -10.84,7.67 -12.55,9.01 -0.51,0.39 -0.44,0.61 -0.12,0.53 0.28,-0.08 5.76,-1.61 10.76,-5.90 2.29,-1.97 2.23,-2.11 2.81,-3.31 0.50,0.26 0.84,0.67 1.03,0.91 0.28,0.34 0.43,0.60 0.56,0.23 0.48,-1.33 -0.20,-2.13 -0.84,-2.54 0.00,0.00 0.67,-2.07 -0.56,-4.14 -0.21,-0.35 -1.43,-1.46 -2.85,0.74 -0.55,0.84 -0.96,2.85 -0.17,3.42 z M 354.38,6.97 c 0.73,-1.02 1.08,-0.99 1.36,-0.82 0.83,0.77 0.70,2.02 0.67,2.31 0.00,0.00 -1.05,-0.49 -1.52,-0.69 -0.47,-0.20 -0.72,-0.50 -0.50,-0.80 z M 356.41,16.93 c 0.18,-0.50 -0.03,-0.77 -0.29,-0.16 -0.25,0.61 -1.30,2.73 -1.14,5.22 0.04,0.58 0.42,1.70 1.29,1.73 0.45,0.00 1.03,-0.33 1.44,-1.73 0.07,-0.32 0.12,-0.57 0.15,-0.70 0.04,-0.19 -0.10,-0.42 -0.24,0.02 -0.33,0.86 -1.18,1.47 -1.82,0.31 -0.10,-0.23 -0.53,-1.28 0.26,-3.57 0.16,-0.44 0.36,-1.11 0.36,-1.11 z M 335.80,9.66 c 0.17,0.10 0.36,0.11 0.41,-0.10 0.05,-0.21 0.29,-0.68 0.62,-0.34 0.28,0.28 2.09,1.78 3.03,4.95 0.16,0.42 0.55,0.46 0.64,-0.14 0.22,-1.47 0.34,-4.02 0.45,-4.79 0.16,-1.08 0.68,-3.32 2.06,-2.16 0.31,0.26 0.64,0.61 0.64,0.61 0.29,0.37 0.66,0.79 0.84,0.36 0.27,-0.64 0.49,-1.70 0.19,-2.28 -0.13,-0.25 -1.83,-2.41 -3.00,-0.93 -1.44,1.83 -1.53,4.23 -1.72,6.91 -0.20,-0.56 -1.35,-4.16 -5.02,-6.21 -0.27,-0.15 -0.81,0.13 -0.86,0.98 -0.03,0.49 -0.17,1.69 0.18,2.03 0.35,0.34 1.37,1.01 1.54,1.10 z M 361.99,27.53 c -0.25,-0.28 -0.38,-0.01 -0.46,0.31 -0.09,0.32 -0.36,1.52 -0.53,2.27 0.00,0.00 0.71,1.16 0.97,1.75 0.25,0.59 -0.12,0.92 -0.86,1.01 -2.08,0.25 -3.73,-0.94 -4.30,-1.48 -0.57,-0.55 0.05,-1.52 0.51,-2.68 0.37,-0.93 -0.32,-1.04 -0.84,0.00 -1.76,4.63 -4.23,5.13 -4.88,5.30 -5.86,1.60 -5.36,-3.76 -5.34,-4.64 0.02,-0.88 -0.62,-0.55 -1.34,0.03 -2.47,1.98 -4.45,3.14 -5.52,3.62 -0.92,-1.80 -2.26,-2.93 -2.82,-3.33 -6.34,-4.63 -6.87,4.71 -6.67,5.71 0.97,3.97 7.44,1.56 8.46,1.44 1.01,-0.12 0.68,1.22 0.11,2.02 -1.41,1.97 -3.03,3.38 -4.50,4.57 -6.28,5.13 -9.43,4.72 -10.41,4.69 -6.17,-0.17 -5.60,-6.82 -5.26,-8.24 1.86,-1.57 3.45,-3.28 4.38,-5.04 0.38,-0.96 1.03,-3.16 -0.15,-5.91 -0.62,-1.21 -2.56,-4.61 -2.56,-4.61 0.00,0.00 1.43,0.04 1.57,0.04 0.14,0.00 0.41,-0.14 0.06,-0.54 -0.35,-0.40 -3.36,-3.41 -3.54,-3.65 -0.18,-0.24 -0.35,-0.42 -0.45,-0.06 -0.10,0.35 -0.36,1.88 -0.42,2.20 -0.06,0.31 -0.06,0.63 0.10,0.90 0.15,0.27 0.55,1.20 0.84,1.96 0.29,0.76 3.26,6.47 3.53,6.98 0.27,0.51 0.33,0.88 0.06,1.22 -9.53,10.05 -27.91,16.23 -28.50,16.58 -0.59,0.34 -0.43,0.61 0.56,0.43 1.48,-0.26 9.74,-1.64 12.09,-2.78 1.55,-0.75 6.97,-3.41 11.41,-6.89 -0.12,0.90 -0.24,2.22 -0.18,3.89 0.30,8.08 7.53,6.74 9.43,6.33 5.68,-1.25 12.64,-9.11 13.23,-10.69 0.58,-1.56 0.67,-2.98 0.54,-4.22 1.50,-0.81 4.71,-3.40 4.71,-3.40 0.13,3.45 2.88,4.48 3.72,4.63 3.96,0.60 5.94,-2.70 6.78,-3.78 0.72,1.89 2.45,2.26 3.34,2.43 3.41,0.68 4.08,-1.73 4.26,-2.29 1.07,-3.33 -0.86,-5.81 -1.11,-6.08 z M 333.35,34.20 c -2.03,-0.14 -1.85,-0.92 -1.57,-1.22 0.30,-0.33 2.78,-1.89 4.85,0.89 0.00,0.00 -0.86,0.50 -3.28,0.33 z M 358.78,39.84 c -0.24,0.68 -0.34,1.12 -0.32,1.38 0.03,0.26 0.12,1.10 0.12,1.10 -0.25,0.20 -1.33,0.87 -2.40,0.08 0.07,-0.23 0.21,-0.70 0.24,-0.95 0.12,-0.40 -0.13,-0.69 -0.32,-0.28 -0.20,0.41 -0.65,1.79 -0.99,2.10 -0.34,0.31 -0.73,1.45 -3.30,0.29 -0.45,-0.17 -1.23,-0.75 -2.46,0.48 -2.77,2.57 -4.68,2.77 -7.79,3.88 -0.38,0.17 -1.16,0.76 -0.23,0.67 0.94,-0.09 4.87,0.00 7.01,-2.46 0.45,-0.43 0.96,-1.58 2.66,-0.92 0.94,0.36 2.68,1.85 4.58,-1.10 1.12,0.75 2.82,0.45 3.09,-0.38 0.27,-0.82 0.58,-1.64 0.58,-2.20 0.00,-0.56 -0.05,-1.30 -0.05,-1.30 -0.04,-0.44 -0.19,-1.07 -0.44,-0.40 z M 295.92,16.41 c 0.17,-0.04 3.05,-0.49 6.41,-3.05 1.82,-1.38 2.92,-3.74 2.92,-3.74 0.00,0.00 0.91,0.76 1.03,0.91 0.28,0.34 0.43,0.60 0.56,0.23 0.48,-1.33 -0.20,-2.13 -0.84,-2.54 0.00,0.00 0.67,-2.07 -0.56,-4.14 -0.21,-0.35 -1.43,-1.46 -2.85,0.74 -0.55,0.84 -0.96,2.85 -0.17,3.42 0.79,0.58 1.93,1.04 1.93,1.04 -3.66,4.48 -6.16,5.34 -8.30,6.59 -0.55,0.32 -0.44,0.61 -0.12,0.53 z M 303.64,7.02 c -0.47,-0.20 -0.72,-0.50 -0.50,-0.80 0.73,-1.02 1.08,-0.99 1.36,-0.82 0.83,0.77 0.70,2.03 0.67,2.31 0.00,0.00 -1.05,-0.49 -1.52,-0.69 z M 302.88,26.54 c 0.00,0.00 1.25,-0.31 1.47,-0.38 0.22,-0.06 0.34,-0.35 -0.05,-0.55 -0.39,-0.20 -4.09,-1.67 -4.37,-1.79 -0.28,-0.11 -0.38,-0.24 -0.41,0.06 -0.02,0.30 -0.07,2.73 -0.07,2.73 0.00,0.00 -0.06,0.17 0.27,0.35 0.32,0.18 0.64,0.58 0.90,0.84 0.26,0.26 3.70,2.98 3.87,3.07 0.00,0.00 -1.72,3.02 -1.94,5.38 -0.22,2.37 0.04,5.63 3.27,4.58 0.87,-0.25 4.49,-1.69 5.30,-4.21 0.26,-0.93 1.01,-2.61 -0.21,-4.31 -0.70,-1.00 -3.53,-2.69 -3.53,-2.69 0.00,0.00 2.17,-3.00 2.38,-3.37 0.21,-0.37 1.00,-2.69 1.09,-3.26 0.09,-0.56 0.13,-0.84 -0.29,-0.32 -0.42,0.52 -4.63,6.05 -4.63,6.05 z M 309.83,35.43 c -1.20,0.99 -3.72,2.29 -4.43,2.36 -0.71,0.07 -2.59,-0.28 -1.77,-2.20 0.28,-0.62 2.16,-3.84 2.16,-3.84 0.70,0.39 5.24,2.70 4.04,3.69 z M 303.50,16.80 c -0.06,-0.05 -0.15,-0.03 -0.20,0.04 -1.53,2.10 -1.53,2.10 -1.53,2.10 -0.05,0.07 -0.04,0.16 0.03,0.20 2.61,1.91 2.61,1.91 2.61,1.91 0.06,0.05 0.15,0.03 0.20,-0.04 1.32,-1.81 1.32,-1.81 1.32,-1.81 2.54,1.85 2.54,1.85 2.54,1.85 0.06,0.05 0.15,0.03 0.20,-0.04 1.53,-2.10 1.53,-2.10 1.53,-2.10 0.05,-0.07 0.04,-0.16 -0.03,-0.20 -2.61,-1.91 -2.61,-1.91 -2.61,-1.91 -0.06,-0.05 -0.15,-0.03 -0.20,0.04 -1.32,1.81 -1.32,1.81 -1.32,1.81 z M 223.40,26.53 c 0.17,0.10 0.35,0.11 0.40,-0.10 0.05,-0.21 0.28,-0.68 0.61,-0.34 0.24,0.24 2.17,1.94 2.76,4.27 0.49,2.02 -4.48,6.10 -4.74,6.29 -0.47,0.33 -0.32,0.55 -0.10,0.43 0.22,-0.12 0.43,-0.15 2.98,-1.83 2.06,-1.36 2.49,-2.93 2.66,-4.14 0.02,-0.06 0.04,-0.12 0.05,-0.21 0.21,-1.47 0.33,-4.02 0.44,-4.79 0.16,-1.08 0.67,-3.32 2.03,-2.16 0.31,0.26 0.63,0.61 0.63,0.61 0.29,0.37 0.65,0.79 0.83,0.36 0.27,-0.64 0.48,-1.70 0.19,-2.28 -0.13,-0.26 -1.81,-2.41 -2.95,-0.94 -1.42,1.83 -1.51,4.23 -1.70,6.91 -0.20,-0.56 -1.33,-4.16 -4.95,-6.21 -0.26,-0.15 -0.80,0.13 -0.85,0.98 -0.03,0.49 -0.17,1.69 0.17,2.03 0.34,0.34 1.35,1.01 1.52,1.10 z" />
     </g>
</svg>
