<?xml version="1.0" encoding="UTF-8"?>
<svg version="1.1" id="Layer_1" x="0px" y="0px" width="578" height="54" viewBox="0 0 578 54"
xml:space="preserve" xmlns="http://www.w3.org/2000/svg" xmlns:svg="http://www.w3.org/2000/svg" xmlns:rdf="http://www.w3.org/1999/02/22-rdf-syntax-ns#"  xmlns:cc="http://creativecommons.org/ns#" xmlns:dc="http://purl.org/dc/elements/1.1/">
     <g>
<path d="M 212.25,25.99 c -1.92,2.63 -1.92,2.63 -1.92,2.63 -0.06,0.08 -0.05,0.20 0.03,0.25 3.27,2.38 3.27,2.38 3.27,2.38 0.08,0.06 0.19,0.04 0.25,-0.05 1.91,-2.63 1.91,-2.63 1.91,-2.63 0.06,-0.08 0.05,-0.20 -0.03,-0.25 -3.27,-2.38 -3.27,-2.38 -3.27,-2.38 -0.08,-0.06 -0.19,-0.04 -0.25,0.05 z M 253.78,13.66 c -1.92,2.63 -1.92,2.63 -1.92,2.63 -0.06,0.08 -0.05,0.20 0.03,0.25 3.27,2.38 3.27,2.38 3.27,2.38 0.08,0.06 0.19,0.04 0.25,-0.05 1.91,-2.63 1.91,-2.63 1.91,-2.63 0.06,-0.08 0.05,-0.20 -0.03,-0.25 -3.27,-2.38 -3.27,-2.38 -3.27,-2.38 -0.08,-0.06 -0.19,-0.04 -0.25,0.05 z M 311.37,38.93 c 0.39,3.05 0.69,5.80 0.73,7.27 -0.04,0.46 0.17,0.63 0.38,0.19 0.11,-0.24 0.59,-1.21 0.73,-3.75 0.11,-1.91 -0.05,-4.85 -0.60,-8.89 -0.08,-0.59 -2.95,-21.08 -2.95,-21.08 0.00,0.00 1.55,1.44 1.80,1.70 0.25,0.26 0.55,0.12 0.41,-0.30 -0.14,-0.42 -3.31,-7.98 -3.42,-8.25 -0.10,-0.26 -0.20,-0.45 -0.33,-0.15 -0.13,0.30 -1.08,2.60 -1.08,2.60 0.02,0.14 0.28,1.14 0.33,1.52 0.44,3.32 3.20,22.93 3.99,29.13 z M 301.08,12.17 c 0.00,0.00 1.55,1.43 1.80,1.69 0.25,0.26 0.55,0.12 0.41,-0.30 -0.14,-0.42 -3.31,-7.47 -3.41,-7.73 -0.10,-0.26 -0.20,-0.45 -0.33,-0.15 -0.13,0.30 -1.15,2.52 -1.15,2.52 0.03,0.18 0.27,0.72 0.43,1.84 0.10,0.69 4.55,27.55 4.55,28.79 0.00,0.27 0.07,0.66 -0.32,0.95 -0.39,0.29 -3.59,1.86 -6.67,1.03 -1.24,-0.34 -3.81,-1.54 -6.10,-4.32 -0.83,-1.01 -6.62,-5.84 -13.11,-8.45 -1.23,-0.49 -7.40,-2.66 -8.03,-2.93 -0.64,-0.27 -0.68,-0.41 -0.34,-0.76 0.34,-0.34 12.14,-10.20 21.47,-13.73 0.99,-0.33 3.70,-0.86 3.07,0.69 -0.79,2.71 -4.39,7.95 -4.82,9.37 -0.17,0.69 0.26,0.63 0.59,0.26 0.33,-0.36 5.11,-7.39 5.68,-11.48 0.20,-1.52 -0.36,-3.10 -2.67,-2.31 -2.31,0.79 -15.44,6.86 -23.36,14.12 -0.33,0.40 -0.76,0.92 -1.29,1.95 -0.12,0.24 -0.28,0.59 -0.41,0.99 -0.53,-5.57 -1.48,-14.40 -2.53,-17.03 -0.30,-0.79 -0.49,-1.01 -0.80,-0.29 -0.31,0.72 -0.71,2.42 -0.71,2.42 0.22,0.82 0.98,4.27 1.34,6.62 0.36,2.34 2.14,17.85 2.38,19.57 0.23,1.72 0.96,9.67 4.49,11.42 0.89,0.46 3.49,2.40 10.59,-2.24 0.86,-0.56 3.27,-1.85 2.97,-5.25 -0.07,-1.16 -0.33,-2.97 -1.75,-4.85 0.69,0.20 4.39,2.71 5.94,4.22 1.55,1.52 5.25,6.20 10.82,5.31 1.65,-0.40 3.80,-1.06 4.52,-3.96 0.26,-1.06 0.76,-2.31 0.40,-5.41 -0.26,-1.85 -3.65,-22.58 -3.65,-22.58 z M 283.44,39.10 c 0.17,0.30 0.46,0.63 -0.03,1.02 -0.49,0.40 -5.18,4.36 -8.84,4.29 -1.55,-0.10 -3.23,-0.40 -4.72,-3.50 -1.25,-3.40 -2.18,-10.82 -2.34,-12.04 -0.02,-0.16 -0.06,-0.58 -0.12,-1.20 0.15,0.13 0.33,0.23 0.55,0.31 2.01,0.73 13.20,6.34 15.51,11.12 z M 202.26,23.54 c -0.25,1.20 0.05,2.39 0.83,2.52 0.55,0.09 0.86,0.40 1.00,0.59 0.06,0.08 0.15,0.02 0.17,-0.03 0.62,-1.23 0.06,-2.00 -1.00,-2.30 -0.42,-0.12 -0.61,-0.70 0.95,-1.70 1.43,-0.92 17.58,-9.03 17.90,-9.25 0.43,-0.30 0.69,-0.41 0.86,-0.84 0.17,-0.43 0.21,-0.51 0.30,-0.80 0.09,-0.32 0.19,-0.65 -0.60,-0.16 -0.41,0.26 -17.95,8.94 -19.14,9.91 -0.60,0.48 -1.09,1.25 -1.27,2.08 z M 289.25,25.63 c -0.24,-0.12 -0.70,0.16 -0.70,0.90 0.00,0.43 -0.06,1.49 0.26,1.77 0.32,0.28 1.25,0.81 1.41,0.88 0.16,0.07 0.32,0.08 0.35,-0.11 0.03,-0.18 0.21,-0.61 0.52,-0.33 0.26,0.23 1.92,1.45 2.91,4.18 0.17,0.36 0.51,0.37 0.56,-0.15 0.11,-1.30 0.08,-3.53 0.14,-4.22 0.09,-0.96 0.42,-2.95 1.69,-2.00 0.29,0.22 0.60,0.50 0.60,0.50 0.28,0.31 0.62,0.65 0.75,0.27 0.20,-0.58 0.34,-1.52 0.05,-2.01 -0.13,-0.22 -1.73,-2.01 -2.67,-0.66 -1.16,1.68 -1.11,3.79 -1.14,6.14 -0.21,-0.48 -1.40,-3.57 -4.73,-5.17 z M 228.90,12.96 c 0.16,0.07 0.32,0.08 0.35,-0.11 0.03,-0.18 0.21,-0.61 0.52,-0.33 0.26,0.23 1.92,1.45 2.91,4.18 0.16,0.36 0.51,0.38 0.56,-0.15 0.11,-1.30 0.08,-3.53 0.14,-4.22 0.09,-0.96 0.42,-2.95 1.69,-2.00 0.29,0.21 0.60,0.50 0.60,0.50 0.28,0.31 0.62,0.66 0.75,0.27 0.20,-0.57 0.34,-1.52 0.05,-2.00 -0.13,-0.22 -1.73,-2.01 -2.67,-0.66 -1.16,1.68 -1.12,3.79 -1.14,6.14 -0.21,-0.48 -1.40,-3.56 -4.73,-5.17 -0.24,-0.12 -0.70,0.16 -0.70,0.90 0.00,0.43 -0.06,1.49 0.26,1.77 0.32,0.28 1.25,0.81 1.41,0.88 z M 263.60,43.29 c -0.55,0.28 -12.64,5.01 -13.20,5.33 -0.57,0.32 -0.77,0.39 -0.88,0.81 -0.11,0.42 -0.17,0.66 -0.20,0.72 -0.12,0.28 -0.21,0.62 0.63,0.15 0.26,-0.15 12.45,-4.93 12.92,-5.20 0.47,-0.27 0.75,-0.36 0.96,-0.79 0.21,-0.42 0.26,-0.50 0.38,-0.80 0.13,-0.32 0.25,-0.65 -0.60,-0.22 z M 269.24,13.90 c 0.27,-0.15 20.70,-11.23 21.16,-11.54 0.46,-0.30 0.74,-0.42 0.93,-0.87 0.19,-0.45 0.24,-0.53 0.34,-0.84 0.11,-0.33 0.24,-0.64 -0.63,-0.19 -0.58,0.30 -20.85,11.37 -21.44,11.69 -0.59,0.32 -0.76,0.46 -0.85,0.89 -0.09,0.43 -0.13,0.66 -0.16,0.75 -0.08,0.30 -0.21,0.60 0.66,0.11 z M 290.36,48.07 c -0.35,0.92 -1.26,1.56 -1.94,0.33 -0.11,-0.24 -0.57,-1.36 0.27,-3.81 0.17,-0.47 0.38,-1.18 0.38,-1.18 0.19,-0.53 -0.04,-0.83 -0.31,-0.17 -0.27,0.65 -1.39,2.91 -1.22,5.57 0.04,0.61 0.45,1.81 1.37,1.84 0.48,0.00 1.10,-0.35 1.54,-1.85 0.08,-0.34 0.12,-0.61 0.15,-0.75 0.05,-0.20 -0.10,-0.44 -0.26,0.02 z M 309.10,46.42 c -0.35,0.92 -1.26,1.56 -1.94,0.33 -0.11,-0.24 -0.57,-1.36 0.27,-3.81 0.17,-0.47 0.38,-1.18 0.38,-1.18 0.19,-0.53 -0.04,-0.83 -0.31,-0.17 -0.27,0.65 -1.39,2.91 -1.22,5.57 0.04,0.61 0.45,1.81 1.37,1.84 0.48,0.00 1.10,-0.35 1.54,-1.85 0.08,-0.34 0.12,-0.61 0.15,-0.75 0.05,-0.20 -0.10,-0.44 -0.26,0.02 z M 282.17,18.62 c 0.18,-0.59 -0.08,-0.90 -0.34,-0.17 -0.26,0.73 -1.36,3.25 -1.03,6.14 0.08,0.67 0.58,1.95 1.59,1.94 0.52,-0.03 1.18,-0.44 1.58,-2.10 0.06,-0.37 0.10,-0.67 0.13,-0.82 0.04,-0.23 -0.14,-0.48 -0.28,0.04 -0.33,1.02 -1.29,1.77 -2.10,0.46 -0.13,-0.26 -0.69,-1.46 0.10,-4.17 0.16,-0.53 0.36,-1.31 0.36,-1.31 z M 257.97,13.80 c 0.43,0.00 0.98,-0.31 1.38,-1.66 0.07,-0.30 0.11,-0.55 0.14,-0.67 0.04,-0.18 -0.09,-0.40 -0.23,0.02 -0.31,0.83 -1.13,1.41 -1.74,0.30 -0.10,-0.22 -0.51,-1.22 0.24,-3.42 0.15,-0.43 0.35,-1.06 0.35,-1.06 0.17,-0.48 -0.03,-0.74 -0.28,-0.15 -0.24,0.59 -1.25,2.61 -1.09,5.00 0.04,0.55 0.40,1.63 1.23,1.65 z M 246.45,23.69 c 0.24,-0.56 -0.01,-0.88 -0.35,-0.20 -0.34,0.69 -1.72,3.04 -1.62,5.88 0.03,0.66 0.46,1.95 1.54,2.01 0.56,0.02 1.29,-0.33 1.86,-1.91 0.10,-0.36 0.17,-0.65 0.21,-0.79 0.06,-0.21 -0.10,-0.48 -0.30,0.01 -0.44,0.97 -1.53,1.61 -2.28,0.28 -0.12,-0.26 -0.62,-1.47 0.46,-4.04 0.22,-0.50 0.49,-1.24 0.49,-1.24 z M 203.42,17.40 c 0.56,0.02 1.29,-0.33 1.86,-1.91 0.10,-0.36 0.17,-0.65 0.21,-0.79 0.06,-0.21 -0.10,-0.48 -0.30,0.01 -0.44,0.97 -1.53,1.62 -2.28,0.28 -0.12,-0.26 -0.62,-1.47 0.46,-4.04 0.22,-0.50 0.49,-1.24 0.49,-1.24 0.24,-0.56 -0.01,-0.88 -0.35,-0.20 -0.34,0.69 -1.72,3.04 -1.62,5.88 0.02,0.66 0.46,1.95 1.54,2.02 z M 207.31,29.41 c 0.22,-0.57 -0.05,-0.88 -0.36,-0.18 -0.31,0.70 -1.59,3.11 -1.36,5.94 0.05,0.65 0.54,1.92 1.62,1.95 0.56,-0.01 1.28,-0.38 1.77,-1.99 0.08,-0.36 0.14,-0.65 0.17,-0.80 0.05,-0.22 -0.13,-0.47 -0.30,0.03 -0.40,0.98 -1.45,1.68 -2.26,0.38 -0.13,-0.26 -0.68,-1.45 0.28,-4.06 0.19,-0.51 0.44,-1.26 0.44,-1.26 z M 373.67,18.19 c 0.18,-0.50 -0.04,-0.77 -0.29,-0.16 -0.25,0.61 -1.30,2.73 -1.14,5.22 0.04,0.58 0.42,1.70 1.29,1.73 0.45,0.00 1.03,-0.33 1.44,-1.73 0.07,-0.32 0.12,-0.57 0.15,-0.70 0.04,-0.19 -0.10,-0.42 -0.24,0.02 -0.33,0.86 -1.18,1.47 -1.82,0.31 -0.10,-0.23 -0.53,-1.28 0.26,-3.57 0.16,-0.44 0.36,-1.11 0.36,-1.11 z M 329.86,16.19 c 0.25,-0.16 13.84,-8.02 14.32,-8.31 0.46,-0.29 0.72,-0.41 0.90,-0.85 0.18,-0.44 0.23,-0.51 0.33,-0.82 0.11,-0.32 0.21,-0.67 -0.61,-0.19 -0.53,0.31 -14.04,8.11 -14.59,8.46 -0.55,0.35 -0.74,0.44 -0.83,0.87 -0.09,0.42 -0.13,0.67 -0.16,0.73 -0.10,0.28 -0.17,0.63 0.64,0.10 z M 347.55,24.16 c 0.49,0.00 1.11,-0.35 1.55,-1.87 0.08,-0.34 0.13,-0.62 0.16,-0.75 0.05,-0.21 -0.10,-0.45 -0.26,0.02 -0.35,0.93 -1.27,1.58 -1.96,0.33 -0.11,-0.25 -0.58,-1.38 0.28,-3.86 0.17,-0.48 0.39,-1.20 0.39,-1.20 0.19,-0.54 -0.04,-0.84 -0.31,-0.17 -0.27,0.66 -1.40,2.94 -1.23,5.63 0.04,0.62 0.45,1.83 1.39,1.87 z M 353.06,10.91 c 0.17,0.09 0.36,0.11 0.41,-0.10 0.05,-0.21 0.28,-0.68 0.62,-0.34 0.28,0.28 2.09,1.78 3.03,4.95 0.16,0.42 0.55,0.46 0.64,-0.14 0.22,-1.47 0.34,-4.02 0.45,-4.79 0.16,-1.09 0.68,-3.32 2.06,-2.16 0.31,0.26 0.64,0.61 0.64,0.61 0.29,0.37 0.66,0.79 0.84,0.36 0.27,-0.64 0.49,-1.70 0.19,-2.28 -0.13,-0.26 -1.84,-2.41 -3.00,-0.93 -1.44,1.83 -1.53,4.23 -1.72,6.91 -0.20,-0.56 -1.35,-4.16 -5.02,-6.21 -0.27,-0.15 -0.81,0.13 -0.86,0.98 -0.03,0.49 -0.17,1.69 0.18,2.03 0.35,0.34 1.37,1.01 1.54,1.10 z M 370.91,10.26 c 0.79,0.58 1.94,1.04 1.94,1.04 -3.66,4.48 -10.85,7.67 -12.56,9.01 -0.51,0.38 -0.44,0.61 -0.12,0.53 0.28,-0.08 5.76,-1.61 10.76,-5.90 2.29,-1.97 2.23,-2.11 2.81,-3.31 0.50,0.26 0.84,0.67 1.03,0.91 0.28,0.34 0.43,0.60 0.56,0.23 0.48,-1.33 -0.20,-2.13 -0.84,-2.54 0.00,0.00 0.67,-2.07 -0.56,-4.14 -0.21,-0.35 -1.43,-1.46 -2.85,0.74 -0.55,0.84 -0.96,2.85 -0.17,3.42 z M 371.64,8.23 c 0.73,-1.02 1.08,-0.99 1.36,-0.82 0.82,0.77 0.70,2.02 0.67,2.31 0.00,0.00 -1.05,-0.49 -1.52,-0.69 -0.47,-0.20 -0.72,-0.50 -0.50,-0.80 z M 379.24,28.78 c -0.25,-0.28 -0.37,-0.01 -0.46,0.31 -0.09,0.32 -0.36,1.52 -0.54,2.27 0.00,0.00 0.71,1.16 0.97,1.75 0.25,0.59 -0.12,0.92 -0.86,1.01 -2.08,0.25 -3.73,-0.94 -4.30,-1.48 -0.57,-0.55 0.05,-1.52 0.51,-2.68 0.37,-0.93 -0.32,-1.04 -0.84,0.00 -1.76,4.63 -4.23,5.13 -4.88,5.30 -5.86,1.60 -5.36,-3.76 -5.34,-4.64 0.02,-0.88 -0.62,-0.55 -1.34,0.03 -2.47,1.98 -4.45,3.14 -5.52,3.62 -0.92,-1.80 -2.26,-2.93 -2.82,-3.34 -6.34,-4.63 -6.87,4.71 -6.67,5.71 0.97,3.97 7.45,1.56 8.46,1.44 1.02,-0.12 0.68,1.22 0.11,2.02 -1.41,1.97 -3.03,3.38 -4.50,4.57 -6.28,5.13 -9.44,4.72 -10.41,4.69 -6.17,-0.17 -5.60,-6.82 -5.26,-8.24 1.86,-1.57 3.45,-3.28 4.38,-5.04 0.38,-0.96 1.03,-3.16 -0.15,-5.91 -0.62,-1.21 -2.56,-4.61 -2.56,-4.61 0.00,0.00 1.43,0.04 1.57,0.04 0.14,0.00 0.41,-0.14 0.06,-0.54 -0.35,-0.40 -3.36,-3.41 -3.54,-3.65 -0.18,-0.24 -0.35,-0.41 -0.45,-0.06 -0.10,0.36 -0.36,1.88 -0.42,2.20 -0.06,0.31 -0.06,0.63 0.10,0.90 0.15,0.27 0.55,1.20 0.84,1.96 0.29,0.76 3.25,6.47 3.53,6.98 0.27,0.51 0.33,0.88 0.06,1.22 -9.53,10.05 -27.91,16.23 -28.50,16.58 -0.59,0.34 -0.43,0.61 0.56,0.43 1.48,-0.26 9.74,-1.64 12.09,-2.78 1.55,-0.75 6.97,-3.41 11.41,-6.89 -0.12,0.90 -0.24,2.22 -0.17,3.89 0.30,8.08 7.53,6.74 9.43,6.33 5.68,-1.25 12.64,-9.11 13.23,-10.69 0.58,-1.56 0.67,-2.98 0.54,-4.22 1.50,-0.81 4.71,-3.40 4.71,-3.40 0.13,3.45 2.87,4.48 3.72,4.63 3.96,0.60 5.94,-2.70 6.78,-3.78 0.72,1.89 2.45,2.26 3.34,2.43 3.41,0.68 4.08,-1.73 4.26,-2.29 1.07,-3.33 -0.86,-5.81 -1.11,-6.08 z M 350.61,35.46 c -2.02,-0.14 -1.85,-0.92 -1.57,-1.22 0.30,-0.33 2.78,-1.89 4.85,0.89 0.00,0.00 -0.86,0.50 -3.28,0.33 z M 376.04,41.10 c -0.24,0.68 -0.34,1.12 -0.31,1.38 0.03,0.26 0.12,1.10 0.12,1.10 -0.25,0.20 -1.33,0.87 -2.40,0.08 0.07,-0.23 0.21,-0.70 0.24,-0.95 0.12,-0.40 -0.13,-0.69 -0.32,-0.28 -0.20,0.41 -0.65,1.79 -0.99,2.10 -0.34,0.31 -0.73,1.45 -3.30,0.29 -0.45,-0.17 -1.23,-0.75 -2.46,0.48 -2.77,2.57 -4.68,2.77 -7.79,3.88 -0.38,0.17 -1.16,0.76 -0.23,0.67 0.94,-0.09 4.87,0.00 7.01,-2.46 0.45,-0.43 0.96,-1.58 2.66,-0.92 0.94,0.36 2.68,1.85 4.58,-1.10 1.12,0.75 2.82,0.45 3.09,-0.38 0.27,-0.82 0.58,-1.64 0.58,-2.20 0.00,-0.56 -0.05,-1.30 -0.05,-1.30 -0.04,-0.44 -0.19,-1.07 -0.44,-0.40 z M 320.14,27.80 c 0.00,0.00 1.25,-0.31 1.47,-0.38 0.22,-0.06 0.34,-0.35 -0.05,-0.55 -0.39,-0.20 -4.09,-1.67 -4.37,-1.79 -0.28,-0.11 -0.38,-0.24 -0.41,0.06 -0.02,0.30 -0.07,2.73 -0.07,2.73 0.00,0.00 -0.06,0.17 0.27,0.35 0.32,0.18 0.64,0.58 0.90,0.84 0.26,0.26 3.70,2.98 3.87,3.07 0.00,0.00 -1.72,3.02 -1.94,5.38 -0.22,2.36 0.04,5.63 3.27,4.58 0.87,-0.25 4.49,-1.69 5.30,-4.21 0.26,-0.93 1.01,-2.61 -0.21,-4.31 -0.70,-1.00 -3.53,-2.69 -3.53,-2.69 0.00,0.00 2.17,-3.00 2.38,-3.37 0.21,-0.37 1.01,-2.69 1.09,-3.26 0.09,-0.56 0.13,-0.84 -0.29,-0.32 -0.42,0.52 -4.63,6.05 -4.63,6.05 z M 327.09,36.68 c -1.20,0.99 -3.72,2.29 -4.43,2.36 -0.71,0.07 -2.59,-0.28 -1.77,-2.20 0.28,-0.62 2.16,-3.84 2.16,-3.84 0.70,0.39 5.24,2.70 4.04,3.69 z M 313.18,17.67 c 0.17,-0.04 3.05,-0.49 6.41,-3.05 1.82,-1.38 2.92,-3.74 2.92,-3.74 0.00,0.00 0.91,0.76 1.03,0.91 0.28,0.34 0.43,0.60 0.56,0.23 0.48,-1.33 -0.20,-2.13 -0.84,-2.54 0.00,0.00 0.67,-2.07 -0.56,-4.14 -0.21,-0.35 -1.43,-1.46 -2.85,0.74 -0.55,0.84 -0.96,2.85 -0.17,3.42 0.79,0.58 1.94,1.04 1.94,1.04 -3.66,4.48 -6.16,5.34 -8.30,6.59 -0.55,0.32 -0.44,0.61 -0.12,0.53 z M 320.90,8.27 c -0.47,-0.20 -0.72,-0.50 -0.50,-0.80 0.73,-1.02 1.08,-0.99 1.36,-0.82 0.82,0.77 0.70,2.02 0.67,2.31 0.00,0.00 -1.05,-0.49 -1.52,-0.69 z M 320.76,18.05 c -0.06,-0.05 -0.15,-0.03 -0.20,0.04 -1.53,2.10 -1.53,2.10 -1.53,2.10 -0.05,0.07 -0.04,0.16 0.03,0.20 2.61,1.91 2.61,1.91 2.61,1.91 0.06,0.05 0.15,0.03 0.20,-0.04 1.32,-1.81 1.32,-1.81 1.32,-1.81 2.54,1.85 2.54,1.85 2.54,1.85 0.06,0.05 0.15,0.03 0.20,-0.04 1.53,-2.10 1.53,-2.10 1.53,-2.10 0.05,-0.07 0.04,-0.16 -0.03,-0.20 -2.61,-1.91 -2.61,-1.91 -2.61,-1.91 -0.06,-0.05 -0.15,-0.03 -0.20,0.04 -1.32,1.81 -1.32,1.81 -1.32,1.81 z M 260.39,36.01 c 4.56,-5.93 -0.71,-12.32 -1.04,-12.71 -1.82,-2.14 -4.05,-1.38 -4.86,-0.82 -0.79,0.54 -2.76,2.32 -2.61,5.09 0.04,0.82 0.42,2.70 3.22,2.61 0.75,-0.02 2.63,-0.47 3.46,-0.24 0.80,0.22 3.39,1.12 2.02,2.67 -1.37,1.56 -5.97,3.88 -11.18,5.47 -1.47,0.45 -5.04,2.11 -7.79,5.66 -1.49,1.93 -3.91,5.22 -5.94,5.99 -1.80,0.68 -5.34,0.35 -4.78,-3.99 0.18,-1.34 0.54,-3.17 0.75,-4.21 2.33,-1.74 4.58,-3.66 6.01,-5.50 0.52,-0.67 2.41,-3.07 1.12,-7.48 -2.03,-6.99 -5.92,-5.73 -7.04,-4.91 -0.77,0.57 -2.55,2.40 -2.44,5.17 0.11,0.81 0.51,2.69 3.30,2.51 0.75,-0.05 2.60,-0.46 3.45,-0.35 0.86,0.11 2.33,0.37 1.76,1.28 -3.97,6.89 -25.38,17.74 -25.38,17.74 -0.52,0.28 -1.06,0.65 -0.99,0.87 0.07,0.22 0.22,0.21 0.63,0.09 0.41,-0.12 9.81,-3.17 10.30,-3.45 0.29,-0.17 4.22,-2.34 8.20,-5.18 -0.65,2.31 -1.98,7.76 1.85,9.73 1.24,0.64 5.62,1.91 8.97,-3.77 1.42,-2.41 5.71,-6.32 7.64,-6.98 1.93,-0.66 9.96,-3.44 11.37,-5.29 z M 254.05,26.92 c -0.93,-0.31 0.14,-1.37 0.88,-1.54 0.47,-0.11 2.00,-0.38 3.69,1.48 0.00,0.00 -2.22,0.64 -4.58,0.07 z M 231.43,28.10 c -0.94,-0.28 0.10,-1.37 0.83,-1.57 0.47,-0.13 1.99,-0.44 3.74,1.35 0.00,0.00 -2.19,0.71 -4.57,0.21 z M 226.23,30.16 c -0.16,-0.68 -2.95,-6.88 -2.95,-6.88 0.64,0.25 1.04,0.36 1.27,0.46 0.23,0.10 0.60,-0.14 0.24,-0.61 -0.36,-0.47 -2.74,-3.28 -2.80,-3.46 -0.07,-0.19 -0.17,-0.33 -0.24,-0.57 -0.07,-0.25 -0.23,-0.20 -0.32,0.01 -0.09,0.21 -0.65,2.27 -0.69,2.45 -0.03,0.19 0.49,2.04 0.82,2.88 0.87,2.40 2.66,5.75 2.94,6.30 0.28,0.55 0.78,1.45 0.18,2.30 -0.60,0.85 -5.52,5.99 -13.87,8.34 -1.32,0.37 -6.85,1.68 -9.93,-2.50 -0.51,-0.69 -2.87,-4.13 -0.52,-10.76 0.24,-0.53 -0.08,-1.11 -0.62,-0.12 -0.54,0.99 -5.10,13.92 4.59,16.76 2.12,0.62 7.70,1.80 17.67,-5.96 0.95,-0.74 5.59,-3.79 4.24,-8.63 z M 236.89,20.81 c 0.15,-0.04 2.77,-0.92 5.93,-3.13 2.67,-1.86 5.24,-5.85 5.24,-5.85 0.00,0.00 0.81,0.72 0.92,0.86 0.24,0.32 0.38,0.56 0.50,0.23 0.47,-1.20 -0.13,-1.95 -0.71,-2.35 0.00,0.00 0.67,-1.88 -0.41,-3.81 -0.18,-0.32 -1.27,-1.37 -2.63,0.60 -0.53,0.75 -0.95,2.58 -0.25,3.13 0.70,0.55 1.74,1.00 1.74,1.00 -3.46,4.01 -8.24,7.74 -10.23,8.83 -0.51,0.28 -0.42,0.55 -0.12,0.48 z M 246.65,9.40 c -0.42,-0.20 -0.64,-0.48 -0.44,-0.74 0.69,-0.92 1.02,-0.87 1.26,-0.71 0.73,0.72 0.59,1.87 0.55,2.13 0.00,0.00 -0.95,-0.48 -1.38,-0.67 z" />
     </g>
</svg>
