<?xml version="1.0" encoding="UTF-8"?>
<svg version="1.1" id="Layer_1" x="0px" y="0px" width="578" height="52" viewBox="0 0 578 52"
xml:space="preserve" xmlns="http://www.w3.org/2000/svg" xmlns:svg="http://www.w3.org/2000/svg" xmlns:rdf="http://www.w3.org/1999/02/22-rdf-syntax-ns#"  xmlns:cc="http://creativecommons.org/ns#" xmlns:dc="http://purl.org/dc/elements/1.1/">
     <g>
<path d="M 240.39,47.94 c -0.47,0.20 -6.03,2.17 -6.53,2.34 -0.51,0.18 -0.64,0.33 -0.73,0.67 -0.09,0.34 -0.15,0.54 -0.17,0.60 -0.07,0.23 -0.05,0.34 0.52,0.12 0.23,-0.09 5.90,-2.01 6.29,-2.24 0.39,-0.22 0.52,-0.10 0.79,-0.65 0.18,-0.35 0.22,-0.41 0.31,-0.66 0.10,-0.26 0.18,-0.47 -0.50,-0.19 z M 240.39,45.17 c -0.47,0.20 -6.03,2.17 -6.53,2.34 -0.51,0.18 -0.64,0.33 -0.73,0.68 -0.09,0.34 -0.15,0.54 -0.17,0.60 -0.07,0.23 -0.05,0.34 0.52,0.12 0.23,-0.09 5.90,-2.01 6.29,-2.24 0.39,-0.22 0.52,-0.10 0.79,-0.65 0.18,-0.35 0.22,-0.42 0.31,-0.66 0.10,-0.26 0.18,-0.47 -0.50,-0.19 z M 254.30,15.69 c 0.23,-0.64 -0.05,-0.99 -0.37,-0.21 -0.32,0.79 -1.67,3.50 -1.46,6.70 0.05,0.74 0.54,2.18 1.65,2.22 0.58,0.00 1.32,-0.42 1.85,-2.23 0.09,-0.41 0.15,-0.74 0.19,-0.90 0.06,-0.24 -0.12,-0.53 -0.31,0.02 -0.42,1.11 -1.52,1.88 -2.33,0.40 -0.13,-0.30 -0.69,-1.64 0.33,-4.58 0.20,-0.57 0.46,-1.42 0.46,-1.42 z M 235.09,14.23 c 0.66,0.00 1.51,-0.48 2.11,-2.54 0.10,-0.47 0.17,-0.84 0.21,-1.02 0.06,-0.28 -0.14,-0.61 -0.36,0.03 -0.48,1.26 -1.73,2.15 -2.66,0.45 -0.15,-0.34 -0.78,-1.87 0.38,-5.23 0.23,-0.65 0.53,-1.62 0.53,-1.62 0.26,-0.73 -0.05,-1.13 -0.42,-0.24 -0.37,0.90 -1.90,3.99 -1.67,7.64 0.06,0.84 0.61,2.49 1.88,2.53 z M 274.96,45.62 c -0.35,1.10 -1.37,1.91 -2.25,0.51 -0.15,-0.28 -0.76,-1.56 0.07,-4.47 0.17,-0.56 0.37,-1.41 0.37,-1.41 0.19,-0.64 -0.10,-0.96 -0.37,-0.18 -0.27,0.78 -1.43,3.49 -1.05,6.59 0.09,0.72 0.64,2.09 1.73,2.06 0.56,-0.03 1.26,-0.48 1.67,-2.27 0.07,-0.40 0.10,-0.72 0.13,-0.88 0.04,-0.24 -0.15,-0.51 -0.30,0.04 z M 260.97,20.34 c 0.19,-0.06 3.44,-1.38 7.28,-4.44 3.24,-2.57 6.18,-7.83 6.18,-7.83 0.00,0.00 1.09,0.85 1.24,1.02 0.33,0.39 0.52,0.68 0.66,0.25 0.51,-1.56 -0.31,-2.46 -1.08,-2.92 0.00,0.00 0.70,-2.43 -0.81,-4.79 -0.25,-0.40 -1.72,-1.64 -3.29,0.97 -0.61,0.99 -1.01,3.35 -0.07,3.98 0.94,0.64 2.29,1.14 2.29,1.14 -4.08,5.36 -9.84,10.46 -12.28,12.00 -0.63,0.40 -0.49,0.73 -0.12,0.62 z M 272.46,5.11 c -0.55,-0.22 -0.85,-0.55 -0.61,-0.91 0.80,-1.22 1.22,-1.19 1.55,-1.01 0.99,0.86 0.89,2.33 0.86,2.66 0.00,0.00 -1.24,-0.53 -1.80,-0.75 z M 245.35,12.36 c 0.70,-0.35 4.74,-1.69 5.58,-5.58 0.08,-0.51 -0.01,-0.90 -0.11,-1.17 0.05,0.02 0.11,0.05 0.17,0.12 0.26,0.29 1.97,1.85 2.74,5.02 0.14,0.42 0.52,0.48 0.64,-0.10 0.28,-1.43 0.52,-3.93 0.67,-4.69 0.21,-1.06 0.83,-3.24 2.13,-2.03 0.29,0.28 0.60,0.64 0.60,0.64 0.27,0.38 0.61,0.81 0.81,0.40 0.30,-0.62 0.56,-1.65 0.30,-2.23 -0.12,-0.26 -1.69,-2.46 -2.90,-1.06 -1.50,1.73 -1.71,4.09 -2.03,6.71 -0.17,-0.56 -1.13,-4.15 -4.64,-6.35 -0.26,-0.16 -0.80,0.09 -0.89,0.92 -0.06,0.48 -0.25,1.65 0.07,2.01 0.31,0.34 2.71,1.31 1.32,2.65 -0.62,0.60 -3.74,3.54 -4.42,4.25 -0.68,0.71 -0.74,0.85 -0.04,0.50 z M 283.00,33.11 c 0.00,-1.23 0.09,-3.03 -3.08,-5.12 -0.81,-0.47 -5.88,-2.75 -6.30,-3.46 0.63,-0.14 0.93,-0.20 1.25,-0.27 0.32,-0.07 0.60,-0.48 0.05,-0.67 -0.55,-0.19 -4.62,-1.68 -4.62,-1.68 0.00,0.00 -0.29,2.43 -0.13,2.56 0.17,0.13 0.23,0.12 0.23,0.12 -0.40,0.35 -3.96,4.39 -2.29,9.14 0.00,0.00 -1.03,0.79 -3.32,1.30 -0.31,-0.86 -0.79,-1.77 -1.52,-2.68 -1.84,-2.09 -3.53,-3.29 -5.71,-1.13 -2.17,2.16 -2.22,5.96 0.56,7.16 0.90,0.29 2.43,0.53 4.60,0.11 0.45,-0.10 1.89,-0.26 1.17,0.77 -0.72,1.02 -6.78,7.68 -13.36,7.80 -0.84,0.02 -6.73,-0.53 -5.08,-6.51 0.09,-0.64 0.55,-2.16 0.73,-2.86 0.03,-0.12 0.04,-0.23 0.03,-0.33 0.82,-0.55 1.43,-0.98 1.65,-1.17 0.51,-0.44 1.41,-1.63 1.03,-4.75 -0.13,-0.81 -0.09,-2.53 -2.79,-4.14 -4.95,-2.40 -8.07,-4.66 -8.07,-4.66 0.00,0.00 1.15,-0.19 1.32,-0.23 0.17,-0.03 0.48,-0.21 0.10,-0.48 -0.39,-0.27 -3.57,-1.67 -4.24,-2.24 -0.20,-0.18 -0.56,-0.56 -0.62,-0.12 -0.06,0.44 -0.24,3.03 -0.24,3.03 0.46,0.52 3.58,4.12 7.11,5.72 0.94,0.45 5.08,2.51 6.07,3.87 0.26,0.37 0.79,0.62 -0.66,1.61 -1.45,0.99 -9.05,6.24 -14.21,8.45 -0.86,0.33 -3.52,1.43 -4.29,-2.29 -0.09,-0.74 -0.66,-2.82 2.84,-10.09 0.49,-0.28 0.98,-0.92 1.32,-2.27 0.08,-0.43 0.12,-0.78 0.15,-0.95 0.05,-0.26 -0.17,-0.55 -0.34,0.05 -0.40,1.19 -1.57,2.07 -2.57,0.56 -0.16,-0.30 -0.86,-1.68 0.09,-4.83 0.19,-0.61 0.43,-1.52 0.43,-1.52 0.22,-0.69 -0.11,-1.04 -0.42,-0.19 -0.31,0.85 -1.64,3.78 -1.23,7.12 0.09,0.73 0.66,2.08 1.76,2.21 -0.18,0.30 -0.38,0.70 -0.58,1.20 -1.01,2.55 -5.17,11.97 -0.29,14.37 0.95,0.40 2.79,0.62 7.37,-2.31 1.01,-0.58 5.47,-3.42 8.41,-5.36 -0.02,0.07 -0.05,0.13 -0.07,0.21 -0.53,1.74 -3.13,8.74 1.19,11.24 0.72,0.41 6.74,3.02 16.48,-5.64 1.87,-1.66 2.37,-4.97 2.37,-4.97 0.03,-0.20 0.05,-0.53 0.05,-0.93 1.49,-0.60 4.51,-1.94 5.41,-1.70 1.07,0.28 7.63,1.85 9.98,1.21 0.69,-0.21 1.80,-0.59 2.30,-4.29 z M 259.22,35.41 c -2.10,-0.51 -1.26,-1.48 -0.84,-1.83 0.42,-0.35 2.77,-0.98 3.86,1.80 0.00,0.00 -0.92,0.55 -3.02,0.04 z M 271.71,32.37 c -0.88,0.23 -1.91,-0.64 -2.67,-1.44 -0.76,-0.80 1.03,-2.90 1.95,-3.90 0.92,-1.01 2.57,1.10 3.28,2.94 0.54,1.45 -1.68,2.18 -2.56,2.41 z M 274.44,33.66 c 0.00,0.00 0.65,-1.11 0.92,-2.04 0.38,-1.13 0.42,-2.06 0.42,-2.06 0.42,0.14 3.94,1.15 5.78,3.44 0.18,0.25 0.80,1.09 -0.88,1.21 -1.68,0.12 -4.05,0.15 -6.24,-0.56 z M 323.05,8.47 c 0.17,0.09 0.36,0.11 0.41,-0.10 0.05,-0.21 0.29,-0.68 0.62,-0.34 0.28,0.28 2.09,1.78 3.03,4.95 0.16,0.42 0.55,0.46 0.64,-0.14 0.22,-1.47 0.34,-4.02 0.45,-4.79 0.16,-1.09 0.68,-3.32 2.06,-2.16 0.31,0.26 0.64,0.61 0.64,0.61 0.29,0.37 0.66,0.79 0.84,0.36 0.27,-0.64 0.49,-1.70 0.19,-2.28 -0.13,-0.26 -1.83,-2.41 -3.00,-0.93 -1.44,1.83 -1.53,4.23 -1.72,6.91 -0.20,-0.56 -1.35,-4.16 -5.02,-6.21 -0.27,-0.15 -0.81,0.13 -0.86,0.98 -0.03,0.49 -0.17,1.69 0.18,2.03 0.35,0.34 1.37,1.01 1.54,1.10 z M 340.90,7.82 c 0.79,0.58 1.93,1.04 1.93,1.04 -3.66,4.48 -10.84,7.67 -12.55,9.01 -0.51,0.38 -0.44,0.61 -0.12,0.52 0.29,-0.08 5.76,-1.61 10.76,-5.90 2.29,-1.97 2.23,-2.11 2.81,-3.31 0.50,0.26 0.84,0.67 1.03,0.91 0.28,0.34 0.43,0.60 0.56,0.23 0.48,-1.33 -0.20,-2.13 -0.84,-2.54 0.00,0.00 0.67,-2.07 -0.56,-4.14 -0.21,-0.35 -1.43,-1.46 -2.85,0.74 -0.55,0.84 -0.96,2.85 -0.17,3.42 z M 341.63,5.79 c 0.73,-1.02 1.08,-0.99 1.36,-0.82 0.83,0.77 0.70,2.03 0.67,2.31 0.00,0.00 -1.05,-0.49 -1.52,-0.70 -0.47,-0.20 -0.72,-0.50 -0.50,-0.80 z M 317.55,21.72 c 0.48,0.00 1.11,-0.35 1.55,-1.87 0.08,-0.34 0.13,-0.62 0.16,-0.75 0.05,-0.21 -0.10,-0.45 -0.26,0.02 -0.35,0.93 -1.27,1.58 -1.96,0.33 -0.11,-0.25 -0.58,-1.38 0.28,-3.86 0.17,-0.48 0.39,-1.20 0.39,-1.20 0.19,-0.54 -0.04,-0.84 -0.31,-0.18 -0.27,0.66 -1.40,2.94 -1.23,5.64 0.04,0.62 0.45,1.83 1.39,1.87 z M 349.24,26.34 c -0.25,-0.28 -0.38,-0.01 -0.46,0.31 -0.09,0.32 -0.36,1.52 -0.53,2.27 0.00,0.00 0.71,1.16 0.97,1.75 0.25,0.59 -0.12,0.92 -0.86,1.01 -2.08,0.25 -3.73,-0.94 -4.30,-1.49 -0.57,-0.55 0.05,-1.52 0.51,-2.68 0.37,-0.93 -0.32,-1.04 -0.84,0.00 -1.76,4.63 -4.23,5.12 -4.88,5.30 -5.86,1.60 -5.36,-3.76 -5.34,-4.64 0.02,-0.88 -0.62,-0.55 -1.34,0.03 -2.47,1.98 -4.45,3.14 -5.52,3.62 -0.92,-1.80 -2.26,-2.93 -2.82,-3.34 -6.34,-4.63 -6.86,4.71 -6.67,5.71 0.97,3.97 7.44,1.56 8.46,1.44 1.01,-0.12 0.68,1.22 0.11,2.02 -1.41,1.97 -3.03,3.38 -4.50,4.58 -6.28,5.13 -9.43,4.72 -10.41,4.69 -6.17,-0.17 -5.60,-6.82 -5.26,-8.24 1.86,-1.57 3.45,-3.28 4.38,-5.04 0.38,-0.96 1.03,-3.15 -0.15,-5.91 -0.62,-1.21 -2.56,-4.60 -2.56,-4.60 0.00,0.00 1.43,0.04 1.57,0.04 0.14,0.00 0.41,-0.14 0.06,-0.54 -0.35,-0.40 -3.36,-3.41 -3.54,-3.65 -0.18,-0.24 -0.35,-0.41 -0.45,-0.06 -0.10,0.35 -0.36,1.88 -0.42,2.20 -0.06,0.31 -0.06,0.63 0.10,0.90 0.15,0.27 0.55,1.20 0.84,1.96 0.29,0.76 3.26,6.47 3.53,6.98 0.27,0.51 0.33,0.88 0.06,1.22 -9.53,10.05 -27.91,16.23 -28.50,16.57 -0.59,0.34 -0.43,0.61 0.56,0.43 1.48,-0.26 9.74,-1.64 12.09,-2.77 1.55,-0.75 6.98,-3.41 11.41,-6.89 -0.12,0.90 -0.24,2.22 -0.18,3.89 0.30,8.08 7.53,6.74 9.43,6.33 5.68,-1.25 12.64,-9.11 13.23,-10.69 0.58,-1.56 0.67,-2.98 0.54,-4.22 1.50,-0.81 4.71,-3.40 4.71,-3.40 0.13,3.45 2.88,4.48 3.72,4.63 3.96,0.60 5.94,-2.71 6.78,-3.78 0.72,1.89 2.45,2.25 3.34,2.43 3.41,0.68 4.08,-1.74 4.26,-2.29 1.07,-3.33 -0.86,-5.81 -1.11,-6.08 z M 320.60,33.02 c -2.03,-0.14 -1.85,-0.92 -1.57,-1.23 0.30,-0.33 2.78,-1.89 4.85,0.89 0.00,0.00 -0.86,0.50 -3.28,0.33 z M 343.66,15.75 c 0.18,-0.50 -0.04,-0.77 -0.29,-0.16 -0.25,0.61 -1.30,2.73 -1.14,5.22 0.04,0.58 0.42,1.70 1.29,1.73 0.45,0.00 1.03,-0.33 1.44,-1.73 0.07,-0.32 0.12,-0.57 0.15,-0.70 0.04,-0.19 -0.10,-0.42 -0.24,0.02 -0.33,0.86 -1.18,1.47 -1.82,0.31 -0.10,-0.23 -0.53,-1.28 0.26,-3.57 0.16,-0.44 0.36,-1.11 0.36,-1.11 z M 283.17,15.23 c 0.17,-0.04 3.05,-0.49 6.41,-3.05 1.82,-1.38 2.92,-3.74 2.92,-3.74 0.00,0.00 0.91,0.76 1.03,0.91 0.28,0.34 0.43,0.60 0.56,0.23 0.48,-1.33 -0.20,-2.13 -0.84,-2.54 0.00,0.00 0.67,-2.07 -0.56,-4.14 -0.21,-0.35 -1.43,-1.46 -2.85,0.74 -0.55,0.84 -0.96,2.85 -0.17,3.42 0.79,0.58 1.93,1.04 1.93,1.04 -3.66,4.48 -6.16,5.34 -8.30,6.59 -0.55,0.32 -0.44,0.61 -0.12,0.53 z M 290.89,5.83 c -0.47,-0.20 -0.72,-0.50 -0.50,-0.80 0.73,-1.02 1.08,-0.99 1.36,-0.82 0.83,0.77 0.70,2.02 0.67,2.31 0.00,0.00 -1.05,-0.49 -1.52,-0.70 z M 299.85,13.75 c 0.25,-0.16 13.84,-8.02 14.32,-8.31 0.46,-0.29 0.72,-0.41 0.91,-0.85 0.18,-0.44 0.23,-0.51 0.33,-0.82 0.10,-0.32 0.21,-0.67 -0.61,-0.19 -0.53,0.31 -14.04,8.11 -14.59,8.46 -0.55,0.35 -0.74,0.44 -0.83,0.87 -0.09,0.42 -0.13,0.67 -0.16,0.73 -0.10,0.28 -0.17,0.63 0.64,0.10 z M 346.03,38.65 c -0.24,0.68 -0.34,1.12 -0.32,1.38 0.03,0.26 0.12,1.10 0.12,1.10 -0.25,0.20 -1.33,0.87 -2.40,0.08 0.07,-0.23 0.21,-0.70 0.24,-0.95 0.12,-0.40 -0.13,-0.69 -0.32,-0.28 -0.20,0.41 -0.65,1.79 -0.99,2.10 -0.34,0.31 -0.73,1.45 -3.30,0.29 -0.45,-0.17 -1.23,-0.75 -2.46,0.48 -2.77,2.57 -4.68,2.77 -7.79,3.88 -0.38,0.17 -1.16,0.76 -0.23,0.67 0.94,-0.09 4.87,0.00 7.01,-2.46 0.45,-0.43 0.96,-1.58 2.66,-0.92 0.94,0.36 2.68,1.85 4.58,-1.10 1.12,0.75 2.82,0.45 3.09,-0.37 0.27,-0.82 0.58,-1.64 0.58,-2.20 0.00,-0.56 -0.05,-1.30 -0.05,-1.30 -0.04,-0.44 -0.19,-1.07 -0.44,-0.40 z M 290.75,15.61 c -0.06,-0.05 -0.15,-0.03 -0.20,0.04 -1.53,2.10 -1.53,2.10 -1.53,2.10 -0.05,0.07 -0.04,0.16 0.03,0.20 2.61,1.91 2.61,1.91 2.61,1.91 0.06,0.05 0.15,0.03 0.20,-0.04 1.32,-1.81 1.32,-1.81 1.32,-1.81 2.54,1.85 2.54,1.85 2.54,1.85 0.06,0.05 0.15,0.03 0.20,-0.04 1.53,-2.10 1.53,-2.10 1.53,-2.10 0.05,-0.07 0.04,-0.16 -0.03,-0.20 -2.61,-1.91 -2.61,-1.91 -2.61,-1.91 -0.06,-0.05 -0.15,-0.03 -0.20,0.04 -1.32,1.81 -1.32,1.81 -1.32,1.81 z M 290.13,25.36 c 0.00,0.00 1.25,-0.31 1.47,-0.38 0.22,-0.06 0.34,-0.35 -0.05,-0.55 -0.39,-0.20 -4.09,-1.67 -4.37,-1.79 -0.28,-0.11 -0.38,-0.24 -0.41,0.06 -0.02,0.30 -0.07,2.73 -0.07,2.73 0.00,0.00 -0.06,0.17 0.27,0.35 0.32,0.18 0.64,0.58 0.90,0.84 0.26,0.26 3.70,2.98 3.87,3.07 0.00,0.00 -1.72,3.02 -1.94,5.38 -0.22,2.36 0.04,5.63 3.27,4.57 0.87,-0.25 4.49,-1.69 5.30,-4.21 0.26,-0.93 1.01,-2.61 -0.21,-4.31 -0.70,-1.00 -3.53,-2.69 -3.53,-2.69 0.00,0.00 2.17,-3.00 2.38,-3.37 0.21,-0.37 1.00,-2.69 1.09,-3.26 0.09,-0.56 0.13,-0.84 -0.29,-0.32 -0.42,0.52 -4.63,6.05 -4.63,6.05 z M 297.08,34.24 c -1.20,0.99 -3.72,2.29 -4.43,2.36 -0.71,0.07 -2.59,-0.28 -1.77,-2.20 0.28,-0.62 2.16,-3.84 2.16,-3.84 0.70,0.39 5.24,2.70 4.04,3.69 z" />
     </g>
</svg>
