<?xml version="1.0" encoding="UTF-8"?>
<svg version="1.1" id="Layer_1" x="0px" y="0px" width="578" height="50" viewBox="0 0 578 50"
xml:space="preserve" xmlns="http://www.w3.org/2000/svg" xmlns:svg="http://www.w3.org/2000/svg" xmlns:rdf="http://www.w3.org/1999/02/22-rdf-syntax-ns#"  xmlns:cc="http://creativecommons.org/ns#" xmlns:dc="http://purl.org/dc/elements/1.1/">
     <g>
<path d="M 290.88,35.53 c 0.31,3.02 0.55,5.73 0.55,7.19 -0.05,0.45 0.15,0.62 0.37,0.19 0.12,-0.23 0.62,-1.17 0.83,-3.68 0.16,-1.88 0.08,-4.78 -0.38,-8.77 -0.07,-0.58 -2.42,-20.85 -2.42,-20.85 0.00,0.00 1.51,1.45 1.76,1.72 0.24,0.26 0.55,0.13 0.42,-0.28 -0.13,-0.42 -3.11,-7.95 -3.21,-8.21 -0.10,-0.26 -0.19,-0.45 -0.33,-0.16 -0.14,0.30 -1.14,2.54 -1.14,2.54 0.02,0.13 0.25,1.13 0.29,1.50 0.36,3.28 2.62,22.68 3.26,28.81 z M 288.24,34.45 c -0.41,-0.26 -2.04,-1.00 -5.20,0.06 -1.85,-5.61 -4.11,-25.48 -4.11,-25.48 0.00,0.00 1.33,1.61 1.57,1.88 0.24,0.26 0.55,0.13 0.42,-0.28 -0.13,-0.42 -2.78,-7.80 -2.88,-8.06 -0.10,-0.26 -0.19,-0.45 -0.33,-0.16 -0.14,0.29 -1.21,2.45 -1.21,2.45 0.02,0.18 0.25,0.72 0.39,1.83 0.07,0.57 2.50,21.26 4.11,28.67 -2.90,1.34 -9.88,4.36 -11.99,-0.28 0.00,0.00 0.07,-0.36 0.15,-0.76 0.08,-0.40 -0.30,-1.04 -0.63,-0.35 -2.39,4.98 -5.02,5.13 -6.60,2.54 0.15,-0.38 0.46,-1.35 0.63,-1.80 0.17,-0.45 0.00,-1.10 -0.51,-0.48 -0.51,0.63 -2.72,4.03 -5.15,4.45 -0.61,0.11 -3.07,0.45 -3.50,-2.31 0.23,-0.87 0.33,-1.01 0.38,-1.32 0.05,-0.31 -0.05,-1.02 -0.73,-0.38 -0.68,0.64 -2.94,4.03 -7.01,4.40 -0.87,0.08 -4.84,0.36 -6.75,-4.39 -0.24,-0.60 -1.34,-6.77 -1.57,-8.05 -0.23,-1.29 -2.30,-10.53 -5.73,-13.70 -0.30,-0.20 -0.29,-0.01 -0.32,0.22 -0.04,0.23 -0.23,2.70 -0.23,2.70 0.38,0.76 4.14,8.31 4.80,14.05 0.08,0.80 0.25,1.49 -0.88,2.73 -0.32,0.37 -5.56,6.16 -11.36,8.30 -0.41,0.15 -2.91,0.92 -4.69,-0.21 -0.60,-0.38 -3.81,-3.48 0.09,-11.38 0.09,-0.14 0.12,-0.30 0.11,-0.42 0.66,-0.16 1.42,-0.91 1.95,-3.16 0.10,-0.58 0.16,-1.05 0.21,-1.28 0.06,-0.35 -0.17,-0.76 -0.38,0.04 -0.49,1.58 -1.82,2.70 -2.87,0.62 -0.17,-0.41 -0.89,-2.31 0.29,-6.51 0.24,-0.81 0.53,-2.03 0.53,-2.03 0.26,-0.92 -0.08,-1.41 -0.46,-0.29 -0.38,1.12 -1.97,5.00 -1.63,9.53 0.07,0.98 0.64,2.82 1.83,3.08 -0.08,0.10 -0.16,0.22 -0.25,0.39 -0.62,1.17 -3.52,6.82 -1.94,11.99 0.30,0.98 2.18,5.80 10.19,1.39 1.71,-0.94 8.71,-5.54 9.94,-9.64 0.55,1.80 1.40,9.09 7.72,9.24 1.32,0.03 4.91,-0.66 7.24,-3.52 1.43,4.93 6.05,2.44 6.49,2.18 0.44,-0.26 1.03,-0.68 2.07,-1.89 1.21,2.62 4.80,3.85 7.46,-0.88 3.39,4.15 10.75,1.11 13.88,-0.19 0.73,1.76 2.34,4.52 5.21,4.73 0.40,0.00 1.81,-0.07 2.72,-3.09 0.13,-0.45 1.00,-3.64 -1.45,-5.18 z M 287.71,39.37 c -0.68,-0.04 -1.86,-0.20 -2.90,-1.41 -0.13,-0.15 -0.29,-0.43 -0.47,-0.76 0.51,-0.08 1.02,-0.12 1.42,-0.10 1.05,0.06 2.01,0.73 2.31,1.23 0.27,0.44 0.33,1.08 -0.35,1.03 z M 221.71,8.31 c 0.16,0.09 0.34,0.10 0.39,-0.09 0.05,-0.19 0.27,-0.65 0.59,-0.32 0.27,0.27 1.99,1.69 2.88,4.71 0.16,0.40 0.53,0.44 0.61,-0.13 0.21,-1.40 0.32,-3.82 0.43,-4.56 0.16,-1.03 0.65,-3.16 1.96,-2.06 0.30,0.25 0.61,0.58 0.61,0.58 0.28,0.35 0.63,0.75 0.80,0.35 0.26,-0.61 0.46,-1.62 0.18,-2.17 -0.12,-0.24 -1.75,-2.30 -2.85,-0.89 -1.37,1.74 -1.46,4.03 -1.64,6.58 -0.19,-0.53 -1.29,-3.95 -4.78,-5.91 -0.25,-0.14 -0.77,0.13 -0.82,0.93 -0.03,0.47 -0.16,1.61 0.17,1.93 0.33,0.32 1.31,0.96 1.47,1.05 z M 261.64,24.97 c -0.10,0.42 -0.15,0.66 -0.18,0.73 -0.11,0.28 -0.19,0.52 0.63,0.13 0.27,-0.13 12.26,-5.33 12.76,-5.58 0.48,-0.24 0.73,-0.38 0.93,-0.82 0.20,-0.43 0.25,-0.51 0.36,-0.81 0.11,-0.32 0.27,-0.57 -0.60,-0.21 -0.62,0.26 -12.41,5.44 -13.04,5.72 -0.60,0.26 -0.76,0.42 -0.86,0.84 z M 244.72,21.17 c -0.12,0.51 -0.19,0.80 -0.22,0.88 -0.13,0.34 -0.23,0.64 0.77,0.15 0.33,-0.16 25.78,-11.54 26.38,-11.83 0.59,-0.29 0.89,-0.46 1.13,-0.99 0.24,-0.52 0.30,-0.61 0.43,-0.98 0.14,-0.39 0.33,-0.69 -0.73,-0.25 -0.75,0.31 -25.96,11.66 -26.72,12.00 -0.72,0.32 -0.92,0.51 -1.04,1.01 z M 238.42,42.09 c -0.55,0.28 -8.15,4.15 -8.72,4.47 -0.57,0.32 -0.77,0.40 -0.88,0.81 -0.11,0.41 -0.17,0.66 -0.20,0.72 -0.12,0.27 -0.21,0.62 0.63,0.14 0.26,-0.15 7.97,-4.07 8.44,-4.34 0.47,-0.27 0.75,-0.36 0.96,-0.79 0.21,-0.42 0.26,-0.50 0.38,-0.80 0.12,-0.32 0.25,-0.65 -0.60,-0.22 z M 284.97,23.99 c 0.44,0.00 1.00,-0.32 1.41,-1.69 0.07,-0.31 0.11,-0.56 0.14,-0.68 0.04,-0.19 -0.09,-0.41 -0.24,0.02 -0.32,0.84 -1.15,1.43 -1.78,0.30 -0.10,-0.22 -0.52,-1.25 0.25,-3.49 0.15,-0.43 0.35,-1.08 0.35,-1.08 0.17,-0.49 -0.03,-0.76 -0.28,-0.16 -0.24,0.60 -1.27,2.66 -1.11,5.10 0.04,0.56 0.41,1.66 1.26,1.69 z M 278.75,41.89 c -0.41,-0.16 -1.05,-0.08 -1.94,1.04 -0.18,0.26 -0.32,0.48 -0.39,0.58 -0.11,0.16 -0.07,0.41 0.23,0.07 0.61,-0.66 1.61,-0.89 1.76,0.39 0.01,0.25 0.02,1.35 -1.54,3.14 -0.31,0.34 -0.73,0.87 -0.73,0.87 -0.34,0.39 -0.25,0.71 0.20,0.25 0.45,-0.46 2.18,-1.99 2.94,-4.31 0.18,-0.54 0.24,-1.69 -0.53,-2.04 z M 258.87,43.20 c -0.41,-0.16 -1.05,-0.08 -1.94,1.04 -0.18,0.26 -0.32,0.48 -0.39,0.58 -0.11,0.16 -0.07,0.41 0.23,0.07 0.61,-0.66 1.61,-0.90 1.76,0.39 0.01,0.24 0.02,1.35 -1.54,3.14 -0.31,0.34 -0.73,0.87 -0.73,0.87 -0.34,0.39 -0.25,0.71 0.20,0.25 0.45,-0.46 2.18,-1.99 2.95,-4.31 0.18,-0.53 0.24,-1.69 -0.53,-2.04 z M 259.06,11.21 c 0.46,0.00 1.06,-0.34 1.48,-1.79 0.07,-0.33 0.12,-0.59 0.15,-0.72 0.05,-0.20 -0.10,-0.43 -0.25,0.02 -0.34,0.89 -1.22,1.51 -1.87,0.32 -0.11,-0.24 -0.55,-1.32 0.26,-3.68 0.16,-0.46 0.37,-1.14 0.37,-1.14 0.18,-0.52 -0.04,-0.80 -0.30,-0.17 -0.26,0.63 -1.34,2.81 -1.18,5.38 0.04,0.59 0.43,1.75 1.33,1.78 z M 251.21,23.95 c 0.21,-0.55 -0.03,-0.86 -0.32,-0.18 -0.29,0.67 -1.50,2.98 -1.37,5.74 0.03,0.64 0.44,1.88 1.41,1.93 0.50,0.01 1.16,-0.34 1.64,-1.89 0.09,-0.35 0.14,-0.63 0.18,-0.77 0.05,-0.21 -0.10,-0.46 -0.27,0.02 -0.38,0.95 -1.35,1.60 -2.04,0.31 -0.11,-0.25 -0.58,-1.42 0.35,-3.93 0.19,-0.49 0.42,-1.22 0.42,-1.22 z M 228.26,28.05 c -0.11,-0.26 -0.58,-1.42 0.35,-3.93 0.19,-0.49 0.42,-1.22 0.42,-1.22 0.21,-0.55 -0.03,-0.86 -0.32,-0.18 -0.29,0.67 -1.50,2.98 -1.37,5.73 0.03,0.64 0.44,1.88 1.41,1.93 0.50,0.01 1.16,-0.34 1.64,-1.89 0.09,-0.35 0.14,-0.63 0.18,-0.77 0.05,-0.21 -0.10,-0.46 -0.27,0.02 -0.38,0.95 -1.35,1.60 -2.04,0.31 z M 244.60,15.59 c 0.60,-0.01 1.37,-0.51 1.89,-2.63 0.09,-0.48 0.14,-0.86 0.18,-1.05 0.06,-0.29 -0.14,-0.62 -0.32,0.03 -0.42,1.30 -1.55,2.22 -2.43,0.50 -0.14,-0.34 -0.74,-1.91 0.27,-5.36 0.20,-0.67 0.46,-1.67 0.46,-1.67 0.23,-0.75 -0.06,-1.16 -0.39,-0.24 -0.32,0.92 -1.68,4.11 -1.42,7.84 0.06,0.86 0.59,2.54 1.76,2.57 z M 353.10,14.30 c 0.18,-0.50 -0.04,-0.77 -0.29,-0.16 -0.25,0.61 -1.30,2.73 -1.14,5.22 0.04,0.58 0.42,1.70 1.29,1.73 0.45,0.00 1.03,-0.33 1.44,-1.73 0.07,-0.32 0.12,-0.57 0.15,-0.70 0.04,-0.19 -0.10,-0.42 -0.24,0.02 -0.33,0.86 -1.18,1.47 -1.82,0.31 -0.10,-0.23 -0.53,-1.28 0.26,-3.57 0.16,-0.44 0.36,-1.11 0.36,-1.11 z M 332.49,7.03 c 0.17,0.09 0.36,0.11 0.41,-0.10 0.05,-0.21 0.28,-0.68 0.62,-0.34 0.28,0.28 2.09,1.78 3.03,4.95 0.16,0.42 0.55,0.46 0.64,-0.14 0.22,-1.47 0.34,-4.02 0.45,-4.79 0.16,-1.08 0.68,-3.32 2.06,-2.16 0.31,0.27 0.64,0.61 0.64,0.61 0.29,0.37 0.66,0.79 0.84,0.36 0.27,-0.64 0.49,-1.70 0.19,-2.28 -0.13,-0.25 -1.84,-2.41 -3.00,-0.93 -1.44,1.83 -1.53,4.23 -1.72,6.91 -0.20,-0.56 -1.35,-4.16 -5.02,-6.21 -0.27,-0.15 -0.81,0.13 -0.86,0.98 -0.03,0.49 -0.17,1.69 0.18,2.03 0.35,0.34 1.37,1.00 1.54,1.10 z M 358.68,24.89 c -0.25,-0.28 -0.37,-0.01 -0.46,0.31 -0.09,0.32 -0.36,1.52 -0.54,2.27 0.00,0.00 0.71,1.16 0.97,1.75 0.25,0.59 -0.12,0.92 -0.86,1.01 -2.08,0.25 -3.73,-0.94 -4.30,-1.48 -0.57,-0.55 0.05,-1.52 0.51,-2.68 0.37,-0.93 -0.32,-1.04 -0.84,0.00 -1.76,4.63 -4.23,5.13 -4.88,5.30 -5.86,1.60 -5.36,-3.76 -5.34,-4.64 0.02,-0.88 -0.62,-0.55 -1.34,0.03 -2.47,1.98 -4.45,3.14 -5.52,3.62 -0.92,-1.80 -2.26,-2.93 -2.82,-3.34 -6.34,-4.63 -6.87,4.71 -6.67,5.71 0.97,3.97 7.45,1.56 8.46,1.44 1.02,-0.12 0.68,1.22 0.11,2.02 -1.41,1.97 -3.03,3.38 -4.50,4.58 -6.28,5.13 -9.44,4.72 -10.41,4.69 -6.17,-0.17 -5.60,-6.82 -5.26,-8.24 1.86,-1.57 3.45,-3.28 4.38,-5.04 0.38,-0.96 1.03,-3.16 -0.15,-5.91 -0.62,-1.21 -2.56,-4.61 -2.56,-4.61 0.00,0.00 1.43,0.04 1.57,0.04 0.14,0.00 0.41,-0.14 0.06,-0.54 -0.35,-0.40 -3.36,-3.41 -3.54,-3.65 -0.18,-0.24 -0.35,-0.42 -0.45,-0.06 -0.10,0.35 -0.36,1.88 -0.42,2.20 -0.06,0.31 -0.06,0.63 0.10,0.90 0.16,0.27 0.55,1.20 0.84,1.96 0.29,0.76 3.25,6.47 3.53,6.98 0.27,0.51 0.33,0.88 0.06,1.22 -9.53,10.05 -27.91,16.23 -28.50,16.58 -0.59,0.34 -0.43,0.61 0.56,0.43 1.48,-0.26 9.74,-1.64 12.09,-2.78 1.55,-0.75 6.97,-3.41 11.41,-6.89 -0.12,0.90 -0.24,2.22 -0.17,3.89 0.30,8.08 7.53,6.74 9.43,6.33 5.68,-1.25 12.64,-9.11 13.23,-10.69 0.58,-1.56 0.67,-2.98 0.54,-4.22 1.50,-0.81 4.71,-3.40 4.71,-3.40 0.13,3.45 2.87,4.48 3.72,4.63 3.96,0.60 5.94,-2.70 6.78,-3.78 0.72,1.89 2.45,2.26 3.34,2.43 3.41,0.68 4.08,-1.73 4.25,-2.29 1.07,-3.33 -0.86,-5.81 -1.11,-6.08 z M 330.04,31.57 c -2.03,-0.14 -1.85,-0.92 -1.57,-1.22 0.30,-0.33 2.78,-1.89 4.85,0.89 0.00,0.00 -0.86,0.50 -3.28,0.33 z M 350.34,6.37 c 0.79,0.58 1.94,1.04 1.94,1.04 -3.66,4.49 -10.85,7.67 -12.56,9.01 -0.51,0.39 -0.44,0.61 -0.12,0.53 0.28,-0.08 5.76,-1.61 10.76,-5.90 2.29,-1.96 2.23,-2.11 2.81,-3.31 0.50,0.26 0.84,0.67 1.03,0.91 0.28,0.34 0.43,0.60 0.56,0.23 0.48,-1.33 -0.20,-2.13 -0.84,-2.54 0.00,0.00 0.67,-2.07 -0.56,-4.14 -0.21,-0.35 -1.43,-1.46 -2.85,0.74 -0.55,0.84 -0.96,2.85 -0.17,3.42 z M 351.07,4.34 c 0.73,-1.02 1.08,-0.99 1.36,-0.82 0.82,0.77 0.70,2.02 0.67,2.31 0.00,0.00 -1.05,-0.49 -1.52,-0.69 -0.47,-0.20 -0.72,-0.50 -0.50,-0.80 z M 326.99,20.27 c 0.49,0.00 1.11,-0.35 1.55,-1.87 0.08,-0.34 0.13,-0.62 0.16,-0.75 0.05,-0.21 -0.10,-0.45 -0.26,0.02 -0.36,0.93 -1.27,1.58 -1.96,0.33 -0.11,-0.25 -0.58,-1.38 0.28,-3.86 0.17,-0.48 0.39,-1.20 0.39,-1.20 0.19,-0.54 -0.04,-0.84 -0.31,-0.17 -0.27,0.66 -1.40,2.94 -1.23,5.63 0.04,0.62 0.45,1.83 1.39,1.87 z M 299.57,23.91 c 0.00,0.00 1.25,-0.31 1.47,-0.38 0.22,-0.06 0.34,-0.35 -0.05,-0.55 -0.39,-0.20 -4.09,-1.67 -4.37,-1.79 -0.28,-0.11 -0.38,-0.24 -0.41,0.06 -0.02,0.30 -0.07,2.73 -0.07,2.73 0.00,0.00 -0.06,0.17 0.27,0.35 0.32,0.18 0.64,0.58 0.90,0.84 0.26,0.26 3.70,2.98 3.87,3.07 0.00,0.00 -1.72,3.02 -1.94,5.38 -0.22,2.36 0.04,5.63 3.27,4.57 0.87,-0.25 4.49,-1.69 5.30,-4.21 0.26,-0.93 1.01,-2.61 -0.21,-4.31 -0.70,-1.00 -3.53,-2.69 -3.53,-2.69 0.00,0.00 2.17,-3.00 2.38,-3.37 0.21,-0.37 1.00,-2.69 1.09,-3.26 0.09,-0.56 0.13,-0.85 -0.29,-0.32 -0.42,0.52 -4.63,6.05 -4.63,6.05 z M 306.53,32.79 c -1.20,0.99 -3.72,2.29 -4.43,2.36 -0.71,0.07 -2.59,-0.28 -1.77,-2.20 0.28,-0.62 2.16,-3.84 2.16,-3.84 0.70,0.39 5.24,2.70 4.04,3.69 z M 300.20,14.16 c -0.06,-0.05 -0.15,-0.03 -0.20,0.04 -1.53,2.10 -1.53,2.10 -1.53,2.10 -0.05,0.07 -0.04,0.16 0.03,0.20 2.61,1.91 2.61,1.91 2.61,1.91 0.06,0.05 0.15,0.03 0.20,-0.04 1.32,-1.81 1.32,-1.81 1.32,-1.81 2.54,1.85 2.54,1.85 2.54,1.85 0.06,0.05 0.15,0.03 0.20,-0.04 1.53,-2.10 1.53,-2.10 1.53,-2.10 0.05,-0.07 0.04,-0.16 -0.03,-0.20 -2.61,-1.91 -2.61,-1.91 -2.61,-1.91 -0.06,-0.05 -0.15,-0.03 -0.20,0.04 -1.32,1.81 -1.32,1.81 -1.32,1.81 z M 309.30,12.30 c 0.25,-0.16 13.84,-8.02 14.32,-8.32 0.46,-0.28 0.72,-0.41 0.90,-0.85 0.18,-0.44 0.23,-0.51 0.33,-0.82 0.10,-0.32 0.21,-0.67 -0.61,-0.19 -0.53,0.31 -14.04,8.11 -14.59,8.46 -0.55,0.35 -0.74,0.44 -0.83,0.87 -0.09,0.42 -0.13,0.67 -0.15,0.73 -0.10,0.28 -0.17,0.63 0.64,0.11 z M 292.62,13.78 c 0.17,-0.04 3.05,-0.49 6.41,-3.05 1.82,-1.38 2.92,-3.74 2.92,-3.74 0.00,0.00 0.91,0.76 1.03,0.91 0.28,0.34 0.43,0.60 0.56,0.23 0.48,-1.33 -0.20,-2.13 -0.84,-2.54 0.00,0.00 0.67,-2.07 -0.56,-4.14 -0.21,-0.35 -1.43,-1.46 -2.85,0.74 -0.55,0.84 -0.96,2.85 -0.17,3.42 0.79,0.58 1.94,1.04 1.94,1.04 -3.66,4.48 -6.16,5.34 -8.30,6.59 -0.55,0.32 -0.44,0.61 -0.12,0.53 z M 300.33,4.39 c -0.47,-0.20 -0.72,-0.50 -0.50,-0.80 0.73,-1.02 1.08,-0.99 1.36,-0.82 0.82,0.77 0.70,2.02 0.67,2.31 0.00,0.00 -1.05,-0.49 -1.52,-0.69 z M 355.47,37.21 c -0.24,0.68 -0.34,1.12 -0.31,1.38 0.03,0.26 0.12,1.09 0.12,1.09 -0.25,0.20 -1.33,0.87 -2.40,0.08 0.07,-0.23 0.21,-0.70 0.24,-0.95 0.12,-0.40 -0.13,-0.69 -0.32,-0.28 -0.20,0.41 -0.65,1.79 -0.99,2.10 -0.34,0.31 -0.73,1.45 -3.30,0.29 -0.45,-0.17 -1.23,-0.75 -2.46,0.48 -2.77,2.57 -4.68,2.77 -7.79,3.88 -0.38,0.17 -1.16,0.76 -0.23,0.67 0.94,-0.09 4.87,0.00 7.01,-2.46 0.45,-0.43 0.96,-1.58 2.66,-0.92 0.94,0.36 2.68,1.85 4.58,-1.10 1.12,0.75 2.82,0.45 3.09,-0.38 0.27,-0.82 0.58,-1.64 0.58,-2.20 0.00,-0.56 -0.05,-1.30 -0.05,-1.30 -0.04,-0.44 -0.19,-1.07 -0.44,-0.40 z" />
     </g>
</svg>
