<?xml version="1.0" encoding="UTF-8"?>
<svg version="1.1" id="Layer_1" x="0px" y="0px" width="578" height="57" viewBox="0 0 578 57"
xml:space="preserve" xmlns="http://www.w3.org/2000/svg" xmlns:svg="http://www.w3.org/2000/svg" xmlns:rdf="http://www.w3.org/1999/02/22-rdf-syntax-ns#"  xmlns:cc="http://creativecommons.org/ns#" xmlns:dc="http://purl.org/dc/elements/1.1/">
     <g>
<path d="M 270.72,21.77 c -1.92,2.63 -1.92,2.63 -1.92,2.63 -0.06,0.08 -0.05,0.20 0.03,0.25 3.27,2.38 3.27,2.38 3.27,2.38 0.08,0.06 0.19,0.04 0.25,-0.05 1.91,-2.63 1.91,-2.63 1.91,-2.63 0.06,-0.08 0.05,-0.20 -0.03,-0.25 -3.27,-2.38 -3.27,-2.38 -3.27,-2.38 -0.08,-0.06 -0.19,-0.04 -0.25,0.05 z M 309.39,47.61 c -0.05,0.46 0.15,0.64 0.37,0.20 0.12,-0.23 0.63,-1.20 0.86,-3.78 0.17,-1.93 0.12,-4.91 -0.30,-9.03 -0.06,-0.60 -2.25,-21.45 -2.25,-21.45 0.00,0.00 1.50,1.50 1.74,1.78 0.24,0.27 0.55,0.14 0.42,-0.29 -0.13,-0.43 -3.05,-8.20 -3.14,-8.47 -0.09,-0.27 -0.19,-0.47 -0.33,-0.16 -0.14,0.30 -1.16,2.60 -1.16,2.60 0.02,0.14 0.24,1.16 0.28,1.55 0.33,3.38 2.43,23.34 3.02,29.65 0.29,3.11 0.50,5.90 0.49,7.39 z M 299.95,43.75 c 0.84,-1.72 2.50,-4.94 1.27,-13.11 -0.28,-3.34 -2.07,-17.26 -2.07,-17.26 0.00,0.00 1.50,1.52 1.74,1.80 0.24,0.27 0.55,0.14 0.42,-0.29 -0.13,-0.43 -3.04,-8.30 -3.14,-8.57 -0.09,-0.27 -0.19,-0.47 -0.33,-0.17 -0.14,0.31 -1.23,2.54 -1.23,2.54 0.02,0.19 0.24,0.75 0.37,1.90 0.13,1.20 0.32,2.91 0.53,4.79 0.00,0.00 3.30,22.46 2.62,24.41 -0.09,0.27 -0.23,0.61 -0.42,1.01 0.11,-1.82 -0.11,-4.62 -1.83,-7.02 -2.26,-3.15 -6.69,-7.03 -7.67,-8.05 -0.73,-0.76 -4.68,-4.63 -6.73,-7.46 -0.91,-1.30 -1.99,-3.04 -1.99,-3.04 0.67,0.28 1.49,0.53 1.94,0.70 0.45,0.17 0.98,0.03 0.32,-0.62 -0.66,-0.66 -5.71,-4.64 -6.10,-5.11 -0.39,-0.47 -0.44,-0.39 -0.48,-0.04 -0.04,0.36 -0.07,2.23 -0.07,2.82 0.01,0.58 0.12,0.79 0.37,0.98 0.25,0.19 0.64,0.48 0.90,0.92 0.26,0.44 4.88,7.78 9.01,11.66 0.53,0.59 8.04,6.52 10.74,12.21 0.57,1.19 0.77,2.34 0.79,3.45 -1.76,2.71 -5.70,6.74 -14.42,10.01 -0.73,0.32 -0.64,0.83 0.88,0.42 1.52,-0.40 10.93,-0.71 14.57,-8.89 z M 247.51,11.39 c 0.58,0.17 0.88,0.55 1.01,0.77 0.05,0.09 0.16,0.04 0.19,-0.01 0.83,-1.25 0.32,-2.16 -0.79,-2.63 -0.44,-0.19 -0.57,-0.84 1.25,-1.73 1.68,-0.82 13.36,-5.25 13.74,-5.46 0.51,-0.27 0.80,-0.36 1.04,-0.81 0.24,-0.45 0.29,-0.52 0.43,-0.84 0.14,-0.33 0.29,-0.69 -0.63,-0.26 -0.48,0.23 -13.75,5.12 -15.17,6.01 -0.71,0.45 -1.35,1.22 -1.65,2.10 -0.43,1.28 -0.26,2.61 0.58,2.85 z M 227.59,49.90 c 1.68,-0.82 14.49,-5.93 14.87,-6.13 0.51,-0.27 0.80,-0.36 1.04,-0.81 0.24,-0.45 0.29,-0.52 0.43,-0.84 0.14,-0.33 0.29,-0.69 -0.63,-0.26 -0.48,0.23 -14.88,5.79 -16.30,6.69 -0.71,0.45 -1.35,1.22 -1.65,2.10 -0.43,1.28 -0.26,2.61 0.58,2.85 0.58,0.17 0.88,0.55 1.01,0.77 0.05,0.09 0.16,0.04 0.19,-0.01 0.83,-1.25 0.32,-2.17 -0.79,-2.63 -0.44,-0.19 -0.57,-0.84 1.25,-1.73 z M 265.95,17.62 c 0.36,-0.39 0.62,-0.79 1.68,-0.76 1.07,0.03 3.62,-0.07 2.66,0.63 -0.95,0.70 -1.60,1.11 -1.60,1.11 -0.62,0.44 -1.16,1.28 -0.07,0.81 1.09,-0.46 2.54,-1.19 3.65,-2.86 0.32,-0.49 0.70,-1.14 -0.80,-1.36 -1.50,-0.22 -3.93,-0.57 -4.71,0.28 -0.78,0.86 -1.03,1.44 -1.26,1.81 -0.32,0.50 0.08,0.73 0.45,0.34 z M 202.64,18.23 c 0.66,-0.37 4.49,-1.86 5.12,-5.65 0.05,-0.50 -0.05,-0.87 -0.17,-1.12 0.05,0.01 0.11,0.05 0.17,0.11 0.27,0.27 1.99,1.69 2.88,4.71 0.15,0.40 0.53,0.44 0.61,-0.13 0.21,-1.39 0.32,-3.82 0.43,-4.56 0.16,-1.03 0.65,-3.16 1.96,-2.06 0.30,0.25 0.61,0.58 0.61,0.58 0.28,0.35 0.63,0.75 0.80,0.35 0.26,-0.61 0.46,-1.62 0.18,-2.17 -0.12,-0.24 -1.75,-2.29 -2.85,-0.89 -1.37,1.74 -1.46,4.03 -1.64,6.58 -0.19,-0.53 -1.29,-3.95 -4.78,-5.91 -0.25,-0.14 -0.77,0.13 -0.82,0.93 -0.03,0.47 -0.16,1.61 0.17,1.93 0.32,0.31 2.68,1.14 1.40,2.49 -0.57,0.61 -3.45,3.59 -4.06,4.31 -0.62,0.72 -0.68,0.85 -0.01,0.49 z M 300.14,52.05 c -0.67,-0.13 -1.45,-0.70 -1.63,-0.98 -0.17,-0.27 -0.15,-0.58 0.38,-0.89 0.53,-0.30 1.10,-0.51 1.51,0.16 0.08,0.11 0.16,0.11 0.34,-0.06 0.17,-0.17 0.51,-0.65 0.60,-0.78 0.09,-0.14 0.17,-0.36 0.02,-0.53 -0.14,-0.17 -0.72,-0.97 -1.66,-0.24 -0.94,0.73 -3.10,2.83 -2.13,3.81 0.56,0.46 0.82,0.68 0.82,0.68 -0.26,0.10 -0.49,0.35 -0.65,0.68 -0.16,0.32 -0.18,0.39 -0.26,0.57 -0.08,0.18 -0.13,0.43 0.32,0.17 0.45,-0.26 1.51,-1.26 4.38,-1.89 0.40,-0.08 0.75,-0.74 0.75,-0.74 0.17,-0.28 0.50,-0.92 -0.06,-0.60 -0.56,0.32 -2.05,0.76 -2.72,0.64 z M 280.60,49.73 c -0.36,0.90 -1.25,1.52 -1.90,0.30 -0.10,-0.24 -0.54,-1.34 0.32,-3.73 0.17,-0.46 0.39,-1.15 0.39,-1.15 0.19,-0.52 -0.03,-0.81 -0.30,-0.17 -0.27,0.64 -1.40,2.83 -1.26,5.44 0.03,0.60 0.41,1.78 1.32,1.82 0.47,0.00 1.08,-0.33 1.53,-1.79 0.08,-0.33 0.13,-0.60 0.16,-0.73 0.05,-0.20 -0.09,-0.44 -0.25,0.02 z M 281.70,23.94 c 0.17,-0.45 -0.02,-0.70 -0.26,-0.15 -0.23,0.55 -1.21,2.45 -1.09,4.71 0.03,0.52 0.36,1.54 1.14,1.58 0.41,0.00 0.93,-0.28 1.32,-1.55 0.07,-0.29 0.11,-0.52 0.14,-0.63 0.04,-0.17 -0.08,-0.38 -0.22,0.02 -0.31,0.78 -1.09,1.31 -1.65,0.26 -0.09,-0.21 -0.47,-1.16 0.28,-3.23 0.15,-0.40 0.34,-1.00 0.34,-1.00 z M 289.43,15.70 c 0.50,0.01 1.15,-0.35 1.63,-1.91 0.08,-0.35 0.14,-0.64 0.17,-0.78 0.05,-0.21 -0.10,-0.46 -0.27,0.02 -0.38,0.96 -1.33,1.61 -2.03,0.32 -0.11,-0.26 -0.58,-1.43 0.34,-3.97 0.18,-0.49 0.42,-1.23 0.42,-1.23 0.21,-0.55 -0.03,-0.86 -0.32,-0.18 -0.29,0.68 -1.49,3.02 -1.35,5.79 0.03,0.64 0.44,1.89 1.41,1.94 z M 262.37,49.90 c -0.44,0.90 -1.48,1.49 -2.16,0.21 -0.11,-0.25 -0.55,-1.41 0.52,-3.81 0.21,-0.47 0.49,-1.16 0.49,-1.16 0.24,-0.52 0.01,-0.83 -0.33,-0.19 -0.33,0.64 -1.70,2.84 -1.66,5.52 0.01,0.62 0.39,1.85 1.41,1.94 0.53,0.03 1.23,-0.28 1.80,-1.76 0.10,-0.34 0.17,-0.61 0.21,-0.74 0.06,-0.20 -0.09,-0.45 -0.29,0.00 z M 212.07,43.56 c 0.53,0.03 1.23,-0.28 1.80,-1.76 0.10,-0.34 0.17,-0.61 0.21,-0.74 0.06,-0.20 -0.09,-0.45 -0.29,0.00 -0.44,0.90 -1.48,1.49 -2.16,0.21 -0.11,-0.25 -0.55,-1.41 0.52,-3.81 0.21,-0.47 0.49,-1.16 0.49,-1.16 0.24,-0.53 0.01,-0.83 -0.33,-0.19 -0.33,0.64 -1.70,2.84 -1.66,5.52 0.01,0.62 0.39,1.85 1.41,1.94 z M 211.73,22.03 c 0.24,-0.53 0.01,-0.83 -0.33,-0.19 -0.33,0.64 -1.70,2.84 -1.66,5.52 0.01,0.62 0.39,1.85 1.41,1.94 0.53,0.03 1.23,-0.28 1.80,-1.76 0.10,-0.34 0.17,-0.61 0.21,-0.74 0.06,-0.20 -0.09,-0.45 -0.29,0.00 -0.44,0.90 -1.48,1.49 -2.16,0.21 -0.11,-0.25 -0.55,-1.41 0.52,-3.81 0.21,-0.47 0.49,-1.16 0.49,-1.16 z M 226.54,20.24 c 0.75,-0.04 1.70,-0.60 2.27,-2.79 0.09,-0.49 0.14,-0.89 0.18,-1.08 0.06,-0.30 -0.20,-0.63 -0.41,0.05 -0.48,1.35 -1.86,2.36 -3.03,0.65 -0.19,-0.34 -1.01,-1.91 0.12,-5.49 0.23,-0.70 0.51,-1.73 0.51,-1.73 0.25,-0.78 -0.13,-1.18 -0.50,-0.22 -0.37,0.96 -1.95,4.30 -1.46,8.10 0.11,0.88 0.85,2.56 2.31,2.52 z M 376.94,30.16 c -0.25,-0.28 -0.37,-0.01 -0.46,0.31 -0.09,0.32 -0.36,1.52 -0.53,2.27 0.00,0.00 0.71,1.16 0.97,1.75 0.25,0.59 -0.12,0.92 -0.86,1.01 -2.08,0.25 -3.73,-0.94 -4.30,-1.48 -0.57,-0.55 0.05,-1.52 0.51,-2.68 0.37,-0.93 -0.32,-1.04 -0.84,0.00 -1.76,4.63 -4.23,5.13 -4.88,5.30 -5.86,1.60 -5.36,-3.76 -5.34,-4.64 0.02,-0.88 -0.62,-0.55 -1.34,0.03 -2.47,1.98 -4.45,3.14 -5.52,3.62 -0.92,-1.80 -2.26,-2.93 -2.82,-3.34 -6.34,-4.63 -6.86,4.71 -6.67,5.71 0.97,3.97 7.44,1.56 8.46,1.44 1.02,-0.12 0.68,1.22 0.11,2.02 -1.41,1.97 -3.03,3.38 -4.50,4.58 -6.28,5.13 -9.44,4.72 -10.41,4.69 -6.17,-0.17 -5.60,-6.82 -5.26,-8.24 1.86,-1.57 3.45,-3.28 4.38,-5.04 0.38,-0.96 1.03,-3.16 -0.15,-5.91 -0.62,-1.21 -2.56,-4.60 -2.56,-4.60 0.00,0.00 1.43,0.04 1.57,0.04 0.14,0.00 0.41,-0.14 0.06,-0.54 -0.35,-0.40 -3.36,-3.40 -3.54,-3.65 -0.18,-0.24 -0.35,-0.41 -0.45,-0.06 -0.10,0.36 -0.36,1.88 -0.42,2.20 -0.06,0.31 -0.06,0.63 0.10,0.90 0.15,0.27 0.55,1.20 0.84,1.96 0.29,0.76 3.26,6.47 3.53,6.98 0.27,0.51 0.33,0.88 0.06,1.22 -9.53,10.05 -27.91,16.23 -28.50,16.58 -0.59,0.34 -0.43,0.61 0.56,0.43 1.48,-0.26 9.74,-1.64 12.09,-2.78 1.55,-0.75 6.97,-3.41 11.41,-6.89 -0.12,0.90 -0.24,2.22 -0.18,3.89 0.30,8.08 7.53,6.74 9.43,6.33 5.68,-1.25 12.64,-9.11 13.23,-10.69 0.58,-1.56 0.67,-2.98 0.54,-4.22 1.50,-0.81 4.71,-3.40 4.71,-3.40 0.13,3.45 2.88,4.48 3.72,4.63 3.96,0.60 5.94,-2.71 6.78,-3.78 0.72,1.89 2.45,2.26 3.34,2.43 3.41,0.68 4.08,-1.73 4.25,-2.29 1.07,-3.33 -0.86,-5.81 -1.11,-6.08 z M 348.30,36.83 c -2.03,-0.14 -1.85,-0.92 -1.57,-1.22 0.30,-0.33 2.78,-1.89 4.85,0.89 0.00,0.00 -0.86,0.50 -3.28,0.33 z M 317.83,29.17 c 0.00,0.00 1.25,-0.31 1.47,-0.38 0.22,-0.06 0.34,-0.35 -0.05,-0.55 -0.39,-0.20 -4.09,-1.67 -4.37,-1.79 -0.28,-0.11 -0.38,-0.24 -0.41,0.06 -0.02,0.30 -0.07,2.73 -0.07,2.73 0.00,0.00 -0.06,0.17 0.27,0.35 0.32,0.18 0.64,0.58 0.90,0.84 0.26,0.26 3.70,2.98 3.87,3.07 0.00,0.00 -1.72,3.02 -1.94,5.38 -0.22,2.36 0.04,5.63 3.27,4.57 0.87,-0.25 4.49,-1.69 5.30,-4.21 0.26,-0.93 1.01,-2.61 -0.21,-4.31 -0.70,-1.00 -3.53,-2.69 -3.53,-2.69 0.00,0.00 2.17,-3.00 2.38,-3.37 0.21,-0.37 1.00,-2.69 1.09,-3.26 0.09,-0.56 0.13,-0.84 -0.29,-0.32 -0.42,0.52 -4.63,6.05 -4.63,6.05 z M 324.79,38.06 c -1.20,0.99 -3.72,2.29 -4.43,2.36 -0.71,0.07 -2.59,-0.28 -1.77,-2.21 0.28,-0.62 2.16,-3.84 2.16,-3.84 0.70,0.39 5.24,2.70 4.04,3.69 z M 318.46,19.43 c -0.06,-0.05 -0.15,-0.03 -0.20,0.04 -1.53,2.10 -1.53,2.10 -1.53,2.10 -0.05,0.07 -0.04,0.16 0.03,0.20 2.61,1.91 2.61,1.91 2.61,1.91 0.06,0.05 0.15,0.03 0.20,-0.04 1.32,-1.81 1.32,-1.81 1.32,-1.81 2.54,1.85 2.54,1.85 2.54,1.85 0.06,0.05 0.15,0.03 0.20,-0.04 1.53,-2.10 1.53,-2.10 1.53,-2.10 0.05,-0.07 0.04,-0.16 -0.03,-0.20 -2.62,-1.91 -2.62,-1.91 -2.62,-1.91 -0.06,-0.05 -0.15,-0.03 -0.20,0.04 -1.32,1.81 -1.32,1.81 -1.32,1.81 z M 350.75,12.29 c 0.17,0.10 0.36,0.11 0.41,-0.10 0.05,-0.21 0.29,-0.68 0.62,-0.34 0.28,0.28 2.09,1.78 3.03,4.95 0.16,0.42 0.55,0.46 0.64,-0.14 0.22,-1.47 0.34,-4.02 0.45,-4.79 0.16,-1.09 0.68,-3.32 2.06,-2.16 0.31,0.26 0.64,0.61 0.64,0.61 0.29,0.37 0.66,0.79 0.84,0.36 0.27,-0.64 0.49,-1.70 0.19,-2.28 -0.13,-0.25 -1.84,-2.41 -3.00,-0.93 -1.44,1.83 -1.53,4.23 -1.72,6.91 -0.20,-0.56 -1.35,-4.15 -5.02,-6.21 -0.27,-0.15 -0.81,0.13 -0.86,0.98 -0.03,0.49 -0.17,1.69 0.18,2.03 0.35,0.34 1.37,1.01 1.54,1.10 z M 327.56,17.56 c 0.25,-0.16 13.84,-8.02 14.32,-8.31 0.46,-0.29 0.72,-0.41 0.91,-0.85 0.18,-0.44 0.23,-0.52 0.33,-0.82 0.10,-0.32 0.21,-0.67 -0.61,-0.19 -0.53,0.31 -14.04,8.11 -14.59,8.46 -0.55,0.35 -0.74,0.44 -0.83,0.87 -0.09,0.42 -0.13,0.67 -0.16,0.73 -0.10,0.28 -0.17,0.63 0.64,0.10 z M 303.20,54.05 c -0.43,0.16 -4.73,1.52 -5.17,1.71 -0.44,0.19 -0.60,0.23 -0.71,0.53 -0.12,0.30 -0.18,0.47 -0.20,0.52 -0.11,0.19 -0.20,0.44 0.45,0.15 0.20,-0.09 4.57,-1.48 4.95,-1.64 0.37,-0.15 0.58,-0.21 0.77,-0.51 0.19,-0.30 0.23,-0.35 0.34,-0.56 0.12,-0.22 0.23,-0.46 -0.42,-0.21 z M 371.36,19.56 c 0.18,-0.50 -0.04,-0.77 -0.29,-0.16 -0.25,0.61 -1.30,2.73 -1.14,5.22 0.04,0.58 0.42,1.70 1.29,1.73 0.45,0.00 1.03,-0.33 1.44,-1.73 0.07,-0.32 0.12,-0.57 0.15,-0.70 0.04,-0.19 -0.10,-0.42 -0.24,0.02 -0.33,0.86 -1.18,1.47 -1.82,0.31 -0.10,-0.23 -0.53,-1.28 0.26,-3.57 0.16,-0.44 0.36,-1.11 0.36,-1.11 z M 345.25,25.54 c 0.48,0.00 1.11,-0.35 1.55,-1.87 0.08,-0.34 0.13,-0.62 0.16,-0.75 0.05,-0.21 -0.10,-0.45 -0.26,0.02 -0.35,0.93 -1.27,1.58 -1.96,0.33 -0.11,-0.25 -0.58,-1.38 0.28,-3.86 0.17,-0.48 0.39,-1.20 0.39,-1.20 0.19,-0.54 -0.04,-0.84 -0.31,-0.17 -0.27,0.66 -1.40,2.94 -1.23,5.63 0.04,0.62 0.45,1.83 1.39,1.87 z M 368.60,11.63 c 0.79,0.58 1.93,1.04 1.93,1.04 -3.66,4.49 -10.84,7.67 -12.55,9.01 -0.51,0.39 -0.44,0.61 -0.12,0.53 0.29,-0.08 5.76,-1.61 10.76,-5.90 2.29,-1.97 2.23,-2.11 2.82,-3.30 0.50,0.26 0.84,0.67 1.03,0.91 0.28,0.34 0.43,0.60 0.56,0.23 0.48,-1.33 -0.20,-2.13 -0.84,-2.54 0.00,0.00 0.67,-2.07 -0.56,-4.14 -0.21,-0.35 -1.43,-1.46 -2.85,0.74 -0.55,0.84 -0.96,2.85 -0.17,3.42 z M 369.33,9.60 c 0.73,-1.02 1.08,-0.99 1.36,-0.82 0.82,0.77 0.70,2.02 0.67,2.31 0.00,0.00 -1.05,-0.49 -1.52,-0.69 -0.47,-0.20 -0.72,-0.50 -0.50,-0.80 z M 310.87,19.04 c 0.17,-0.04 3.05,-0.49 6.41,-3.05 1.82,-1.38 2.92,-3.74 2.92,-3.74 0.00,0.00 0.91,0.76 1.03,0.91 0.28,0.34 0.43,0.60 0.56,0.23 0.48,-1.33 -0.20,-2.13 -0.84,-2.54 0.00,0.00 0.67,-2.07 -0.56,-4.14 -0.21,-0.35 -1.43,-1.46 -2.85,0.74 -0.55,0.84 -0.96,2.85 -0.17,3.42 0.79,0.58 1.93,1.04 1.93,1.04 -3.66,4.49 -6.16,5.34 -8.30,6.60 -0.55,0.32 -0.44,0.61 -0.12,0.52 z M 318.59,9.65 c -0.47,-0.20 -0.72,-0.50 -0.50,-0.80 0.73,-1.02 1.08,-0.99 1.36,-0.82 0.83,0.77 0.70,2.02 0.67,2.31 0.00,0.00 -1.05,-0.49 -1.52,-0.69 z M 373.73,42.47 c -0.24,0.68 -0.34,1.12 -0.31,1.38 0.03,0.26 0.11,1.10 0.11,1.10 -0.25,0.20 -1.33,0.87 -2.40,0.08 0.07,-0.23 0.21,-0.70 0.24,-0.95 0.12,-0.40 -0.13,-0.69 -0.32,-0.28 -0.20,0.41 -0.65,1.79 -0.99,2.10 -0.34,0.31 -0.73,1.45 -3.30,0.29 -0.45,-0.17 -1.23,-0.75 -2.46,0.48 -2.77,2.57 -4.68,2.78 -7.79,3.88 -0.38,0.17 -1.16,0.77 -0.23,0.67 0.94,-0.09 4.87,0.00 7.01,-2.46 0.45,-0.43 0.96,-1.58 2.66,-0.92 0.94,0.36 2.68,1.85 4.58,-1.10 1.12,0.75 2.82,0.45 3.09,-0.38 0.27,-0.82 0.58,-1.64 0.58,-2.20 0.00,-0.56 -0.05,-1.30 -0.05,-1.30 -0.04,-0.44 -0.19,-1.07 -0.44,-0.40 z M 289.58,38.15 c 1.10,-2.97 1.10,-2.97 1.10,-2.97 0.00,0.00 -3.88,-0.27 -6.89,-1.29 -3.01,-1.03 -10.70,-3.50 -14.73,-3.12 -1.00,0.09 -2.17,0.23 -3.58,2.74 -1.41,2.51 -1.67,3.20 -0.42,6.51 0.10,0.27 0.28,0.73 0.48,1.29 -1.42,-0.69 -2.64,-1.90 -3.22,-3.92 -0.36,-1.25 -1.67,-10.47 -1.94,-12.83 -0.27,-2.36 -1.75,-15.34 -2.51,-17.93 -0.34,-1.07 -0.46,-0.38 -0.72,0.11 -0.27,0.49 -0.76,2.59 -0.53,4.15 0.23,1.56 2.66,20.33 2.59,21.62 -0.03,0.50 0.27,1.79 -0.43,3.74 -0.05,-1.73 -0.48,-4.11 -2.06,-6.12 -2.30,-2.92 -6.72,-6.45 -7.70,-7.38 -0.73,-0.70 -4.69,-4.23 -6.78,-6.86 -0.93,-1.21 -2.04,-2.83 -2.04,-2.83 0.65,0.23 1.45,0.44 1.89,0.58 0.44,0.14 0.94,-0.01 0.28,-0.62 -0.66,-0.60 -5.68,-4.19 -6.07,-4.62 -0.39,-0.43 -0.44,-0.36 -0.46,-0.02 -0.02,0.34 0.03,2.15 0.06,2.71 0.03,0.56 0.16,0.75 0.40,0.92 0.24,0.17 0.63,0.43 0.90,0.84 0.27,0.41 5.02,7.25 9.15,10.78 0.53,0.54 7.98,5.90 10.83,11.23 0.53,1.00 0.79,1.98 0.88,2.94 -1.70,3.06 -5.79,7.26 -15.49,12.32 -0.72,0.42 -0.86,0.92 0.19,0.57 1.06,-0.35 6.51,-1.89 8.18,-2.64 1.67,-0.75 7.30,-4.00 9.06,-11.04 0.00,0.00 0.97,6.73 6.82,8.14 0.24,0.82 0.39,1.50 0.37,1.81 -0.08,0.99 0.11,0.99 0.38,0.57 0.15,-0.24 0.56,-0.90 0.65,-2.16 0.36,0.03 0.72,0.05 1.11,0.04 2.29,-0.05 6.71,-0.93 11.48,-4.14 5.68,-3.81 8.76,-3.15 8.76,-3.15 z M 267.80,42.00 c -0.04,-0.13 -0.07,-0.25 -0.11,-0.38 -0.46,-1.48 -1.52,-4.26 -1.75,-4.91 -0.23,-0.65 -0.19,-2.48 1.90,-2.66 6.84,-0.62 15.49,2.89 15.49,2.89 -1.30,0.88 -8.34,4.23 -10.70,4.83 -1.07,0.28 -2.95,0.54 -4.84,0.23 z M 225.09,38.20 c 0.00,0.00 0.00,0.00 0.00,0.00 10.47,2.82 19.00,-2.92 19.60,-3.39 0.60,-0.47 1.03,-2.03 1.46,-3.42 0.43,-1.40 0.10,-2.36 -0.37,-3.02 -1.13,-1.63 -3.56,-3.39 -5.72,-3.99 -4.52,-1.10 -8.11,3.59 -8.84,4.55 -0.57,0.75 -3.04,4.18 -4.50,6.39 -1.40,-0.43 -2.28,-0.99 -2.78,-1.34 -0.42,-1.12 -0.95,-2.26 -1.61,-3.27 -0.40,-0.53 -0.40,-0.13 -0.53,0.33 -0.13,0.46 -0.33,2.11 -0.33,2.11 0.63,1.29 2.71,5.58 2.44,6.67 -0.26,1.09 -0.53,2.64 -5.61,5.41 -0.99,0.56 -9.50,6.01 -16.14,2.57 -0.76,-0.36 -4.51,-2.90 -3.40,-9.04 0.27,-1.48 0.60,-2.53 0.99,-3.79 0.06,-0.20 0.12,-0.40 0.16,-0.58 0.38,0.55 0.89,0.95 1.53,0.94 0.76,-0.05 1.71,-0.74 2.25,-3.53 0.08,-0.63 0.13,-1.13 0.17,-1.38 0.05,-0.38 -0.21,-0.81 -0.41,0.06 -0.46,1.72 -1.84,2.98 -3.06,0.78 -0.20,-0.44 -1.05,-2.45 0.04,-7.01 0.22,-0.89 0.49,-2.20 0.49,-2.20 0.25,-1.00 -0.15,-1.51 -0.51,-0.29 -0.36,1.22 -1.91,5.46 -1.36,10.32 0.04,0.33 0.13,0.76 0.29,1.19 -0.05,0.11 -0.10,0.24 -0.16,0.39 -0.69,1.88 -2.28,5.77 -1.98,10.36 0.09,1.32 1.09,8.40 9.74,8.15 7.66,-0.22 15.68,-6.77 15.68,-6.77 0.82,-0.76 2.41,-2.08 2.57,-5.94 0.01,-0.25 -0.03,-0.69 -0.13,-1.26 z M 235.36,27.67 c 1.40,-0.60 4.55,-1.40 8.71,3.49 1.10,1.39 -2.79,2.69 -4.88,3.39 -4.93,1.49 -8.45,1.56 -10.89,1.14 2.03,-4.68 5.71,-7.44 7.07,-8.02 z" />
     </g>
</svg>
