<?xml version="1.0" encoding="UTF-8"?>
<svg version="1.1" id="Layer_1" x="0px" y="0px" width="578" height="52" viewBox="0 0 578 52"
xml:space="preserve" xmlns="http://www.w3.org/2000/svg" xmlns:svg="http://www.w3.org/2000/svg" xmlns:rdf="http://www.w3.org/1999/02/22-rdf-syntax-ns#"  xmlns:cc="http://creativecommons.org/ns#" xmlns:dc="http://purl.org/dc/elements/1.1/">
     <g>
<path d="M 269.53,18.22 c -1.92,2.63 -1.92,2.63 -1.92,2.63 -0.06,0.08 -0.05,0.20 0.03,0.25 3.27,2.38 3.27,2.38 3.27,2.38 0.08,0.06 0.19,0.04 0.25,-0.05 1.91,-2.63 1.91,-2.63 1.91,-2.63 0.06,-0.08 0.05,-0.20 -0.03,-0.25 -3.27,-2.38 -3.27,-2.38 -3.27,-2.38 -0.08,-0.06 -0.19,-0.04 -0.25,0.05 z M 291.29,44.35 c -0.04,0.46 0.17,0.63 0.38,0.19 0.11,-0.24 0.59,-1.22 0.73,-3.80 0.11,-1.94 -0.05,-4.91 -0.60,-9.01 -0.08,-0.60 -2.95,-21.37 -2.95,-21.37 0.00,0.00 1.55,1.46 1.80,1.72 0.25,0.26 0.55,0.12 0.41,-0.30 -0.14,-0.42 -3.32,-8.09 -3.42,-8.36 -0.10,-0.27 -0.20,-0.46 -0.33,-0.15 -0.13,0.31 -1.08,2.64 -1.08,2.64 0.02,0.14 0.28,1.16 0.33,1.54 0.44,3.37 3.20,23.25 3.99,29.54 0.39,3.09 0.69,5.88 0.73,7.37 z M 229.25,14.20 c 0.58,0.12 0.90,0.47 1.04,0.68 0.06,0.09 0.16,0.03 0.19,-0.02 0.72,-1.28 0.16,-2.13 -0.96,-2.51 -0.45,-0.15 -0.62,-0.78 1.09,-1.78 1.57,-0.92 17.06,-7.94 17.41,-8.16 0.47,-0.30 0.76,-0.41 0.96,-0.86 0.20,-0.45 0.25,-0.53 0.35,-0.85 0.11,-0.34 0.23,-0.69 -0.63,-0.20 -0.46,0.26 -17.45,7.83 -18.77,8.81 -0.66,0.49 -1.23,1.29 -1.45,2.17 -0.32,1.28 -0.06,2.56 0.78,2.73 z M 250.80,26.50 c 0.58,0.12 0.90,0.47 1.04,0.68 0.06,0.09 0.16,0.03 0.19,-0.02 0.72,-1.28 0.16,-2.13 -0.96,-2.51 -0.45,-0.15 -0.62,-0.78 1.09,-1.78 1.57,-0.92 22.52,-10.63 22.87,-10.86 0.47,-0.30 0.76,-0.41 0.96,-0.86 0.20,-0.45 0.25,-0.53 0.35,-0.85 0.11,-0.34 0.23,-0.69 -0.63,-0.20 -0.46,0.26 -22.91,10.53 -24.23,11.50 -0.66,0.49 -1.23,1.29 -1.45,2.17 -0.32,1.28 -0.06,2.57 0.78,2.74 z M 236.56,21.17 c -1.32,1.81 -1.32,1.81 -1.32,1.81 -2.54,-1.85 -2.54,-1.85 -2.54,-1.85 -0.06,-0.05 -0.15,-0.03 -0.20,0.04 -1.53,2.10 -1.53,2.10 -1.53,2.10 -0.05,0.07 -0.04,0.16 0.03,0.20 2.61,1.91 2.61,1.91 2.61,1.91 0.06,0.05 0.15,0.03 0.20,-0.04 1.32,-1.81 1.32,-1.81 1.32,-1.81 2.54,1.85 2.54,1.85 2.54,1.85 0.06,0.05 0.15,0.03 0.20,-0.04 1.53,-2.10 1.53,-2.10 1.53,-2.10 0.05,-0.07 0.04,-0.16 -0.03,-0.20 -2.61,-1.91 -2.61,-1.91 -2.61,-1.91 -0.06,-0.05 -0.15,-0.03 -0.20,0.04 z M 218.35,10.05 c 0.15,0.08 0.31,0.09 0.35,-0.08 0.04,-0.18 0.25,-0.59 0.53,-0.29 0.24,0.24 1.81,1.54 2.62,4.28 0.14,0.36 0.48,0.40 0.56,-0.12 0.19,-1.27 0.29,-3.47 0.39,-4.14 0.14,-0.94 0.59,-2.88 1.78,-1.87 0.27,0.23 0.56,0.53 0.56,0.53 0.25,0.32 0.57,0.68 0.72,0.31 0.23,-0.55 0.42,-1.47 0.17,-1.97 -0.11,-0.22 -1.59,-2.09 -2.59,-0.81 -1.24,1.58 -1.32,3.66 -1.49,5.98 -0.18,-0.49 -1.17,-3.59 -4.34,-5.37 -0.23,-0.13 -0.70,0.12 -0.74,0.85 -0.03,0.43 -0.15,1.46 0.15,1.76 0.30,0.29 1.19,0.87 1.34,0.95 z M 253.97,8.59 c 0.16,0.07 0.33,0.07 0.36,-0.12 0.03,-0.19 0.20,-0.64 0.53,-0.35 0.27,0.23 2.02,1.43 3.11,4.21 0.18,0.37 0.53,0.37 0.57,-0.17 0.08,-1.33 -0.02,-3.64 0.03,-4.34 0.06,-0.99 0.35,-3.04 1.68,-2.11 0.30,0.21 0.63,0.50 0.63,0.50 0.29,0.31 0.65,0.66 0.78,0.26 0.19,-0.60 0.30,-1.57 -0.01,-2.06 -0.14,-0.22 -1.84,-2.02 -2.77,-0.60 -1.15,1.76 -1.04,3.92 -1.00,6.34 -0.23,-0.49 -1.54,-3.63 -5.01,-5.18 -0.25,-0.11 -0.72,0.18 -0.69,0.95 0.01,0.45 -0.02,1.53 0.32,1.81 0.34,0.28 1.31,0.79 1.47,0.86 z M 249.08,45.19 c -0.55,0.28 -10.13,4.12 -10.70,4.44 -0.57,0.32 -0.77,0.40 -0.88,0.81 -0.11,0.41 -0.17,0.66 -0.20,0.72 -0.12,0.28 -0.21,0.62 0.63,0.14 0.26,-0.15 9.95,-4.04 10.42,-4.31 0.47,-0.27 0.75,-0.36 0.96,-0.79 0.21,-0.42 0.26,-0.50 0.38,-0.80 0.12,-0.32 0.25,-0.65 -0.60,-0.22 z M 268.51,47.08 c -0.32,0.85 -1.16,1.44 -1.78,0.30 -0.10,-0.23 -0.52,-1.25 0.25,-3.50 0.16,-0.44 0.35,-1.09 0.35,-1.09 0.17,-0.49 -0.03,-0.76 -0.28,-0.16 -0.25,0.60 -1.28,2.68 -1.12,5.12 0.04,0.56 0.41,1.67 1.26,1.69 0.44,0.00 1.01,-0.32 1.41,-1.70 0.07,-0.31 0.11,-0.56 0.14,-0.68 0.04,-0.19 -0.09,-0.41 -0.24,0.02 z M 286.29,46.07 c -0.32,0.85 -1.16,1.44 -1.78,0.30 -0.10,-0.22 -0.52,-1.25 0.25,-3.50 0.16,-0.44 0.35,-1.09 0.35,-1.09 0.17,-0.49 -0.03,-0.76 -0.28,-0.16 -0.25,0.60 -1.28,2.68 -1.12,5.12 0.04,0.56 0.41,1.67 1.26,1.69 0.44,0.00 1.01,-0.32 1.41,-1.70 0.07,-0.31 0.11,-0.56 0.14,-0.68 0.04,-0.19 -0.09,-0.41 -0.24,0.02 z M 260.98,27.60 c 0.21,-0.64 -0.10,-0.96 -0.40,-0.18 -0.30,0.78 -1.58,3.50 -1.19,6.59 0.09,0.71 0.69,2.08 1.88,2.05 0.61,-0.04 1.38,-0.49 1.85,-2.27 0.07,-0.40 0.12,-0.72 0.15,-0.88 0.05,-0.24 -0.16,-0.51 -0.33,0.04 -0.39,1.10 -1.51,1.92 -2.46,0.53 -0.16,-0.28 -0.82,-1.55 0.10,-4.47 0.19,-0.57 0.41,-1.41 0.41,-1.41 z M 225.60,39.93 c 0.08,0.66 0.64,1.92 1.73,1.89 0.57,-0.03 1.27,-0.45 1.70,-2.10 0.07,-0.37 0.11,-0.67 0.14,-0.81 0.04,-0.22 -0.15,-0.47 -0.30,0.04 -0.36,1.02 -1.39,1.77 -2.27,0.49 -0.15,-0.26 -0.76,-1.43 0.09,-4.12 0.17,-0.52 0.38,-1.30 0.38,-1.30 0.19,-0.59 -0.09,-0.89 -0.37,-0.17 -0.28,0.72 -1.46,3.23 -1.10,6.08 z M 224.22,25.36 c -0.15,-0.26 -0.76,-1.43 0.09,-4.12 0.17,-0.52 0.38,-1.30 0.38,-1.30 0.19,-0.59 -0.09,-0.89 -0.37,-0.17 -0.28,0.72 -1.46,3.23 -1.10,6.08 0.08,0.66 0.64,1.92 1.73,1.89 0.57,-0.03 1.27,-0.45 1.70,-2.10 0.07,-0.37 0.11,-0.67 0.14,-0.81 0.04,-0.22 -0.15,-0.47 -0.30,0.04 -0.36,1.02 -1.39,1.77 -2.27,0.49 z M 332.25,9.14 c 0.17,0.09 0.36,0.11 0.41,-0.10 0.05,-0.21 0.28,-0.68 0.62,-0.34 0.28,0.28 2.09,1.78 3.03,4.95 0.16,0.42 0.55,0.46 0.64,-0.14 0.22,-1.47 0.34,-4.02 0.45,-4.79 0.16,-1.09 0.68,-3.33 2.06,-2.16 0.31,0.26 0.64,0.61 0.64,0.61 0.29,0.37 0.66,0.79 0.84,0.36 0.27,-0.64 0.49,-1.70 0.19,-2.28 -0.13,-0.26 -1.84,-2.41 -3.00,-0.93 -1.44,1.83 -1.53,4.23 -1.72,6.91 -0.20,-0.56 -1.35,-4.16 -5.02,-6.21 -0.27,-0.15 -0.81,0.13 -0.86,0.98 -0.03,0.49 -0.17,1.69 0.18,2.03 0.35,0.34 1.37,1.01 1.54,1.10 z M 326.74,22.39 c 0.48,0.00 1.11,-0.35 1.55,-1.88 0.08,-0.34 0.13,-0.62 0.16,-0.75 0.05,-0.21 -0.10,-0.45 -0.26,0.02 -0.35,0.93 -1.27,1.58 -1.96,0.33 -0.11,-0.25 -0.58,-1.38 0.28,-3.86 0.17,-0.48 0.39,-1.20 0.39,-1.20 0.19,-0.54 -0.04,-0.84 -0.31,-0.17 -0.27,0.66 -1.40,2.94 -1.23,5.64 0.04,0.62 0.45,1.83 1.39,1.87 z M 352.85,16.41 c 0.18,-0.50 -0.04,-0.77 -0.29,-0.16 -0.25,0.61 -1.30,2.73 -1.14,5.22 0.04,0.58 0.42,1.70 1.29,1.73 0.45,0.00 1.03,-0.33 1.44,-1.74 0.07,-0.32 0.12,-0.57 0.15,-0.70 0.04,-0.19 -0.10,-0.42 -0.24,0.02 -0.33,0.86 -1.18,1.47 -1.82,0.31 -0.10,-0.23 -0.53,-1.28 0.26,-3.57 0.16,-0.45 0.36,-1.11 0.36,-1.11 z M 350.09,8.48 c 0.79,0.58 1.93,1.04 1.93,1.04 -3.66,4.48 -10.84,7.67 -12.55,9.01 -0.51,0.39 -0.44,0.61 -0.12,0.53 0.29,-0.08 5.76,-1.61 10.77,-5.90 2.29,-1.97 2.23,-2.11 2.81,-3.31 0.50,0.26 0.84,0.67 1.03,0.91 0.28,0.34 0.43,0.60 0.56,0.23 0.48,-1.33 -0.20,-2.13 -0.84,-2.54 0.00,0.00 0.67,-2.07 -0.56,-4.14 -0.21,-0.35 -1.43,-1.46 -2.85,0.74 -0.55,0.84 -0.96,2.85 -0.17,3.42 z M 350.82,6.45 c 0.73,-1.02 1.08,-0.98 1.36,-0.82 0.82,0.77 0.70,2.03 0.67,2.31 0.00,0.00 -1.05,-0.49 -1.52,-0.70 -0.47,-0.20 -0.72,-0.50 -0.50,-0.80 z M 309.05,14.41 c 0.25,-0.16 13.84,-8.02 14.32,-8.31 0.46,-0.29 0.72,-0.41 0.91,-0.85 0.18,-0.44 0.23,-0.52 0.33,-0.82 0.10,-0.32 0.21,-0.67 -0.61,-0.19 -0.53,0.31 -14.04,8.11 -14.59,8.46 -0.55,0.35 -0.74,0.44 -0.83,0.86 -0.09,0.42 -0.13,0.67 -0.16,0.73 -0.10,0.28 -0.17,0.63 0.64,0.10 z M 292.37,15.89 c 0.17,-0.04 3.05,-0.49 6.41,-3.05 1.82,-1.38 2.92,-3.74 2.92,-3.74 0.00,0.00 0.91,0.76 1.03,0.91 0.28,0.34 0.43,0.60 0.56,0.23 0.48,-1.33 -0.20,-2.13 -0.84,-2.54 0.00,0.00 0.67,-2.07 -0.56,-4.14 -0.21,-0.35 -1.43,-1.46 -2.85,0.74 -0.55,0.84 -0.96,2.85 -0.17,3.42 0.79,0.58 1.93,1.04 1.93,1.04 -3.66,4.48 -6.16,5.34 -8.30,6.59 -0.55,0.32 -0.44,0.61 -0.12,0.53 z M 300.09,6.50 c -0.47,-0.20 -0.72,-0.50 -0.50,-0.80 0.73,-1.02 1.08,-0.98 1.36,-0.82 0.82,0.77 0.70,2.03 0.67,2.31 0.00,0.00 -1.05,-0.49 -1.52,-0.70 z M 299.95,16.28 c -0.06,-0.05 -0.15,-0.03 -0.20,0.04 -1.53,2.10 -1.53,2.10 -1.53,2.10 -0.05,0.07 -0.04,0.16 0.03,0.21 2.61,1.91 2.61,1.91 2.61,1.91 0.06,0.05 0.15,0.03 0.20,-0.04 1.32,-1.81 1.32,-1.81 1.32,-1.81 2.54,1.85 2.54,1.85 2.54,1.85 0.06,0.05 0.15,0.03 0.20,-0.04 1.53,-2.10 1.53,-2.10 1.53,-2.10 0.05,-0.07 0.04,-0.16 -0.03,-0.20 -2.61,-1.91 -2.61,-1.91 -2.61,-1.91 -0.06,-0.05 -0.15,-0.03 -0.20,0.04 -1.32,1.81 -1.32,1.81 -1.32,1.81 z M 358.43,27.01 c -0.25,-0.28 -0.37,-0.01 -0.46,0.31 -0.09,0.32 -0.36,1.52 -0.54,2.27 0.00,0.00 0.71,1.16 0.97,1.75 0.25,0.59 -0.12,0.92 -0.86,1.01 -2.08,0.25 -3.73,-0.94 -4.30,-1.48 -0.57,-0.55 0.05,-1.52 0.51,-2.68 0.37,-0.93 -0.32,-1.04 -0.84,0.00 -1.76,4.63 -4.23,5.12 -4.88,5.30 -5.86,1.60 -5.36,-3.76 -5.34,-4.64 0.02,-0.88 -0.62,-0.55 -1.34,0.03 -2.47,1.98 -4.45,3.14 -5.52,3.62 -0.92,-1.80 -2.26,-2.93 -2.82,-3.34 -6.34,-4.63 -6.87,4.71 -6.68,5.71 0.97,3.97 7.45,1.56 8.46,1.44 1.02,-0.12 0.68,1.22 0.11,2.02 -1.41,1.97 -3.03,3.38 -4.50,4.57 -6.28,5.13 -9.44,4.72 -10.41,4.69 -6.17,-0.17 -5.60,-6.82 -5.26,-8.24 1.86,-1.57 3.45,-3.28 4.38,-5.04 0.38,-0.97 1.03,-3.16 -0.15,-5.91 -0.62,-1.21 -2.56,-4.60 -2.56,-4.60 0.00,0.00 1.43,0.04 1.57,0.04 0.14,0.00 0.41,-0.14 0.06,-0.55 -0.35,-0.40 -3.36,-3.40 -3.54,-3.65 -0.18,-0.24 -0.35,-0.41 -0.45,-0.06 -0.10,0.36 -0.36,1.88 -0.42,2.20 -0.06,0.31 -0.06,0.63 0.10,0.90 0.15,0.27 0.55,1.20 0.84,1.96 0.29,0.76 3.26,6.47 3.53,6.98 0.27,0.51 0.33,0.88 0.06,1.22 -9.53,10.05 -27.91,16.23 -28.50,16.58 -0.59,0.34 -0.43,0.61 0.56,0.43 1.48,-0.26 9.74,-1.64 12.09,-2.77 1.55,-0.75 6.98,-3.41 11.41,-6.89 -0.12,0.90 -0.24,2.22 -0.17,3.89 0.30,8.08 7.53,6.74 9.43,6.33 5.68,-1.25 12.64,-9.11 13.23,-10.68 0.58,-1.56 0.67,-2.98 0.54,-4.22 1.50,-0.81 4.71,-3.40 4.71,-3.40 0.13,3.45 2.88,4.48 3.72,4.63 3.96,0.60 5.94,-2.71 6.78,-3.78 0.72,1.89 2.45,2.26 3.34,2.43 3.41,0.68 4.08,-1.74 4.26,-2.29 1.07,-3.33 -0.86,-5.81 -1.11,-6.08 z M 329.80,33.68 c -2.03,-0.14 -1.85,-0.92 -1.57,-1.23 0.30,-0.33 2.78,-1.89 4.85,0.89 0.00,0.00 -0.86,0.50 -3.28,0.33 z M 355.23,39.32 c -0.24,0.68 -0.34,1.12 -0.31,1.38 0.03,0.26 0.11,1.10 0.11,1.10 -0.25,0.20 -1.33,0.87 -2.40,0.08 0.07,-0.23 0.21,-0.70 0.24,-0.95 0.12,-0.40 -0.13,-0.69 -0.32,-0.28 -0.20,0.41 -0.65,1.79 -0.99,2.10 -0.34,0.31 -0.73,1.45 -3.30,0.29 -0.45,-0.17 -1.23,-0.75 -2.46,0.48 -2.77,2.57 -4.68,2.77 -7.79,3.88 -0.38,0.17 -1.16,0.76 -0.23,0.67 0.94,-0.09 4.87,0.00 7.01,-2.46 0.45,-0.43 0.96,-1.58 2.66,-0.92 0.94,0.36 2.68,1.85 4.58,-1.10 1.12,0.75 2.82,0.45 3.09,-0.37 0.27,-0.82 0.58,-1.64 0.58,-2.20 0.00,-0.56 -0.05,-1.30 -0.05,-1.30 -0.04,-0.44 -0.19,-1.07 -0.44,-0.40 z M 299.33,26.02 c 0.00,0.00 1.25,-0.31 1.47,-0.38 0.22,-0.06 0.34,-0.35 -0.05,-0.55 -0.39,-0.20 -4.09,-1.67 -4.37,-1.79 -0.28,-0.11 -0.38,-0.24 -0.41,0.06 -0.02,0.30 -0.07,2.73 -0.07,2.73 0.00,0.00 -0.06,0.17 0.26,0.35 0.32,0.18 0.64,0.58 0.90,0.84 0.26,0.26 3.70,2.98 3.87,3.07 0.00,0.00 -1.72,3.02 -1.94,5.38 -0.22,2.36 0.04,5.63 3.27,4.58 0.87,-0.25 4.49,-1.69 5.30,-4.21 0.26,-0.93 1.01,-2.61 -0.21,-4.31 -0.70,-1.00 -3.53,-2.69 -3.53,-2.69 0.00,0.00 2.17,-3.00 2.38,-3.37 0.21,-0.37 1.00,-2.69 1.09,-3.26 0.09,-0.56 0.13,-0.84 -0.29,-0.32 -0.42,0.52 -4.63,6.05 -4.63,6.05 z M 306.28,34.91 c -1.20,0.99 -3.72,2.29 -4.43,2.36 -0.71,0.07 -2.59,-0.28 -1.77,-2.20 0.28,-0.62 2.16,-3.84 2.16,-3.84 0.70,0.39 5.24,2.70 4.04,3.69 z M 280.39,10.53 c 0.00,0.00 1.55,1.45 1.80,1.72 0.25,0.26 0.55,0.12 0.41,-0.30 -0.14,-0.42 -3.32,-8.09 -3.42,-8.36 -0.10,-0.27 -0.21,-0.46 -0.33,-0.15 -0.13,0.31 -1.15,2.55 -1.15,2.55 0.03,0.18 0.27,0.73 0.43,1.87 0.17,1.18 3.78,28.27 3.83,28.92 0.05,0.66 0.02,0.79 -0.14,0.98 -0.16,0.19 -3.47,2.45 -6.55,1.71 -0.35,-0.09 -1.67,-0.09 -3.02,-1.66 1.31,-0.91 3.04,-2.38 3.46,-4.99 0.23,-1.09 0.26,-3.86 -1.85,-5.81 -0.96,-0.66 -1.95,-0.83 -3.00,0.00 -1.06,0.82 -2.38,2.64 -2.18,5.25 0.08,1.06 0.34,2.63 0.81,4.23 -1.09,0.59 -2.31,1.17 -3.64,1.69 -2.89,1.12 -6.87,2.18 -11.54,1.74 -2.41,-0.17 -6.24,-1.47 -7.61,-9.54 -0.23,-1.91 -3.37,-22.93 -3.63,-23.99 -0.26,-1.06 -0.37,-0.68 -0.55,-0.31 -0.18,0.37 -0.93,1.88 -0.75,3.38 0.18,1.50 1.96,13.03 2.13,14.41 0.07,0.59 0.41,2.70 0.81,5.04 -0.09,0.41 -0.20,0.78 -0.36,1.23 -0.90,1.66 -2.36,2.64 -3.89,3.20 -0.96,-2.01 -2.35,-3.35 -3.38,-4.05 -1.70,-1.17 -3.65,0.94 -4.04,1.64 -1.62,2.93 -0.96,4.35 -0.66,4.84 1.66,2.50 5.38,1.49 6.43,1.26 0.36,-0.08 0.70,-0.16 1.02,-0.26 0.30,0.72 0.46,1.27 0.49,1.42 0.09,0.44 -0.15,0.86 -0.40,1.17 -1.31,1.66 -6.05,4.78 -7.37,5.50 -6.88,3.74 -11.00,1.23 -12.10,0.64 -5.02,-2.70 -2.85,-9.74 -2.04,-11.88 0.53,-0.35 1.09,-1.14 1.56,-2.77 0.13,-0.56 0.21,-1.01 0.26,-1.23 0.08,-0.34 -0.13,-0.74 -0.38,0.02 -0.56,1.51 -1.93,2.55 -2.88,0.47 -0.15,-0.41 -0.78,-2.29 0.58,-6.31 0.27,-0.78 0.62,-1.95 0.62,-1.95 0.30,-0.88 -0.02,-1.37 -0.45,-0.30 -0.42,1.08 -2.18,4.77 -2.05,9.19 0.03,0.97 0.53,2.81 1.74,3.08 -0.07,0.11 -0.13,0.22 -0.18,0.32 -1.46,3.15 -1.30,6.82 -1.14,7.90 0.73,7.99 7.68,7.97 9.46,7.96 6.70,-0.04 13.27,-6.42 14.61,-7.83 1.34,-1.41 1.30,-3.15 1.37,-3.99 -0.01,-0.70 -0.07,-1.37 -0.18,-1.99 2.78,-1.31 3.49,-3.34 3.83,-4.50 0.39,2.22 0.76,4.20 0.92,4.87 0.40,1.65 2.30,8.50 13.86,6.24 3.06,-0.60 8.39,-2.78 10.46,-3.86 0.66,1.37 1.53,2.55 2.64,3.13 1.85,0.89 6.53,1.48 9.17,-1.85 0.73,-1.35 1.65,-2.87 0.92,-8.84 -0.23,-2.01 -2.79,-20.87 -2.79,-20.87 z M 234.61,33.99 c -0.64,-0.13 -0.81,-0.57 -0.31,-1.01 0.51,-0.44 1.32,-0.73 2.13,-0.46 0.68,0.26 1.27,0.78 1.77,1.40 -1.80,0.28 -3.31,0.13 -3.60,0.07 z M 270.94,35.65 c -0.20,-0.45 -0.40,-0.96 -0.58,-1.52 -0.24,-0.64 -1.07,-2.62 0.12,-3.77 0.36,-0.40 1.62,-1.21 2.29,-0.41 0.67,0.79 1.99,2.53 1.57,3.07 -0.42,0.54 -1.64,1.56 -3.40,2.65 z" />
     </g>
</svg>
