<?xml version="1.0" encoding="UTF-8"?>
<svg version="1.1" id="Layer_1" x="0px" y="0px" width="578" height="50" viewBox="0 0 578 50"
xml:space="preserve" xmlns="http://www.w3.org/2000/svg" xmlns:svg="http://www.w3.org/2000/svg" xmlns:rdf="http://www.w3.org/1999/02/22-rdf-syntax-ns#"  xmlns:cc="http://creativecommons.org/ns#" xmlns:dc="http://purl.org/dc/elements/1.1/">
     <g>
<path d="M 277.77,24.69 c -1.92,2.63 -1.92,2.63 -1.92,2.63 -0.06,0.08 -0.05,0.20 0.03,0.25 3.27,2.38 3.27,2.38 3.27,2.38 0.08,0.06 0.19,0.04 0.25,-0.05 1.91,-2.63 1.91,-2.63 1.91,-2.63 0.06,-0.08 0.05,-0.20 -0.03,-0.26 -3.27,-2.38 -3.27,-2.38 -3.27,-2.38 -0.08,-0.06 -0.19,-0.04 -0.25,0.05 z M 299.02,42.28 c -0.04,0.46 0.16,0.64 0.38,0.19 0.11,-0.24 0.59,-1.22 0.75,-3.80 0.12,-1.94 -0.03,-4.91 -0.57,-9.01 -0.08,-0.60 -2.88,-21.38 -2.88,-21.38 0.00,0.00 1.54,1.46 1.79,1.72 0.25,0.26 0.55,0.13 0.41,-0.30 -0.14,-0.42 -3.29,-8.10 -3.39,-8.37 -0.10,-0.27 -0.20,-0.46 -0.33,-0.15 -0.13,0.31 -1.09,2.64 -1.09,2.64 0.02,0.14 0.28,1.16 0.33,1.54 0.43,3.37 3.12,23.26 3.89,29.55 0.38,3.10 0.67,5.88 0.71,7.38 z M 288.70,8.42 c 0.00,0.00 1.52,1.49 1.76,1.76 0.24,0.27 0.55,0.14 0.42,-0.29 -0.13,-0.43 -3.13,-8.17 -3.23,-8.44 -0.10,-0.27 -0.19,-0.46 -0.33,-0.16 -0.13,0.30 -1.20,2.52 -1.20,2.52 0.02,0.18 0.25,0.74 0.39,1.88 0.12,1.01 3.22,24.24 3.34,25.52 0.11,1.28 0.51,4.69 0.40,5.14 -0.11,0.46 -2.59,3.10 -6.05,2.08 -0.63,-0.20 -2.08,-1.22 -2.39,-3.13 -0.06,-0.60 0.00,-1.19 0.03,-1.59 0.03,-0.40 -0.20,-0.51 -0.65,-0.26 -0.45,0.26 -8.69,6.31 -16.52,6.54 -1.19,0.00 -9.70,0.13 -10.10,-9.31 -0.17,-1.39 -1.62,-24.19 -3.24,-29.03 -0.40,-0.79 -0.62,0.35 -0.70,0.57 -0.09,0.22 -0.57,1.89 -0.57,1.89 1.10,3.83 2.68,26.71 3.04,28.86 0.35,2.16 0.53,10.21 11.40,10.12 7.00,-0.09 15.93,-6.29 15.93,-6.29 0.00,0.00 0.48,4.84 5.32,4.93 1.54,-0.04 5.41,-0.75 5.72,-5.46 0.26,-1.98 -0.09,-6.56 -0.35,-8.98 -0.25,-2.30 -2.39,-18.90 -2.39,-18.90 z M 257.62,20.69 c 0.62,0.13 0.96,0.51 1.10,0.73 0.06,0.09 0.17,0.04 0.20,-0.02 0.78,-1.36 0.18,-2.27 -1.01,-2.68 -0.47,-0.16 -0.65,-0.84 1.18,-1.89 1.69,-0.97 23.00,-10.13 23.38,-10.36 0.51,-0.32 0.81,-0.43 1.02,-0.91 0.21,-0.48 0.27,-0.56 0.38,-0.90 0.12,-0.36 0.25,-0.73 -0.67,-0.22 -0.49,0.27 -23.42,10.01 -24.83,11.04 -0.71,0.52 -1.32,1.36 -1.56,2.30 -0.35,1.36 -0.08,2.73 0.80,2.92 z M 272.25,21.85 c 0.88,0.42 2.17,0.03 3.14,-1.81 0.75,1.09 1.90,1.10 2.51,0.87 0.52,-0.19 1.11,-0.97 1.28,-2.06 0.17,-1.09 -0.11,-1.83 -0.45,-2.44 -0.45,-0.75 -0.75,-2.02 -0.75,-2.02 -0.16,-0.45 -0.28,-0.91 -0.48,-0.29 -0.20,0.62 -0.35,1.11 -0.08,1.82 0.27,0.71 1.00,2.33 1.12,2.56 0.12,0.23 0.15,0.49 -0.25,0.66 -0.40,0.17 -2.24,0.56 -2.58,-1.40 -0.34,-1.96 -0.37,-2.53 -0.54,-2.86 -0.17,-0.33 -0.33,-0.37 -0.46,-0.04 -0.13,0.33 -0.21,1.01 -0.23,1.12 -0.02,0.11 -0.02,0.19 0.05,0.31 0.07,0.12 0.80,2.31 0.47,2.91 -0.33,0.60 -1.98,1.69 -2.84,0.55 -0.41,-0.79 -0.16,-2.80 -0.16,-3.27 0.00,-0.47 -0.15,-0.63 -0.35,-0.25 -0.20,0.38 -0.31,0.63 -0.30,0.97 0.01,0.34 0.06,1.81 0.03,2.27 -0.03,0.46 0.00,1.96 0.88,2.38 z M 220.75,8.94 c 0.17,0.08 0.35,0.08 0.38,-0.13 0.03,-0.20 0.22,-0.67 0.56,-0.37 0.29,0.25 2.12,1.53 3.25,4.46 0.19,0.39 0.56,0.40 0.60,-0.18 0.09,-1.41 0.01,-3.83 0.06,-4.58 0.07,-1.04 0.39,-3.21 1.79,-2.21 0.32,0.23 0.66,0.53 0.66,0.53 0.31,0.33 0.69,0.70 0.82,0.28 0.21,-0.63 0.33,-1.65 0.01,-2.18 -0.14,-0.23 -1.93,-2.15 -2.92,-0.66 -1.22,1.84 -1.12,4.13 -1.10,6.69 -0.24,-0.52 -1.60,-3.84 -5.24,-5.50 -0.26,-0.12 -0.76,0.19 -0.74,0.99 0.01,0.47 -0.03,1.62 0.32,1.91 0.36,0.30 1.38,0.85 1.55,0.92 z M 259.29,6.83 c 0.17,0.08 0.35,0.08 0.38,-0.12 0.03,-0.20 0.22,-0.67 0.56,-0.37 0.29,0.25 2.12,1.53 3.26,4.46 0.19,0.39 0.56,0.39 0.60,-0.18 0.09,-1.41 0.01,-3.83 0.06,-4.58 0.07,-1.04 0.39,-3.21 1.78,-2.21 0.32,0.23 0.66,0.53 0.66,0.53 0.31,0.33 0.69,0.70 0.82,0.28 0.21,-0.63 0.33,-1.65 0.01,-2.18 -0.14,-0.23 -1.93,-2.15 -2.92,-0.65 -1.22,1.84 -1.12,4.13 -1.10,6.69 -0.24,-0.52 -1.60,-3.84 -5.24,-5.50 -0.26,-0.12 -0.76,0.19 -0.74,1.00 0.01,0.47 -0.03,1.62 0.32,1.91 0.36,0.30 1.38,0.85 1.55,0.92 z M 250.91,37.31 c -0.55,0.28 -14.50,6.29 -15.07,6.61 -0.57,0.32 -0.77,0.40 -0.88,0.81 -0.11,0.42 -0.17,0.66 -0.20,0.72 -0.12,0.28 -0.21,0.62 0.63,0.14 0.26,-0.15 14.32,-6.21 14.79,-6.48 0.47,-0.27 0.75,-0.36 0.96,-0.79 0.21,-0.42 0.26,-0.50 0.38,-0.80 0.13,-0.32 0.25,-0.65 -0.60,-0.22 z M 278.42,45.10 c -0.32,0.83 -1.13,1.41 -1.74,0.30 -0.10,-0.22 -0.51,-1.22 0.24,-3.42 0.15,-0.43 0.35,-1.06 0.35,-1.06 0.17,-0.48 -0.03,-0.74 -0.28,-0.15 -0.24,0.59 -1.25,2.61 -1.09,5.00 0.04,0.55 0.40,1.63 1.23,1.65 0.43,0.00 0.98,-0.31 1.38,-1.66 0.07,-0.30 0.11,-0.55 0.14,-0.67 0.04,-0.18 -0.09,-0.40 -0.23,0.02 z M 224.46,30.71 c 0.17,-0.48 -0.03,-0.74 -0.28,-0.15 -0.24,0.59 -1.25,2.61 -1.09,5.00 0.04,0.55 0.40,1.63 1.23,1.66 0.43,0.00 0.98,-0.31 1.38,-1.66 0.07,-0.30 0.11,-0.55 0.14,-0.67 0.04,-0.18 -0.09,-0.40 -0.23,0.02 -0.31,0.83 -1.13,1.41 -1.74,0.30 -0.10,-0.22 -0.51,-1.22 0.25,-3.42 0.15,-0.43 0.35,-1.06 0.35,-1.06 z M 266.17,26.67 c 0.21,-0.64 -0.10,-0.96 -0.40,-0.18 -0.30,0.78 -1.58,3.50 -1.19,6.59 0.09,0.71 0.69,2.08 1.88,2.05 0.61,-0.04 1.38,-0.49 1.85,-2.27 0.07,-0.40 0.12,-0.72 0.15,-0.88 0.05,-0.24 -0.16,-0.51 -0.33,0.04 -0.39,1.10 -1.51,1.92 -2.46,0.53 -0.16,-0.28 -0.82,-1.55 0.10,-4.47 0.19,-0.57 0.41,-1.41 0.41,-1.41 z M 227.49,23.27 c 0.07,-0.39 0.11,-0.70 0.14,-0.85 0.05,-0.23 -0.16,-0.49 -0.32,0.04 -0.37,1.06 -1.45,1.85 -2.37,0.51 -0.15,-0.27 -0.79,-1.49 0.09,-4.30 0.18,-0.54 0.40,-1.35 0.40,-1.35 0.20,-0.61 -0.10,-0.93 -0.39,-0.17 -0.29,0.75 -1.52,3.36 -1.15,6.34 0.09,0.69 0.67,2.00 1.81,1.97 0.59,-0.04 1.33,-0.47 1.77,-2.19 z M 240.40,15.33 c 0.71,-0.01 1.62,-0.61 2.23,-3.12 0.10,-0.57 0.17,-1.02 0.21,-1.25 0.06,-0.34 -0.16,-0.74 -0.38,0.04 -0.50,1.54 -1.83,2.64 -2.87,0.60 -0.17,-0.41 -0.88,-2.26 0.31,-6.36 0.24,-0.80 0.54,-1.98 0.54,-1.98 0.27,-0.90 -0.08,-1.38 -0.46,-0.28 -0.38,1.10 -1.98,4.88 -1.66,9.31 0.08,1.02 0.71,3.01 2.09,3.04 z M 334.53,20.27 c 0.48,0.00 1.11,-0.35 1.55,-1.87 0.08,-0.34 0.13,-0.62 0.16,-0.75 0.05,-0.21 -0.10,-0.45 -0.26,0.02 -0.35,0.93 -1.27,1.58 -1.96,0.33 -0.11,-0.25 -0.58,-1.38 0.28,-3.86 0.17,-0.48 0.39,-1.20 0.39,-1.20 0.19,-0.54 -0.04,-0.84 -0.31,-0.17 -0.27,0.66 -1.40,2.94 -1.23,5.63 0.04,0.62 0.45,1.83 1.39,1.87 z M 316.84,12.30 c 0.25,-0.16 13.84,-8.02 14.32,-8.31 0.46,-0.29 0.72,-0.41 0.91,-0.85 0.18,-0.44 0.23,-0.52 0.33,-0.82 0.11,-0.32 0.21,-0.67 -0.61,-0.19 -0.53,0.31 -14.04,8.11 -14.59,8.46 -0.55,0.35 -0.74,0.44 -0.83,0.87 -0.09,0.42 -0.13,0.67 -0.16,0.73 -0.10,0.28 -0.17,0.63 0.64,0.10 z M 360.64,14.30 c 0.18,-0.50 -0.04,-0.77 -0.29,-0.16 -0.25,0.61 -1.30,2.73 -1.14,5.22 0.04,0.58 0.42,1.70 1.29,1.73 0.45,0.00 1.03,-0.33 1.44,-1.74 0.07,-0.32 0.12,-0.57 0.15,-0.70 0.04,-0.19 -0.10,-0.42 -0.24,0.02 -0.33,0.86 -1.18,1.47 -1.82,0.31 -0.10,-0.23 -0.53,-1.28 0.26,-3.57 0.16,-0.44 0.36,-1.11 0.36,-1.11 z M 357.88,6.37 c 0.79,0.58 1.94,1.04 1.94,1.04 -3.66,4.49 -10.85,7.67 -12.56,9.01 -0.51,0.39 -0.44,0.61 -0.12,0.53 0.28,-0.08 5.76,-1.61 10.76,-5.90 2.29,-1.97 2.23,-2.11 2.81,-3.30 0.50,0.26 0.84,0.67 1.03,0.91 0.28,0.34 0.43,0.60 0.56,0.23 0.48,-1.33 -0.20,-2.13 -0.84,-2.54 0.00,0.00 0.67,-2.07 -0.56,-4.14 -0.21,-0.35 -1.43,-1.46 -2.85,0.74 -0.55,0.84 -0.96,2.85 -0.17,3.42 z M 358.61,4.34 c 0.73,-1.02 1.08,-0.99 1.36,-0.82 0.82,0.77 0.70,2.02 0.67,2.31 0.00,0.00 -1.05,-0.49 -1.52,-0.70 -0.47,-0.20 -0.72,-0.50 -0.50,-0.80 z M 340.04,7.03 c 0.17,0.10 0.36,0.11 0.41,-0.10 0.05,-0.21 0.28,-0.68 0.62,-0.34 0.28,0.28 2.09,1.78 3.03,4.95 0.16,0.42 0.55,0.46 0.64,-0.14 0.22,-1.47 0.34,-4.02 0.45,-4.79 0.16,-1.09 0.68,-3.32 2.06,-2.16 0.31,0.26 0.64,0.61 0.64,0.61 0.29,0.37 0.66,0.79 0.84,0.36 0.27,-0.64 0.49,-1.71 0.19,-2.28 -0.13,-0.25 -1.84,-2.41 -3.00,-0.93 -1.44,1.83 -1.53,4.23 -1.72,6.91 -0.20,-0.56 -1.35,-4.15 -5.02,-6.21 -0.27,-0.15 -0.81,0.13 -0.86,0.98 -0.03,0.49 -0.17,1.69 0.18,2.03 0.35,0.34 1.37,1.01 1.54,1.10 z M 363.02,37.21 c -0.24,0.68 -0.34,1.12 -0.31,1.38 0.03,0.26 0.12,1.10 0.12,1.10 -0.25,0.20 -1.33,0.87 -2.40,0.08 0.07,-0.23 0.21,-0.70 0.24,-0.95 0.12,-0.40 -0.13,-0.69 -0.32,-0.28 -0.20,0.41 -0.65,1.79 -0.99,2.10 -0.34,0.31 -0.73,1.45 -3.30,0.29 -0.45,-0.17 -1.24,-0.75 -2.46,0.48 -2.77,2.57 -4.68,2.78 -7.79,3.88 -0.38,0.17 -1.16,0.77 -0.23,0.67 0.94,-0.09 4.87,0.00 7.01,-2.46 0.45,-0.43 0.96,-1.58 2.66,-0.92 0.94,0.36 2.68,1.85 4.58,-1.10 1.12,0.75 2.82,0.45 3.09,-0.38 0.27,-0.82 0.58,-1.64 0.58,-2.20 0.00,-0.56 -0.05,-1.30 -0.05,-1.30 -0.04,-0.44 -0.19,-1.07 -0.44,-0.40 z M 366.22,24.89 c -0.25,-0.28 -0.37,-0.01 -0.46,0.31 -0.09,0.32 -0.36,1.52 -0.54,2.27 0.00,0.00 0.71,1.16 0.97,1.76 0.25,0.59 -0.12,0.92 -0.86,1.01 -2.08,0.25 -3.73,-0.94 -4.30,-1.48 -0.57,-0.55 0.05,-1.52 0.51,-2.68 0.37,-0.93 -0.32,-1.04 -0.84,0.00 -1.76,4.63 -4.23,5.12 -4.88,5.30 -5.86,1.60 -5.36,-3.76 -5.34,-4.64 0.02,-0.88 -0.62,-0.55 -1.34,0.03 -2.47,1.98 -4.45,3.14 -5.52,3.62 -0.92,-1.80 -2.26,-2.93 -2.82,-3.33 -6.34,-4.63 -6.87,4.71 -6.67,5.71 0.97,3.97 7.45,1.56 8.46,1.44 1.02,-0.12 0.68,1.22 0.11,2.02 -1.41,1.97 -3.03,3.38 -4.50,4.57 -6.28,5.13 -9.44,4.72 -10.41,4.69 -6.17,-0.17 -5.60,-6.82 -5.26,-8.24 1.86,-1.57 3.45,-3.28 4.38,-5.04 0.38,-0.96 1.03,-3.16 -0.15,-5.91 -0.62,-1.21 -2.56,-4.60 -2.56,-4.60 0.00,0.00 1.43,0.04 1.57,0.04 0.14,0.00 0.41,-0.14 0.06,-0.54 -0.35,-0.40 -3.36,-3.40 -3.54,-3.65 -0.18,-0.24 -0.35,-0.42 -0.45,-0.06 -0.10,0.36 -0.36,1.88 -0.42,2.20 -0.06,0.31 -0.06,0.63 0.10,0.90 0.15,0.27 0.55,1.20 0.84,1.96 0.29,0.76 3.25,6.47 3.53,6.98 0.27,0.51 0.33,0.88 0.06,1.22 -9.53,10.05 -27.91,16.23 -28.50,16.57 -0.59,0.34 -0.43,0.61 0.56,0.43 1.48,-0.26 9.74,-1.64 12.09,-2.77 1.55,-0.75 6.97,-3.41 11.41,-6.89 -0.12,0.90 -0.24,2.22 -0.17,3.89 0.30,8.08 7.53,6.74 9.43,6.33 5.68,-1.25 12.64,-9.11 13.23,-10.69 0.58,-1.56 0.67,-2.98 0.54,-4.22 1.50,-0.81 4.71,-3.40 4.71,-3.40 0.13,3.45 2.88,4.48 3.72,4.63 3.96,0.60 5.94,-2.71 6.78,-3.78 0.72,1.89 2.45,2.25 3.34,2.43 3.41,0.68 4.08,-1.73 4.26,-2.29 1.07,-3.33 -0.86,-5.81 -1.11,-6.08 z M 337.59,31.57 c -2.02,-0.14 -1.85,-0.92 -1.57,-1.22 0.30,-0.33 2.78,-1.89 4.85,0.89 0.00,0.00 -0.86,0.50 -3.28,0.33 z M 307.74,14.16 c -0.06,-0.05 -0.15,-0.03 -0.20,0.04 -1.53,2.10 -1.53,2.10 -1.53,2.10 -0.05,0.07 -0.04,0.16 0.03,0.20 2.61,1.91 2.61,1.91 2.61,1.91 0.06,0.05 0.15,0.03 0.20,-0.04 1.32,-1.81 1.32,-1.81 1.32,-1.81 2.54,1.85 2.54,1.85 2.54,1.85 0.06,0.05 0.15,0.03 0.20,-0.04 1.53,-2.10 1.53,-2.10 1.53,-2.10 0.05,-0.07 0.04,-0.16 -0.03,-0.21 -2.61,-1.91 -2.61,-1.91 -2.61,-1.91 -0.06,-0.05 -0.15,-0.03 -0.20,0.04 -1.32,1.81 -1.32,1.81 -1.32,1.81 z M 300.16,13.78 c 0.17,-0.04 3.05,-0.49 6.41,-3.05 1.82,-1.38 2.92,-3.74 2.92,-3.74 0.00,0.00 0.91,0.76 1.03,0.91 0.28,0.34 0.43,0.60 0.56,0.23 0.48,-1.33 -0.20,-2.13 -0.84,-2.54 0.00,0.00 0.67,-2.07 -0.56,-4.14 -0.21,-0.35 -1.43,-1.46 -2.85,0.74 -0.55,0.84 -0.96,2.85 -0.17,3.42 0.79,0.58 1.94,1.04 1.94,1.04 -3.66,4.49 -6.16,5.34 -8.30,6.60 -0.55,0.32 -0.44,0.61 -0.12,0.52 z M 307.88,4.39 c -0.47,-0.20 -0.72,-0.50 -0.50,-0.80 0.73,-1.02 1.08,-0.99 1.36,-0.82 0.82,0.77 0.70,2.02 0.67,2.31 0.00,0.00 -1.05,-0.49 -1.52,-0.69 z M 307.12,23.91 c 0.00,0.00 1.25,-0.31 1.47,-0.38 0.22,-0.06 0.34,-0.35 -0.05,-0.55 -0.39,-0.20 -4.09,-1.67 -4.37,-1.79 -0.28,-0.11 -0.38,-0.24 -0.41,0.06 -0.02,0.30 -0.07,2.73 -0.07,2.73 0.00,0.00 -0.06,0.17 0.27,0.35 0.32,0.18 0.64,0.58 0.90,0.84 0.26,0.26 3.70,2.98 3.87,3.07 0.00,0.00 -1.72,3.02 -1.94,5.38 -0.22,2.36 0.04,5.63 3.27,4.57 0.87,-0.25 4.49,-1.69 5.30,-4.21 0.26,-0.93 1.01,-2.61 -0.21,-4.31 -0.70,-1.00 -3.53,-2.69 -3.53,-2.69 0.00,0.00 2.17,-3.00 2.38,-3.37 0.21,-0.37 1.00,-2.69 1.09,-3.26 0.09,-0.56 0.13,-0.84 -0.29,-0.32 -0.42,0.52 -4.63,6.05 -4.63,6.05 z M 314.07,32.79 c -1.20,0.99 -3.72,2.29 -4.43,2.36 -0.71,0.07 -2.59,-0.28 -1.77,-2.20 0.28,-0.62 2.16,-3.84 2.16,-3.84 0.70,0.39 5.24,2.70 4.04,3.69 z M 237.25,33.70 c 0.05,-0.63 0.28,-1.88 -0.03,-3.68 0.75,0.03 3.59,-0.10 5.32,-3.31 0.00,0.00 1.07,1.96 2.79,2.21 1.72,0.24 3.46,0.10 4.17,-2.96 0.10,-0.67 0.20,-2.98 -0.99,-4.88 -0.20,-0.34 -0.39,-0.16 -0.47,0.10 -0.08,0.26 -0.57,2.45 -0.57,2.45 0.32,0.71 0.77,2.13 0.34,2.31 -0.43,0.18 -2.45,0.63 -4.29,-1.84 0.00,0.00 0.36,-1.11 0.51,-1.74 0.14,-0.63 0.00,-1.50 -0.51,-0.57 -0.50,0.92 -2.48,6.36 -7.40,4.84 -0.31,-0.66 -0.68,-1.35 -1.14,-2.08 -0.39,-0.59 -0.56,-0.25 -0.64,-0.03 -0.08,0.22 -0.39,2.44 -0.39,2.44 0.87,1.40 3.13,5.65 2.21,6.80 -0.92,1.15 -8.16,8.13 -15.34,8.04 -3.30,-0.28 -7.46,-1.28 -8.23,-6.25 -0.23,-1.50 0.22,-5.10 1.01,-6.82 0.07,-0.15 0.12,-0.29 0.17,-0.42 0.20,0.10 0.41,0.17 0.65,0.17 0.76,-0.01 1.74,-0.65 2.40,-3.36 0.11,-0.61 0.18,-1.10 0.23,-1.34 0.07,-0.36 -0.18,-0.79 -0.41,0.04 -0.53,1.66 -1.96,2.84 -3.08,0.64 -0.18,-0.44 -0.95,-2.43 0.33,-6.83 0.26,-0.85 0.58,-2.13 0.58,-2.13 0.29,-0.96 -0.08,-1.48 -0.49,-0.30 -0.41,1.18 -2.13,5.25 -1.78,10.01 0.05,0.71 0.36,1.84 0.96,2.57 -0.05,0.10 -0.10,0.20 -0.15,0.33 -0.66,1.58 -5.34,12.84 3.04,16.02 3.28,1.24 10.82,1.63 18.57,-5.54 2.42,-2.24 2.65,-4.89 2.65,-4.89 z" />
     </g>
</svg>
