<?xml version="1.0" encoding="UTF-8"?>
<svg version="1.1" id="Layer_1" x="0px" y="0px" width="578" height="51" viewBox="0 0 578 51"
xml:space="preserve" xmlns="http://www.w3.org/2000/svg" xmlns:svg="http://www.w3.org/2000/svg" xmlns:rdf="http://www.w3.org/1999/02/22-rdf-syntax-ns#"  xmlns:cc="http://creativecommons.org/ns#" xmlns:dc="http://purl.org/dc/elements/1.1/">
     <g>
<path d="M 243.33,12.68 c -1.92,2.63 -1.92,2.63 -1.92,2.63 -0.06,0.08 -0.05,0.20 0.03,0.25 3.27,2.38 3.27,2.38 3.27,2.38 0.08,0.06 0.19,0.04 0.25,-0.05 1.91,-2.63 1.91,-2.63 1.91,-2.63 0.06,-0.08 0.05,-0.20 -0.03,-0.25 -3.27,-2.38 -3.27,-2.38 -3.27,-2.38 -0.08,-0.06 -0.19,-0.04 -0.25,0.05 z M 253.78,12.24 c 0.61,-0.04 1.38,-0.49 1.85,-2.27 0.07,-0.40 0.12,-0.72 0.15,-0.88 0.05,-0.24 -0.16,-0.51 -0.33,0.04 -0.39,1.10 -1.51,1.92 -2.46,0.53 -0.16,-0.28 -0.82,-1.55 0.10,-4.47 0.19,-0.57 0.41,-1.41 0.41,-1.41 0.21,-0.64 -0.10,-0.96 -0.40,-0.18 -0.30,0.78 -1.59,3.50 -1.19,6.59 0.09,0.71 0.69,2.08 1.88,2.05 z M 262.01,8.14 c 0.84,0.49 2.03,0.84 2.03,0.84 -3.18,4.84 -10.00,8.75 -11.56,10.26 -0.47,0.44 -0.38,0.65 -0.06,0.54 0.28,-0.11 5.56,-2.19 10.10,-6.97 2.08,-2.19 2.00,-2.33 2.46,-3.58 0.52,0.20 0.90,0.58 1.12,0.80 0.31,0.31 0.49,0.55 0.58,0.17 0.34,-1.37 -0.42,-2.10 -1.10,-2.44 0.00,0.00 0.45,-2.13 -0.99,-4.06 -0.24,-0.32 -1.57,-1.30 -2.76,1.03 -0.46,0.89 -0.66,2.93 0.18,3.42 z M 262.53,6.05 c 0.62,-1.09 0.98,-1.09 1.27,-0.96 0.90,0.68 0.90,1.94 0.90,2.23 0.00,0.00 -1.10,-0.38 -1.59,-0.53 -0.49,-0.15 -0.77,-0.42 -0.58,-0.74 z M 263.87,16.48 c 0.21,-0.64 -0.10,-0.96 -0.40,-0.18 -0.30,0.78 -1.59,3.50 -1.19,6.59 0.09,0.71 0.69,2.08 1.88,2.05 0.61,-0.04 1.38,-0.49 1.85,-2.28 0.08,-0.40 0.12,-0.72 0.15,-0.88 0.05,-0.24 -0.16,-0.51 -0.33,0.04 -0.39,1.10 -1.51,1.92 -2.46,0.53 -0.16,-0.28 -0.82,-1.55 0.10,-4.47 0.19,-0.57 0.41,-1.41 0.41,-1.41 z M 291.50,45.45 c 1.53,-2.10 1.53,-2.10 1.53,-2.10 0.05,-0.07 0.04,-0.16 -0.03,-0.20 -2.61,-1.91 -2.61,-1.91 -2.61,-1.91 -0.06,-0.04 -0.15,-0.03 -0.20,0.04 -1.32,1.81 -1.32,1.81 -1.32,1.81 -2.54,-1.85 -2.54,-1.85 -2.54,-1.85 -0.06,-0.04 -0.15,-0.03 -0.20,0.04 -1.53,2.10 -1.53,2.10 -1.53,2.10 -0.05,0.07 -0.04,0.16 0.03,0.21 2.61,1.91 2.61,1.91 2.61,1.91 0.06,0.05 0.15,0.03 0.20,-0.04 1.32,-1.81 1.32,-1.81 1.32,-1.81 2.54,1.85 2.54,1.85 2.54,1.85 0.06,0.05 0.15,0.03 0.20,-0.04 z M 269.85,19.24 c 0.28,-0.11 5.56,-2.19 10.10,-6.98 2.08,-2.19 2.00,-2.33 2.46,-3.58 0.52,0.20 0.90,0.58 1.12,0.80 0.31,0.31 0.49,0.55 0.58,0.18 0.34,-1.37 -0.42,-2.10 -1.10,-2.44 0.00,0.00 0.45,-2.13 -0.99,-4.06 -0.24,-0.32 -1.57,-1.30 -2.76,1.03 -0.46,0.89 -0.66,2.93 0.18,3.42 0.84,0.49 2.03,0.84 2.03,0.84 -3.18,4.84 -9.99,8.75 -11.56,10.25 -0.47,0.44 -0.38,0.66 -0.06,0.54 z M 280.53,6.26 c -0.49,-0.15 -0.77,-0.42 -0.58,-0.74 0.62,-1.09 0.97,-1.09 1.27,-0.96 0.90,0.68 0.90,1.94 0.90,2.23 0.00,0.00 -1.10,-0.38 -1.59,-0.53 z M 224.73,11.12 c 0.50,-0.03 1.12,-0.40 1.50,-1.85 0.06,-0.33 0.10,-0.59 0.12,-0.72 0.04,-0.20 -0.13,-0.42 -0.27,0.04 -0.32,0.90 -1.23,1.56 -2.00,0.43 -0.13,-0.23 -0.67,-1.26 0.08,-3.64 0.15,-0.46 0.34,-1.15 0.34,-1.15 0.17,-0.52 -0.08,-0.78 -0.33,-0.15 -0.24,0.64 -1.29,2.85 -0.97,5.36 0.08,0.58 0.56,1.69 1.53,1.67 z M 224.77,15.76 c -0.38,1.48 -0.07,2.98 0.90,3.18 0.68,0.14 1.05,0.55 1.21,0.79 0.07,0.10 0.18,0.04 0.22,-0.03 0.84,-1.49 0.18,-2.48 -1.12,-2.91 -0.52,-0.17 -0.72,-0.91 1.27,-2.07 1.83,-1.07 19.83,-9.23 20.24,-9.49 0.55,-0.35 0.88,-0.48 1.11,-1.01 0.23,-0.53 0.29,-0.62 0.41,-0.98 0.13,-0.39 0.26,-0.80 -0.74,-0.24 -0.53,0.30 -20.28,9.11 -21.81,10.24 -0.77,0.57 -1.43,1.50 -1.69,2.52 z M 257.69,39.19 c -0.30,0.66 -0.43,1.09 -0.42,1.35 0.01,0.26 0.03,1.10 0.03,1.10 -0.27,0.18 -1.39,0.77 -2.40,-0.11 0.09,-0.22 0.26,-0.68 0.32,-0.93 0.15,-0.39 -0.07,-0.70 -0.30,-0.31 -0.23,0.40 -0.79,1.74 -1.15,2.02 -0.36,0.28 -0.85,1.39 -3.31,0.03 -0.43,-0.21 -1.17,-0.85 -2.49,0.28 -2.96,2.35 -4.89,2.40 -8.07,3.26 -0.39,0.14 -1.22,0.67 -0.28,0.65 0.94,-0.02 4.86,0.38 7.19,-1.90 0.48,-0.40 1.08,-1.50 2.73,-0.70 0.91,0.43 2.53,2.06 4.66,-0.74 1.06,0.83 2.78,0.67 3.11,-0.13 0.34,-0.80 0.71,-1.59 0.75,-2.15 0.04,-0.56 0.05,-1.30 0.05,-1.30 0.00,-0.44 -0.11,-1.09 -0.41,-0.43 z M 284.97,34.25 c 0.42,-0.24 3.76,-1.70 3.53,-5.45 -0.05,-0.76 -0.12,-2.01 -1.11,-3.70 -0.48,-0.82 -1.67,-2.78 -1.67,-2.78 0.00,0.00 1.39,0.44 1.57,0.51 0.18,0.07 0.47,0.03 0.23,-0.25 -0.24,-0.28 -3.80,-4.31 -3.97,-4.48 -0.18,-0.17 -0.29,-0.26 -0.36,-0.01 -0.07,0.25 -0.54,3.04 -0.54,3.04 0.19,0.50 1.86,3.53 2.40,4.42 0.54,0.89 2.49,3.68 1.78,4.24 -0.71,0.56 -1.65,1.25 -2.71,1.57 0.00,0.00 -0.50,-1.81 -2.76,-3.61 -0.40,-0.32 -3.22,-1.90 -4.98,2.49 -0.23,0.76 -1.12,4.71 2.48,5.36 0.94,0.11 2.68,-0.25 3.28,-0.42 0.60,-0.18 2.03,-0.76 1.71,0.21 -0.32,0.97 -2.11,4.87 -9.51,8.49 -0.89,0.43 -6.40,3.09 -8.58,-1.90 -0.75,-1.72 -0.04,-5.02 0.17,-5.92 0.32,0.15 0.65,0.26 0.99,0.29 0.94,0.05 2.48,0.15 3.38,-2.16 0.13,-0.40 0.74,-2.08 0.20,-3.56 -0.13,-0.56 -0.85,-2.50 -0.93,-2.69 -0.08,-0.19 -0.19,-0.43 -0.38,-0.08 -0.19,0.35 -0.75,2.19 -0.75,2.19 0.27,0.79 1.12,2.62 0.70,2.87 -0.42,0.25 -2.34,1.15 -4.39,-1.45 0.07,-0.34 0.24,-1.21 0.30,-1.56 0.11,-0.43 -0.13,-0.74 -0.40,-0.28 -0.26,0.46 -1.00,2.33 -1.33,3.06 -0.33,0.73 -2.11,2.82 -4.77,1.63 -0.46,-0.23 -1.68,-1.29 -1.47,-1.81 0.21,-0.53 0.36,-1.11 0.50,-1.63 0.13,-0.53 0.05,-1.06 -0.45,-0.40 -0.50,0.66 -2.16,3.52 -5.17,4.40 -0.99,0.25 -4.38,0.92 -6.80,-1.55 0.96,-0.81 1.98,-1.77 2.38,-2.92 0.19,-0.56 1.23,-3.80 -0.64,-6.91 -0.28,-0.44 -1.82,-2.71 -3.43,-1.16 -1.60,1.55 -3.15,5.97 -1.33,9.93 0.00,0.00 -7.80,5.48 -16.19,4.64 -1.63,-0.16 -8.86,-1.51 -7.58,-7.82 0.14,-0.60 0.93,-2.82 1.40,-3.81 0.30,-0.37 0.58,-0.95 0.82,-1.81 0.09,-0.45 0.15,-0.80 0.19,-0.98 0.06,-0.27 -0.14,-0.58 -0.33,0.03 -0.44,1.21 -1.60,2.06 -2.50,0.47 -0.15,-0.32 -0.76,-1.77 0.28,-4.97 0.21,-0.62 0.48,-1.55 0.48,-1.55 0.23,-0.70 -0.06,-1.08 -0.40,-0.22 -0.33,0.86 -1.74,3.82 -1.47,7.29 0.06,0.80 0.61,2.35 1.81,2.38 0.07,0.00 0.15,-0.01 0.22,-0.02 -1.19,2.35 -4.04,8.69 1.34,12.40 0.81,0.56 6.50,3.87 16.83,-0.48 1.27,-0.53 5.14,-2.44 5.14,-2.44 0.18,-0.11 0.57,-0.33 1.07,-0.64 0.47,0.82 1.08,1.64 1.89,2.30 0.48,0.41 3.71,2.51 8.20,0.40 1.27,-0.64 2.59,-2.18 2.59,-2.18 3.24,3.72 6.86,2.10 8.00,-0.81 0.00,0.00 0.52,0.65 1.28,1.19 -0.31,1.02 -2.23,6.90 0.29,10.07 0.62,0.78 4.88,5.73 14.96,-2.70 0.69,-0.57 4.93,-3.92 4.49,-8.74 z M 278.82,32.37 c -0.69,-0.13 -1.70,-0.50 -0.46,-1.56 1.23,-1.06 3.02,0.87 3.31,1.29 0.00,0.00 -0.94,0.42 -2.85,0.28 z M 243.82,31.17 c 0.00,0.00 -2.74,-3.34 -0.07,-5.83 1.17,-1.01 2.69,2.04 3.02,2.87 0.34,0.83 -2.60,2.75 -2.96,2.96 z M 232.77,45.37 c -0.32,0.90 -1.23,1.56 -2.00,0.43 -0.13,-0.23 -0.67,-1.26 0.08,-3.64 0.15,-0.46 0.34,-1.15 0.34,-1.15 0.17,-0.52 -0.08,-0.78 -0.33,-0.15 -0.24,0.64 -1.29,2.85 -0.97,5.36 0.08,0.58 0.56,1.69 1.53,1.67 0.50,-0.03 1.13,-0.40 1.50,-1.85 0.06,-0.33 0.10,-0.59 0.12,-0.72 0.04,-0.20 -0.13,-0.42 -0.27,0.04 z M 232.14,22.33 c -1.27,1.74 -1.35,4.03 -1.52,6.57 -0.18,-0.53 -1.20,-3.95 -4.45,-5.91 -0.24,-0.14 -0.72,0.13 -0.76,0.93 -0.03,0.47 -0.15,1.61 0.16,1.93 0.31,0.32 1.22,0.96 1.37,1.05 0.15,0.09 0.32,0.10 0.36,-0.09 0.05,-0.19 0.25,-0.65 0.55,-0.32 0.25,0.27 1.85,1.69 2.68,4.71 0.14,0.40 0.49,0.44 0.57,-0.13 0.19,-1.40 0.29,-3.82 0.40,-4.56 0.14,-1.03 0.60,-3.16 1.82,-2.06 0.28,0.25 0.57,0.58 0.57,0.58 0.26,0.35 0.58,0.75 0.74,0.35 0.24,-0.61 0.43,-1.62 0.17,-2.17 -0.12,-0.24 -1.62,-2.30 -2.65,-0.89 z M 327.35,20.28 c 0.49,0.00 1.11,-0.35 1.55,-1.87 0.08,-0.34 0.13,-0.62 0.16,-0.75 0.05,-0.21 -0.10,-0.45 -0.26,0.02 -0.35,0.93 -1.27,1.58 -1.96,0.33 -0.11,-0.25 -0.58,-1.38 0.28,-3.86 0.17,-0.48 0.39,-1.20 0.39,-1.20 0.19,-0.54 -0.04,-0.84 -0.31,-0.18 -0.27,0.66 -1.40,2.94 -1.23,5.64 0.04,0.62 0.45,1.83 1.39,1.87 z M 350.70,6.37 c 0.79,0.58 1.94,1.04 1.94,1.04 -3.66,4.48 -10.85,7.67 -12.56,9.01 -0.51,0.38 -0.44,0.61 -0.12,0.52 0.28,-0.08 5.76,-1.61 10.76,-5.90 2.29,-1.96 2.23,-2.11 2.81,-3.31 0.50,0.26 0.84,0.67 1.03,0.91 0.28,0.34 0.43,0.60 0.56,0.23 0.48,-1.33 -0.20,-2.13 -0.84,-2.54 0.00,0.00 0.67,-2.07 -0.56,-4.14 -0.21,-0.35 -1.43,-1.46 -2.85,0.74 -0.55,0.84 -0.96,2.85 -0.17,3.42 z M 351.43,4.34 c 0.73,-1.02 1.08,-0.99 1.36,-0.82 0.82,0.77 0.70,2.02 0.67,2.31 0.00,0.00 -1.05,-0.49 -1.52,-0.69 -0.47,-0.20 -0.72,-0.50 -0.50,-0.80 z M 332.85,7.03 c 0.17,0.10 0.36,0.11 0.41,-0.10 0.05,-0.21 0.28,-0.68 0.62,-0.34 0.28,0.28 2.09,1.78 3.03,4.95 0.16,0.42 0.55,0.46 0.64,-0.14 0.22,-1.47 0.34,-4.02 0.45,-4.79 0.16,-1.08 0.68,-3.32 2.06,-2.16 0.31,0.27 0.64,0.61 0.64,0.61 0.29,0.37 0.66,0.79 0.84,0.36 0.27,-0.64 0.49,-1.70 0.19,-2.28 -0.13,-0.26 -1.84,-2.41 -3.00,-0.93 -1.44,1.83 -1.53,4.23 -1.72,6.91 -0.20,-0.56 -1.35,-4.16 -5.03,-6.21 -0.27,-0.15 -0.81,0.13 -0.86,0.98 -0.03,0.49 -0.17,1.69 0.18,2.03 0.35,0.34 1.37,1.01 1.54,1.10 z M 353.46,14.30 c 0.18,-0.50 -0.04,-0.77 -0.29,-0.16 -0.25,0.61 -1.30,2.73 -1.14,5.22 0.04,0.58 0.42,1.70 1.29,1.73 0.45,0.00 1.03,-0.33 1.44,-1.73 0.07,-0.32 0.12,-0.57 0.15,-0.70 0.04,-0.19 -0.10,-0.42 -0.24,0.02 -0.33,0.86 -1.18,1.47 -1.82,0.31 -0.10,-0.23 -0.53,-1.28 0.26,-3.57 0.16,-0.44 0.36,-1.11 0.36,-1.11 z M 309.65,12.30 c 0.25,-0.16 13.84,-8.02 14.32,-8.31 0.46,-0.29 0.72,-0.41 0.90,-0.85 0.18,-0.44 0.23,-0.51 0.33,-0.82 0.11,-0.32 0.21,-0.67 -0.61,-0.19 -0.53,0.31 -14.04,8.11 -14.59,8.46 -0.55,0.35 -0.74,0.44 -0.83,0.87 -0.09,0.42 -0.13,0.67 -0.15,0.73 -0.10,0.28 -0.17,0.63 0.64,0.10 z M 292.97,13.78 c 0.17,-0.04 3.05,-0.49 6.41,-3.05 1.82,-1.38 2.92,-3.74 2.92,-3.74 0.00,0.00 0.91,0.76 1.03,0.91 0.28,0.34 0.43,0.60 0.56,0.23 0.48,-1.33 -0.20,-2.13 -0.84,-2.54 0.00,0.00 0.67,-2.07 -0.56,-4.14 -0.21,-0.35 -1.43,-1.46 -2.85,0.74 -0.55,0.84 -0.96,2.85 -0.17,3.42 0.79,0.58 1.94,1.04 1.94,1.04 -3.66,4.48 -6.16,5.34 -8.30,6.59 -0.55,0.32 -0.44,0.61 -0.12,0.53 z M 300.69,4.39 c -0.47,-0.20 -0.72,-0.50 -0.50,-0.80 0.73,-1.02 1.08,-0.99 1.36,-0.82 0.82,0.77 0.70,2.02 0.67,2.31 0.00,0.00 -1.05,-0.49 -1.52,-0.69 z M 355.83,37.21 c -0.24,0.68 -0.34,1.12 -0.31,1.38 0.03,0.26 0.12,1.10 0.12,1.10 -0.25,0.20 -1.33,0.87 -2.40,0.08 0.07,-0.23 0.21,-0.70 0.24,-0.95 0.12,-0.40 -0.13,-0.69 -0.32,-0.28 -0.20,0.41 -0.65,1.79 -0.99,2.10 -0.34,0.31 -0.73,1.45 -3.30,0.29 -0.45,-0.17 -1.23,-0.75 -2.46,0.48 -2.77,2.57 -4.68,2.77 -7.79,3.88 -0.38,0.17 -1.16,0.77 -0.23,0.67 0.94,-0.09 4.87,0.00 7.01,-2.46 0.45,-0.43 0.96,-1.58 2.66,-0.92 0.94,0.36 2.68,1.85 4.58,-1.10 1.12,0.75 2.82,0.45 3.09,-0.38 0.27,-0.82 0.58,-1.64 0.58,-2.20 0.00,-0.56 -0.05,-1.30 -0.05,-1.30 -0.04,-0.44 -0.19,-1.07 -0.44,-0.40 z M 299.93,23.91 c 0.00,0.00 1.25,-0.31 1.47,-0.38 0.22,-0.06 0.34,-0.35 -0.05,-0.55 -0.39,-0.20 -4.09,-1.67 -4.37,-1.79 -0.28,-0.11 -0.38,-0.24 -0.41,0.06 -0.02,0.30 -0.07,2.73 -0.07,2.73 0.00,0.00 -0.06,0.17 0.27,0.35 0.32,0.18 0.64,0.58 0.90,0.84 0.26,0.26 3.70,2.98 3.87,3.07 0.00,0.00 -1.72,3.02 -1.94,5.38 -0.22,2.36 0.04,5.63 3.27,4.57 0.87,-0.25 4.49,-1.69 5.30,-4.21 0.26,-0.93 1.01,-2.61 -0.21,-4.31 -0.70,-1.00 -3.53,-2.69 -3.53,-2.69 0.00,0.00 2.17,-3.00 2.38,-3.37 0.21,-0.37 1.01,-2.69 1.09,-3.25 0.09,-0.56 0.13,-0.84 -0.29,-0.32 -0.42,0.52 -4.63,6.05 -4.63,6.05 z M 306.88,32.79 c -1.20,0.99 -3.72,2.29 -4.43,2.36 -0.71,0.07 -2.59,-0.28 -1.77,-2.20 0.28,-0.62 2.16,-3.84 2.16,-3.84 0.70,0.39 5.24,2.70 4.04,3.69 z M 359.04,24.89 c -0.25,-0.28 -0.37,-0.01 -0.46,0.31 -0.09,0.32 -0.36,1.52 -0.54,2.27 0.00,0.00 0.71,1.16 0.97,1.76 0.25,0.59 -0.12,0.92 -0.86,1.01 -2.08,0.25 -3.73,-0.94 -4.30,-1.48 -0.57,-0.55 0.05,-1.52 0.51,-2.68 0.37,-0.93 -0.32,-1.04 -0.84,0.00 -1.76,4.63 -4.23,5.12 -4.88,5.30 -5.86,1.60 -5.36,-3.76 -5.34,-4.64 0.02,-0.88 -0.62,-0.55 -1.34,0.03 -2.47,1.98 -4.45,3.14 -5.52,3.62 -0.92,-1.80 -2.26,-2.93 -2.82,-3.33 -6.34,-4.63 -6.87,4.71 -6.68,5.71 0.97,3.97 7.45,1.56 8.46,1.44 1.02,-0.12 0.68,1.22 0.11,2.02 -1.41,1.97 -3.03,3.38 -4.50,4.58 -6.28,5.13 -9.44,4.72 -10.41,4.69 -6.17,-0.17 -5.60,-6.82 -5.26,-8.24 1.86,-1.57 3.45,-3.28 4.38,-5.04 0.38,-0.96 1.03,-3.16 -0.15,-5.91 -0.62,-1.21 -2.56,-4.60 -2.56,-4.60 0.00,0.00 1.43,0.04 1.57,0.04 0.14,0.00 0.41,-0.14 0.06,-0.54 -0.35,-0.40 -3.36,-3.41 -3.54,-3.65 -0.18,-0.24 -0.35,-0.42 -0.45,-0.06 -0.10,0.35 -0.36,1.88 -0.42,2.20 -0.06,0.31 -0.06,0.63 0.10,0.90 0.15,0.27 0.55,1.20 0.84,1.96 0.29,0.76 3.25,6.47 3.53,6.98 0.27,0.51 0.33,0.88 0.06,1.22 -9.53,10.05 -27.91,16.23 -28.50,16.58 -0.59,0.34 -0.43,0.61 0.56,0.43 1.48,-0.26 9.74,-1.64 12.09,-2.77 1.55,-0.75 6.97,-3.41 11.41,-6.89 -0.12,0.90 -0.24,2.22 -0.17,3.89 0.30,8.08 7.53,6.74 9.43,6.33 5.68,-1.25 12.64,-9.11 13.23,-10.68 0.58,-1.56 0.67,-2.98 0.54,-4.22 1.50,-0.81 4.71,-3.40 4.71,-3.40 0.13,3.45 2.87,4.48 3.72,4.63 3.96,0.60 5.94,-2.70 6.78,-3.78 0.72,1.89 2.45,2.26 3.34,2.43 3.41,0.68 4.08,-1.73 4.25,-2.29 1.07,-3.33 -0.86,-5.81 -1.11,-6.08 z M 330.40,31.57 c -2.03,-0.14 -1.85,-0.92 -1.57,-1.22 0.30,-0.33 2.78,-1.89 4.85,0.89 0.00,0.00 -0.86,0.50 -3.28,0.33 z M 300.55,14.16 c -0.06,-0.05 -0.15,-0.03 -0.20,0.04 -1.53,2.10 -1.53,2.10 -1.53,2.10 -0.05,0.07 -0.04,0.16 0.03,0.20 2.61,1.91 2.61,1.91 2.61,1.91 0.06,0.05 0.15,0.03 0.20,-0.04 1.32,-1.81 1.32,-1.81 1.32,-1.81 2.54,1.85 2.54,1.85 2.54,1.85 0.06,0.05 0.15,0.03 0.20,-0.04 1.53,-2.10 1.53,-2.10 1.53,-2.10 0.05,-0.07 0.04,-0.16 -0.03,-0.20 -2.61,-1.91 -2.61,-1.91 -2.61,-1.91 -0.06,-0.05 -0.15,-0.03 -0.20,0.04 -1.32,1.81 -1.32,1.81 -1.32,1.81 z" />
     </g>
</svg>
