<?xml version="1.0" encoding="UTF-8"?>
<svg version="1.1" id="Layer_1" x="0px" y="0px" width="578" height="52" viewBox="0 0 578 52"
xml:space="preserve" xmlns="http://www.w3.org/2000/svg" xmlns:svg="http://www.w3.org/2000/svg" xmlns:rdf="http://www.w3.org/1999/02/22-rdf-syntax-ns#"  xmlns:cc="http://creativecommons.org/ns#" xmlns:dc="http://purl.org/dc/elements/1.1/">
     <g>
<path d="M 289.13,42.00 c 0.21,-0.44 1.67,-3.47 -0.06,-14.54 -0.13,-0.92 -2.75,-19.64 -2.75,-19.64 0.00,0.00 1.55,1.46 1.80,1.72 0.25,0.26 0.55,0.12 0.41,-0.30 -0.14,-0.42 -3.31,-8.09 -3.41,-8.36 -0.10,-0.27 -0.20,-0.46 -0.33,-0.15 -0.13,0.31 -0.88,2.38 -0.88,2.38 0.20,1.35 1.99,15.83 2.10,16.81 0.12,0.99 2.62,17.36 2.76,21.89 -0.04,0.46 0.17,0.64 0.38,0.19 z M 277.07,7.98 c 0.00,0.00 1.55,1.45 1.80,1.72 0.25,0.26 0.55,0.12 0.41,-0.30 -0.14,-0.42 -3.31,-8.09 -3.42,-8.36 -0.10,-0.27 -0.20,-0.46 -0.33,-0.15 -0.13,0.31 -0.88,2.38 -0.88,2.38 0.08,0.55 4.02,27.83 4.06,28.78 0.04,0.95 0.45,1.49 -0.58,2.10 -3.30,1.90 -8.79,3.18 -10.56,3.92 -1.49,0.62 -4.43,1.90 -7.96,4.91 -1.94,1.65 -4.48,3.87 -5.86,4.58 -1.61,0.83 -5.88,2.27 -5.90,-2.39 0.00,-1.12 1.49,-5.28 2.10,-6.40 0.03,-0.06 0.04,-0.11 0.04,-0.17 0.34,-0.08 0.68,-0.18 1.04,-0.30 1.78,-0.52 7.39,-3.07 8.68,-5.69 0.52,-1.17 0.77,-1.78 0.93,-2.42 0.16,-0.65 0.32,-1.25 -0.52,-0.40 -0.85,0.85 -6.70,6.42 -11.15,5.45 -1.25,-0.40 -4.08,-3.11 -5.01,-8.00 -0.16,-0.77 0.57,-1.49 1.41,-1.82 0.85,-0.32 6.95,-2.99 10.62,-1.62 0.61,0.24 1.21,0.00 0.40,-0.61 -0.81,-0.60 -2.91,-2.58 -7.67,-1.78 -1.78,0.49 -5.90,1.78 -6.30,6.87 -0.08,1.17 0.44,3.71 1.21,6.02 -0.52,-0.32 -2.55,-1.09 -4.12,-8.32 -0.45,-2.06 -1.94,-10.86 -5.90,-16.03 -0.40,-0.65 -0.73,2.79 -0.73,2.79 0.66,1.29 3.06,7.27 4.10,10.94 0.23,0.81 0.55,2.43 0.59,2.64 0.23,1.05 0.53,2.00 -1.63,4.35 -2.63,2.87 -6.76,5.47 -7.65,5.96 -0.89,0.49 -6.40,3.80 -7.64,-1.79 -0.16,-0.74 -0.19,-5.12 1.86,-8.55 0.74,-0.07 1.65,-0.78 2.40,-3.30 0.15,-0.62 0.24,-1.11 0.30,-1.36 0.09,-0.37 -0.13,-0.82 -0.41,0.02 -0.62,1.67 -2.12,2.79 -3.12,0.48 -0.16,-0.46 -0.81,-2.54 0.71,-6.98 0.31,-0.86 0.70,-2.14 0.70,-2.14 0.34,-0.97 0.00,-1.52 -0.48,-0.34 -0.47,1.18 -2.42,5.25 -2.34,10.14 0.02,1.02 0.48,2.93 1.66,3.38 -0.03,0.07 -0.07,0.15 -0.11,0.24 -0.66,1.59 -4.59,9.53 -0.71,13.62 0.80,0.69 4.11,2.92 11.90,-3.41 4.18,-3.40 5.43,-6.79 5.43,-6.79 0.38,0.79 1.71,10.55 10.64,8.93 -0.02,0.04 -0.04,0.09 -0.06,0.14 -0.41,1.07 -4.96,8.88 1.11,12.01 1.73,0.89 3.91,0.33 9.08,-4.46 1.03,-0.96 6.35,-5.15 11.43,-6.48 1.18,-0.31 4.00,-0.87 6.23,-2.27 1.45,-0.98 2.51,-2.36 3.05,-4.37 0.66,-3.09 -0.08,-7.55 -0.54,-10.27 -0.45,-2.72 -2.34,-15.11 -2.34,-15.11 z M 223.73,6.18 c 0.16,0.09 0.34,0.10 0.39,-0.09 0.05,-0.19 0.27,-0.65 0.59,-0.32 0.27,0.27 1.99,1.69 2.88,4.71 0.15,0.40 0.53,0.44 0.61,-0.13 0.21,-1.40 0.32,-3.82 0.43,-4.56 0.16,-1.03 0.65,-3.16 1.96,-2.06 0.30,0.25 0.61,0.58 0.61,0.58 0.28,0.35 0.63,0.75 0.80,0.34 0.26,-0.61 0.46,-1.62 0.18,-2.17 -0.12,-0.24 -1.75,-2.30 -2.85,-0.89 -1.37,1.74 -1.46,4.03 -1.64,6.58 -0.19,-0.53 -1.29,-3.95 -4.78,-5.91 -0.25,-0.14 -0.77,0.13 -0.82,0.93 -0.03,0.47 -0.16,1.61 0.17,1.93 0.33,0.32 1.31,0.96 1.47,1.05 z M 240.67,39.57 c -0.54,0.30 -12.40,5.57 -12.95,5.91 -0.55,0.34 -0.75,0.43 -0.85,0.85 -0.10,0.42 -0.14,0.66 -0.17,0.73 -0.10,0.28 -0.18,0.63 0.64,0.12 0.25,-0.16 12.22,-5.48 12.68,-5.77 0.46,-0.29 0.73,-0.39 0.92,-0.83 0.19,-0.43 0.24,-0.51 0.34,-0.81 0.11,-0.32 0.22,-0.66 -0.61,-0.20 z M 248.08,14.97 c -0.14,0.57 -0.22,0.90 -0.25,0.99 -0.15,0.38 -0.26,0.85 0.86,0.17 0.35,-0.21 20.59,-10.24 21.22,-10.63 0.63,-0.38 1.00,-0.51 1.28,-1.10 0.27,-0.58 0.34,-0.69 0.49,-1.10 0.16,-0.43 0.32,-0.90 -0.82,-0.29 -0.74,0.39 -20.84,10.36 -21.60,10.81 -0.76,0.45 -1.03,0.56 -1.17,1.13 z M 278.15,44.25 c -0.33,0.87 -1.19,1.48 -1.84,0.31 -0.11,-0.23 -0.54,-1.29 0.26,-3.62 0.16,-0.45 0.36,-1.12 0.36,-1.12 0.18,-0.51 -0.04,-0.78 -0.29,-0.16 -0.25,0.62 -1.32,2.76 -1.15,5.28 0.04,0.58 0.42,1.72 1.30,1.75 0.45,0.00 1.04,-0.33 1.46,-1.76 0.07,-0.32 0.12,-0.58 0.15,-0.71 0.04,-0.19 -0.10,-0.42 -0.25,0.02 z M 268.35,10.39 c 0.18,-0.51 -0.04,-0.78 -0.29,-0.16 -0.25,0.62 -1.32,2.76 -1.15,5.28 0.04,0.58 0.42,1.72 1.30,1.75 0.45,0.00 1.04,-0.33 1.46,-1.76 0.07,-0.32 0.12,-0.58 0.15,-0.71 0.04,-0.19 -0.10,-0.42 -0.24,0.02 -0.33,0.87 -1.20,1.49 -1.84,0.31 -0.10,-0.23 -0.54,-1.29 0.26,-3.62 0.16,-0.45 0.37,-1.12 0.37,-1.12 z M 231.39,20.05 c 0.19,-0.58 -0.09,-0.87 -0.37,-0.16 -0.27,0.71 -1.44,3.17 -1.08,5.97 0.08,0.65 0.63,1.89 1.70,1.86 0.56,-0.03 1.25,-0.44 1.67,-2.06 0.07,-0.36 0.11,-0.66 0.14,-0.80 0.04,-0.22 -0.15,-0.46 -0.30,0.04 -0.35,1.00 -1.37,1.74 -2.23,0.48 -0.14,-0.25 -0.74,-1.41 0.09,-4.05 0.17,-0.51 0.38,-1.28 0.38,-1.28 z M 270.99,20.77 c -0.21,0.66 -0.37,1.17 -0.09,1.92 0.29,0.75 1.06,2.46 1.19,2.71 0.13,0.24 0.16,0.52 -0.26,0.70 -0.42,0.18 -2.37,0.60 -2.73,-1.47 -0.36,-2.07 -0.39,-2.67 -0.57,-3.02 -0.18,-0.35 -0.35,-0.39 -0.49,-0.04 -0.14,0.35 -0.22,1.07 -0.24,1.19 -0.02,0.12 -0.02,0.20 0.05,0.33 0.08,0.13 0.85,2.44 0.50,3.08 -0.35,0.64 -2.09,1.78 -3.00,0.58 -0.44,-0.84 -0.17,-2.96 -0.17,-3.46 0.00,-0.50 -0.16,-0.67 -0.37,-0.26 -0.21,0.40 -0.33,0.67 -0.32,1.03 0.01,0.36 0.06,1.91 0.03,2.40 -0.03,0.49 0.00,2.07 0.93,2.51 0.93,0.45 2.29,0.03 3.32,-1.91 0.80,1.16 2.01,1.16 2.65,0.92 0.55,-0.20 1.17,-1.03 1.35,-2.17 0.18,-1.15 -0.12,-1.93 -0.48,-2.58 -0.48,-0.80 -0.80,-2.13 -0.80,-2.13 -0.17,-0.48 -0.30,-0.97 -0.51,-0.31 z M 241.26,5.99 c 0.42,-0.45 0.71,-0.90 1.93,-0.87 1.22,0.03 4.15,-0.08 3.06,0.72 -1.09,0.80 -1.83,1.27 -1.83,1.27 -0.71,0.51 -1.33,1.46 -0.08,0.93 1.25,-0.53 2.91,-1.37 4.18,-3.28 0.37,-0.56 0.80,-1.30 -0.92,-1.56 -1.72,-0.26 -4.50,-0.66 -5.40,0.32 -0.90,0.98 -1.18,1.65 -1.45,2.07 -0.37,0.58 0.10,0.84 0.51,0.39 z M 330.43,7.03 c 0.17,0.10 0.36,0.11 0.41,-0.10 0.05,-0.21 0.29,-0.68 0.62,-0.34 0.28,0.28 2.09,1.78 3.03,4.95 0.16,0.42 0.55,0.46 0.64,-0.14 0.22,-1.47 0.34,-4.02 0.45,-4.79 0.16,-1.09 0.68,-3.33 2.06,-2.16 0.31,0.26 0.64,0.61 0.64,0.61 0.29,0.37 0.66,0.79 0.84,0.36 0.27,-0.64 0.49,-1.70 0.19,-2.28 -0.13,-0.26 -1.84,-2.41 -3.00,-0.93 -1.44,1.83 -1.53,4.23 -1.72,6.91 -0.20,-0.56 -1.35,-4.16 -5.02,-6.21 -0.27,-0.15 -0.81,0.13 -0.86,0.98 -0.03,0.49 -0.17,1.69 0.18,2.03 0.35,0.34 1.37,1.01 1.54,1.10 z M 348.27,6.37 c 0.79,0.58 1.93,1.04 1.93,1.04 -3.66,4.48 -10.84,7.67 -12.55,9.01 -0.51,0.39 -0.44,0.61 -0.12,0.53 0.29,-0.08 5.76,-1.61 10.76,-5.90 2.29,-1.97 2.23,-2.11 2.82,-3.31 0.50,0.26 0.84,0.67 1.03,0.91 0.28,0.34 0.43,0.60 0.56,0.23 0.48,-1.33 -0.20,-2.13 -0.84,-2.54 0.00,0.00 0.67,-2.07 -0.56,-4.14 -0.21,-0.35 -1.43,-1.46 -2.85,0.74 -0.55,0.84 -0.96,2.85 -0.17,3.42 z M 349.00,4.34 c 0.73,-1.02 1.08,-0.98 1.36,-0.82 0.82,0.77 0.70,2.02 0.67,2.31 0.00,0.00 -1.05,-0.49 -1.52,-0.70 -0.47,-0.20 -0.72,-0.50 -0.50,-0.80 z M 324.92,20.27 c 0.48,0.00 1.11,-0.35 1.55,-1.87 0.08,-0.34 0.13,-0.62 0.16,-0.75 0.05,-0.21 -0.10,-0.45 -0.26,0.02 -0.35,0.93 -1.27,1.58 -1.96,0.33 -0.11,-0.25 -0.58,-1.38 0.28,-3.86 0.17,-0.48 0.39,-1.20 0.39,-1.20 0.19,-0.54 -0.04,-0.84 -0.31,-0.17 -0.27,0.66 -1.40,2.95 -1.23,5.64 0.04,0.62 0.45,1.83 1.39,1.86 z M 351.03,14.30 c 0.18,-0.50 -0.04,-0.77 -0.29,-0.16 -0.25,0.61 -1.30,2.73 -1.14,5.22 0.04,0.58 0.42,1.70 1.29,1.73 0.45,0.00 1.03,-0.33 1.44,-1.74 0.07,-0.32 0.12,-0.57 0.15,-0.70 0.04,-0.19 -0.10,-0.42 -0.24,0.02 -0.33,0.86 -1.18,1.47 -1.82,0.31 -0.10,-0.23 -0.53,-1.28 0.26,-3.57 0.16,-0.44 0.36,-1.11 0.36,-1.11 z M 298.13,14.16 c -0.06,-0.05 -0.15,-0.03 -0.20,0.04 -1.53,2.10 -1.53,2.10 -1.53,2.10 -0.05,0.07 -0.04,0.16 0.03,0.21 2.61,1.91 2.61,1.91 2.61,1.91 0.06,0.05 0.15,0.03 0.20,-0.04 1.32,-1.81 1.32,-1.81 1.32,-1.81 2.54,1.85 2.54,1.85 2.54,1.85 0.06,0.05 0.15,0.03 0.20,-0.04 1.53,-2.10 1.53,-2.10 1.53,-2.10 0.05,-0.07 0.04,-0.16 -0.03,-0.21 -2.61,-1.91 -2.61,-1.91 -2.61,-1.91 -0.06,-0.05 -0.15,-0.03 -0.20,0.04 -1.32,1.81 -1.32,1.81 -1.32,1.81 z M 353.41,37.21 c -0.24,0.68 -0.34,1.12 -0.31,1.38 0.03,0.26 0.11,1.10 0.11,1.10 -0.25,0.20 -1.33,0.87 -2.40,0.08 0.07,-0.23 0.21,-0.70 0.24,-0.95 0.12,-0.40 -0.13,-0.69 -0.32,-0.28 -0.20,0.41 -0.65,1.79 -0.99,2.10 -0.34,0.31 -0.73,1.45 -3.30,0.29 -0.45,-0.17 -1.23,-0.75 -2.46,0.48 -2.77,2.57 -4.68,2.78 -7.79,3.88 -0.38,0.17 -1.16,0.77 -0.23,0.67 0.94,-0.09 4.87,0.00 7.01,-2.46 0.45,-0.43 0.96,-1.58 2.66,-0.92 0.94,0.36 2.68,1.85 4.58,-1.10 1.12,0.75 2.82,0.45 3.09,-0.38 0.27,-0.82 0.58,-1.64 0.58,-2.20 0.00,-0.56 -0.05,-1.30 -0.05,-1.30 -0.04,-0.44 -0.19,-1.07 -0.44,-0.40 z M 356.61,24.89 c -0.25,-0.28 -0.37,-0.01 -0.46,0.31 -0.09,0.32 -0.36,1.52 -0.53,2.27 0.00,0.00 0.71,1.16 0.97,1.76 0.25,0.59 -0.12,0.92 -0.86,1.01 -2.08,0.25 -3.73,-0.94 -4.30,-1.48 -0.57,-0.55 0.05,-1.52 0.51,-2.68 0.37,-0.93 -0.32,-1.04 -0.84,0.00 -1.76,4.63 -4.23,5.13 -4.88,5.30 -5.86,1.60 -5.36,-3.76 -5.34,-4.64 0.02,-0.88 -0.62,-0.55 -1.34,0.03 -2.47,1.98 -4.45,3.14 -5.52,3.62 -0.92,-1.80 -2.26,-2.93 -2.82,-3.34 -6.34,-4.63 -6.86,4.71 -6.67,5.71 0.97,3.97 7.44,1.56 8.46,1.44 1.02,-0.12 0.68,1.22 0.11,2.02 -1.41,1.97 -3.03,3.38 -4.50,4.58 -6.28,5.13 -9.44,4.72 -10.41,4.69 -6.17,-0.17 -5.60,-6.82 -5.26,-8.24 1.86,-1.57 3.45,-3.28 4.38,-5.04 0.38,-0.96 1.03,-3.16 -0.15,-5.91 -0.62,-1.21 -2.56,-4.60 -2.56,-4.60 0.00,0.00 1.43,0.04 1.57,0.04 0.14,0.00 0.41,-0.14 0.06,-0.55 -0.35,-0.40 -3.36,-3.40 -3.54,-3.65 -0.18,-0.24 -0.35,-0.41 -0.45,-0.06 -0.10,0.36 -0.36,1.88 -0.42,2.20 -0.06,0.31 -0.06,0.63 0.10,0.90 0.15,0.27 0.55,1.20 0.84,1.96 0.29,0.76 3.26,6.47 3.53,6.98 0.27,0.51 0.33,0.88 0.06,1.22 -9.53,10.05 -27.91,16.23 -28.50,16.58 -0.59,0.34 -0.43,0.61 0.56,0.43 1.48,-0.26 9.74,-1.64 12.09,-2.78 1.55,-0.75 6.97,-3.41 11.41,-6.89 -0.12,0.90 -0.24,2.22 -0.18,3.89 0.30,8.08 7.53,6.74 9.43,6.33 5.68,-1.25 12.64,-9.11 13.23,-10.69 0.58,-1.56 0.67,-2.98 0.54,-4.22 1.50,-0.81 4.71,-3.40 4.71,-3.40 0.13,3.45 2.88,4.48 3.72,4.63 3.96,0.60 5.94,-2.70 6.78,-3.78 0.72,1.89 2.45,2.26 3.34,2.43 3.41,0.68 4.08,-1.73 4.26,-2.29 1.07,-3.33 -0.86,-5.81 -1.11,-6.08 z M 327.98,31.57 c -2.03,-0.14 -1.85,-0.92 -1.57,-1.22 0.30,-0.33 2.78,-1.89 4.85,0.89 0.00,0.00 -0.86,0.50 -3.28,0.33 z M 307.23,12.30 c 0.25,-0.16 13.84,-8.02 14.32,-8.31 0.46,-0.29 0.72,-0.41 0.91,-0.85 0.18,-0.44 0.23,-0.52 0.33,-0.82 0.10,-0.32 0.21,-0.67 -0.61,-0.19 -0.53,0.31 -14.04,8.11 -14.59,8.46 -0.55,0.35 -0.74,0.44 -0.83,0.87 -0.09,0.42 -0.13,0.67 -0.16,0.73 -0.10,0.28 -0.17,0.63 0.64,0.10 z M 297.50,23.91 c 0.00,0.00 1.25,-0.31 1.47,-0.38 0.22,-0.06 0.34,-0.35 -0.05,-0.55 -0.39,-0.20 -4.09,-1.67 -4.37,-1.79 -0.28,-0.11 -0.38,-0.24 -0.41,0.06 -0.02,0.30 -0.07,2.73 -0.07,2.73 0.00,0.00 -0.06,0.17 0.27,0.35 0.32,0.18 0.64,0.58 0.90,0.84 0.26,0.26 3.70,2.98 3.87,3.07 0.00,0.00 -1.72,3.02 -1.94,5.38 -0.22,2.36 0.04,5.63 3.27,4.57 0.87,-0.25 4.49,-1.69 5.30,-4.21 0.26,-0.93 1.01,-2.61 -0.21,-4.31 -0.70,-1.00 -3.53,-2.69 -3.53,-2.69 0.00,0.00 2.17,-3.00 2.38,-3.37 0.21,-0.37 1.00,-2.69 1.09,-3.26 0.09,-0.56 0.13,-0.84 -0.29,-0.32 -0.42,0.52 -4.63,6.05 -4.63,6.05 z M 304.46,32.79 c -1.20,0.99 -3.72,2.29 -4.43,2.36 -0.71,0.07 -2.59,-0.28 -1.77,-2.20 0.28,-0.62 2.16,-3.84 2.16,-3.84 0.70,0.39 5.24,2.70 4.04,3.69 z M 290.55,13.78 c 0.17,-0.04 3.05,-0.49 6.41,-3.05 1.82,-1.38 2.92,-3.74 2.92,-3.74 0.00,0.00 0.91,0.76 1.03,0.91 0.28,0.34 0.43,0.60 0.56,0.23 0.48,-1.33 -0.20,-2.13 -0.84,-2.54 0.00,0.00 0.67,-2.07 -0.56,-4.14 -0.21,-0.35 -1.43,-1.46 -2.85,0.74 -0.55,0.84 -0.96,2.85 -0.17,3.42 0.79,0.58 1.93,1.04 1.93,1.04 -3.66,4.48 -6.16,5.34 -8.30,6.59 -0.55,0.32 -0.44,0.61 -0.12,0.53 z M 298.26,4.39 c -0.47,-0.20 -0.72,-0.50 -0.50,-0.80 0.73,-1.02 1.08,-0.98 1.36,-0.82 0.82,0.77 0.70,2.02 0.67,2.31 0.00,0.00 -1.05,-0.49 -1.52,-0.69 z" />
     </g>
</svg>
