<?xml version="1.0" encoding="UTF-8"?>
<svg version="1.1" id="Layer_1" x="0px" y="0px" width="578" height="52" viewBox="0 0 578 52"
xml:space="preserve" xmlns="http://www.w3.org/2000/svg" xmlns:svg="http://www.w3.org/2000/svg" xmlns:rdf="http://www.w3.org/1999/02/22-rdf-syntax-ns#"  xmlns:cc="http://creativecommons.org/ns#" xmlns:dc="http://purl.org/dc/elements/1.1/">
     <g>
<path d="M 292.21,38.18 c -1.92,2.63 -1.92,2.63 -1.92,2.63 -0.06,0.08 -0.05,0.20 0.03,0.25 3.27,2.38 3.27,2.38 3.27,2.38 0.08,0.06 0.19,0.04 0.25,-0.05 1.91,-2.63 1.91,-2.63 1.91,-2.63 0.06,-0.08 0.05,-0.20 -0.03,-0.25 -3.27,-2.38 -3.27,-2.38 -3.27,-2.38 -0.08,-0.06 -0.19,-0.04 -0.25,0.05 z M 300.63,41.39 c -0.04,0.46 0.17,0.64 0.38,0.19 0.21,-0.44 1.67,-3.47 -0.06,-14.54 -0.13,-0.92 -2.75,-19.64 -2.75,-19.64 0.00,0.00 1.55,1.46 1.80,1.72 0.25,0.26 0.55,0.12 0.41,-0.30 -0.14,-0.42 -3.32,-8.10 -3.42,-8.36 -0.10,-0.27 -0.20,-0.46 -0.33,-0.15 -0.13,0.31 -0.88,2.38 -0.88,2.38 0.20,1.35 1.99,15.82 2.10,16.81 0.12,0.99 2.63,17.36 2.76,21.89 z M 269.83,41.39 c -0.04,0.46 0.17,0.64 0.38,0.19 0.21,-0.44 1.67,-3.47 -0.06,-14.54 -0.13,-0.92 -2.76,-19.64 -2.76,-19.64 0.00,0.00 1.55,1.46 1.80,1.72 0.25,0.26 0.55,0.12 0.41,-0.30 -0.14,-0.42 -3.31,-8.10 -3.42,-8.36 -0.10,-0.27 -0.20,-0.46 -0.33,-0.15 -0.13,0.31 -0.88,2.38 -0.88,2.38 0.20,1.35 1.99,15.82 2.10,16.81 0.12,0.99 2.62,17.36 2.76,21.89 z M 243.78,45.63 c -0.06,-0.05 -0.15,-0.03 -0.20,0.04 -1.32,1.81 -1.32,1.81 -1.32,1.81 -2.54,-1.85 -2.54,-1.85 -2.54,-1.85 -0.06,-0.05 -0.15,-0.03 -0.20,0.04 -1.53,2.10 -1.53,2.10 -1.53,2.10 -0.05,0.07 -0.04,0.16 0.03,0.20 2.61,1.91 2.61,1.91 2.61,1.91 0.06,0.05 0.15,0.03 0.20,-0.04 1.32,-1.81 1.32,-1.81 1.32,-1.81 2.54,1.85 2.54,1.85 2.54,1.85 0.06,0.05 0.15,0.03 0.20,-0.04 1.53,-2.10 1.53,-2.10 1.53,-2.10 0.05,-0.07 0.04,-0.16 -0.03,-0.21 z M 249.42,7.70 c 0.17,0.10 0.36,0.11 0.41,-0.10 0.05,-0.21 0.29,-0.68 0.62,-0.34 0.28,0.28 2.09,1.78 3.03,4.95 0.16,0.42 0.55,0.46 0.64,-0.14 0.22,-1.47 0.33,-4.02 0.45,-4.79 0.16,-1.09 0.68,-3.33 2.06,-2.16 0.31,0.26 0.64,0.61 0.64,0.61 0.29,0.37 0.66,0.79 0.84,0.36 0.27,-0.64 0.49,-1.70 0.19,-2.28 -0.13,-0.26 -1.84,-2.41 -3.00,-0.94 -1.44,1.83 -1.53,4.23 -1.72,6.91 -0.20,-0.56 -1.35,-4.15 -5.02,-6.21 -0.27,-0.15 -0.81,0.13 -0.86,0.98 -0.03,0.49 -0.17,1.69 0.18,2.03 0.35,0.34 1.37,1.01 1.54,1.10 z M 221.86,23.92 c -0.09,0.42 -0.13,0.67 -0.16,0.73 -0.10,0.28 -0.17,0.63 0.64,0.10 0.25,-0.16 12.12,-5.71 12.57,-6.00 0.45,-0.30 0.72,-0.41 0.91,-0.85 0.18,-0.44 0.23,-0.52 0.33,-0.82 0.10,-0.32 0.21,-0.67 -0.61,-0.19 -0.53,0.31 -12.29,5.80 -12.84,6.15 -0.55,0.35 -0.74,0.44 -0.83,0.87 z M 256.52,37.50 c -0.55,0.28 -8.60,3.49 -9.17,3.81 -0.57,0.32 -0.77,0.40 -0.88,0.81 -0.11,0.42 -0.17,0.66 -0.20,0.72 -0.12,0.28 -0.21,0.62 0.63,0.15 0.26,-0.15 8.42,-3.41 8.88,-3.68 0.47,-0.27 0.75,-0.36 0.96,-0.79 0.21,-0.42 0.26,-0.50 0.38,-0.80 0.12,-0.32 0.25,-0.65 -0.60,-0.23 z M 304.61,47.58 c -0.56,0.25 -5.74,1.93 -6.46,2.18 -0.62,0.21 -0.79,0.36 -0.92,0.77 -0.13,0.41 -0.21,0.65 -0.24,0.71 -0.13,0.27 -0.24,0.61 0.62,0.18 0.27,-0.13 5.57,-1.87 6.17,-2.06 0.51,-0.17 0.76,-0.32 0.99,-0.74 0.23,-0.41 0.29,-0.49 0.42,-0.78 0.14,-0.31 0.28,-0.64 -0.59,-0.25 z M 285.36,41.26 c -0.45,-0.13 -1.13,0.03 -1.95,1.32 -0.16,0.30 -0.28,0.54 -0.35,0.66 -0.10,0.18 -0.03,0.45 0.25,0.05 0.58,-0.77 1.61,-1.13 1.91,0.22 0.04,0.26 0.16,1.44 -1.30,3.50 -0.29,0.40 -0.68,1.01 -0.68,1.01 -0.32,0.45 -0.19,0.79 0.24,0.24 0.43,-0.54 2.10,-2.35 2.66,-4.89 0.13,-0.59 0.08,-1.82 -0.79,-2.11 z M 255.52,47.74 c -0.33,0.88 -1.20,1.49 -1.85,0.31 -0.10,-0.23 -0.54,-1.30 0.26,-3.63 0.16,-0.45 0.37,-1.12 0.37,-1.12 0.18,-0.51 -0.04,-0.79 -0.29,-0.16 -0.25,0.62 -1.32,2.77 -1.16,5.30 0.04,0.58 0.43,1.72 1.31,1.75 0.46,0.00 1.04,-0.33 1.46,-1.76 0.07,-0.32 0.12,-0.58 0.15,-0.71 0.04,-0.19 -0.10,-0.42 -0.25,0.02 z M 230.36,48.21 c -0.38,0.86 -1.28,1.42 -1.86,0.21 -0.09,-0.24 -0.47,-1.33 0.45,-3.61 0.19,-0.44 0.43,-1.10 0.43,-1.10 0.21,-0.50 0.01,-0.79 -0.28,-0.18 -0.29,0.61 -1.47,2.69 -1.44,5.23 0.01,0.58 0.33,1.74 1.21,1.82 0.45,0.02 1.06,-0.27 1.55,-1.68 0.09,-0.32 0.15,-0.57 0.19,-0.70 0.06,-0.19 -0.08,-0.43 -0.25,0.01 z M 277.74,8.07 c 0.45,0.00 1.04,-0.33 1.46,-1.76 0.07,-0.32 0.12,-0.58 0.15,-0.71 0.04,-0.19 -0.10,-0.42 -0.25,0.02 -0.33,0.88 -1.20,1.49 -1.84,0.31 -0.11,-0.23 -0.54,-1.30 0.26,-3.62 0.16,-0.45 0.37,-1.13 0.37,-1.13 0.18,-0.51 -0.04,-0.79 -0.29,-0.16 -0.25,0.62 -1.32,2.77 -1.16,5.30 0.04,0.58 0.43,1.72 1.31,1.75 z M 281.43,17.16 c 0.21,-0.64 -0.10,-0.96 -0.40,-0.18 -0.30,0.78 -1.59,3.50 -1.19,6.59 0.09,0.71 0.69,2.08 1.88,2.05 0.61,-0.04 1.38,-0.49 1.85,-2.27 0.08,-0.40 0.12,-0.72 0.15,-0.88 0.05,-0.24 -0.16,-0.51 -0.33,0.04 -0.39,1.10 -1.51,1.92 -2.47,0.53 -0.16,-0.28 -0.82,-1.55 0.10,-4.47 0.19,-0.57 0.41,-1.41 0.41,-1.41 z M 261.97,19.68 c 0.61,-0.04 1.38,-0.49 1.85,-2.27 0.08,-0.40 0.12,-0.72 0.15,-0.88 0.05,-0.24 -0.16,-0.51 -0.33,0.04 -0.39,1.10 -1.51,1.92 -2.47,0.53 -0.16,-0.28 -0.82,-1.55 0.10,-4.47 0.19,-0.57 0.41,-1.41 0.41,-1.41 0.21,-0.64 -0.10,-0.96 -0.40,-0.18 -0.30,0.78 -1.58,3.50 -1.19,6.59 0.09,0.71 0.69,2.08 1.88,2.05 z M 223.49,27.24 c 0.21,-0.64 -0.10,-0.96 -0.40,-0.18 -0.30,0.78 -1.59,3.50 -1.19,6.59 0.09,0.71 0.69,2.08 1.88,2.05 0.61,-0.04 1.38,-0.49 1.85,-2.27 0.07,-0.40 0.12,-0.72 0.15,-0.88 0.05,-0.24 -0.16,-0.51 -0.33,0.04 -0.39,1.10 -1.51,1.92 -2.47,0.53 -0.16,-0.28 -0.82,-1.55 0.10,-4.47 0.19,-0.57 0.41,-1.41 0.41,-1.41 z M 240.98,16.40 c 0.68,-0.04 1.52,-0.65 2.00,-3.13 0.08,-0.56 0.12,-1.01 0.15,-1.23 0.05,-0.33 -0.19,-0.71 -0.36,0.06 -0.41,1.53 -1.63,2.65 -2.71,0.69 -0.18,-0.39 -0.93,-2.17 0.04,-6.22 0.20,-0.79 0.43,-1.95 0.43,-1.95 0.22,-0.88 -0.13,-1.34 -0.45,-0.26 -0.32,1.09 -1.69,4.84 -1.21,9.15 0.11,1.00 0.80,2.91 2.11,2.89 z M 214.36,15.25 c 0.66,-0.37 4.49,-1.86 5.12,-5.65 0.05,-0.50 -0.05,-0.87 -0.17,-1.12 0.05,0.01 0.11,0.05 0.17,0.11 0.27,0.27 1.99,1.69 2.88,4.71 0.16,0.40 0.53,0.44 0.61,-0.13 0.21,-1.39 0.32,-3.82 0.43,-4.56 0.16,-1.03 0.65,-3.16 1.96,-2.06 0.30,0.25 0.61,0.58 0.61,0.58 0.28,0.35 0.63,0.75 0.80,0.34 0.26,-0.61 0.46,-1.62 0.18,-2.17 -0.12,-0.24 -1.75,-2.29 -2.85,-0.89 -1.37,1.74 -1.46,4.03 -1.64,6.58 -0.19,-0.53 -1.29,-3.95 -4.78,-5.91 -0.25,-0.14 -0.77,0.13 -0.82,0.93 -0.03,0.47 -0.16,1.61 0.17,1.93 0.32,0.31 2.68,1.14 1.40,2.49 -0.57,0.61 -3.45,3.59 -4.06,4.31 -0.62,0.72 -0.68,0.85 -0.01,0.49 z M 272.54,19.53 c 0.55,0.09 0.86,0.41 1.00,0.59 0.06,0.08 0.15,0.02 0.17,-0.03 0.62,-1.23 0.06,-2.01 -1.00,-2.31 -0.42,-0.12 -0.61,-0.71 0.95,-1.71 1.44,-0.93 15.68,-8.13 16.01,-8.36 0.43,-0.30 0.69,-0.42 0.86,-0.85 0.17,-0.43 0.21,-0.51 0.30,-0.81 0.09,-0.32 0.19,-0.66 -0.60,-0.17 -0.42,0.26 -16.05,8.05 -17.25,9.02 -0.60,0.49 -1.10,1.26 -1.28,2.09 -0.25,1.21 0.05,2.41 0.84,2.53 z M 287.76,16.04 c -0.79,0.86 -1.03,1.44 -1.26,1.81 -0.32,0.50 0.08,0.73 0.45,0.34 0.36,-0.39 0.62,-0.79 1.68,-0.76 1.07,0.03 3.62,-0.07 2.66,0.63 -0.95,0.70 -1.60,1.11 -1.60,1.11 -0.62,0.44 -1.16,1.28 -0.07,0.81 1.09,-0.46 2.54,-1.19 3.65,-2.86 0.32,-0.49 0.70,-1.14 -0.80,-1.36 -1.50,-0.22 -3.93,-0.58 -4.71,0.28 z M 300.46,42.53 c -0.94,0.73 -3.10,2.83 -2.13,3.81 0.56,0.46 0.82,0.68 0.82,0.68 -0.26,0.10 -0.49,0.35 -0.65,0.67 -0.16,0.32 -0.18,0.39 -0.27,0.57 -0.08,0.18 -0.13,0.43 0.32,0.17 0.45,-0.26 1.51,-1.26 4.38,-1.89 0.40,-0.08 0.75,-0.74 0.75,-0.74 0.17,-0.28 0.50,-0.92 -0.06,-0.60 -0.56,0.32 -2.05,0.76 -2.72,0.64 -0.67,-0.13 -1.45,-0.70 -1.63,-0.98 -0.17,-0.27 -0.15,-0.58 0.38,-0.89 0.53,-0.30 1.10,-0.51 1.51,0.16 0.07,0.11 0.16,0.11 0.33,-0.06 0.17,-0.17 0.51,-0.65 0.60,-0.79 0.09,-0.14 0.16,-0.36 0.02,-0.53 -0.14,-0.17 -0.72,-0.97 -1.66,-0.24 z M 293.03,24.42 c -0.07,0.31 -0.36,2.45 -0.36,2.45 0.99,1.27 1.72,2.49 1.86,2.87 0.13,0.37 -0.16,1.05 -1.06,1.39 -5.20,1.98 -9.44,1.50 -11.83,0.67 -2.39,-0.84 -3.21,-3.37 -3.52,-3.83 -0.31,-0.46 -0.43,-0.12 -0.50,0.14 -0.41,2.01 -0.41,2.01 -0.41,2.01 0.00,0.00 0.35,1.01 1.80,3.83 1.45,2.81 0.33,3.54 -0.31,4.27 -5.55,6.36 -11.48,6.98 -12.94,7.00 -8.10,0.07 -5.32,-9.57 -4.86,-11.22 0.06,-0.20 0.09,-0.36 0.10,-0.48 0.96,-0.16 2.01,-0.64 2.47,-2.17 0.19,-0.65 1.22,-3.54 -1.10,-6.29 -1.03,-1.22 -6.22,-3.33 -6.98,-3.74 -0.76,-0.41 -2.29,-1.40 -2.29,-1.40 0.57,-0.07 1.10,-0.25 1.38,-0.32 0.28,-0.07 0.21,-0.46 -0.30,-0.64 -0.51,-0.18 -3.60,-1.26 -3.76,-1.40 -0.16,-0.14 -0.23,2.41 -0.18,2.71 0.05,0.30 0.14,0.44 0.25,0.51 0.00,0.00 -0.28,0.25 -0.83,1.28 -2.57,4.50 -1.72,7.85 -1.72,7.85 0.03,0.19 0.19,0.57 0.52,1.00 -1.22,0.58 -6.02,2.21 -9.20,-2.30 -1.49,-2.57 -3.60,-2.18 -4.75,-0.99 -1.15,1.19 -4.29,5.41 -2.64,10.96 -0.69,0.26 -6.34,1.75 -10.53,5.08 -1.12,0.89 -5.51,4.36 -8.08,4.59 -1.29,0.10 -4.79,0.63 -4.06,-4.42 0.13,-0.83 1.38,-4.98 4.64,-8.85 0.05,0.00 0.10,0.01 0.15,0.01 0.76,-0.05 1.71,-0.74 2.25,-3.53 0.09,-0.63 0.13,-1.13 0.17,-1.38 0.05,-0.38 -0.21,-0.81 -0.41,0.06 -0.46,1.72 -1.84,2.98 -3.06,0.78 -0.20,-0.44 -1.05,-2.45 0.04,-7.01 0.22,-0.89 0.49,-2.20 0.49,-2.20 0.25,-1.00 -0.15,-1.51 -0.51,-0.29 -0.36,1.22 -1.91,5.46 -1.36,10.32 0.09,0.82 0.54,2.21 1.35,2.87 -1.41,1.76 -8.22,10.04 -2.81,15.33 1.12,0.76 3.50,2.51 8.55,-1.12 1.39,-0.96 6.60,-4.95 9.67,-5.81 3.07,-0.86 6.52,-2.04 11.72,0.96 0.17,-0.15 0.60,-1.21 0.38,-3.00 -0.01,-0.31 -0.23,-0.53 -0.39,-0.63 -0.17,-0.10 -5.87,-2.11 -7.00,-4.24 -0.28,-0.51 -1.29,-3.00 1.57,-5.45 0.41,-0.35 1.96,-1.45 2.80,-0.25 0.84,1.20 2.54,4.55 6.83,4.54 0.92,-0.02 3.65,-0.12 7.13,-2.17 0.28,0.07 0.57,0.13 0.89,0.16 1.22,0.09 6.31,0.78 7.23,0.71 0.23,-0.02 0.55,-0.01 0.91,-0.04 -0.22,0.32 -0.46,0.80 -0.64,1.34 -0.51,1.56 -1.09,5.48 -0.90,6.80 0.99,7.02 5.61,6.75 6.84,6.71 7.48,-0.26 12.76,-6.51 13.97,-7.99 1.21,-1.47 1.25,-5.30 1.25,-5.30 6.71,1.86 12.69,-0.96 13.33,-1.32 0.64,-0.36 1.29,-2.28 1.45,-3.00 0.81,-3.58 -1.99,-6.27 -2.20,-6.50 -0.21,-0.23 -0.45,-0.20 -0.51,0.11 z M 252.17,29.47 c 0.00,0.00 -1.04,0.12 -2.83,-1.58 -1.00,-0.94 0.30,-3.05 1.72,-4.25 1.42,-1.20 3.58,1.90 3.81,2.55 0.80,2.22 -2.30,3.17 -2.69,3.27 z M 255.50,29.94 c 0.38,-0.22 1.44,-2.49 1.04,-4.31 0.00,0.00 3.73,0.58 5.83,3.27 0.38,0.49 0.39,1.04 -0.20,1.16 -3.31,0.68 -6.67,-0.12 -6.67,-0.12 z M 363.55,14.76 c 0.18,-0.50 -0.04,-0.77 -0.29,-0.16 -0.25,0.61 -1.30,2.73 -1.14,5.22 0.04,0.58 0.42,1.70 1.29,1.73 0.45,0.00 1.03,-0.33 1.44,-1.73 0.07,-0.32 0.12,-0.57 0.15,-0.70 0.04,-0.19 -0.10,-0.42 -0.24,0.02 -0.33,0.86 -1.18,1.47 -1.82,0.31 -0.10,-0.23 -0.53,-1.28 0.26,-3.57 0.16,-0.44 0.36,-1.11 0.36,-1.11 z M 360.79,6.83 c 0.79,0.58 1.94,1.04 1.94,1.04 -3.66,4.48 -10.85,7.67 -12.56,9.01 -0.51,0.38 -0.44,0.61 -0.12,0.53 0.28,-0.08 5.76,-1.61 10.76,-5.90 2.29,-1.97 2.23,-2.11 2.81,-3.31 0.50,0.26 0.84,0.67 1.03,0.91 0.28,0.34 0.43,0.60 0.56,0.23 0.48,-1.33 -0.20,-2.13 -0.84,-2.54 0.00,0.00 0.67,-2.07 -0.56,-4.14 -0.21,-0.35 -1.43,-1.46 -2.85,0.74 -0.55,0.84 -0.96,2.85 -0.17,3.42 z M 361.52,4.80 c 0.73,-1.02 1.08,-0.99 1.36,-0.82 0.82,0.77 0.70,2.03 0.67,2.31 0.00,0.00 -1.05,-0.49 -1.52,-0.69 -0.47,-0.20 -0.72,-0.50 -0.50,-0.80 z M 337.44,20.74 c 0.48,0.00 1.11,-0.35 1.55,-1.87 0.08,-0.34 0.13,-0.62 0.16,-0.75 0.05,-0.21 -0.10,-0.45 -0.26,0.02 -0.35,0.93 -1.27,1.58 -1.96,0.33 -0.11,-0.25 -0.58,-1.38 0.28,-3.86 0.17,-0.48 0.39,-1.20 0.39,-1.20 0.19,-0.54 -0.04,-0.84 -0.31,-0.18 -0.27,0.66 -1.40,2.94 -1.23,5.64 0.04,0.62 0.45,1.83 1.39,1.87 z M 342.95,7.49 c 0.17,0.09 0.36,0.11 0.41,-0.10 0.05,-0.21 0.28,-0.68 0.62,-0.34 0.28,0.28 2.09,1.78 3.03,4.95 0.16,0.42 0.55,0.46 0.64,-0.14 0.22,-1.47 0.34,-4.02 0.45,-4.79 0.16,-1.09 0.68,-3.32 2.06,-2.16 0.31,0.26 0.64,0.61 0.64,0.61 0.29,0.37 0.66,0.79 0.84,0.36 0.27,-0.64 0.49,-1.70 0.19,-2.28 -0.13,-0.26 -1.84,-2.41 -3.00,-0.93 -1.44,1.83 -1.53,4.23 -1.72,6.91 -0.20,-0.56 -1.35,-4.16 -5.02,-6.21 -0.27,-0.15 -0.81,0.13 -0.86,0.98 -0.03,0.49 -0.17,1.69 0.18,2.03 0.35,0.34 1.37,1.01 1.54,1.10 z M 319.75,12.76 c 0.25,-0.16 13.84,-8.02 14.32,-8.31 0.46,-0.29 0.72,-0.41 0.91,-0.85 0.18,-0.44 0.23,-0.51 0.33,-0.82 0.11,-0.32 0.21,-0.67 -0.61,-0.19 -0.53,0.31 -14.04,8.11 -14.59,8.46 -0.55,0.35 -0.74,0.44 -0.83,0.87 -0.09,0.42 -0.13,0.67 -0.16,0.73 -0.10,0.28 -0.17,0.63 0.64,0.10 z M 369.13,25.36 c -0.25,-0.28 -0.37,-0.01 -0.46,0.31 -0.09,0.32 -0.36,1.52 -0.54,2.27 0.00,0.00 0.71,1.16 0.97,1.76 0.25,0.59 -0.12,0.92 -0.86,1.01 -2.08,0.25 -3.73,-0.94 -4.30,-1.48 -0.57,-0.55 0.05,-1.52 0.51,-2.68 0.37,-0.93 -0.32,-1.04 -0.84,0.00 -1.76,4.63 -4.23,5.12 -4.88,5.30 -5.86,1.60 -5.36,-3.76 -5.34,-4.64 0.02,-0.88 -0.62,-0.55 -1.34,0.03 -2.47,1.98 -4.45,3.14 -5.52,3.62 -0.92,-1.80 -2.26,-2.93 -2.82,-3.34 -6.34,-4.63 -6.87,4.71 -6.68,5.71 0.97,3.97 7.45,1.56 8.46,1.44 1.02,-0.12 0.68,1.22 0.11,2.02 -1.41,1.97 -3.03,3.38 -4.50,4.58 -6.28,5.13 -9.44,4.72 -10.41,4.69 -5.51,-0.15 -5.65,-5.48 -5.37,-7.63 1.70,-1.55 3.31,-3.43 4.49,-5.66 0.38,-0.96 1.03,-3.16 -0.15,-5.91 -0.62,-1.21 -2.56,-4.60 -2.56,-4.60 0.00,0.00 1.43,0.04 1.57,0.04 0.14,0.00 0.41,-0.14 0.06,-0.54 -0.35,-0.40 -3.36,-3.41 -3.54,-3.65 -0.18,-0.24 -0.35,-0.41 -0.45,-0.06 -0.10,0.36 -0.36,1.88 -0.42,2.20 -0.06,0.31 -0.06,0.63 0.10,0.90 0.15,0.27 0.55,1.20 0.84,1.96 0.29,0.76 3.25,6.47 3.53,6.98 0.27,0.51 0.33,0.88 0.06,1.22 -9.53,10.05 -23.23,14.24 -23.81,14.58 -0.59,0.34 -0.43,0.61 0.56,0.43 1.48,-0.26 9.74,-1.64 12.09,-2.78 1.33,-0.64 4.00,-2.04 6.65,-4.24 -0.09,0.84 -0.15,1.94 -0.10,3.24 0.30,8.08 7.53,6.74 9.43,6.33 5.68,-1.25 12.64,-9.11 13.23,-10.69 0.58,-1.56 0.67,-2.98 0.54,-4.22 1.50,-0.81 4.71,-3.40 4.71,-3.40 0.13,3.45 2.88,4.48 3.72,4.63 3.96,0.60 5.94,-2.70 6.78,-3.78 0.72,1.89 2.45,2.26 3.34,2.43 3.41,0.68 4.08,-1.73 4.26,-2.29 1.07,-3.33 -0.86,-5.81 -1.11,-6.08 z M 340.50,32.03 c -2.03,-0.14 -1.85,-0.92 -1.57,-1.22 0.30,-0.33 2.78,-1.89 4.85,0.89 0.00,0.00 -0.86,0.50 -3.28,0.33 z M 365.93,37.67 c -0.24,0.68 -0.34,1.12 -0.31,1.38 0.03,0.26 0.12,1.10 0.12,1.10 -0.25,0.20 -1.33,0.87 -2.40,0.08 0.07,-0.23 0.21,-0.70 0.24,-0.95 0.12,-0.40 -0.13,-0.69 -0.32,-0.28 -0.20,0.41 -0.65,1.79 -0.99,2.10 -0.34,0.31 -0.73,1.45 -3.30,0.29 -0.45,-0.17 -1.24,-0.75 -2.46,0.48 -2.77,2.57 -4.68,2.78 -7.79,3.88 -0.38,0.17 -1.16,0.77 -0.23,0.67 0.94,-0.09 4.87,0.00 7.01,-2.46 0.45,-0.43 0.96,-1.58 2.66,-0.92 0.94,0.36 2.68,1.85 4.58,-1.10 1.12,0.75 2.82,0.45 3.09,-0.38 0.27,-0.82 0.58,-1.64 0.58,-2.20 0.00,-0.56 -0.05,-1.30 -0.05,-1.30 -0.04,-0.44 -0.19,-1.07 -0.44,-0.40 z M 303.07,14.24 c 0.17,-0.04 3.05,-0.49 6.41,-3.05 1.82,-1.38 2.92,-3.74 2.92,-3.74 0.00,0.00 0.91,0.76 1.03,0.91 0.28,0.34 0.43,0.60 0.56,0.23 0.48,-1.33 -0.20,-2.13 -0.84,-2.54 0.00,0.00 0.67,-2.07 -0.56,-4.14 -0.21,-0.35 -1.43,-1.46 -2.85,0.74 -0.55,0.84 -0.96,2.85 -0.17,3.42 0.79,0.58 1.94,1.04 1.94,1.04 -3.66,4.48 -6.16,5.34 -8.30,6.59 -0.55,0.32 -0.44,0.61 -0.12,0.53 z M 310.79,4.85 c -0.47,-0.20 -0.72,-0.50 -0.50,-0.80 0.73,-1.02 1.08,-0.99 1.36,-0.82 0.82,0.77 0.70,2.03 0.67,2.31 0.00,0.00 -1.05,-0.49 -1.52,-0.69 z M 310.65,14.63 c -0.06,-0.05 -0.15,-0.03 -0.20,0.04 -1.53,2.10 -1.53,2.10 -1.53,2.10 -0.05,0.07 -0.04,0.16 0.03,0.20 2.62,1.91 2.62,1.91 2.62,1.91 0.06,0.05 0.15,0.03 0.20,-0.04 1.32,-1.81 1.32,-1.81 1.32,-1.81 2.54,1.85 2.54,1.85 2.54,1.85 0.06,0.05 0.15,0.03 0.20,-0.04 1.53,-2.10 1.53,-2.10 1.53,-2.10 0.05,-0.07 0.04,-0.16 -0.03,-0.20 -2.61,-1.91 -2.61,-1.91 -2.61,-1.91 -0.06,-0.05 -0.15,-0.03 -0.20,0.04 -1.32,1.81 -1.32,1.81 -1.32,1.81 z M 310.03,24.37 c 0.00,0.00 1.25,-0.31 1.47,-0.38 0.22,-0.06 0.34,-0.35 -0.05,-0.55 -0.39,-0.20 -4.09,-1.67 -4.37,-1.79 -0.28,-0.11 -0.38,-0.24 -0.41,0.06 -0.02,0.30 -0.07,2.73 -0.07,2.73 0.00,0.00 -0.06,0.17 0.26,0.35 0.32,0.18 0.64,0.58 0.90,0.84 0.26,0.26 3.70,2.98 3.87,3.07 0.00,0.00 -1.72,3.02 -1.94,5.38 -0.22,2.36 0.04,5.63 3.27,4.57 0.87,-0.25 4.49,-1.69 5.30,-4.21 0.26,-0.93 1.01,-2.61 -0.21,-4.31 -0.70,-1.00 -3.53,-2.69 -3.53,-2.69 0.00,0.00 2.17,-3.00 2.38,-3.37 0.21,-0.37 1.00,-2.69 1.09,-3.26 0.09,-0.56 0.13,-0.84 -0.29,-0.32 -0.42,0.52 -4.63,6.05 -4.63,6.05 z M 316.98,33.25 c -1.20,0.99 -3.72,2.29 -4.43,2.36 -0.71,0.07 -2.59,-0.28 -1.77,-2.20 0.28,-0.62 2.16,-3.84 2.16,-3.84 0.70,0.39 5.24,2.70 4.04,3.69 z" />
     </g>
</svg>
