<?xml version="1.0" encoding="UTF-8"?>
<svg version="1.1" id="Layer_1" x="0px" y="0px" width="578" height="50" viewBox="0 0 578 50"
xml:space="preserve" xmlns="http://www.w3.org/2000/svg" xmlns:svg="http://www.w3.org/2000/svg" xmlns:rdf="http://www.w3.org/1999/02/22-rdf-syntax-ns#"  xmlns:cc="http://creativecommons.org/ns#" xmlns:dc="http://purl.org/dc/elements/1.1/">
     <g>
<path d="M 247.26,38.62 c -1.92,2.63 -1.92,2.63 -1.92,2.63 -0.06,0.08 -0.05,0.20 0.03,0.25 3.27,2.38 3.27,2.38 3.27,2.38 0.08,0.06 0.19,0.04 0.25,-0.05 1.91,-2.63 1.91,-2.63 1.91,-2.63 0.06,-0.08 0.05,-0.20 -0.03,-0.25 -3.27,-2.38 -3.27,-2.38 -3.27,-2.38 -0.08,-0.06 -0.19,-0.04 -0.25,0.05 z M 242.98,43.40 c -0.55,0.28 -9.90,3.92 -10.46,4.23 -0.57,0.32 -0.77,0.39 -0.88,0.81 -0.11,0.42 -0.17,0.66 -0.20,0.72 -0.12,0.28 -0.21,0.62 0.63,0.14 0.26,-0.15 9.71,-3.84 10.18,-4.10 0.47,-0.27 0.75,-0.36 0.96,-0.79 0.21,-0.42 0.26,-0.50 0.38,-0.80 0.12,-0.32 0.25,-0.65 -0.60,-0.22 z M 281.17,40.19 c -0.56,0.25 -12.88,4.34 -13.46,4.63 -0.58,0.29 -0.79,0.36 -0.92,0.76 -0.14,0.41 -0.21,0.65 -0.24,0.71 -0.13,0.27 -0.24,0.61 0.62,0.18 0.27,-0.13 12.69,-4.27 13.18,-4.51 0.48,-0.24 0.76,-0.32 1.00,-0.74 0.23,-0.41 0.29,-0.49 0.42,-0.78 0.14,-0.31 0.28,-0.64 -0.59,-0.26 z M 257.12,45.62 c -0.28,0.93 -1.13,1.62 -1.88,0.45 -0.12,-0.23 -0.65,-1.30 0.02,-3.75 0.14,-0.48 0.30,-1.18 0.30,-1.18 0.15,-0.54 -0.09,-0.81 -0.31,-0.15 -0.22,0.66 -1.17,2.94 -0.83,5.54 0.08,0.60 0.56,1.75 1.46,1.72 0.47,-0.03 1.05,-0.41 1.39,-1.91 0.05,-0.34 0.08,-0.61 0.10,-0.74 0.03,-0.20 -0.13,-0.43 -0.25,0.04 z M 246.45,7.37 c 0.43,0.00 0.98,-0.31 1.38,-1.66 0.07,-0.30 0.11,-0.55 0.14,-0.67 0.04,-0.18 -0.09,-0.40 -0.23,0.02 -0.31,0.83 -1.13,1.41 -1.74,0.30 -0.10,-0.22 -0.51,-1.22 0.25,-3.42 0.15,-0.43 0.35,-1.06 0.35,-1.06 0.17,-0.48 -0.03,-0.74 -0.28,-0.15 -0.24,0.59 -1.25,2.61 -1.09,5.00 0.04,0.55 0.40,1.63 1.23,1.66 z M 230.69,17.64 c 0.21,-0.64 -0.10,-0.96 -0.40,-0.18 -0.30,0.78 -1.58,3.50 -1.19,6.59 0.09,0.71 0.69,2.08 1.88,2.05 0.61,-0.04 1.38,-0.49 1.85,-2.28 0.07,-0.40 0.12,-0.72 0.15,-0.88 0.05,-0.24 -0.16,-0.51 -0.33,0.04 -0.39,1.10 -1.51,1.92 -2.47,0.53 -0.16,-0.28 -0.82,-1.55 0.10,-4.47 0.19,-0.57 0.41,-1.41 0.41,-1.41 z M 261.48,16.84 c 0.76,-0.05 1.71,-0.74 2.25,-3.53 0.08,-0.63 0.13,-1.13 0.17,-1.38 0.05,-0.38 -0.21,-0.81 -0.41,0.06 -0.46,1.72 -1.84,2.98 -3.06,0.78 -0.20,-0.44 -1.05,-2.45 0.04,-7.01 0.22,-0.89 0.49,-2.20 0.49,-2.20 0.25,-1.00 -0.15,-1.51 -0.51,-0.29 -0.36,1.22 -1.91,5.46 -1.36,10.32 0.13,1.12 0.90,3.28 2.38,3.26 z M 242.39,12.55 c 0.45,-0.49 0.77,-0.98 2.10,-0.95 1.33,0.04 4.52,-0.09 3.33,0.79 -1.19,0.88 -2.00,1.38 -2.00,1.38 -0.77,0.55 -1.45,1.59 -0.09,1.02 1.37,-0.58 3.17,-1.49 4.55,-3.57 0.40,-0.61 0.88,-1.42 -1.00,-1.70 -1.87,-0.28 -4.90,-0.72 -5.88,0.35 -0.98,1.07 -1.28,1.80 -1.57,2.26 -0.40,0.63 0.10,0.91 0.56,0.42 z M 225.24,7.60 c 0.17,0.10 0.35,0.11 0.40,-0.10 0.05,-0.21 0.28,-0.68 0.61,-0.34 0.24,0.24 2.17,1.94 2.76,4.27 0.49,2.02 -4.48,6.10 -4.74,6.29 -0.47,0.33 -0.32,0.55 -0.10,0.43 0.22,-0.12 0.43,-0.15 2.98,-1.83 2.06,-1.36 2.49,-2.93 2.66,-4.14 0.02,-0.06 0.04,-0.12 0.05,-0.21 0.21,-1.47 0.33,-4.02 0.44,-4.79 0.16,-1.09 0.67,-3.32 2.03,-2.16 0.31,0.26 0.63,0.61 0.63,0.61 0.29,0.37 0.65,0.79 0.82,0.36 0.27,-0.64 0.48,-1.70 0.19,-2.28 -0.13,-0.26 -1.81,-2.41 -2.95,-0.94 -1.42,1.83 -1.51,4.23 -1.69,6.91 -0.20,-0.56 -1.33,-4.16 -4.95,-6.21 -0.26,-0.15 -0.80,0.13 -0.85,0.98 -0.03,0.49 -0.17,1.69 0.17,2.03 0.34,0.34 1.35,1.01 1.52,1.10 z M 292.38,34.66 c 0.46,-0.79 1.39,-3.20 1.39,-3.20 -0.54,-0.03 -2.98,-0.09 -6.11,-0.32 -0.14,-1.25 -0.32,-2.60 -0.56,-4.05 -0.15,-0.92 -3.23,-19.57 -3.23,-19.57 0.00,0.00 1.58,1.42 1.84,1.68 0.26,0.26 0.55,0.11 0.40,-0.31 -0.15,-0.42 -3.51,-8.01 -3.62,-8.28 -0.11,-0.26 -0.21,-0.45 -0.34,-0.14 -0.12,0.31 -0.82,2.40 -0.82,2.40 0.23,1.34 2.37,15.77 2.51,16.76 0.07,0.51 0.84,5.77 1.59,11.33 -3.70,-0.34 -7.88,-0.92 -10.91,-1.90 0.13,-0.63 0.36,-1.42 0.43,-2.77 0.17,-2.90 -3.02,-18.30 -3.02,-18.30 0.00,0.00 1.58,1.42 1.84,1.67 0.26,0.26 0.55,0.11 0.40,-0.31 -0.15,-0.42 -3.51,-8.01 -3.62,-8.28 -0.11,-0.26 -0.22,-0.45 -0.34,-0.14 -0.12,0.31 -0.82,2.40 -0.82,2.40 0.12,0.68 1.47,9.01 2.88,16.90 0.12,0.66 1.08,6.91 0.84,7.17 -0.40,0.51 -8.35,0.82 -8.72,1.49 -0.37,0.66 -0.90,1.97 -1.06,2.34 -0.16,0.37 -0.08,0.43 0.21,0.37 0.29,-0.05 4.33,-0.98 15.23,1.86 -0.29,0.16 -11.54,5.80 -18.88,4.31 -1.52,-0.31 -7.26,-2.11 -4.59,-8.78 0.00,0.00 0.00,-0.01 0.00,-0.01 4.13,-2.25 6.81,-4.22 6.81,-4.22 0.00,0.00 1.24,-2.66 0.93,-2.80 -0.30,-0.14 -11.45,-2.44 -20.53,-1.54 -0.71,0.08 -4.83,0.63 -5.60,3.87 -0.11,0.63 -0.24,2.47 1.15,3.62 1.10,0.91 4.09,3.24 4.36,3.54 -0.91,0.47 -7.48,3.48 -10.72,6.69 -1.30,1.29 -4.91,6.29 -6.82,7.25 -1.70,0.86 -5.62,1.44 -6.01,-3.73 -0.17,-2.18 0.58,-6.42 3.10,-10.02 0.02,-0.04 0.04,-0.09 0.06,-0.13 0.66,-0.28 1.37,-1.16 1.81,-3.43 0.08,-0.63 0.13,-1.13 0.17,-1.38 0.05,-0.38 -0.21,-0.81 -0.41,0.06 -0.46,1.72 -1.84,2.98 -3.06,0.78 -0.20,-0.44 -1.05,-2.45 0.04,-7.01 0.22,-0.89 0.49,-2.20 0.49,-2.20 0.25,-1.00 -0.15,-1.51 -0.51,-0.29 -0.36,1.22 -1.91,5.46 -1.36,10.32 0.11,0.95 0.68,2.64 1.75,3.12 -0.03,0.05 -0.06,0.10 -0.08,0.16 -0.77,1.56 -4.34,7.05 -2.83,13.12 0.38,1.24 1.70,5.27 6.23,4.09 1.37,-0.44 3.21,-1.24 6.72,-5.74 0.98,-1.21 3.23,-5.13 13.61,-9.41 0.43,0.54 0.81,1.12 1.05,1.75 0.27,0.66 0.38,0.41 0.47,0.03 0.06,-0.26 0.35,-1.31 0.17,-2.44 2.87,-1.03 5.56,-2.27 7.87,-3.47 -0.45,1.89 -2.75,8.42 3.67,10.96 1.57,0.62 4.79,2.09 15.58,-1.78 2.05,-0.74 6.99,-3.30 12.48,-4.12 0.50,3.84 0.91,7.36 1.00,9.01 -0.02,0.46 0.18,0.63 0.38,0.18 0.15,-0.34 1.00,-3.23 0.64,-9.41 1.48,-0.09 2.97,-0.03 4.44,0.24 z M 244.96,30.37 c 0.00,0.00 -2.42,-2.55 -5.88,-4.99 -1.07,-0.82 0.96,-1.40 1.48,-1.51 3.35,-0.93 13.17,-0.11 14.44,0.00 1.26,0.11 2.87,0.40 2.68,0.59 -6.01,3.81 -12.71,5.91 -12.71,5.91 z M 351.72,14.30 c 0.18,-0.50 -0.04,-0.77 -0.29,-0.16 -0.25,0.61 -1.30,2.73 -1.14,5.22 0.04,0.58 0.42,1.70 1.29,1.73 0.45,0.00 1.03,-0.33 1.44,-1.74 0.07,-0.32 0.12,-0.57 0.15,-0.70 0.04,-0.19 -0.10,-0.42 -0.24,0.02 -0.33,0.86 -1.18,1.47 -1.82,0.31 -0.10,-0.23 -0.53,-1.28 0.26,-3.57 0.16,-0.45 0.36,-1.11 0.36,-1.11 z M 331.12,7.03 c 0.17,0.09 0.36,0.11 0.41,-0.10 0.05,-0.21 0.29,-0.68 0.62,-0.34 0.28,0.28 2.09,1.78 3.03,4.95 0.16,0.42 0.55,0.46 0.64,-0.14 0.22,-1.47 0.34,-4.02 0.45,-4.79 0.16,-1.09 0.68,-3.32 2.06,-2.16 0.31,0.26 0.64,0.61 0.64,0.61 0.29,0.37 0.66,0.79 0.84,0.36 0.27,-0.64 0.49,-1.70 0.19,-2.28 -0.13,-0.26 -1.84,-2.41 -3.00,-0.93 -1.44,1.83 -1.53,4.23 -1.72,6.91 -0.20,-0.56 -1.35,-4.16 -5.02,-6.21 -0.27,-0.15 -0.81,0.13 -0.86,0.98 -0.03,0.49 -0.17,1.69 0.18,2.03 0.35,0.34 1.37,1.01 1.54,1.10 z M 291.24,13.78 c 0.17,-0.04 3.05,-0.49 6.41,-3.05 1.82,-1.38 2.92,-3.74 2.92,-3.74 0.00,0.00 0.91,0.76 1.03,0.91 0.28,0.34 0.43,0.60 0.56,0.23 0.48,-1.33 -0.20,-2.13 -0.84,-2.54 0.00,0.00 0.67,-2.07 -0.56,-4.14 -0.21,-0.35 -1.43,-1.46 -2.85,0.74 -0.55,0.84 -0.96,2.85 -0.17,3.42 0.79,0.58 1.93,1.04 1.93,1.04 -3.66,4.48 -6.16,5.34 -8.30,6.59 -0.55,0.32 -0.44,0.61 -0.12,0.53 z M 298.95,4.39 c -0.47,-0.20 -0.72,-0.50 -0.50,-0.80 0.73,-1.02 1.08,-0.98 1.36,-0.82 0.83,0.77 0.70,2.03 0.67,2.31 0.00,0.00 -1.05,-0.49 -1.52,-0.70 z M 348.96,6.37 c 0.79,0.58 1.93,1.04 1.93,1.04 -3.66,4.48 -10.84,7.67 -12.55,9.01 -0.51,0.39 -0.44,0.61 -0.12,0.53 0.29,-0.08 5.76,-1.61 10.76,-5.90 2.29,-1.97 2.23,-2.11 2.82,-3.31 0.50,0.26 0.84,0.67 1.03,0.91 0.28,0.34 0.43,0.60 0.56,0.23 0.48,-1.33 -0.20,-2.13 -0.84,-2.54 0.00,0.00 0.67,-2.07 -0.56,-4.14 -0.21,-0.35 -1.43,-1.46 -2.85,0.74 -0.55,0.84 -0.96,2.85 -0.17,3.42 z M 349.69,4.34 c 0.73,-1.02 1.08,-0.98 1.36,-0.82 0.83,0.77 0.70,2.03 0.67,2.31 0.00,0.00 -1.05,-0.49 -1.52,-0.70 -0.47,-0.20 -0.72,-0.50 -0.50,-0.80 z M 354.10,37.21 c -0.24,0.68 -0.34,1.12 -0.31,1.38 0.03,0.26 0.11,1.10 0.11,1.10 -0.25,0.20 -1.33,0.87 -2.40,0.08 0.07,-0.23 0.21,-0.70 0.24,-0.95 0.12,-0.40 -0.13,-0.69 -0.32,-0.28 -0.20,0.41 -0.65,1.79 -0.99,2.10 -0.34,0.31 -0.73,1.45 -3.30,0.29 -0.45,-0.17 -1.23,-0.75 -2.46,0.48 -2.77,2.57 -4.68,2.77 -7.79,3.88 -0.38,0.17 -1.16,0.76 -0.23,0.67 0.94,-0.09 4.87,0.00 7.01,-2.46 0.45,-0.43 0.96,-1.58 2.66,-0.92 0.94,0.36 2.68,1.85 4.58,-1.10 1.12,0.75 2.82,0.45 3.09,-0.37 0.27,-0.82 0.58,-1.64 0.58,-2.20 0.00,-0.56 -0.05,-1.30 -0.05,-1.30 -0.04,-0.44 -0.19,-1.07 -0.44,-0.40 z M 325.61,20.28 c 0.48,0.00 1.11,-0.35 1.55,-1.88 0.08,-0.34 0.13,-0.62 0.16,-0.75 0.05,-0.21 -0.10,-0.45 -0.26,0.02 -0.35,0.93 -1.27,1.58 -1.96,0.33 -0.11,-0.25 -0.58,-1.38 0.28,-3.86 0.17,-0.48 0.39,-1.20 0.39,-1.20 0.19,-0.54 -0.04,-0.84 -0.31,-0.17 -0.27,0.66 -1.40,2.94 -1.23,5.64 0.04,0.62 0.45,1.83 1.39,1.87 z M 298.19,23.91 c 0.00,0.00 1.25,-0.31 1.47,-0.38 0.22,-0.06 0.34,-0.35 -0.05,-0.55 -0.39,-0.20 -4.09,-1.67 -4.37,-1.79 -0.28,-0.11 -0.38,-0.24 -0.41,0.06 -0.02,0.30 -0.07,2.73 -0.07,2.73 0.00,0.00 -0.06,0.17 0.27,0.35 0.32,0.18 0.64,0.58 0.90,0.84 0.26,0.26 3.70,2.98 3.87,3.07 0.00,0.00 -1.72,3.02 -1.94,5.38 -0.22,2.36 0.04,5.63 3.27,4.57 0.87,-0.25 4.49,-1.69 5.30,-4.21 0.26,-0.93 1.01,-2.61 -0.21,-4.31 -0.70,-1.00 -3.53,-2.69 -3.53,-2.69 0.00,0.00 2.17,-3.00 2.38,-3.37 0.21,-0.37 1.00,-2.69 1.09,-3.26 0.09,-0.56 0.13,-0.84 -0.29,-0.32 -0.42,0.52 -4.63,6.05 -4.63,6.05 z M 305.15,32.79 c -1.20,0.99 -3.72,2.29 -4.43,2.36 -0.71,0.07 -2.59,-0.28 -1.77,-2.20 0.28,-0.62 2.16,-3.84 2.16,-3.84 0.70,0.39 5.24,2.70 4.04,3.69 z M 307.92,12.30 c 0.25,-0.16 13.84,-8.02 14.32,-8.31 0.46,-0.29 0.72,-0.41 0.91,-0.85 0.18,-0.44 0.23,-0.51 0.33,-0.82 0.10,-0.32 0.21,-0.67 -0.61,-0.19 -0.53,0.31 -14.04,8.11 -14.59,8.46 -0.55,0.35 -0.74,0.44 -0.83,0.86 -0.09,0.42 -0.13,0.67 -0.16,0.73 -0.10,0.28 -0.17,0.63 0.64,0.10 z M 298.82,14.16 c -0.06,-0.05 -0.15,-0.03 -0.20,0.04 -1.53,2.10 -1.53,2.10 -1.53,2.10 -0.05,0.07 -0.04,0.16 0.03,0.21 2.61,1.91 2.61,1.91 2.61,1.91 0.06,0.05 0.15,0.03 0.20,-0.04 1.32,-1.81 1.32,-1.81 1.32,-1.81 2.54,1.85 2.54,1.85 2.54,1.85 0.06,0.05 0.15,0.03 0.20,-0.04 1.53,-2.10 1.53,-2.10 1.53,-2.10 0.05,-0.07 0.04,-0.16 -0.03,-0.20 -2.61,-1.91 -2.61,-1.91 -2.61,-1.91 -0.06,-0.05 -0.15,-0.03 -0.20,0.04 -1.32,1.81 -1.32,1.81 -1.32,1.81 z M 357.30,24.89 c -0.25,-0.28 -0.37,-0.01 -0.46,0.31 -0.09,0.32 -0.36,1.52 -0.53,2.27 0.00,0.00 0.71,1.16 0.97,1.75 0.25,0.59 -0.12,0.92 -0.86,1.01 -2.08,0.25 -3.73,-0.94 -4.30,-1.49 -0.57,-0.55 0.05,-1.52 0.51,-2.68 0.37,-0.93 -0.32,-1.04 -0.84,0.00 -1.76,4.63 -4.23,5.12 -4.88,5.30 -5.86,1.60 -5.36,-3.76 -5.34,-4.64 0.02,-0.88 -0.62,-0.55 -1.34,0.03 -2.47,1.98 -4.45,3.14 -5.52,3.62 -0.92,-1.80 -2.26,-2.93 -2.82,-3.34 -6.34,-4.63 -6.86,4.71 -6.67,5.71 0.97,3.97 7.44,1.56 8.46,1.44 1.01,-0.12 0.68,1.22 0.11,2.02 -1.41,1.97 -3.03,3.38 -4.50,4.58 -6.28,5.13 -9.43,4.72 -10.41,4.69 -6.17,-0.17 -5.60,-6.82 -5.26,-8.24 1.86,-1.57 3.45,-3.28 4.38,-5.04 0.38,-0.96 1.03,-3.15 -0.15,-5.91 -0.62,-1.21 -2.56,-4.60 -2.56,-4.60 0.00,0.00 1.43,0.04 1.57,0.04 0.14,0.00 0.41,-0.14 0.06,-0.55 -0.35,-0.40 -3.36,-3.40 -3.54,-3.65 -0.18,-0.24 -0.35,-0.41 -0.45,-0.06 -0.10,0.36 -0.36,1.88 -0.42,2.20 -0.06,0.31 -0.06,0.63 0.10,0.90 0.15,0.27 0.55,1.20 0.84,1.96 0.29,0.76 3.26,6.47 3.53,6.98 0.27,0.51 0.33,0.88 0.06,1.22 -9.53,10.05 -27.91,16.23 -28.50,16.57 -0.59,0.34 -0.43,0.61 0.56,0.43 1.48,-0.26 9.74,-1.64 12.09,-2.77 1.55,-0.75 6.97,-3.41 11.41,-6.89 -0.12,0.90 -0.24,2.22 -0.18,3.89 0.30,8.08 7.53,6.74 9.43,6.33 5.68,-1.25 12.64,-9.11 13.23,-10.69 0.58,-1.56 0.67,-2.98 0.54,-4.22 1.50,-0.81 4.71,-3.40 4.71,-3.40 0.13,3.45 2.88,4.48 3.72,4.63 3.96,0.60 5.94,-2.71 6.78,-3.78 0.72,1.89 2.45,2.25 3.34,2.43 3.41,0.68 4.08,-1.74 4.26,-2.29 1.07,-3.33 -0.86,-5.81 -1.11,-6.08 z M 328.67,31.57 c -2.03,-0.14 -1.85,-0.92 -1.57,-1.23 0.30,-0.33 2.78,-1.89 4.85,0.89 0.00,0.00 -0.86,0.50 -3.28,0.33 z" />
     </g>
</svg>
