<?xml version="1.0" encoding="UTF-8"?>
<svg version="1.1" id="Layer_1" x="0px" y="0px" width="578" height="55" viewBox="0 0 578 55"
xml:space="preserve" xmlns="http://www.w3.org/2000/svg" xmlns:svg="http://www.w3.org/2000/svg" xmlns:rdf="http://www.w3.org/1999/02/22-rdf-syntax-ns#"  xmlns:cc="http://creativecommons.org/ns#" xmlns:dc="http://purl.org/dc/elements/1.1/">
     <g>
<path d="M 266.92,17.14 c -1.92,2.63 -1.92,2.63 -1.92,2.63 -0.06,0.08 -0.05,0.20 0.03,0.25 3.27,2.38 3.27,2.38 3.27,2.38 0.08,0.06 0.19,0.04 0.25,-0.05 1.91,-2.63 1.91,-2.63 1.91,-2.63 0.06,-0.08 0.05,-0.20 -0.03,-0.25 -3.27,-2.38 -3.27,-2.38 -3.27,-2.38 -0.08,-0.06 -0.19,-0.04 -0.25,0.05 z M 289.72,44.44 c 0.21,-0.44 1.71,-5.31 -0.02,-16.38 -0.13,-0.92 -2.76,-19.64 -2.76,-19.64 0.00,0.00 1.55,1.45 1.80,1.72 0.25,0.26 0.55,0.12 0.41,-0.30 -0.14,-0.42 -3.31,-8.10 -3.42,-8.36 -0.10,-0.27 -0.20,-0.46 -0.33,-0.15 -0.13,0.31 -0.88,2.38 -0.88,2.38 0.20,1.35 1.99,15.82 2.10,16.81 0.12,0.99 2.59,19.20 2.72,23.73 -0.04,0.46 0.17,0.64 0.38,0.19 z M 260.64,36.34 c 0.00,0.00 4.03,-1.58 6.47,-5.98 0.62,-0.81 1.58,-2.07 2.00,-0.88 0.42,1.19 0.88,4.71 2.90,5.74 1.17,0.48 5.08,1.43 6.53,-1.85 0.35,-0.70 1.21,-3.54 0.88,-6.36 -0.14,-1.19 -2.75,-18.43 -2.75,-18.43 0.00,0.00 1.55,1.46 1.80,1.72 0.25,0.26 0.55,0.12 0.41,-0.30 -0.14,-0.42 -3.31,-8.09 -3.42,-8.36 -0.10,-0.27 -0.20,-0.46 -0.33,-0.15 -0.13,0.31 -0.88,2.38 -0.88,2.38 0.11,0.72 3.60,25.16 3.63,25.95 0.03,0.78 0.25,1.50 -0.38,1.95 -0.63,0.45 -3.32,1.30 -4.92,0.00 -0.50,-0.41 -1.36,-1.02 -2.06,-4.33 -0.18,-0.85 -0.45,-2.32 -1.87,-1.35 -1.42,0.98 -2.35,2.76 -3.00,3.45 -0.65,0.69 -4.15,4.15 -9.86,6.33 -0.41,0.15 -0.63,0.38 -0.89,0.71 -0.26,0.33 -1.07,2.29 -1.07,2.29 0.56,0.07 8.07,0.59 13.37,1.72 -0.31,0.28 -5.75,3.18 -7.58,3.71 -1.83,0.53 -6.49,2.52 -8.80,-3.83 -1.09,-3.00 -1.61,-7.77 -1.91,-9.86 -0.31,-2.09 -2.02,-16.06 -2.02,-16.06 0.00,0.00 -1.21,-9.59 -2.40,-13.05 -0.29,-0.73 -0.24,-0.55 -0.55,0.11 -0.31,0.66 -0.90,2.02 -0.79,3.12 0.11,1.10 2.48,17.15 2.67,19.00 0.20,1.85 1.15,10.82 1.15,11.45 0.00,0.63 0.03,1.25 -0.82,2.18 -0.86,0.92 -9.14,8.61 -15.87,8.71 -1.52,0.02 -5.47,0.50 -7.59,-4.19 -0.52,-1.14 -1.52,-4.03 0.43,-9.04 0.05,-0.13 0.08,-0.25 0.10,-0.36 0.22,0.12 0.46,0.18 0.72,0.18 0.76,-0.05 1.71,-0.74 2.25,-3.53 0.08,-0.63 0.13,-1.13 0.17,-1.38 0.05,-0.38 -0.21,-0.81 -0.41,0.06 -0.46,1.72 -1.84,2.98 -3.06,0.78 -0.20,-0.44 -1.05,-2.45 0.04,-7.01 0.22,-0.88 0.49,-2.20 0.49,-2.20 0.25,-1.00 -0.15,-1.51 -0.51,-0.29 -0.36,1.22 -1.91,5.46 -1.36,10.32 0.08,0.73 0.44,1.88 1.07,2.60 -0.07,0.12 -0.14,0.26 -0.22,0.44 -0.63,1.48 -5.08,11.59 2.90,16.20 1.15,0.66 6.22,2.74 15.11,-3.30 2.26,-1.53 6.01,-4.44 6.65,-5.86 0.25,-0.47 0.84,-2.18 0.84,-2.18 0.25,1.09 0.86,8.23 4.92,10.39 0.85,0.45 3.56,1.81 11.29,-2.31 1.88,-1.00 8.36,-4.07 10.87,-4.07 2.51,0.00 3.87,0.15 3.87,0.15 0.40,-0.57 1.69,-3.17 1.69,-3.17 -0.62,-0.18 -6.05,-0.35 -9.37,-0.62 -5.81,-0.38 -10.54,-1.36 -10.54,-1.36 z M 248.56,46.79 c -0.53,0.32 -12.19,6.02 -12.73,6.39 -0.54,0.36 -0.73,0.46 -0.81,0.88 -0.08,0.42 -0.12,0.67 -0.14,0.74 -0.09,0.28 -0.16,0.63 0.64,0.09 0.25,-0.17 12.01,-5.93 12.45,-6.23 0.44,-0.30 0.71,-0.42 0.89,-0.86 0.17,-0.44 0.22,-0.52 0.31,-0.83 0.10,-0.33 0.20,-0.67 -0.61,-0.17 z M 273.24,47.72 c -0.31,0.83 -1.13,1.41 -1.74,0.30 -0.10,-0.22 -0.51,-1.22 0.24,-3.42 0.15,-0.43 0.35,-1.06 0.35,-1.06 0.17,-0.48 -0.03,-0.74 -0.28,-0.15 -0.24,0.59 -1.25,2.61 -1.09,5.00 0.04,0.55 0.40,1.63 1.23,1.65 0.43,0.00 0.98,-0.31 1.38,-1.66 0.07,-0.30 0.11,-0.55 0.14,-0.67 0.04,-0.18 -0.09,-0.40 -0.23,0.02 z M 230.24,34.03 c 0.18,-0.54 -0.09,-0.82 -0.34,-0.15 -0.25,0.67 -1.35,2.98 -1.01,5.61 0.08,0.61 0.59,1.77 1.60,1.75 0.52,-0.03 1.18,-0.41 1.57,-1.93 0.06,-0.34 0.10,-0.62 0.13,-0.75 0.04,-0.21 -0.14,-0.44 -0.28,0.04 -0.33,0.94 -1.28,1.63 -2.10,0.45 -0.13,-0.24 -0.70,-1.32 0.08,-3.80 0.16,-0.48 0.35,-1.20 0.35,-1.20 z M 236.86,33.38 c -0.20,-0.44 -1.05,-2.45 0.04,-7.01 0.22,-0.89 0.49,-2.20 0.49,-2.20 0.25,-1.00 -0.15,-1.51 -0.51,-0.29 -0.36,1.22 -1.91,5.46 -1.36,10.32 0.13,1.12 0.90,3.28 2.38,3.26 0.76,-0.05 1.71,-0.74 2.25,-3.53 0.09,-0.63 0.13,-1.13 0.17,-1.38 0.05,-0.38 -0.21,-0.81 -0.41,0.06 -0.46,1.72 -1.84,2.98 -3.06,0.78 z M 250.81,14.86 c 0.67,0.15 1.03,0.58 1.19,0.81 0.07,0.10 0.18,0.04 0.22,-0.02 0.87,-1.47 0.24,-2.48 -1.05,-2.94 -0.51,-0.19 -0.70,-0.92 1.32,-2.04 1.86,-1.03 17.63,-7.68 18.04,-7.93 0.56,-0.34 0.89,-0.46 1.13,-0.98 0.24,-0.52 0.30,-0.61 0.43,-0.97 0.14,-0.39 0.28,-0.80 -0.73,-0.25 -0.54,0.29 -18.08,7.54 -19.63,8.64 -0.78,0.55 -1.46,1.46 -1.75,2.48 -0.41,1.47 -0.14,2.98 0.82,3.20 z M 269.96,9.71 c -0.45,-0.75 -0.75,-2.02 -0.75,-2.02 -0.16,-0.45 -0.28,-0.91 -0.48,-0.29 -0.20,0.62 -0.35,1.11 -0.08,1.82 0.27,0.71 1.00,2.33 1.13,2.56 0.12,0.23 0.15,0.49 -0.25,0.66 -0.40,0.17 -2.24,0.56 -2.58,-1.40 -0.34,-1.96 -0.37,-2.53 -0.54,-2.86 -0.17,-0.33 -0.33,-0.37 -0.46,-0.04 -0.13,0.33 -0.21,1.01 -0.23,1.12 -0.02,0.11 -0.02,0.19 0.05,0.31 0.07,0.12 0.80,2.31 0.47,2.91 -0.33,0.60 -1.98,1.69 -2.84,0.55 -0.41,-0.79 -0.16,-2.80 -0.16,-3.27 0.00,-0.47 -0.15,-0.63 -0.35,-0.25 -0.20,0.38 -0.31,0.63 -0.30,0.97 0.01,0.34 0.06,1.81 0.03,2.27 -0.03,0.46 0.00,1.96 0.88,2.38 0.88,0.42 2.17,0.03 3.14,-1.81 0.75,1.09 1.90,1.10 2.51,0.87 0.52,-0.19 1.11,-0.97 1.28,-2.06 0.17,-1.09 -0.11,-1.83 -0.45,-2.44 z M 227.80,7.56 c 0.37,0.31 1.42,0.90 1.60,0.98 0.18,0.08 0.36,0.08 0.40,-0.13 0.04,-0.21 0.23,-0.70 0.58,-0.38 0.25,0.22 2.31,1.78 3.07,4.05 0.64,1.98 -4.02,6.42 -4.26,6.62 -0.44,0.37 -0.28,0.57 -0.07,0.44 0.21,-0.13 0.42,-0.18 2.84,-2.05 1.95,-1.51 2.26,-3.11 2.35,-4.32 0.02,-0.06 0.03,-0.13 0.04,-0.21 0.10,-1.48 0.03,-4.03 0.09,-4.81 0.08,-1.09 0.42,-3.37 1.86,-2.31 0.33,0.24 0.68,0.56 0.68,0.56 0.31,0.34 0.71,0.74 0.85,0.30 0.22,-0.66 0.35,-1.73 0.02,-2.29 -0.15,-0.24 -1.98,-2.27 -3.02,-0.71 -1.28,1.93 -1.19,4.33 -1.18,7.02 -0.24,-0.54 -1.64,-4.05 -5.40,-5.83 -0.27,-0.13 -0.79,0.19 -0.77,1.04 0.01,0.49 -0.04,1.70 0.32,2.01 z M 257.76,24.21 c -1.06,0.78 -1.77,1.23 -1.77,1.23 -0.68,0.49 -1.29,1.41 -0.08,0.90 1.21,-0.51 2.81,-1.32 4.03,-3.17 0.36,-0.54 0.78,-1.26 -0.88,-1.50 -1.66,-0.25 -4.34,-0.64 -5.21,0.31 -0.87,0.95 -1.14,1.59 -1.40,2.00 -0.36,0.56 0.09,0.81 0.50,0.37 0.40,-0.43 0.68,-0.87 1.86,-0.84 1.18,0.03 4.00,-0.08 2.95,0.70 z M 330.36,8.24 c 0.17,0.09 0.36,0.11 0.41,-0.10 0.05,-0.21 0.28,-0.68 0.62,-0.34 0.28,0.28 2.09,1.78 3.03,4.95 0.16,0.42 0.55,0.46 0.64,-0.14 0.22,-1.47 0.34,-4.02 0.45,-4.79 0.16,-1.09 0.68,-3.32 2.06,-2.16 0.31,0.26 0.64,0.61 0.64,0.61 0.29,0.37 0.66,0.79 0.84,0.36 0.27,-0.64 0.49,-1.70 0.19,-2.28 -0.13,-0.26 -1.84,-2.41 -3.00,-0.93 -1.44,1.83 -1.53,4.23 -1.72,6.91 -0.20,-0.56 -1.35,-4.16 -5.02,-6.21 -0.27,-0.15 -0.81,0.13 -0.86,0.98 -0.03,0.49 -0.17,1.69 0.18,2.03 0.35,0.34 1.37,1.01 1.54,1.10 z M 350.97,15.52 c 0.18,-0.50 -0.04,-0.77 -0.29,-0.16 -0.25,0.61 -1.30,2.73 -1.14,5.22 0.04,0.58 0.42,1.70 1.29,1.73 0.45,0.00 1.03,-0.33 1.44,-1.73 0.07,-0.32 0.12,-0.57 0.15,-0.70 0.04,-0.19 -0.10,-0.42 -0.24,0.02 -0.33,0.86 -1.18,1.47 -1.82,0.31 -0.10,-0.23 -0.53,-1.28 0.26,-3.57 0.16,-0.45 0.36,-1.11 0.36,-1.11 z M 348.21,7.59 c 0.79,0.58 1.94,1.04 1.94,1.04 -3.66,4.48 -10.85,7.67 -12.56,9.01 -0.51,0.39 -0.44,0.61 -0.12,0.53 0.28,-0.08 5.76,-1.61 10.76,-5.90 2.29,-1.97 2.23,-2.11 2.81,-3.31 0.50,0.26 0.84,0.67 1.03,0.91 0.28,0.34 0.43,0.60 0.56,0.23 0.48,-1.33 -0.20,-2.13 -0.84,-2.54 0.00,0.00 0.67,-2.07 -0.56,-4.14 -0.21,-0.35 -1.43,-1.46 -2.85,0.74 -0.55,0.84 -0.96,2.85 -0.17,3.42 z M 348.94,5.56 c 0.73,-1.02 1.08,-0.99 1.36,-0.82 0.82,0.77 0.70,2.03 0.67,2.31 0.00,0.00 -1.05,-0.49 -1.52,-0.70 -0.47,-0.20 -0.72,-0.50 -0.50,-0.80 z M 324.86,21.49 c 0.48,0.00 1.11,-0.35 1.55,-1.87 0.08,-0.34 0.13,-0.62 0.16,-0.75 0.05,-0.21 -0.10,-0.45 -0.26,0.02 -0.35,0.93 -1.27,1.58 -1.96,0.34 -0.11,-0.25 -0.58,-1.38 0.28,-3.86 0.17,-0.48 0.39,-1.20 0.39,-1.20 0.19,-0.54 -0.04,-0.84 -0.31,-0.17 -0.27,0.66 -1.40,2.94 -1.23,5.64 0.04,0.62 0.45,1.83 1.39,1.87 z M 356.55,26.11 c -0.25,-0.28 -0.37,-0.01 -0.46,0.31 -0.09,0.32 -0.36,1.52 -0.54,2.27 0.00,0.00 0.71,1.16 0.97,1.75 0.25,0.59 -0.12,0.92 -0.86,1.01 -2.08,0.25 -3.73,-0.94 -4.30,-1.48 -0.57,-0.55 0.05,-1.52 0.51,-2.68 0.37,-0.93 -0.32,-1.04 -0.84,0.00 -1.76,4.63 -4.23,5.12 -4.88,5.30 -5.86,1.60 -5.36,-3.76 -5.34,-4.64 0.02,-0.88 -0.62,-0.55 -1.34,0.03 -2.47,1.98 -4.45,3.14 -5.52,3.62 -0.92,-1.80 -2.26,-2.93 -2.82,-3.33 -6.34,-4.63 -6.87,4.71 -6.67,5.71 0.97,3.97 7.45,1.56 8.46,1.44 1.02,-0.12 0.68,1.22 0.11,2.02 -1.41,1.97 -3.03,3.38 -4.50,4.57 -6.28,5.13 -9.44,4.72 -10.41,4.69 -6.17,-0.17 -5.60,-6.82 -5.26,-8.24 1.86,-1.57 3.45,-3.28 4.38,-5.04 0.38,-0.96 1.03,-3.16 -0.15,-5.91 -0.62,-1.21 -2.56,-4.60 -2.56,-4.60 0.00,0.00 1.43,0.04 1.57,0.04 0.14,0.00 0.41,-0.14 0.06,-0.54 -0.35,-0.40 -3.36,-3.41 -3.54,-3.65 -0.18,-0.24 -0.35,-0.41 -0.45,-0.06 -0.10,0.36 -0.36,1.88 -0.42,2.20 -0.06,0.31 -0.06,0.63 0.10,0.90 0.15,0.27 0.55,1.20 0.84,1.96 0.29,0.76 3.25,6.47 3.53,6.98 0.27,0.51 0.33,0.88 0.06,1.22 -9.53,10.05 -27.91,16.23 -28.50,16.57 -0.59,0.34 -0.43,0.61 0.56,0.43 1.48,-0.26 9.74,-1.64 12.09,-2.77 1.55,-0.75 6.98,-3.41 11.41,-6.89 -0.12,0.90 -0.24,2.22 -0.17,3.89 0.30,8.08 7.53,6.74 9.43,6.33 5.68,-1.25 12.64,-9.11 13.23,-10.69 0.58,-1.56 0.67,-2.98 0.54,-4.22 1.50,-0.81 4.71,-3.40 4.71,-3.40 0.13,3.45 2.88,4.48 3.72,4.63 3.96,0.60 5.94,-2.71 6.78,-3.78 0.72,1.89 2.45,2.25 3.34,2.43 3.41,0.68 4.08,-1.74 4.26,-2.29 1.07,-3.33 -0.86,-5.81 -1.11,-6.08 z M 327.91,32.79 c -2.02,-0.14 -1.85,-0.92 -1.57,-1.23 0.30,-0.33 2.78,-1.89 4.85,0.89 0.00,0.00 -0.86,0.50 -3.28,0.34 z M 353.34,38.42 c -0.24,0.68 -0.34,1.12 -0.31,1.38 0.03,0.26 0.12,1.10 0.12,1.10 -0.25,0.20 -1.33,0.87 -2.40,0.08 0.07,-0.23 0.21,-0.70 0.24,-0.95 0.12,-0.40 -0.13,-0.69 -0.32,-0.28 -0.20,0.41 -0.65,1.79 -0.99,2.10 -0.34,0.31 -0.73,1.45 -3.30,0.29 -0.45,-0.17 -1.24,-0.75 -2.46,0.48 -2.77,2.57 -4.68,2.78 -7.79,3.88 -0.38,0.17 -1.16,0.76 -0.23,0.67 0.94,-0.09 4.87,0.00 7.01,-2.46 0.45,-0.43 0.96,-1.58 2.66,-0.92 0.94,0.36 2.68,1.85 4.58,-1.10 1.12,0.75 2.82,0.45 3.09,-0.38 0.27,-0.82 0.58,-1.64 0.58,-2.20 0.00,-0.56 -0.05,-1.30 -0.05,-1.30 -0.04,-0.44 -0.19,-1.07 -0.44,-0.40 z M 297.44,25.13 c 0.00,0.00 1.25,-0.31 1.47,-0.38 0.22,-0.06 0.34,-0.35 -0.05,-0.55 -0.39,-0.20 -4.09,-1.67 -4.37,-1.79 -0.28,-0.11 -0.38,-0.24 -0.41,0.06 -0.02,0.30 -0.07,2.73 -0.07,2.73 0.00,0.00 -0.06,0.17 0.26,0.35 0.32,0.18 0.64,0.58 0.90,0.84 0.26,0.26 3.70,2.98 3.87,3.07 0.00,0.00 -1.72,3.02 -1.94,5.38 -0.22,2.36 0.04,5.63 3.27,4.57 0.87,-0.25 4.49,-1.69 5.30,-4.21 0.26,-0.93 1.01,-2.61 -0.21,-4.31 -0.70,-1.00 -3.53,-2.69 -3.53,-2.69 0.00,0.00 2.17,-3.00 2.38,-3.37 0.21,-0.37 1.00,-2.69 1.09,-3.26 0.09,-0.56 0.13,-0.84 -0.29,-0.32 -0.42,0.52 -4.63,6.05 -4.63,6.05 z M 304.39,34.01 c -1.20,0.99 -3.72,2.29 -4.43,2.36 -0.71,0.07 -2.59,-0.28 -1.77,-2.20 0.28,-0.62 2.16,-3.84 2.16,-3.84 0.70,0.39 5.24,2.70 4.04,3.69 z M 298.06,15.38 c -0.06,-0.05 -0.15,-0.03 -0.20,0.04 -1.53,2.10 -1.53,2.10 -1.53,2.10 -0.05,0.07 -0.04,0.16 0.03,0.20 2.61,1.91 2.61,1.91 2.61,1.91 0.06,0.05 0.15,0.03 0.20,-0.04 1.32,-1.81 1.32,-1.81 1.32,-1.81 2.54,1.85 2.54,1.85 2.54,1.85 0.06,0.05 0.15,0.03 0.20,-0.04 1.53,-2.10 1.53,-2.10 1.53,-2.10 0.05,-0.07 0.04,-0.16 -0.03,-0.20 -2.61,-1.91 -2.61,-1.91 -2.61,-1.91 -0.06,-0.05 -0.15,-0.03 -0.20,0.04 -1.32,1.81 -1.32,1.81 -1.32,1.81 z M 307.16,13.52 c 0.25,-0.16 13.84,-8.02 14.32,-8.31 0.46,-0.29 0.72,-0.41 0.91,-0.85 0.18,-0.44 0.23,-0.51 0.33,-0.82 0.11,-0.32 0.21,-0.67 -0.61,-0.19 -0.53,0.31 -14.04,8.11 -14.59,8.46 -0.55,0.35 -0.74,0.44 -0.83,0.86 -0.09,0.42 -0.13,0.67 -0.16,0.73 -0.10,0.28 -0.17,0.63 0.64,0.10 z M 290.48,15.00 c 0.17,-0.04 3.05,-0.49 6.41,-3.05 1.82,-1.38 2.92,-3.74 2.92,-3.74 0.00,0.00 0.91,0.76 1.03,0.91 0.28,0.34 0.43,0.60 0.56,0.23 0.48,-1.33 -0.20,-2.13 -0.84,-2.54 0.00,0.00 0.67,-2.07 -0.56,-4.14 -0.21,-0.35 -1.43,-1.46 -2.85,0.74 -0.55,0.84 -0.96,2.85 -0.17,3.42 0.79,0.58 1.93,1.04 1.93,1.04 -3.66,4.48 -6.16,5.34 -8.30,6.59 -0.55,0.32 -0.44,0.61 -0.12,0.53 z M 298.20,5.60 c -0.47,-0.20 -0.72,-0.50 -0.50,-0.80 0.73,-1.02 1.08,-0.98 1.36,-0.82 0.82,0.77 0.70,2.03 0.67,2.31 0.00,0.00 -1.05,-0.49 -1.52,-0.70 z" />
     </g>
</svg>
