<?xml version="1.0" encoding="UTF-8"?>
<svg version="1.1" id="Layer_1" x="0px" y="0px" width="578" height="55" viewBox="0 0 578 55"
xml:space="preserve" xmlns="http://www.w3.org/2000/svg" xmlns:svg="http://www.w3.org/2000/svg" xmlns:rdf="http://www.w3.org/1999/02/22-rdf-syntax-ns#"  xmlns:cc="http://creativecommons.org/ns#" xmlns:dc="http://purl.org/dc/elements/1.1/">
     <g>
<path d="M 235.34,23.62 c -0.41,1.48 -0.13,2.98 0.84,3.20 0.67,0.15 1.04,0.57 1.19,0.81 0.07,0.10 0.18,0.04 0.22,-0.02 0.87,-1.48 0.23,-2.48 -1.06,-2.94 -0.51,-0.18 -0.70,-0.92 1.31,-2.04 1.85,-1.03 15.85,-7.02 16.27,-7.27 0.56,-0.34 0.89,-0.46 1.13,-0.98 0.24,-0.52 0.30,-0.61 0.43,-0.98 0.14,-0.39 0.28,-0.80 -0.73,-0.25 -0.53,0.29 -16.30,6.89 -17.86,7.99 -0.78,0.55 -1.46,1.47 -1.74,2.49 z M 257.86,24.25 c -1.01,0.74 -1.69,1.17 -1.69,1.17 -0.65,0.47 -1.23,1.35 -0.07,0.86 1.16,-0.49 2.68,-1.26 3.85,-3.02 0.34,-0.51 0.74,-1.20 -0.84,-1.44 -1.59,-0.24 -4.15,-0.61 -4.98,0.30 -0.83,0.90 -1.09,1.52 -1.33,1.91 -0.34,0.53 0.09,0.77 0.47,0.36 0.38,-0.41 0.65,-0.83 1.78,-0.80 1.13,0.03 3.82,-0.07 2.82,0.67 z M 285.55,48.10 c -0.56,0.32 -2.05,0.76 -2.72,0.64 -0.67,-0.13 -1.45,-0.70 -1.63,-0.98 -0.17,-0.27 -0.15,-0.58 0.38,-0.89 0.53,-0.30 1.10,-0.51 1.51,0.16 0.08,0.11 0.16,0.11 0.33,-0.06 0.17,-0.17 0.51,-0.65 0.60,-0.78 0.09,-0.14 0.16,-0.36 0.02,-0.53 -0.14,-0.17 -0.72,-0.97 -1.66,-0.24 -0.94,0.73 -3.10,2.83 -2.13,3.81 0.56,0.46 0.82,0.68 0.82,0.68 -0.26,0.10 -0.49,0.35 -0.65,0.67 -0.16,0.32 -0.18,0.39 -0.27,0.57 -0.08,0.18 -0.13,0.43 0.32,0.17 0.45,-0.26 1.51,-1.26 4.38,-1.89 0.40,-0.08 0.75,-0.74 0.75,-0.74 0.17,-0.28 0.50,-0.92 -0.06,-0.60 z M 223.82,31.37 c 0.63,-0.13 1.18,-1.17 1.18,-1.17 0.27,-0.44 0.79,-1.45 -0.09,-0.95 -0.89,0.50 -3.25,1.21 -4.31,1.01 -1.05,-0.20 -2.30,-1.11 -2.58,-1.55 -0.27,-0.43 -0.24,-0.92 0.60,-1.41 0.84,-0.48 1.75,-0.81 2.39,0.26 0.12,0.18 0.26,0.17 0.53,-0.10 0.27,-0.27 0.81,-1.03 0.96,-1.24 0.14,-0.22 0.26,-0.58 0.04,-0.84 -0.22,-0.26 -1.15,-1.53 -2.63,-0.38 -1.48,1.15 -4.91,4.48 -3.37,6.04 0.89,0.72 1.30,1.08 1.30,1.08 -0.42,0.16 -0.78,0.56 -1.03,1.07 -0.25,0.51 -0.29,0.62 -0.42,0.91 -0.13,0.29 -0.20,0.68 0.51,0.28 0.71,-0.40 2.39,-2.00 6.93,-3.00 z M 292.15,44.36 c 0.21,-0.44 1.71,-3.88 -0.28,-15.68 -0.13,-0.92 -2.76,-19.64 -2.76,-19.64 0.00,0.00 1.55,1.45 1.80,1.72 0.25,0.26 0.55,0.12 0.41,-0.30 -0.14,-0.42 -3.32,-8.10 -3.42,-8.36 -0.10,-0.27 -0.20,-0.46 -0.33,-0.15 -0.13,0.31 -0.88,2.38 -0.88,2.38 0.20,1.35 1.99,15.82 2.10,16.81 0.12,0.99 2.84,18.50 2.97,23.03 -0.04,0.46 0.17,0.64 0.38,0.19 z M 232.37,41.77 c -0.04,0.46 0.07,0.58 0.38,0.19 0.15,-0.19 1.91,-1.72 0.18,-12.80 -0.13,-0.92 -2.76,-19.64 -2.76,-19.64 0.00,0.00 1.55,1.45 1.80,1.72 0.25,0.26 0.55,0.12 0.41,-0.30 -0.14,-0.42 -3.31,-8.10 -3.42,-8.36 -0.10,-0.27 -0.20,-0.46 -0.33,-0.15 -0.13,0.31 -0.88,2.38 -0.88,2.38 0.20,1.35 1.99,15.82 2.10,16.81 0.12,0.99 2.39,15.62 2.52,20.15 z M 264.97,6.58 c 0.18,0.09 0.36,0.09 0.41,-0.11 0.04,-0.21 0.26,-0.69 0.60,-0.37 0.29,0.27 2.16,1.69 3.24,4.82 0.18,0.41 0.57,0.44 0.64,-0.16 0.15,-1.47 0.16,-4.03 0.24,-4.80 0.12,-1.09 0.54,-3.35 1.96,-2.25 0.32,0.25 0.67,0.58 0.67,0.58 0.31,0.35 0.69,0.76 0.85,0.33 0.24,-0.65 0.41,-1.72 0.09,-2.28 -0.14,-0.25 -1.94,-2.33 -3.04,-0.80 -1.36,1.89 -1.35,4.29 -1.42,6.98 -0.23,-0.55 -1.53,-4.09 -5.29,-5.99 -0.27,-0.14 -0.80,0.17 -0.82,1.02 -0.01,0.49 -0.10,1.70 0.26,2.02 0.36,0.32 1.42,0.94 1.59,1.03 z M 235.63,7.85 c 0.16,0.09 0.32,0.09 0.35,-0.11 0.04,-0.21 0.22,-0.69 0.52,-0.36 0.26,0.27 1.90,1.70 2.86,4.84 0.16,0.41 0.50,0.44 0.55,-0.16 0.12,-1.47 0.11,-4.02 0.18,-4.80 0.10,-1.09 0.45,-3.35 1.70,-2.24 0.28,0.25 0.59,0.59 0.59,0.59 0.27,0.36 0.61,0.76 0.75,0.33 0.21,-0.65 0.35,-1.72 0.07,-2.28 -0.13,-0.25 -1.71,-2.34 -2.66,-0.82 -1.17,1.88 -1.15,4.28 -1.19,6.97 -0.20,-0.55 -1.36,-4.10 -4.66,-6.02 -0.24,-0.14 -0.70,0.16 -0.71,1.01 -0.01,0.49 -0.08,1.69 0.24,2.02 0.32,0.33 1.24,0.95 1.39,1.04 z M 225.12,35.87 c 0.14,-0.45 0.17,-0.54 0.24,-0.85 0.07,-0.33 0.18,-0.55 -0.63,-0.12 -0.54,0.29 -6.67,3.75 -7.27,4.11 -0.55,0.34 -0.69,0.52 -0.73,0.95 -0.04,0.43 -0.06,0.68 -0.08,0.75 -0.07,0.29 -0.17,0.55 0.64,0.04 0.40,-0.25 6.45,-3.57 7.01,-3.94 0.45,-0.30 0.67,-0.48 0.81,-0.94 z M 273.21,33.29 c 0.15,-0.50 -0.10,-0.74 -0.33,-0.13 -0.22,0.61 -1.19,2.73 -0.81,5.09 0.09,0.54 0.60,1.58 1.56,1.52 0.49,-0.05 1.10,-0.41 1.43,-1.80 0.05,-0.31 0.08,-0.56 0.10,-0.68 0.03,-0.19 -0.14,-0.39 -0.26,0.04 -0.29,0.86 -1.17,1.52 -1.97,0.47 -0.13,-0.21 -0.70,-1.17 -0.02,-3.43 0.14,-0.44 0.30,-1.09 0.30,-1.09 z M 240.80,45.07 c -0.46,-0.17 -1.17,-0.10 -2.06,1.01 -0.18,0.26 -0.31,0.47 -0.38,0.57 -0.11,0.15 -0.04,0.41 0.26,0.07 0.63,-0.65 1.71,-0.87 1.98,0.42 0.03,0.25 0.13,1.35 -1.45,3.11 -0.31,0.34 -0.74,0.86 -0.74,0.86 -0.35,0.38 -0.22,0.71 0.24,0.25 0.46,-0.45 2.25,-1.95 2.92,-4.25 0.15,-0.53 0.13,-1.69 -0.75,-2.04 z M 273.66,18.20 c 0.09,0.55 0.60,1.58 1.56,1.52 0.49,-0.04 1.10,-0.41 1.43,-1.80 0.05,-0.31 0.08,-0.56 0.10,-0.68 0.03,-0.19 -0.14,-0.39 -0.26,0.04 -0.29,0.86 -1.17,1.52 -1.97,0.47 -0.13,-0.21 -0.70,-1.17 -0.02,-3.43 0.14,-0.44 0.30,-1.09 0.30,-1.09 0.15,-0.50 -0.10,-0.74 -0.33,-0.13 -0.22,0.61 -1.19,2.73 -0.80,5.09 z M 245.24,24.63 c 0.15,-0.50 -0.10,-0.73 -0.33,-0.13 -0.22,0.61 -1.19,2.73 -0.81,5.09 0.09,0.54 0.61,1.58 1.56,1.52 0.49,-0.05 1.10,-0.41 1.43,-1.80 0.05,-0.31 0.08,-0.56 0.10,-0.68 0.03,-0.19 -0.14,-0.39 -0.26,0.04 -0.29,0.86 -1.17,1.52 -1.97,0.47 -0.13,-0.21 -0.70,-1.17 -0.02,-3.43 0.14,-0.44 0.30,-1.09 0.30,-1.09 z M 248.90,10.14 c 0.49,-0.05 1.10,-0.41 1.43,-1.80 0.05,-0.31 0.08,-0.56 0.10,-0.68 0.03,-0.19 -0.14,-0.39 -0.26,0.04 -0.29,0.86 -1.17,1.52 -1.97,0.47 -0.13,-0.21 -0.70,-1.17 -0.02,-3.43 0.14,-0.44 0.30,-1.09 0.30,-1.09 0.15,-0.50 -0.10,-0.74 -0.33,-0.13 -0.22,0.61 -1.19,2.73 -0.80,5.09 0.09,0.55 0.61,1.58 1.56,1.52 z M 219.68,19.32 c 0.62,-0.04 1.38,-0.60 1.82,-2.85 0.07,-0.51 0.11,-0.92 0.14,-1.12 0.04,-0.30 -0.17,-0.65 -0.33,0.05 -0.37,1.39 -1.49,2.41 -2.47,0.63 -0.16,-0.35 -0.85,-1.98 0.03,-5.66 0.18,-0.71 0.40,-1.78 0.40,-1.78 0.20,-0.81 -0.12,-1.22 -0.41,-0.23 -0.29,0.99 -1.54,4.41 -1.10,8.33 0.10,0.91 0.73,2.65 1.92,2.63 z M 263.27,41.69 c -0.24,0.68 -0.34,1.12 -0.31,1.38 0.03,0.26 0.12,1.10 0.12,1.10 -0.25,0.20 -1.33,0.87 -2.40,0.08 0.07,-0.23 0.21,-0.70 0.24,-0.95 0.12,-0.40 -0.13,-0.69 -0.32,-0.28 -0.20,0.41 -0.65,1.79 -0.99,2.10 -0.34,0.31 -0.73,1.45 -3.30,0.29 -0.45,-0.17 -1.23,-0.75 -2.46,0.48 -2.77,2.57 -4.68,2.77 -7.79,3.88 -0.38,0.17 -1.16,0.77 -0.23,0.67 0.94,-0.09 4.87,0.00 7.01,-2.46 0.45,-0.43 0.96,-1.58 2.66,-0.92 0.94,0.36 2.68,1.85 4.58,-1.10 1.12,0.75 2.82,0.45 3.09,-0.38 0.27,-0.82 0.58,-1.64 0.58,-2.20 0.00,-0.56 -0.05,-1.30 -0.05,-1.30 -0.04,-0.44 -0.19,-1.07 -0.44,-0.40 z M 282.96,28.91 c -0.24,-1.82 -3.19,-19.85 -3.19,-19.85 0.00,0.00 1.53,1.45 1.77,1.72 0.24,0.26 0.55,0.13 0.41,-0.29 -0.14,-0.42 -3.19,-8.01 -3.29,-8.27 -0.10,-0.26 -0.20,-0.46 -0.33,-0.15 -0.13,0.30 -1.04,2.43 -1.04,2.43 0.11,0.79 4.86,30.22 4.58,31.84 -0.03,0.18 -0.08,0.40 -0.16,0.67 -0.18,-1.50 -0.86,-3.69 -2.77,-6.81 -3.15,-5.15 -14.05,-14.07 -17.43,-19.40 -0.04,-0.05 -0.03,-0.12 -0.03,-0.12 0.00,0.00 1.35,0.32 1.59,0.38 0.37,0.09 0.91,0.07 0.54,-0.27 -0.37,-0.34 -5.37,-3.68 -5.88,-4.07 -0.51,-0.39 -0.72,-0.67 -0.72,-0.27 -0.01,0.40 0.05,2.70 0.07,2.95 0.01,0.24 0.03,0.38 0.33,0.62 0.30,0.23 1.43,1.53 2.40,2.71 5.32,6.14 11.82,12.66 12.63,13.36 0.81,0.69 7.56,7.23 8.50,12.45 0.01,0.05 0.02,0.11 0.02,0.16 -1.51,2.51 -5.39,6.30 -15.49,9.63 -1.13,0.57 -0.67,0.92 0.12,0.80 0.79,-0.12 11.66,-0.74 16.08,-7.91 2.00,-3.41 2.07,-6.50 1.30,-12.29 z M 267.10,36.81 c 0.26,-0.66 1.48,-3.89 -0.21,-6.63 -0.28,-0.60 -0.43,-0.17 -0.51,-0.04 -0.09,0.13 -0.86,2.05 -0.86,2.05 0.28,0.73 1.43,2.80 0.62,3.08 -0.81,0.28 -3.57,0.68 -4.39,-1.78 0.04,-0.24 0.36,-0.90 0.53,-1.31 0.17,-0.41 -0.09,-1.11 -0.58,-0.45 -0.49,0.66 -1.99,4.65 -5.09,5.05 -1.00,0.13 -2.35,0.06 -4.62,-1.92 -0.88,-0.77 -4.67,-2.35 -10.29,2.10 -0.45,0.36 -6.75,6.56 -7.85,7.61 -1.10,1.05 -5.52,5.25 -7.77,2.13 -0.51,-0.71 -1.92,-4.65 3.50,-11.50 0.42,-0.54 -0.17,-1.05 -1.29,0.53 -1.13,1.58 -7.12,9.73 -1.51,13.66 0.98,0.69 3.64,2.20 8.25,-2.61 1.11,-1.16 5.99,-6.86 9.99,-8.68 1.51,-0.67 3.56,-1.88 7.19,0.74 1.10,0.79 3.57,3.08 6.64,-0.14 0.62,-0.65 1.82,-2.66 1.82,-2.66 0.13,0.38 0.60,1.92 2.63,2.40 0.85,0.20 2.99,0.15 3.79,-1.63 z M 332.70,8.52 c 0.17,0.09 0.36,0.11 0.41,-0.10 0.05,-0.21 0.28,-0.68 0.62,-0.34 0.28,0.28 2.09,1.78 3.03,4.95 0.16,0.42 0.55,0.46 0.64,-0.14 0.22,-1.47 0.34,-4.02 0.45,-4.79 0.16,-1.09 0.68,-3.32 2.06,-2.16 0.31,0.26 0.64,0.61 0.64,0.61 0.29,0.37 0.66,0.79 0.84,0.36 0.27,-0.64 0.49,-1.70 0.19,-2.28 -0.13,-0.25 -1.84,-2.41 -3.00,-0.93 -1.44,1.83 -1.53,4.23 -1.72,6.91 -0.20,-0.56 -1.35,-4.16 -5.02,-6.21 -0.27,-0.15 -0.81,0.13 -0.86,0.98 -0.03,0.49 -0.17,1.69 0.18,2.03 0.35,0.34 1.37,1.00 1.54,1.10 z M 327.20,21.77 c 0.48,0.00 1.11,-0.35 1.55,-1.87 0.08,-0.34 0.13,-0.62 0.16,-0.75 0.05,-0.21 -0.10,-0.45 -0.26,0.02 -0.35,0.93 -1.27,1.58 -1.96,0.33 -0.11,-0.25 -0.58,-1.38 0.28,-3.86 0.17,-0.48 0.39,-1.20 0.39,-1.20 0.19,-0.54 -0.04,-0.84 -0.31,-0.18 -0.27,0.66 -1.40,2.94 -1.23,5.64 0.04,0.62 0.45,1.83 1.39,1.87 z M 353.31,15.79 c 0.18,-0.50 -0.04,-0.77 -0.29,-0.16 -0.25,0.61 -1.30,2.73 -1.14,5.22 0.04,0.58 0.42,1.70 1.29,1.73 0.45,0.00 1.03,-0.33 1.44,-1.73 0.07,-0.32 0.12,-0.57 0.15,-0.70 0.04,-0.19 -0.10,-0.42 -0.24,0.02 -0.33,0.86 -1.18,1.47 -1.82,0.31 -0.10,-0.23 -0.53,-1.28 0.26,-3.57 0.16,-0.44 0.36,-1.11 0.36,-1.11 z M 350.55,7.86 c 0.79,0.58 1.93,1.04 1.93,1.04 -3.66,4.49 -10.84,7.67 -12.55,9.01 -0.51,0.39 -0.44,0.61 -0.12,0.53 0.29,-0.08 5.76,-1.61 10.77,-5.90 2.29,-1.97 2.23,-2.11 2.81,-3.31 0.50,0.26 0.84,0.67 1.03,0.91 0.28,0.34 0.43,0.60 0.56,0.23 0.48,-1.33 -0.20,-2.13 -0.84,-2.54 0.00,0.00 0.67,-2.07 -0.56,-4.14 -0.21,-0.35 -1.43,-1.46 -2.85,0.74 -0.55,0.84 -0.96,2.85 -0.17,3.42 z M 351.28,5.83 c 0.73,-1.02 1.08,-0.99 1.36,-0.82 0.82,0.77 0.70,2.02 0.67,2.31 0.00,0.00 -1.05,-0.49 -1.52,-0.69 -0.47,-0.20 -0.72,-0.50 -0.50,-0.80 z M 309.51,13.79 c 0.25,-0.16 13.84,-8.02 14.32,-8.31 0.46,-0.28 0.72,-0.41 0.91,-0.85 0.18,-0.44 0.23,-0.51 0.33,-0.82 0.11,-0.32 0.21,-0.67 -0.61,-0.19 -0.53,0.31 -14.04,8.11 -14.59,8.46 -0.55,0.35 -0.74,0.44 -0.83,0.87 -0.09,0.42 -0.13,0.67 -0.16,0.73 -0.10,0.28 -0.17,0.63 0.64,0.10 z M 358.89,26.38 c -0.25,-0.28 -0.37,-0.01 -0.46,0.31 -0.09,0.32 -0.36,1.52 -0.54,2.27 0.00,0.00 0.71,1.16 0.97,1.75 0.25,0.59 -0.12,0.92 -0.86,1.01 -2.08,0.25 -3.73,-0.94 -4.30,-1.49 -0.57,-0.55 0.05,-1.52 0.51,-2.68 0.37,-0.93 -0.32,-1.04 -0.84,0.00 -1.76,4.63 -4.23,5.12 -4.88,5.30 -5.86,1.60 -5.36,-3.76 -5.34,-4.64 0.02,-0.88 -0.62,-0.55 -1.34,0.03 -2.47,1.98 -4.45,3.14 -5.52,3.62 -0.92,-1.80 -2.26,-2.93 -2.82,-3.34 -6.34,-4.63 -6.87,4.71 -6.67,5.71 0.97,3.97 7.45,1.56 8.46,1.44 1.02,-0.12 0.68,1.22 0.11,2.02 -1.41,1.97 -3.03,3.38 -4.50,4.57 -6.28,5.13 -9.44,4.72 -10.41,4.69 -6.17,-0.17 -5.60,-6.82 -5.26,-8.24 1.86,-1.57 3.45,-3.28 4.38,-5.04 0.38,-0.96 1.03,-3.15 -0.15,-5.91 -0.62,-1.21 -2.56,-4.60 -2.56,-4.60 0.00,0.00 1.43,0.04 1.57,0.04 0.14,0.00 0.41,-0.14 0.06,-0.54 -0.35,-0.40 -3.36,-3.41 -3.54,-3.65 -0.18,-0.24 -0.35,-0.41 -0.45,-0.06 -0.10,0.36 -0.36,1.88 -0.42,2.20 -0.06,0.31 -0.06,0.63 0.10,0.90 0.15,0.27 0.55,1.20 0.84,1.96 0.29,0.76 3.26,6.47 3.53,6.98 0.27,0.51 0.33,0.88 0.06,1.22 -9.53,10.05 -27.91,16.23 -28.50,16.57 -0.59,0.34 -0.43,0.61 0.56,0.43 1.48,-0.26 9.74,-1.64 12.09,-2.77 1.55,-0.75 6.97,-3.41 11.41,-6.89 -0.12,0.90 -0.24,2.22 -0.17,3.89 0.30,8.08 7.53,6.74 9.43,6.33 5.68,-1.25 12.64,-9.11 13.23,-10.69 0.58,-1.56 0.67,-2.98 0.54,-4.22 1.50,-0.81 4.71,-3.40 4.71,-3.40 0.13,3.45 2.88,4.48 3.72,4.63 3.96,0.60 5.94,-2.71 6.78,-3.78 0.72,1.89 2.45,2.26 3.34,2.43 3.41,0.68 4.08,-1.74 4.26,-2.29 1.07,-3.33 -0.86,-5.81 -1.11,-6.08 z M 330.25,33.06 c -2.03,-0.14 -1.85,-0.92 -1.57,-1.23 0.30,-0.33 2.78,-1.89 4.85,0.89 0.00,0.00 -0.86,0.50 -3.28,0.33 z M 355.68,38.70 c -0.24,0.68 -0.34,1.12 -0.31,1.38 0.03,0.26 0.11,1.10 0.11,1.10 -0.25,0.20 -1.33,0.87 -2.40,0.08 0.07,-0.23 0.21,-0.70 0.24,-0.95 0.12,-0.40 -0.13,-0.69 -0.32,-0.28 -0.20,0.41 -0.65,1.79 -0.99,2.10 -0.34,0.31 -0.73,1.45 -3.30,0.29 -0.45,-0.17 -1.23,-0.75 -2.46,0.48 -2.77,2.57 -4.68,2.77 -7.79,3.88 -0.38,0.17 -1.16,0.76 -0.23,0.67 0.94,-0.09 4.87,0.00 7.01,-2.46 0.45,-0.43 0.96,-1.58 2.66,-0.92 0.94,0.36 2.68,1.85 4.58,-1.10 1.12,0.75 2.82,0.45 3.09,-0.37 0.27,-0.82 0.58,-1.64 0.58,-2.20 0.00,-0.56 -0.05,-1.30 -0.05,-1.30 -0.04,-0.44 -0.19,-1.07 -0.44,-0.40 z M 300.41,15.66 c -0.06,-0.05 -0.15,-0.03 -0.20,0.04 -1.53,2.10 -1.53,2.10 -1.53,2.10 -0.05,0.07 -0.04,0.16 0.03,0.20 2.61,1.91 2.61,1.91 2.61,1.91 0.06,0.05 0.15,0.03 0.20,-0.04 1.32,-1.81 1.32,-1.81 1.32,-1.81 2.54,1.85 2.54,1.85 2.54,1.85 0.06,0.05 0.15,0.03 0.20,-0.04 1.53,-2.10 1.53,-2.10 1.53,-2.10 0.05,-0.07 0.04,-0.16 -0.03,-0.20 -2.61,-1.91 -2.61,-1.91 -2.61,-1.91 -0.06,-0.05 -0.15,-0.03 -0.20,0.04 -1.32,1.81 -1.32,1.81 -1.32,1.81 z M 292.83,15.27 c 0.17,-0.04 3.05,-0.49 6.41,-3.05 1.82,-1.38 2.92,-3.74 2.92,-3.74 0.00,0.00 0.91,0.76 1.03,0.91 0.28,0.34 0.43,0.60 0.56,0.23 0.48,-1.33 -0.20,-2.13 -0.84,-2.54 0.00,0.00 0.67,-2.07 -0.56,-4.14 -0.21,-0.35 -1.43,-1.46 -2.85,0.74 -0.55,0.84 -0.96,2.85 -0.17,3.42 0.79,0.58 1.93,1.04 1.93,1.04 -3.66,4.48 -6.16,5.34 -8.30,6.59 -0.55,0.32 -0.44,0.61 -0.12,0.53 z M 300.54,5.88 c -0.47,-0.20 -0.72,-0.50 -0.50,-0.80 0.73,-1.02 1.08,-0.99 1.36,-0.82 0.82,0.77 0.70,2.03 0.67,2.31 0.00,0.00 -1.05,-0.49 -1.52,-0.69 z M 299.78,25.40 c 0.00,0.00 1.25,-0.31 1.47,-0.38 0.22,-0.06 0.34,-0.34 -0.05,-0.55 -0.39,-0.20 -4.09,-1.67 -4.37,-1.79 -0.28,-0.11 -0.38,-0.24 -0.41,0.06 -0.02,0.30 -0.07,2.73 -0.07,2.73 0.00,0.00 -0.06,0.17 0.26,0.35 0.32,0.18 0.64,0.58 0.90,0.84 0.26,0.26 3.70,2.98 3.87,3.07 0.00,0.00 -1.72,3.02 -1.94,5.38 -0.22,2.36 0.04,5.63 3.27,4.58 0.87,-0.25 4.49,-1.69 5.30,-4.21 0.26,-0.93 1.01,-2.61 -0.21,-4.31 -0.70,-1.00 -3.53,-2.69 -3.53,-2.69 0.00,0.00 2.17,-3.00 2.38,-3.37 0.21,-0.37 1.00,-2.69 1.09,-3.26 0.09,-0.56 0.13,-0.84 -0.29,-0.32 -0.42,0.52 -4.63,6.05 -4.63,6.05 z M 306.74,34.28 c -1.20,0.99 -3.72,2.29 -4.43,2.36 -0.71,0.07 -2.59,-0.28 -1.77,-2.20 0.28,-0.62 2.16,-3.84 2.16,-3.84 0.70,0.39 5.24,2.70 4.04,3.69 z M 279.18,54.67 c -0.79,0.30 -0.65,0.06 -0.54,-0.18 0.04,-0.07 0.10,-0.26 0.23,-0.61 0.13,-0.35 0.30,-0.45 0.84,-0.64 0.54,-0.19 6.79,-2.51 7.30,-2.73 0.79,-0.33 0.64,-0.02 0.51,0.24 -0.13,0.25 -0.18,0.31 -0.39,0.67 -0.22,0.36 -0.47,0.41 -0.90,0.61 -0.43,0.20 -6.80,2.54 -7.05,2.64 z" />
     </g>
</svg>
