<?xml version="1.0" encoding="UTF-8"?>
<svg version="1.1" id="Layer_1" x="0px" y="0px" width="578" height="52" viewBox="0 0 578 52"
xml:space="preserve" xmlns="http://www.w3.org/2000/svg" xmlns:svg="http://www.w3.org/2000/svg" xmlns:rdf="http://www.w3.org/1999/02/22-rdf-syntax-ns#"  xmlns:cc="http://creativecommons.org/ns#" xmlns:dc="http://purl.org/dc/elements/1.1/">
     <g>
<path d="M 234.04,19.24 c -1.92,2.63 -1.92,2.63 -1.92,2.63 -0.06,0.08 -0.05,0.20 0.03,0.25 3.27,2.38 3.27,2.38 3.27,2.38 0.08,0.06 0.19,0.04 0.25,-0.05 1.91,-2.63 1.91,-2.63 1.91,-2.63 0.06,-0.08 0.05,-0.20 -0.03,-0.26 -3.27,-2.38 -3.27,-2.38 -3.27,-2.38 -0.08,-0.06 -0.19,-0.04 -0.25,0.05 z M 247.05,21.90 c -0.98,0.72 -1.64,1.13 -1.64,1.13 -0.63,0.45 -1.19,1.31 -0.07,0.83 1.12,-0.47 2.60,-1.22 3.73,-2.93 0.33,-0.50 0.72,-1.16 -0.82,-1.39 -1.54,-0.23 -4.02,-0.59 -4.83,0.29 -0.80,0.88 -1.05,1.48 -1.29,1.85 -0.33,0.52 0.09,0.75 0.46,0.34 0.37,-0.40 0.63,-0.80 1.72,-0.78 1.09,0.03 3.71,-0.07 2.73,0.65 z M 299.22,44.44 c 0.22,-0.44 1.75,-3.43 0.26,-14.54 -0.11,-0.92 -2.32,-19.70 -2.32,-19.70 0.00,0.00 1.52,1.49 1.76,1.76 0.24,0.27 0.55,0.14 0.41,-0.29 -0.13,-0.43 -3.13,-8.17 -3.23,-8.43 -0.10,-0.27 -0.19,-0.46 -0.33,-0.16 -0.13,0.30 -0.93,2.36 -0.93,2.36 0.17,1.35 1.64,15.86 1.73,16.85 0.09,0.99 2.24,17.42 2.27,21.95 -0.04,0.46 0.15,0.64 0.37,0.20 z M 281.48,20.26 c -1.27,1.88 -1.27,4.28 -1.35,6.96 -0.21,-0.55 -1.42,-4.11 -4.92,-6.04 -0.25,-0.14 -0.75,0.16 -0.77,1.01 -0.01,0.49 -0.10,1.70 0.24,2.02 0.34,0.33 1.32,0.96 1.48,1.05 0.17,0.09 0.34,0.10 0.38,-0.11 0.04,-0.21 0.24,-0.69 0.56,-0.36 0.27,0.27 2.02,1.71 3.01,4.85 0.17,0.42 0.53,0.44 0.60,-0.16 0.15,-1.47 0.16,-4.02 0.24,-4.80 0.11,-1.09 0.51,-3.35 1.84,-2.23 0.30,0.25 0.62,0.59 0.62,0.59 0.29,0.36 0.64,0.77 0.80,0.33 0.23,-0.65 0.39,-1.72 0.09,-2.28 -0.13,-0.25 -1.80,-2.35 -2.83,-0.83 z M 238.90,10.50 c 0.27,-0.14 14.85,-6.78 15.34,-7.04 0.48,-0.25 0.72,-0.41 0.91,-0.85 0.18,-0.44 0.23,-0.52 0.33,-0.82 0.10,-0.32 0.25,-0.58 -0.61,-0.19 -0.61,0.28 -15.00,6.89 -15.62,7.19 -0.59,0.28 -0.74,0.44 -0.83,0.86 -0.09,0.42 -0.13,0.67 -0.16,0.73 -0.10,0.28 -0.17,0.53 0.64,0.10 z M 238.59,43.81 c -0.55,0.28 -12.64,5.01 -13.20,5.33 -0.57,0.32 -0.77,0.39 -0.88,0.81 -0.11,0.41 -0.17,0.66 -0.20,0.72 -0.12,0.28 -0.21,0.62 0.63,0.14 0.26,-0.15 12.45,-4.93 12.92,-5.20 0.47,-0.27 0.75,-0.36 0.96,-0.79 0.21,-0.42 0.26,-0.50 0.38,-0.80 0.12,-0.32 0.25,-0.65 -0.60,-0.22 z M 268.09,11.47 c 0.19,-0.53 -0.04,-0.82 -0.30,-0.17 -0.26,0.65 -1.37,2.88 -1.20,5.50 0.04,0.61 0.44,1.79 1.36,1.82 0.47,0.00 1.08,-0.34 1.52,-1.83 0.08,-0.33 0.12,-0.60 0.15,-0.74 0.05,-0.20 -0.10,-0.44 -0.26,0.02 -0.35,0.91 -1.24,1.55 -1.92,0.33 -0.11,-0.24 -0.56,-1.35 0.27,-3.77 0.17,-0.47 0.38,-1.17 0.38,-1.17 z M 274.40,44.46 c -0.39,1.10 -1.51,1.92 -2.47,0.53 -0.16,-0.28 -0.82,-1.55 0.10,-4.47 0.19,-0.57 0.41,-1.41 0.41,-1.41 0.21,-0.64 -0.10,-0.96 -0.40,-0.18 -0.30,0.78 -1.59,3.50 -1.19,6.59 0.09,0.71 0.69,2.08 1.88,2.05 0.61,-0.04 1.38,-0.49 1.85,-2.27 0.08,-0.40 0.12,-0.72 0.15,-0.88 0.05,-0.24 -0.16,-0.51 -0.33,0.04 z M 222.79,32.70 c -0.19,-0.36 -0.99,-1.99 0.10,-5.72 0.22,-0.72 0.49,-1.80 0.49,-1.80 0.24,-0.81 -0.13,-1.23 -0.48,-0.23 -0.35,1.00 -1.87,4.47 -1.39,8.42 0.11,0.92 0.84,2.67 2.25,2.64 0.73,-0.04 1.65,-0.62 2.19,-2.90 0.09,-0.51 0.14,-0.93 0.17,-1.13 0.05,-0.31 -0.20,-0.66 -0.39,0.05 -0.46,1.41 -1.79,2.45 -2.93,0.66 z M 233.53,16.56 c 0.70,-0.04 1.58,-0.61 2.10,-2.89 0.08,-0.51 0.13,-0.92 0.17,-1.13 0.05,-0.31 -0.19,-0.66 -0.38,0.05 -0.44,1.41 -1.72,2.44 -2.82,0.66 -0.18,-0.36 -0.95,-1.99 0.08,-5.72 0.21,-0.72 0.47,-1.80 0.47,-1.80 0.23,-0.81 -0.13,-1.23 -0.47,-0.23 -0.34,1.00 -1.79,4.46 -1.32,8.42 0.11,0.91 0.81,2.67 2.17,2.64 z M 216.83,9.01 c 0.17,0.09 0.35,0.11 0.40,-0.10 0.05,-0.21 0.28,-0.68 0.61,-0.34 0.24,0.24 2.17,1.94 2.76,4.27 0.49,2.02 -4.48,6.10 -4.74,6.29 -0.47,0.33 -0.32,0.55 -0.10,0.43 0.22,-0.12 0.43,-0.15 2.98,-1.83 2.06,-1.36 2.49,-2.93 2.66,-4.14 0.02,-0.06 0.04,-0.13 0.05,-0.21 0.21,-1.47 0.33,-4.02 0.44,-4.79 0.16,-1.09 0.67,-3.33 2.03,-2.16 0.31,0.27 0.63,0.61 0.63,0.61 0.29,0.37 0.65,0.79 0.83,0.36 0.27,-0.64 0.48,-1.70 0.19,-2.28 -0.13,-0.26 -1.81,-2.41 -2.95,-0.93 -1.42,1.83 -1.51,4.23 -1.69,6.91 -0.20,-0.56 -1.33,-4.16 -4.95,-6.21 -0.26,-0.15 -0.80,0.13 -0.85,0.98 -0.03,0.49 -0.17,1.69 0.17,2.03 0.34,0.34 1.35,1.01 1.52,1.10 z M 288.44,10.17 c 0.00,0.00 1.52,1.49 1.76,1.76 0.24,0.27 0.55,0.14 0.41,-0.29 -0.13,-0.43 -3.13,-8.17 -3.23,-8.43 -0.10,-0.27 -0.19,-0.46 -0.33,-0.16 -0.13,0.30 -1.08,2.62 -1.08,2.62 0.11,0.88 3.70,29.24 3.77,30.07 0.07,0.83 0.33,1.93 -1.66,2.69 -1.99,0.76 -5.78,1.20 -8.87,-1.73 -1.69,-1.60 -8.17,-9.23 -13.05,-12.75 -2.00,-1.44 -10.53,-7.60 -12.12,-8.67 -0.60,-0.43 -0.70,-0.76 -0.37,-1.26 0.33,-0.50 13.55,-8.33 23.38,-10.26 1.13,-0.20 5.71,-0.93 4.22,1.89 -1.50,2.82 -5.35,7.57 -5.94,8.97 -0.60,1.39 -0.07,1.53 0.53,0.63 0.60,-0.90 5.11,-6.74 5.68,-7.74 4.35,-7.34 -1.26,-7.51 -2.52,-7.31 -2.15,0.35 -15.53,3.70 -24.24,9.90 -1.06,0.79 -2.77,1.94 -2.46,5.46 0.40,2.16 1.67,3.56 3.74,5.19 2.07,1.63 8.23,7.57 10.34,11.26 0.62,1.06 1.92,3.11 -1.45,4.57 -1.14,0.50 -7.06,3.10 -12.48,3.56 0.52,-0.79 3.22,-4.53 -0.33,-12.33 -0.21,-0.53 -0.36,-0.45 -0.52,-0.07 -0.17,0.38 -3.77,11.81 -3.79,12.02 0.00,0.00 -7.01,1.43 -9.52,-1.91 0.57,-0.55 4.33,-3.76 1.96,-9.16 -0.36,-0.83 -2.39,-3.70 -4.37,-1.33 -1.98,2.36 -2.67,5.46 -0.93,9.61 -0.31,0.22 -8.33,4.80 -14.46,4.82 -1.26,-0.07 -5.18,0.02 -8.06,-3.03 -0.79,-0.81 -2.91,-3.03 -0.98,-7.16 0.09,-0.20 0.13,-0.39 0.13,-0.54 0.02,0.00 0.05,0.01 0.07,0.00 0.76,-0.05 1.71,-0.74 2.25,-3.53 0.08,-0.63 0.13,-1.13 0.17,-1.38 0.05,-0.38 -0.21,-0.81 -0.41,0.06 -0.46,1.72 -1.84,2.98 -3.06,0.78 -0.20,-0.44 -1.05,-2.45 0.04,-7.01 0.22,-0.88 0.49,-2.20 0.49,-2.20 0.25,-1.00 -0.15,-1.51 -0.51,-0.29 -0.36,1.22 -1.91,5.46 -1.36,10.32 0.11,0.96 0.70,2.69 1.80,3.14 -0.06,0.09 -0.13,0.21 -0.20,0.37 -0.50,1.14 -4.06,7.54 2.08,11.93 0.72,0.45 5.57,3.36 13.32,0.62 1.04,-0.37 5.56,-1.88 9.80,-4.48 0.98,1.07 2.61,4.43 8.98,3.90 0.23,0.59 0.26,0.81 0.63,0.84 0.44,0.04 1.99,-0.07 1.99,-0.07 0.20,0.61 1.42,5.23 6.17,6.44 0.40,0.07 3.05,0.54 3.83,-2.28 0.16,-0.86 0.45,-3.40 -0.86,-5.51 0.40,-0.17 7.10,-2.21 9.62,-3.91 0.71,-0.51 2.13,-1.75 2.03,-5.40 -0.05,-1.02 -0.30,-3.05 -1.93,-5.48 1.07,0.71 5.12,4.08 8.60,7.97 1.34,1.56 4.09,6.49 10.38,6.38 1.30,-0.11 5.30,-0.99 5.72,-5.35 0.15,-1.56 0.04,-5.70 -0.07,-6.82 -0.11,-1.12 -2.74,-19.93 -2.74,-19.93 z M 236.77,35.74 c 0.00,0.00 -1.04,-2.05 -1.33,-2.81 -0.29,-0.77 -0.48,-1.66 0.90,-2.79 1.38,-1.13 2.97,1.55 3.31,2.36 0.34,0.80 -0.08,0.94 -0.29,1.20 -0.91,1.00 -2.19,1.81 -2.58,2.05 z M 251.54,32.36 c 0.33,-0.69 0.98,2.69 1.14,3.81 0.17,1.12 -2.80,2.85 -3.32,3.08 0.00,0.00 0.98,-4.94 2.18,-6.90 z M 255.57,47.21 c -2.96,0.55 -5.49,-2.57 -5.85,-3.19 0.00,0.00 3.76,-0.34 6.39,1.50 0.86,0.67 0.07,1.52 -0.55,1.69 z M 367.04,26.68 c -0.25,-0.27 -0.37,-0.01 -0.46,0.31 -0.09,0.32 -0.36,1.52 -0.53,2.27 0.00,0.00 0.71,1.16 0.97,1.75 0.25,0.59 -0.12,0.92 -0.86,1.01 -2.08,0.25 -3.73,-0.94 -4.30,-1.48 -0.57,-0.55 0.05,-1.52 0.51,-2.68 0.37,-0.93 -0.32,-1.04 -0.84,0.00 -1.76,4.63 -4.23,5.12 -4.88,5.30 -5.86,1.60 -5.36,-3.76 -5.34,-4.64 0.02,-0.88 -0.62,-0.55 -1.34,0.03 -2.47,1.98 -4.45,3.14 -5.52,3.62 -0.92,-1.80 -2.26,-2.93 -2.82,-3.33 -6.34,-4.62 -6.87,4.71 -6.67,5.71 0.97,3.97 7.45,1.56 8.46,1.44 1.02,-0.12 0.68,1.22 0.11,2.02 -1.41,1.97 -3.03,3.38 -4.50,4.58 -6.28,5.13 -9.44,4.72 -10.41,4.69 -6.17,-0.17 -5.60,-6.82 -5.26,-8.24 1.86,-1.57 3.45,-3.28 4.38,-5.04 0.38,-0.96 1.03,-3.16 -0.15,-5.91 -0.62,-1.21 -2.56,-4.60 -2.56,-4.60 0.00,0.00 1.43,0.04 1.57,0.04 0.14,0.00 0.41,-0.14 0.06,-0.54 -0.35,-0.40 -3.36,-3.40 -3.54,-3.65 -0.18,-0.24 -0.35,-0.42 -0.45,-0.06 -0.10,0.36 -0.36,1.88 -0.42,2.20 -0.06,0.31 -0.06,0.63 0.10,0.90 0.15,0.27 0.55,1.20 0.84,1.96 0.29,0.76 3.26,6.47 3.53,6.98 0.27,0.51 0.33,0.88 0.06,1.22 -9.53,10.05 -27.91,16.23 -28.50,16.58 -0.59,0.34 -0.43,0.61 0.56,0.43 1.48,-0.26 9.74,-1.64 12.09,-2.77 1.55,-0.75 6.97,-3.41 11.41,-6.89 -0.12,0.90 -0.24,2.22 -0.18,3.89 0.30,8.08 7.53,6.74 9.43,6.33 5.68,-1.25 12.64,-9.11 13.23,-10.69 0.58,-1.56 0.67,-2.98 0.54,-4.22 1.50,-0.81 4.71,-3.40 4.71,-3.40 0.13,3.45 2.88,4.48 3.72,4.63 3.96,0.60 5.94,-2.71 6.78,-3.78 0.72,1.89 2.45,2.25 3.34,2.43 3.41,0.68 4.08,-1.74 4.26,-2.29 1.07,-3.33 -0.86,-5.81 -1.11,-6.08 z M 338.40,33.35 c -2.02,-0.14 -1.85,-0.92 -1.57,-1.22 0.30,-0.33 2.78,-1.89 4.85,0.89 0.00,0.00 -0.86,0.50 -3.28,0.33 z M 335.35,22.06 c 0.48,0.00 1.11,-0.35 1.55,-1.87 0.08,-0.34 0.13,-0.62 0.16,-0.75 0.05,-0.21 -0.10,-0.45 -0.26,0.02 -0.35,0.93 -1.27,1.58 -1.96,0.33 -0.11,-0.25 -0.58,-1.38 0.28,-3.86 0.17,-0.48 0.39,-1.20 0.39,-1.20 0.19,-0.54 -0.04,-0.84 -0.31,-0.17 -0.27,0.66 -1.40,2.94 -1.23,5.63 0.04,0.62 0.45,1.83 1.39,1.87 z M 361.46,16.08 c 0.18,-0.50 -0.04,-0.77 -0.29,-0.16 -0.25,0.61 -1.30,2.73 -1.14,5.22 0.04,0.58 0.42,1.70 1.29,1.73 0.45,0.00 1.03,-0.33 1.44,-1.73 0.07,-0.32 0.12,-0.57 0.15,-0.70 0.04,-0.19 -0.10,-0.42 -0.24,0.02 -0.33,0.86 -1.18,1.47 -1.82,0.31 -0.10,-0.23 -0.53,-1.28 0.26,-3.57 0.16,-0.44 0.36,-1.11 0.36,-1.11 z M 358.70,8.15 c 0.79,0.58 1.93,1.04 1.93,1.04 -3.66,4.49 -10.84,7.67 -12.55,9.01 -0.51,0.39 -0.44,0.61 -0.12,0.53 0.29,-0.08 5.76,-1.61 10.76,-5.90 2.29,-1.97 2.23,-2.11 2.82,-3.30 0.50,0.26 0.84,0.67 1.03,0.91 0.28,0.34 0.43,0.60 0.56,0.23 0.48,-1.33 -0.20,-2.13 -0.85,-2.54 0.00,0.00 0.67,-2.07 -0.56,-4.14 -0.21,-0.35 -1.43,-1.46 -2.85,0.74 -0.55,0.84 -0.96,2.85 -0.17,3.42 z M 359.43,6.12 c 0.73,-1.02 1.08,-0.99 1.36,-0.82 0.82,0.77 0.70,2.02 0.67,2.31 0.00,0.00 -1.05,-0.49 -1.52,-0.69 -0.47,-0.20 -0.72,-0.50 -0.50,-0.80 z M 340.85,8.81 c 0.17,0.09 0.36,0.11 0.41,-0.10 0.05,-0.21 0.28,-0.68 0.62,-0.34 0.28,0.28 2.09,1.78 3.03,4.95 0.16,0.42 0.55,0.46 0.64,-0.14 0.22,-1.47 0.34,-4.02 0.45,-4.79 0.16,-1.09 0.68,-3.32 2.06,-2.16 0.31,0.26 0.64,0.61 0.64,0.61 0.29,0.37 0.66,0.79 0.84,0.36 0.27,-0.64 0.49,-1.70 0.19,-2.28 -0.13,-0.25 -1.84,-2.41 -3.00,-0.93 -1.44,1.83 -1.53,4.23 -1.72,6.91 -0.20,-0.56 -1.35,-4.16 -5.02,-6.21 -0.27,-0.15 -0.81,0.13 -0.86,0.98 -0.03,0.49 -0.17,1.69 0.18,2.03 0.35,0.34 1.37,1.00 1.54,1.10 z M 300.97,15.56 c 0.17,-0.04 3.05,-0.49 6.41,-3.05 1.82,-1.38 2.92,-3.74 2.92,-3.74 0.00,0.00 0.91,0.76 1.03,0.91 0.28,0.34 0.43,0.60 0.56,0.23 0.48,-1.33 -0.20,-2.13 -0.84,-2.54 0.00,0.00 0.67,-2.07 -0.56,-4.14 -0.21,-0.35 -1.43,-1.46 -2.85,0.74 -0.55,0.84 -0.96,2.85 -0.17,3.42 0.79,0.58 1.93,1.04 1.93,1.04 -3.66,4.49 -6.16,5.34 -8.30,6.60 -0.55,0.32 -0.44,0.61 -0.12,0.52 z M 308.69,6.17 c -0.47,-0.20 -0.72,-0.50 -0.50,-0.80 0.73,-1.02 1.08,-0.99 1.36,-0.82 0.82,0.77 0.70,2.02 0.67,2.31 0.00,0.00 -1.05,-0.49 -1.52,-0.70 z M 308.56,15.95 c -0.06,-0.05 -0.15,-0.03 -0.20,0.04 -1.53,2.10 -1.53,2.10 -1.53,2.10 -0.05,0.07 -0.04,0.16 0.03,0.20 2.61,1.91 2.61,1.91 2.61,1.91 0.06,0.05 0.15,0.03 0.20,-0.04 1.32,-1.81 1.32,-1.81 1.32,-1.81 2.54,1.85 2.54,1.85 2.54,1.85 0.06,0.05 0.15,0.03 0.20,-0.04 1.53,-2.10 1.53,-2.10 1.53,-2.10 0.05,-0.07 0.04,-0.16 -0.03,-0.20 -2.61,-1.91 -2.61,-1.91 -2.61,-1.91 -0.06,-0.05 -0.15,-0.03 -0.20,0.04 -1.32,1.81 -1.32,1.81 -1.32,1.81 z M 363.83,38.99 c -0.24,0.68 -0.34,1.12 -0.31,1.38 0.03,0.26 0.11,1.10 0.11,1.10 -0.25,0.20 -1.33,0.87 -2.40,0.08 0.07,-0.23 0.21,-0.70 0.24,-0.95 0.12,-0.40 -0.13,-0.69 -0.32,-0.28 -0.20,0.41 -0.65,1.79 -0.99,2.10 -0.34,0.31 -0.73,1.45 -3.30,0.29 -0.45,-0.17 -1.23,-0.75 -2.46,0.48 -2.77,2.57 -4.68,2.78 -7.79,3.88 -0.38,0.17 -1.16,0.77 -0.23,0.67 0.94,-0.09 4.87,0.00 7.01,-2.46 0.45,-0.43 0.96,-1.58 2.66,-0.92 0.94,0.36 2.68,1.85 4.58,-1.10 1.12,0.75 2.82,0.45 3.09,-0.38 0.27,-0.82 0.58,-1.64 0.58,-2.20 0.00,-0.56 -0.05,-1.30 -0.05,-1.30 -0.04,-0.44 -0.19,-1.07 -0.44,-0.40 z M 307.93,25.69 c 0.00,0.00 1.25,-0.31 1.47,-0.38 0.22,-0.06 0.34,-0.34 -0.05,-0.55 -0.39,-0.20 -4.09,-1.67 -4.37,-1.79 -0.28,-0.11 -0.38,-0.24 -0.41,0.06 -0.02,0.30 -0.07,2.73 -0.07,2.73 0.00,0.00 -0.06,0.17 0.27,0.35 0.32,0.18 0.64,0.58 0.90,0.84 0.26,0.26 3.70,2.98 3.87,3.07 0.00,0.00 -1.72,3.02 -1.94,5.38 -0.22,2.36 0.04,5.63 3.27,4.57 0.87,-0.25 4.49,-1.69 5.30,-4.21 0.26,-0.93 1.01,-2.61 -0.21,-4.31 -0.70,-1.00 -3.53,-2.69 -3.53,-2.69 0.00,0.00 2.17,-3.00 2.38,-3.37 0.21,-0.37 1.00,-2.69 1.09,-3.26 0.09,-0.56 0.13,-0.84 -0.29,-0.32 -0.42,0.52 -4.63,6.05 -4.63,6.05 z M 314.89,34.58 c -1.20,0.99 -3.72,2.29 -4.43,2.36 -0.71,0.07 -2.59,-0.28 -1.77,-2.20 0.28,-0.62 2.16,-3.84 2.16,-3.84 0.70,0.39 5.24,2.70 4.04,3.69 z M 317.66,14.08 c 0.25,-0.16 13.84,-8.02 14.32,-8.31 0.46,-0.28 0.72,-0.41 0.91,-0.84 0.18,-0.44 0.23,-0.52 0.33,-0.82 0.10,-0.32 0.21,-0.67 -0.61,-0.19 -0.53,0.31 -14.04,8.11 -14.59,8.46 -0.55,0.35 -0.74,0.44 -0.83,0.87 -0.09,0.42 -0.13,0.67 -0.16,0.73 -0.10,0.28 -0.17,0.63 0.64,0.10 z" />
     </g>
</svg>
