<?xml version="1.0" encoding="UTF-8"?>
<svg version="1.1" id="Layer_1" x="0px" y="0px" width="578" height="53" viewBox="0 0 578 53"
xml:space="preserve" xmlns="http://www.w3.org/2000/svg" xmlns:svg="http://www.w3.org/2000/svg" xmlns:rdf="http://www.w3.org/1999/02/22-rdf-syntax-ns#"  xmlns:cc="http://creativecommons.org/ns#" xmlns:dc="http://purl.org/dc/elements/1.1/">
     <g>
<path d="M 272.49,27.05 c 0.36,-0.39 0.62,-0.79 1.68,-0.76 1.07,0.03 3.62,-0.07 2.66,0.63 -0.95,0.70 -1.60,1.11 -1.60,1.11 -0.62,0.44 -1.16,1.28 -0.07,0.81 1.09,-0.46 2.54,-1.19 3.65,-2.86 0.32,-0.49 0.70,-1.14 -0.80,-1.36 -1.50,-0.23 -3.93,-0.58 -4.71,0.28 -0.78,0.85 -1.03,1.44 -1.26,1.81 -0.32,0.51 0.08,0.73 0.45,0.34 z M 222.38,18.56 c -1.59,2.42 -0.90,3.86 -0.13,4.31 0.76,0.45 1.11,1.05 1.38,1.63 1.81,-3.05 -0.49,-2.68 -1.51,-4.18 -0.51,-0.75 3.83,-3.00 7.23,-4.35 9.86,-4.00 24.63,-9.78 24.76,-9.84 0.15,-0.07 0.27,-0.15 0.29,-0.24 0.02,-0.09 0.46,-1.39 0.52,-1.64 0.06,-0.24 -0.24,-0.05 -0.51,0.06 -0.23,0.10 -21.31,8.46 -25.79,10.28 -0.43,0.18 -4.77,1.94 -6.25,3.97 z M 252.24,43.61 c -0.06,-0.05 -0.15,-0.03 -0.20,0.04 -1.32,1.81 -1.32,1.81 -1.32,1.81 -2.54,-1.85 -2.54,-1.85 -2.54,-1.85 -0.06,-0.05 -0.15,-0.03 -0.20,0.04 -1.53,2.10 -1.53,2.10 -1.53,2.10 -0.05,0.07 -0.04,0.16 0.03,0.21 2.61,1.91 2.61,1.91 2.61,1.91 0.06,0.05 0.15,0.03 0.20,-0.04 1.32,-1.81 1.32,-1.81 1.32,-1.81 2.54,1.85 2.54,1.85 2.54,1.85 0.06,0.05 0.15,0.03 0.20,-0.04 1.53,-2.10 1.53,-2.10 1.53,-2.10 0.05,-0.07 0.04,-0.16 -0.03,-0.20 z M 219.56,7.06 c 0.35,0.30 1.37,0.86 1.54,0.94 0.17,0.08 0.35,0.08 0.38,-0.12 0.04,-0.20 0.23,-0.67 0.56,-0.36 0.28,0.25 2.10,1.55 3.20,4.50 0.18,0.39 0.55,0.40 0.60,-0.17 0.11,-1.41 0.05,-3.83 0.11,-4.58 0.08,-1.04 0.43,-3.20 1.81,-2.19 0.31,0.23 0.65,0.54 0.65,0.54 0.30,0.33 0.68,0.70 0.82,0.29 0.21,-0.63 0.35,-1.65 0.03,-2.18 -0.14,-0.23 -1.90,-2.17 -2.91,-0.69 -1.24,1.83 -1.17,4.12 -1.17,6.67 -0.23,-0.52 -1.56,-3.85 -5.18,-5.56 -0.26,-0.12 -0.76,0.18 -0.75,0.99 0.00,0.47 -0.05,1.62 0.30,1.91 z M 277.48,19.45 c 0.28,-0.17 13.57,-5.99 14.08,-6.31 0.51,-0.32 0.81,-0.43 1.03,-0.91 0.22,-0.48 0.27,-0.56 0.38,-0.90 0.13,-0.36 0.25,-0.73 -0.67,-0.22 -0.60,0.33 -13.77,6.09 -14.38,6.46 -0.62,0.37 -0.83,0.47 -0.94,0.94 -0.11,0.47 -0.17,0.73 -0.19,0.81 -0.12,0.31 -0.21,0.69 0.70,0.13 z M 240.35,21.51 c -0.18,0.55 -0.27,0.84 -0.32,0.95 -0.15,0.37 -0.35,0.74 0.83,0.24 0.37,-0.16 28.39,-11.43 29.04,-11.75 0.64,-0.32 1.02,-0.43 1.33,-0.99 0.31,-0.55 0.38,-0.65 0.56,-1.04 0.19,-0.41 0.41,-0.79 -0.78,-0.34 -0.79,0.30 -28.61,11.58 -29.42,11.91 -0.81,0.33 -1.05,0.48 -1.23,1.02 z M 235.17,45.15 c -0.35,0.91 -1.25,1.55 -1.92,0.33 -0.11,-0.24 -0.56,-1.35 0.27,-3.77 0.17,-0.47 0.38,-1.17 0.38,-1.17 0.19,-0.53 -0.04,-0.82 -0.30,-0.17 -0.26,0.65 -1.37,2.88 -1.20,5.51 0.04,0.61 0.44,1.79 1.36,1.82 0.47,0.00 1.08,-0.34 1.52,-1.83 0.08,-0.34 0.12,-0.61 0.15,-0.74 0.05,-0.20 -0.10,-0.44 -0.26,0.02 z M 257.53,20.88 c 0.25,-0.75 -0.05,-1.16 -0.40,-0.24 -0.35,0.92 -1.82,4.07 -1.60,7.78 0.05,0.86 0.59,2.53 1.80,2.58 0.63,0.00 1.44,-0.49 2.01,-2.59 0.10,-0.47 0.16,-0.86 0.20,-1.04 0.06,-0.28 -0.13,-0.62 -0.34,0.03 -0.46,1.29 -1.65,2.19 -2.54,0.46 -0.14,-0.34 -0.75,-1.91 0.36,-5.32 0.22,-0.66 0.50,-1.65 0.50,-1.65 z M 279.80,10.78 c 0.60,0.00 1.38,-0.47 1.93,-2.47 0.09,-0.45 0.15,-0.82 0.19,-1.00 0.06,-0.27 -0.13,-0.59 -0.32,0.03 -0.44,1.23 -1.58,2.09 -2.43,0.44 -0.14,-0.33 -0.72,-1.82 0.34,-5.09 0.21,-0.63 0.48,-1.58 0.48,-1.58 0.24,-0.71 -0.05,-1.11 -0.38,-0.23 -0.34,0.88 -1.74,3.89 -1.53,7.44 0.05,0.82 0.56,2.42 1.72,2.46 z M 288.41,44.43 c -0.59,1.01 -1.85,1.59 -2.52,0.04 -0.10,-0.30 -0.51,-1.68 0.95,-4.37 0.29,-0.52 0.68,-1.30 0.68,-1.30 0.33,-0.59 0.08,-0.96 -0.36,-0.25 -0.44,0.71 -2.23,3.13 -2.43,6.24 -0.05,0.72 0.28,2.18 1.45,2.38 0.61,0.08 1.45,-0.21 2.25,-1.88 0.15,-0.38 0.26,-0.69 0.32,-0.84 0.09,-0.23 -0.06,-0.53 -0.33,-0.02 z M 231.18,22.07 c 0.18,-0.64 -0.10,-0.96 -0.36,-0.18 -0.26,0.78 -1.39,3.49 -1.02,6.58 0.09,0.71 0.63,2.09 1.69,2.06 0.54,-0.03 1.23,-0.48 1.63,-2.26 0.06,-0.40 0.10,-0.72 0.13,-0.88 0.04,-0.24 -0.15,-0.51 -0.29,0.04 -0.34,1.10 -1.33,1.91 -2.19,0.51 -0.14,-0.28 -0.74,-1.56 0.06,-4.47 0.16,-0.56 0.36,-1.41 0.36,-1.41 z M 294.90,29.91 c -0.26,-0.26 -3.25,-3.07 -3.71,-3.47 -0.46,-0.40 -2.68,-2.03 -4.19,-1.26 -1.33,0.67 -2.79,3.08 -2.42,4.71 0.31,1.35 0.77,2.26 1.25,3.07 -0.45,0.14 -0.85,0.26 -1.14,0.36 -1.50,0.51 -5.61,1.59 -8.03,2.99 -1.30,0.75 -5.02,3.23 -7.57,6.51 -0.79,0.95 -4.99,5.50 -8.23,5.39 -0.81,-0.04 -4.27,0.37 -3.01,-6.07 0.18,-0.84 1.23,-3.45 1.69,-4.38 0.10,-0.20 0.14,-0.38 0.15,-0.53 0.81,-0.24 1.63,-0.52 2.45,-0.86 0.86,-0.33 5.70,-1.89 6.53,-6.12 0.15,-0.84 0.48,-3.43 -2.44,-6.82 -0.42,-0.46 -0.42,-0.29 -0.55,0.07 -0.13,0.35 -0.59,2.40 -0.59,2.40 0.49,0.51 1.65,2.37 2.00,3.16 0.35,0.79 0.48,1.61 -0.77,2.31 -1.25,0.70 -6.91,4.09 -15.69,3.76 -1.01,-0.07 -7.77,-0.64 -9.83,-3.85 -0.24,-0.24 -0.35,-0.26 -0.44,0.02 -0.09,0.29 -0.40,1.25 -0.40,1.25 -1.32,-0.04 -6.38,-0.22 -12.96,6.62 -0.75,0.75 -5.51,6.49 -8.18,7.57 -1.41,0.52 -5.23,1.74 -5.29,-3.11 0.00,-0.82 0.28,-5.56 4.02,-9.85 0.03,-0.03 0.05,-0.05 0.07,-0.08 0.11,0.02 0.21,0.04 0.33,0.04 0.76,-0.05 1.71,-0.74 2.25,-3.53 0.09,-0.63 0.13,-1.13 0.17,-1.38 0.05,-0.38 -0.21,-0.81 -0.41,0.06 -0.46,1.72 -1.84,2.98 -3.06,0.78 -0.20,-0.44 -1.05,-2.45 0.04,-7.01 0.22,-0.88 0.49,-2.20 0.49,-2.20 0.25,-1.00 -0.15,-1.51 -0.51,-0.29 -0.36,1.22 -1.91,5.46 -1.36,10.32 0.09,0.82 0.53,2.18 1.33,2.85 -0.03,0.04 -0.07,0.07 -0.10,0.12 -0.89,1.08 -3.71,5.20 -4.14,9.24 -0.20,1.52 -0.19,7.20 4.41,7.37 0.89,0.03 4.11,0.00 8.38,-5.38 0.54,-0.68 5.73,-6.06 8.45,-7.31 3.99,-1.83 5.81,-1.43 5.81,-1.43 -0.03,0.24 -0.86,4.49 3.68,6.06 0.55,0.17 1.54,0.62 1.76,-0.60 0.22,-1.23 0.21,-3.01 0.19,-3.70 0.33,0.06 6.53,1.45 13.35,-0.23 -0.02,0.04 -0.05,0.08 -0.07,0.13 -0.70,1.34 -4.50,8.88 0.24,12.28 0.78,0.56 4.84,2.60 9.90,-3.21 0.73,-0.81 5.79,-7.17 12.50,-9.20 1.08,-0.39 3.97,-1.36 6.25,-2.12 0.32,0.43 0.59,0.79 0.68,0.95 0.22,0.40 0.37,0.35 0.44,0.04 0.03,-0.15 0.13,-0.66 0.08,-1.39 0.66,-0.22 1.21,-0.40 1.55,-0.50 1.52,-0.48 3.87,-1.50 3.87,-1.50 0.00,0.00 1.06,-2.82 0.79,-3.08 z M 243.36,38.65 c -2.73,-1.02 -2.33,-2.40 -2.33,-2.40 0.34,0.10 1.74,0.72 2.61,2.06 0.15,0.28 0.05,0.45 -0.28,0.34 z M 291.67,30.99 c -0.68,0.37 -2.24,0.88 -3.76,1.34 -0.01,-0.02 -0.02,-0.03 -0.02,-0.05 -0.73,-1.17 -1.45,-2.31 -1.65,-2.68 -0.20,-0.37 0.00,-1.08 0.90,-1.12 0.90,-0.04 1.87,0.18 2.79,0.92 1.11,0.90 1.96,1.47 1.74,1.58 z M 355.84,15.62 c 0.18,-0.50 -0.04,-0.77 -0.29,-0.16 -0.25,0.61 -1.30,2.73 -1.14,5.22 0.04,0.58 0.42,1.70 1.29,1.73 0.45,0.00 1.03,-0.33 1.44,-1.74 0.07,-0.32 0.12,-0.57 0.15,-0.70 0.04,-0.19 -0.10,-0.42 -0.24,0.02 -0.33,0.86 -1.18,1.47 -1.82,0.31 -0.10,-0.23 -0.53,-1.28 0.26,-3.57 0.16,-0.45 0.36,-1.11 0.36,-1.11 z M 329.73,21.60 c 0.48,0.00 1.11,-0.35 1.55,-1.87 0.08,-0.34 0.13,-0.62 0.16,-0.75 0.05,-0.21 -0.10,-0.45 -0.26,0.02 -0.36,0.93 -1.27,1.58 -1.96,0.34 -0.11,-0.25 -0.58,-1.38 0.28,-3.86 0.17,-0.48 0.39,-1.20 0.39,-1.20 0.19,-0.54 -0.04,-0.84 -0.31,-0.17 -0.27,0.66 -1.40,2.94 -1.23,5.64 0.04,0.62 0.45,1.83 1.39,1.87 z M 335.23,8.35 c 0.17,0.09 0.36,0.11 0.41,-0.10 0.05,-0.21 0.29,-0.68 0.62,-0.34 0.28,0.28 2.09,1.78 3.03,4.95 0.16,0.42 0.55,0.46 0.64,-0.14 0.22,-1.47 0.33,-4.02 0.45,-4.79 0.17,-1.09 0.68,-3.32 2.06,-2.16 0.31,0.26 0.64,0.61 0.64,0.61 0.29,0.37 0.66,0.79 0.84,0.36 0.27,-0.64 0.49,-1.70 0.19,-2.28 -0.13,-0.26 -1.84,-2.41 -3.00,-0.93 -1.44,1.83 -1.53,4.23 -1.72,6.91 -0.20,-0.56 -1.35,-4.16 -5.02,-6.21 -0.27,-0.15 -0.81,0.13 -0.86,0.98 -0.03,0.49 -0.17,1.69 0.18,2.03 0.35,0.34 1.37,1.01 1.54,1.10 z M 295.36,15.11 c 0.17,-0.04 3.05,-0.49 6.41,-3.05 1.82,-1.38 2.92,-3.74 2.92,-3.74 0.00,0.00 0.91,0.76 1.03,0.91 0.28,0.34 0.43,0.60 0.56,0.23 0.48,-1.33 -0.20,-2.13 -0.84,-2.54 0.00,0.00 0.67,-2.07 -0.56,-4.14 -0.21,-0.35 -1.43,-1.46 -2.85,0.74 -0.55,0.84 -0.96,2.85 -0.18,3.42 0.79,0.58 1.94,1.04 1.94,1.04 -3.66,4.48 -6.16,5.34 -8.30,6.59 -0.55,0.32 -0.44,0.61 -0.12,0.53 z M 303.07,5.71 c -0.47,-0.20 -0.72,-0.50 -0.50,-0.80 0.73,-1.02 1.08,-0.98 1.36,-0.82 0.82,0.77 0.70,2.03 0.67,2.31 0.00,0.00 -1.05,-0.49 -1.52,-0.70 z M 353.08,7.70 c 0.79,0.58 1.94,1.04 1.94,1.04 -3.66,4.48 -10.84,7.67 -12.56,9.01 -0.51,0.39 -0.44,0.61 -0.12,0.53 0.28,-0.08 5.76,-1.61 10.76,-5.90 2.29,-1.97 2.23,-2.11 2.81,-3.31 0.50,0.26 0.84,0.67 1.03,0.91 0.28,0.34 0.43,0.60 0.56,0.23 0.48,-1.33 -0.20,-2.13 -0.84,-2.54 0.00,0.00 0.67,-2.07 -0.56,-4.14 -0.21,-0.35 -1.43,-1.46 -2.85,0.74 -0.55,0.84 -0.96,2.85 -0.18,3.42 z M 353.81,5.66 c 0.73,-1.02 1.08,-0.99 1.36,-0.82 0.83,0.77 0.70,2.03 0.67,2.31 0.00,0.00 -1.05,-0.49 -1.52,-0.69 -0.47,-0.20 -0.72,-0.50 -0.50,-0.80 z M 361.42,26.22 c -0.25,-0.28 -0.37,-0.01 -0.46,0.31 -0.09,0.32 -0.36,1.52 -0.54,2.27 0.00,0.00 0.71,1.16 0.97,1.75 0.25,0.59 -0.12,0.92 -0.86,1.01 -2.08,0.25 -3.73,-0.94 -4.30,-1.48 -0.57,-0.55 0.05,-1.52 0.51,-2.68 0.37,-0.93 -0.32,-1.04 -0.84,0.00 -1.76,4.63 -4.23,5.12 -4.88,5.30 -5.86,1.60 -5.36,-3.76 -5.33,-4.64 0.02,-0.88 -0.62,-0.55 -1.34,0.03 -2.47,1.98 -4.45,3.14 -5.52,3.62 -0.92,-1.80 -2.26,-2.93 -2.82,-3.34 -6.34,-4.63 -6.87,4.71 -6.67,5.71 0.96,3.97 7.44,1.56 8.46,1.44 1.02,-0.12 0.68,1.22 0.11,2.02 -1.41,1.97 -3.03,3.38 -4.50,4.58 -6.28,5.13 -9.43,4.72 -10.41,4.69 -6.17,-0.17 -5.60,-6.82 -5.26,-8.24 1.86,-1.57 3.45,-3.28 4.38,-5.04 0.38,-0.96 1.03,-3.16 -0.15,-5.91 -0.62,-1.21 -2.56,-4.60 -2.56,-4.60 0.00,0.00 1.43,0.04 1.57,0.04 0.14,0.00 0.41,-0.14 0.06,-0.55 -0.35,-0.40 -3.36,-3.40 -3.54,-3.65 -0.18,-0.24 -0.35,-0.41 -0.45,-0.06 -0.10,0.36 -0.36,1.88 -0.42,2.20 -0.06,0.31 -0.06,0.63 0.10,0.90 0.15,0.27 0.55,1.20 0.84,1.96 0.29,0.76 3.25,6.47 3.53,6.98 0.27,0.51 0.33,0.88 0.06,1.22 -9.53,10.05 -27.91,16.23 -28.50,16.58 -0.59,0.34 -0.43,0.61 0.56,0.43 1.48,-0.26 9.74,-1.64 12.09,-2.77 1.55,-0.75 6.97,-3.41 11.41,-6.89 -0.12,0.90 -0.24,2.22 -0.17,3.89 0.30,8.08 7.53,6.74 9.43,6.33 5.68,-1.25 12.64,-9.11 13.23,-10.69 0.58,-1.56 0.67,-2.98 0.54,-4.22 1.50,-0.81 4.71,-3.40 4.71,-3.40 0.13,3.45 2.87,4.48 3.72,4.63 3.96,0.60 5.94,-2.71 6.78,-3.78 0.72,1.89 2.45,2.25 3.34,2.43 3.41,0.68 4.08,-1.74 4.25,-2.29 1.07,-3.33 -0.86,-5.81 -1.11,-6.08 z M 332.78,32.90 c -2.02,-0.14 -1.85,-0.92 -1.57,-1.23 0.30,-0.33 2.78,-1.89 4.85,0.89 0.00,0.00 -0.86,0.50 -3.28,0.34 z M 302.31,25.24 c 0.00,0.00 1.25,-0.31 1.47,-0.38 0.22,-0.06 0.34,-0.35 -0.05,-0.55 -0.39,-0.20 -4.09,-1.67 -4.37,-1.79 -0.28,-0.11 -0.38,-0.24 -0.41,0.06 -0.02,0.30 -0.07,2.73 -0.07,2.73 0.00,0.00 -0.06,0.17 0.27,0.35 0.32,0.18 0.64,0.58 0.90,0.84 0.26,0.26 3.70,2.98 3.87,3.07 0.00,0.00 -1.72,3.02 -1.94,5.38 -0.22,2.36 0.04,5.63 3.27,4.57 0.87,-0.25 4.49,-1.69 5.30,-4.21 0.26,-0.93 1.01,-2.61 -0.21,-4.31 -0.70,-1.00 -3.53,-2.69 -3.53,-2.69 0.00,0.00 2.17,-3.00 2.38,-3.37 0.21,-0.37 1.00,-2.69 1.09,-3.26 0.09,-0.56 0.13,-0.84 -0.29,-0.32 -0.42,0.52 -4.63,6.05 -4.63,6.05 z M 309.27,34.12 c -1.20,0.99 -3.72,2.29 -4.43,2.36 -0.71,0.07 -2.59,-0.28 -1.77,-2.20 0.28,-0.62 2.16,-3.84 2.16,-3.84 0.70,0.39 5.24,2.70 4.04,3.69 z M 312.04,13.63 c 0.25,-0.16 13.84,-8.02 14.32,-8.31 0.46,-0.29 0.72,-0.41 0.91,-0.85 0.18,-0.44 0.23,-0.51 0.33,-0.82 0.10,-0.32 0.21,-0.67 -0.61,-0.19 -0.53,0.31 -14.04,8.11 -14.59,8.46 -0.55,0.35 -0.74,0.44 -0.83,0.86 -0.09,0.42 -0.13,0.67 -0.16,0.73 -0.10,0.28 -0.17,0.63 0.64,0.10 z M 302.94,15.49 c -0.06,-0.05 -0.15,-0.03 -0.20,0.04 -1.53,2.10 -1.53,2.10 -1.53,2.10 -0.05,0.07 -0.04,0.16 0.03,0.21 2.61,1.91 2.61,1.91 2.61,1.91 0.06,0.05 0.15,0.03 0.20,-0.04 1.32,-1.81 1.32,-1.81 1.32,-1.81 2.54,1.85 2.54,1.85 2.54,1.85 0.06,0.05 0.15,0.03 0.20,-0.04 1.53,-2.10 1.53,-2.10 1.53,-2.10 0.05,-0.07 0.04,-0.16 -0.03,-0.20 -2.61,-1.91 -2.61,-1.91 -2.61,-1.91 -0.06,-0.05 -0.15,-0.03 -0.20,0.04 -1.32,1.81 -1.32,1.81 -1.32,1.81 z M 358.21,38.53 c -0.24,0.68 -0.34,1.12 -0.32,1.38 0.03,0.26 0.12,1.10 0.12,1.10 -0.25,0.20 -1.33,0.87 -2.40,0.08 0.07,-0.23 0.21,-0.70 0.24,-0.95 0.12,-0.40 -0.13,-0.69 -0.32,-0.28 -0.20,0.41 -0.65,1.79 -0.99,2.10 -0.34,0.31 -0.74,1.45 -3.30,0.29 -0.45,-0.17 -1.23,-0.75 -2.46,0.48 -2.77,2.57 -4.68,2.78 -7.79,3.88 -0.38,0.17 -1.16,0.76 -0.23,0.67 0.94,-0.09 4.87,0.00 7.01,-2.46 0.45,-0.43 0.96,-1.58 2.66,-0.92 0.94,0.36 2.68,1.85 4.58,-1.10 1.12,0.75 2.82,0.45 3.09,-0.38 0.27,-0.82 0.58,-1.64 0.58,-2.20 0.00,-0.56 -0.05,-1.30 -0.05,-1.30 -0.04,-0.44 -0.19,-1.07 -0.44,-0.40 z" />
     </g>
</svg>
