<?xml version="1.0" encoding="UTF-8"?>
<svg version="1.1" id="Layer_1" x="0px" y="0px" width="578" height="50" viewBox="0 0 578 50"
xml:space="preserve" xmlns="http://www.w3.org/2000/svg" xmlns:svg="http://www.w3.org/2000/svg" xmlns:rdf="http://www.w3.org/1999/02/22-rdf-syntax-ns#"  xmlns:cc="http://creativecommons.org/ns#" xmlns:dc="http://purl.org/dc/elements/1.1/">
     <g>
<path d="M 268.67,44.16 c -1.92,2.63 -1.92,2.63 -1.92,2.63 -0.06,0.08 -0.05,0.20 0.03,0.25 3.27,2.38 3.27,2.38 3.27,2.38 0.08,0.06 0.19,0.04 0.25,-0.05 1.91,-2.63 1.91,-2.63 1.91,-2.63 0.06,-0.08 0.05,-0.20 -0.03,-0.25 -3.27,-2.38 -3.27,-2.38 -3.27,-2.38 -0.08,-0.06 -0.19,-0.04 -0.25,0.05 z M 288.85,42.22 c 0.21,-0.45 1.67,-3.47 -0.06,-14.54 -0.13,-0.92 -2.76,-19.64 -2.76,-19.64 0.00,0.00 1.55,1.46 1.80,1.72 0.25,0.26 0.55,0.12 0.41,-0.30 -0.14,-0.42 -3.31,-8.10 -3.42,-8.36 -0.10,-0.27 -0.20,-0.46 -0.33,-0.15 -0.13,0.31 -0.88,2.38 -0.88,2.38 0.20,1.35 1.99,15.83 2.10,16.81 0.12,0.99 2.62,17.36 2.76,21.89 -0.04,0.46 0.17,0.64 0.38,0.19 z M 258.14,18.51 c -1.33,1.82 -1.33,1.82 -1.33,1.82 -2.54,-1.85 -2.54,-1.85 -2.54,-1.85 -0.06,-0.05 -0.15,-0.03 -0.20,0.04 -1.53,2.10 -1.53,2.10 -1.53,2.10 -0.05,0.07 -0.04,0.16 0.03,0.20 2.61,1.91 2.61,1.91 2.61,1.91 0.06,0.05 0.15,0.03 0.20,-0.04 1.32,-1.82 1.32,-1.82 1.32,-1.82 2.54,1.85 2.54,1.85 2.54,1.85 0.06,0.05 0.15,0.03 0.20,-0.04 1.53,-2.10 1.53,-2.10 1.53,-2.10 0.05,-0.07 0.04,-0.16 -0.03,-0.21 -2.62,-1.91 -2.62,-1.91 -2.62,-1.91 -0.06,-0.05 -0.15,-0.03 -0.20,0.04 z M 225.70,17.30 c 0.06,0.05 0.15,0.03 0.20,-0.04 1.51,-2.07 1.51,-2.07 1.51,-2.07 2.60,1.89 2.60,1.89 2.60,1.89 0.06,0.05 0.15,0.03 0.20,-0.04 1.53,-2.10 1.53,-2.10 1.53,-2.10 0.05,-0.07 0.04,-0.16 -0.03,-0.21 -2.61,-1.91 -2.61,-1.91 -2.61,-1.91 -0.06,-0.05 -0.15,-0.03 -0.20,0.04 -1.51,2.07 -1.51,2.07 -1.51,2.07 -2.60,-1.89 -2.60,-1.89 -2.60,-1.89 -0.06,-0.05 -0.15,-0.03 -0.20,0.04 -1.53,2.10 -1.53,2.10 -1.53,2.10 -0.05,0.07 -0.04,0.16 0.03,0.20 z M 239.12,6.17 c 0.15,0.08 0.31,0.09 0.35,-0.08 0.04,-0.18 0.24,-0.58 0.53,-0.29 0.24,0.24 1.78,1.52 2.59,4.23 0.14,0.36 0.47,0.39 0.55,-0.12 0.19,-1.25 0.29,-3.43 0.38,-4.09 0.14,-0.93 0.58,-2.84 1.76,-1.85 0.27,0.23 0.55,0.52 0.55,0.52 0.25,0.31 0.56,0.67 0.72,0.31 0.23,-0.55 0.42,-1.46 0.16,-1.95 -0.11,-0.22 -1.57,-2.06 -2.56,-0.80 -1.23,1.56 -1.31,3.62 -1.47,5.91 -0.17,-0.48 -1.15,-3.55 -4.29,-5.31 -0.23,-0.13 -0.69,0.12 -0.73,0.84 -0.03,0.42 -0.15,1.44 0.15,1.73 0.30,0.29 1.17,0.86 1.32,0.94 z M 239.03,16.61 c -0.14,0.55 -0.21,0.87 -0.25,0.95 -0.15,0.36 -0.26,0.82 0.83,0.18 0.34,-0.20 27.06,-13.13 27.67,-13.49 0.61,-0.36 0.97,-0.49 1.24,-1.06 0.27,-0.56 0.33,-0.66 0.48,-1.06 0.16,-0.42 0.32,-0.86 -0.79,-0.28 -0.71,0.38 -27.29,13.24 -28.03,13.67 -0.74,0.43 -1.00,0.54 -1.14,1.09 z M 237.20,30.94 c 0.27,-0.16 10.65,-4.68 11.14,-4.97 0.48,-0.29 0.77,-0.39 0.98,-0.83 0.21,-0.44 0.26,-0.52 0.38,-0.83 0.12,-0.33 0.25,-0.68 -0.62,-0.22 -0.56,0.30 -10.84,4.77 -11.42,5.11 -0.58,0.34 -0.79,0.42 -0.90,0.86 -0.11,0.43 -0.17,0.68 -0.20,0.75 -0.12,0.29 -0.21,0.64 0.65,0.14 z M 262.63,26.96 c -0.11,0.43 -0.17,0.68 -0.20,0.75 -0.12,0.29 -0.21,0.64 0.65,0.14 0.27,-0.16 10.65,-4.68 11.14,-4.97 0.48,-0.28 0.77,-0.39 0.98,-0.83 0.21,-0.44 0.26,-0.52 0.38,-0.83 0.12,-0.33 0.25,-0.68 -0.62,-0.22 -0.56,0.30 -10.84,4.77 -11.42,5.11 -0.58,0.34 -0.79,0.42 -0.90,0.86 z M 226.44,40.05 c -0.56,0.30 -6.32,2.71 -6.90,3.05 -0.58,0.34 -0.79,0.42 -0.90,0.86 -0.11,0.43 -0.17,0.68 -0.20,0.75 -0.12,0.29 -0.21,0.64 0.65,0.14 0.27,-0.16 6.13,-2.63 6.61,-2.91 0.48,-0.28 0.77,-0.39 0.98,-0.83 0.21,-0.44 0.26,-0.52 0.38,-0.83 0.12,-0.33 0.25,-0.68 -0.62,-0.22 z M 228.33,9.85 c 0.52,-0.03 1.18,-0.44 1.57,-2.08 0.06,-0.37 0.10,-0.66 0.12,-0.81 0.04,-0.22 -0.14,-0.47 -0.28,0.04 -0.33,1.01 -1.28,1.76 -2.10,0.47 -0.14,-0.26 -0.71,-1.43 0.07,-4.11 0.16,-0.52 0.35,-1.29 0.35,-1.29 0.18,-0.59 -0.09,-0.88 -0.35,-0.17 -0.25,0.72 -1.34,3.21 -0.99,6.05 0.08,0.66 0.60,1.92 1.61,1.89 z M 267.44,16.31 c -0.14,-0.26 -0.71,-1.43 0.07,-4.11 0.16,-0.52 0.35,-1.29 0.35,-1.29 0.17,-0.59 -0.09,-0.88 -0.35,-0.17 -0.25,0.72 -1.34,3.21 -0.99,6.05 0.08,0.66 0.60,1.92 1.61,1.89 0.52,-0.03 1.18,-0.44 1.57,-2.08 0.06,-0.37 0.10,-0.66 0.13,-0.81 0.04,-0.22 -0.14,-0.47 -0.28,0.04 -0.33,1.01 -1.28,1.76 -2.10,0.47 z M 284.74,43.57 c -0.33,1.01 -1.28,1.76 -2.10,0.47 -0.14,-0.26 -0.71,-1.43 0.07,-4.10 0.16,-0.52 0.35,-1.29 0.35,-1.29 0.17,-0.59 -0.09,-0.88 -0.35,-0.17 -0.25,0.72 -1.34,3.21 -0.99,6.05 0.08,0.66 0.60,1.92 1.61,1.89 0.52,-0.03 1.18,-0.44 1.57,-2.08 0.06,-0.37 0.10,-0.66 0.12,-0.81 0.04,-0.22 -0.14,-0.47 -0.28,0.04 z M 253.41,45.23 c -0.31,0.94 -1.20,1.64 -1.96,0.44 -0.13,-0.24 -0.66,-1.33 0.06,-3.83 0.15,-0.49 0.33,-1.21 0.33,-1.21 0.16,-0.55 -0.08,-0.83 -0.32,-0.15 -0.24,0.67 -1.25,2.99 -0.93,5.64 0.08,0.61 0.56,1.79 1.51,1.77 0.49,-0.03 1.10,-0.41 1.46,-1.94 0.06,-0.34 0.09,-0.62 0.12,-0.75 0.04,-0.21 -0.13,-0.44 -0.26,0.04 z M 277.32,8.20 c 0.00,0.00 1.55,1.45 1.80,1.72 0.25,0.26 0.55,0.12 0.41,-0.30 -0.14,-0.42 -3.31,-8.09 -3.42,-8.36 -0.10,-0.27 -0.20,-0.46 -0.33,-0.15 -0.13,0.31 -0.88,2.38 -0.88,2.38 0.11,0.74 4.34,30.40 4.41,32.31 0.03,0.40 0.20,1.09 -0.27,1.56 -0.47,0.47 -2.52,2.16 -5.97,0.42 -0.42,-0.21 -1.66,-1.50 -1.54,-2.25 0.24,-0.96 0.14,-1.88 -0.46,-1.18 -0.61,0.70 -3.03,4.57 -7.78,4.81 -0.78,0.00 -3.35,0.15 -5.51,-2.74 0.00,0.00 2.08,-1.39 2.46,-2.67 0.38,-1.29 1.16,-4.57 -1.80,-7.16 -0.56,-0.40 -1.85,-1.17 -3.28,1.04 -1.43,2.21 -1.22,5.86 -0.43,7.06 0.00,0.00 -3.61,1.33 -7.00,2.19 -1.03,0.26 -5.22,1.60 -10.16,6.15 -0.84,0.78 -4.80,4.73 -7.64,2.95 -0.46,-0.29 -2.55,-1.80 0.42,-8.44 0.08,-0.15 0.12,-0.29 0.15,-0.41 0.64,-0.39 1.33,-0.94 2.02,-1.72 0.26,-0.29 0.91,-1.44 0.30,-4.41 -0.18,-0.90 -0.94,-2.03 -2.95,-3.61 0.00,0.00 2.03,-2.80 2.15,-3.10 0.12,-0.30 0.74,-2.06 0.82,-2.52 0.08,-0.46 0.00,-0.73 -0.33,-0.30 -0.33,0.43 -3.70,5.12 -3.70,5.12 -0.41,-0.25 -1.70,-1.34 -1.86,-1.52 -0.28,-0.30 -0.08,-0.41 -0.08,-0.41 0.00,0.00 0.65,-0.17 0.84,-0.20 0.18,-0.03 0.16,-0.29 -0.12,-0.43 -0.27,-0.14 -2.67,-1.42 -2.87,-1.55 -0.20,-0.13 -0.37,-0.29 -0.46,0.12 -0.09,0.40 -0.20,2.43 -0.21,2.70 -0.01,0.27 -0.01,0.53 0.26,0.60 0.27,0.07 3.12,2.66 3.12,2.66 -0.35,0.55 -2.20,3.49 -2.41,6.46 -0.05,0.66 -0.26,3.47 2.43,3.12 0.40,-0.06 1.13,-0.13 2.02,-0.48 0.00,0.00 0.00,0.00 0.00,0.00 -0.75,1.67 -3.42,8.23 1.52,10.83 0.93,0.45 3.29,0.86 7.62,-3.16 0.77,-0.71 4.54,-3.81 7.51,-4.78 2.04,-0.66 9.45,-2.89 9.87,-3.09 0.00,0.00 1.50,3.54 4.49,4.31 0.90,0.23 6.22,1.09 9.61,-3.55 0.51,0.77 1.69,3.41 5.77,3.36 0.96,-0.07 3.92,0.00 4.93,-4.61 0.18,-0.86 -0.12,-5.96 -0.26,-7.12 -0.13,-1.16 -3.19,-21.66 -3.19,-21.66 z M 227.77,35.30 c -1.14,0.30 -1.96,-0.63 -1.76,-1.79 0.15,-0.92 2.09,-3.64 2.40,-4.07 0.00,0.00 2.32,1.61 3.34,3.04 0.30,0.42 0.13,0.58 -0.39,1.06 -0.52,0.48 -2.45,1.46 -3.59,1.76 z M 255.41,31.99 c -0.30,-1.00 0.25,-1.82 0.91,-2.42 0.66,-0.60 2.24,1.06 2.68,1.70 1.12,1.32 -2.04,2.59 -2.53,2.81 0.00,0.00 -0.76,-1.10 -1.06,-2.10 z M 350.06,14.30 c 0.18,-0.50 -0.04,-0.77 -0.29,-0.16 -0.25,0.61 -1.30,2.73 -1.14,5.22 0.04,0.58 0.42,1.70 1.29,1.73 0.45,0.00 1.03,-0.33 1.44,-1.73 0.07,-0.32 0.12,-0.57 0.15,-0.70 0.04,-0.19 -0.10,-0.42 -0.24,0.02 -0.33,0.86 -1.18,1.47 -1.82,0.31 -0.10,-0.23 -0.53,-1.28 0.26,-3.57 0.16,-0.44 0.36,-1.11 0.36,-1.11 z M 323.95,20.28 c 0.48,0.00 1.11,-0.35 1.55,-1.87 0.08,-0.34 0.13,-0.62 0.16,-0.75 0.05,-0.21 -0.10,-0.45 -0.26,0.02 -0.36,0.93 -1.28,1.58 -1.96,0.33 -0.11,-0.25 -0.58,-1.38 0.28,-3.86 0.17,-0.48 0.39,-1.20 0.39,-1.20 0.19,-0.54 -0.04,-0.84 -0.31,-0.18 -0.27,0.66 -1.40,2.94 -1.23,5.64 0.04,0.62 0.45,1.83 1.39,1.87 z M 329.45,7.03 c 0.17,0.09 0.36,0.11 0.41,-0.10 0.05,-0.21 0.29,-0.68 0.62,-0.34 0.28,0.28 2.09,1.78 3.03,4.95 0.16,0.42 0.55,0.46 0.64,-0.14 0.22,-1.47 0.33,-4.02 0.45,-4.79 0.17,-1.09 0.68,-3.32 2.06,-2.16 0.31,0.26 0.64,0.61 0.64,0.61 0.29,0.37 0.66,0.79 0.84,0.36 0.27,-0.64 0.49,-1.70 0.19,-2.28 -0.13,-0.26 -1.84,-2.41 -3.00,-0.93 -1.44,1.83 -1.53,4.23 -1.72,6.91 -0.20,-0.56 -1.35,-4.16 -5.02,-6.21 -0.27,-0.15 -0.81,0.13 -0.86,0.98 -0.03,0.49 -0.17,1.69 0.18,2.03 0.35,0.34 1.37,1.01 1.54,1.10 z M 347.30,6.37 c 0.79,0.58 1.94,1.04 1.94,1.04 -3.66,4.48 -10.84,7.67 -12.56,9.01 -0.51,0.38 -0.44,0.61 -0.12,0.53 0.28,-0.08 5.76,-1.61 10.76,-5.90 2.29,-1.97 2.23,-2.11 2.81,-3.31 0.50,0.26 0.84,0.67 1.03,0.91 0.28,0.34 0.43,0.60 0.56,0.23 0.48,-1.33 -0.20,-2.13 -0.84,-2.54 0.00,0.00 0.67,-2.07 -0.56,-4.14 -0.21,-0.35 -1.43,-1.46 -2.85,0.74 -0.55,0.84 -0.96,2.85 -0.18,3.42 z M 348.03,4.34 c 0.73,-1.02 1.08,-0.99 1.36,-0.82 0.82,0.77 0.70,2.02 0.67,2.31 0.00,0.00 -1.05,-0.49 -1.52,-0.69 -0.47,-0.20 -0.72,-0.50 -0.50,-0.80 z M 289.57,13.78 c 0.17,-0.04 3.05,-0.49 6.41,-3.05 1.82,-1.38 2.92,-3.74 2.92,-3.74 0.00,0.00 0.91,0.76 1.03,0.91 0.28,0.34 0.43,0.60 0.56,0.23 0.48,-1.33 -0.20,-2.13 -0.84,-2.54 0.00,0.00 0.67,-2.07 -0.56,-4.14 -0.21,-0.35 -1.43,-1.46 -2.85,0.74 -0.55,0.84 -0.96,2.85 -0.18,3.42 0.79,0.58 1.94,1.04 1.94,1.04 -3.66,4.48 -6.16,5.34 -8.30,6.59 -0.55,0.32 -0.44,0.61 -0.12,0.53 z M 297.29,4.39 c -0.47,-0.20 -0.72,-0.50 -0.50,-0.80 0.73,-1.02 1.08,-0.99 1.36,-0.82 0.83,0.77 0.70,2.02 0.67,2.31 0.00,0.00 -1.05,-0.49 -1.52,-0.69 z M 355.64,24.89 c -0.25,-0.28 -0.37,-0.01 -0.46,0.31 -0.09,0.32 -0.36,1.52 -0.54,2.27 0.00,0.00 0.71,1.16 0.97,1.75 0.25,0.59 -0.12,0.92 -0.86,1.01 -2.08,0.25 -3.73,-0.94 -4.30,-1.49 -0.57,-0.55 0.05,-1.52 0.51,-2.68 0.37,-0.93 -0.32,-1.04 -0.84,0.00 -1.76,4.63 -4.23,5.12 -4.88,5.30 -5.86,1.60 -5.36,-3.76 -5.33,-4.64 0.02,-0.88 -0.62,-0.55 -1.34,0.03 -2.47,1.98 -4.45,3.14 -5.52,3.62 -0.92,-1.80 -2.26,-2.93 -2.82,-3.34 -6.34,-4.63 -6.87,4.71 -6.67,5.71 0.96,3.97 7.44,1.56 8.46,1.44 1.02,-0.12 0.68,1.22 0.11,2.02 -1.41,1.97 -3.03,3.38 -4.50,4.57 -6.28,5.13 -9.43,4.72 -10.41,4.69 -6.17,-0.17 -5.60,-6.82 -5.26,-8.24 1.86,-1.57 3.45,-3.28 4.38,-5.04 0.38,-0.96 1.03,-3.15 -0.15,-5.91 -0.62,-1.21 -2.56,-4.60 -2.56,-4.60 0.00,0.00 1.43,0.04 1.57,0.04 0.14,0.00 0.41,-0.14 0.06,-0.54 -0.35,-0.40 -3.36,-3.41 -3.54,-3.65 -0.18,-0.24 -0.35,-0.41 -0.45,-0.06 -0.10,0.36 -0.36,1.88 -0.42,2.20 -0.06,0.31 -0.06,0.63 0.10,0.90 0.15,0.27 0.55,1.20 0.84,1.96 0.29,0.76 3.25,6.47 3.53,6.98 0.27,0.51 0.33,0.88 0.06,1.22 -9.53,10.05 -27.91,16.23 -28.50,16.57 -0.59,0.34 -0.43,0.61 0.56,0.43 1.48,-0.26 9.74,-1.64 12.09,-2.77 1.55,-0.75 6.97,-3.41 11.41,-6.89 -0.12,0.90 -0.24,2.22 -0.17,3.89 0.30,8.08 7.53,6.74 9.43,6.33 5.68,-1.25 12.64,-9.11 13.23,-10.69 0.58,-1.56 0.67,-2.98 0.54,-4.22 1.50,-0.81 4.71,-3.40 4.71,-3.40 0.13,3.45 2.87,4.48 3.72,4.63 3.96,0.60 5.94,-2.71 6.78,-3.78 0.72,1.89 2.45,2.25 3.34,2.43 3.41,0.68 4.08,-1.74 4.25,-2.29 1.07,-3.33 -0.86,-5.81 -1.11,-6.08 z M 327.00,31.57 c -2.02,-0.14 -1.85,-0.92 -1.57,-1.23 0.30,-0.33 2.78,-1.89 4.85,0.89 0.00,0.00 -0.86,0.50 -3.28,0.33 z M 297.15,14.16 c -0.06,-0.05 -0.15,-0.03 -0.20,0.04 -1.53,2.10 -1.53,2.10 -1.53,2.10 -0.05,0.07 -0.04,0.16 0.03,0.20 2.61,1.91 2.61,1.91 2.61,1.91 0.06,0.05 0.15,0.03 0.20,-0.04 1.32,-1.81 1.32,-1.81 1.32,-1.81 2.54,1.85 2.54,1.85 2.54,1.85 0.06,0.05 0.15,0.03 0.20,-0.04 1.53,-2.10 1.53,-2.10 1.53,-2.10 0.05,-0.07 0.04,-0.16 -0.03,-0.20 -2.61,-1.91 -2.61,-1.91 -2.61,-1.91 -0.06,-0.05 -0.15,-0.03 -0.20,0.04 -1.32,1.81 -1.32,1.81 -1.32,1.81 z M 296.53,23.91 c 0.00,0.00 1.25,-0.31 1.47,-0.38 0.22,-0.06 0.34,-0.35 -0.05,-0.55 -0.39,-0.20 -4.09,-1.67 -4.37,-1.79 -0.28,-0.11 -0.38,-0.24 -0.41,0.06 -0.02,0.30 -0.07,2.73 -0.07,2.73 0.00,0.00 -0.06,0.17 0.27,0.35 0.32,0.18 0.64,0.58 0.90,0.84 0.26,0.26 3.70,2.98 3.87,3.07 0.00,0.00 -1.72,3.02 -1.94,5.38 -0.22,2.36 0.04,5.63 3.27,4.58 0.87,-0.25 4.49,-1.69 5.30,-4.21 0.26,-0.93 1.01,-2.61 -0.21,-4.31 -0.70,-1.00 -3.53,-2.69 -3.53,-2.69 0.00,0.00 2.17,-3.00 2.38,-3.37 0.21,-0.37 1.00,-2.69 1.09,-3.26 0.09,-0.56 0.13,-0.84 -0.29,-0.32 -0.42,0.52 -4.63,6.05 -4.63,6.05 z M 303.49,32.79 c -1.20,0.99 -3.72,2.29 -4.43,2.36 -0.71,0.07 -2.59,-0.28 -1.77,-2.20 0.28,-0.62 2.16,-3.84 2.16,-3.84 0.70,0.39 5.24,2.70 4.04,3.69 z M 306.25,12.30 c 0.25,-0.16 13.84,-8.02 14.32,-8.31 0.46,-0.29 0.72,-0.41 0.91,-0.85 0.18,-0.44 0.23,-0.51 0.33,-0.82 0.10,-0.32 0.21,-0.67 -0.61,-0.19 -0.53,0.31 -14.04,8.11 -14.59,8.46 -0.55,0.35 -0.74,0.44 -0.83,0.87 -0.09,0.42 -0.13,0.67 -0.16,0.73 -0.10,0.28 -0.17,0.63 0.64,0.10 z M 352.43,37.21 c -0.24,0.68 -0.34,1.12 -0.32,1.38 0.03,0.26 0.12,1.10 0.12,1.10 -0.25,0.20 -1.33,0.87 -2.40,0.08 0.07,-0.23 0.21,-0.70 0.24,-0.95 0.12,-0.40 -0.13,-0.69 -0.32,-0.28 -0.20,0.41 -0.65,1.79 -0.99,2.10 -0.34,0.31 -0.74,1.45 -3.30,0.29 -0.45,-0.17 -1.23,-0.75 -2.46,0.48 -2.77,2.57 -4.68,2.77 -7.79,3.88 -0.38,0.17 -1.16,0.76 -0.23,0.67 0.94,-0.09 4.87,0.00 7.01,-2.46 0.45,-0.43 0.96,-1.58 2.66,-0.92 0.94,0.36 2.68,1.85 4.58,-1.10 1.12,0.75 2.82,0.45 3.09,-0.37 0.27,-0.82 0.58,-1.64 0.58,-2.20 0.00,-0.56 -0.05,-1.30 -0.05,-1.30 -0.04,-0.44 -0.19,-1.07 -0.44,-0.40 z" />
     </g>
</svg>
