<?xml version="1.0" encoding="UTF-8"?>
<svg version="1.1" id="Layer_1" x="0px" y="0px" width="578" height="51" viewBox="0 0 578 51"
xml:space="preserve" xmlns="http://www.w3.org/2000/svg" xmlns:svg="http://www.w3.org/2000/svg" xmlns:rdf="http://www.w3.org/1999/02/22-rdf-syntax-ns#"  xmlns:cc="http://creativecommons.org/ns#" xmlns:dc="http://purl.org/dc/elements/1.1/">
     <g>
<path d="M 249.40,8.36 c 0.17,0.09 0.36,0.11 0.41,-0.10 0.05,-0.21 0.29,-0.68 0.62,-0.34 0.28,0.28 2.09,1.78 3.03,4.95 0.16,0.42 0.55,0.46 0.64,-0.14 0.22,-1.47 0.34,-4.02 0.45,-4.79 0.16,-1.08 0.68,-3.32 2.06,-2.16 0.31,0.26 0.64,0.61 0.64,0.61 0.29,0.37 0.66,0.79 0.84,0.36 0.27,-0.64 0.49,-1.70 0.19,-2.28 -0.13,-0.25 -1.84,-2.41 -3.00,-0.93 -1.44,1.83 -1.53,4.23 -1.72,6.91 -0.20,-0.56 -1.35,-4.15 -5.02,-6.21 -0.27,-0.15 -0.81,0.13 -0.86,0.98 -0.03,0.49 -0.17,1.69 0.18,2.03 0.35,0.34 1.37,1.00 1.54,1.10 z M 234.71,22.98 c 0.16,0.09 0.34,0.10 0.39,-0.09 0.05,-0.20 0.27,-0.65 0.59,-0.32 0.27,0.27 1.99,1.69 2.88,4.71 0.15,0.40 0.53,0.44 0.61,-0.13 0.21,-1.40 0.32,-3.82 0.43,-4.56 0.16,-1.03 0.65,-3.16 1.96,-2.06 0.30,0.25 0.61,0.58 0.61,0.58 0.28,0.35 0.63,0.75 0.80,0.34 0.26,-0.61 0.46,-1.62 0.18,-2.17 -0.12,-0.24 -1.75,-2.30 -2.85,-0.89 -1.37,1.74 -1.46,4.03 -1.64,6.58 -0.19,-0.53 -1.28,-3.95 -4.78,-5.91 -0.25,-0.14 -0.77,0.13 -0.82,0.93 -0.03,0.47 -0.16,1.61 0.17,1.93 0.33,0.32 1.31,0.96 1.47,1.04 z M 275.33,21.52 c 0.53,0.00 1.21,-0.38 1.69,-2.04 0.08,-0.38 0.14,-0.68 0.17,-0.82 0.05,-0.22 -0.11,-0.49 -0.28,0.02 -0.39,1.01 -1.39,1.72 -2.14,0.36 -0.12,-0.27 -0.63,-1.50 0.30,-4.20 0.19,-0.52 0.42,-1.30 0.42,-1.30 0.21,-0.59 -0.04,-0.91 -0.34,-0.19 -0.30,0.72 -1.53,3.21 -1.34,6.13 0.04,0.68 0.49,2.00 1.51,2.03 z M 275.99,8.98 c 0.53,0.00 1.21,-0.38 1.69,-2.04 0.08,-0.37 0.14,-0.67 0.17,-0.82 0.05,-0.22 -0.11,-0.49 -0.28,0.02 -0.39,1.01 -1.39,1.72 -2.14,0.36 -0.12,-0.27 -0.63,-1.50 0.30,-4.20 0.19,-0.52 0.42,-1.30 0.42,-1.30 0.21,-0.59 -0.04,-0.91 -0.34,-0.19 -0.30,0.72 -1.53,3.21 -1.34,6.13 0.04,0.68 0.49,2.00 1.51,2.03 z M 246.62,43.28 c -0.41,-0.13 -1.03,0.01 -1.81,1.18 -0.15,0.27 -0.27,0.49 -0.33,0.60 -0.09,0.16 -0.03,0.41 0.23,0.05 0.54,-0.70 1.50,-1.01 1.75,0.23 0.03,0.24 0.13,1.32 -1.24,3.20 -0.27,0.36 -0.64,0.91 -0.64,0.91 -0.30,0.41 -0.19,0.72 0.22,0.23 0.40,-0.49 1.96,-2.13 2.52,-4.46 0.13,-0.54 0.10,-1.67 -0.69,-1.95 z M 236.05,15.31 c 0.64,-0.04 1.44,-0.58 1.91,-2.76 0.07,-0.49 0.12,-0.88 0.15,-1.07 0.05,-0.29 -0.17,-0.63 -0.35,0.05 -0.40,1.34 -1.56,2.33 -2.58,0.62 -0.17,-0.34 -0.88,-1.90 0.06,-5.45 0.19,-0.69 0.42,-1.72 0.42,-1.72 0.21,-0.78 -0.12,-1.18 -0.43,-0.22 -0.31,0.95 -1.63,4.25 -1.18,8.03 0.10,0.87 0.75,2.55 1.99,2.52 z M 256.31,28.12 c -0.17,-0.34 -0.88,-1.90 0.06,-5.45 0.19,-0.69 0.42,-1.71 0.42,-1.71 0.21,-0.78 -0.12,-1.18 -0.43,-0.22 -0.31,0.95 -1.63,4.25 -1.18,8.03 0.10,0.87 0.75,2.55 1.99,2.52 0.64,-0.04 1.44,-0.58 1.91,-2.76 0.07,-0.49 0.12,-0.88 0.15,-1.07 0.05,-0.29 -0.17,-0.63 -0.35,0.05 -0.40,1.34 -1.56,2.33 -2.58,0.62 z M 283.03,34.67 c 0.16,-1.60 -1.11,-3.53 -3.94,-4.31 -1.89,-0.45 -5.95,-0.74 -9.56,2.96 -1.25,1.28 -2.66,2.71 -3.96,4.03 0.17,-0.27 0.30,-0.59 0.37,-0.94 0.27,-1.36 1.31,-4.93 0.68,-10.34 -0.12,-1.25 -1.80,-18.60 -1.80,-18.60 0.30,0.29 1.51,1.42 1.73,1.65 0.25,0.26 0.55,0.12 0.41,-0.30 -0.14,-0.42 -3.31,-8.09 -3.42,-8.36 -0.10,-0.27 -0.20,-0.46 -0.33,-0.15 -0.13,0.31 -1.07,2.75 -1.07,2.75 0.05,0.34 0.41,0.90 0.59,2.74 0.09,0.95 1.80,20.03 2.02,22.03 0.22,1.99 0.65,7.42 -0.38,10.73 -1.90,1.92 -3.35,3.38 -3.35,3.38 -1.40,-0.12 -9.71,-0.25 -12.76,-7.06 -0.66,-1.01 -0.88,-2.32 -3.44,-0.96 -2.56,1.36 -4.67,2.99 -6.41,7.26 -0.46,1.17 -1.83,6.41 -5.59,4.89 -1.39,-0.66 -5.14,-3.49 -3.90,-10.94 0.13,0.04 0.26,0.07 0.40,0.07 0.72,-0.04 1.61,-0.78 2.11,-3.78 0.08,-0.68 0.12,-1.22 0.15,-1.48 0.05,-0.40 -0.20,-0.87 -0.39,0.06 -0.43,1.84 -1.72,3.19 -2.89,0.82 -0.19,-0.47 -1.01,-2.64 -0.01,-7.53 0.20,-0.95 0.45,-2.36 0.45,-2.36 0.23,-1.07 -0.15,-1.62 -0.48,-0.31 -0.33,1.31 -1.77,5.85 -1.21,11.07 0.09,0.86 0.50,2.27 1.22,3.01 0.00,0.00 0.00,0.01 0.00,0.01 -0.20,0.92 -1.98,9.77 3.96,14.26 0.83,0.43 3.70,2.01 5.45,-2.48 0.63,-1.42 2.74,-8.18 7.36,-9.50 0.79,-0.30 1.25,-0.40 1.62,0.10 0.36,0.50 0.91,1.39 0.91,1.39 0.66,1.19 4.23,9.60 21.51,5.66 3.78,-0.98 7.88,-2.54 11.41,-4.64 1.23,-0.74 2.38,-3.24 2.55,-4.84 z M 263.18,41.96 c 0.00,0.00 5.16,-6.65 10.30,-8.21 4.42,-1.23 6.42,1.21 6.95,1.77 0.53,0.56 0.51,0.63 0.07,0.98 -7.33,4.40 -16.26,5.42 -17.33,5.47 z M 315.88,21.12 c 0.48,0.00 1.11,-0.35 1.55,-1.88 0.08,-0.34 0.13,-0.62 0.16,-0.75 0.05,-0.21 -0.10,-0.45 -0.26,0.02 -0.35,0.93 -1.27,1.58 -1.96,0.33 -0.11,-0.25 -0.58,-1.38 0.28,-3.86 0.17,-0.48 0.39,-1.20 0.39,-1.20 0.19,-0.54 -0.04,-0.84 -0.31,-0.17 -0.27,0.66 -1.40,2.95 -1.23,5.64 0.04,0.62 0.45,1.83 1.39,1.87 z M 321.39,7.87 c 0.17,0.09 0.36,0.11 0.41,-0.10 0.05,-0.21 0.29,-0.68 0.62,-0.34 0.28,0.28 2.09,1.78 3.03,4.95 0.16,0.42 0.55,0.46 0.64,-0.14 0.22,-1.47 0.34,-4.02 0.45,-4.79 0.16,-1.09 0.68,-3.32 2.06,-2.16 0.31,0.26 0.64,0.61 0.64,0.61 0.29,0.37 0.66,0.79 0.84,0.36 0.27,-0.64 0.49,-1.70 0.19,-2.28 -0.13,-0.26 -1.84,-2.41 -3.00,-0.93 -1.44,1.83 -1.53,4.23 -1.72,6.91 -0.20,-0.56 -1.35,-4.16 -5.02,-6.21 -0.27,-0.15 -0.81,0.13 -0.86,0.98 -0.03,0.49 -0.17,1.69 0.18,2.03 0.35,0.34 1.37,1.01 1.54,1.10 z M 341.99,15.14 c 0.18,-0.50 -0.04,-0.77 -0.29,-0.16 -0.25,0.61 -1.30,2.73 -1.14,5.22 0.04,0.58 0.42,1.70 1.29,1.73 0.45,0.00 1.03,-0.33 1.44,-1.74 0.07,-0.32 0.12,-0.57 0.15,-0.70 0.04,-0.19 -0.10,-0.42 -0.24,0.02 -0.33,0.86 -1.18,1.47 -1.82,0.31 -0.10,-0.23 -0.53,-1.28 0.26,-3.57 0.16,-0.45 0.36,-1.11 0.36,-1.11 z M 339.23,7.21 c 0.79,0.58 1.93,1.04 1.93,1.04 -3.66,4.48 -10.84,7.67 -12.55,9.01 -0.51,0.39 -0.44,0.61 -0.12,0.53 0.29,-0.08 5.76,-1.61 10.76,-5.90 2.29,-1.97 2.23,-2.11 2.82,-3.31 0.50,0.26 0.84,0.67 1.03,0.91 0.28,0.34 0.43,0.60 0.56,0.23 0.48,-1.33 -0.20,-2.13 -0.84,-2.54 0.00,0.00 0.67,-2.07 -0.56,-4.14 -0.21,-0.35 -1.43,-1.46 -2.85,0.74 -0.55,0.84 -0.96,2.85 -0.17,3.42 z M 339.96,5.18 c 0.73,-1.02 1.08,-0.98 1.36,-0.82 0.83,0.77 0.70,2.03 0.67,2.31 0.00,0.00 -1.05,-0.49 -1.52,-0.70 -0.47,-0.20 -0.72,-0.50 -0.50,-0.80 z M 289.09,15.00 c -0.06,-0.05 -0.15,-0.03 -0.20,0.04 -1.53,2.10 -1.53,2.10 -1.53,2.10 -0.05,0.07 -0.04,0.16 0.03,0.21 2.61,1.91 2.61,1.91 2.61,1.91 0.06,0.05 0.15,0.03 0.20,-0.04 1.32,-1.81 1.32,-1.81 1.32,-1.81 2.54,1.85 2.54,1.85 2.54,1.85 0.06,0.05 0.15,0.03 0.20,-0.04 1.53,-2.10 1.53,-2.10 1.53,-2.10 0.05,-0.07 0.04,-0.16 -0.03,-0.20 -2.61,-1.91 -2.61,-1.91 -2.61,-1.91 -0.06,-0.05 -0.15,-0.03 -0.20,0.04 -1.32,1.81 -1.32,1.81 -1.32,1.81 z M 347.57,25.73 c -0.25,-0.28 -0.37,-0.01 -0.46,0.31 -0.09,0.32 -0.36,1.52 -0.53,2.27 0.00,0.00 0.71,1.16 0.97,1.75 0.25,0.59 -0.12,0.92 -0.86,1.01 -2.08,0.25 -3.73,-0.94 -4.30,-1.48 -0.57,-0.55 0.05,-1.52 0.51,-2.68 0.37,-0.93 -0.32,-1.04 -0.84,0.00 -1.76,4.63 -4.23,5.12 -4.88,5.30 -5.86,1.60 -5.36,-3.76 -5.34,-4.64 0.02,-0.88 -0.62,-0.55 -1.34,0.03 -2.47,1.98 -4.45,3.14 -5.52,3.62 -0.92,-1.80 -2.26,-2.93 -2.82,-3.34 -6.34,-4.63 -6.86,4.71 -6.67,5.71 0.97,3.97 7.44,1.56 8.46,1.44 1.01,-0.12 0.68,1.22 0.11,2.02 -1.41,1.97 -3.03,3.38 -4.50,4.58 -6.28,5.13 -9.43,4.72 -10.41,4.69 -6.17,-0.17 -5.60,-6.82 -5.26,-8.24 1.86,-1.57 3.45,-3.28 4.38,-5.04 0.38,-0.96 1.03,-3.16 -0.15,-5.91 -0.62,-1.21 -2.56,-4.60 -2.56,-4.60 0.00,0.00 1.43,0.04 1.57,0.04 0.14,0.00 0.41,-0.14 0.06,-0.55 -0.35,-0.40 -3.36,-3.40 -3.54,-3.65 -0.18,-0.24 -0.35,-0.41 -0.45,-0.06 -0.10,0.36 -0.36,1.88 -0.42,2.20 -0.06,0.31 -0.06,0.63 0.10,0.90 0.15,0.27 0.55,1.20 0.84,1.96 0.29,0.76 3.26,6.47 3.53,6.98 0.27,0.51 0.33,0.88 0.06,1.22 -9.53,10.05 -27.91,16.23 -28.50,16.57 -0.59,0.34 -0.43,0.61 0.56,0.43 1.48,-0.26 9.74,-1.64 12.09,-2.77 1.55,-0.75 6.98,-3.41 11.41,-6.89 -0.12,0.90 -0.24,2.22 -0.18,3.89 0.30,8.08 7.53,6.74 9.43,6.33 5.68,-1.25 12.64,-9.11 13.23,-10.69 0.58,-1.56 0.67,-2.98 0.54,-4.22 1.50,-0.81 4.71,-3.40 4.71,-3.40 0.13,3.45 2.88,4.48 3.72,4.63 3.96,0.60 5.94,-2.71 6.78,-3.78 0.72,1.89 2.45,2.25 3.34,2.43 3.41,0.68 4.08,-1.74 4.26,-2.29 1.07,-3.33 -0.86,-5.81 -1.11,-6.08 z M 318.94,32.41 c -2.03,-0.14 -1.85,-0.92 -1.57,-1.23 0.30,-0.33 2.78,-1.89 4.85,0.89 0.00,0.00 -0.86,0.50 -3.28,0.34 z M 344.37,38.05 c -0.24,0.68 -0.34,1.12 -0.31,1.38 0.03,0.26 0.11,1.10 0.11,1.10 -0.25,0.20 -1.33,0.87 -2.40,0.08 0.07,-0.23 0.21,-0.70 0.24,-0.95 0.12,-0.40 -0.13,-0.69 -0.32,-0.28 -0.20,0.41 -0.65,1.79 -0.99,2.10 -0.34,0.31 -0.73,1.45 -3.30,0.29 -0.45,-0.17 -1.23,-0.75 -2.46,0.48 -2.77,2.57 -4.68,2.78 -7.79,3.88 -0.38,0.17 -1.16,0.77 -0.23,0.67 0.94,-0.09 4.87,0.00 7.01,-2.46 0.45,-0.43 0.96,-1.58 2.66,-0.92 0.94,0.36 2.68,1.85 4.58,-1.10 1.12,0.75 2.82,0.45 3.09,-0.38 0.27,-0.82 0.58,-1.64 0.58,-2.20 0.00,-0.56 -0.05,-1.30 -0.05,-1.30 -0.04,-0.44 -0.19,-1.07 -0.44,-0.40 z M 298.19,13.14 c 0.25,-0.16 13.84,-8.02 14.32,-8.31 0.46,-0.29 0.72,-0.41 0.91,-0.85 0.18,-0.44 0.23,-0.51 0.33,-0.82 0.10,-0.32 0.21,-0.67 -0.61,-0.19 -0.53,0.31 -14.04,8.11 -14.59,8.46 -0.55,0.35 -0.74,0.44 -0.83,0.86 -0.09,0.42 -0.13,0.67 -0.16,0.73 -0.10,0.28 -0.17,0.63 0.64,0.10 z M 288.46,24.75 c 0.00,0.00 1.25,-0.31 1.47,-0.38 0.22,-0.06 0.34,-0.35 -0.05,-0.55 -0.39,-0.20 -4.09,-1.67 -4.37,-1.79 -0.28,-0.11 -0.38,-0.24 -0.41,0.06 -0.02,0.30 -0.07,2.73 -0.07,2.73 0.00,0.00 -0.06,0.17 0.27,0.35 0.32,0.18 0.64,0.58 0.90,0.84 0.26,0.26 3.70,2.98 3.87,3.07 0.00,0.00 -1.72,3.02 -1.94,5.38 -0.22,2.36 0.04,5.63 3.27,4.57 0.87,-0.25 4.49,-1.69 5.30,-4.21 0.26,-0.93 1.01,-2.61 -0.21,-4.31 -0.70,-1.00 -3.53,-2.69 -3.53,-2.69 0.00,0.00 2.17,-3.00 2.38,-3.37 0.21,-0.37 1.00,-2.69 1.09,-3.26 0.09,-0.56 0.13,-0.84 -0.29,-0.32 -0.42,0.52 -4.63,6.05 -4.63,6.05 z M 295.42,33.63 c -1.20,0.99 -3.72,2.29 -4.43,2.36 -0.71,0.07 -2.59,-0.28 -1.77,-2.20 0.28,-0.62 2.16,-3.84 2.16,-3.84 0.70,0.39 5.24,2.70 4.04,3.69 z M 281.51,14.62 c 0.17,-0.04 3.05,-0.49 6.41,-3.05 1.82,-1.38 2.92,-3.74 2.92,-3.74 0.00,0.00 0.91,0.76 1.03,0.91 0.28,0.34 0.43,0.60 0.56,0.23 0.48,-1.33 -0.20,-2.13 -0.84,-2.54 0.00,0.00 0.67,-2.07 -0.56,-4.14 -0.21,-0.35 -1.43,-1.46 -2.85,0.74 -0.55,0.84 -0.96,2.85 -0.17,3.42 0.79,0.58 1.93,1.04 1.93,1.04 -3.66,4.48 -6.16,5.34 -8.30,6.59 -0.55,0.32 -0.44,0.61 -0.12,0.53 z M 289.22,5.23 c -0.47,-0.20 -0.72,-0.50 -0.50,-0.80 0.73,-1.02 1.08,-0.98 1.36,-0.82 0.82,0.77 0.70,2.03 0.67,2.31 0.00,0.00 -1.05,-0.49 -1.52,-0.70 z" />
     </g>
</svg>
