<?xml version="1.0" encoding="UTF-8"?>
<svg version="1.1" id="Layer_1" x="0px" y="0px" width="578" height="54" viewBox="0 0 578 54"
xml:space="preserve" xmlns="http://www.w3.org/2000/svg" xmlns:svg="http://www.w3.org/2000/svg" xmlns:rdf="http://www.w3.org/1999/02/22-rdf-syntax-ns#"  xmlns:cc="http://creativecommons.org/ns#" xmlns:dc="http://purl.org/dc/elements/1.1/">
     <g>
<path d="M 258.31,46.46 c -1.92,2.63 -1.92,2.63 -1.92,2.63 -0.06,0.08 -0.05,0.20 0.03,0.25 3.27,2.38 3.27,2.38 3.27,2.38 0.08,0.06 0.19,0.04 0.25,-0.05 1.91,-2.63 1.91,-2.63 1.91,-2.63 0.06,-0.08 0.05,-0.20 -0.03,-0.25 -3.27,-2.38 -3.27,-2.38 -3.27,-2.38 -0.08,-0.06 -0.19,-0.04 -0.25,0.05 z M 265.37,26.37 c -1.92,2.63 -1.92,2.63 -1.92,2.63 -0.06,0.08 -0.05,0.20 0.03,0.25 3.27,2.38 3.27,2.38 3.27,2.38 0.08,0.06 0.19,0.04 0.25,-0.05 1.91,-2.63 1.91,-2.63 1.91,-2.63 0.06,-0.08 0.05,-0.20 -0.03,-0.25 -3.27,-2.38 -3.27,-2.38 -3.27,-2.38 -0.08,-0.06 -0.19,-0.04 -0.25,0.05 z M 220.96,38.04 c 0.29,-0.47 0.85,-1.56 -0.10,-1.02 -0.95,0.54 -3.50,1.30 -4.64,1.08 -1.13,-0.22 -2.48,-1.20 -2.77,-1.66 -0.29,-0.47 -0.25,-0.99 0.65,-1.51 0.90,-0.52 1.88,-0.87 2.57,0.27 0.13,0.19 0.28,0.19 0.57,-0.11 0.29,-0.29 0.87,-1.10 1.03,-1.34 0.16,-0.23 0.28,-0.62 0.04,-0.90 -0.24,-0.28 -1.23,-1.65 -2.83,-0.41 -1.60,1.24 -5.29,4.82 -3.63,6.49 0.96,0.78 1.40,1.16 1.40,1.16 -0.45,0.17 -0.83,0.60 -1.11,1.15 -0.27,0.55 -0.31,0.67 -0.45,0.98 -0.14,0.31 -0.22,0.73 0.54,0.30 0.76,-0.43 2.57,-2.15 7.46,-3.23 0.68,-0.14 1.27,-1.26 1.27,-1.26 z M 295.50,31.43 c -0.10,-0.92 -2.29,-17.97 -2.29,-17.97 0.00,0.00 1.51,1.50 1.75,1.77 0.24,0.27 0.55,0.14 0.42,-0.29 -0.13,-0.43 -3.08,-8.19 -3.17,-8.46 -0.09,-0.27 -0.19,-0.47 -0.33,-0.16 -0.14,0.30 -0.95,2.36 -0.95,2.36 0.16,1.35 1.63,14.13 1.72,15.12 0.09,0.99 2.75,17.91 1.68,24.64 -0.05,0.46 0.15,0.64 0.37,0.20 0.22,-0.44 2.87,-4.88 0.80,-17.22 z M 285.45,13.48 c 0.00,0.00 1.51,1.46 1.75,1.72 0.24,0.26 0.55,0.13 0.42,-0.28 -0.13,-0.42 -3.09,-7.95 -3.18,-8.21 -0.09,-0.26 -0.19,-0.45 -0.33,-0.16 -0.14,0.29 -1.31,2.74 -1.31,2.74 0.10,0.78 1.71,11.57 2.66,20.20 0.15,1.35 1.44,8.66 1.13,10.25 -0.07,0.36 -0.30,0.95 -0.77,1.68 0.15,-1.30 0.08,-3.35 -1.15,-6.06 -1.80,-3.98 -12.36,-11.90 -15.96,-17.24 -0.04,-0.06 0.16,-0.01 0.16,-0.01 0.00,0.00 1.35,0.34 1.59,0.39 0.36,0.09 0.90,0.08 0.54,-0.26 -0.36,-0.34 -5.32,-3.71 -5.82,-4.10 -0.51,-0.39 -0.71,-0.68 -0.72,-0.28 -0.01,0.40 0.02,2.67 0.03,2.91 0.01,0.24 -0.02,0.44 0.32,0.61 0.52,0.27 1.41,1.53 2.36,2.71 5.24,6.13 9.38,9.75 10.18,10.44 0.81,0.70 7.67,6.03 7.79,11.16 0.01,0.29 -0.03,0.54 -0.08,0.78 -2.01,2.49 -6.32,6.06 -14.84,9.20 -1.14,0.54 -0.68,0.90 0.11,0.79 0.79,-0.11 11.28,-1.12 15.80,-8.13 1.53,-2.65 2.34,-5.46 1.65,-11.18 -0.21,-1.80 -2.32,-19.69 -2.32,-19.69 z M 227.51,25.87 c 0.33,-0.20 27.98,-12.81 28.56,-13.18 0.58,-0.37 0.93,-0.50 1.18,-1.06 0.25,-0.55 0.31,-0.65 0.44,-1.04 0.14,-0.41 0.29,-0.85 -0.78,-0.25 -0.68,0.38 -28.21,12.92 -28.91,13.36 -0.71,0.43 -0.96,0.55 -1.08,1.08 -0.12,0.54 -0.19,0.85 -0.22,0.93 -0.13,0.36 -0.23,0.80 0.81,0.15 z M 223.17,42.37 c 0.08,-0.33 0.15,-0.68 -0.63,-0.13 -0.50,0.36 -8.91,3.60 -9.42,4.00 -0.51,0.40 -0.70,0.51 -0.75,0.94 -0.05,0.43 -0.07,0.67 -0.09,0.74 -0.07,0.29 -0.11,0.64 0.64,0.05 0.24,-0.19 8.74,-3.49 9.16,-3.83 0.42,-0.34 0.68,-0.47 0.83,-0.92 0.14,-0.45 0.18,-0.53 0.25,-0.85 z M 260.17,6.07 c 0.31,-0.14 10.23,-3.48 10.78,-3.73 0.55,-0.25 0.87,-0.32 1.16,-0.78 0.28,-0.45 0.35,-0.53 0.51,-0.85 0.17,-0.34 0.35,-0.71 -0.65,-0.32 -0.64,0.25 -10.44,3.55 -11.11,3.84 -0.67,0.29 -0.90,0.36 -1.08,0.81 -0.17,0.45 -0.26,0.72 -0.30,0.79 -0.16,0.30 -0.30,0.67 0.69,0.23 z M 256.87,22.51 c 0.04,0.60 0.45,1.78 1.36,1.81 0.47,0.00 1.08,-0.35 1.50,-1.83 0.07,-0.33 0.12,-0.60 0.15,-0.73 0.05,-0.20 -0.10,-0.44 -0.25,0.02 -0.34,0.91 -1.23,1.54 -1.91,0.33 -0.11,-0.24 -0.56,-1.34 0.26,-3.75 0.16,-0.47 0.37,-1.16 0.37,-1.16 0.19,-0.53 -0.04,-0.81 -0.30,-0.17 -0.26,0.64 -1.35,2.86 -1.18,5.48 z M 225.79,46.90 c -0.43,-0.18 -1.12,-0.13 -2.05,0.97 -0.19,0.26 -0.33,0.47 -0.41,0.57 -0.11,0.15 -0.07,0.41 0.24,0.08 0.65,-0.64 1.70,-0.83 1.87,0.47 0.01,0.25 0.03,1.36 -1.60,3.09 -0.32,0.33 -0.77,0.84 -0.77,0.84 -0.36,0.38 -0.26,0.71 0.22,0.26 0.48,-0.45 2.29,-1.91 3.08,-4.21 0.18,-0.53 0.24,-1.69 -0.58,-2.07 z M 213.50,25.41 c -0.11,-0.24 -0.56,-1.34 0.25,-3.74 0.16,-0.47 0.37,-1.16 0.37,-1.16 0.18,-0.53 -0.04,-0.81 -0.30,-0.17 -0.26,0.64 -1.35,2.86 -1.17,5.47 0.04,0.60 0.45,1.78 1.35,1.80 0.47,0.00 1.08,-0.35 1.50,-1.82 0.07,-0.33 0.12,-0.60 0.15,-0.73 0.05,-0.20 -0.10,-0.44 -0.25,0.02 -0.34,0.91 -1.23,1.54 -1.90,0.33 z M 213.21,16.65 c 0.47,0.00 1.08,-0.35 1.50,-1.82 0.07,-0.33 0.12,-0.60 0.15,-0.73 0.05,-0.20 -0.10,-0.44 -0.25,0.02 -0.34,0.91 -1.23,1.54 -1.90,0.33 -0.11,-0.24 -0.56,-1.34 0.25,-3.74 0.16,-0.47 0.37,-1.16 0.37,-1.16 0.18,-0.53 -0.04,-0.81 -0.30,-0.17 -0.26,0.64 -1.35,2.86 -1.17,5.47 0.04,0.60 0.45,1.78 1.35,1.80 z M 277.50,35.24 c 0.20,-0.55 -0.04,-0.85 -0.33,-0.17 -0.29,0.67 -1.48,2.99 -1.29,5.71 0.05,0.63 0.49,1.85 1.49,1.88 0.52,0.00 1.18,-0.36 1.65,-1.90 0.08,-0.35 0.13,-0.63 0.16,-0.77 0.05,-0.21 -0.11,-0.45 -0.28,0.02 -0.37,0.94 -1.35,1.61 -2.09,0.35 -0.12,-0.25 -0.62,-1.40 0.28,-3.91 0.18,-0.49 0.41,-1.21 0.41,-1.21 z M 249.91,10.54 c 0.45,-0.04 1.01,-0.41 1.32,-1.86 0.05,-0.33 0.07,-0.59 0.09,-0.71 0.03,-0.20 -0.13,-0.41 -0.24,0.04 -0.27,0.90 -1.08,1.57 -1.81,0.45 -0.12,-0.22 -0.64,-1.25 -0.01,-3.62 0.13,-0.46 0.28,-1.14 0.28,-1.14 0.14,-0.52 -0.09,-0.78 -0.30,-0.14 -0.21,0.64 -1.10,2.85 -0.75,5.35 0.08,0.58 0.55,1.68 1.43,1.65 z M 277.10,17.27 c 0.45,-0.04 1.01,-0.41 1.32,-1.86 0.05,-0.33 0.07,-0.59 0.09,-0.72 0.03,-0.20 -0.13,-0.41 -0.24,0.04 -0.26,0.90 -1.08,1.57 -1.81,0.45 -0.12,-0.22 -0.64,-1.25 -0.01,-3.62 0.13,-0.46 0.28,-1.14 0.28,-1.14 0.14,-0.52 -0.09,-0.78 -0.30,-0.14 -0.21,0.64 -1.11,2.85 -0.75,5.35 0.08,0.58 0.55,1.68 1.43,1.65 z M 247.00,22.86 c 0.19,-0.84 -0.12,-1.28 -0.40,-0.24 -0.27,1.03 -1.45,4.61 -0.99,8.72 0.11,0.95 0.73,2.78 1.88,2.75 0.59,-0.04 1.33,-0.62 1.73,-2.99 0.06,-0.53 0.10,-0.96 0.12,-1.17 0.04,-0.32 -0.17,-0.68 -0.32,0.05 -0.35,1.45 -1.42,2.52 -2.38,0.66 -0.16,-0.37 -0.84,-2.07 -0.02,-5.93 0.17,-0.75 0.37,-1.86 0.37,-1.86 z M 270.09,9.79 c 0.08,-0.34 -0.28,-0.32 -0.83,-0.22 -0.56,0.10 -2.57,0.59 -3.59,-0.36 -0.87,-0.82 -0.97,-1.14 -0.64,-1.32 0.33,-0.18 1.27,-0.74 1.82,0.03 0.29,0.41 0.55,0.43 0.70,0.17 0.14,-0.25 0.63,-0.92 0.51,-1.21 -0.12,-0.29 -0.67,-1.27 -2.04,-0.69 -1.37,0.58 -2.78,2.61 -2.32,3.44 0.39,0.70 1.24,1.36 1.24,1.36 -0.44,0.22 -0.91,0.33 -1.06,0.76 -0.15,0.44 -0.20,0.70 -0.21,0.86 -0.02,0.16 -0.05,0.28 0.21,0.22 0.26,-0.06 0.38,-0.10 0.38,-0.10 0.75,-0.29 3.63,-1.63 5.55,-1.99 0.06,-0.01 0.21,-0.63 0.29,-0.96 z M 245.66,47.73 c -0.06,-0.05 -0.15,-0.03 -0.20,0.04 -1.32,1.82 -1.32,1.82 -1.32,1.82 -2.54,-1.84 -2.54,-1.84 -2.54,-1.84 -0.06,-0.05 -0.15,-0.03 -0.20,0.04 -1.52,2.11 -1.52,2.11 -1.52,2.11 -0.05,0.07 -0.04,0.16 0.03,0.20 2.62,1.90 2.62,1.90 2.62,1.90 0.06,0.05 0.15,0.03 0.20,-0.04 1.32,-1.82 1.32,-1.82 1.32,-1.82 2.54,1.84 2.54,1.84 2.54,1.84 0.06,0.05 0.15,0.03 0.20,-0.04 1.52,-2.11 1.52,-2.11 1.52,-2.11 0.05,-0.07 0.04,-0.16 -0.03,-0.20 z M 230.32,30.60 c -0.25,-0.12 -0.71,0.18 -0.69,0.97 0.01,0.47 -0.04,1.60 0.29,1.90 0.33,0.30 1.28,0.86 1.44,0.93 0.16,0.08 0.32,0.08 0.36,-0.12 0.03,-0.20 0.21,-0.66 0.52,-0.36 0.27,0.25 1.97,1.54 3.02,4.46 0.17,0.38 0.52,0.40 0.56,-0.17 0.09,-1.39 0.03,-3.79 0.08,-4.53 0.07,-1.03 0.38,-3.17 1.68,-2.16 0.29,0.23 0.61,0.54 0.61,0.54 0.28,0.33 0.64,0.70 0.77,0.29 0.20,-0.62 0.32,-1.63 0.02,-2.15 -0.13,-0.23 -1.79,-2.15 -2.72,-0.69 -1.15,1.81 -1.07,4.07 -1.06,6.60 -0.22,-0.51 -1.48,-3.82 -4.87,-5.52 z M 229.86,11.83 c 0.16,0.08 0.32,0.08 0.36,-0.12 0.03,-0.20 0.21,-0.66 0.52,-0.36 0.27,0.25 1.97,1.54 3.02,4.46 0.17,0.38 0.52,0.40 0.56,-0.17 0.09,-1.39 0.03,-3.79 0.08,-4.53 0.07,-1.03 0.38,-3.17 1.68,-2.16 0.29,0.23 0.61,0.54 0.61,0.54 0.28,0.33 0.64,0.70 0.77,0.29 0.20,-0.62 0.32,-1.63 0.02,-2.15 -0.13,-0.23 -1.79,-2.15 -2.72,-0.69 -1.15,1.81 -1.07,4.07 -1.06,6.60 -0.22,-0.51 -1.48,-3.82 -4.87,-5.52 -0.25,-0.12 -0.71,0.18 -0.69,0.97 0.01,0.47 -0.04,1.60 0.29,1.90 0.33,0.30 1.28,0.86 1.44,0.94 z M 270.54,39.26 c -0.24,-0.86 -0.83,-2.55 -1.96,-3.92 -0.44,-0.54 -0.59,-0.30 -0.70,0.04 -0.11,0.35 -0.70,2.09 -0.44,2.37 0.26,0.28 1.62,2.07 1.72,2.59 0.07,0.36 0.04,1.00 -0.67,1.28 -0.72,0.28 -5.38,2.05 -8.12,-0.52 -0.35,-0.28 -1.28,-1.39 -1.81,-3.70 -0.26,-1.13 -1.33,-6.68 -2.42,-8.14 -0.20,-0.28 -0.96,2.33 -0.96,2.33 0.30,1.09 2.00,7.25 2.07,9.27 0.02,0.26 0.00,0.45 -0.48,0.77 -0.48,0.32 -4.54,3.53 -5.86,-0.98 0.07,-0.23 0.29,-1.33 0.33,-1.65 0.04,-0.32 0.02,-0.79 -0.49,-0.57 -0.51,0.22 -9.79,6.38 -17.64,5.28 -1.35,-0.19 -7.79,-0.76 -8.75,-9.08 -0.26,-1.62 -1.19,-13.79 -1.45,-15.87 -0.26,-2.08 -0.83,-8.31 -1.79,-10.69 -0.20,-0.45 -0.36,-0.23 -0.48,0.02 -0.12,0.25 -0.81,2.25 -0.81,2.25 0.35,1.26 1.59,7.34 2.06,13.77 0.17,2.11 0.89,10.69 1.06,12.05 0.17,1.35 0.20,10.97 12.05,10.59 1.62,-0.05 9.21,-1.19 14.72,-4.95 0.14,0.62 0.54,4.81 4.90,3.98 2.86,-0.69 3.53,-3.55 3.53,-3.55 0.39,0.50 1.92,2.94 4.57,3.11 2.66,0.17 5.65,-0.09 6.90,-1.69 0.33,-0.42 1.44,-2.56 0.92,-4.41 z M 363.68,28.75 c -0.25,-0.28 -0.37,-0.01 -0.46,0.31 -0.09,0.32 -0.36,1.52 -0.53,2.27 0.00,0.00 0.71,1.16 0.97,1.75 0.25,0.59 -0.12,0.92 -0.86,1.01 -2.08,0.25 -3.73,-0.94 -4.30,-1.48 -0.57,-0.55 0.05,-1.52 0.51,-2.68 0.37,-0.93 -0.32,-1.04 -0.84,0.00 -1.76,4.63 -4.23,5.12 -4.88,5.30 -5.86,1.60 -5.36,-3.76 -5.34,-4.64 0.02,-0.88 -0.62,-0.55 -1.34,0.03 -2.47,1.98 -4.45,3.14 -5.52,3.62 -0.92,-1.80 -2.26,-2.93 -2.82,-3.34 -6.34,-4.62 -6.87,4.71 -6.67,5.71 0.97,3.97 7.45,1.56 8.46,1.44 1.02,-0.12 0.68,1.22 0.11,2.02 -1.41,1.97 -3.03,3.38 -4.50,4.58 -6.28,5.13 -9.44,4.72 -10.41,4.69 -6.17,-0.17 -5.60,-6.82 -5.26,-8.24 1.86,-1.57 3.45,-3.28 4.38,-5.04 0.38,-0.97 1.03,-3.16 -0.15,-5.91 -0.62,-1.21 -2.56,-4.60 -2.56,-4.60 0.00,0.00 1.43,0.04 1.57,0.04 0.14,0.00 0.41,-0.14 0.06,-0.55 -0.35,-0.40 -3.36,-3.40 -3.54,-3.65 -0.18,-0.24 -0.35,-0.42 -0.45,-0.06 -0.10,0.36 -0.36,1.88 -0.42,2.20 -0.06,0.31 -0.06,0.63 0.10,0.90 0.15,0.27 0.55,1.20 0.84,1.96 0.29,0.76 3.26,6.47 3.53,6.98 0.27,0.51 0.33,0.88 0.06,1.22 -9.53,10.05 -27.91,16.23 -28.50,16.58 -0.59,0.34 -0.43,0.61 0.56,0.43 1.48,-0.26 9.74,-1.64 12.09,-2.77 1.55,-0.75 6.97,-3.41 11.41,-6.89 -0.12,0.90 -0.24,2.22 -0.18,3.89 0.30,8.08 7.53,6.74 9.43,6.33 5.68,-1.25 12.64,-9.11 13.23,-10.68 0.58,-1.56 0.67,-2.98 0.54,-4.22 1.50,-0.81 4.71,-3.40 4.71,-3.40 0.13,3.45 2.88,4.48 3.72,4.63 3.96,0.60 5.94,-2.71 6.78,-3.78 0.72,1.89 2.45,2.26 3.34,2.43 3.41,0.68 4.08,-1.74 4.26,-2.29 1.07,-3.33 -0.86,-5.81 -1.11,-6.08 z M 335.05,35.43 c -2.02,-0.14 -1.85,-0.92 -1.57,-1.22 0.30,-0.33 2.78,-1.89 4.85,0.89 0.00,0.00 -0.86,0.50 -3.28,0.33 z M 331.99,24.13 c 0.48,0.00 1.11,-0.35 1.55,-1.87 0.08,-0.34 0.13,-0.62 0.16,-0.75 0.05,-0.21 -0.10,-0.45 -0.26,0.02 -0.35,0.93 -1.27,1.58 -1.96,0.33 -0.11,-0.25 -0.58,-1.38 0.28,-3.86 0.17,-0.48 0.39,-1.20 0.39,-1.20 0.19,-0.54 -0.04,-0.84 -0.31,-0.17 -0.27,0.66 -1.40,2.95 -1.23,5.64 0.04,0.62 0.45,1.83 1.39,1.86 z M 358.10,18.16 c 0.18,-0.50 -0.04,-0.77 -0.29,-0.16 -0.25,0.61 -1.30,2.73 -1.14,5.22 0.04,0.58 0.42,1.70 1.29,1.73 0.45,0.00 1.03,-0.33 1.44,-1.74 0.07,-0.32 0.12,-0.57 0.15,-0.70 0.04,-0.19 -0.10,-0.42 -0.24,0.02 -0.33,0.86 -1.18,1.47 -1.82,0.31 -0.10,-0.23 -0.53,-1.28 0.26,-3.57 0.16,-0.44 0.36,-1.11 0.36,-1.11 z M 355.35,10.23 c 0.79,0.58 1.93,1.04 1.93,1.04 -3.66,4.49 -10.84,7.67 -12.55,9.01 -0.51,0.39 -0.44,0.61 -0.12,0.53 0.29,-0.08 5.76,-1.61 10.76,-5.90 2.29,-1.97 2.23,-2.11 2.82,-3.31 0.50,0.26 0.84,0.67 1.03,0.91 0.28,0.34 0.43,0.60 0.56,0.23 0.48,-1.33 -0.20,-2.13 -0.84,-2.54 0.00,0.00 0.67,-2.07 -0.56,-4.14 -0.21,-0.35 -1.43,-1.46 -2.85,0.74 -0.55,0.84 -0.96,2.85 -0.17,3.42 z M 356.08,8.20 c 0.73,-1.02 1.08,-0.99 1.36,-0.82 0.82,0.77 0.70,2.03 0.67,2.31 0.00,0.00 -1.05,-0.49 -1.52,-0.69 -0.47,-0.20 -0.72,-0.50 -0.50,-0.80 z M 337.50,10.88 c 0.17,0.10 0.36,0.11 0.41,-0.10 0.05,-0.21 0.28,-0.68 0.62,-0.34 0.28,0.28 2.09,1.78 3.03,4.95 0.16,0.42 0.55,0.46 0.64,-0.14 0.22,-1.47 0.34,-4.02 0.45,-4.79 0.16,-1.09 0.68,-3.32 2.06,-2.16 0.31,0.26 0.64,0.61 0.64,0.61 0.29,0.37 0.66,0.79 0.84,0.36 0.27,-0.64 0.49,-1.70 0.19,-2.28 -0.13,-0.25 -1.84,-2.41 -3.00,-0.93 -1.44,1.83 -1.53,4.23 -1.72,6.91 -0.20,-0.56 -1.35,-4.15 -5.02,-6.21 -0.27,-0.15 -0.81,0.13 -0.86,0.98 -0.03,0.49 -0.17,1.69 0.18,2.03 0.35,0.34 1.37,1.01 1.54,1.10 z M 314.30,16.16 c 0.25,-0.16 13.84,-8.02 14.32,-8.31 0.46,-0.29 0.72,-0.41 0.91,-0.85 0.18,-0.44 0.23,-0.52 0.33,-0.82 0.10,-0.32 0.21,-0.67 -0.61,-0.19 -0.53,0.31 -14.04,8.11 -14.59,8.46 -0.55,0.35 -0.74,0.44 -0.83,0.87 -0.09,0.42 -0.13,0.67 -0.16,0.73 -0.10,0.28 -0.17,0.63 0.64,0.10 z M 297.62,17.64 c 0.17,-0.05 3.05,-0.49 6.41,-3.05 1.82,-1.38 2.92,-3.74 2.92,-3.74 0.00,0.00 0.91,0.76 1.03,0.91 0.28,0.34 0.43,0.60 0.56,0.23 0.48,-1.33 -0.20,-2.13 -0.84,-2.54 0.00,0.00 0.67,-2.07 -0.56,-4.14 -0.21,-0.35 -1.43,-1.46 -2.85,0.74 -0.55,0.84 -0.96,2.85 -0.17,3.42 0.79,0.58 1.93,1.04 1.93,1.04 -3.66,4.49 -6.16,5.34 -8.30,6.60 -0.55,0.32 -0.44,0.61 -0.12,0.53 z M 305.34,8.24 c -0.47,-0.20 -0.72,-0.50 -0.50,-0.80 0.73,-1.02 1.08,-0.99 1.36,-0.82 0.82,0.77 0.70,2.02 0.67,2.31 0.00,0.00 -1.05,-0.49 -1.52,-0.69 z M 305.20,18.02 c -0.06,-0.05 -0.15,-0.03 -0.20,0.04 -1.53,2.10 -1.53,2.10 -1.53,2.10 -0.05,0.07 -0.04,0.16 0.03,0.20 2.61,1.91 2.61,1.91 2.61,1.91 0.06,0.05 0.15,0.03 0.20,-0.04 1.32,-1.81 1.32,-1.81 1.32,-1.81 2.54,1.85 2.54,1.85 2.54,1.85 0.06,0.05 0.15,0.03 0.20,-0.04 1.53,-2.10 1.53,-2.10 1.53,-2.10 0.05,-0.07 0.04,-0.16 -0.03,-0.20 -2.61,-1.91 -2.61,-1.91 -2.61,-1.91 -0.06,-0.05 -0.15,-0.03 -0.20,0.04 -1.32,1.81 -1.32,1.81 -1.32,1.81 z M 360.48,41.07 c -0.24,0.68 -0.34,1.12 -0.31,1.38 0.03,0.26 0.11,1.10 0.11,1.10 -0.25,0.20 -1.33,0.87 -2.40,0.08 0.07,-0.23 0.21,-0.70 0.24,-0.95 0.12,-0.40 -0.13,-0.69 -0.32,-0.28 -0.20,0.41 -0.65,1.79 -0.99,2.10 -0.34,0.31 -0.73,1.45 -3.30,0.29 -0.45,-0.17 -1.23,-0.75 -2.46,0.48 -2.77,2.57 -4.68,2.78 -7.79,3.88 -0.38,0.17 -1.16,0.76 -0.23,0.67 0.94,-0.09 4.87,0.00 7.01,-2.46 0.45,-0.43 0.96,-1.58 2.66,-0.92 0.94,0.36 2.68,1.85 4.58,-1.10 1.12,0.75 2.82,0.45 3.09,-0.38 0.27,-0.82 0.58,-1.64 0.58,-2.20 0.00,-0.56 -0.05,-1.30 -0.05,-1.30 -0.04,-0.44 -0.19,-1.07 -0.44,-0.40 z M 304.58,27.77 c 0.00,0.00 1.25,-0.31 1.47,-0.38 0.22,-0.06 0.34,-0.34 -0.05,-0.55 -0.39,-0.20 -4.09,-1.67 -4.37,-1.79 -0.28,-0.11 -0.38,-0.24 -0.41,0.06 -0.02,0.30 -0.07,2.73 -0.07,2.73 0.00,0.00 -0.06,0.17 0.27,0.35 0.32,0.18 0.64,0.58 0.90,0.84 0.26,0.26 3.70,2.98 3.87,3.07 0.00,0.00 -1.72,3.02 -1.94,5.38 -0.22,2.36 0.04,5.63 3.27,4.58 0.87,-0.25 4.49,-1.69 5.30,-4.21 0.26,-0.93 1.01,-2.61 -0.21,-4.31 -0.70,-1.00 -3.53,-2.69 -3.53,-2.69 0.00,0.00 2.17,-3.00 2.38,-3.37 0.21,-0.37 1.00,-2.69 1.09,-3.25 0.09,-0.56 0.13,-0.84 -0.29,-0.32 -0.42,0.52 -4.63,6.05 -4.63,6.05 z M 311.53,36.65 c -1.20,0.99 -3.72,2.29 -4.43,2.36 -0.71,0.07 -2.59,-0.28 -1.77,-2.20 0.28,-0.62 2.16,-3.84 2.16,-3.84 0.70,0.39 5.24,2.70 4.04,3.69 z" />
     </g>
</svg>
