<?xml version="1.0" encoding="UTF-8"?>
<svg version="1.1" id="Layer_1" x="0px" y="0px" width="578" height="50" viewBox="0 0 578 50"
xml:space="preserve" xmlns="http://www.w3.org/2000/svg" xmlns:svg="http://www.w3.org/2000/svg" xmlns:rdf="http://www.w3.org/1999/02/22-rdf-syntax-ns#"  xmlns:cc="http://creativecommons.org/ns#" xmlns:dc="http://purl.org/dc/elements/1.1/">
     <g>
<path d="M 222.07,20.46 c -1.92,2.63 -1.92,2.63 -1.92,2.63 -0.06,0.08 -0.05,0.20 0.03,0.25 3.27,2.38 3.27,2.38 3.27,2.38 0.08,0.06 0.19,0.04 0.25,-0.05 1.91,-2.63 1.91,-2.63 1.91,-2.63 0.06,-0.08 0.05,-0.20 -0.03,-0.25 -3.27,-2.38 -3.27,-2.38 -3.27,-2.38 -0.08,-0.06 -0.19,-0.04 -0.25,0.05 z M 252.28,18.51 c -1.92,2.63 -1.92,2.63 -1.92,2.63 -0.06,0.08 -0.05,0.20 0.03,0.25 3.27,2.38 3.27,2.38 3.27,2.38 0.08,0.06 0.19,0.04 0.25,-0.05 1.91,-2.63 1.91,-2.63 1.91,-2.63 0.06,-0.08 0.05,-0.20 -0.03,-0.26 -3.27,-2.38 -3.27,-2.38 -3.27,-2.38 -0.08,-0.06 -0.19,-0.04 -0.25,0.05 z M 269.09,8.18 c 0.36,-0.39 0.62,-0.79 1.68,-0.76 1.07,0.03 3.62,-0.07 2.66,0.63 -0.95,0.70 -1.60,1.11 -1.60,1.11 -0.62,0.44 -1.16,1.28 -0.07,0.81 1.09,-0.46 2.54,-1.19 3.65,-2.86 0.32,-0.49 0.70,-1.14 -0.80,-1.36 -1.50,-0.23 -3.93,-0.58 -4.71,0.28 -0.78,0.86 -1.03,1.44 -1.26,1.81 -0.32,0.51 0.08,0.73 0.45,0.34 z M 240.43,19.43 c 0.18,-0.05 3.24,-1.17 6.91,-3.88 3.09,-2.28 6.00,-7.07 6.00,-7.07 0.00,0.00 0.98,0.82 1.12,0.99 0.30,0.37 0.46,0.64 0.60,0.25 0.52,-1.43 -0.21,-2.30 -0.91,-2.75 0.00,0.00 0.73,-2.23 -0.60,-4.48 -0.22,-0.38 -1.54,-1.58 -3.08,0.79 -0.60,0.90 -1.04,3.08 -0.19,3.70 0.85,0.62 2.09,1.13 2.09,1.13 -3.96,4.84 -9.48,9.39 -11.80,10.74 -0.60,0.35 -0.48,0.66 -0.13,0.57 z M 251.60,5.66 c -0.51,-0.22 -0.78,-0.54 -0.54,-0.86 0.79,-1.10 1.17,-1.06 1.47,-0.88 0.89,0.83 0.75,2.19 0.72,2.50 0.00,0.00 -1.14,-0.54 -1.65,-0.75 z M 270.62,17.17 c -0.54,0.32 -0.43,0.60 -0.12,0.52 0.16,-0.04 2.94,-1.06 6.27,-3.52 2.80,-2.07 5.44,-6.41 5.44,-6.41 0.00,0.00 0.89,0.75 1.01,0.90 0.27,0.34 0.42,0.58 0.54,0.23 0.47,-1.30 -0.19,-2.09 -0.82,-2.49 0.00,0.00 0.66,-2.03 -0.55,-4.06 -0.20,-0.34 -1.40,-1.43 -2.80,0.72 -0.54,0.82 -0.95,2.79 -0.18,3.36 0.77,0.57 1.90,1.02 1.90,1.02 -3.60,4.39 -8.61,8.52 -10.71,9.75 z M 280.63,5.19 c -0.46,-0.20 -0.70,-0.49 -0.49,-0.79 0.71,-1.00 1.06,-0.96 1.33,-0.80 0.81,0.75 0.68,1.99 0.65,2.27 0.00,0.00 -1.03,-0.49 -1.49,-0.68 z M 281.71,24.25 c 0.21,-0.34 0.61,-1.12 -0.07,-0.74 -0.69,0.39 -2.52,0.94 -3.33,0.78 -0.82,-0.16 -1.78,-0.86 -1.99,-1.20 -0.21,-0.34 -0.18,-0.71 0.47,-1.09 0.65,-0.37 1.35,-0.63 1.85,0.20 0.09,0.14 0.20,0.13 0.41,-0.08 0.21,-0.21 0.63,-0.79 0.74,-0.96 0.11,-0.17 0.20,-0.45 0.03,-0.65 -0.17,-0.20 -0.89,-1.18 -2.04,-0.29 -1.15,0.89 -3.80,3.47 -2.61,4.67 0.69,0.56 1.00,0.84 1.00,0.84 -0.32,0.12 -0.60,0.43 -0.79,0.83 -0.20,0.39 -0.23,0.48 -0.33,0.70 -0.10,0.22 -0.16,0.52 0.39,0.21 0.55,-0.31 1.85,-1.55 5.36,-2.32 0.49,-0.10 0.91,-0.90 0.91,-0.90 z M 300.65,39.99 c -0.04,0.46 0.17,0.64 0.38,0.19 0.21,-0.45 1.67,-3.47 -0.06,-14.54 -0.13,-0.92 -2.75,-17.03 -2.75,-17.03 0.00,0.00 1.55,1.46 1.80,1.72 0.25,0.26 0.55,0.12 0.41,-0.30 -0.14,-0.42 -3.31,-8.09 -3.42,-8.36 -0.10,-0.27 -0.20,-0.46 -0.33,-0.15 -0.13,0.31 -0.88,2.38 -0.88,2.38 0.20,1.35 1.98,13.22 2.10,14.21 0.12,0.99 2.63,17.36 2.76,21.89 z M 259.94,17.59 c 0.17,0.07 0.34,0.07 0.37,-0.13 0.03,-0.20 0.21,-0.66 0.55,-0.37 0.29,0.24 2.11,1.48 3.28,4.36 0.19,0.38 0.56,0.38 0.59,-0.19 0.07,-1.39 -0.05,-3.79 -0.01,-4.52 0.06,-1.03 0.34,-3.17 1.73,-2.21 0.32,0.22 0.66,0.52 0.66,0.52 0.31,0.32 0.69,0.68 0.82,0.26 0.19,-0.62 0.30,-1.64 -0.03,-2.15 -0.15,-0.23 -1.93,-2.09 -2.89,-0.60 -1.18,1.84 -1.05,4.09 -0.99,6.62 -0.24,-0.51 -1.64,-3.76 -5.26,-5.36 -0.26,-0.12 -0.74,0.20 -0.71,0.99 0.02,0.46 -0.01,1.60 0.35,1.88 0.36,0.29 1.37,0.82 1.54,0.89 z M 214.44,14.80 c -0.09,0.47 -0.14,0.74 -0.16,0.82 -0.11,0.31 -0.18,0.59 0.71,0.11 0.29,-0.16 20.43,-10.08 20.97,-10.37 0.52,-0.29 0.79,-0.46 0.99,-0.95 0.20,-0.49 0.25,-0.57 0.35,-0.91 0.11,-0.36 0.27,-0.65 -0.68,-0.20 -0.67,0.32 -20.59,10.20 -21.28,10.54 -0.65,0.32 -0.82,0.50 -0.91,0.97 z M 275.31,36.24 c -0.55,0.28 -6.12,2.49 -6.69,2.81 -0.57,0.32 -0.77,0.39 -0.88,0.81 -0.11,0.41 -0.17,0.66 -0.20,0.72 -0.12,0.28 -0.21,0.62 0.63,0.14 0.26,-0.15 5.94,-2.41 6.41,-2.68 0.47,-0.27 0.75,-0.36 0.96,-0.79 0.21,-0.42 0.26,-0.50 0.38,-0.80 0.13,-0.32 0.25,-0.65 -0.60,-0.23 z M 255.69,43.22 c -0.36,0.94 -1.28,1.59 -1.97,0.34 -0.11,-0.25 -0.58,-1.39 0.28,-3.87 0.17,-0.48 0.39,-1.20 0.39,-1.20 0.19,-0.54 -0.04,-0.84 -0.31,-0.18 -0.27,0.67 -1.41,2.96 -1.24,5.66 0.04,0.62 0.45,1.84 1.40,1.87 0.49,0.00 1.12,-0.35 1.56,-1.88 0.08,-0.34 0.13,-0.62 0.16,-0.76 0.05,-0.21 -0.10,-0.45 -0.26,0.02 z M 222.00,42.73 c -0.36,0.89 -1.28,1.51 -1.97,0.32 -0.11,-0.24 -0.58,-1.31 0.28,-3.67 0.17,-0.46 0.39,-1.14 0.39,-1.14 0.19,-0.52 -0.04,-0.80 -0.31,-0.17 -0.27,0.63 -1.41,2.80 -1.24,5.36 0.04,0.59 0.45,1.75 1.40,1.78 0.49,0.00 1.12,-0.34 1.56,-1.78 0.08,-0.33 0.13,-0.59 0.16,-0.72 0.05,-0.20 -0.10,-0.43 -0.26,0.02 z M 290.18,38.97 c -0.44,-0.16 -1.12,-0.06 -2.00,1.09 -0.17,0.27 -0.30,0.49 -0.37,0.59 -0.11,0.16 -0.04,0.42 0.24,0.07 0.61,-0.68 1.65,-0.93 1.90,0.36 0.03,0.25 0.11,1.37 -1.43,3.20 -0.30,0.35 -0.72,0.89 -0.72,0.89 -0.34,0.40 -0.22,0.73 0.23,0.25 0.45,-0.48 2.19,-2.05 2.85,-4.40 0.15,-0.54 0.15,-1.71 -0.70,-2.05 z M 242.60,11.69 c 0.47,0.00 1.08,-0.34 1.51,-1.82 0.07,-0.33 0.12,-0.60 0.15,-0.73 0.05,-0.20 -0.10,-0.44 -0.25,0.02 -0.34,0.90 -1.24,1.54 -1.91,0.32 -0.11,-0.24 -0.56,-1.34 0.27,-3.75 0.17,-0.47 0.38,-1.16 0.38,-1.16 0.19,-0.53 -0.04,-0.81 -0.30,-0.17 -0.26,0.64 -1.36,2.86 -1.20,5.47 0.04,0.60 0.44,1.78 1.35,1.81 z M 262.93,10.31 c 0.47,0.00 1.08,-0.34 1.51,-1.82 0.08,-0.33 0.12,-0.60 0.15,-0.73 0.05,-0.20 -0.10,-0.44 -0.25,0.02 -0.34,0.90 -1.24,1.54 -1.91,0.32 -0.11,-0.24 -0.56,-1.34 0.27,-3.75 0.17,-0.47 0.38,-1.16 0.38,-1.16 0.19,-0.53 -0.04,-0.81 -0.30,-0.17 -0.26,0.64 -1.36,2.86 -1.20,5.47 0.04,0.60 0.44,1.78 1.35,1.81 z M 214.88,11.16 c 0.47,0.00 1.08,-0.34 1.51,-1.82 0.07,-0.33 0.12,-0.60 0.15,-0.73 0.05,-0.20 -0.10,-0.44 -0.25,0.02 -0.34,0.91 -1.24,1.54 -1.91,0.32 -0.11,-0.24 -0.56,-1.34 0.27,-3.74 0.17,-0.47 0.38,-1.16 0.38,-1.16 0.19,-0.52 -0.04,-0.81 -0.30,-0.17 -0.26,0.64 -1.36,2.86 -1.20,5.47 0.04,0.60 0.44,1.78 1.35,1.81 z M 228.20,17.66 c 0.07,-0.33 0.12,-0.60 0.15,-0.73 0.05,-0.20 -0.10,-0.44 -0.25,0.02 -0.34,0.90 -1.24,1.54 -1.91,0.32 -0.11,-0.24 -0.56,-1.34 0.27,-3.74 0.17,-0.47 0.38,-1.16 0.38,-1.16 0.19,-0.53 -0.04,-0.81 -0.30,-0.17 -0.26,0.64 -1.36,2.86 -1.20,5.47 0.04,0.60 0.44,1.78 1.35,1.81 0.47,0.00 1.08,-0.34 1.51,-1.82 z M 218.10,22.93 c 0.16,-0.53 -0.08,-0.81 -0.31,-0.15 -0.23,0.66 -1.22,2.92 -0.93,5.52 0.07,0.60 0.52,1.76 1.43,1.74 0.47,-0.02 1.06,-0.39 1.42,-1.89 0.06,-0.34 0.09,-0.61 0.12,-0.74 0.04,-0.20 -0.12,-0.43 -0.25,0.03 -0.30,0.92 -1.16,1.60 -1.89,0.42 -0.12,-0.24 -0.62,-1.31 0.09,-3.75 0.14,-0.47 0.32,-1.18 0.32,-1.18 z M 291.86,29.60 c -0.81,-2.27 -3.73,-20.83 -3.73,-20.83 0.00,0.00 1.55,1.45 1.80,1.72 0.25,0.26 0.55,0.12 0.41,-0.30 -0.14,-0.42 -3.31,-8.09 -3.42,-8.36 -0.10,-0.27 -0.20,-0.46 -0.33,-0.15 -0.13,0.31 -0.88,2.38 -0.88,2.38 0.07,0.49 0.71,4.89 1.50,10.25 0.10,0.70 2.38,14.42 2.77,16.27 0.00,0.00 -4.60,1.77 -5.19,1.82 0.00,0.00 -0.98,-2.39 -2.99,-3.93 -0.50,-0.39 -2.62,-1.48 -4.50,1.74 -0.45,0.77 -2.17,4.25 0.78,5.49 1.39,0.58 3.27,0.38 4.54,0.07 0.49,-0.15 1.52,-0.21 1.38,0.74 -0.15,0.95 -4.27,4.97 -8.09,6.81 -0.97,0.42 -10.82,4.95 -10.43,-4.44 0.07,-1.01 1.10,-4.71 1.34,-5.39 0.00,0.00 0.00,0.00 0.00,0.00 0.75,0.20 1.62,0.36 2.61,0.40 0.51,0.00 3.07,0.28 2.67,-2.84 -0.12,-1.16 -0.73,-4.36 -3.04,-6.37 -0.35,-0.30 -2.46,-1.42 -4.37,2.24 -0.36,0.78 -1.42,4.11 -2.39,4.99 -0.97,0.88 -5.32,3.76 -7.63,-0.86 -0.26,-0.55 -0.42,-2.82 -0.44,-3.43 -0.02,-0.62 -0.29,-0.59 -0.57,-0.29 -0.29,0.31 -3.76,4.05 -6.01,4.91 0.00,0.00 -1.01,-2.19 -3.24,-3.69 -0.52,-0.35 -2.11,-1.35 -3.89,0.50 -0.36,0.38 -2.79,3.45 -0.95,6.07 0.47,0.67 3.08,2.13 6.81,0.73 0.25,-0.08 0.96,0.13 0.64,0.92 -0.31,0.79 -2.77,4.96 -11.47,7.88 -1.09,0.36 -7.66,2.29 -8.45,-4.48 -0.16,-1.25 0.07,-4.10 0.49,-5.52 1.56,-0.79 3.27,-1.81 5.14,-3.14 0.93,-0.66 5.48,-3.37 4.33,-7.92 -0.13,-0.64 -2.61,-6.51 -2.61,-6.51 0.60,0.25 0.99,0.37 1.20,0.47 0.21,0.10 0.58,-0.12 0.25,-0.56 -0.33,-0.45 -2.52,-3.14 -2.58,-3.31 -0.06,-0.17 -0.15,-0.31 -0.21,-0.54 -0.06,-0.23 -0.21,-0.19 -0.31,0.00 -0.10,0.19 -0.70,2.09 -0.74,2.27 -0.04,0.17 0.41,1.92 0.70,2.71 0.76,2.27 2.36,5.44 2.62,5.97 0.25,0.52 0.70,1.37 0.10,2.15 -0.60,0.78 -5.47,5.42 -13.55,7.35 -1.27,0.30 -6.62,1.35 -9.44,-2.64 -0.46,-0.66 -2.62,-3.94 -0.15,-10.05 0.24,-0.48 -0.04,-1.03 -0.59,-0.13 -0.55,0.90 -5.32,12.83 3.87,15.77 1.56,0.50 5.08,1.37 11.12,-1.46 -0.90,2.78 -3.23,10.51 3.27,12.94 5.63,2.11 13.94,-4.15 15.86,-6.15 1.15,-1.20 2.07,-2.64 2.22,-4.30 0.16,-0.66 0.36,-2.53 0.36,-2.53 0.62,-0.46 3.33,-2.04 4.51,-3.87 1.17,6.46 6.37,5.41 6.91,5.24 0.54,-0.17 3.10,-1.14 4.08,-4.19 0.00,0.00 0.80,0.59 2.21,1.07 -0.62,1.67 -4.75,11.33 1.58,14.15 1.07,0.48 6.74,1.32 13.46,-4.75 1.19,-1.08 4.49,-3.21 3.96,-7.22 0.29,-0.13 4.58,-1.69 5.39,-2.05 0.13,0.33 1.78,4.31 4.84,4.91 0.42,0.09 2.44,0.44 2.86,-3.37 0.11,-0.88 1.12,-6.69 -6.40,-5.37 z M 278.99,32.73 c -1.11,-0.25 -0.28,-1.06 0.21,-1.36 0.48,-0.31 1.94,-0.53 2.98,1.47 0.00,0.00 -1.23,0.31 -3.19,-0.11 z M 241.16,32.81 c -1.04,-0.45 0.08,-1.45 0.44,-1.54 0.36,-0.09 1.75,-0.42 3.54,1.84 0.00,0.00 -1.47,0.39 -3.98,-0.30 z M 265.01,29.28 c 0.00,0.00 0.25,-0.64 1.35,-1.67 0.37,-0.30 2.02,-0.97 3.35,2.51 0.23,0.73 -0.08,0.58 -0.39,0.56 -2.97,-0.29 -4.00,-1.19 -4.31,-1.40 z M 296.53,35.11 c -2.67,0.18 -3.67,-2.46 -3.67,-2.46 0.37,-0.06 3.27,-0.47 4.06,1.64 0.10,0.32 0.18,0.73 -0.39,0.81 z M 335.75,20.28 c 0.48,0.00 1.11,-0.35 1.55,-1.87 0.08,-0.34 0.13,-0.62 0.16,-0.75 0.05,-0.21 -0.10,-0.45 -0.26,0.02 -0.35,0.93 -1.27,1.58 -1.96,0.34 -0.11,-0.25 -0.58,-1.38 0.28,-3.86 0.17,-0.48 0.39,-1.20 0.39,-1.20 0.19,-0.54 -0.04,-0.84 -0.31,-0.17 -0.27,0.66 -1.40,2.94 -1.23,5.64 0.04,0.62 0.45,1.83 1.39,1.87 z M 361.86,14.30 c 0.18,-0.50 -0.04,-0.77 -0.29,-0.16 -0.25,0.61 -1.30,2.73 -1.14,5.22 0.04,0.58 0.42,1.70 1.29,1.73 0.45,0.00 1.03,-0.33 1.44,-1.73 0.07,-0.32 0.12,-0.57 0.15,-0.70 0.04,-0.19 -0.10,-0.42 -0.24,0.02 -0.33,0.86 -1.18,1.47 -1.82,0.31 -0.10,-0.23 -0.53,-1.28 0.26,-3.57 0.16,-0.45 0.36,-1.11 0.36,-1.11 z M 318.06,12.30 c 0.25,-0.16 13.84,-8.02 14.32,-8.31 0.46,-0.29 0.72,-0.41 0.91,-0.85 0.18,-0.44 0.23,-0.51 0.33,-0.82 0.10,-0.32 0.21,-0.67 -0.61,-0.19 -0.53,0.31 -14.04,8.11 -14.59,8.46 -0.55,0.35 -0.74,0.44 -0.83,0.87 -0.09,0.42 -0.13,0.67 -0.16,0.73 -0.10,0.28 -0.17,0.63 0.64,0.10 z M 359.10,6.37 c 0.79,0.58 1.93,1.04 1.93,1.04 -3.66,4.48 -10.84,7.67 -12.55,9.01 -0.51,0.39 -0.44,0.61 -0.12,0.53 0.29,-0.08 5.76,-1.61 10.77,-5.90 2.29,-1.97 2.23,-2.11 2.81,-3.31 0.50,0.26 0.84,0.67 1.03,0.91 0.28,0.34 0.43,0.60 0.56,0.23 0.48,-1.33 -0.20,-2.13 -0.84,-2.54 0.00,0.00 0.67,-2.07 -0.56,-4.14 -0.21,-0.35 -1.43,-1.46 -2.85,0.74 -0.55,0.84 -0.96,2.85 -0.17,3.42 z M 359.83,4.34 c 0.73,-1.02 1.08,-0.99 1.36,-0.82 0.82,0.77 0.70,2.03 0.67,2.31 0.00,0.00 -1.05,-0.49 -1.52,-0.69 -0.47,-0.20 -0.72,-0.50 -0.50,-0.80 z M 341.26,7.03 c 0.17,0.09 0.36,0.11 0.41,-0.10 0.05,-0.21 0.28,-0.68 0.62,-0.34 0.28,0.28 2.09,1.78 3.03,4.95 0.16,0.42 0.55,0.46 0.64,-0.14 0.22,-1.47 0.34,-4.02 0.45,-4.79 0.16,-1.09 0.68,-3.32 2.06,-2.16 0.31,0.26 0.64,0.61 0.64,0.61 0.29,0.37 0.66,0.79 0.84,0.36 0.27,-0.64 0.49,-1.70 0.19,-2.28 -0.13,-0.26 -1.84,-2.41 -3.00,-0.93 -1.44,1.83 -1.53,4.23 -1.72,6.91 -0.20,-0.56 -1.35,-4.16 -5.02,-6.21 -0.27,-0.15 -0.81,0.13 -0.86,0.98 -0.03,0.49 -0.17,1.69 0.18,2.03 0.35,0.34 1.37,1.01 1.54,1.10 z M 367.44,24.89 c -0.25,-0.28 -0.37,-0.01 -0.46,0.31 -0.09,0.32 -0.36,1.52 -0.54,2.27 0.00,0.00 0.71,1.16 0.97,1.76 0.25,0.59 -0.12,0.92 -0.86,1.01 -2.08,0.25 -3.73,-0.94 -4.30,-1.48 -0.57,-0.55 0.05,-1.52 0.51,-2.68 0.37,-0.93 -0.32,-1.04 -0.84,0.00 -1.76,4.63 -4.23,5.12 -4.88,5.30 -5.86,1.60 -5.36,-3.76 -5.34,-4.64 0.02,-0.88 -0.62,-0.55 -1.34,0.03 -2.47,1.98 -4.45,3.14 -5.52,3.62 -0.92,-1.80 -2.26,-2.93 -2.82,-3.34 -6.34,-4.63 -6.87,4.71 -6.67,5.71 0.97,3.97 7.45,1.56 8.46,1.44 1.02,-0.12 0.68,1.22 0.11,2.02 -1.41,1.97 -3.03,3.38 -4.50,4.57 -6.28,5.13 -9.44,4.72 -10.41,4.69 -6.17,-0.17 -5.60,-6.82 -5.26,-8.24 1.86,-1.57 3.45,-3.28 4.38,-5.04 0.38,-0.96 1.03,-3.16 -0.15,-5.91 -0.62,-1.21 -2.56,-4.60 -2.56,-4.60 0.00,0.00 1.43,0.04 1.57,0.04 0.14,0.00 0.41,-0.14 0.06,-0.54 -0.35,-0.40 -3.36,-3.41 -3.54,-3.65 -0.18,-0.24 -0.35,-0.41 -0.45,-0.06 -0.10,0.36 -0.36,1.88 -0.42,2.20 -0.06,0.31 -0.06,0.63 0.10,0.90 0.15,0.27 0.55,1.20 0.84,1.96 0.29,0.76 3.26,6.47 3.53,6.98 0.27,0.51 0.33,0.88 0.06,1.22 -9.53,10.05 -27.91,16.23 -28.50,16.58 -0.59,0.34 -0.43,0.61 0.56,0.43 1.48,-0.26 9.74,-1.64 12.09,-2.77 1.55,-0.75 6.98,-3.41 11.41,-6.89 -0.12,0.90 -0.24,2.22 -0.17,3.89 0.30,8.08 7.53,6.74 9.43,6.33 5.68,-1.25 12.64,-9.11 13.23,-10.68 0.58,-1.56 0.67,-2.98 0.54,-4.22 1.50,-0.81 4.71,-3.40 4.71,-3.40 0.13,3.45 2.88,4.48 3.72,4.63 3.96,0.60 5.94,-2.70 6.78,-3.78 0.72,1.89 2.45,2.26 3.34,2.43 3.41,0.68 4.08,-1.73 4.26,-2.29 1.07,-3.33 -0.86,-5.81 -1.11,-6.08 z M 338.81,31.57 c -2.02,-0.14 -1.85,-0.92 -1.57,-1.22 0.30,-0.33 2.78,-1.89 4.85,0.89 0.00,0.00 -0.86,0.50 -3.28,0.33 z M 308.34,23.91 c 0.00,0.00 1.25,-0.31 1.47,-0.38 0.22,-0.06 0.34,-0.35 -0.05,-0.55 -0.39,-0.20 -4.09,-1.67 -4.37,-1.79 -0.28,-0.11 -0.38,-0.24 -0.41,0.06 -0.02,0.30 -0.07,2.73 -0.07,2.73 0.00,0.00 -0.06,0.17 0.26,0.35 0.32,0.18 0.64,0.58 0.90,0.84 0.26,0.26 3.70,2.98 3.87,3.07 0.00,0.00 -1.72,3.02 -1.94,5.38 -0.22,2.36 0.04,5.63 3.27,4.57 0.87,-0.25 4.49,-1.69 5.30,-4.21 0.26,-0.93 1.01,-2.61 -0.21,-4.31 -0.70,-1.00 -3.53,-2.69 -3.53,-2.69 0.00,0.00 2.17,-3.00 2.38,-3.37 0.21,-0.37 1.00,-2.69 1.09,-3.26 0.09,-0.56 0.13,-0.84 -0.29,-0.32 -0.42,0.52 -4.63,6.05 -4.63,6.05 z M 315.29,32.79 c -1.20,0.99 -3.72,2.29 -4.43,2.36 -0.71,0.07 -2.59,-0.28 -1.77,-2.20 0.28,-0.62 2.16,-3.84 2.16,-3.84 0.70,0.39 5.24,2.70 4.04,3.69 z M 364.24,37.21 c -0.24,0.68 -0.34,1.12 -0.31,1.38 0.03,0.26 0.11,1.10 0.11,1.10 -0.25,0.20 -1.33,0.87 -2.40,0.08 0.07,-0.23 0.21,-0.70 0.24,-0.95 0.12,-0.40 -0.13,-0.69 -0.32,-0.28 -0.20,0.41 -0.65,1.79 -0.99,2.10 -0.34,0.31 -0.73,1.45 -3.30,0.29 -0.45,-0.17 -1.23,-0.75 -2.46,0.48 -2.77,2.57 -4.68,2.77 -7.79,3.88 -0.38,0.17 -1.16,0.77 -0.23,0.67 0.94,-0.09 4.87,0.00 7.01,-2.46 0.45,-0.43 0.96,-1.58 2.66,-0.92 0.94,0.36 2.68,1.85 4.58,-1.10 1.12,0.75 2.82,0.45 3.09,-0.38 0.27,-0.82 0.58,-1.64 0.58,-2.20 0.00,-0.56 -0.05,-1.30 -0.05,-1.30 -0.04,-0.44 -0.19,-1.07 -0.44,-0.40 z M 301.38,13.78 c 0.17,-0.04 3.05,-0.49 6.41,-3.05 1.82,-1.38 2.92,-3.74 2.92,-3.74 0.00,0.00 0.91,0.76 1.03,0.91 0.28,0.34 0.43,0.60 0.56,0.23 0.48,-1.33 -0.20,-2.13 -0.84,-2.54 0.00,0.00 0.67,-2.07 -0.56,-4.14 -0.21,-0.35 -1.43,-1.46 -2.85,0.74 -0.55,0.84 -0.96,2.85 -0.17,3.42 0.79,0.58 1.93,1.04 1.93,1.04 -3.66,4.48 -6.16,5.34 -8.30,6.59 -0.55,0.32 -0.44,0.61 -0.12,0.53 z M 309.10,4.39 c -0.47,-0.20 -0.72,-0.50 -0.50,-0.80 0.73,-1.02 1.08,-0.99 1.36,-0.82 0.82,0.77 0.70,2.03 0.67,2.31 0.00,0.00 -1.05,-0.49 -1.52,-0.70 z M 308.96,14.16 c -0.06,-0.05 -0.15,-0.03 -0.20,0.04 -1.53,2.10 -1.53,2.10 -1.53,2.10 -0.05,0.07 -0.04,0.16 0.03,0.20 2.61,1.91 2.61,1.91 2.61,1.91 0.06,0.05 0.15,0.03 0.20,-0.04 1.32,-1.81 1.32,-1.81 1.32,-1.81 2.54,1.85 2.54,1.85 2.54,1.85 0.06,0.05 0.15,0.03 0.20,-0.04 1.53,-2.10 1.53,-2.10 1.53,-2.10 0.05,-0.07 0.04,-0.16 -0.03,-0.20 -2.61,-1.91 -2.61,-1.91 -2.61,-1.91 -0.06,-0.05 -0.15,-0.03 -0.20,0.04 -1.32,1.81 -1.32,1.81 -1.32,1.81 z" />
     </g>
</svg>
