<?xml version="1.0" encoding="UTF-8"?>
<svg version="1.1" id="Layer_1" x="0px" y="0px" width="578" height="52" viewBox="0 0 578 52"
xml:space="preserve" xmlns="http://www.w3.org/2000/svg" xmlns:svg="http://www.w3.org/2000/svg" xmlns:rdf="http://www.w3.org/1999/02/22-rdf-syntax-ns#"  xmlns:cc="http://creativecommons.org/ns#" xmlns:dc="http://purl.org/dc/elements/1.1/">
     <g>
<path d="M 266.44,21.27 c -1.92,2.63 -1.92,2.63 -1.92,2.63 -0.06,0.08 -0.05,0.20 0.03,0.25 3.27,2.38 3.27,2.38 3.27,2.38 0.08,0.06 0.19,0.04 0.25,-0.05 1.91,-2.63 1.91,-2.63 1.91,-2.63 0.06,-0.08 0.05,-0.20 -0.03,-0.25 -3.27,-2.38 -3.27,-2.38 -3.27,-2.38 -0.08,-0.06 -0.19,-0.04 -0.25,0.05 z M 228.77,15.06 c 0.66,-0.37 4.49,-1.86 5.12,-5.65 0.05,-0.50 -0.05,-0.87 -0.17,-1.12 0.05,0.01 0.11,0.05 0.17,0.11 0.27,0.27 1.99,1.69 2.88,4.71 0.16,0.40 0.53,0.44 0.61,-0.13 0.21,-1.40 0.32,-3.82 0.43,-4.56 0.16,-1.03 0.65,-3.16 1.96,-2.06 0.30,0.25 0.61,0.58 0.61,0.58 0.28,0.35 0.63,0.75 0.80,0.35 0.26,-0.61 0.46,-1.62 0.18,-2.17 -0.12,-0.24 -1.75,-2.29 -2.85,-0.89 -1.37,1.74 -1.46,4.03 -1.64,6.58 -0.19,-0.53 -1.29,-3.95 -4.78,-5.91 -0.25,-0.14 -0.77,0.13 -0.82,0.93 -0.03,0.47 -0.16,1.61 0.17,1.93 0.32,0.31 2.68,1.14 1.40,2.49 -0.57,0.61 -3.45,3.59 -4.06,4.31 -0.62,0.72 -0.68,0.85 -0.01,0.49 z M 262.40,7.12 c -4.13,4.61 -9.77,8.86 -12.12,10.09 -0.60,0.32 -0.50,0.63 -0.15,0.56 0.18,-0.04 3.25,-1.01 6.99,-3.53 3.15,-2.12 6.23,-6.71 6.23,-6.71 0.00,0.00 0.94,0.85 1.06,1.03 0.28,0.38 0.43,0.66 0.58,0.28 0.58,-1.39 -0.11,-2.28 -0.78,-2.75 0.00,0.00 0.82,-2.17 -0.40,-4.45 -0.20,-0.38 -1.45,-1.63 -3.08,0.65 -0.63,0.87 -1.16,2.99 -0.36,3.64 0.81,0.66 2.01,1.21 2.01,1.21 z M 261.26,3.78 c 0.82,-1.05 1.20,-1.00 1.49,-0.81 0.84,0.86 0.65,2.20 0.60,2.50 0.00,0.00 -1.10,-0.58 -1.59,-0.82 -0.49,-0.24 -0.74,-0.57 -0.49,-0.88 z M 267.61,17.02 c -0.40,0.17 -2.24,0.56 -2.58,-1.40 -0.34,-1.96 -0.37,-2.53 -0.54,-2.86 -0.17,-0.33 -0.33,-0.37 -0.46,-0.04 -0.13,0.33 -0.21,1.01 -0.23,1.12 -0.02,0.11 -0.02,0.19 0.05,0.31 0.07,0.12 0.80,2.31 0.47,2.91 -0.33,0.60 -1.98,1.69 -2.84,0.55 -0.41,-0.79 -0.16,-2.80 -0.16,-3.27 0.00,-0.47 -0.15,-0.63 -0.35,-0.25 -0.20,0.38 -0.31,0.63 -0.30,0.97 0.01,0.34 0.06,1.81 0.03,2.27 -0.03,0.46 0.00,1.96 0.88,2.38 0.88,0.42 2.17,0.03 3.14,-1.81 0.75,1.09 1.90,1.10 2.51,0.87 0.52,-0.19 1.11,-0.97 1.28,-2.06 0.17,-1.09 -0.11,-1.83 -0.45,-2.44 -0.45,-0.75 -0.75,-2.02 -0.75,-2.02 -0.16,-0.45 -0.28,-0.91 -0.48,-0.29 -0.20,0.62 -0.35,1.10 -0.08,1.82 0.27,0.71 1.00,2.33 1.13,2.56 0.12,0.23 0.15,0.49 -0.25,0.66 z M 287.33,40.76 c -0.04,0.46 0.17,0.64 0.38,0.19 0.21,-0.44 1.67,-3.47 -0.06,-14.54 -0.13,-0.92 -3.07,-17.83 -3.07,-17.83 0.00,0.00 1.55,1.46 1.80,1.72 0.25,0.26 0.55,0.12 0.41,-0.30 -0.14,-0.42 -3.31,-8.09 -3.42,-8.36 -0.10,-0.27 -0.20,-0.46 -0.33,-0.15 -0.13,0.31 -0.88,2.38 -0.88,2.38 0.20,1.35 2.30,14.01 2.42,15.00 0.12,0.99 3.08,16.60 2.76,21.89 z M 276.33,8.74 c 0.00,0.00 1.40,1.47 1.65,1.73 0.25,0.26 0.55,0.12 0.41,-0.30 -0.14,-0.42 -3.31,-8.10 -3.42,-8.36 -0.10,-0.27 -0.20,-0.46 -0.33,-0.15 -0.13,0.31 -0.88,2.38 -0.88,2.38 0.07,0.46 0.70,4.37 1.36,9.30 0.15,1.16 2.84,17.34 3.00,18.55 0.16,1.21 0.53,2.79 -0.84,3.43 -1.37,0.63 -4.53,2.00 -6.48,-0.37 -0.58,-0.69 -1.20,-3.11 -1.04,-4.66 0.02,-0.39 -0.13,-0.85 -0.67,-0.45 -0.52,0.38 -3.05,2.67 -5.13,3.50 -0.32,-0.77 -0.79,-1.59 -1.50,-2.35 -1.91,-2.03 -3.70,-3.10 -5.76,-0.83 -2.06,2.27 -1.96,6.21 0.93,7.13 0.90,0.28 2.44,0.13 4.59,-0.40 0.44,-0.12 1.63,-0.18 0.97,0.88 -0.66,1.06 -6.85,8.12 -12.68,8.59 -0.83,0.07 -6.06,-0.15 -5.41,-6.24 0.07,-0.61 0.89,-4.04 1.09,-4.98 0.83,-0.79 1.52,-1.59 2.00,-2.41 0.38,-0.96 1.25,-3.17 0.08,-5.92 -0.62,-1.21 -2.56,-4.60 -2.56,-4.60 0.04,-0.11 0.04,-0.11 0.04,-0.11 0.00,0.00 1.39,0.15 1.53,0.15 0.14,0.00 0.41,-0.14 0.06,-0.54 -0.35,-0.40 -3.36,-3.40 -3.54,-3.65 -0.18,-0.24 -0.35,-0.41 -0.45,-0.06 -0.10,0.36 -0.36,1.88 -0.42,2.20 -0.06,0.31 -0.06,0.63 0.10,0.90 0.15,0.27 0.55,1.20 0.84,1.96 0.29,0.76 3.31,6.36 3.58,6.87 0.27,0.51 0.10,0.85 -0.18,1.19 -9.38,8.17 -26.77,13.83 -27.35,14.17 -0.59,0.34 -0.43,0.61 0.56,0.43 1.48,-0.26 8.01,-1.06 9.99,-1.72 1.96,-0.65 9.87,-3.94 14.70,-7.94 -0.72,2.57 -3.13,10.71 1.37,12.87 0.75,0.36 6.81,2.68 15.92,-6.63 1.75,-1.79 2.14,-4.88 2.14,-4.88 0.02,-0.26 0.05,-0.73 0.01,-1.33 0.87,-0.41 2.22,-1.21 3.58,-2.62 0.23,-0.19 0.39,-0.27 0.45,0.11 0.06,0.38 0.41,4.60 3.28,5.62 0.59,0.20 4.14,1.07 6.80,-1.98 0.25,-0.31 1.48,-2.19 0.79,-7.84 -0.10,-0.84 -3.03,-20.59 -3.16,-20.62 z M 258.56,34.24 c -2.13,-0.35 -1.34,-1.42 -0.94,-1.79 0.40,-0.37 2.71,-1.12 3.95,1.59 0.00,0.00 -1.30,0.47 -3.01,0.19 z M 241.40,43.59 c -0.55,0.28 -9.60,4.11 -10.16,4.43 -0.57,0.32 -0.77,0.40 -0.88,0.81 -0.11,0.41 -0.17,0.66 -0.20,0.72 -0.12,0.28 -0.21,0.62 0.63,0.14 0.26,-0.15 9.41,-4.03 9.88,-4.30 0.47,-0.27 0.75,-0.36 0.96,-0.79 0.21,-0.42 0.26,-0.50 0.38,-0.80 0.12,-0.32 0.25,-0.65 -0.60,-0.23 z M 270.22,43.53 c -0.34,0.97 -1.33,1.68 -2.16,0.46 -0.14,-0.24 -0.72,-1.36 0.09,-3.92 0.16,-0.50 0.36,-1.24 0.36,-1.24 0.18,-0.56 -0.09,-0.84 -0.36,-0.16 -0.26,0.69 -1.39,3.07 -1.04,5.78 0.08,0.63 0.61,1.83 1.65,1.80 0.54,-0.03 1.21,-0.43 1.62,-2.00 0.07,-0.35 0.10,-0.63 0.13,-0.77 0.04,-0.21 -0.14,-0.45 -0.29,0.04 z M 284.39,42.13 c -0.34,0.97 -1.32,1.68 -2.16,0.46 -0.14,-0.24 -0.72,-1.36 0.09,-3.92 0.16,-0.50 0.36,-1.24 0.36,-1.24 0.18,-0.56 -0.09,-0.84 -0.36,-0.16 -0.26,0.69 -1.39,3.07 -1.04,5.78 0.08,0.63 0.61,1.83 1.65,1.80 0.54,-0.03 1.21,-0.43 1.62,-2.00 0.07,-0.35 0.10,-0.64 0.13,-0.77 0.04,-0.21 -0.14,-0.45 -0.29,0.04 z M 249.76,12.33 c 0.61,-0.04 1.38,-0.49 1.85,-2.28 0.08,-0.40 0.12,-0.72 0.15,-0.88 0.05,-0.24 -0.16,-0.51 -0.33,0.04 -0.39,1.10 -1.51,1.92 -2.47,0.53 -0.16,-0.28 -0.82,-1.55 0.10,-4.47 0.19,-0.57 0.41,-1.41 0.41,-1.41 0.21,-0.64 -0.10,-0.96 -0.40,-0.18 -0.30,0.78 -1.59,3.50 -1.19,6.59 0.09,0.71 0.69,2.08 1.88,2.05 z M 234.47,20.46 c 0.25,-1.00 -0.15,-1.51 -0.51,-0.29 -0.36,1.22 -1.91,5.46 -1.36,10.32 0.13,1.12 0.90,3.28 2.38,3.26 0.76,-0.05 1.71,-0.74 2.25,-3.53 0.08,-0.63 0.13,-1.13 0.17,-1.38 0.05,-0.38 -0.21,-0.81 -0.41,0.06 -0.46,1.72 -1.84,2.98 -3.06,0.78 -0.20,-0.44 -1.05,-2.45 0.04,-7.01 0.22,-0.89 0.49,-2.20 0.49,-2.20 z M 322.88,21.04 c 0.48,0.00 1.11,-0.35 1.55,-1.87 0.08,-0.34 0.13,-0.62 0.16,-0.75 0.05,-0.21 -0.10,-0.45 -0.26,0.02 -0.35,0.93 -1.27,1.58 -1.96,0.33 -0.11,-0.25 -0.58,-1.38 0.28,-3.86 0.17,-0.48 0.39,-1.20 0.39,-1.20 0.19,-0.54 -0.04,-0.84 -0.31,-0.17 -0.27,0.66 -1.40,2.94 -1.23,5.63 0.04,0.62 0.45,1.83 1.39,1.87 z M 346.23,7.13 c 0.79,0.58 1.94,1.04 1.94,1.04 -3.66,4.49 -10.84,7.67 -12.56,9.01 -0.51,0.39 -0.44,0.61 -0.12,0.52 0.28,-0.08 5.76,-1.61 10.76,-5.90 2.29,-1.97 2.23,-2.11 2.81,-3.31 0.50,0.26 0.84,0.67 1.03,0.91 0.28,0.34 0.43,0.60 0.56,0.23 0.48,-1.33 -0.20,-2.13 -0.84,-2.54 0.00,0.00 0.67,-2.07 -0.56,-4.14 -0.21,-0.35 -1.43,-1.46 -2.85,0.74 -0.55,0.84 -0.96,2.85 -0.18,3.42 z M 346.96,5.10 c 0.73,-1.02 1.08,-0.99 1.36,-0.82 0.83,0.77 0.70,2.02 0.67,2.31 0.00,0.00 -1.05,-0.49 -1.52,-0.69 -0.47,-0.20 -0.72,-0.50 -0.50,-0.80 z M 348.99,15.06 c 0.18,-0.50 -0.04,-0.77 -0.29,-0.16 -0.25,0.61 -1.30,2.73 -1.14,5.22 0.04,0.58 0.42,1.70 1.29,1.73 0.45,0.00 1.03,-0.33 1.44,-1.73 0.07,-0.32 0.12,-0.57 0.15,-0.70 0.04,-0.19 -0.10,-0.42 -0.24,0.02 -0.33,0.86 -1.18,1.46 -1.82,0.31 -0.10,-0.23 -0.54,-1.28 0.26,-3.57 0.16,-0.44 0.36,-1.11 0.36,-1.11 z M 328.39,7.79 c 0.17,0.09 0.36,0.11 0.41,-0.10 0.05,-0.21 0.29,-0.68 0.62,-0.34 0.28,0.28 2.09,1.78 3.03,4.95 0.16,0.42 0.55,0.46 0.64,-0.14 0.22,-1.47 0.33,-4.02 0.45,-4.79 0.17,-1.09 0.68,-3.32 2.06,-2.16 0.31,0.26 0.64,0.61 0.64,0.61 0.29,0.37 0.66,0.79 0.84,0.36 0.27,-0.64 0.49,-1.70 0.19,-2.28 -0.13,-0.25 -1.83,-2.41 -3.00,-0.93 -1.44,1.83 -1.53,4.23 -1.72,6.91 -0.20,-0.56 -1.35,-4.16 -5.02,-6.21 -0.27,-0.15 -0.81,0.13 -0.86,0.98 -0.03,0.49 -0.17,1.69 0.18,2.03 0.35,0.34 1.37,1.00 1.54,1.10 z M 305.19,13.06 c 0.25,-0.16 13.84,-8.02 14.32,-8.31 0.46,-0.28 0.72,-0.41 0.91,-0.84 0.18,-0.44 0.23,-0.52 0.33,-0.82 0.10,-0.32 0.21,-0.67 -0.61,-0.19 -0.53,0.31 -14.04,8.11 -14.59,8.46 -0.55,0.35 -0.74,0.44 -0.83,0.87 -0.09,0.42 -0.13,0.67 -0.16,0.73 -0.10,0.28 -0.17,0.63 0.64,0.10 z M 354.57,25.66 c -0.25,-0.28 -0.37,-0.01 -0.46,0.31 -0.09,0.32 -0.36,1.52 -0.54,2.27 0.00,0.00 0.71,1.16 0.97,1.75 0.25,0.59 -0.12,0.92 -0.86,1.01 -2.08,0.25 -3.73,-0.94 -4.30,-1.48 -0.57,-0.55 0.05,-1.52 0.51,-2.68 0.37,-0.93 -0.32,-1.04 -0.84,0.00 -1.76,4.63 -4.23,5.12 -4.88,5.30 -5.86,1.60 -5.36,-3.76 -5.33,-4.64 0.02,-0.88 -0.62,-0.55 -1.34,0.03 -2.47,1.98 -4.45,3.14 -5.52,3.62 -0.92,-1.80 -2.26,-2.93 -2.82,-3.34 -6.34,-4.63 -6.87,4.71 -6.67,5.71 0.97,3.97 7.44,1.56 8.46,1.44 1.02,-0.12 0.68,1.22 0.11,2.02 -1.41,1.97 -3.03,3.38 -4.50,4.57 -6.28,5.13 -9.43,4.72 -10.41,4.69 -6.17,-0.17 -5.60,-6.82 -5.26,-8.24 1.86,-1.57 3.45,-3.28 4.38,-5.04 0.38,-0.97 1.03,-3.16 -0.15,-5.91 -0.62,-1.21 -2.56,-4.60 -2.56,-4.60 0.00,0.00 1.43,0.04 1.57,0.04 0.14,0.00 0.41,-0.14 0.06,-0.54 -0.35,-0.40 -3.36,-3.41 -3.54,-3.65 -0.18,-0.24 -0.35,-0.41 -0.45,-0.06 -0.10,0.36 -0.36,1.88 -0.42,2.20 -0.06,0.31 -0.06,0.63 0.10,0.90 0.15,0.27 0.55,1.20 0.84,1.96 0.29,0.76 3.26,6.47 3.53,6.98 0.27,0.51 0.33,0.88 0.06,1.22 -9.53,10.05 -27.91,16.23 -28.50,16.57 -0.59,0.34 -0.43,0.61 0.56,0.43 1.48,-0.26 9.74,-1.64 12.09,-2.77 1.55,-0.75 6.97,-3.41 11.41,-6.89 -0.12,0.90 -0.24,2.22 -0.18,3.89 0.30,8.08 7.53,6.74 9.43,6.33 5.68,-1.25 12.64,-9.11 13.23,-10.68 0.58,-1.56 0.67,-2.98 0.54,-4.22 1.50,-0.81 4.71,-3.40 4.71,-3.40 0.13,3.45 2.87,4.48 3.72,4.63 3.96,0.60 5.94,-2.71 6.78,-3.78 0.72,1.89 2.45,2.26 3.34,2.43 3.41,0.68 4.08,-1.74 4.26,-2.29 1.07,-3.33 -0.86,-5.81 -1.11,-6.08 z M 325.94,32.34 c -2.02,-0.14 -1.85,-0.92 -1.57,-1.23 0.30,-0.33 2.78,-1.89 4.85,0.89 0.00,0.00 -0.86,0.50 -3.28,0.33 z M 295.47,24.67 c 0.00,0.00 1.25,-0.31 1.47,-0.38 0.22,-0.06 0.34,-0.34 -0.05,-0.55 -0.39,-0.20 -4.09,-1.67 -4.37,-1.79 -0.28,-0.11 -0.38,-0.24 -0.41,0.06 -0.02,0.30 -0.07,2.73 -0.07,2.73 0.00,0.00 -0.06,0.17 0.27,0.35 0.32,0.18 0.64,0.58 0.90,0.84 0.26,0.26 3.70,2.98 3.87,3.07 0.00,0.00 -1.72,3.02 -1.94,5.38 -0.22,2.36 0.04,5.63 3.27,4.58 0.87,-0.25 4.49,-1.69 5.30,-4.21 0.26,-0.93 1.01,-2.61 -0.21,-4.31 -0.70,-1.00 -3.53,-2.69 -3.53,-2.69 0.00,0.00 2.17,-3.00 2.38,-3.37 0.21,-0.37 1.00,-2.69 1.09,-3.26 0.09,-0.56 0.13,-0.84 -0.29,-0.32 -0.42,0.52 -4.63,6.05 -4.63,6.05 z M 302.42,33.56 c -1.20,0.99 -3.72,2.29 -4.43,2.36 -0.71,0.07 -2.59,-0.28 -1.77,-2.20 0.28,-0.62 2.16,-3.84 2.16,-3.84 0.70,0.39 5.24,2.70 4.04,3.69 z M 351.37,37.97 c -0.24,0.68 -0.34,1.12 -0.32,1.38 0.03,0.26 0.12,1.10 0.12,1.10 -0.25,0.20 -1.33,0.87 -2.40,0.08 0.07,-0.23 0.21,-0.70 0.24,-0.95 0.12,-0.40 -0.13,-0.69 -0.32,-0.28 -0.20,0.41 -0.65,1.79 -0.99,2.10 -0.34,0.31 -0.73,1.45 -3.30,0.29 -0.45,-0.17 -1.23,-0.75 -2.46,0.48 -2.77,2.57 -4.68,2.77 -7.79,3.88 -0.37,0.17 -1.16,0.76 -0.23,0.67 0.94,-0.09 4.87,0.00 7.01,-2.46 0.45,-0.43 0.96,-1.58 2.66,-0.92 0.94,0.36 2.68,1.85 4.58,-1.10 1.12,0.75 2.82,0.45 3.09,-0.38 0.27,-0.82 0.58,-1.64 0.58,-2.20 0.00,-0.56 -0.05,-1.30 -0.05,-1.30 -0.04,-0.44 -0.19,-1.07 -0.44,-0.40 z M 296.09,14.93 c -0.06,-0.05 -0.15,-0.03 -0.20,0.04 -1.53,2.10 -1.53,2.10 -1.53,2.10 -0.05,0.07 -0.04,0.16 0.03,0.20 2.61,1.91 2.61,1.91 2.61,1.91 0.06,0.05 0.15,0.03 0.20,-0.04 1.32,-1.81 1.32,-1.81 1.32,-1.81 2.54,1.85 2.54,1.85 2.54,1.85 0.06,0.05 0.15,0.03 0.20,-0.04 1.53,-2.10 1.53,-2.10 1.53,-2.10 0.05,-0.07 0.04,-0.16 -0.03,-0.20 -2.61,-1.91 -2.61,-1.91 -2.61,-1.91 -0.06,-0.05 -0.15,-0.03 -0.20,0.04 -1.32,1.81 -1.32,1.81 -1.32,1.81 z M 288.51,14.54 c 0.17,-0.04 3.05,-0.49 6.41,-3.05 1.82,-1.38 2.92,-3.74 2.92,-3.74 0.00,0.00 0.91,0.76 1.03,0.91 0.28,0.34 0.43,0.60 0.56,0.23 0.48,-1.33 -0.20,-2.13 -0.84,-2.54 0.00,0.00 0.67,-2.07 -0.56,-4.14 -0.21,-0.35 -1.43,-1.46 -2.85,0.74 -0.55,0.84 -0.96,2.85 -0.18,3.42 0.79,0.58 1.94,1.04 1.94,1.04 -3.66,4.48 -6.16,5.34 -8.30,6.60 -0.55,0.32 -0.44,0.61 -0.12,0.52 z M 296.23,5.15 c -0.47,-0.20 -0.72,-0.50 -0.50,-0.80 0.73,-1.02 1.08,-0.99 1.36,-0.82 0.82,0.77 0.70,2.02 0.67,2.31 0.00,0.00 -1.05,-0.49 -1.52,-0.69 z" />
     </g>
</svg>
