<?xml version="1.0" encoding="UTF-8"?>
<svg version="1.1" id="Layer_1" x="0px" y="0px" width="578" height="50" viewBox="0 0 578 50"
xml:space="preserve" xmlns="http://www.w3.org/2000/svg" xmlns:svg="http://www.w3.org/2000/svg" xmlns:rdf="http://www.w3.org/1999/02/22-rdf-syntax-ns#"  xmlns:cc="http://creativecommons.org/ns#" xmlns:dc="http://purl.org/dc/elements/1.1/">
     <g>
<path d="M 223.26,26.94 c -1.92,2.63 -1.92,2.63 -1.92,2.63 -0.06,0.08 -0.05,0.20 0.03,0.25 3.27,2.38 3.27,2.38 3.27,2.38 0.08,0.06 0.19,0.04 0.25,-0.05 1.91,-2.63 1.91,-2.63 1.91,-2.63 0.06,-0.08 0.05,-0.20 -0.03,-0.25 -3.27,-2.38 -3.27,-2.38 -3.27,-2.38 -0.08,-0.06 -0.19,-0.04 -0.25,0.05 z M 280.44,14.35 c -1.92,2.63 -1.92,2.63 -1.92,2.63 -0.06,0.08 -0.05,0.20 0.03,0.25 3.27,2.38 3.27,2.38 3.27,2.38 0.08,0.06 0.19,0.04 0.25,-0.05 1.91,-2.63 1.91,-2.63 1.91,-2.63 0.06,-0.08 0.05,-0.20 -0.03,-0.25 -3.27,-2.38 -3.27,-2.38 -3.27,-2.38 -0.08,-0.06 -0.19,-0.04 -0.25,0.05 z M 243.88,19.70 c 0.68,0.13 1.05,0.54 1.21,0.78 0.07,0.10 0.18,0.04 0.22,-0.03 0.83,-1.50 0.17,-2.48 -1.14,-2.91 -0.52,-0.17 -0.72,-0.90 1.26,-2.08 1.82,-1.08 23.16,-10.85 23.56,-11.11 0.55,-0.35 0.88,-0.48 1.10,-1.01 0.23,-0.53 0.28,-0.62 0.41,-0.99 0.13,-0.39 0.26,-0.81 -0.74,-0.23 -0.53,0.30 -23.61,10.72 -25.13,11.87 -0.77,0.58 -1.42,1.51 -1.67,2.53 -0.37,1.49 -0.05,2.98 0.92,3.17 z M 271.99,26.83 c -0.95,0.70 -1.60,1.11 -1.60,1.11 -0.62,0.44 -1.16,1.28 -0.07,0.81 1.09,-0.46 2.54,-1.19 3.64,-2.86 0.32,-0.48 0.70,-1.14 -0.80,-1.36 -1.50,-0.22 -3.93,-0.58 -4.71,0.28 -0.79,0.86 -1.03,1.44 -1.26,1.81 -0.32,0.50 0.08,0.73 0.45,0.34 0.36,-0.39 0.62,-0.79 1.68,-0.76 1.07,0.03 3.62,-0.07 2.66,0.63 z M 280.53,7.96 c -4.24,4.63 -10.02,8.88 -12.42,10.10 -0.62,0.31 -0.52,0.64 -0.16,0.56 0.18,-0.04 3.31,-0.99 7.14,-3.50 3.22,-2.11 6.41,-6.75 6.41,-6.75 0.00,0.00 0.94,0.88 1.06,1.05 0.28,0.39 0.42,0.67 0.59,0.29 0.60,-1.41 -0.08,-2.32 -0.76,-2.80 0.00,0.00 0.86,-2.20 -0.35,-4.52 -0.20,-0.39 -1.46,-1.67 -3.13,0.62 -0.65,0.87 -1.22,3.02 -0.40,3.69 0.82,0.67 2.03,1.25 2.03,1.25 z M 279.42,4.56 c 0.85,-1.06 1.23,-1.00 1.52,-0.80 0.84,0.88 0.63,2.24 0.58,2.55 0.00,0.00 -1.11,-0.60 -1.61,-0.85 -0.50,-0.25 -0.75,-0.59 -0.49,-0.90 z M 301.29,42.54 c -0.04,0.46 0.17,0.64 0.38,0.19 0.21,-0.44 1.67,-3.47 -0.06,-14.54 -0.13,-0.92 -2.75,-19.64 -2.75,-19.64 0.00,0.00 1.55,1.46 1.80,1.72 0.25,0.26 0.55,0.12 0.41,-0.30 -0.14,-0.42 -3.31,-8.10 -3.42,-8.36 -0.10,-0.27 -0.20,-0.46 -0.33,-0.15 -0.13,0.31 -0.88,2.38 -0.88,2.38 0.20,1.35 1.99,15.82 2.10,16.81 0.12,0.99 2.63,17.36 2.76,21.89 z M 257.98,15.84 c -1.32,1.81 -1.32,1.81 -1.32,1.81 -2.54,-1.85 -2.54,-1.85 -2.54,-1.85 -0.06,-0.05 -0.15,-0.03 -0.20,0.04 -1.53,2.10 -1.53,2.10 -1.53,2.10 -0.05,0.07 -0.04,0.16 0.03,0.21 2.61,1.91 2.61,1.91 2.61,1.91 0.06,0.05 0.15,0.03 0.20,-0.04 1.32,-1.81 1.32,-1.81 1.32,-1.81 2.54,1.85 2.54,1.85 2.54,1.85 0.06,0.05 0.15,0.03 0.20,-0.04 1.53,-2.10 1.53,-2.10 1.53,-2.10 0.05,-0.07 0.04,-0.16 -0.03,-0.20 -2.61,-1.91 -2.61,-1.91 -2.61,-1.91 -0.06,-0.05 -0.15,-0.03 -0.20,0.04 z M 242.18,40.92 c -0.52,0.32 -12.14,6.11 -12.68,6.48 -0.54,0.37 -0.73,0.46 -0.81,0.89 -0.08,0.42 -0.11,0.67 -0.14,0.74 -0.09,0.28 -0.15,0.64 0.64,0.09 0.25,-0.17 11.97,-6.02 12.41,-6.33 0.44,-0.31 0.71,-0.43 0.88,-0.87 0.17,-0.44 0.22,-0.52 0.31,-0.83 0.10,-0.33 0.19,-0.67 -0.62,-0.17 z M 278.27,43.33 c -0.34,0.88 -1.21,1.50 -1.86,0.32 -0.11,-0.23 -0.55,-1.31 0.26,-3.65 0.16,-0.46 0.37,-1.13 0.37,-1.13 0.18,-0.51 -0.04,-0.79 -0.29,-0.17 -0.26,0.63 -1.33,2.79 -1.17,5.34 0.04,0.59 0.43,1.74 1.32,1.77 0.46,0.00 1.05,-0.33 1.47,-1.78 0.07,-0.33 0.12,-0.59 0.15,-0.71 0.05,-0.19 -0.10,-0.43 -0.25,0.02 z M 266.85,8.83 c 0.18,-0.51 -0.04,-0.79 -0.29,-0.17 -0.26,0.63 -1.33,2.79 -1.17,5.34 0.04,0.59 0.43,1.74 1.32,1.77 0.46,0.00 1.05,-0.33 1.47,-1.78 0.07,-0.33 0.12,-0.59 0.15,-0.71 0.05,-0.19 -0.10,-0.43 -0.25,0.02 -0.34,0.88 -1.21,1.50 -1.86,0.32 -0.11,-0.23 -0.55,-1.31 0.26,-3.65 0.16,-0.46 0.37,-1.13 0.37,-1.13 z M 248.51,23.96 c 0.18,-0.51 -0.04,-0.79 -0.29,-0.17 -0.26,0.63 -1.33,2.79 -1.17,5.34 0.04,0.59 0.43,1.74 1.32,1.77 0.46,0.00 1.05,-0.33 1.47,-1.78 0.07,-0.33 0.12,-0.59 0.15,-0.71 0.05,-0.19 -0.10,-0.43 -0.25,0.02 -0.34,0.88 -1.21,1.50 -1.86,0.32 -0.11,-0.23 -0.55,-1.31 0.26,-3.65 0.16,-0.45 0.37,-1.13 0.37,-1.13 z M 231.18,15.36 c 0.49,-0.03 1.10,-0.41 1.47,-1.96 0.06,-0.35 0.09,-0.63 0.12,-0.77 0.04,-0.21 -0.13,-0.45 -0.26,0.03 -0.31,0.95 -1.20,1.66 -1.95,0.44 -0.12,-0.24 -0.65,-1.36 0.08,-3.89 0.15,-0.49 0.33,-1.22 0.33,-1.22 0.16,-0.55 -0.08,-0.84 -0.32,-0.16 -0.24,0.68 -1.26,3.03 -0.95,5.72 0.07,0.62 0.55,1.82 1.49,1.80 z M 226.03,16.63 c -0.24,0.68 -1.26,3.03 -0.95,5.72 0.07,0.62 0.55,1.82 1.49,1.80 0.49,-0.03 1.10,-0.41 1.47,-1.96 0.06,-0.35 0.09,-0.63 0.12,-0.77 0.04,-0.21 -0.13,-0.45 -0.26,0.03 -0.31,0.95 -1.20,1.66 -1.95,0.44 -0.12,-0.24 -0.65,-1.36 0.08,-3.89 0.15,-0.49 0.33,-1.22 0.33,-1.22 0.16,-0.55 -0.08,-0.84 -0.32,-0.16 z M 219.60,31.06 c 0.16,-0.55 -0.08,-0.84 -0.32,-0.16 -0.24,0.68 -1.26,3.03 -0.95,5.72 0.07,0.62 0.55,1.82 1.49,1.80 0.49,-0.03 1.10,-0.41 1.46,-1.96 0.06,-0.35 0.09,-0.63 0.12,-0.77 0.04,-0.21 -0.13,-0.45 -0.26,0.03 -0.31,0.95 -1.20,1.65 -1.95,0.44 -0.12,-0.24 -0.65,-1.36 0.08,-3.89 0.15,-0.49 0.33,-1.22 0.33,-1.22 z M 248.17,46.13 c -0.31,0.95 -1.20,1.66 -1.95,0.44 -0.12,-0.24 -0.65,-1.36 0.08,-3.89 0.15,-0.49 0.33,-1.22 0.33,-1.22 0.17,-0.55 -0.08,-0.84 -0.32,-0.16 -0.24,0.68 -1.26,3.03 -0.95,5.72 0.07,0.62 0.55,1.82 1.49,1.80 0.49,-0.03 1.10,-0.41 1.46,-1.96 0.06,-0.35 0.09,-0.63 0.12,-0.77 0.04,-0.21 -0.13,-0.45 -0.26,0.03 z M 297.20,42.30 c -0.34,0.88 -1.21,1.50 -1.86,0.32 -0.11,-0.24 -0.55,-1.31 0.26,-3.65 0.16,-0.46 0.37,-1.13 0.37,-1.13 0.18,-0.51 -0.04,-0.79 -0.29,-0.17 -0.26,0.63 -1.33,2.79 -1.17,5.34 0.04,0.59 0.43,1.74 1.32,1.77 0.46,0.00 1.05,-0.33 1.47,-1.78 0.07,-0.32 0.12,-0.59 0.15,-0.71 0.05,-0.20 -0.10,-0.43 -0.25,0.02 z M 247.81,8.66 c 0.43,0.00 0.98,-0.31 1.38,-1.66 0.07,-0.30 0.11,-0.55 0.14,-0.67 0.04,-0.18 -0.09,-0.40 -0.23,0.02 -0.31,0.83 -1.13,1.41 -1.74,0.30 -0.10,-0.22 -0.51,-1.22 0.25,-3.42 0.15,-0.43 0.35,-1.06 0.35,-1.06 0.17,-0.48 -0.03,-0.74 -0.28,-0.15 -0.24,0.59 -1.25,2.61 -1.09,5.00 0.04,0.55 0.40,1.63 1.23,1.65 z M 217.68,10.18 c 0.18,0.08 0.36,0.08 0.39,-0.13 0.03,-0.21 0.22,-0.70 0.58,-0.39 0.26,0.22 2.33,1.76 3.11,4.03 0.66,1.97 -3.96,6.45 -4.20,6.66 -0.44,0.37 -0.27,0.57 -0.06,0.44 0.21,-0.13 0.42,-0.19 2.82,-2.08 1.94,-1.52 2.23,-3.13 2.31,-4.34 0.02,-0.06 0.03,-0.13 0.03,-0.21 0.09,-1.48 -0.01,-4.03 0.04,-4.81 0.07,-1.10 0.39,-3.37 1.84,-2.32 0.33,0.24 0.68,0.56 0.68,0.56 0.32,0.34 0.71,0.73 0.85,0.29 0.21,-0.66 0.34,-1.74 0.00,-2.29 -0.15,-0.24 -2.00,-2.25 -3.02,-0.69 -1.26,1.94 -1.15,4.34 -1.11,7.03 -0.25,-0.54 -1.67,-4.03 -5.45,-5.78 -0.27,-0.13 -0.78,0.20 -0.76,1.05 0.01,0.49 -0.03,1.70 0.34,2.01 0.37,0.31 1.43,0.89 1.61,0.97 z M 290.13,8.71 c 0.00,0.00 1.55,1.45 1.80,1.72 0.25,0.26 0.55,0.12 0.41,-0.30 -0.14,-0.42 -3.32,-8.09 -3.42,-8.36 -0.10,-0.27 -0.21,-0.46 -0.33,-0.15 -0.13,0.31 -1.04,2.59 -1.04,2.59 0.08,0.52 4.81,26.41 5.02,27.69 0.07,0.42 0.40,1.81 -0.04,2.29 -0.77,1.08 -7.74,3.83 -10.05,-0.29 0.68,-0.46 3.74,-1.85 2.99,-7.11 -1.19,-5.41 -3.81,-4.53 -4.80,-3.61 -0.99,0.92 -2.79,3.65 -1.12,8.95 -2.40,1.44 -8.73,3.71 -12.12,6.41 -2.27,1.81 -4.82,5.81 -5.97,6.80 -2.84,2.94 -8.09,3.20 -6.17,-3.79 0.42,-1.42 0.64,-2.15 0.85,-2.77 1.23,-0.43 2.54,-1.01 3.92,-1.76 1.32,-0.73 2.84,-1.58 3.23,-3.94 0.13,-0.92 0.07,-2.22 0.07,-2.22 -0.18,-1.23 -0.76,-5.14 -3.81,-7.24 -1.10,-0.75 -3.04,-1.24 -4.31,0.29 -1.37,1.64 -2.24,3.92 -1.39,5.68 0.86,1.76 3.47,1.91 4.88,1.45 0.80,-0.26 2.50,-0.16 2.99,0.64 0.39,0.63 0.42,0.77 -0.09,1.23 -0.51,0.46 -9.45,6.49 -16.72,2.84 -0.95,-0.48 -3.25,-2.44 -4.05,-10.65 -0.21,-2.16 -1.17,-18.19 -3.59,-23.14 -0.31,-0.68 -0.35,-0.48 -0.55,0.07 -0.20,0.55 -0.99,2.09 -0.73,2.82 1.72,3.59 3.17,20.48 3.61,23.54 0.21,1.46 0.41,9.03 6.40,11.07 1.09,0.37 4.30,1.07 8.89,-0.26 -0.86,2.39 -2.55,8.33 2.42,9.99 1.45,0.43 4.36,0.26 6.67,-3.00 0.99,-1.32 4.07,-6.09 9.64,-8.35 1.82,-0.74 6.27,-2.84 7.06,-3.16 0.37,0.77 2.06,5.33 8.26,4.35 0.70,-0.13 4.56,-0.84 5.01,-4.97 0.07,-0.89 0.35,-5.07 -1.15,-11.56 -0.26,-1.34 -2.68,-13.78 -2.68,-13.78 z M 255.67,27.92 c -1.00,-0.52 0.18,-1.43 0.66,-1.65 0.48,-0.22 2.15,-0.39 3.42,1.66 0.00,0.00 -2.19,0.70 -4.09,-0.01 z M 281.16,31.46 c 0.00,0.00 -0.69,-1.21 -1.10,-2.90 -0.25,-1.00 0.12,-1.83 1.25,-2.71 1.13,-0.88 2.54,1.58 2.87,2.25 0.87,1.61 -2.53,3.09 -3.02,3.35 z M 236.52,31.92 c -0.13,-0.63 -2.53,-6.40 -2.53,-6.40 0.58,0.25 0.96,0.36 1.17,0.46 0.21,0.09 0.56,-0.11 0.24,-0.55 -0.32,-0.44 -2.44,-3.09 -2.50,-3.26 -0.06,-0.17 -0.15,-0.31 -0.21,-0.53 -0.06,-0.23 -0.21,-0.19 -0.30,0.00 -0.09,0.19 -0.68,2.06 -0.71,2.23 -0.04,0.17 0.39,1.89 0.68,2.67 0.73,2.23 2.29,5.36 2.54,5.87 0.24,0.51 0.68,1.35 0.09,2.12 -0.58,0.76 -5.31,5.33 -13.15,7.23 -1.23,0.30 -6.42,1.33 -9.16,-2.60 -0.45,-0.65 -2.54,-3.88 -0.15,-9.90 0.01,-0.01 0.01,-0.03 0.02,-0.04 0.04,0.00 0.07,0.01 0.11,0.01 0.76,-0.05 1.71,-0.74 2.25,-3.53 0.08,-0.63 0.13,-1.13 0.17,-1.38 0.05,-0.38 -0.21,-0.81 -0.41,0.06 -0.46,1.72 -1.84,2.98 -3.06,0.78 -0.20,-0.44 -1.05,-2.45 0.04,-7.01 0.22,-0.88 0.49,-2.20 0.49,-2.20 0.25,-1.00 -0.15,-1.51 -0.51,-0.29 -0.36,1.22 -1.91,5.46 -1.36,10.32 0.11,0.94 0.67,2.60 1.71,3.10 -0.01,0.02 -0.02,0.04 -0.04,0.06 -0.53,0.89 -5.16,12.62 3.76,15.52 1.95,0.64 7.10,1.89 16.60,-4.94 0.90,-0.65 5.31,-3.31 4.20,-7.80 z M 340.89,7.03 c 0.17,0.09 0.36,0.11 0.41,-0.10 0.05,-0.21 0.28,-0.68 0.62,-0.34 0.28,0.28 2.09,1.78 3.03,4.95 0.16,0.42 0.55,0.46 0.64,-0.14 0.22,-1.47 0.34,-4.02 0.45,-4.79 0.16,-1.08 0.68,-3.32 2.06,-2.16 0.31,0.27 0.64,0.61 0.64,0.61 0.29,0.37 0.66,0.79 0.84,0.36 0.27,-0.64 0.49,-1.70 0.19,-2.28 -0.13,-0.26 -1.84,-2.41 -3.00,-0.93 -1.44,1.83 -1.53,4.23 -1.72,6.91 -0.20,-0.56 -1.35,-4.16 -5.03,-6.21 -0.27,-0.15 -0.81,0.13 -0.86,0.98 -0.03,0.49 -0.17,1.69 0.18,2.03 0.35,0.34 1.37,1.01 1.54,1.10 z M 361.50,14.30 c 0.18,-0.50 -0.04,-0.77 -0.29,-0.16 -0.25,0.61 -1.30,2.73 -1.14,5.22 0.04,0.58 0.42,1.70 1.29,1.73 0.45,0.00 1.03,-0.33 1.44,-1.73 0.07,-0.32 0.12,-0.57 0.15,-0.70 0.04,-0.19 -0.10,-0.42 -0.24,0.02 -0.33,0.86 -1.18,1.47 -1.82,0.31 -0.10,-0.23 -0.53,-1.28 0.26,-3.57 0.16,-0.45 0.36,-1.11 0.36,-1.11 z M 358.74,6.37 c 0.79,0.58 1.94,1.04 1.94,1.04 -3.66,4.48 -10.85,7.67 -12.56,9.01 -0.51,0.39 -0.44,0.61 -0.12,0.53 0.28,-0.08 5.76,-1.61 10.76,-5.90 2.29,-1.97 2.23,-2.11 2.81,-3.31 0.50,0.26 0.84,0.67 1.03,0.91 0.28,0.34 0.43,0.60 0.56,0.23 0.48,-1.33 -0.20,-2.13 -0.84,-2.54 0.00,0.00 0.67,-2.07 -0.56,-4.14 -0.21,-0.35 -1.43,-1.46 -2.85,0.74 -0.55,0.84 -0.96,2.85 -0.17,3.42 z M 359.47,4.34 c 0.73,-1.02 1.08,-0.99 1.36,-0.82 0.82,0.77 0.70,2.02 0.67,2.31 0.00,0.00 -1.05,-0.49 -1.52,-0.70 -0.47,-0.20 -0.72,-0.50 -0.50,-0.80 z M 335.39,20.28 c 0.48,0.00 1.11,-0.35 1.55,-1.87 0.08,-0.34 0.13,-0.62 0.16,-0.75 0.05,-0.21 -0.10,-0.45 -0.26,0.02 -0.35,0.93 -1.27,1.58 -1.96,0.34 -0.11,-0.25 -0.58,-1.38 0.28,-3.86 0.17,-0.48 0.39,-1.20 0.39,-1.20 0.19,-0.54 -0.04,-0.84 -0.31,-0.17 -0.27,0.66 -1.40,2.95 -1.23,5.64 0.04,0.62 0.45,1.83 1.39,1.87 z M 363.87,37.21 c -0.25,0.68 -0.34,1.12 -0.31,1.38 0.03,0.26 0.12,1.10 0.12,1.10 -0.25,0.20 -1.33,0.87 -2.40,0.08 0.07,-0.23 0.21,-0.70 0.24,-0.95 0.12,-0.40 -0.13,-0.69 -0.32,-0.28 -0.20,0.41 -0.65,1.79 -0.99,2.10 -0.34,0.31 -0.73,1.45 -3.30,0.29 -0.45,-0.17 -1.24,-0.75 -2.46,0.48 -2.77,2.57 -4.68,2.78 -7.79,3.88 -0.38,0.17 -1.16,0.76 -0.23,0.67 0.94,-0.09 4.87,0.00 7.01,-2.46 0.45,-0.43 0.96,-1.58 2.66,-0.92 0.94,0.36 2.68,1.85 4.58,-1.10 1.12,0.75 2.82,0.45 3.09,-0.38 0.27,-0.82 0.58,-1.64 0.58,-2.20 0.00,-0.56 -0.05,-1.30 -0.05,-1.30 -0.04,-0.44 -0.19,-1.07 -0.44,-0.40 z M 367.08,24.89 c -0.25,-0.28 -0.37,-0.01 -0.46,0.31 -0.09,0.32 -0.36,1.52 -0.54,2.27 0.00,0.00 0.71,1.16 0.97,1.75 0.25,0.59 -0.12,0.92 -0.86,1.01 -2.08,0.25 -3.73,-0.94 -4.30,-1.49 -0.57,-0.55 0.05,-1.52 0.51,-2.68 0.37,-0.93 -0.32,-1.04 -0.84,0.00 -1.76,4.63 -4.23,5.12 -4.88,5.30 -5.86,1.60 -5.36,-3.76 -5.34,-4.64 0.02,-0.88 -0.62,-0.55 -1.34,0.03 -2.47,1.98 -4.45,3.14 -5.52,3.62 -0.92,-1.80 -2.26,-2.93 -2.82,-3.34 -6.34,-4.63 -6.87,4.71 -6.67,5.71 0.97,3.97 7.45,1.56 8.46,1.44 1.02,-0.12 0.68,1.22 0.11,2.02 -1.41,1.97 -3.03,3.38 -4.50,4.58 -6.28,5.13 -9.44,4.72 -10.41,4.69 -6.17,-0.17 -5.60,-6.82 -5.26,-8.24 1.86,-1.57 3.45,-3.28 4.38,-5.04 0.38,-0.96 1.03,-3.15 -0.15,-5.91 -0.62,-1.21 -2.56,-4.60 -2.56,-4.60 0.00,0.00 1.43,0.04 1.57,0.04 0.14,0.00 0.41,-0.14 0.06,-0.54 -0.35,-0.40 -3.36,-3.41 -3.54,-3.65 -0.18,-0.24 -0.35,-0.41 -0.45,-0.06 -0.10,0.35 -0.36,1.88 -0.42,2.20 -0.06,0.31 -0.06,0.63 0.10,0.90 0.15,0.27 0.55,1.20 0.84,1.96 0.29,0.76 3.25,6.47 3.53,6.98 0.27,0.51 0.33,0.89 0.06,1.22 -9.53,10.05 -27.91,16.23 -28.50,16.57 -0.59,0.34 -0.43,0.61 0.56,0.43 1.48,-0.26 9.74,-1.64 12.09,-2.77 1.55,-0.75 6.97,-3.41 11.41,-6.89 -0.12,0.90 -0.24,2.22 -0.17,3.89 0.30,8.08 7.53,6.74 9.43,6.33 5.68,-1.25 12.64,-9.11 13.23,-10.69 0.58,-1.56 0.67,-2.98 0.54,-4.22 1.50,-0.81 4.71,-3.40 4.71,-3.40 0.13,3.45 2.88,4.48 3.72,4.63 3.96,0.60 5.94,-2.71 6.78,-3.78 0.72,1.89 2.45,2.25 3.34,2.43 3.41,0.68 4.08,-1.74 4.26,-2.29 1.07,-3.33 -0.86,-5.81 -1.11,-6.08 z M 338.44,31.57 c -2.02,-0.14 -1.85,-0.92 -1.57,-1.23 0.30,-0.33 2.78,-1.89 4.85,0.89 0.00,0.00 -0.86,0.50 -3.28,0.33 z M 308.60,14.16 c -0.06,-0.05 -0.15,-0.03 -0.20,0.04 -1.53,2.10 -1.53,2.10 -1.53,2.10 -0.05,0.07 -0.04,0.16 0.03,0.20 2.61,1.91 2.61,1.91 2.61,1.91 0.06,0.05 0.15,0.03 0.20,-0.04 1.32,-1.81 1.32,-1.81 1.32,-1.81 2.54,1.85 2.54,1.85 2.54,1.85 0.06,0.05 0.15,0.03 0.20,-0.04 1.53,-2.10 1.53,-2.10 1.53,-2.10 0.05,-0.07 0.04,-0.16 -0.03,-0.20 -2.61,-1.91 -2.61,-1.91 -2.61,-1.91 -0.06,-0.05 -0.15,-0.03 -0.20,0.04 -1.32,1.81 -1.32,1.81 -1.32,1.81 z M 307.97,23.91 c 0.00,0.00 1.25,-0.31 1.47,-0.38 0.22,-0.06 0.34,-0.35 -0.05,-0.55 -0.39,-0.20 -4.09,-1.67 -4.37,-1.79 -0.28,-0.11 -0.38,-0.24 -0.41,0.06 -0.02,0.30 -0.07,2.73 -0.07,2.73 0.00,0.00 -0.06,0.17 0.27,0.35 0.32,0.18 0.64,0.58 0.90,0.84 0.26,0.26 3.70,2.98 3.87,3.07 0.00,0.00 -1.72,3.02 -1.94,5.38 -0.22,2.36 0.04,5.63 3.27,4.57 0.87,-0.25 4.49,-1.69 5.30,-4.21 0.26,-0.93 1.01,-2.61 -0.21,-4.31 -0.70,-1.00 -3.53,-2.69 -3.53,-2.69 0.00,0.00 2.17,-3.00 2.38,-3.37 0.21,-0.37 1.00,-2.69 1.09,-3.26 0.09,-0.56 0.13,-0.84 -0.29,-0.32 -0.42,0.52 -4.63,6.05 -4.63,6.05 z M 314.93,32.79 c -1.20,0.99 -3.72,2.29 -4.43,2.36 -0.71,0.07 -2.59,-0.28 -1.77,-2.20 0.28,-0.62 2.16,-3.84 2.16,-3.84 0.70,0.39 5.24,2.70 4.04,3.69 z M 301.13,13.25 c -0.55,0.32 -0.44,0.61 -0.12,0.53 0.17,-0.04 3.05,-0.49 6.41,-3.05 1.82,-1.38 2.92,-3.74 2.92,-3.74 0.00,0.00 0.91,0.76 1.03,0.91 0.28,0.34 0.43,0.60 0.56,0.23 0.48,-1.33 -0.20,-2.13 -0.84,-2.54 0.00,0.00 0.67,-2.07 -0.56,-4.14 -0.21,-0.35 -1.43,-1.46 -2.85,0.74 -0.55,0.84 -0.96,2.85 -0.17,3.42 0.79,0.58 1.94,1.04 1.94,1.04 -3.66,4.48 -6.16,5.34 -8.30,6.59 z M 308.73,4.39 c -0.47,-0.20 -0.72,-0.50 -0.50,-0.80 0.73,-1.02 1.08,-0.99 1.36,-0.82 0.82,0.77 0.70,2.03 0.67,2.31 0.00,0.00 -1.05,-0.49 -1.52,-0.69 z M 317.70,12.30 c 0.25,-0.16 13.84,-8.02 14.32,-8.31 0.46,-0.29 0.72,-0.41 0.91,-0.85 0.18,-0.44 0.23,-0.51 0.33,-0.82 0.11,-0.32 0.21,-0.67 -0.61,-0.19 -0.53,0.31 -14.04,8.11 -14.59,8.46 -0.55,0.35 -0.74,0.44 -0.83,0.87 -0.09,0.42 -0.13,0.67 -0.16,0.73 -0.10,0.28 -0.17,0.63 0.64,0.10 z" />
     </g>
</svg>
