<?xml version="1.0" encoding="UTF-8"?>
<svg version="1.1" id="Layer_1" x="0px" y="0px" width="578" height="51" viewBox="0 0 578 51"
xml:space="preserve" xmlns="http://www.w3.org/2000/svg" xmlns:svg="http://www.w3.org/2000/svg" xmlns:rdf="http://www.w3.org/1999/02/22-rdf-syntax-ns#"  xmlns:cc="http://creativecommons.org/ns#" xmlns:dc="http://purl.org/dc/elements/1.1/">
     <g>
<path d="M 270.19,6.11 c -3.62,3.87 -8.54,7.42 -10.57,8.43 -0.52,0.26 -0.44,0.53 -0.14,0.47 0.15,-0.03 2.80,-0.81 6.06,-2.90 2.74,-1.76 5.46,-5.64 5.46,-5.64 0.00,0.00 0.79,0.75 0.89,0.90 0.23,0.33 0.35,0.57 0.49,0.25 0.52,-1.18 -0.05,-1.96 -0.62,-2.37 0.00,0.00 0.74,-1.85 -0.26,-3.82 -0.17,-0.33 -1.22,-1.42 -2.65,0.50 -0.56,0.73 -1.05,2.54 -0.37,3.12 0.68,0.58 1.71,1.07 1.71,1.07 z M 269.27,3.22 c 0.73,-0.89 1.05,-0.83 1.29,-0.67 0.71,0.75 0.51,1.89 0.47,2.16 0.00,0.00 -0.93,-0.52 -1.35,-0.73 -0.42,-0.21 -0.63,-0.50 -0.41,-0.76 z M 274.05,13.86 c 0.12,0.23 0.15,0.49 -0.25,0.66 -0.40,0.17 -2.24,0.56 -2.58,-1.40 -0.34,-1.96 -0.37,-2.53 -0.54,-2.86 -0.17,-0.33 -0.33,-0.37 -0.46,-0.04 -0.13,0.33 -0.21,1.01 -0.23,1.13 -0.02,0.11 -0.02,0.19 0.05,0.31 0.07,0.12 0.80,2.31 0.47,2.91 -0.33,0.60 -1.98,1.69 -2.84,0.55 -0.41,-0.79 -0.16,-2.80 -0.16,-3.27 0.00,-0.47 -0.15,-0.63 -0.35,-0.25 -0.20,0.38 -0.31,0.63 -0.30,0.97 0.01,0.34 0.06,1.81 0.03,2.27 -0.03,0.46 0.00,1.96 0.88,2.38 0.88,0.42 2.17,0.03 3.14,-1.81 0.75,1.09 1.90,1.10 2.51,0.87 0.52,-0.19 1.10,-0.98 1.28,-2.06 0.17,-1.08 -0.11,-1.83 -0.45,-2.44 -0.45,-0.75 -0.75,-2.02 -0.75,-2.02 -0.16,-0.45 -0.28,-0.91 -0.48,-0.29 -0.20,0.62 -0.35,1.11 -0.08,1.82 0.27,0.71 1.00,2.33 1.12,2.56 z M 218.70,30.25 c -1.03,-0.20 -2.25,-1.09 -2.51,-1.51 -0.27,-0.42 -0.23,-0.90 0.59,-1.37 0.82,-0.47 1.70,-0.79 2.33,0.25 0.12,0.17 0.25,0.17 0.52,-0.10 0.26,-0.26 0.79,-1.00 0.93,-1.21 0.14,-0.21 0.25,-0.56 0.03,-0.82 -0.22,-0.26 -1.12,-1.49 -2.57,-0.37 -1.45,1.12 -4.79,4.37 -3.29,5.89 0.87,0.71 1.27,1.05 1.27,1.05 -0.41,0.16 -0.76,0.55 -1.00,1.04 -0.25,0.50 -0.28,0.61 -0.41,0.89 -0.13,0.28 -0.20,0.66 0.49,0.27 0.69,-0.39 2.33,-1.95 6.77,-2.93 0.61,-0.13 1.15,-1.14 1.15,-1.14 0.26,-0.43 0.77,-1.42 -0.09,-0.93 -0.86,0.49 -3.18,1.18 -4.21,0.98 z M 293.88,41.46 c 0.21,-0.43 1.67,-3.39 -0.06,-14.22 -0.13,-0.90 -2.76,-19.20 -2.76,-19.20 0.00,0.00 1.55,1.42 1.80,1.68 0.25,0.26 0.55,0.12 0.41,-0.29 -0.14,-0.41 -3.31,-7.91 -3.42,-8.17 -0.10,-0.26 -0.20,-0.45 -0.33,-0.15 -0.13,0.30 -0.88,2.33 -0.88,2.33 0.20,1.32 1.99,15.47 2.10,16.44 0.12,0.97 2.63,16.97 2.76,21.40 -0.04,0.45 0.17,0.62 0.38,0.19 z M 229.48,38.17 c -0.04,0.45 0.17,0.62 0.38,0.19 0.21,-0.43 1.67,-3.39 -0.06,-14.22 -0.13,-0.90 -2.81,-13.30 -2.81,-13.30 0.00,0.00 1.55,1.42 1.80,1.68 0.25,0.26 0.55,0.12 0.41,-0.29 -0.14,-0.41 -3.31,-7.91 -3.42,-8.17 -0.10,-0.26 -0.20,-0.45 -0.33,-0.15 -0.13,0.30 -0.98,2.55 -0.98,2.55 0.20,1.32 1.98,9.47 2.10,10.43 0.12,0.97 3.44,15.73 2.92,21.28 z M 272.68,22.16 c 0.06,0.05 0.15,0.03 0.20,-0.04 1.53,-2.10 1.53,-2.10 1.53,-2.10 0.05,-0.07 0.04,-0.16 -0.03,-0.21 -2.62,-1.91 -2.62,-1.91 -2.62,-1.91 -0.06,-0.05 -0.15,-0.03 -0.20,0.04 -1.53,2.10 -1.53,2.10 -1.53,2.10 -0.05,0.07 -0.04,0.16 0.03,0.20 z M 273.91,22.09 c -1.32,1.81 -1.32,1.81 -1.32,1.81 -2.54,-1.85 -2.54,-1.85 -2.54,-1.85 -0.06,-0.05 -0.15,-0.03 -0.20,0.04 -1.53,2.10 -1.53,2.10 -1.53,2.10 -0.05,0.07 -0.04,0.16 0.03,0.20 2.61,1.91 2.61,1.91 2.61,1.91 0.06,0.05 0.15,0.03 0.20,-0.04 1.32,-1.81 1.32,-1.81 1.32,-1.81 2.54,1.85 2.54,1.85 2.54,1.85 0.06,0.05 0.15,0.03 0.20,-0.04 1.53,-2.10 1.53,-2.10 1.53,-2.10 0.05,-0.07 0.04,-0.16 -0.03,-0.21 -2.61,-1.91 -2.61,-1.91 -2.61,-1.91 -0.06,-0.05 -0.15,-0.03 -0.20,0.04 z M 230.90,13.91 c 0.30,-0.18 13.68,-7.44 14.23,-7.77 0.54,-0.32 0.81,-0.52 1.00,-1.04 0.19,-0.52 0.23,-0.61 0.33,-0.97 0.10,-0.38 0.26,-0.69 -0.72,-0.18 -0.69,0.36 -13.84,7.58 -14.54,7.96 -0.66,0.37 -0.83,0.56 -0.91,1.06 -0.08,0.50 -0.11,0.78 -0.13,0.86 -0.10,0.33 -0.16,0.63 0.75,0.08 z M 222.25,36.14 c 0.21,-0.42 0.26,-0.50 0.38,-0.80 0.12,-0.32 0.25,-0.65 -0.60,-0.22 -0.55,0.28 -7.00,3.07 -7.57,3.38 -0.57,0.32 -0.77,0.39 -0.88,0.81 -0.11,0.42 -0.17,0.66 -0.20,0.72 -0.12,0.28 -0.21,0.62 0.63,0.14 0.26,-0.15 6.82,-2.99 7.29,-3.25 0.47,-0.27 0.75,-0.36 0.96,-0.79 z M 234.55,20.42 c -0.11,0.53 -0.16,0.81 -0.19,0.92 -0.10,0.36 -0.25,0.73 0.80,0.13 0.32,-0.19 25.14,-13.65 25.71,-14.02 0.56,-0.37 0.90,-0.51 1.13,-1.06 0.23,-0.55 0.29,-0.64 0.41,-1.02 0.13,-0.41 0.29,-0.78 -0.76,-0.23 -0.70,0.36 -25.33,13.81 -26.05,14.20 -0.71,0.39 -0.93,0.55 -1.04,1.08 z M 290.02,42.10 c -0.31,0.83 -1.13,1.41 -1.74,0.30 -0.10,-0.22 -0.51,-1.22 0.24,-3.42 0.15,-0.43 0.35,-1.06 0.35,-1.06 0.17,-0.48 -0.03,-0.74 -0.28,-0.15 -0.24,0.59 -1.25,2.61 -1.09,5.00 0.04,0.55 0.40,1.63 1.23,1.65 0.43,0.00 0.98,-0.31 1.38,-1.66 0.07,-0.30 0.11,-0.55 0.14,-0.67 0.04,-0.18 -0.09,-0.40 -0.23,0.02 z M 258.15,15.56 c 0.16,-0.64 -0.09,-0.96 -0.33,-0.18 -0.24,0.78 -1.27,3.48 -0.91,6.58 0.08,0.71 0.59,2.09 1.57,2.07 0.51,-0.03 1.13,-0.47 1.50,-2.25 0.06,-0.40 0.09,-0.72 0.11,-0.88 0.04,-0.24 -0.14,-0.51 -0.27,0.04 -0.31,1.10 -1.22,1.90 -2.02,0.50 -0.13,-0.28 -0.69,-1.56 0.04,-4.47 0.15,-0.56 0.33,-1.40 0.33,-1.40 z M 235.79,23.88 c 0.15,-0.58 -0.09,-0.88 -0.30,-0.17 -0.22,0.71 -1.16,3.17 -0.83,5.99 0.08,0.65 0.54,1.90 1.43,1.89 0.46,-0.03 1.03,-0.43 1.36,-2.05 0.05,-0.37 0.08,-0.66 0.10,-0.80 0.03,-0.22 -0.13,-0.47 -0.25,0.04 -0.28,1.00 -1.11,1.73 -1.84,0.46 -0.12,-0.26 -0.63,-1.42 0.03,-4.07 0.13,-0.51 0.30,-1.28 0.30,-1.28 z M 247.88,45.39 c -0.32,1.15 -1.28,1.99 -2.12,0.52 -0.14,-0.29 -0.72,-1.63 0.04,-4.68 0.15,-0.59 0.34,-1.47 0.34,-1.47 0.17,-0.67 -0.10,-1.01 -0.35,-0.19 -0.25,0.82 -1.33,3.65 -0.96,6.89 0.09,0.75 0.62,2.19 1.64,2.17 0.53,-0.03 1.19,-0.49 1.57,-2.36 0.06,-0.42 0.09,-0.76 0.12,-0.92 0.04,-0.25 -0.14,-0.54 -0.28,0.04 z M 275.77,39.71 c -0.24,0.68 -0.34,1.12 -0.32,1.38 0.03,0.26 0.12,1.10 0.12,1.10 -0.25,0.20 -1.33,0.87 -2.40,0.08 0.07,-0.23 0.21,-0.70 0.24,-0.95 0.12,-0.40 -0.13,-0.69 -0.32,-0.28 -0.20,0.41 -0.65,1.79 -0.99,2.10 -0.34,0.31 -0.74,1.45 -3.30,0.29 -0.45,-0.17 -1.23,-0.75 -2.46,0.48 -2.77,2.57 -4.68,2.78 -7.79,3.88 -0.38,0.17 -1.16,0.77 -0.23,0.67 0.94,-0.09 4.87,0.00 7.01,-2.46 0.45,-0.43 0.96,-1.58 2.66,-0.92 0.94,0.36 2.68,1.85 4.58,-1.10 1.12,0.75 2.82,0.45 3.09,-0.38 0.27,-0.82 0.58,-1.64 0.58,-2.20 0.00,-0.56 -0.05,-1.30 -0.05,-1.30 -0.04,-0.44 -0.19,-1.07 -0.44,-0.40 z M 214.75,13.17 c 0.16,0.07 0.32,0.07 0.35,-0.12 0.03,-0.19 0.20,-0.63 0.52,-0.35 0.23,0.20 2.08,1.56 2.79,3.58 0.60,1.76 -3.51,5.78 -3.72,5.97 -0.39,0.33 -0.24,0.51 -0.05,0.39 0.18,-0.12 0.37,-0.17 2.51,-1.87 1.72,-1.37 1.98,-2.80 2.04,-3.89 0.01,-0.05 0.03,-0.11 0.03,-0.19 0.08,-1.32 -0.02,-3.60 0.02,-4.30 0.06,-0.98 0.34,-3.01 1.63,-2.08 0.29,0.21 0.61,0.50 0.61,0.50 0.29,0.30 0.64,0.65 0.76,0.26 0.19,-0.59 0.29,-1.55 -0.01,-2.04 -0.14,-0.22 -1.80,-2.01 -2.70,-0.60 -1.12,1.74 -1.01,3.88 -0.96,6.28 -0.22,-0.48 -1.51,-3.59 -4.89,-5.14 -0.25,-0.11 -0.70,0.18 -0.68,0.94 0.01,0.44 -0.02,1.52 0.31,1.79 0.33,0.28 1.28,0.79 1.44,0.86 z M 283.41,8.20 c 0.00,0.00 1.55,1.45 1.80,1.72 0.25,0.26 0.55,0.12 0.41,-0.30 -0.14,-0.42 -3.31,-8.10 -3.42,-8.36 -0.10,-0.27 -0.20,-0.46 -0.33,-0.15 -0.13,0.31 -1.16,3.21 -1.16,3.21 -0.10,0.36 0.46,0.71 0.63,1.75 0.97,6.17 3.70,25.84 3.80,26.43 0.15,0.96 0.38,1.94 -0.32,2.09 -0.70,0.15 -3.08,0.60 -4.74,-2.17 0.05,-0.23 0.04,-0.35 0.07,-0.60 0.04,-0.25 -0.23,-0.68 -0.59,-0.10 -0.36,0.58 -1.11,4.26 -3.45,4.08 -0.78,-0.08 -2.47,-0.94 -2.19,-1.63 0.28,-0.69 0.40,-1.06 0.51,-1.37 0.11,-0.31 -0.12,-0.92 -0.59,-0.28 -0.48,0.64 -1.80,2.71 -3.37,3.43 -1.57,0.73 -3.51,0.73 -5.02,-1.73 0.12,-0.45 0.26,-0.81 0.35,-1.15 0.08,-0.35 -0.08,-0.86 -0.48,-0.48 -0.40,0.38 -6.38,8.26 -13.05,1.15 0.67,-0.37 2.63,-1.35 5.19,-2.38 0.15,-0.35 1.07,-2.33 0.94,-2.49 -0.13,-0.16 -8.22,-5.38 -16.77,-0.59 -0.68,0.38 -1.43,1.28 -1.54,2.95 0.00,0.48 0.26,0.55 0.62,0.29 0.35,-0.26 2.92,-2.49 6.67,1.21 -0.63,0.29 -5.74,1.90 -9.96,4.77 -2.68,1.82 -9.17,8.80 -10.43,9.27 -1.49,0.56 -5.25,0.89 -4.06,-5.05 0.26,-1.29 2.38,-5.58 3.07,-6.53 0.69,-0.96 0.40,-1.85 -0.73,-0.46 -1.12,1.39 -6.57,8.89 -1.91,13.83 1.35,1.43 4.52,2.25 8.22,-1.93 1.63,-1.85 5.21,-7.48 18.11,-11.64 1.09,1.17 3.71,4.63 8.42,4.78 0.84,0.00 3.44,-0.02 6.14,-3.39 1.41,3.80 4.71,2.92 5.55,2.59 0.84,-0.32 2.19,-1.40 3.05,-2.26 0.18,0.42 0.75,2.00 3.12,2.07 0.51,-0.02 2.02,-0.10 3.32,-2.93 0.85,0.73 2.30,2.78 6.04,1.46 0.38,-0.20 1.70,-1.44 1.34,-6.30 -0.13,-1.09 -3.25,-22.77 -3.25,-22.77 z M 250.15,31.67 c 0.00,0.00 -2.07,-1.73 -3.01,-2.29 3.21,-0.97 5.83,0.14 6.72,0.62 0.00,0.00 -2.38,1.17 -3.70,1.67 z M 355.32,14.87 c 0.18,-0.50 -0.04,-0.77 -0.29,-0.16 -0.25,0.61 -1.30,2.73 -1.14,5.22 0.04,0.58 0.42,1.70 1.29,1.73 0.45,0.00 1.03,-0.33 1.44,-1.74 0.07,-0.32 0.12,-0.57 0.15,-0.70 0.04,-0.19 -0.10,-0.42 -0.24,0.02 -0.33,0.86 -1.18,1.47 -1.82,0.31 -0.10,-0.23 -0.53,-1.28 0.26,-3.57 0.16,-0.44 0.36,-1.11 0.36,-1.11 z M 334.71,7.60 c 0.17,0.10 0.36,0.11 0.41,-0.10 0.05,-0.21 0.29,-0.68 0.62,-0.34 0.28,0.28 2.09,1.78 3.03,4.95 0.16,0.42 0.55,0.46 0.64,-0.14 0.22,-1.47 0.34,-4.02 0.45,-4.79 0.16,-1.09 0.68,-3.33 2.06,-2.16 0.31,0.26 0.64,0.61 0.64,0.61 0.29,0.37 0.66,0.79 0.84,0.36 0.27,-0.64 0.49,-1.70 0.19,-2.28 -0.13,-0.26 -1.83,-2.41 -3.00,-0.93 -1.44,1.83 -1.53,4.23 -1.72,6.91 -0.20,-0.56 -1.35,-4.16 -5.02,-6.21 -0.27,-0.15 -0.81,0.13 -0.86,0.98 -0.03,0.49 -0.17,1.69 0.18,2.03 0.35,0.34 1.37,1.01 1.54,1.10 z M 360.90,25.47 c -0.25,-0.28 -0.38,-0.01 -0.46,0.31 -0.09,0.32 -0.36,1.52 -0.53,2.27 0.00,0.00 0.71,1.16 0.97,1.76 0.25,0.59 -0.12,0.92 -0.86,1.01 -2.08,0.25 -3.73,-0.94 -4.30,-1.48 -0.57,-0.55 0.05,-1.52 0.51,-2.68 0.37,-0.93 -0.32,-1.04 -0.84,0.00 -1.76,4.63 -4.23,5.12 -4.88,5.30 -5.86,1.60 -5.36,-3.76 -5.34,-4.64 0.02,-0.88 -0.62,-0.55 -1.34,0.03 -2.47,1.98 -4.45,3.14 -5.52,3.62 -0.92,-1.80 -2.26,-2.93 -2.82,-3.34 -6.34,-4.63 -6.86,4.71 -6.67,5.71 0.97,3.97 7.44,1.56 8.46,1.44 1.01,-0.12 0.68,1.22 0.11,2.02 -1.41,1.97 -3.03,3.38 -4.50,4.57 -6.28,5.13 -9.43,4.72 -10.41,4.69 -6.17,-0.17 -5.60,-6.82 -5.26,-8.24 1.86,-1.57 3.45,-3.28 4.38,-5.04 0.38,-0.96 1.03,-3.16 -0.15,-5.91 -0.62,-1.21 -2.56,-4.60 -2.56,-4.60 0.00,0.00 1.43,0.04 1.57,0.04 0.14,0.00 0.41,-0.14 0.06,-0.55 -0.35,-0.40 -3.36,-3.40 -3.54,-3.65 -0.18,-0.24 -0.35,-0.41 -0.45,-0.06 -0.10,0.36 -0.36,1.88 -0.42,2.20 -0.06,0.31 -0.06,0.63 0.10,0.90 0.15,0.27 0.55,1.20 0.84,1.96 0.29,0.76 3.26,6.47 3.53,6.98 0.27,0.51 0.33,0.88 0.06,1.22 -9.53,10.05 -27.91,16.23 -28.50,16.57 -0.59,0.34 -0.43,0.61 0.56,0.43 1.48,-0.26 9.74,-1.64 12.09,-2.77 1.55,-0.75 6.98,-3.41 11.41,-6.89 -0.12,0.90 -0.24,2.22 -0.18,3.89 0.30,8.08 7.53,6.74 9.43,6.33 5.68,-1.25 12.64,-9.11 13.23,-10.69 0.58,-1.56 0.67,-2.98 0.54,-4.22 1.50,-0.81 4.71,-3.40 4.71,-3.40 0.13,3.45 2.88,4.48 3.72,4.63 3.96,0.60 5.94,-2.71 6.78,-3.78 0.72,1.89 2.45,2.25 3.34,2.43 3.41,0.68 4.08,-1.73 4.26,-2.29 1.07,-3.33 -0.86,-5.81 -1.11,-6.08 z M 332.26,32.15 c -2.03,-0.14 -1.85,-0.92 -1.57,-1.22 0.30,-0.33 2.78,-1.89 4.85,0.89 0.00,0.00 -0.86,0.50 -3.28,0.33 z M 329.21,20.85 c 0.48,0.00 1.11,-0.35 1.55,-1.87 0.08,-0.34 0.13,-0.62 0.16,-0.75 0.05,-0.21 -0.10,-0.45 -0.26,0.02 -0.35,0.93 -1.27,1.58 -1.96,0.33 -0.11,-0.25 -0.58,-1.38 0.28,-3.86 0.17,-0.48 0.39,-1.20 0.39,-1.20 0.19,-0.54 -0.04,-0.84 -0.31,-0.17 -0.27,0.66 -1.40,2.94 -1.23,5.64 0.04,0.62 0.45,1.83 1.39,1.86 z M 352.56,6.95 c 0.79,0.58 1.93,1.04 1.93,1.04 -3.66,4.48 -10.84,7.67 -12.55,9.01 -0.51,0.39 -0.44,0.61 -0.12,0.53 0.29,-0.08 5.76,-1.61 10.76,-5.90 2.29,-1.97 2.23,-2.11 2.81,-3.31 0.50,0.26 0.84,0.67 1.03,0.91 0.28,0.34 0.43,0.60 0.56,0.23 0.48,-1.33 -0.20,-2.13 -0.84,-2.54 0.00,0.00 0.67,-2.07 -0.56,-4.14 -0.21,-0.35 -1.43,-1.46 -2.85,0.74 -0.55,0.84 -0.96,2.85 -0.17,3.42 z M 353.29,4.91 c 0.73,-1.02 1.08,-0.98 1.36,-0.82 0.83,0.77 0.70,2.03 0.67,2.31 0.00,0.00 -1.05,-0.49 -1.52,-0.70 -0.47,-0.20 -0.72,-0.50 -0.50,-0.80 z M 311.52,12.88 c 0.25,-0.16 13.84,-8.02 14.32,-8.31 0.46,-0.29 0.72,-0.41 0.91,-0.85 0.18,-0.44 0.23,-0.52 0.33,-0.82 0.10,-0.32 0.21,-0.67 -0.61,-0.19 -0.53,0.31 -14.04,8.11 -14.59,8.46 -0.55,0.35 -0.74,0.44 -0.83,0.87 -0.09,0.42 -0.13,0.67 -0.16,0.73 -0.10,0.28 -0.17,0.63 0.64,0.10 z M 302.42,14.74 c -0.06,-0.05 -0.15,-0.03 -0.20,0.04 -1.53,2.10 -1.53,2.10 -1.53,2.10 -0.05,0.07 -0.04,0.16 0.03,0.21 2.61,1.91 2.61,1.91 2.61,1.91 0.06,0.05 0.15,0.03 0.20,-0.04 1.32,-1.81 1.32,-1.81 1.32,-1.81 2.54,1.85 2.54,1.85 2.54,1.85 0.06,0.05 0.15,0.03 0.20,-0.04 1.53,-2.10 1.53,-2.10 1.53,-2.10 0.05,-0.07 0.04,-0.16 -0.03,-0.20 -2.61,-1.91 -2.61,-1.91 -2.61,-1.91 -0.06,-0.05 -0.15,-0.03 -0.20,0.04 -1.32,1.81 -1.32,1.81 -1.32,1.81 z M 357.69,37.78 c -0.24,0.68 -0.34,1.12 -0.32,1.38 0.03,0.26 0.12,1.10 0.12,1.10 -0.25,0.20 -1.33,0.87 -2.40,0.08 0.07,-0.23 0.21,-0.70 0.24,-0.95 0.12,-0.40 -0.13,-0.69 -0.32,-0.28 -0.20,0.41 -0.65,1.79 -0.99,2.10 -0.34,0.31 -0.73,1.45 -3.30,0.29 -0.45,-0.17 -1.23,-0.75 -2.46,0.48 -2.77,2.57 -4.68,2.78 -7.79,3.88 -0.38,0.17 -1.16,0.77 -0.23,0.67 0.94,-0.09 4.87,0.00 7.01,-2.46 0.45,-0.43 0.96,-1.58 2.66,-0.92 0.94,0.36 2.68,1.85 4.58,-1.10 1.12,0.75 2.82,0.45 3.09,-0.38 0.27,-0.82 0.58,-1.64 0.58,-2.20 0.00,-0.56 -0.05,-1.30 -0.05,-1.30 -0.04,-0.44 -0.19,-1.07 -0.44,-0.40 z M 294.83,14.36 c 0.17,-0.04 3.05,-0.49 6.41,-3.05 1.82,-1.38 2.92,-3.74 2.92,-3.74 0.00,0.00 0.91,0.76 1.03,0.91 0.28,0.34 0.43,0.60 0.56,0.23 0.48,-1.33 -0.20,-2.13 -0.84,-2.54 0.00,0.00 0.67,-2.07 -0.56,-4.14 -0.21,-0.35 -1.43,-1.46 -2.85,0.74 -0.55,0.84 -0.96,2.85 -0.17,3.42 0.79,0.58 1.93,1.04 1.93,1.04 -3.66,4.48 -6.16,5.34 -8.30,6.59 -0.55,0.32 -0.44,0.61 -0.12,0.53 z M 302.55,4.96 c -0.47,-0.20 -0.72,-0.50 -0.50,-0.80 0.73,-1.02 1.08,-0.98 1.36,-0.82 0.83,0.77 0.70,2.03 0.67,2.31 0.00,0.00 -1.05,-0.49 -1.52,-0.70 z M 301.79,24.49 c 0.00,0.00 1.25,-0.31 1.47,-0.38 0.22,-0.06 0.34,-0.35 -0.05,-0.55 -0.39,-0.20 -4.09,-1.67 -4.37,-1.79 -0.28,-0.11 -0.38,-0.24 -0.41,0.06 -0.02,0.30 -0.07,2.73 -0.07,2.73 0.00,0.00 -0.06,0.17 0.27,0.35 0.32,0.18 0.64,0.58 0.90,0.84 0.26,0.26 3.70,2.98 3.87,3.07 0.00,0.00 -1.72,3.02 -1.94,5.38 -0.22,2.36 0.04,5.63 3.27,4.57 0.87,-0.25 4.49,-1.69 5.30,-4.21 0.26,-0.93 1.01,-2.61 -0.21,-4.31 -0.70,-1.00 -3.53,-2.69 -3.53,-2.69 0.00,0.00 2.17,-3.00 2.38,-3.37 0.21,-0.37 1.00,-2.69 1.09,-3.26 0.09,-0.56 0.13,-0.84 -0.29,-0.32 -0.42,0.52 -4.63,6.05 -4.63,6.05 z M 308.75,33.37 c -1.20,0.99 -3.72,2.29 -4.43,2.36 -0.71,0.07 -2.59,-0.28 -1.77,-2.20 0.28,-0.62 2.16,-3.84 2.16,-3.84 0.70,0.39 5.24,2.70 4.04,3.69 z" />
     </g>
</svg>
