<?xml version="1.0" encoding="UTF-8"?>
<svg version="1.1" id="Layer_1" x="0px" y="0px" width="578" height="50" viewBox="0 0 578 50"
xml:space="preserve" xmlns="http://www.w3.org/2000/svg" xmlns:svg="http://www.w3.org/2000/svg" xmlns:rdf="http://www.w3.org/1999/02/22-rdf-syntax-ns#"  xmlns:cc="http://creativecommons.org/ns#" xmlns:dc="http://purl.org/dc/elements/1.1/">
     <g>
<path d="M 272.66,22.43 c -1.92,2.63 -1.92,2.63 -1.92,2.63 -0.06,0.08 -0.05,0.20 0.03,0.25 3.27,2.38 3.27,2.38 3.27,2.38 0.08,0.06 0.19,0.04 0.25,-0.05 1.91,-2.63 1.91,-2.63 1.91,-2.63 0.06,-0.08 0.05,-0.20 -0.03,-0.25 -3.27,-2.38 -3.27,-2.38 -3.27,-2.38 -0.08,-0.06 -0.19,-0.04 -0.25,0.05 z M 244.60,26.50 c 0.68,0.08 1.09,0.47 1.27,0.69 0.08,0.09 0.18,0.02 0.22,-0.05 0.71,-1.56 -0.02,-2.49 -1.35,-2.82 -0.53,-0.13 -0.79,-0.85 1.10,-2.16 1.74,-1.21 30.14,-16.76 30.52,-17.05 0.52,-0.39 0.84,-0.55 1.03,-1.09 0.19,-0.54 0.24,-0.64 0.33,-1.01 0.10,-0.40 0.20,-0.82 -0.75,-0.18 -0.50,0.34 -30.60,16.67 -32.04,17.92 -0.72,0.63 -1.30,1.61 -1.48,2.65 -0.26,1.51 0.17,2.98 1.15,3.10 z M 257.51,25.72 c -1.09,0.80 -1.83,1.27 -1.83,1.27 -0.71,0.51 -1.33,1.46 -0.08,0.93 1.25,-0.53 2.91,-1.37 4.18,-3.28 0.37,-0.56 0.80,-1.30 -0.92,-1.56 -1.72,-0.26 -4.50,-0.66 -5.40,0.32 -0.90,0.98 -1.18,1.65 -1.45,2.07 -0.37,0.58 0.10,0.84 0.51,0.39 0.42,-0.45 0.71,-0.90 1.93,-0.87 1.22,0.03 4.15,-0.08 3.06,0.72 z M 268.80,20.26 c 0.88,0.42 2.17,0.03 3.14,-1.81 0.75,1.09 1.90,1.10 2.51,0.87 0.52,-0.19 1.11,-0.97 1.28,-2.06 0.17,-1.09 -0.11,-1.83 -0.45,-2.44 -0.45,-0.75 -0.75,-2.02 -0.75,-2.02 -0.16,-0.45 -0.28,-0.91 -0.48,-0.29 -0.20,0.62 -0.35,1.11 -0.08,1.82 0.27,0.71 1.00,2.33 1.13,2.56 0.12,0.23 0.15,0.49 -0.25,0.66 -0.40,0.17 -2.24,0.56 -2.58,-1.40 -0.34,-1.96 -0.37,-2.53 -0.54,-2.86 -0.17,-0.33 -0.33,-0.37 -0.46,-0.04 -0.13,0.33 -0.21,1.01 -0.23,1.12 -0.02,0.11 -0.02,0.19 0.05,0.31 0.07,0.12 0.80,2.31 0.47,2.91 -0.33,0.60 -1.98,1.69 -2.84,0.55 -0.41,-0.79 -0.16,-2.80 -0.16,-3.27 0.00,-0.47 -0.15,-0.63 -0.35,-0.25 -0.20,0.38 -0.31,0.63 -0.30,0.97 0.01,0.34 0.06,1.81 0.03,2.27 -0.03,0.46 0.00,1.96 0.88,2.38 z M 293.08,41.40 c -0.04,0.46 0.17,0.64 0.38,0.19 0.21,-0.44 1.67,-3.47 -0.06,-14.54 -0.13,-0.92 -2.76,-19.64 -2.76,-19.64 0.00,0.00 1.55,1.45 1.80,1.72 0.25,0.26 0.55,0.12 0.41,-0.30 -0.14,-0.42 -3.31,-8.10 -3.42,-8.36 -0.10,-0.27 -0.20,-0.46 -0.33,-0.15 -0.13,0.31 -0.88,2.38 -0.88,2.38 0.20,1.35 1.99,15.82 2.10,16.81 0.12,0.99 2.63,17.36 2.76,21.89 z M 285.78,23.36 c -2.80,-15.96 -2.80,-15.96 -2.80,-15.96 0.00,0.00 1.55,1.45 1.80,1.72 0.25,0.26 0.55,0.12 0.41,-0.30 -0.14,-0.42 -3.31,-8.10 -3.42,-8.36 -0.10,-0.27 -0.20,-0.46 -0.33,-0.15 -0.13,0.31 -1.03,2.62 -1.03,2.62 0.01,0.07 0.31,0.50 0.42,1.14 0.91,5.36 4.59,28.28 4.68,29.51 0.10,1.39 0.91,2.95 -2.93,3.78 -0.71,0.15 -4.03,0.53 -4.54,-3.20 0.00,-0.68 0.07,-0.75 0.11,-1.09 0.04,-0.34 0.04,-1.33 -0.94,-0.61 -0.98,0.72 -5.75,5.50 -12.39,5.83 -1.32,0.04 -6.42,0.62 -10.38,-3.85 -0.33,-0.22 -0.57,-0.13 -0.84,0.26 -0.26,0.40 -2.07,3.72 -3.65,4.33 -1.58,0.62 -6.27,1.65 -8.45,-5.30 -0.31,-1.21 -1.69,-11.02 -1.69,-11.02 0.00,0.00 -1.94,-15.33 -3.28,-19.40 -0.18,-0.57 -0.31,-0.90 -0.68,-0.02 -0.37,0.88 -0.84,2.35 -0.84,2.35 0.26,1.50 3.92,23.10 3.78,26.88 0.00,0.79 0.04,1.44 -0.84,2.55 -0.88,1.11 -7.37,8.57 -14.67,6.97 -0.85,-0.19 -8.04,-1.77 -3.45,-13.68 0.66,-0.25 1.41,-1.09 2.02,-3.25 0.14,-0.62 0.22,-1.12 0.28,-1.36 0.08,-0.37 -0.14,-0.82 -0.41,0.03 -0.60,1.68 -2.08,2.83 -3.11,0.53 -0.17,-0.45 -0.85,-2.53 0.60,-6.99 0.29,-0.86 0.67,-2.16 0.67,-2.16 0.33,-0.98 -0.02,-1.52 -0.48,-0.33 -0.46,1.19 -2.34,5.29 -2.18,10.18 0.03,1.02 0.53,2.93 1.72,3.35 -0.02,0.04 -0.03,0.07 -0.05,0.11 -0.45,1.18 -4.99,14.16 3.95,16.89 0.82,0.25 7.25,1.15 14.57,-6.64 0.65,-0.69 2.01,-2.14 2.21,-4.03 0.00,0.00 0.78,1.76 1.61,3.52 0.83,1.76 2.84,4.46 5.96,4.43 1.43,-0.01 4.23,-0.45 6.37,-4.35 0.03,0.93 -0.40,5.81 4.45,7.02 0.70,0.20 1.48,0.18 1.61,-0.53 0.13,-0.70 0.38,-3.75 0.38,-3.75 1.26,0.35 9.29,1.86 16.79,-5.44 0.00,0.00 -0.33,4.90 5.29,4.88 0.81,0.00 5.34,-0.38 5.06,-7.02 -0.05,-1.16 -1.36,-10.12 -1.36,-10.12 z M 245.81,7.54 c 0.16,0.09 0.33,0.10 0.37,-0.09 0.05,-0.19 0.26,-0.62 0.57,-0.31 0.26,0.26 1.91,1.63 2.77,4.53 0.15,0.38 0.51,0.42 0.59,-0.12 0.20,-1.34 0.31,-3.67 0.41,-4.38 0.15,-0.99 0.62,-3.04 1.88,-1.98 0.28,0.24 0.59,0.56 0.59,0.56 0.27,0.34 0.60,0.72 0.77,0.33 0.25,-0.59 0.45,-1.56 0.17,-2.08 -0.12,-0.23 -1.68,-2.21 -2.74,-0.85 -1.31,1.67 -1.40,3.87 -1.57,6.32 -0.19,-0.51 -1.23,-3.80 -4.59,-5.68 -0.24,-0.14 -0.74,0.12 -0.79,0.90 -0.03,0.45 -0.16,1.55 0.16,1.86 0.32,0.31 1.25,0.92 1.41,1.00 z M 240.45,42.79 c -0.55,0.27 -9.58,4.84 -10.19,5.18 -0.56,0.32 -0.70,0.50 -0.76,0.93 -0.06,0.43 -0.08,0.67 -0.10,0.74 -0.08,0.29 -0.19,0.54 0.64,0.05 0.40,-0.24 9.36,-4.66 9.93,-5.01 0.46,-0.28 0.69,-0.46 0.84,-0.91 0.15,-0.45 0.19,-0.53 0.26,-0.84 0.08,-0.33 0.20,-0.54 -0.62,-0.14 z M 275.09,41.74 c -0.40,-0.15 -1.03,-0.05 -1.87,1.08 -0.17,0.26 -0.30,0.48 -0.37,0.58 -0.10,0.16 -0.05,0.41 0.22,0.06 0.58,-0.66 1.55,-0.92 1.74,0.33 0.02,0.24 0.05,1.33 -1.43,3.12 -0.29,0.35 -0.69,0.87 -0.69,0.87 -0.33,0.39 -0.23,0.71 0.20,0.24 0.43,-0.47 2.08,-2.01 2.77,-4.30 0.16,-0.53 0.19,-1.67 -0.58,-1.98 z M 290.13,39.50 c -0.40,-0.15 -1.03,-0.05 -1.87,1.08 -0.17,0.26 -0.30,0.48 -0.37,0.58 -0.10,0.16 -0.05,0.41 0.22,0.06 0.58,-0.66 1.55,-0.92 1.74,0.33 0.02,0.24 0.05,1.33 -1.43,3.12 -0.29,0.35 -0.69,0.87 -0.69,0.87 -0.33,0.39 -0.23,0.71 0.20,0.24 0.43,-0.47 2.08,-2.01 2.77,-4.30 0.16,-0.53 0.19,-1.67 -0.58,-1.98 z M 265.78,24.55 c 0.21,-0.64 -0.10,-0.96 -0.40,-0.18 -0.30,0.78 -1.59,3.50 -1.19,6.59 0.09,0.72 0.69,2.08 1.88,2.05 0.61,-0.04 1.38,-0.49 1.85,-2.27 0.07,-0.40 0.12,-0.72 0.15,-0.88 0.05,-0.24 -0.16,-0.51 -0.33,0.04 -0.39,1.10 -1.51,1.92 -2.46,0.53 -0.16,-0.28 -0.82,-1.55 0.10,-4.47 0.19,-0.57 0.41,-1.41 0.41,-1.41 z M 229.70,30.53 c -0.16,-0.45 -0.85,-2.53 0.60,-6.99 0.29,-0.86 0.67,-2.16 0.67,-2.16 0.33,-0.98 -0.02,-1.52 -0.48,-0.33 -0.46,1.19 -2.34,5.29 -2.18,10.18 0.04,1.13 0.63,3.34 2.11,3.44 0.76,0.02 1.76,-0.60 2.53,-3.34 0.14,-0.62 0.22,-1.12 0.28,-1.36 0.08,-0.37 -0.14,-0.82 -0.41,0.03 -0.60,1.68 -2.08,2.82 -3.11,0.53 z M 223.22,9.09 c 0.18,0.08 0.36,0.08 0.40,-0.12 0.04,-0.21 0.23,-0.70 0.59,-0.38 0.25,0.23 2.30,1.79 3.04,4.07 0.63,1.99 -4.06,6.39 -4.31,6.59 -0.44,0.36 -0.28,0.57 -0.07,0.44 0.21,-0.13 0.42,-0.18 2.85,-2.03 1.96,-1.49 2.28,-3.09 2.38,-4.30 0.02,-0.06 0.03,-0.13 0.04,-0.21 0.11,-1.48 0.06,-4.03 0.12,-4.81 0.09,-1.09 0.45,-3.36 1.88,-2.29 0.32,0.24 0.67,0.57 0.67,0.57 0.31,0.35 0.70,0.74 0.85,0.31 0.22,-0.66 0.37,-1.73 0.04,-2.29 -0.15,-0.25 -1.97,-2.29 -3.01,-0.73 -1.29,1.92 -1.22,4.32 -1.23,7.01 -0.24,-0.55 -1.61,-4.06 -5.36,-5.87 -0.27,-0.13 -0.79,0.19 -0.78,1.03 0.00,0.49 -0.05,1.70 0.31,2.01 0.36,0.32 1.42,0.91 1.59,0.99 z M 351.64,6.66 c 0.79,0.58 1.94,1.04 1.94,1.04 -3.66,4.48 -10.84,7.67 -12.56,9.01 -0.51,0.39 -0.44,0.61 -0.12,0.53 0.28,-0.08 5.76,-1.61 10.76,-5.90 2.29,-1.97 2.23,-2.11 2.81,-3.31 0.50,0.26 0.84,0.67 1.03,0.91 0.28,0.34 0.43,0.60 0.56,0.23 0.48,-1.33 -0.20,-2.13 -0.84,-2.54 0.00,0.00 0.67,-2.07 -0.56,-4.14 -0.21,-0.35 -1.43,-1.46 -2.85,0.74 -0.55,0.84 -0.96,2.85 -0.18,3.42 z M 352.37,4.62 c 0.73,-1.02 1.08,-0.98 1.36,-0.82 0.83,0.77 0.70,2.03 0.67,2.31 0.00,0.00 -1.05,-0.49 -1.52,-0.70 -0.47,-0.20 -0.72,-0.50 -0.50,-0.80 z M 354.40,14.58 c 0.18,-0.50 -0.04,-0.77 -0.29,-0.16 -0.25,0.61 -1.30,2.73 -1.14,5.22 0.04,0.58 0.42,1.70 1.29,1.73 0.45,0.00 1.03,-0.33 1.44,-1.74 0.07,-0.32 0.12,-0.57 0.15,-0.70 0.04,-0.19 -0.10,-0.42 -0.24,0.02 -0.33,0.86 -1.18,1.47 -1.82,0.31 -0.10,-0.23 -0.54,-1.28 0.26,-3.57 0.16,-0.45 0.36,-1.11 0.36,-1.11 z M 328.29,20.56 c 0.48,0.00 1.11,-0.35 1.55,-1.88 0.08,-0.34 0.13,-0.62 0.16,-0.75 0.05,-0.21 -0.10,-0.45 -0.26,0.02 -0.35,0.93 -1.27,1.58 -1.96,0.33 -0.11,-0.25 -0.58,-1.38 0.28,-3.86 0.17,-0.48 0.39,-1.20 0.39,-1.20 0.19,-0.54 -0.04,-0.84 -0.31,-0.17 -0.27,0.66 -1.40,2.94 -1.23,5.64 0.04,0.62 0.45,1.83 1.39,1.87 z M 310.60,12.58 c 0.25,-0.16 13.84,-8.02 14.32,-8.31 0.46,-0.29 0.72,-0.41 0.91,-0.85 0.18,-0.44 0.23,-0.51 0.33,-0.82 0.10,-0.32 0.21,-0.67 -0.61,-0.19 -0.53,0.31 -14.04,8.11 -14.59,8.46 -0.55,0.35 -0.74,0.44 -0.83,0.86 -0.09,0.42 -0.13,0.67 -0.16,0.73 -0.10,0.28 -0.17,0.63 0.64,0.10 z M 333.79,7.31 c 0.17,0.09 0.36,0.11 0.41,-0.10 0.05,-0.21 0.29,-0.68 0.62,-0.34 0.28,0.28 2.09,1.78 3.03,4.95 0.16,0.42 0.55,0.46 0.64,-0.14 0.22,-1.47 0.33,-4.02 0.45,-4.79 0.17,-1.09 0.68,-3.33 2.06,-2.16 0.31,0.26 0.64,0.61 0.64,0.61 0.29,0.37 0.66,0.79 0.84,0.36 0.27,-0.64 0.49,-1.70 0.19,-2.28 -0.13,-0.26 -1.83,-2.41 -3.00,-0.93 -1.44,1.83 -1.53,4.23 -1.72,6.91 -0.20,-0.56 -1.35,-4.16 -5.02,-6.21 -0.27,-0.15 -0.81,0.13 -0.86,0.98 -0.03,0.49 -0.17,1.69 0.18,2.03 0.35,0.34 1.37,1.01 1.54,1.10 z M 300.87,24.19 c 0.00,0.00 1.25,-0.31 1.47,-0.38 0.22,-0.06 0.34,-0.35 -0.05,-0.55 -0.39,-0.20 -4.09,-1.67 -4.37,-1.79 -0.28,-0.11 -0.38,-0.24 -0.41,0.06 -0.02,0.30 -0.07,2.73 -0.07,2.73 0.00,0.00 -0.06,0.17 0.27,0.35 0.32,0.18 0.64,0.58 0.90,0.84 0.26,0.26 3.70,2.98 3.87,3.07 0.00,0.00 -1.72,3.02 -1.94,5.38 -0.22,2.36 0.04,5.63 3.27,4.57 0.87,-0.25 4.49,-1.69 5.30,-4.21 0.26,-0.93 1.01,-2.61 -0.21,-4.31 -0.70,-1.00 -3.53,-2.69 -3.53,-2.69 0.00,0.00 2.17,-3.00 2.38,-3.37 0.21,-0.37 1.00,-2.69 1.09,-3.26 0.09,-0.56 0.13,-0.84 -0.29,-0.32 -0.42,0.52 -4.63,6.05 -4.63,6.05 z M 307.83,33.08 c -1.20,0.99 -3.72,2.29 -4.43,2.36 -0.71,0.07 -2.59,-0.28 -1.77,-2.20 0.28,-0.62 2.16,-3.84 2.16,-3.84 0.70,0.39 5.24,2.70 4.04,3.69 z M 359.98,25.18 c -0.25,-0.28 -0.37,-0.01 -0.46,0.31 -0.09,0.32 -0.36,1.52 -0.54,2.27 0.00,0.00 0.71,1.16 0.97,1.75 0.25,0.59 -0.12,0.92 -0.86,1.01 -2.08,0.25 -3.73,-0.94 -4.30,-1.48 -0.57,-0.55 0.05,-1.52 0.51,-2.68 0.37,-0.93 -0.32,-1.04 -0.84,0.00 -1.76,4.63 -4.23,5.12 -4.88,5.30 -5.86,1.60 -5.36,-3.76 -5.33,-4.64 0.02,-0.88 -0.62,-0.55 -1.34,0.03 -2.47,1.98 -4.45,3.14 -5.52,3.62 -0.92,-1.80 -2.26,-2.93 -2.82,-3.34 -6.34,-4.63 -6.87,4.71 -6.67,5.71 0.97,3.97 7.44,1.56 8.46,1.44 1.02,-0.12 0.68,1.22 0.11,2.02 -1.41,1.97 -3.03,3.38 -4.50,4.57 -6.28,5.13 -9.43,4.72 -10.41,4.69 -6.17,-0.17 -5.60,-6.82 -5.26,-8.24 1.86,-1.57 3.45,-3.28 4.38,-5.04 0.38,-0.96 1.03,-3.16 -0.15,-5.91 -0.62,-1.21 -2.56,-4.60 -2.56,-4.60 0.00,0.00 1.43,0.04 1.57,0.04 0.14,0.00 0.41,-0.14 0.06,-0.55 -0.35,-0.40 -3.36,-3.40 -3.54,-3.65 -0.18,-0.24 -0.35,-0.41 -0.45,-0.06 -0.10,0.36 -0.36,1.88 -0.42,2.20 -0.06,0.31 -0.06,0.63 0.10,0.90 0.15,0.27 0.55,1.20 0.84,1.96 0.29,0.76 3.26,6.47 3.53,6.98 0.27,0.51 0.33,0.88 0.06,1.22 -9.53,10.05 -27.91,16.23 -28.50,16.57 -0.59,0.34 -0.43,0.61 0.56,0.43 1.48,-0.26 9.74,-1.64 12.09,-2.77 1.55,-0.75 6.98,-3.41 11.41,-6.89 -0.12,0.90 -0.24,2.22 -0.18,3.89 0.30,8.08 7.53,6.74 9.43,6.33 5.68,-1.25 12.64,-9.11 13.23,-10.69 0.58,-1.56 0.67,-2.98 0.54,-4.22 1.50,-0.81 4.71,-3.40 4.71,-3.40 0.13,3.45 2.87,4.48 3.72,4.63 3.96,0.60 5.94,-2.71 6.78,-3.78 0.72,1.89 2.45,2.25 3.34,2.43 3.41,0.68 4.08,-1.74 4.26,-2.29 1.07,-3.33 -0.86,-5.81 -1.11,-6.08 z M 331.34,31.86 c -2.03,-0.14 -1.85,-0.92 -1.57,-1.22 0.30,-0.33 2.78,-1.89 4.85,0.89 0.00,0.00 -0.86,0.50 -3.28,0.33 z M 356.77,37.49 c -0.24,0.68 -0.34,1.12 -0.32,1.38 0.03,0.26 0.12,1.10 0.12,1.10 -0.25,0.20 -1.33,0.87 -2.40,0.08 0.07,-0.23 0.21,-0.70 0.24,-0.95 0.12,-0.40 -0.13,-0.69 -0.32,-0.28 -0.20,0.41 -0.65,1.79 -0.99,2.10 -0.34,0.31 -0.73,1.45 -3.30,0.29 -0.45,-0.17 -1.23,-0.75 -2.46,0.48 -2.77,2.57 -4.68,2.78 -7.79,3.88 -0.38,0.17 -1.16,0.77 -0.23,0.67 0.94,-0.09 4.87,0.00 7.01,-2.46 0.45,-0.43 0.96,-1.58 2.66,-0.92 0.94,0.36 2.68,1.85 4.58,-1.10 1.12,0.75 2.82,0.45 3.09,-0.38 0.27,-0.82 0.58,-1.64 0.58,-2.20 0.00,-0.56 -0.05,-1.30 -0.05,-1.30 -0.04,-0.44 -0.19,-1.07 -0.44,-0.40 z M 301.50,14.45 c -0.06,-0.04 -0.15,-0.03 -0.20,0.04 -1.53,2.10 -1.53,2.10 -1.53,2.10 -0.05,0.07 -0.04,0.16 0.03,0.21 2.61,1.91 2.61,1.91 2.61,1.91 0.06,0.05 0.15,0.03 0.20,-0.04 1.32,-1.81 1.32,-1.81 1.32,-1.81 2.54,1.85 2.54,1.85 2.54,1.85 0.06,0.05 0.15,0.03 0.20,-0.04 1.53,-2.10 1.53,-2.10 1.53,-2.10 0.05,-0.07 0.04,-0.16 -0.03,-0.20 -2.61,-1.91 -2.61,-1.91 -2.61,-1.91 -0.06,-0.04 -0.15,-0.03 -0.20,0.04 -1.32,1.81 -1.32,1.81 -1.32,1.81 z M 293.92,14.07 c 0.17,-0.04 3.05,-0.49 6.41,-3.05 1.82,-1.38 2.92,-3.74 2.92,-3.74 0.00,0.00 0.91,0.76 1.03,0.91 0.28,0.34 0.43,0.60 0.56,0.23 0.48,-1.33 -0.20,-2.13 -0.84,-2.54 0.00,0.00 0.67,-2.07 -0.56,-4.14 -0.21,-0.35 -1.43,-1.46 -2.85,0.74 -0.55,0.84 -0.96,2.85 -0.18,3.42 0.79,0.58 1.94,1.04 1.94,1.04 -3.66,4.48 -6.16,5.34 -8.30,6.59 -0.55,0.32 -0.44,0.61 -0.12,0.53 z M 301.63,4.67 c -0.47,-0.20 -0.72,-0.50 -0.50,-0.80 0.73,-1.02 1.08,-0.98 1.36,-0.82 0.83,0.77 0.70,2.03 0.67,2.31 0.00,0.00 -1.05,-0.49 -1.52,-0.70 z" />
     </g>
</svg>
