<?xml version="1.0" encoding="UTF-8"?>
<svg version="1.1" id="Layer_1" x="0px" y="0px" width="578" height="51" viewBox="0 0 578 51"
xml:space="preserve" xmlns="http://www.w3.org/2000/svg" xmlns:svg="http://www.w3.org/2000/svg" xmlns:rdf="http://www.w3.org/1999/02/22-rdf-syntax-ns#"  xmlns:cc="http://creativecommons.org/ns#" xmlns:dc="http://purl.org/dc/elements/1.1/">
     <g>
<path d="M 261.62,21.31 c -0.43,1.47 -0.17,2.98 0.79,3.21 0.67,0.16 1.03,0.59 1.18,0.83 0.07,0.10 0.18,0.04 0.22,-0.02 0.89,-1.46 0.27,-2.47 -1.01,-2.95 -0.51,-0.19 -0.69,-0.93 1.34,-2.02 1.87,-1.00 17.51,-7.39 17.93,-7.63 0.56,-0.33 0.90,-0.45 1.14,-0.96 0.25,-0.52 0.31,-0.61 0.45,-0.97 0.15,-0.38 0.29,-0.79 -0.73,-0.26 -0.54,0.28 -17.96,7.25 -19.53,8.33 -0.79,0.54 -1.48,1.45 -1.78,2.46 z M 299.44,41.90 c 0.21,-0.44 1.67,-3.46 -0.06,-14.54 -0.13,-0.92 -2.59,-18.41 -2.59,-18.41 0.00,0.00 1.55,1.46 1.80,1.72 0.25,0.26 0.55,0.12 0.41,-0.30 -0.14,-0.42 -3.31,-8.09 -3.42,-8.36 -0.10,-0.27 -0.20,-0.46 -0.33,-0.15 -0.13,0.31 -0.88,2.38 -0.88,2.38 0.20,1.35 1.99,15.82 2.10,16.81 0.12,0.99 2.46,16.13 2.60,20.67 -0.04,0.46 0.17,0.63 0.38,0.19 z M 283.15,20.11 c -1.32,1.81 -1.32,1.81 -1.32,1.81 -2.54,-1.85 -2.54,-1.85 -2.54,-1.85 -0.06,-0.05 -0.15,-0.03 -0.20,0.04 -1.53,2.10 -1.53,2.10 -1.53,2.10 -0.05,0.07 -0.04,0.16 0.03,0.20 2.61,1.91 2.61,1.91 2.61,1.91 0.06,0.05 0.15,0.03 0.20,-0.04 1.32,-1.81 1.32,-1.81 1.32,-1.81 2.54,1.85 2.54,1.85 2.54,1.85 0.06,0.05 0.15,0.03 0.20,-0.04 1.53,-2.10 1.53,-2.10 1.53,-2.10 0.05,-0.07 0.04,-0.16 -0.03,-0.20 -2.61,-1.91 -2.61,-1.91 -2.61,-1.91 -0.06,-0.05 -0.15,-0.03 -0.20,0.04 z M 242.42,44.08 c -0.55,0.28 -11.70,4.54 -12.27,4.86 -0.57,0.32 -0.77,0.40 -0.88,0.81 -0.11,0.42 -0.17,0.66 -0.20,0.72 -0.12,0.28 -0.21,0.62 0.63,0.14 0.26,-0.15 11.52,-4.46 11.99,-4.73 0.47,-0.27 0.75,-0.36 0.96,-0.79 0.21,-0.42 0.26,-0.50 0.38,-0.80 0.12,-0.32 0.25,-0.65 -0.60,-0.22 z M 243.24,16.05 c 0.35,-0.15 27.40,-10.99 28.03,-11.30 0.62,-0.31 0.99,-0.41 1.29,-0.95 0.30,-0.53 0.37,-0.63 0.54,-1.00 0.18,-0.40 0.39,-0.77 -0.76,-0.33 -0.76,0.29 -27.61,11.13 -28.40,11.45 -0.78,0.31 -1.02,0.46 -1.19,0.99 -0.18,0.53 -0.26,0.81 -0.31,0.92 -0.15,0.36 -0.34,0.72 0.80,0.23 z M 279.59,42.07 c -0.43,-0.17 -1.12,-0.07 -2.05,1.13 -0.19,0.28 -0.33,0.51 -0.41,0.62 -0.11,0.17 -0.06,0.44 0.24,0.07 0.65,-0.71 1.70,-0.97 1.88,0.39 0.01,0.26 0.03,1.44 -1.61,3.36 -0.32,0.37 -0.77,0.94 -0.77,0.94 -0.36,0.42 -0.26,0.76 0.22,0.27 0.48,-0.50 2.30,-2.15 3.09,-4.62 0.18,-0.57 0.24,-1.80 -0.59,-2.16 z M 294.75,40.33 c -0.43,-0.17 -1.12,-0.08 -2.05,1.13 -0.19,0.28 -0.33,0.51 -0.41,0.62 -0.11,0.17 -0.07,0.44 0.24,0.07 0.65,-0.71 1.70,-0.97 1.88,0.39 0.01,0.26 0.03,1.44 -1.61,3.36 -0.32,0.37 -0.77,0.94 -0.77,0.94 -0.36,0.42 -0.26,0.76 0.22,0.27 0.48,-0.50 2.30,-2.15 3.09,-4.62 0.18,-0.57 0.24,-1.80 -0.59,-2.16 z M 257.97,44.18 c -0.44,-0.17 -1.12,-0.07 -2.05,1.13 -0.19,0.28 -0.33,0.51 -0.41,0.62 -0.12,0.17 -0.07,0.44 0.24,0.07 0.65,-0.71 1.70,-0.97 1.88,0.39 0.01,0.26 0.03,1.44 -1.61,3.36 -0.32,0.37 -0.77,0.94 -0.77,0.94 -0.36,0.42 -0.26,0.76 0.22,0.26 0.48,-0.50 2.30,-2.15 3.09,-4.62 0.18,-0.57 0.24,-1.80 -0.59,-2.16 z M 248.51,9.39 c 0.43,0.00 0.98,-0.31 1.38,-1.66 0.07,-0.30 0.11,-0.55 0.14,-0.67 0.04,-0.18 -0.09,-0.40 -0.23,0.02 -0.31,0.83 -1.13,1.41 -1.74,0.30 -0.10,-0.22 -0.51,-1.23 0.25,-3.42 0.15,-0.43 0.35,-1.06 0.35,-1.06 0.17,-0.48 -0.03,-0.74 -0.28,-0.15 -0.24,0.59 -1.25,2.61 -1.09,5.00 0.04,0.55 0.40,1.63 1.23,1.65 z M 230.50,22.31 c 0.43,0.00 0.98,-0.31 1.38,-1.66 0.07,-0.30 0.11,-0.55 0.14,-0.67 0.04,-0.18 -0.09,-0.40 -0.23,0.02 -0.31,0.83 -1.13,1.40 -1.74,0.30 -0.10,-0.22 -0.51,-1.23 0.25,-3.42 0.15,-0.43 0.35,-1.06 0.35,-1.06 0.17,-0.48 -0.03,-0.74 -0.27,-0.16 -0.24,0.59 -1.25,2.61 -1.09,5.00 0.04,0.55 0.40,1.63 1.23,1.65 z M 279.33,8.89 c 0.43,0.00 0.99,-0.31 1.38,-1.66 0.07,-0.31 0.11,-0.55 0.14,-0.67 0.04,-0.18 -0.09,-0.40 -0.23,0.02 -0.31,0.83 -1.13,1.41 -1.74,0.30 -0.10,-0.22 -0.51,-1.22 0.25,-3.42 0.15,-0.43 0.35,-1.06 0.35,-1.06 0.17,-0.48 -0.03,-0.74 -0.28,-0.16 -0.24,0.59 -1.25,2.61 -1.09,5.00 0.04,0.55 0.40,1.63 1.23,1.66 z M 259.04,11.79 c 0.15,-0.56 -0.11,-0.84 -0.33,-0.15 -0.22,0.69 -1.16,3.10 -0.75,5.80 0.09,0.62 0.62,1.81 1.56,1.76 0.49,-0.04 1.09,-0.45 1.41,-2.03 0.05,-0.35 0.07,-0.64 0.09,-0.77 0.03,-0.21 -0.14,-0.45 -0.26,0.04 -0.28,0.97 -1.15,1.71 -1.95,0.51 -0.13,-0.24 -0.70,-1.34 -0.06,-3.92 0.13,-0.50 0.29,-1.24 0.29,-1.24 z M 225.48,24.41 c 0.26,-0.94 -0.09,-1.44 -0.47,-0.29 -0.38,1.15 -1.97,5.11 -1.60,9.73 0.09,1.07 0.76,3.13 2.15,3.15 0.72,-0.02 1.64,-0.65 2.24,-3.28 0.10,-0.59 0.16,-1.07 0.20,-1.30 0.06,-0.35 -0.17,-0.77 -0.39,0.05 -0.49,1.62 -1.83,2.77 -2.92,0.65 -0.18,-0.42 -0.92,-2.35 0.25,-6.64 0.24,-0.83 0.53,-2.07 0.53,-2.07 z M 237.00,16.63 c 0.72,-0.02 1.64,-0.65 2.24,-3.28 0.10,-0.59 0.16,-1.07 0.20,-1.30 0.06,-0.35 -0.18,-0.77 -0.39,0.05 -0.49,1.62 -1.83,2.77 -2.92,0.65 -0.18,-0.42 -0.92,-2.35 0.25,-6.64 0.24,-0.83 0.53,-2.07 0.53,-2.07 0.26,-0.94 -0.09,-1.44 -0.47,-0.29 -0.38,1.15 -1.97,5.11 -1.60,9.73 0.09,1.07 0.76,3.13 2.15,3.15 z M 219.96,10.29 c 0.18,0.09 0.36,0.09 0.40,-0.12 0.04,-0.21 0.24,-0.70 0.59,-0.38 0.25,0.23 2.28,1.82 3.00,4.10 0.61,1.99 -4.12,6.35 -4.37,6.55 -0.45,0.36 -0.28,0.57 -0.07,0.44 0.21,-0.13 0.42,-0.17 2.87,-2.00 1.97,-1.47 2.31,-3.07 2.42,-4.28 0.02,-0.06 0.03,-0.13 0.04,-0.21 0.13,-1.48 0.10,-4.03 0.17,-4.81 0.10,-1.09 0.48,-3.36 1.90,-2.28 0.32,0.25 0.67,0.58 0.67,0.58 0.31,0.35 0.69,0.75 0.84,0.31 0.23,-0.65 0.38,-1.73 0.06,-2.29 -0.14,-0.25 -1.94,-2.30 -3.00,-0.76 -1.31,1.91 -1.26,4.31 -1.29,7.00 -0.23,-0.55 -1.57,-4.07 -5.30,-5.92 -0.27,-0.13 -0.79,0.18 -0.79,1.03 0.00,0.49 -0.07,1.70 0.29,2.02 0.36,0.32 1.41,0.93 1.58,1.01 z M 290.39,10.83 c 0.25,0.26 0.55,0.12 0.41,-0.30 -0.14,-0.42 -3.32,-8.09 -3.42,-8.36 -0.10,-0.27 -0.21,-0.46 -0.33,-0.15 -0.13,0.31 -1.15,2.55 -1.15,2.55 0.03,0.18 0.40,0.75 0.57,1.88 0.17,1.18 0.41,2.78 0.68,4.64 0.00,0.00 2.89,21.59 2.93,22.14 0.05,0.54 0.33,2.54 -0.20,2.85 -0.53,0.31 -2.92,1.85 -6.02,1.22 0.30,-0.36 2.56,-3.98 1.78,-7.26 -0.13,-0.50 -1.52,-4.34 -4.19,-2.15 -2.67,2.19 -4.01,7.41 -2.61,9.24 -0.23,0.12 -4.23,1.71 -6.21,1.86 0.35,-0.37 4.37,-4.50 2.52,-7.40 -0.49,-0.86 -3.56,-5.51 -9.93,-2.31 -3.63,2.18 -8.22,9.01 -8.32,9.17 0.00,0.00 -2.24,-0.36 -2.83,-3.21 -0.10,-0.47 -0.02,-1.05 -0.80,-0.25 -0.79,0.80 -2.41,3.84 -5.65,4.35 -1.23,0.18 -5.35,0.26 -5.79,-4.60 0.00,-0.01 0.00,-0.03 0.00,-0.04 3.10,-0.14 7.34,-0.93 11.77,-3.57 1.64,-0.98 4.09,-4.18 3.17,-6.49 -0.31,-0.79 -1.76,-4.48 -6.67,-4.40 -1.23,0.02 -6.69,0.59 -12.41,10.80 -0.26,-0.07 -2.32,-0.41 -3.11,-3.02 -0.18,-0.40 -0.43,-0.50 -0.58,0.07 -0.15,0.57 -0.37,2.31 -0.37,2.31 0.44,0.91 2.45,4.47 2.28,5.81 -0.18,1.34 -2.38,4.44 -9.14,7.12 -1.52,0.50 -10.20,4.36 -14.65,-3.00 -0.57,-0.94 -1.55,-5.00 0.58,-9.21 0.10,0.02 0.21,0.04 0.32,0.04 0.76,-0.02 1.73,-0.68 2.36,-3.46 0.11,-0.63 0.17,-1.13 0.21,-1.38 0.07,-0.38 -0.19,-0.81 -0.41,0.05 -0.52,1.71 -1.94,2.92 -3.08,0.68 -0.19,-0.45 -0.97,-2.48 0.26,-7.01 0.25,-0.88 0.56,-2.19 0.56,-2.19 0.28,-0.99 -0.10,-1.52 -0.50,-0.30 -0.40,1.21 -2.08,5.40 -1.68,10.27 0.07,0.83 0.47,2.24 1.27,2.93 -0.88,1.90 -4.59,10.35 1.46,15.15 1.41,1.12 7.37,4.23 16.53,-1.12 1.53,-0.89 6.73,-3.83 7.00,-7.82 0.10,-1.09 -0.04,-2.58 -0.04,-2.58 0.35,0.07 1.76,0.34 3.85,0.34 0.00,0.05 -0.01,0.10 -0.01,0.15 -0.09,1.65 -0.31,6.91 4.73,7.44 0.73,0.11 4.77,0.33 7.59,-3.98 0.17,0.46 0.58,1.79 2.36,2.85 -0.41,0.79 -0.81,1.73 -1.00,2.23 -0.20,0.53 0.02,0.88 0.44,0.44 0.30,-0.32 1.16,-1.51 1.61,-2.15 1.73,0.71 4.36,1.14 8.39,0.81 1.68,-0.10 7.46,-0.03 15.54,-3.30 0.50,0.20 3.93,2.57 9.21,0.13 0.63,-0.40 1.17,-1.60 1.75,-3.99 0.95,-3.88 -2.83,-26.24 -2.83,-26.24 0.00,0.00 1.55,1.46 1.80,1.72 z M 238.96,31.34 c 0.00,0.00 5.25,-10.05 12.77,-7.36 2.05,0.73 3.60,2.70 3.34,2.92 -6.33,5.23 -14.57,4.80 -16.11,4.44 z M 258.48,38.94 c 0.00,0.00 3.00,-5.51 6.98,-7.12 3.23,-1.27 5.59,0.11 7.15,1.41 1.56,1.30 0.75,1.98 0.20,2.49 -5.43,4.14 -12.39,3.79 -14.33,3.22 z M 281.31,36.07 c 0.00,0.00 -1.32,-0.49 -1.65,-1.56 -0.33,-1.07 0.94,-2.90 2.09,-3.78 1.14,-0.87 2.16,0.22 2.40,1.02 1.11,3.00 -2.83,4.32 -2.83,4.32 z M 340.27,7.03 c 0.17,0.10 0.36,0.11 0.41,-0.10 0.05,-0.21 0.29,-0.68 0.62,-0.34 0.28,0.28 2.09,1.78 3.03,4.95 0.16,0.42 0.55,0.46 0.64,-0.14 0.22,-1.47 0.33,-4.02 0.45,-4.79 0.17,-1.08 0.68,-3.32 2.06,-2.16 0.31,0.26 0.64,0.61 0.64,0.61 0.29,0.37 0.66,0.79 0.84,0.36 0.27,-0.64 0.49,-1.70 0.19,-2.28 -0.13,-0.25 -1.84,-2.41 -3.00,-0.93 -1.44,1.83 -1.53,4.23 -1.72,6.91 -0.20,-0.56 -1.35,-4.15 -5.02,-6.21 -0.27,-0.15 -0.81,0.13 -0.86,0.98 -0.03,0.49 -0.17,1.69 0.18,2.03 0.35,0.34 1.37,1.01 1.54,1.10 z M 360.87,14.30 c 0.18,-0.50 -0.04,-0.77 -0.29,-0.16 -0.25,0.61 -1.30,2.73 -1.14,5.22 0.04,0.58 0.42,1.70 1.29,1.73 0.45,0.00 1.03,-0.33 1.44,-1.74 0.07,-0.32 0.12,-0.57 0.15,-0.70 0.04,-0.19 -0.10,-0.42 -0.24,0.02 -0.33,0.86 -1.18,1.47 -1.82,0.31 -0.10,-0.23 -0.53,-1.28 0.26,-3.57 0.16,-0.44 0.36,-1.11 0.36,-1.11 z M 358.11,6.37 c 0.79,0.58 1.94,1.04 1.94,1.04 -3.66,4.49 -10.84,7.67 -12.56,9.01 -0.51,0.39 -0.44,0.61 -0.12,0.53 0.28,-0.08 5.76,-1.61 10.76,-5.90 2.29,-1.97 2.23,-2.11 2.81,-3.30 0.50,0.26 0.84,0.67 1.03,0.91 0.28,0.34 0.43,0.60 0.56,0.23 0.48,-1.33 -0.20,-2.13 -0.84,-2.54 0.00,0.00 0.67,-2.07 -0.56,-4.14 -0.21,-0.35 -1.43,-1.46 -2.85,0.74 -0.55,0.84 -0.96,2.85 -0.18,3.42 z M 358.84,4.34 c 0.73,-1.02 1.08,-0.99 1.36,-0.82 0.82,0.77 0.70,2.02 0.67,2.31 0.00,0.00 -1.05,-0.49 -1.52,-0.69 -0.47,-0.20 -0.72,-0.50 -0.50,-0.80 z M 334.76,20.27 c 0.48,0.00 1.11,-0.35 1.55,-1.87 0.08,-0.34 0.13,-0.62 0.16,-0.75 0.05,-0.21 -0.10,-0.45 -0.26,0.02 -0.36,0.93 -1.27,1.58 -1.96,0.33 -0.11,-0.25 -0.58,-1.38 0.28,-3.86 0.17,-0.48 0.39,-1.20 0.39,-1.20 0.19,-0.54 -0.04,-0.84 -0.31,-0.17 -0.27,0.66 -1.40,2.95 -1.23,5.63 0.04,0.62 0.45,1.83 1.39,1.87 z M 366.45,24.89 c -0.25,-0.28 -0.37,-0.01 -0.46,0.31 -0.09,0.32 -0.36,1.52 -0.54,2.27 0.00,0.00 0.71,1.16 0.97,1.75 0.25,0.59 -0.12,0.92 -0.86,1.01 -2.08,0.25 -3.73,-0.94 -4.30,-1.48 -0.57,-0.55 0.05,-1.52 0.51,-2.68 0.37,-0.93 -0.32,-1.04 -0.84,0.00 -1.76,4.63 -4.23,5.13 -4.88,5.30 -5.86,1.60 -5.36,-3.76 -5.33,-4.64 0.02,-0.88 -0.62,-0.55 -1.34,0.03 -2.47,1.98 -4.45,3.14 -5.52,3.62 -0.92,-1.80 -2.26,-2.93 -2.82,-3.33 -6.34,-4.63 -6.87,4.71 -6.67,5.71 0.96,3.97 7.44,1.56 8.46,1.44 1.02,-0.12 0.68,1.22 0.11,2.02 -1.41,1.97 -3.03,3.38 -4.50,4.58 -6.28,5.13 -9.43,4.72 -10.41,4.69 -6.17,-0.17 -5.60,-6.82 -5.26,-8.24 1.85,-1.57 3.45,-3.28 4.38,-5.04 0.38,-0.97 1.03,-3.16 -0.15,-5.91 -0.62,-1.21 -2.56,-4.60 -2.56,-4.60 0.00,0.00 1.43,0.04 1.57,0.04 0.14,0.00 0.41,-0.14 0.06,-0.54 -0.35,-0.40 -3.36,-3.40 -3.54,-3.65 -0.18,-0.24 -0.35,-0.42 -0.45,-0.06 -0.10,0.36 -0.36,1.88 -0.42,2.20 -0.06,0.31 -0.06,0.63 0.10,0.90 0.15,0.27 0.55,1.20 0.84,1.96 0.29,0.76 3.25,6.47 3.53,6.98 0.27,0.51 0.33,0.88 0.06,1.22 -9.53,10.05 -27.91,16.23 -28.50,16.58 -0.59,0.34 -0.43,0.61 0.56,0.43 1.48,-0.26 9.74,-1.64 12.09,-2.78 1.55,-0.75 6.97,-3.41 11.41,-6.89 -0.12,0.90 -0.24,2.22 -0.17,3.89 0.30,8.08 7.53,6.74 9.43,6.33 5.68,-1.25 12.64,-9.11 13.23,-10.68 0.58,-1.56 0.67,-2.98 0.54,-4.22 1.50,-0.81 4.71,-3.40 4.71,-3.40 0.13,3.45 2.87,4.48 3.72,4.63 3.96,0.60 5.94,-2.70 6.78,-3.78 0.72,1.89 2.45,2.26 3.34,2.43 3.41,0.68 4.08,-1.73 4.25,-2.29 1.07,-3.33 -0.86,-5.81 -1.11,-6.08 z M 337.82,31.57 c -2.02,-0.14 -1.85,-0.92 -1.57,-1.22 0.30,-0.33 2.78,-1.89 4.85,0.89 0.00,0.00 -0.86,0.50 -3.28,0.33 z M 363.25,37.21 c -0.24,0.68 -0.34,1.12 -0.32,1.38 0.03,0.26 0.12,1.10 0.12,1.10 -0.25,0.20 -1.33,0.87 -2.40,0.08 0.07,-0.23 0.21,-0.70 0.24,-0.95 0.12,-0.40 -0.13,-0.69 -0.32,-0.28 -0.20,0.41 -0.65,1.79 -0.99,2.10 -0.34,0.31 -0.74,1.45 -3.30,0.29 -0.45,-0.17 -1.23,-0.75 -2.46,0.48 -2.77,2.57 -4.68,2.77 -7.79,3.88 -0.38,0.17 -1.16,0.77 -0.23,0.67 0.94,-0.09 4.87,0.00 7.01,-2.46 0.45,-0.43 0.96,-1.58 2.66,-0.92 0.94,0.36 2.68,1.85 4.58,-1.10 1.12,0.75 2.82,0.45 3.09,-0.38 0.27,-0.82 0.58,-1.64 0.58,-2.20 0.00,-0.56 -0.05,-1.30 -0.05,-1.30 -0.04,-0.44 -0.19,-1.07 -0.44,-0.40 z M 317.07,12.30 c 0.25,-0.16 13.84,-8.02 14.32,-8.31 0.46,-0.29 0.72,-0.41 0.91,-0.85 0.18,-0.44 0.23,-0.52 0.33,-0.82 0.10,-0.32 0.21,-0.67 -0.61,-0.19 -0.53,0.31 -14.04,8.11 -14.59,8.46 -0.55,0.35 -0.74,0.44 -0.83,0.87 -0.09,0.42 -0.13,0.67 -0.16,0.73 -0.10,0.28 -0.17,0.63 0.64,0.10 z M 307.97,14.16 c -0.06,-0.05 -0.15,-0.03 -0.20,0.04 -1.53,2.10 -1.53,2.10 -1.53,2.10 -0.05,0.07 -0.04,0.16 0.03,0.20 2.61,1.91 2.61,1.91 2.61,1.91 0.06,0.05 0.15,0.03 0.20,-0.04 1.32,-1.81 1.32,-1.81 1.32,-1.81 2.54,1.85 2.54,1.85 2.54,1.85 0.06,0.05 0.15,0.03 0.20,-0.04 1.53,-2.10 1.53,-2.10 1.53,-2.10 0.05,-0.07 0.04,-0.16 -0.03,-0.20 -2.61,-1.91 -2.61,-1.91 -2.61,-1.91 -0.06,-0.05 -0.15,-0.03 -0.20,0.04 -1.32,1.81 -1.32,1.81 -1.32,1.81 z M 300.39,13.78 c 0.17,-0.05 3.05,-0.49 6.41,-3.05 1.82,-1.38 2.92,-3.74 2.92,-3.74 0.00,0.00 0.91,0.76 1.03,0.91 0.28,0.34 0.43,0.60 0.56,0.23 0.48,-1.33 -0.20,-2.13 -0.84,-2.54 0.00,0.00 0.67,-2.07 -0.56,-4.14 -0.21,-0.35 -1.43,-1.46 -2.85,0.74 -0.55,0.84 -0.96,2.85 -0.18,3.42 0.79,0.58 1.94,1.04 1.94,1.04 -3.66,4.49 -6.16,5.34 -8.30,6.60 -0.55,0.32 -0.44,0.61 -0.12,0.53 z M 308.11,4.39 c -0.47,-0.20 -0.72,-0.50 -0.50,-0.80 0.73,-1.02 1.08,-0.99 1.36,-0.82 0.82,0.77 0.70,2.03 0.67,2.31 0.00,0.00 -1.05,-0.49 -1.52,-0.69 z M 307.35,23.91 c 0.00,0.00 1.25,-0.31 1.47,-0.38 0.22,-0.06 0.34,-0.35 -0.05,-0.55 -0.39,-0.20 -4.09,-1.67 -4.37,-1.79 -0.28,-0.11 -0.38,-0.24 -0.41,0.06 -0.02,0.30 -0.07,2.73 -0.07,2.73 0.00,0.00 -0.06,0.17 0.27,0.35 0.32,0.18 0.64,0.58 0.90,0.84 0.26,0.26 3.70,2.98 3.87,3.07 0.00,0.00 -1.72,3.02 -1.94,5.38 -0.22,2.36 0.04,5.63 3.27,4.58 0.87,-0.25 4.49,-1.69 5.30,-4.21 0.26,-0.93 1.01,-2.61 -0.21,-4.31 -0.70,-1.00 -3.53,-2.69 -3.53,-2.69 0.00,0.00 2.17,-3.00 2.38,-3.37 0.21,-0.37 1.00,-2.69 1.09,-3.25 0.09,-0.56 0.13,-0.84 -0.29,-0.32 -0.42,0.52 -4.63,6.05 -4.63,6.05 z M 314.30,32.79 c -1.20,0.99 -3.72,2.29 -4.43,2.36 -0.71,0.07 -2.59,-0.28 -1.77,-2.20 0.28,-0.62 2.16,-3.84 2.16,-3.84 0.70,0.39 5.24,2.70 4.04,3.69 z" />
     </g>
</svg>
