<?xml version="1.0" encoding="UTF-8"?>
<svg version="1.1" id="Layer_1" x="0px" y="0px" width="578" height="51" viewBox="0 0 578 51"
xml:space="preserve" xmlns="http://www.w3.org/2000/svg" xmlns:svg="http://www.w3.org/2000/svg" xmlns:rdf="http://www.w3.org/1999/02/22-rdf-syntax-ns#"  xmlns:cc="http://creativecommons.org/ns#" xmlns:dc="http://purl.org/dc/elements/1.1/">
     <g>
<path d="M 243.61,40.90 c -1.92,2.63 -1.92,2.63 -1.92,2.63 -0.06,0.08 -0.05,0.20 0.03,0.25 3.27,2.38 3.27,2.38 3.27,2.38 0.08,0.06 0.19,0.04 0.25,-0.05 1.91,-2.63 1.91,-2.63 1.91,-2.63 0.06,-0.08 0.05,-0.20 -0.03,-0.25 -3.27,-2.38 -3.27,-2.38 -3.27,-2.38 -0.08,-0.06 -0.19,-0.04 -0.25,0.05 z M 270.76,24.34 c -1.92,2.63 -1.92,2.63 -1.92,2.63 -0.06,0.08 -0.05,0.20 0.03,0.25 3.27,2.38 3.27,2.38 3.27,2.38 0.08,0.06 0.19,0.04 0.25,-0.05 1.91,-2.63 1.91,-2.63 1.91,-2.63 0.06,-0.08 0.05,-0.20 -0.03,-0.25 -3.27,-2.38 -3.27,-2.38 -3.27,-2.38 -0.08,-0.06 -0.19,-0.04 -0.25,0.05 z M 305.86,42.64 c 0.21,-0.44 1.67,-3.47 -0.06,-14.54 -0.13,-0.92 -2.75,-19.64 -2.75,-19.64 0.00,0.00 1.55,1.46 1.80,1.72 0.25,0.26 0.55,0.12 0.41,-0.30 -0.14,-0.42 -3.31,-8.09 -3.42,-8.36 -0.10,-0.27 -0.20,-0.46 -0.33,-0.15 -0.13,0.31 -0.88,2.38 -0.88,2.38 0.20,1.35 1.99,15.82 2.10,16.81 0.12,0.99 2.63,17.36 2.76,21.89 -0.04,0.46 0.17,0.64 0.38,0.19 z M 217.22,25.39 c -1.32,1.81 -1.32,1.81 -1.32,1.81 -2.54,-1.85 -2.54,-1.85 -2.54,-1.85 -0.06,-0.05 -0.15,-0.03 -0.20,0.04 -1.53,2.10 -1.53,2.10 -1.53,2.10 -0.05,0.07 -0.04,0.16 0.03,0.20 2.61,1.91 2.61,1.91 2.61,1.91 0.06,0.05 0.15,0.03 0.20,-0.04 1.32,-1.81 1.32,-1.81 1.32,-1.81 2.54,1.85 2.54,1.85 2.54,1.85 0.06,0.05 0.15,0.03 0.20,-0.04 1.53,-2.10 1.53,-2.10 1.53,-2.10 0.05,-0.07 0.04,-0.16 -0.03,-0.21 -2.61,-1.91 -2.61,-1.91 -2.61,-1.91 -0.06,-0.05 -0.15,-0.03 -0.20,0.04 z M 279.13,6.19 c 0.17,0.08 0.34,0.09 0.38,-0.11 0.04,-0.19 0.24,-0.65 0.56,-0.35 0.27,0.25 2.03,1.57 3.06,4.49 0.17,0.39 0.54,0.41 0.60,-0.16 0.14,-1.38 0.13,-3.77 0.20,-4.50 0.10,-1.02 0.49,-3.14 1.83,-2.11 0.30,0.23 0.63,0.54 0.63,0.54 0.29,0.33 0.65,0.71 0.80,0.30 0.22,-0.61 0.38,-1.61 0.08,-2.14 -0.13,-0.23 -1.82,-2.17 -2.84,-0.74 -1.26,1.77 -1.24,4.02 -1.29,6.54 -0.22,-0.52 -1.45,-3.82 -4.98,-5.58 -0.26,-0.13 -0.75,0.16 -0.76,0.96 -0.01,0.46 -0.08,1.59 0.26,1.89 0.34,0.30 1.33,0.88 1.49,0.96 z M 236.56,10.12 c 0.29,-0.15 13.05,-6.20 13.58,-6.49 0.51,-0.27 0.78,-0.44 0.98,-0.91 0.20,-0.47 0.25,-0.56 0.35,-0.89 0.11,-0.35 0.27,-0.63 -0.66,-0.20 -0.66,0.30 -13.21,6.32 -13.88,6.65 -0.63,0.31 -0.80,0.48 -0.90,0.94 -0.09,0.46 -0.14,0.72 -0.17,0.79 -0.11,0.30 -0.18,0.57 0.69,0.11 z M 218.01,41.70 c -0.66,0.30 -8.05,4.09 -8.72,4.42 -0.63,0.31 -0.80,0.48 -0.90,0.94 -0.09,0.46 -0.14,0.72 -0.17,0.79 -0.11,0.30 -0.18,0.57 0.69,0.11 0.29,-0.15 7.89,-3.97 8.42,-4.26 0.51,-0.27 0.78,-0.44 0.98,-0.91 0.20,-0.47 0.25,-0.56 0.35,-0.89 0.11,-0.35 0.27,-0.63 -0.66,-0.20 z M 263.37,22.38 c -0.15,0.49 -0.23,0.76 -0.27,0.86 -0.13,0.33 -0.30,0.67 0.75,0.20 0.33,-0.15 25.27,-10.70 25.84,-11.00 0.57,-0.30 0.91,-0.40 1.18,-0.90 0.27,-0.50 0.33,-0.59 0.49,-0.94 0.16,-0.38 0.35,-0.72 -0.71,-0.29 -0.70,0.28 -25.46,10.84 -26.19,11.15 -0.72,0.31 -0.94,0.44 -1.09,0.94 z M 286.14,41.48 c -0.39,-0.18 -1.02,-0.14 -1.96,0.92 -0.19,0.25 -0.34,0.45 -0.41,0.55 -0.12,0.15 -0.09,0.40 0.22,0.08 0.64,-0.61 1.62,-0.79 1.70,0.48 0.00,0.24 -0.06,1.33 -1.68,2.99 -0.32,0.32 -0.77,0.81 -0.77,0.81 -0.36,0.36 -0.29,0.69 0.18,0.26 0.47,-0.43 2.24,-1.83 3.12,-4.06 0.20,-0.51 0.33,-1.64 -0.41,-2.02 z M 301.21,39.58 c -0.39,-0.18 -1.02,-0.14 -1.96,0.92 -0.19,0.25 -0.34,0.45 -0.41,0.54 -0.12,0.15 -0.09,0.40 0.22,0.08 0.64,-0.61 1.62,-0.79 1.70,0.48 0.00,0.24 -0.06,1.33 -1.68,2.99 -0.32,0.32 -0.77,0.81 -0.77,0.81 -0.36,0.36 -0.29,0.69 0.18,0.26 0.47,-0.43 2.24,-1.83 3.12,-4.05 0.20,-0.51 0.33,-1.64 -0.41,-2.02 z M 257.91,41.60 c -0.39,-0.18 -1.02,-0.14 -1.96,0.92 -0.19,0.25 -0.34,0.45 -0.41,0.55 -0.12,0.15 -0.09,0.40 0.22,0.08 0.64,-0.61 1.62,-0.79 1.70,0.48 0.00,0.24 -0.06,1.33 -1.68,2.99 -0.32,0.32 -0.77,0.81 -0.77,0.81 -0.36,0.36 -0.29,0.69 0.18,0.26 0.47,-0.43 2.24,-1.83 3.12,-4.06 0.20,-0.51 0.33,-1.64 -0.41,-2.02 z M 256.59,14.05 c 0.17,-0.48 -0.03,-0.74 -0.28,-0.16 -0.24,0.59 -1.25,2.61 -1.09,5.00 0.04,0.55 0.40,1.63 1.23,1.66 0.43,0.00 0.98,-0.31 1.38,-1.66 0.07,-0.31 0.11,-0.55 0.14,-0.67 0.04,-0.18 -0.09,-0.40 -0.23,0.02 -0.31,0.83 -1.13,1.41 -1.74,0.30 -0.10,-0.22 -0.51,-1.22 0.25,-3.42 0.15,-0.43 0.35,-1.06 0.35,-1.06 z M 287.98,16.80 c 0.21,-0.64 -0.10,-0.96 -0.40,-0.18 -0.30,0.78 -1.59,3.50 -1.19,6.59 0.09,0.71 0.69,2.08 1.88,2.05 0.61,-0.04 1.38,-0.49 1.85,-2.27 0.08,-0.40 0.12,-0.72 0.15,-0.88 0.05,-0.24 -0.16,-0.51 -0.33,0.04 -0.39,1.10 -1.51,1.92 -2.47,0.53 -0.16,-0.28 -0.82,-1.55 0.10,-4.47 0.19,-0.57 0.41,-1.41 0.41,-1.41 z M 221.73,19.17 c 0.08,0.64 0.62,1.86 1.68,1.83 0.55,-0.03 1.23,-0.43 1.65,-2.03 0.07,-0.36 0.11,-0.65 0.13,-0.79 0.04,-0.21 -0.14,-0.46 -0.29,0.04 -0.35,0.98 -1.35,1.71 -2.20,0.47 -0.14,-0.25 -0.73,-1.39 0.09,-3.99 0.17,-0.51 0.37,-1.26 0.37,-1.26 0.19,-0.57 -0.09,-0.86 -0.36,-0.16 -0.27,0.70 -1.42,3.12 -1.06,5.89 z M 229.67,10.58 c 0.55,-0.03 1.23,-0.44 1.65,-2.03 0.07,-0.36 0.11,-0.65 0.13,-0.79 0.04,-0.21 -0.14,-0.46 -0.29,0.04 -0.35,0.98 -1.35,1.71 -2.20,0.47 -0.14,-0.25 -0.73,-1.39 0.09,-3.99 0.17,-0.51 0.37,-1.26 0.37,-1.26 0.19,-0.57 -0.09,-0.86 -0.36,-0.16 -0.27,0.70 -1.42,3.12 -1.06,5.89 0.08,0.64 0.62,1.86 1.68,1.83 z M 227.47,24.79 c 0.16,-0.04 2.86,-0.46 6.02,-2.86 1.71,-1.30 2.74,-3.51 2.74,-3.51 0.00,0.00 0.85,0.71 0.97,0.86 0.26,0.32 0.40,0.56 0.52,0.22 0.45,-1.25 -0.19,-2.00 -0.79,-2.39 0.00,0.00 0.63,-1.94 -0.53,-3.89 -0.19,-0.33 -1.34,-1.37 -2.68,0.69 -0.52,0.79 -0.90,2.68 -0.16,3.21 0.74,0.54 1.82,0.98 1.82,0.98 -3.44,4.21 -5.79,5.02 -7.80,6.19 -0.52,0.30 -0.41,0.57 -0.11,0.49 z M 234.72,15.97 c -0.44,-0.19 -0.67,-0.47 -0.47,-0.75 0.68,-0.96 1.02,-0.92 1.27,-0.77 0.77,0.72 0.66,1.90 0.63,2.17 0.00,0.00 -0.99,-0.46 -1.43,-0.65 z M 213.38,8.34 c 0.17,0.09 0.36,0.09 0.40,-0.12 0.04,-0.21 0.25,-0.69 0.59,-0.37 0.25,0.23 2.25,1.85 2.95,4.14 0.58,2.00 -4.21,6.29 -4.46,6.49 -0.45,0.35 -0.29,0.56 -0.08,0.44 0.21,-0.13 0.43,-0.17 2.90,-1.96 1.99,-1.45 2.35,-3.04 2.48,-4.25 0.02,-0.06 0.03,-0.13 0.04,-0.21 0.15,-1.48 0.15,-4.03 0.23,-4.80 0.11,-1.09 0.53,-3.35 1.93,-2.25 0.32,0.25 0.66,0.58 0.66,0.58 0.30,0.35 0.68,0.76 0.84,0.33 0.24,-0.65 0.40,-1.72 0.09,-2.28 -0.14,-0.25 -1.91,-2.33 -2.99,-0.80 -1.34,1.89 -1.32,4.29 -1.39,6.98 -0.23,-0.55 -1.51,-4.09 -5.22,-5.99 -0.27,-0.14 -0.79,0.17 -0.80,1.02 -0.01,0.49 -0.09,1.70 0.26,2.02 0.36,0.32 1.40,0.94 1.57,1.03 z M 298.99,30.12 c -0.09,-1.39 -3.61,-21.50 -3.61,-21.50 0.00,0.00 1.55,1.46 1.80,1.72 0.25,0.26 0.55,0.12 0.41,-0.30 -0.14,-0.42 -3.31,-8.09 -3.42,-8.36 -0.10,-0.27 -0.20,-0.46 -0.33,-0.15 -0.13,0.31 -0.99,2.48 -0.99,2.48 0.01,0.07 0.33,0.76 0.44,1.46 0.86,5.48 4.27,27.55 4.36,28.25 0.10,0.79 0.00,1.25 -0.66,1.78 -0.66,0.53 -3.90,2.47 -7.11,0.92 -0.39,-0.22 -0.71,-0.46 -1.02,-0.74 2.08,-1.16 4.42,-2.47 4.59,-2.77 0.28,-0.51 1.07,-2.16 0.76,-2.46 -0.31,-0.30 -8.08,-3.42 -14.49,0.71 -0.22,0.17 -0.25,0.63 -0.30,0.81 -0.05,0.18 -0.26,1.25 -0.31,1.53 -0.05,0.28 0.02,0.45 0.26,0.30 0.23,-0.14 1.45,-0.86 2.65,-0.47 0.63,0.29 1.50,0.87 2.82,2.02 -0.29,0.17 -0.52,0.32 -0.69,0.41 -1.09,0.66 -7.46,4.29 -8.88,-0.81 -0.03,-0.76 -0.05,-1.57 -0.59,-0.92 -0.54,0.64 -2.86,5.55 -7.67,4.36 -1.25,-0.31 -2.83,-1.12 -7.24,-6.60 -0.82,-1.02 -7.54,-7.19 -10.63,-9.14 -1.02,-0.79 -7.13,-5.31 -7.47,-5.59 -0.35,-0.28 -1.14,-0.64 -0.25,-1.35 3.29,-2.35 15.04,-7.41 16.91,-8.25 1.87,-0.84 6.78,-2.64 8.16,-2.93 1.39,-0.29 4.18,-0.44 2.90,1.41 -1.28,1.85 -6.01,7.10 -6.36,7.63 -0.35,0.53 -1.01,1.83 -1.14,2.40 -0.13,0.57 -0.18,1.14 0.29,0.53 0.46,-0.62 5.04,-6.03 5.68,-6.64 0.64,-0.62 2.60,-3.63 2.90,-5.15 0.31,-1.52 0.59,-4.20 -2.60,-3.34 -3.19,0.86 -17.84,5.46 -26.49,11.53 -0.48,0.51 -1.25,1.08 -1.61,3.23 -0.09,0.86 -0.13,2.40 0.46,2.99 0.59,0.59 10.25,8.69 13.38,13.84 0.40,0.66 0.32,0.81 0.05,1.12 -0.28,0.31 -3.34,3.08 -6.63,1.70 -0.69,-0.38 -1.74,-1.36 -1.98,-3.82 0.12,-0.74 0.34,-1.64 -0.53,-1.05 -0.82,0.55 -4.38,2.69 -5.85,3.22 -0.34,-0.74 -0.83,-1.53 -1.57,-2.28 -1.78,-1.69 -3.35,-2.60 -5.08,-0.54 -1.73,2.06 -1.48,5.40 1.05,6.23 0.81,0.18 2.17,0.27 4.04,-0.26 0.38,-0.12 1.63,-0.37 1.08,0.58 -0.55,0.95 -5.33,7.26 -11.09,7.88 -0.73,0.08 -5.94,0.06 -4.96,-5.30 0.03,-0.57 0.31,-1.93 0.41,-2.56 0.01,-0.07 0.01,-0.13 0.01,-0.19 1.68,-0.81 3.27,-1.86 4.19,-3.14 0.29,-0.40 1.32,-2.49 0.57,-4.49 -0.30,-0.79 -1.62,-2.79 -1.89,-3.19 -0.27,-0.40 -0.47,-0.45 -0.58,-0.03 -0.12,0.42 -0.54,2.51 -0.54,2.51 0.43,0.57 2.36,3.00 1.86,3.50 -0.50,0.50 -5.02,4.32 -15.63,4.98 -1.19,0.07 -6.71,-0.06 -6.44,-4.47 0.04,-0.63 0.46,-2.59 1.11,-3.80 0.10,0.02 0.20,0.03 0.30,0.03 0.76,-0.05 1.71,-0.74 2.25,-3.53 0.09,-0.63 0.13,-1.13 0.17,-1.38 0.05,-0.38 -0.21,-0.81 -0.41,0.06 -0.46,1.72 -1.84,2.98 -3.06,0.78 -0.20,-0.44 -1.05,-2.45 0.04,-7.01 0.22,-0.89 0.49,-2.20 0.49,-2.20 0.25,-1.00 -0.15,-1.51 -0.51,-0.29 -0.36,1.22 -1.91,5.46 -1.36,10.32 0.10,0.88 0.60,2.38 1.51,2.99 -0.62,1.07 -3.52,6.19 -0.20,9.75 0.30,0.34 3.20,3.33 14.25,0.07 0.95,-0.27 2.06,-0.65 3.17,-1.13 -0.03,0.11 -0.06,0.22 -0.09,0.36 -0.33,1.56 -2.05,7.89 1.92,9.75 0.66,0.31 6.09,2.03 13.94,-6.31 1.50,-1.60 1.73,-4.45 1.73,-4.45 0.01,-0.20 0.00,-0.54 -0.05,-0.96 1.16,-0.48 2.95,-1.30 4.71,-2.70 0.34,1.08 0.60,5.92 6.42,5.23 0.64,-0.12 4.90,-1.03 4.57,-4.69 -0.03,-0.62 -0.21,-2.48 -1.09,-4.29 0.44,0.19 3.03,2.10 5.55,5.30 0.56,0.71 4.49,6.16 7.76,6.27 0.99,0.03 4.29,0.37 6.47,-4.08 0.49,0.78 1.58,4.01 6.55,2.84 0.91,-0.28 2.99,-1.24 5.20,-2.77 0.14,-0.11 0.45,-0.30 0.86,-0.54 0.11,0.11 0.23,0.22 0.35,0.33 1.87,1.50 2.56,2.66 6.10,2.40 1.20,-0.18 3.83,-0.65 5.13,-3.42 0.30,-0.67 1.13,-3.10 0.81,-6.14 z M 234.08,34.84 c -1.87,-0.28 -1.22,-1.20 -0.88,-1.54 0.34,-0.34 2.34,-1.07 3.52,1.27 0.00,0.00 -0.76,0.55 -2.64,0.27 z M 284.79,32.20 c -0.04,-0.02 -0.08,-0.04 -0.13,-0.05 0.92,-0.26 3.66,-0.58 5.10,0.23 0.00,0.00 -1.31,0.79 -2.69,1.62 -0.57,-0.51 -1.29,-1.11 -2.28,-1.80 z M 364.12,7.11 c 0.79,0.58 1.94,1.04 1.94,1.04 -3.66,4.48 -10.85,7.67 -12.56,9.01 -0.51,0.39 -0.44,0.61 -0.12,0.53 0.28,-0.08 5.76,-1.61 10.76,-5.90 2.29,-1.97 2.23,-2.11 2.81,-3.31 0.50,0.26 0.84,0.67 1.03,0.91 0.28,0.34 0.43,0.60 0.56,0.23 0.48,-1.33 -0.20,-2.13 -0.84,-2.54 0.00,0.00 0.67,-2.07 -0.56,-4.14 -0.21,-0.35 -1.43,-1.46 -2.85,0.74 -0.55,0.84 -0.96,2.85 -0.17,3.42 z M 364.85,5.08 c 0.73,-1.02 1.08,-0.99 1.36,-0.82 0.82,0.77 0.70,2.03 0.67,2.31 0.00,0.00 -1.05,-0.49 -1.52,-0.69 -0.47,-0.20 -0.72,-0.50 -0.50,-0.80 z M 346.28,7.77 c 0.17,0.09 0.36,0.11 0.41,-0.10 0.05,-0.21 0.29,-0.68 0.62,-0.34 0.28,0.28 2.09,1.78 3.03,4.95 0.16,0.42 0.55,0.46 0.64,-0.14 0.22,-1.47 0.34,-4.02 0.45,-4.79 0.16,-1.09 0.68,-3.32 2.06,-2.16 0.31,0.26 0.64,0.61 0.64,0.61 0.29,0.37 0.66,0.79 0.84,0.36 0.27,-0.64 0.49,-1.70 0.19,-2.28 -0.13,-0.26 -1.84,-2.41 -3.00,-0.93 -1.44,1.83 -1.53,4.23 -1.72,6.91 -0.20,-0.56 -1.35,-4.16 -5.02,-6.21 -0.27,-0.15 -0.81,0.13 -0.86,0.98 -0.03,0.49 -0.17,1.69 0.18,2.03 0.35,0.34 1.37,1.01 1.54,1.10 z M 366.88,15.04 c 0.18,-0.50 -0.04,-0.77 -0.29,-0.16 -0.25,0.61 -1.30,2.73 -1.14,5.22 0.04,0.58 0.42,1.70 1.29,1.73 0.45,0.00 1.03,-0.33 1.44,-1.73 0.07,-0.32 0.12,-0.57 0.15,-0.70 0.04,-0.19 -0.10,-0.42 -0.24,0.02 -0.33,0.86 -1.18,1.47 -1.82,0.31 -0.10,-0.23 -0.53,-1.28 0.26,-3.57 0.16,-0.45 0.36,-1.11 0.36,-1.11 z M 340.77,21.02 c 0.48,0.00 1.11,-0.35 1.55,-1.87 0.08,-0.34 0.13,-0.62 0.16,-0.75 0.05,-0.21 -0.10,-0.45 -0.26,0.02 -0.36,0.93 -1.27,1.58 -1.96,0.33 -0.11,-0.25 -0.58,-1.38 0.28,-3.86 0.17,-0.48 0.39,-1.20 0.39,-1.20 0.19,-0.54 -0.04,-0.84 -0.31,-0.17 -0.27,0.66 -1.40,2.94 -1.23,5.64 0.04,0.62 0.45,1.83 1.39,1.87 z M 372.46,25.64 c -0.25,-0.28 -0.37,-0.01 -0.46,0.31 -0.09,0.32 -0.36,1.52 -0.54,2.27 0.00,0.00 0.71,1.16 0.97,1.75 0.25,0.59 -0.12,0.92 -0.86,1.01 -2.08,0.25 -3.73,-0.94 -4.30,-1.48 -0.57,-0.55 0.05,-1.52 0.51,-2.68 0.37,-0.93 -0.32,-1.04 -0.84,0.00 -1.76,4.63 -4.23,5.12 -4.88,5.30 -5.86,1.60 -5.36,-3.76 -5.34,-4.64 0.02,-0.88 -0.62,-0.55 -1.34,0.03 -2.47,1.98 -4.45,3.14 -5.52,3.62 -0.92,-1.80 -2.26,-2.93 -2.82,-3.34 -6.34,-4.63 -6.87,4.71 -6.68,5.71 0.97,3.97 7.45,1.56 8.46,1.44 1.02,-0.12 0.68,1.22 0.11,2.02 -1.41,1.97 -3.03,3.38 -4.50,4.58 -6.28,5.13 -9.44,4.72 -10.41,4.69 -6.17,-0.17 -5.60,-6.82 -5.26,-8.24 1.86,-1.57 3.45,-3.28 4.38,-5.04 0.38,-0.96 1.03,-3.16 -0.15,-5.90 -0.62,-1.21 -2.56,-4.60 -2.56,-4.60 0.00,0.00 1.43,0.04 1.57,0.04 0.14,0.00 0.41,-0.14 0.06,-0.54 -0.35,-0.40 -3.36,-3.41 -3.54,-3.65 -0.18,-0.24 -0.35,-0.42 -0.45,-0.06 -0.10,0.36 -0.36,1.88 -0.42,2.20 -0.06,0.31 -0.06,0.63 0.10,0.90 0.16,0.27 0.55,1.20 0.84,1.96 0.29,0.76 3.25,6.47 3.53,6.98 0.27,0.51 0.33,0.88 0.06,1.22 -9.53,10.05 -27.91,16.23 -28.50,16.58 -0.59,0.34 -0.43,0.61 0.56,0.43 1.48,-0.26 9.74,-1.64 12.09,-2.77 1.55,-0.75 6.97,-3.41 11.41,-6.89 -0.12,0.90 -0.24,2.22 -0.17,3.89 0.30,8.08 7.53,6.74 9.43,6.33 5.68,-1.25 12.64,-9.11 13.23,-10.69 0.58,-1.56 0.67,-2.98 0.54,-4.22 1.50,-0.81 4.71,-3.40 4.71,-3.40 0.13,3.45 2.87,4.48 3.72,4.63 3.96,0.60 5.94,-2.71 6.78,-3.78 0.72,1.89 2.45,2.25 3.34,2.43 3.41,0.68 4.08,-1.74 4.25,-2.29 1.07,-3.33 -0.86,-5.81 -1.11,-6.08 z M 343.83,32.32 c -2.03,-0.14 -1.85,-0.92 -1.57,-1.23 0.30,-0.33 2.78,-1.89 4.85,0.89 0.00,0.00 -0.86,0.50 -3.28,0.33 z M 313.98,14.91 c -0.06,-0.05 -0.15,-0.03 -0.20,0.04 -1.53,2.10 -1.53,2.10 -1.53,2.10 -0.05,0.07 -0.04,0.16 0.03,0.20 2.61,1.91 2.61,1.91 2.61,1.91 0.06,0.05 0.15,0.03 0.20,-0.04 1.32,-1.81 1.32,-1.81 1.32,-1.81 2.54,1.85 2.54,1.85 2.54,1.85 0.06,0.05 0.15,0.03 0.20,-0.04 1.53,-2.10 1.53,-2.10 1.53,-2.10 0.05,-0.07 0.04,-0.16 -0.03,-0.20 -2.61,-1.91 -2.61,-1.91 -2.61,-1.91 -0.06,-0.05 -0.15,-0.03 -0.20,0.04 -1.32,1.81 -1.32,1.81 -1.32,1.81 z M 313.36,24.65 c 0.00,0.00 1.25,-0.31 1.47,-0.38 0.22,-0.06 0.34,-0.35 -0.05,-0.55 -0.39,-0.20 -4.09,-1.67 -4.37,-1.79 -0.28,-0.11 -0.38,-0.24 -0.41,0.06 -0.02,0.30 -0.07,2.73 -0.07,2.73 0.00,0.00 -0.06,0.17 0.27,0.35 0.32,0.18 0.64,0.58 0.90,0.84 0.26,0.26 3.70,2.98 3.87,3.07 0.00,0.00 -1.72,3.02 -1.94,5.38 -0.22,2.36 0.04,5.63 3.27,4.57 0.87,-0.25 4.49,-1.69 5.30,-4.21 0.26,-0.93 1.01,-2.61 -0.21,-4.31 -0.70,-1.00 -3.53,-2.69 -3.53,-2.69 0.00,0.00 2.17,-3.00 2.38,-3.37 0.21,-0.37 1.00,-2.69 1.09,-3.26 0.09,-0.56 0.13,-0.84 -0.29,-0.32 -0.42,0.52 -4.63,6.05 -4.63,6.05 z M 320.31,33.54 c -1.20,0.99 -3.72,2.29 -4.43,2.36 -0.71,0.07 -2.59,-0.28 -1.77,-2.20 0.28,-0.62 2.16,-3.84 2.16,-3.84 0.70,0.39 5.24,2.70 4.04,3.69 z M 323.08,13.04 c 0.25,-0.16 13.84,-8.02 14.32,-8.31 0.46,-0.29 0.72,-0.41 0.90,-0.85 0.18,-0.44 0.23,-0.51 0.33,-0.82 0.10,-0.32 0.21,-0.67 -0.61,-0.19 -0.53,0.31 -14.04,8.11 -14.59,8.46 -0.55,0.35 -0.74,0.44 -0.83,0.86 -0.09,0.42 -0.13,0.67 -0.16,0.73 -0.10,0.28 -0.17,0.63 0.64,0.10 z M 306.40,14.53 c 0.17,-0.04 3.05,-0.49 6.41,-3.05 1.82,-1.38 2.92,-3.74 2.92,-3.74 0.00,0.00 0.91,0.76 1.03,0.91 0.28,0.34 0.43,0.60 0.56,0.23 0.48,-1.33 -0.20,-2.13 -0.84,-2.54 0.00,0.00 0.67,-2.07 -0.56,-4.14 -0.21,-0.35 -1.43,-1.46 -2.85,0.74 -0.55,0.84 -0.96,2.85 -0.17,3.42 0.79,0.58 1.94,1.04 1.94,1.04 -3.66,4.48 -6.16,5.34 -8.30,6.59 -0.55,0.32 -0.44,0.61 -0.12,0.53 z M 314.12,5.13 c -0.47,-0.20 -0.72,-0.50 -0.50,-0.80 0.73,-1.02 1.08,-0.98 1.36,-0.82 0.82,0.77 0.70,2.03 0.67,2.31 0.00,0.00 -1.05,-0.49 -1.52,-0.70 z M 369.26,37.95 c -0.24,0.68 -0.34,1.12 -0.31,1.38 0.03,0.26 0.12,1.10 0.12,1.10 -0.25,0.20 -1.33,0.87 -2.40,0.08 0.07,-0.23 0.21,-0.70 0.24,-0.95 0.12,-0.40 -0.13,-0.69 -0.32,-0.28 -0.20,0.41 -0.65,1.79 -0.99,2.10 -0.34,0.31 -0.74,1.45 -3.30,0.29 -0.45,-0.17 -1.23,-0.75 -2.46,0.48 -2.77,2.57 -4.68,2.78 -7.79,3.88 -0.38,0.17 -1.16,0.76 -0.23,0.67 0.94,-0.09 4.87,0.00 7.01,-2.46 0.45,-0.44 0.96,-1.58 2.66,-0.92 0.94,0.36 2.68,1.85 4.58,-1.10 1.12,0.75 2.82,0.45 3.09,-0.38 0.27,-0.82 0.58,-1.64 0.58,-2.20 0.00,-0.56 -0.05,-1.30 -0.05,-1.30 -0.04,-0.44 -0.19,-1.07 -0.44,-0.40 z" />
     </g>
</svg>
