<?xml version="1.0" encoding="UTF-8"?>
<svg version="1.1" id="Layer_1" x="0px" y="0px" width="578" height="59" viewBox="0 0 578 59"
xml:space="preserve" xmlns="http://www.w3.org/2000/svg" xmlns:svg="http://www.w3.org/2000/svg" xmlns:rdf="http://www.w3.org/1999/02/22-rdf-syntax-ns#"  xmlns:cc="http://creativecommons.org/ns#" xmlns:dc="http://purl.org/dc/elements/1.1/">
     <g>
<path d="M 218.38,34.73 c -1.92,2.63 -1.92,2.63 -1.92,2.63 -0.06,0.08 -0.05,0.20 0.03,0.25 3.27,2.38 3.27,2.38 3.27,2.38 0.08,0.06 0.19,0.04 0.25,-0.05 1.91,-2.63 1.91,-2.63 1.91,-2.63 0.06,-0.08 0.05,-0.20 -0.03,-0.25 -3.27,-2.38 -3.27,-2.38 -3.27,-2.38 -0.08,-0.06 -0.19,-0.04 -0.25,0.05 z M 304.96,49.16 c 0.21,-0.44 1.67,-3.46 -0.06,-14.54 -0.13,-0.92 -2.75,-19.64 -2.75,-19.64 0.00,0.00 1.55,1.46 1.80,1.72 0.25,0.26 0.55,0.12 0.41,-0.30 -0.14,-0.42 -3.32,-8.09 -3.42,-8.36 -0.10,-0.27 -0.20,-0.46 -0.33,-0.15 -0.13,0.31 -0.88,2.38 -0.88,2.38 0.20,1.35 1.99,15.83 2.10,16.81 0.12,0.99 2.63,17.36 2.76,21.89 -0.04,0.46 0.17,0.64 0.38,0.19 z M 237.93,45.22 c -0.04,0.46 0.17,0.64 0.38,0.19 0.21,-0.44 1.27,-2.98 -0.13,-14.40 -0.11,-0.92 -2.43,-16.04 -2.43,-16.04 0.00,0.00 1.55,1.46 1.80,1.72 0.25,0.26 0.55,0.12 0.41,-0.30 -0.14,-0.42 -3.31,-8.09 -3.42,-8.36 -0.10,-0.27 -0.20,-0.46 -0.33,-0.15 -0.13,0.31 -0.88,2.38 -0.88,2.38 0.20,1.35 1.73,12.08 1.85,13.07 0.12,0.99 2.63,17.36 2.76,21.89 z M 296.84,41.68 c 0.17,-2.87 -0.23,-5.44 -0.23,-5.44 -0.99,-6.50 -3.19,-21.09 -3.19,-21.09 0.00,0.00 1.55,1.46 1.80,1.72 0.25,0.26 0.55,0.12 0.41,-0.30 -0.14,-0.42 -3.32,-8.10 -3.42,-8.36 -0.10,-0.27 -0.20,-0.46 -0.33,-0.15 -0.13,0.31 -0.88,2.38 -0.88,2.38 0.13,0.90 2.09,15.15 3.51,24.15 0.51,3.23 1.18,8.13 0.80,8.90 -0.38,0.77 -8.82,8.63 -16.14,8.07 -1.28,-0.10 -8.36,-1.67 -5.76,-9.09 0.45,-0.64 11.75,-5.35 12.04,-5.51 0.29,-0.16 0.86,-1.99 1.18,-2.59 0.32,-0.61 0.10,-0.74 -0.54,-0.45 -0.64,0.29 -9.03,4.16 -10.02,4.20 -0.99,0.03 -7.49,-0.16 -10.41,-7.14 -0.26,-0.80 -0.06,-1.20 0.51,-1.53 0.57,-0.32 8.27,-4.90 14.52,-2.27 0.42,0.21 1.08,-0.06 0.30,-0.74 -0.78,-0.68 -4.33,-2.61 -9.54,-2.16 -0.89,0.15 -5.62,0.66 -6.83,5.66 -0.30,1.40 -1.63,6.15 5.75,10.66 0.00,0.00 -8.93,4.52 -16.66,-1.76 -0.42,-0.36 -0.58,-1.09 -0.85,-0.49 -0.27,0.60 -0.54,1.13 -0.54,1.13 -1.87,0.26 -5.96,0.10 -13.82,7.89 -1.42,1.45 -5.72,6.30 -9.04,5.81 -1.36,-0.20 -4.55,-0.79 -2.38,-7.13 0.04,-0.15 0.06,-0.28 0.07,-0.39 1.77,-1.41 4.02,-3.52 4.69,-4.92 0.42,-1.12 0.92,-3.67 -0.07,-5.83 -0.42,-0.84 -2.19,-4.08 -2.19,-4.08 0.00,0.00 1.16,0.20 1.41,0.26 0.26,0.05 0.36,-0.22 0.05,-0.56 -0.31,-0.34 -2.98,-2.81 -3.10,-3.06 -0.12,-0.26 -0.29,-0.83 -0.46,-0.44 -0.17,0.39 -0.69,2.71 -0.69,2.71 0.49,1.06 3.54,6.96 3.95,7.73 0.41,0.77 0.76,1.19 -0.27,2.16 -1.03,0.97 -7.31,6.79 -14.21,8.05 -1.52,0.28 -7.22,0.99 -9.50,-3.59 -0.41,-0.89 -1.60,-3.83 0.33,-8.72 0.04,0.00 0.09,0.01 0.13,0.01 0.79,-0.03 1.78,-0.65 2.41,-3.15 0.10,-0.56 0.16,-1.02 0.21,-1.24 0.06,-0.34 -0.20,-0.73 -0.42,0.05 -0.52,1.54 -1.97,2.66 -3.17,0.67 -0.20,-0.40 -1.03,-2.21 0.20,-6.29 0.25,-0.79 0.56,-1.97 0.56,-1.97 0.28,-0.89 -0.12,-1.36 -0.52,-0.26 -0.40,1.10 -2.09,4.88 -1.64,9.25 0.08,0.79 0.57,2.16 1.51,2.71 -0.01,0.03 -0.02,0.05 -0.03,0.08 -0.57,1.56 -3.95,10.88 2.68,14.72 1.12,0.65 5.90,3.43 16.21,-2.90 0.21,-0.11 0.49,-0.30 0.82,-0.53 -0.52,1.77 -1.83,8.16 3.59,9.19 1.31,0.25 4.79,0.41 10.03,-5.91 0.79,-0.95 7.56,-6.93 11.22,-6.80 0.63,0.03 1.16,-0.35 1.58,1.21 0.43,1.56 1.29,4.22 4.86,4.81 0.41,0.02 1.29,0.15 1.33,-1.57 0.05,-1.28 -0.18,-2.29 -0.18,-2.29 0.61,0.05 5.63,1.14 13.55,-1.99 0.00,0.00 -2.56,8.84 4.04,11.22 1.02,0.33 8.68,2.89 18.38,-6.63 1.10,-1.08 2.08,-2.74 2.41,-6.04 z M 209.48,16.42 c 0.18,0.08 0.37,0.08 0.40,-0.13 0.04,-0.21 0.23,-0.70 0.59,-0.39 0.30,0.26 2.22,1.62 3.40,4.71 0.19,0.41 0.59,0.42 0.63,-0.18 0.10,-1.48 0.03,-4.03 0.09,-4.81 0.08,-1.09 0.43,-3.37 1.89,-2.31 0.33,0.24 0.69,0.56 0.69,0.56 0.32,0.34 0.72,0.73 0.86,0.30 0.22,-0.66 0.36,-1.74 0.02,-2.29 -0.15,-0.24 -2.01,-2.27 -3.06,-0.70 -1.30,1.93 -1.20,4.34 -1.19,7.02 -0.24,-0.54 -1.66,-4.04 -5.48,-5.81 -0.28,-0.13 -0.80,0.20 -0.78,1.04 0.01,0.49 -0.04,1.70 0.33,2.01 0.37,0.31 1.44,0.90 1.62,0.98 z M 297.73,52.06 c -0.53,0.31 -8.56,3.98 -9.10,4.33 -0.55,0.35 -0.74,0.44 -0.83,0.87 -0.09,0.42 -0.13,0.67 -0.16,0.73 -0.10,0.28 -0.17,0.63 0.64,0.10 0.25,-0.16 8.38,-3.88 8.83,-4.18 0.45,-0.30 0.72,-0.41 0.90,-0.85 0.18,-0.44 0.23,-0.52 0.33,-0.82 0.11,-0.32 0.21,-0.67 -0.61,-0.19 z M 277.83,46.20 c -0.09,0.42 -0.13,0.67 -0.16,0.73 -0.10,0.28 -0.17,0.63 0.64,0.10 0.25,-0.16 8.38,-3.88 8.83,-4.18 0.45,-0.30 0.72,-0.41 0.91,-0.85 0.18,-0.44 0.23,-0.52 0.33,-0.82 0.11,-0.32 0.21,-0.67 -0.61,-0.19 -0.53,0.31 -8.56,3.98 -9.10,4.33 -0.55,0.35 -0.74,0.44 -0.83,0.87 z M 213.73,37.59 c 0.17,-0.48 -0.03,-0.74 -0.28,-0.15 -0.24,0.59 -1.25,2.61 -1.09,5.00 0.04,0.55 0.40,1.63 1.23,1.66 0.43,0.00 0.98,-0.31 1.38,-1.66 0.07,-0.30 0.11,-0.55 0.14,-0.67 0.04,-0.18 -0.09,-0.40 -0.23,0.02 -0.31,0.83 -1.13,1.40 -1.74,0.30 -0.10,-0.22 -0.51,-1.22 0.25,-3.42 0.15,-0.43 0.35,-1.06 0.35,-1.06 z M 283.46,23.14 c 0.72,0.00 1.65,-0.60 2.32,-3.21 0.11,-0.59 0.19,-1.06 0.23,-1.29 0.07,-0.35 -0.15,-0.77 -0.39,0.04 -0.53,1.60 -1.90,2.71 -2.93,0.57 -0.17,-0.43 -0.86,-2.37 0.41,-6.61 0.26,-0.82 0.58,-2.05 0.58,-2.05 0.29,-0.93 -0.06,-1.43 -0.46,-0.30 -0.40,1.14 -2.09,5.05 -1.83,9.66 0.06,1.07 0.67,3.14 2.07,3.20 z M 244.84,29.41 c 0.14,-0.53 -0.10,-0.79 -0.31,-0.14 -0.21,0.65 -1.11,2.91 -0.73,5.46 0.09,0.59 0.57,1.71 1.47,1.67 0.46,-0.04 1.03,-0.42 1.33,-1.90 0.05,-0.33 0.07,-0.60 0.09,-0.73 0.03,-0.20 -0.13,-0.42 -0.25,0.04 -0.26,0.91 -1.09,1.61 -1.84,0.47 -0.13,-0.23 -0.66,-1.27 -0.04,-3.69 0.13,-0.47 0.28,-1.17 0.28,-1.17 z M 244.73,16.06 c 0.46,-0.04 1.03,-0.42 1.33,-1.90 0.05,-0.33 0.07,-0.60 0.09,-0.73 0.03,-0.20 -0.13,-0.42 -0.25,0.04 -0.26,0.91 -1.09,1.61 -1.84,0.47 -0.13,-0.23 -0.66,-1.27 -0.04,-3.69 0.13,-0.47 0.28,-1.17 0.28,-1.17 0.14,-0.53 -0.10,-0.79 -0.31,-0.14 -0.21,0.65 -1.11,2.91 -0.73,5.46 0.09,0.59 0.57,1.71 1.47,1.67 z M 248.12,52.49 c -0.28,0.98 -1.17,1.73 -1.98,0.51 -0.13,-0.24 -0.71,-1.36 -0.04,-3.97 0.14,-0.51 0.30,-1.26 0.30,-1.26 0.15,-0.57 -0.11,-0.85 -0.33,-0.15 -0.22,0.70 -1.19,3.13 -0.79,5.87 0.09,0.63 0.62,1.84 1.58,1.79 0.50,-0.04 1.11,-0.45 1.43,-2.05 0.05,-0.36 0.08,-0.64 0.10,-0.79 0.03,-0.22 -0.14,-0.45 -0.27,0.04 z M 266.60,51.97 c -0.28,0.98 -1.17,1.73 -1.98,0.51 -0.13,-0.24 -0.71,-1.36 -0.04,-3.97 0.14,-0.51 0.30,-1.26 0.30,-1.26 0.15,-0.57 -0.11,-0.85 -0.33,-0.15 -0.22,0.70 -1.19,3.13 -0.79,5.87 0.09,0.63 0.62,1.84 1.58,1.79 0.50,-0.04 1.11,-0.45 1.43,-2.05 0.05,-0.36 0.08,-0.64 0.10,-0.79 0.03,-0.21 -0.14,-0.45 -0.27,0.04 z M 224.02,18.45 c 0.50,-0.04 1.11,-0.45 1.43,-2.05 0.05,-0.36 0.08,-0.64 0.10,-0.79 0.03,-0.21 -0.14,-0.45 -0.27,0.04 -0.28,0.98 -1.17,1.73 -1.98,0.51 -0.13,-0.24 -0.71,-1.36 -0.04,-3.97 0.14,-0.51 0.30,-1.26 0.30,-1.26 0.15,-0.57 -0.11,-0.85 -0.33,-0.15 -0.22,0.70 -1.19,3.13 -0.79,5.87 0.09,0.63 0.62,1.84 1.58,1.79 z M 240.00,25.66 c 0.56,0.12 0.86,0.46 1.00,0.66 0.06,0.08 0.15,0.03 0.18,-0.02 0.70,-1.23 0.16,-2.05 -0.91,-2.42 -0.43,-0.15 -0.59,-0.76 1.06,-1.70 1.52,-0.87 14.87,-6.60 15.21,-6.81 0.46,-0.29 0.73,-0.39 0.92,-0.82 0.19,-0.43 0.24,-0.51 0.35,-0.81 0.11,-0.32 0.22,-0.66 -0.61,-0.20 -0.44,0.24 -15.25,6.49 -16.52,7.42 -0.64,0.47 -1.19,1.23 -1.41,2.08 -0.32,1.22 -0.07,2.47 0.73,2.63 z M 212.44,28.04 c -0.32,1.23 -0.07,2.47 0.73,2.63 0.56,0.12 0.86,0.46 1.00,0.66 0.06,0.08 0.15,0.03 0.18,-0.02 0.70,-1.23 0.16,-2.05 -0.91,-2.42 -0.43,-0.15 -0.59,-0.76 1.06,-1.70 1.52,-0.87 14.87,-6.60 15.21,-6.81 0.46,-0.29 0.73,-0.39 0.92,-0.83 0.19,-0.43 0.24,-0.51 0.35,-0.81 0.11,-0.32 0.23,-0.66 -0.61,-0.20 -0.44,0.24 -15.25,6.49 -16.52,7.42 -0.64,0.47 -1.19,1.23 -1.41,2.08 z M 296.19,6.63 c 0.15,-0.26 0.42,-1.08 0.36,-1.79 2.12,0.29 5.52,0.06 8.68,-1.84 0.62,-0.35 1.00,-0.68 0.84,0.04 -0.16,0.71 -0.38,1.70 -0.49,2.12 -0.11,0.42 0.00,0.66 0.13,0.42 0.13,-0.24 1.92,-5.57 0.99,-5.04 -0.93,0.53 -5.90,3.32 -10.96,2.03 -0.55,-0.15 -0.75,-0.22 -0.93,0.06 -0.18,0.27 -0.46,1.53 -0.46,1.53 0.35,0.47 1.37,1.31 1.55,2.61 0.00,0.29 0.15,0.13 0.29,-0.13 z M 251.24,26.91 c -0.96,1.05 -1.26,1.76 -1.54,2.21 -0.39,0.62 0.10,0.89 0.55,0.41 0.45,-0.48 0.75,-0.96 2.06,-0.93 1.30,0.03 4.42,-0.09 3.26,0.77 -1.17,0.86 -1.95,1.35 -1.95,1.35 -0.76,0.54 -1.42,1.56 -0.09,0.99 1.34,-0.57 3.10,-1.46 4.46,-3.50 0.39,-0.59 0.86,-1.39 -0.98,-1.66 -1.83,-0.27 -4.80,-0.70 -5.76,0.34 z M 258.46,20.87 c 0.58,-0.19 4.08,-1.12 5.95,-2.91 1.18,-1.18 2.40,-3.35 2.57,-4.29 0.05,-0.21 0.29,-0.68 0.62,-0.34 0.28,0.28 2.09,1.78 3.03,4.95 0.16,0.42 0.55,0.46 0.64,-0.13 0.22,-1.47 0.34,-4.02 0.45,-4.79 0.16,-1.09 0.68,-3.33 2.06,-2.16 0.31,0.26 0.64,0.61 0.64,0.61 0.29,0.37 0.66,0.79 0.84,0.36 0.27,-0.64 0.49,-1.70 0.19,-2.28 -0.13,-0.26 -1.83,-2.41 -3.00,-0.93 -1.44,1.83 -1.53,4.23 -1.72,6.91 -0.20,-0.56 -1.35,-4.16 -5.02,-6.21 -0.27,-0.15 -0.81,0.13 -0.86,0.98 -0.03,0.49 -0.17,1.69 0.18,2.03 0.27,0.27 0.96,0.73 1.33,0.97 -0.25,0.81 -1.27,2.77 -7.89,6.76 -0.30,0.22 -0.58,0.66 0.00,0.47 z M 363.17,13.13 c 0.79,0.58 1.93,1.04 1.93,1.04 -3.66,4.49 -10.84,7.67 -12.55,9.01 -0.51,0.39 -0.44,0.61 -0.12,0.53 0.29,-0.08 5.76,-1.61 10.76,-5.90 2.29,-1.97 2.23,-2.11 2.82,-3.30 0.50,0.26 0.84,0.67 1.03,0.91 0.28,0.34 0.43,0.60 0.56,0.23 0.48,-1.33 -0.20,-2.13 -0.84,-2.54 0.00,0.00 0.67,-2.07 -0.56,-4.14 -0.21,-0.35 -1.43,-1.46 -2.85,0.74 -0.55,0.84 -0.96,2.85 -0.17,3.42 z M 363.90,11.10 c 0.73,-1.02 1.08,-0.99 1.36,-0.82 0.82,0.77 0.70,2.02 0.67,2.31 0.00,0.00 -1.05,-0.49 -1.52,-0.70 -0.47,-0.20 -0.72,-0.50 -0.50,-0.80 z M 365.93,21.06 c 0.18,-0.50 -0.04,-0.77 -0.29,-0.16 -0.25,0.61 -1.30,2.73 -1.14,5.22 0.04,0.58 0.42,1.70 1.29,1.73 0.45,0.00 1.03,-0.33 1.44,-1.74 0.07,-0.32 0.12,-0.57 0.15,-0.70 0.04,-0.19 -0.10,-0.42 -0.24,0.02 -0.33,0.86 -1.18,1.47 -1.82,0.31 -0.10,-0.23 -0.53,-1.28 0.26,-3.57 0.16,-0.44 0.36,-1.11 0.36,-1.11 z M 345.32,13.79 c 0.17,0.09 0.36,0.11 0.41,-0.10 0.05,-0.21 0.28,-0.68 0.62,-0.34 0.28,0.28 2.09,1.78 3.03,4.95 0.16,0.42 0.55,0.46 0.64,-0.14 0.22,-1.47 0.34,-4.02 0.45,-4.79 0.16,-1.09 0.68,-3.32 2.06,-2.16 0.31,0.26 0.64,0.61 0.64,0.61 0.29,0.37 0.66,0.79 0.84,0.36 0.27,-0.64 0.49,-1.71 0.19,-2.28 -0.13,-0.25 -1.84,-2.41 -3.00,-0.93 -1.44,1.83 -1.53,4.23 -1.72,6.91 -0.20,-0.56 -1.35,-4.15 -5.02,-6.21 -0.27,-0.15 -0.81,0.13 -0.86,0.98 -0.03,0.49 -0.17,1.69 0.18,2.03 0.35,0.34 1.37,1.00 1.54,1.10 z M 339.82,27.04 c 0.48,0.00 1.11,-0.35 1.55,-1.87 0.08,-0.34 0.13,-0.62 0.16,-0.75 0.05,-0.21 -0.10,-0.45 -0.26,0.02 -0.35,0.93 -1.27,1.58 -1.96,0.33 -0.11,-0.25 -0.58,-1.38 0.28,-3.86 0.17,-0.48 0.39,-1.20 0.39,-1.20 0.19,-0.54 -0.04,-0.84 -0.31,-0.17 -0.27,0.66 -1.40,2.94 -1.23,5.63 0.04,0.62 0.45,1.83 1.39,1.87 z M 312.40,30.67 c 0.00,0.00 1.25,-0.31 1.47,-0.38 0.22,-0.06 0.34,-0.34 -0.05,-0.55 -0.39,-0.20 -4.09,-1.67 -4.37,-1.79 -0.28,-0.11 -0.38,-0.24 -0.41,0.06 -0.02,0.30 -0.07,2.73 -0.07,2.73 0.00,0.00 -0.06,0.17 0.27,0.35 0.32,0.18 0.64,0.58 0.90,0.84 0.26,0.26 3.70,2.98 3.87,3.07 0.00,0.00 -1.72,3.02 -1.94,5.38 -0.22,2.36 0.04,5.63 3.27,4.57 0.87,-0.25 4.49,-1.69 5.30,-4.21 0.26,-0.93 1.01,-2.61 -0.21,-4.31 -0.70,-1.00 -3.53,-2.69 -3.53,-2.69 0.00,0.00 2.17,-3.00 2.38,-3.37 0.21,-0.37 1.00,-2.69 1.09,-3.25 0.09,-0.56 0.13,-0.84 -0.29,-0.32 -0.42,0.52 -4.63,6.05 -4.63,6.05 z M 319.36,39.56 c -1.20,0.99 -3.72,2.29 -4.43,2.36 -0.71,0.07 -2.59,-0.28 -1.77,-2.20 0.28,-0.62 2.16,-3.84 2.16,-3.84 0.70,0.39 5.24,2.70 4.04,3.69 z M 368.30,43.97 c -0.24,0.68 -0.34,1.12 -0.31,1.38 0.03,0.26 0.11,1.10 0.11,1.10 -0.25,0.20 -1.33,0.87 -2.40,0.08 0.07,-0.23 0.21,-0.70 0.24,-0.95 0.12,-0.40 -0.13,-0.69 -0.32,-0.28 -0.20,0.41 -0.65,1.79 -0.99,2.10 -0.34,0.31 -0.73,1.45 -3.30,0.29 -0.45,-0.17 -1.23,-0.75 -2.46,0.48 -2.77,2.57 -4.68,2.77 -7.79,3.88 -0.38,0.17 -1.16,0.76 -0.23,0.67 0.94,-0.09 4.87,0.00 7.01,-2.46 0.45,-0.43 0.96,-1.58 2.66,-0.92 0.94,0.36 2.68,1.85 4.58,-1.10 1.12,0.75 2.82,0.45 3.09,-0.38 0.27,-0.82 0.58,-1.64 0.58,-2.20 0.00,-0.56 -0.05,-1.30 -0.05,-1.30 -0.04,-0.44 -0.19,-1.07 -0.44,-0.40 z M 371.51,31.66 c -0.25,-0.28 -0.37,-0.01 -0.46,0.31 -0.09,0.32 -0.36,1.52 -0.53,2.27 0.00,0.00 0.71,1.16 0.97,1.75 0.25,0.59 -0.12,0.92 -0.86,1.01 -2.08,0.25 -3.73,-0.94 -4.30,-1.48 -0.57,-0.55 0.05,-1.52 0.51,-2.68 0.37,-0.93 -0.32,-1.04 -0.84,0.00 -1.76,4.63 -4.23,5.12 -4.88,5.30 -5.86,1.60 -5.36,-3.76 -5.34,-4.64 0.02,-0.88 -0.62,-0.55 -1.34,0.03 -2.47,1.98 -4.45,3.14 -5.52,3.62 -0.92,-1.80 -2.26,-2.93 -2.82,-3.34 -6.34,-4.62 -6.87,4.71 -6.68,5.71 0.97,3.97 7.45,1.56 8.46,1.44 1.02,-0.12 0.68,1.22 0.11,2.02 -1.41,1.97 -3.03,3.38 -4.50,4.57 -6.28,5.13 -9.44,4.72 -10.41,4.69 -6.17,-0.17 -5.60,-6.82 -5.26,-8.24 1.86,-1.57 3.45,-3.28 4.38,-5.04 0.38,-0.97 1.03,-3.16 -0.15,-5.91 -0.62,-1.21 -2.56,-4.60 -2.56,-4.60 0.00,0.00 1.43,0.04 1.57,0.04 0.14,0.00 0.41,-0.14 0.06,-0.54 -0.35,-0.40 -3.36,-3.40 -3.54,-3.65 -0.18,-0.24 -0.35,-0.41 -0.45,-0.06 -0.10,0.36 -0.36,1.88 -0.42,2.20 -0.06,0.31 -0.06,0.63 0.10,0.90 0.15,0.27 0.55,1.20 0.84,1.96 0.29,0.76 3.26,6.47 3.53,6.98 0.27,0.51 0.33,0.88 0.06,1.22 -9.53,10.05 -27.91,16.23 -28.50,16.58 -0.59,0.34 -0.43,0.61 0.56,0.43 1.48,-0.26 9.74,-1.64 12.09,-2.77 1.55,-0.75 6.97,-3.41 11.41,-6.89 -0.12,0.90 -0.24,2.22 -0.18,3.89 0.30,8.08 7.53,6.74 9.43,6.33 5.68,-1.25 12.64,-9.11 13.23,-10.68 0.58,-1.56 0.67,-2.98 0.54,-4.22 1.50,-0.81 4.71,-3.40 4.71,-3.40 0.13,3.45 2.88,4.48 3.72,4.63 3.96,0.60 5.94,-2.71 6.78,-3.78 0.72,1.89 2.45,2.26 3.34,2.43 3.41,0.68 4.08,-1.74 4.26,-2.29 1.07,-3.33 -0.86,-5.81 -1.11,-6.08 z M 342.87,38.34 c -2.02,-0.14 -1.85,-0.92 -1.57,-1.22 0.30,-0.33 2.78,-1.89 4.85,0.89 0.00,0.00 -0.86,0.50 -3.28,0.33 z M 311.93,12.38 c 0.79,0.58 1.93,1.04 1.93,1.04 -3.66,4.49 -6.16,5.34 -8.30,6.60 -0.55,0.32 -0.44,0.61 -0.12,0.52 0.17,-0.04 3.05,-0.49 6.41,-3.05 1.82,-1.38 2.92,-3.74 2.92,-3.74 0.00,0.00 0.91,0.76 1.03,0.91 0.28,0.34 0.43,0.60 0.56,0.23 0.48,-1.33 -0.20,-2.13 -0.84,-2.54 0.00,0.00 0.67,-2.07 -0.56,-4.14 -0.21,-0.35 -1.43,-1.46 -2.85,0.74 -0.55,0.84 -0.96,2.85 -0.17,3.42 z M 312.66,10.35 c 0.73,-1.02 1.08,-0.99 1.36,-0.82 0.82,0.77 0.70,2.03 0.67,2.31 0.00,0.00 -1.05,-0.49 -1.52,-0.69 -0.47,-0.20 -0.72,-0.50 -0.50,-0.80 z M 313.03,20.93 c -0.06,-0.05 -0.15,-0.03 -0.20,0.04 -1.53,2.10 -1.53,2.10 -1.53,2.10 -0.05,0.07 -0.04,0.16 0.03,0.20 2.61,1.91 2.61,1.91 2.61,1.91 0.06,0.05 0.15,0.03 0.20,-0.04 1.32,-1.81 1.32,-1.81 1.32,-1.81 2.54,1.85 2.54,1.85 2.54,1.85 0.06,0.05 0.15,0.03 0.20,-0.04 1.53,-2.10 1.53,-2.10 1.53,-2.10 0.05,-0.07 0.04,-0.16 -0.03,-0.20 -2.61,-1.91 -2.61,-1.91 -2.61,-1.91 -0.06,-0.05 -0.15,-0.03 -0.20,0.04 -1.32,1.81 -1.32,1.81 -1.32,1.81 z M 322.13,19.07 c 0.25,-0.16 13.84,-8.02 14.32,-8.31 0.46,-0.29 0.72,-0.41 0.91,-0.85 0.18,-0.44 0.23,-0.52 0.33,-0.82 0.10,-0.32 0.21,-0.67 -0.61,-0.19 -0.53,0.31 -14.04,8.11 -14.59,8.46 -0.55,0.35 -0.74,0.44 -0.83,0.87 -0.09,0.42 -0.13,0.67 -0.16,0.73 -0.10,0.28 -0.17,0.63 0.64,0.10 z" />
     </g>
</svg>
