<?xml version="1.0" encoding="UTF-8"?>
<svg version="1.1" id="Layer_1" x="0px" y="0px" width="578" height="51" viewBox="0 0 578 51"
xml:space="preserve" xmlns="http://www.w3.org/2000/svg" xmlns:svg="http://www.w3.org/2000/svg" xmlns:rdf="http://www.w3.org/1999/02/22-rdf-syntax-ns#"  xmlns:cc="http://creativecommons.org/ns#" xmlns:dc="http://purl.org/dc/elements/1.1/">
     <g>
<path d="M 262.70,18.98 c 0.17,-0.05 3.07,-1.23 6.51,-3.96 2.89,-2.30 5.53,-6.99 5.53,-6.99 0.00,0.00 0.97,0.76 1.11,0.91 0.30,0.35 0.46,0.60 0.59,0.22 0.45,-1.40 -0.28,-2.20 -0.97,-2.61 0.00,0.00 0.63,-2.17 -0.73,-4.28 -0.23,-0.35 -1.54,-1.46 -2.94,0.87 -0.54,0.89 -0.90,2.99 -0.06,3.56 0.84,0.57 2.05,1.02 2.05,1.02 -3.65,4.79 -8.79,9.34 -10.97,10.72 -0.56,0.35 -0.44,0.65 -0.11,0.55 z M 272.97,5.38 c -0.49,-0.19 -0.76,-0.49 -0.55,-0.81 0.72,-1.09 1.09,-1.06 1.38,-0.90 0.88,0.77 0.80,2.08 0.77,2.38 0.00,0.00 -1.11,-0.48 -1.61,-0.67 z M 275.79,19.47 c -0.20,0.62 -0.35,1.10 -0.08,1.82 0.27,0.71 1.00,2.33 1.12,2.56 0.12,0.23 0.15,0.49 -0.25,0.66 -0.40,0.17 -2.24,0.56 -2.58,-1.40 -0.34,-1.96 -0.37,-2.53 -0.54,-2.86 -0.17,-0.33 -0.33,-0.37 -0.46,-0.04 -0.13,0.33 -0.21,1.01 -0.23,1.13 -0.02,0.11 -0.02,0.19 0.05,0.31 0.07,0.12 0.80,2.31 0.47,2.91 -0.33,0.60 -1.98,1.69 -2.84,0.55 -0.41,-0.79 -0.16,-2.80 -0.16,-3.27 0.00,-0.47 -0.15,-0.63 -0.35,-0.25 -0.20,0.38 -0.31,0.63 -0.30,0.97 0.01,0.34 0.06,1.81 0.03,2.27 -0.03,0.46 0.00,1.96 0.88,2.38 0.88,0.42 2.17,0.03 3.14,-1.81 0.75,1.10 1.90,1.10 2.51,0.87 0.52,-0.19 1.10,-0.97 1.27,-2.06 0.17,-1.08 -0.11,-1.83 -0.45,-2.44 -0.45,-0.75 -0.75,-2.02 -0.75,-2.02 -0.16,-0.45 -0.28,-0.91 -0.48,-0.29 z M 292.52,40.43 c -0.04,0.46 0.17,0.64 0.38,0.19 0.21,-0.45 1.67,-3.47 -0.06,-14.54 -0.13,-0.92 -2.78,-17.57 -2.78,-17.57 0.00,0.00 1.55,1.46 1.80,1.72 0.25,0.26 0.55,0.12 0.41,-0.30 -0.14,-0.42 -3.31,-8.10 -3.42,-8.36 -0.10,-0.27 -0.20,-0.46 -0.33,-0.15 -0.13,0.31 -0.88,2.38 -0.88,2.38 0.20,1.35 2.02,13.75 2.13,14.74 0.12,0.99 2.63,17.36 2.76,21.89 z M 247.69,38.51 c 0.15,-0.45 0.20,-0.53 0.27,-0.84 0.08,-0.33 0.17,-0.68 -0.62,-0.15 -0.51,0.34 -11.90,6.57 -12.42,6.96 -0.52,0.39 -0.71,0.49 -0.77,0.92 -0.06,0.43 -0.09,0.67 -0.11,0.74 -0.08,0.29 -0.13,0.64 0.64,0.06 0.24,-0.18 11.73,-6.47 12.16,-6.79 0.43,-0.32 0.69,-0.45 0.85,-0.90 z M 284.02,44.17 c -0.31,0.83 -1.13,1.41 -1.74,0.30 -0.10,-0.22 -0.51,-1.23 0.24,-3.42 0.15,-0.43 0.35,-1.06 0.35,-1.06 0.17,-0.48 -0.03,-0.74 -0.28,-0.16 -0.24,0.59 -1.25,2.61 -1.09,5.00 0.04,0.55 0.40,1.63 1.23,1.65 0.43,0.00 0.98,-0.31 1.38,-1.66 0.07,-0.30 0.11,-0.55 0.14,-0.67 0.04,-0.18 -0.09,-0.40 -0.23,0.02 z M 239.34,20.50 c 0.47,0.00 1.09,-0.34 1.52,-1.83 0.07,-0.34 0.12,-0.61 0.15,-0.74 0.05,-0.20 -0.10,-0.44 -0.26,0.02 -0.35,0.91 -1.25,1.55 -1.92,0.33 -0.11,-0.24 -0.56,-1.35 0.27,-3.77 0.17,-0.47 0.38,-1.17 0.38,-1.17 0.19,-0.53 -0.04,-0.82 -0.30,-0.17 -0.26,0.65 -1.37,2.88 -1.20,5.51 0.04,0.61 0.44,1.79 1.36,1.82 z M 260.38,12.42 c 0.49,-0.05 1.08,-0.46 1.37,-2.04 0.04,-0.35 0.06,-0.63 0.08,-0.77 0.03,-0.21 -0.15,-0.44 -0.26,0.05 -0.26,0.97 -1.12,1.72 -1.94,0.53 -0.14,-0.24 -0.72,-1.33 -0.10,-3.90 0.13,-0.50 0.27,-1.24 0.27,-1.24 0.14,-0.56 -0.12,-0.84 -0.33,-0.14 -0.21,0.69 -1.12,3.10 -0.68,5.78 0.10,0.62 0.64,1.80 1.58,1.74 z M 234.53,11.24 c 0.47,0.00 1.09,-0.35 1.52,-1.83 0.08,-0.33 0.12,-0.60 0.15,-0.74 0.05,-0.20 -0.10,-0.44 -0.26,0.02 -0.35,0.91 -1.25,1.55 -1.92,0.33 -0.11,-0.24 -0.56,-1.35 0.27,-3.77 0.17,-0.47 0.38,-1.17 0.38,-1.17 0.19,-0.53 -0.04,-0.82 -0.30,-0.17 -0.26,0.65 -1.37,2.88 -1.20,5.51 0.04,0.61 0.44,1.79 1.36,1.82 z M 230.45,33.09 c 0.79,0.00 1.82,-0.65 2.57,-3.51 0.13,-0.65 0.21,-1.16 0.27,-1.42 0.08,-0.39 -0.16,-0.85 -0.43,0.04 -0.59,1.75 -2.10,2.97 -3.21,0.61 -0.18,-0.47 -0.93,-2.60 0.51,-7.25 0.29,-0.90 0.65,-2.25 0.65,-2.25 0.32,-1.02 -0.05,-1.58 -0.51,-0.33 -0.45,1.24 -2.33,5.52 -2.09,10.59 0.06,1.17 0.72,3.46 2.25,3.53 z M 246.71,8.01 c 0.18,0.08 0.36,0.07 0.39,-0.14 0.03,-0.21 0.21,-0.71 0.57,-0.40 0.26,0.22 2.37,1.70 3.20,3.95 0.70,1.96 -3.80,6.55 -4.04,6.76 -0.43,0.38 -0.26,0.58 -0.05,0.44 0.20,-0.14 0.41,-0.19 2.77,-2.14 1.90,-1.57 2.16,-3.18 2.21,-4.40 0.02,-0.06 0.03,-0.13 0.03,-0.21 0.06,-1.48 -0.10,-4.03 -0.07,-4.81 0.04,-1.10 0.31,-3.38 1.79,-2.37 0.33,0.23 0.70,0.54 0.70,0.54 0.33,0.33 0.73,0.71 0.86,0.27 0.20,-0.67 0.30,-1.75 -0.06,-2.29 -0.16,-0.24 -2.05,-2.21 -3.04,-0.61 -1.21,1.97 -1.05,4.37 -0.95,7.05 -0.26,-0.54 -1.77,-3.99 -5.59,-5.65 -0.28,-0.12 -0.78,0.22 -0.74,1.06 0.02,0.49 0.01,1.70 0.39,2.00 0.38,0.30 1.45,0.86 1.63,0.93 z M 282.57,8.51 c 0.00,0.00 1.55,1.45 1.80,1.72 0.25,0.26 0.55,0.12 0.41,-0.30 -0.14,-0.42 -3.32,-8.09 -3.42,-8.36 -0.10,-0.27 -0.20,-0.46 -0.33,-0.15 -0.13,0.31 -1.15,2.55 -1.15,2.55 0.03,0.18 0.32,0.78 0.49,1.92 0.17,1.18 0.49,2.75 0.76,4.60 0.00,0.00 3.52,18.79 3.64,19.82 0.12,1.04 0.36,1.92 -0.69,2.63 -2.19,1.46 -8.12,3.17 -8.99,3.53 -0.53,0.22 -4.14,1.67 -8.47,7.10 -0.70,0.86 -2.75,3.76 -4.82,4.44 -1.19,0.40 -3.12,0.62 -3.59,-1.56 -0.15,-0.89 -0.39,-3.59 1.02,-6.79 1.79,-1.42 3.42,-2.93 4.55,-4.38 0.52,-0.67 2.41,-3.07 1.12,-7.48 -2.03,-6.99 -5.92,-5.73 -7.04,-4.91 -0.77,0.57 -2.55,2.40 -2.44,5.17 0.11,0.81 0.51,2.69 3.30,2.51 0.75,-0.05 2.60,-0.46 3.45,-0.35 0.86,0.11 2.33,0.37 1.76,1.28 -3.97,6.89 -25.38,17.74 -25.38,17.74 -0.52,0.28 -1.06,0.65 -0.99,0.87 0.07,0.22 0.22,0.21 0.63,0.09 0.41,-0.12 9.81,-3.17 10.30,-3.45 0.32,-0.18 5.00,-2.77 9.35,-6.01 -0.82,3.07 -2.10,9.85 3.21,9.93 0.68,-0.04 3.14,-0.21 5.45,-3.40 1.19,-1.54 5.08,-6.18 7.77,-7.46 1.91,-0.88 6.84,-2.33 8.10,-2.95 1.25,-0.62 3.15,-0.99 3.67,-5.24 0.15,-0.97 0.51,-3.39 -0.09,-6.62 -0.22,-1.30 -3.38,-16.49 -3.38,-16.49 z M 257.56,27.34 c -0.94,-0.28 0.10,-1.37 0.83,-1.57 0.47,-0.13 1.99,-0.44 3.74,1.35 0.00,0.00 -2.19,0.71 -4.57,0.21 z M 240.37,32.10 c 0.91,0.40 4.21,2.11 7.46,1.31 0.35,-0.09 0.30,-0.20 0.40,-0.48 0.10,-0.28 0.54,-1.98 0.28,-2.69 -0.26,-0.71 -1.25,-3.32 -2.74,-4.88 -0.63,-0.63 -2.08,-1.54 -3.22,-0.36 -1.14,1.17 -2.08,2.85 -2.54,4.85 -0.20,0.76 -0.45,2.13 -1.20,3.32 -0.95,1.50 -3.89,4.22 -9.70,7.37 -1.39,0.75 -13.50,6.84 -13.50,6.84 -0.31,0.21 -0.34,0.35 0.15,0.23 0.48,-0.12 8.09,-2.00 9.16,-2.44 1.07,-0.44 6.01,-2.48 10.27,-5.71 0.51,-0.38 4.66,-3.11 5.19,-7.35 z M 242.58,27.66 c 0.51,-0.13 1.72,-0.65 3.47,2.43 0.25,0.47 0.04,0.46 -0.24,0.45 -2.24,-0.08 -4.27,-1.16 -4.59,-1.36 0.00,0.00 0.43,-1.26 1.35,-1.52 z M 353.03,14.30 c 0.18,-0.50 -0.04,-0.77 -0.29,-0.16 -0.25,0.61 -1.30,2.73 -1.14,5.22 0.04,0.58 0.42,1.70 1.29,1.73 0.45,0.00 1.03,-0.33 1.44,-1.73 0.07,-0.32 0.12,-0.57 0.15,-0.70 0.04,-0.19 -0.10,-0.42 -0.24,0.02 -0.33,0.86 -1.18,1.47 -1.82,0.31 -0.10,-0.23 -0.53,-1.28 0.26,-3.57 0.16,-0.44 0.36,-1.11 0.36,-1.11 z M 332.42,7.03 c 0.17,0.10 0.36,0.11 0.41,-0.10 0.05,-0.21 0.28,-0.68 0.62,-0.34 0.28,0.28 2.09,1.78 3.03,4.95 0.16,0.42 0.55,0.46 0.64,-0.14 0.22,-1.47 0.34,-4.02 0.45,-4.79 0.16,-1.08 0.68,-3.32 2.06,-2.16 0.31,0.27 0.64,0.61 0.64,0.61 0.29,0.37 0.66,0.79 0.84,0.36 0.27,-0.64 0.49,-1.70 0.19,-2.28 -0.13,-0.25 -1.84,-2.41 -3.00,-0.93 -1.44,1.83 -1.53,4.23 -1.72,6.91 -0.20,-0.56 -1.35,-4.16 -5.02,-6.21 -0.27,-0.15 -0.81,0.13 -0.86,0.98 -0.03,0.49 -0.17,1.69 0.18,2.03 0.35,0.34 1.37,1.00 1.54,1.10 z M 326.92,20.28 c 0.48,0.00 1.11,-0.35 1.55,-1.87 0.08,-0.34 0.13,-0.62 0.16,-0.75 0.05,-0.21 -0.10,-0.45 -0.26,0.02 -0.35,0.93 -1.27,1.58 -1.96,0.33 -0.11,-0.25 -0.58,-1.38 0.28,-3.86 0.17,-0.48 0.39,-1.20 0.39,-1.20 0.19,-0.54 -0.04,-0.84 -0.31,-0.18 -0.27,0.66 -1.40,2.95 -1.23,5.64 0.04,0.62 0.45,1.83 1.39,1.87 z M 358.61,24.89 c -0.25,-0.28 -0.37,-0.01 -0.46,0.31 -0.09,0.32 -0.36,1.52 -0.54,2.27 0.00,0.00 0.71,1.16 0.97,1.75 0.25,0.59 -0.12,0.92 -0.86,1.01 -2.08,0.25 -3.73,-0.94 -4.30,-1.49 -0.57,-0.55 0.05,-1.52 0.51,-2.68 0.37,-0.93 -0.32,-1.04 -0.84,0.00 -1.76,4.63 -4.23,5.12 -4.88,5.30 -5.86,1.60 -5.36,-3.76 -5.34,-4.64 0.02,-0.88 -0.62,-0.55 -1.34,0.03 -2.47,1.98 -4.45,3.14 -5.52,3.62 -0.92,-1.80 -2.26,-2.93 -2.82,-3.34 -6.34,-4.63 -6.87,4.71 -6.67,5.71 0.97,3.97 7.45,1.56 8.46,1.44 1.02,-0.12 0.68,1.22 0.11,2.02 -1.41,1.97 -3.03,3.38 -4.50,4.58 -6.28,5.13 -9.44,4.72 -10.41,4.69 -6.17,-0.17 -5.60,-6.82 -5.26,-8.24 1.86,-1.57 3.45,-3.28 4.38,-5.04 0.38,-0.96 1.03,-3.15 -0.15,-5.91 -0.62,-1.21 -2.56,-4.60 -2.56,-4.60 0.00,0.00 1.43,0.04 1.57,0.04 0.14,0.00 0.41,-0.14 0.06,-0.54 -0.35,-0.40 -3.36,-3.41 -3.54,-3.65 -0.18,-0.24 -0.35,-0.41 -0.45,-0.06 -0.10,0.35 -0.36,1.88 -0.42,2.20 -0.06,0.31 -0.06,0.63 0.10,0.90 0.15,0.27 0.55,1.20 0.84,1.96 0.29,0.76 3.25,6.47 3.53,6.98 0.27,0.51 0.33,0.88 0.06,1.22 -9.53,10.05 -27.91,16.23 -28.50,16.57 -0.59,0.34 -0.43,0.61 0.56,0.43 1.48,-0.26 9.74,-1.64 12.09,-2.77 1.55,-0.75 6.97,-3.41 11.41,-6.89 -0.12,0.90 -0.24,2.22 -0.17,3.89 0.30,8.08 7.53,6.74 9.43,6.33 5.68,-1.25 12.64,-9.11 13.23,-10.69 0.58,-1.56 0.67,-2.98 0.54,-4.22 1.50,-0.81 4.71,-3.40 4.71,-3.40 0.13,3.45 2.88,4.48 3.72,4.63 3.96,0.60 5.94,-2.71 6.78,-3.78 0.72,1.89 2.45,2.26 3.34,2.43 3.41,0.68 4.08,-1.74 4.25,-2.29 1.07,-3.33 -0.86,-5.81 -1.11,-6.08 z M 329.97,31.57 c -2.02,-0.14 -1.85,-0.92 -1.57,-1.23 0.30,-0.33 2.78,-1.89 4.85,0.89 0.00,0.00 -0.86,0.50 -3.28,0.33 z M 350.27,6.37 c 0.79,0.58 1.93,1.04 1.93,1.04 -3.66,4.49 -10.84,7.67 -12.55,9.01 -0.51,0.39 -0.44,0.61 -0.12,0.52 0.28,-0.08 5.76,-1.61 10.76,-5.90 2.29,-1.97 2.23,-2.11 2.81,-3.31 0.50,0.26 0.84,0.67 1.03,0.91 0.28,0.34 0.43,0.60 0.56,0.23 0.48,-1.33 -0.20,-2.13 -0.84,-2.54 0.00,0.00 0.67,-2.07 -0.56,-4.14 -0.21,-0.35 -1.43,-1.46 -2.85,0.74 -0.55,0.84 -0.96,2.85 -0.17,3.42 z M 351.00,4.34 c 0.73,-1.02 1.08,-0.99 1.36,-0.82 0.82,0.77 0.70,2.02 0.67,2.31 0.00,0.00 -1.05,-0.49 -1.52,-0.69 -0.47,-0.20 -0.72,-0.50 -0.50,-0.80 z M 300.13,14.16 c -0.06,-0.05 -0.15,-0.03 -0.20,0.04 -1.53,2.10 -1.53,2.10 -1.53,2.10 -0.05,0.07 -0.04,0.16 0.03,0.20 2.61,1.91 2.61,1.91 2.61,1.91 0.06,0.05 0.15,0.03 0.20,-0.04 1.32,-1.81 1.32,-1.81 1.32,-1.81 2.54,1.85 2.54,1.85 2.54,1.85 0.06,0.05 0.15,0.03 0.20,-0.04 1.53,-2.10 1.53,-2.10 1.53,-2.10 0.05,-0.07 0.04,-0.16 -0.03,-0.20 -2.61,-1.91 -2.61,-1.91 -2.61,-1.91 -0.06,-0.05 -0.15,-0.03 -0.20,0.04 -1.32,1.81 -1.32,1.81 -1.32,1.81 z M 292.55,13.78 c 0.17,-0.04 3.05,-0.49 6.41,-3.05 1.82,-1.38 2.92,-3.74 2.92,-3.74 0.00,0.00 0.91,0.76 1.03,0.91 0.28,0.34 0.43,0.60 0.56,0.23 0.48,-1.33 -0.20,-2.13 -0.84,-2.54 0.00,0.00 0.67,-2.07 -0.56,-4.14 -0.21,-0.35 -1.43,-1.46 -2.85,0.74 -0.55,0.84 -0.96,2.85 -0.17,3.42 0.79,0.58 1.93,1.04 1.93,1.04 -3.66,4.48 -6.16,5.34 -8.30,6.59 -0.55,0.32 -0.44,0.61 -0.12,0.53 z M 300.26,4.39 c -0.47,-0.20 -0.72,-0.50 -0.50,-0.80 0.73,-1.02 1.08,-0.99 1.36,-0.82 0.82,0.77 0.70,2.02 0.67,2.31 0.00,0.00 -1.05,-0.49 -1.52,-0.69 z M 355.40,37.21 c -0.24,0.68 -0.34,1.12 -0.31,1.38 0.03,0.26 0.12,1.10 0.12,1.10 -0.25,0.20 -1.33,0.87 -2.40,0.08 0.07,-0.23 0.21,-0.70 0.24,-0.95 0.12,-0.40 -0.13,-0.69 -0.32,-0.28 -0.20,0.41 -0.65,1.79 -0.99,2.10 -0.34,0.31 -0.73,1.45 -3.30,0.29 -0.45,-0.17 -1.24,-0.75 -2.46,0.48 -2.77,2.57 -4.68,2.77 -7.79,3.88 -0.38,0.17 -1.16,0.76 -0.23,0.67 0.94,-0.09 4.87,0.00 7.01,-2.46 0.45,-0.43 0.96,-1.58 2.66,-0.92 0.94,0.36 2.68,1.85 4.58,-1.10 1.12,0.75 2.82,0.45 3.09,-0.37 0.27,-0.82 0.58,-1.64 0.58,-2.20 0.00,-0.56 -0.05,-1.30 -0.05,-1.30 -0.04,-0.44 -0.19,-1.07 -0.44,-0.40 z M 309.23,12.30 c 0.25,-0.16 13.84,-8.02 14.32,-8.31 0.46,-0.28 0.72,-0.41 0.91,-0.85 0.18,-0.44 0.23,-0.51 0.33,-0.82 0.11,-0.32 0.21,-0.67 -0.61,-0.19 -0.53,0.31 -14.04,8.11 -14.59,8.46 -0.55,0.35 -0.74,0.44 -0.83,0.87 -0.09,0.42 -0.13,0.67 -0.16,0.73 -0.10,0.28 -0.17,0.63 0.64,0.10 z M 299.50,23.91 c 0.00,0.00 1.25,-0.31 1.47,-0.38 0.22,-0.06 0.34,-0.34 -0.05,-0.55 -0.39,-0.20 -4.09,-1.67 -4.37,-1.79 -0.28,-0.11 -0.38,-0.24 -0.41,0.06 -0.02,0.30 -0.07,2.73 -0.07,2.73 0.00,0.00 -0.06,0.17 0.26,0.35 0.32,0.18 0.64,0.58 0.90,0.84 0.26,0.26 3.70,2.98 3.87,3.07 0.00,0.00 -1.72,3.02 -1.94,5.38 -0.22,2.36 0.04,5.63 3.27,4.57 0.87,-0.25 4.49,-1.69 5.30,-4.21 0.26,-0.93 1.01,-2.61 -0.21,-4.31 -0.70,-1.00 -3.53,-2.69 -3.53,-2.69 0.00,0.00 2.17,-3.00 2.38,-3.37 0.21,-0.37 1.00,-2.69 1.09,-3.26 0.09,-0.56 0.13,-0.84 -0.29,-0.32 -0.42,0.52 -4.63,6.05 -4.63,6.05 z M 306.46,32.79 c -1.20,0.99 -3.72,2.29 -4.43,2.36 -0.71,0.07 -2.59,-0.28 -1.77,-2.20 0.28,-0.62 2.16,-3.84 2.16,-3.84 0.70,0.39 5.24,2.70 4.04,3.69 z" />
     </g>
</svg>
