<?xml version="1.0" encoding="UTF-8"?>
<svg version="1.1" id="Layer_1" x="0px" y="0px" width="578" height="56" viewBox="0 0 578 56"
xml:space="preserve" xmlns="http://www.w3.org/2000/svg" xmlns:svg="http://www.w3.org/2000/svg" xmlns:rdf="http://www.w3.org/1999/02/22-rdf-syntax-ns#"  xmlns:cc="http://creativecommons.org/ns#" xmlns:dc="http://purl.org/dc/elements/1.1/">
     <g>
<path d="M 233.66,32.93 c -1.92,2.63 -1.92,2.63 -1.92,2.63 -0.06,0.08 -0.05,0.20 0.03,0.25 3.27,2.38 3.27,2.38 3.27,2.38 0.08,0.06 0.19,0.04 0.25,-0.05 1.91,-2.63 1.91,-2.63 1.91,-2.63 0.06,-0.08 0.05,-0.20 -0.03,-0.25 -3.27,-2.38 -3.27,-2.38 -3.27,-2.38 -0.08,-0.06 -0.19,-0.04 -0.25,0.05 z M 277.03,17.24 c 0.36,-0.39 0.62,-0.79 1.68,-0.76 1.07,0.03 3.62,-0.07 2.66,0.63 -0.95,0.70 -1.60,1.11 -1.60,1.11 -0.62,0.44 -1.16,1.28 -0.07,0.81 1.09,-0.46 2.54,-1.19 3.64,-2.86 0.32,-0.49 0.70,-1.14 -0.80,-1.36 -1.50,-0.23 -3.93,-0.58 -4.71,0.28 -0.79,0.86 -1.03,1.44 -1.26,1.81 -0.32,0.50 0.08,0.73 0.45,0.34 z M 278.29,33.52 c 0.06,0.05 0.15,0.03 0.20,-0.04 1.32,-1.81 1.32,-1.81 1.32,-1.81 2.54,1.85 2.54,1.85 2.54,1.85 0.06,0.05 0.15,0.03 0.20,-0.04 1.53,-2.10 1.53,-2.10 1.53,-2.10 0.05,-0.07 0.04,-0.16 -0.03,-0.21 -2.61,-1.91 -2.61,-1.91 -2.61,-1.91 -0.06,-0.05 -0.15,-0.03 -0.20,0.04 -1.32,1.81 -1.32,1.81 -1.32,1.81 -2.54,-1.85 -2.54,-1.85 -2.54,-1.85 -0.06,-0.05 -0.15,-0.03 -0.20,0.04 -1.53,2.10 -1.53,2.10 -1.53,2.10 -0.05,0.07 -0.04,0.16 0.03,0.21 z M 253.27,7.97 c 0.32,0.27 1.25,0.79 1.41,0.86 0.16,0.07 0.32,0.07 0.35,-0.11 0.03,-0.18 0.20,-0.61 0.52,-0.33 0.26,0.23 1.92,1.41 2.93,4.10 0.17,0.35 0.51,0.37 0.55,-0.16 0.10,-1.29 0.04,-3.50 0.09,-4.18 0.07,-0.95 0.38,-2.92 1.65,-2.00 0.29,0.21 0.60,0.49 0.60,0.49 0.28,0.30 0.62,0.64 0.75,0.26 0.19,-0.57 0.32,-1.51 0.02,-1.99 -0.13,-0.21 -1.74,-1.98 -2.66,-0.62 -1.13,1.67 -1.06,3.76 -1.06,6.10 -0.21,-0.47 -1.43,-3.52 -4.74,-5.07 -0.24,-0.11 -0.69,0.17 -0.68,0.90 0.00,0.43 -0.04,1.48 0.28,1.75 z M 227.43,13.02 c 0.16,0.09 0.34,0.10 0.39,-0.09 0.05,-0.20 0.27,-0.65 0.59,-0.32 0.27,0.27 1.99,1.69 2.88,4.71 0.15,0.40 0.53,0.44 0.61,-0.13 0.21,-1.40 0.32,-3.82 0.43,-4.56 0.16,-1.03 0.65,-3.16 1.96,-2.06 0.30,0.25 0.61,0.58 0.61,0.58 0.28,0.35 0.63,0.75 0.80,0.35 0.26,-0.61 0.46,-1.62 0.18,-2.17 -0.12,-0.24 -1.75,-2.29 -2.85,-0.89 -1.37,1.74 -1.46,4.03 -1.64,6.58 -0.19,-0.53 -1.29,-3.95 -4.78,-5.91 -0.25,-0.14 -0.77,0.13 -0.82,0.93 -0.03,0.47 -0.16,1.61 0.17,1.93 0.33,0.32 1.31,0.96 1.47,1.04 z M 229.08,27.35 c -0.11,0.42 -0.17,0.66 -0.20,0.72 -0.12,0.28 -0.21,0.62 0.63,0.15 0.26,-0.15 14.89,-5.90 15.36,-6.17 0.47,-0.27 0.75,-0.36 0.96,-0.79 0.21,-0.43 0.26,-0.50 0.38,-0.80 0.12,-0.32 0.25,-0.65 -0.60,-0.22 -0.55,0.28 -15.08,5.98 -15.64,6.30 -0.57,0.32 -0.77,0.39 -0.88,0.81 z M 253.29,31.54 c -0.10,0.47 -0.15,0.73 -0.18,0.83 -0.09,0.32 -0.22,0.66 0.72,0.12 0.29,-0.17 18.38,-8.91 18.89,-9.25 0.51,-0.33 0.81,-0.46 1.02,-0.95 0.21,-0.49 0.26,-0.58 0.37,-0.92 0.12,-0.36 0.26,-0.70 -0.69,-0.21 -0.63,0.33 -18.55,9.06 -19.20,9.41 -0.64,0.35 -0.83,0.50 -0.93,0.97 z M 281.07,49.19 c -0.42,-0.22 -1.12,-0.21 -2.21,0.91 -0.22,0.26 -0.39,0.48 -0.48,0.58 -0.14,0.16 -0.12,0.44 0.24,0.10 0.73,-0.64 1.83,-0.79 1.85,0.61 -0.02,0.27 -0.13,1.46 -2.01,3.21 -0.37,0.34 -0.89,0.86 -0.89,0.86 -0.41,0.38 -0.35,0.74 0.19,0.29 0.54,-0.45 2.57,-1.90 3.66,-4.31 0.25,-0.56 0.45,-1.80 -0.35,-2.25 z M 246.93,46.72 c -0.42,-0.22 -1.12,-0.21 -2.21,0.91 -0.22,0.26 -0.39,0.48 -0.48,0.58 -0.14,0.16 -0.12,0.44 0.24,0.10 0.74,-0.64 1.83,-0.79 1.85,0.61 -0.02,0.27 -0.13,1.46 -2.01,3.21 -0.37,0.34 -0.89,0.86 -0.89,0.86 -0.41,0.38 -0.35,0.74 0.19,0.29 0.54,-0.45 2.57,-1.90 3.66,-4.31 0.25,-0.56 0.45,-1.80 -0.35,-2.25 z M 268.30,31.10 c 0.19,-0.64 -0.10,-0.96 -0.37,-0.18 -0.27,0.78 -1.44,3.49 -1.06,6.59 0.09,0.71 0.65,2.09 1.74,2.06 0.56,-0.03 1.27,-0.48 1.68,-2.27 0.07,-0.40 0.11,-0.72 0.13,-0.88 0.04,-0.24 -0.15,-0.51 -0.30,0.04 -0.35,1.10 -1.38,1.91 -2.26,0.51 -0.15,-0.28 -0.76,-1.56 0.07,-4.47 0.17,-0.57 0.37,-1.41 0.37,-1.41 z M 258.92,16.55 c 0.15,-0.56 -0.08,-0.85 -0.30,-0.16 -0.22,0.69 -1.16,3.07 -0.84,5.80 0.07,0.63 0.53,1.84 1.42,1.82 0.46,-0.03 1.03,-0.42 1.36,-1.99 0.05,-0.35 0.08,-0.64 0.11,-0.78 0.03,-0.21 -0.12,-0.45 -0.25,0.04 -0.28,0.97 -1.12,1.68 -1.84,0.44 -0.12,-0.25 -0.63,-1.37 0.04,-3.94 0.13,-0.50 0.30,-1.24 0.30,-1.24 z M 228.12,35.38 c 0.15,-0.56 -0.08,-0.85 -0.30,-0.16 -0.22,0.69 -1.16,3.07 -0.84,5.80 0.07,0.63 0.53,1.84 1.42,1.82 0.46,-0.03 1.03,-0.42 1.36,-1.99 0.05,-0.35 0.08,-0.64 0.11,-0.78 0.03,-0.21 -0.12,-0.45 -0.25,0.04 -0.28,0.97 -1.12,1.68 -1.84,0.44 -0.12,-0.25 -0.63,-1.37 0.04,-3.94 0.14,-0.50 0.30,-1.24 0.30,-1.24 z M 268.51,20.19 c 0.65,0.05 1.54,-0.49 2.36,-3.11 0.15,-0.59 0.26,-1.07 0.32,-1.30 0.09,-0.36 -0.07,-0.80 -0.36,0.01 -0.61,1.59 -1.95,2.63 -2.69,0.37 -0.11,-0.45 -0.58,-2.48 0.94,-6.73 0.30,-0.82 0.70,-2.05 0.70,-2.05 0.34,-0.93 0.07,-1.47 -0.39,-0.34 -0.46,1.13 -2.32,5.00 -2.48,9.74 -0.04,1.09 0.34,3.26 1.60,3.42 z M 242.14,18.12 c 0.63,0.05 1.49,-0.41 2.26,-2.64 0.14,-0.51 0.24,-0.92 0.30,-1.12 0.09,-0.30 -0.08,-0.69 -0.34,0.00 -0.58,1.36 -1.86,2.24 -2.60,0.29 -0.11,-0.38 -0.58,-2.14 0.84,-5.76 0.28,-0.70 0.66,-1.75 0.66,-1.75 0.32,-0.79 0.05,-1.26 -0.38,-0.30 -0.44,0.96 -2.20,4.27 -2.31,8.32 -0.03,0.94 0.36,2.80 1.58,2.95 z M 278.80,11.45 c 0.14,-0.04 2.53,-0.41 5.33,-2.53 1.51,-1.15 2.43,-3.11 2.43,-3.11 0.00,0.00 0.76,0.63 0.86,0.76 0.23,0.28 0.35,0.50 0.46,0.19 0.40,-1.10 -0.16,-1.77 -0.70,-2.11 0.00,0.00 0.56,-1.72 -0.47,-3.44 -0.17,-0.29 -1.19,-1.21 -2.37,0.62 -0.46,0.69 -0.80,2.37 -0.15,2.84 0.65,0.48 1.61,0.87 1.61,0.87 -3.04,3.73 -5.12,4.44 -6.90,5.48 -0.46,0.27 -0.37,0.51 -0.10,0.44 z M 285.22,3.64 c -0.39,-0.17 -0.60,-0.41 -0.41,-0.66 0.60,-0.85 0.90,-0.82 1.13,-0.68 0.68,0.64 0.58,1.68 0.55,1.92 0.00,0.00 -0.87,-0.41 -1.27,-0.58 z M 290.34,42.48 c 0.07,-0.94 0.23,-5.16 -0.41,-9.19 -0.17,-1.30 -1.81,-16.95 -1.81,-16.95 0.00,0.00 1.49,1.52 1.73,1.79 0.24,0.27 0.54,0.15 0.42,-0.28 -0.12,-0.43 -2.97,-8.23 -3.06,-8.49 -0.09,-0.27 -0.19,-0.47 -0.33,-0.17 -0.14,0.30 -1.25,2.50 -1.25,2.50 0.02,0.18 0.44,0.84 0.56,1.98 0.12,1.18 2.84,27.95 2.88,28.36 0.04,0.41 0.20,1.75 -0.54,2.06 -0.74,0.31 -3.54,0.76 -4.53,0.38 0.13,-0.23 1.50,-3.19 0.56,-6.03 -0.27,-0.72 -1.16,-3.39 -3.23,-1.59 -2.08,1.80 -3.88,4.98 -2.80,7.83 0.00,0.00 -11.89,3.66 -16.45,-2.60 -0.47,-0.40 -0.51,-0.27 -0.81,0.14 -0.31,0.41 -0.94,3.00 -3.99,3.75 -0.47,0.13 -3.74,0.99 -5.25,-3.57 -0.98,-2.97 -1.05,-22.54 -1.56,-25.99 -0.18,-1.22 -0.55,-6.20 -1.25,-8.40 -0.24,-0.64 -0.40,-0.57 -0.62,-0.15 -0.22,0.42 -0.97,2.01 -0.75,3.08 1.09,5.27 1.91,24.41 1.95,26.12 0.03,1.72 -0.41,12.02 5.38,12.14 1.29,0.03 3.02,0.21 5.48,-2.84 -0.15,0.67 -0.50,4.76 3.93,6.11 0.52,0.15 0.92,0.08 1.14,-0.41 0.21,-0.49 0.77,-2.20 0.47,-3.79 0.27,0.06 6.79,1.57 14.57,-1.56 0.48,0.15 3.56,1.59 7.72,0.00 0.46,-0.18 1.75,-0.91 1.88,-4.24 z M 264.03,49.03 c -1.89,-1.21 -2.48,-2.91 -2.49,-3.20 0.00,0.00 1.81,0.43 3.02,2.78 0.38,0.74 -0.15,0.66 -0.52,0.42 z M 281.31,43.59 c 0.00,0.00 -1.00,-0.33 -1.66,-1.16 -0.66,-0.84 0.43,-2.08 1.40,-2.73 0.97,-0.66 1.93,0.18 2.33,1.03 1.03,1.88 -1.57,2.67 -2.08,2.87 z M 246.57,37.62 c -0.13,-0.63 -2.53,-6.40 -2.53,-6.40 0.58,0.25 0.96,0.36 1.16,0.46 0.21,0.09 0.56,-0.11 0.24,-0.55 -0.32,-0.44 -2.44,-3.09 -2.50,-3.26 -0.06,-0.17 -0.15,-0.30 -0.21,-0.53 -0.06,-0.23 -0.21,-0.19 -0.30,0.00 -0.09,0.19 -0.68,2.06 -0.71,2.23 -0.04,0.17 0.39,1.89 0.68,2.67 0.73,2.23 2.29,5.36 2.54,5.87 0.24,0.51 0.68,1.35 0.09,2.12 -0.58,0.76 -5.31,5.33 -13.15,7.24 -1.23,0.30 -6.42,1.33 -9.16,-2.60 -0.45,-0.65 -2.54,-3.88 -0.15,-9.90 0.05,-0.10 0.07,-0.20 0.08,-0.30 0.06,0.02 0.13,0.03 0.19,0.04 0.66,0.05 1.55,-0.42 2.35,-2.74 0.15,-0.53 0.25,-0.95 0.31,-1.16 0.09,-0.31 -0.08,-0.71 -0.36,0.00 -0.60,1.41 -1.93,2.32 -2.70,0.30 -0.12,-0.40 -0.60,-2.21 0.87,-5.97 0.29,-0.73 0.68,-1.82 0.68,-1.82 0.33,-0.82 0.06,-1.31 -0.40,-0.31 -0.45,1.00 -2.28,4.43 -2.40,8.64 -0.02,0.80 0.25,2.26 1.06,2.83 -0.08,0.08 -0.17,0.19 -0.27,0.36 -0.53,0.89 -5.16,12.62 3.76,15.52 1.95,0.64 7.10,1.89 16.60,-4.94 0.90,-0.65 5.31,-3.31 4.20,-7.80 z M 330.85,12.21 c 0.17,0.09 0.36,0.11 0.41,-0.10 0.05,-0.21 0.29,-0.68 0.62,-0.34 0.28,0.28 2.09,1.78 3.03,4.95 0.16,0.42 0.55,0.46 0.64,-0.14 0.22,-1.47 0.33,-4.02 0.45,-4.79 0.16,-1.09 0.68,-3.32 2.06,-2.16 0.31,0.26 0.64,0.61 0.64,0.61 0.29,0.37 0.66,0.79 0.84,0.36 0.27,-0.64 0.49,-1.70 0.19,-2.28 -0.13,-0.26 -1.84,-2.41 -3.00,-0.93 -1.44,1.83 -1.53,4.23 -1.72,6.91 -0.20,-0.56 -1.35,-4.16 -5.02,-6.21 -0.27,-0.15 -0.81,0.13 -0.86,0.98 -0.03,0.49 -0.17,1.69 0.18,2.03 0.35,0.34 1.37,1.01 1.54,1.10 z M 357.03,30.07 c -0.25,-0.28 -0.37,-0.01 -0.46,0.31 -0.09,0.32 -0.36,1.52 -0.54,2.27 0.00,0.00 0.71,1.16 0.97,1.75 0.25,0.59 -0.12,0.92 -0.86,1.01 -2.08,0.25 -3.73,-0.94 -4.30,-1.48 -0.57,-0.55 0.05,-1.52 0.51,-2.68 0.37,-0.93 -0.32,-1.04 -0.84,0.00 -1.76,4.63 -4.23,5.12 -4.88,5.30 -5.86,1.60 -5.36,-3.76 -5.33,-4.64 0.02,-0.88 -0.62,-0.55 -1.34,0.03 -2.47,1.98 -4.45,3.14 -5.52,3.62 -0.92,-1.80 -2.26,-2.93 -2.82,-3.34 -6.34,-4.63 -6.87,4.71 -6.68,5.71 0.97,3.97 7.45,1.56 8.46,1.44 1.02,-0.12 0.68,1.22 0.11,2.02 -1.41,1.97 -3.03,3.38 -4.50,4.58 -6.28,5.13 -9.43,4.72 -10.41,4.69 -6.17,-0.17 -5.60,-6.82 -5.26,-8.24 1.86,-1.57 3.45,-3.28 4.38,-5.04 0.38,-0.96 1.03,-3.16 -0.15,-5.91 -0.62,-1.21 -2.56,-4.60 -2.56,-4.60 0.00,0.00 1.43,0.04 1.57,0.04 0.14,0.00 0.41,-0.14 0.06,-0.54 -0.35,-0.40 -3.36,-3.41 -3.54,-3.65 -0.18,-0.24 -0.35,-0.41 -0.45,-0.06 -0.10,0.36 -0.36,1.88 -0.42,2.20 -0.06,0.31 -0.06,0.63 0.10,0.90 0.16,0.27 0.55,1.20 0.84,1.96 0.29,0.76 3.25,6.47 3.53,6.98 0.27,0.51 0.33,0.88 0.06,1.22 -9.53,10.05 -27.91,16.23 -28.50,16.57 -0.59,0.34 -0.43,0.61 0.56,0.43 1.48,-0.26 9.74,-1.64 12.09,-2.77 1.55,-0.75 6.97,-3.41 11.41,-6.89 -0.12,0.90 -0.24,2.22 -0.17,3.89 0.30,8.08 7.53,6.74 9.43,6.33 5.68,-1.25 12.64,-9.11 13.23,-10.69 0.58,-1.56 0.67,-2.98 0.54,-4.22 1.50,-0.81 4.71,-3.40 4.71,-3.40 0.13,3.45 2.87,4.48 3.72,4.63 3.96,0.60 5.94,-2.71 6.78,-3.78 0.72,1.89 2.45,2.25 3.34,2.43 3.41,0.68 4.08,-1.74 4.25,-2.29 1.07,-3.33 -0.86,-5.81 -1.11,-6.08 z M 328.40,36.75 c -2.03,-0.14 -1.85,-0.92 -1.57,-1.23 0.30,-0.33 2.78,-1.89 4.85,0.89 0.00,0.00 -0.86,0.50 -3.28,0.34 z M 325.34,25.45 c 0.48,0.00 1.11,-0.35 1.55,-1.87 0.08,-0.34 0.12,-0.62 0.16,-0.75 0.05,-0.21 -0.10,-0.45 -0.26,0.02 -0.36,0.93 -1.28,1.58 -1.96,0.34 -0.11,-0.25 -0.58,-1.38 0.28,-3.86 0.17,-0.48 0.39,-1.20 0.39,-1.20 0.19,-0.54 -0.04,-0.84 -0.31,-0.17 -0.27,0.66 -1.40,2.94 -1.23,5.64 0.04,0.62 0.45,1.83 1.39,1.87 z M 348.69,11.55 c 0.79,0.58 1.94,1.04 1.94,1.04 -3.66,4.48 -10.84,7.67 -12.56,9.01 -0.51,0.39 -0.44,0.61 -0.12,0.53 0.28,-0.08 5.76,-1.61 10.76,-5.90 2.29,-1.97 2.23,-2.11 2.81,-3.31 0.50,0.26 0.84,0.67 1.03,0.91 0.28,0.34 0.43,0.60 0.56,0.23 0.48,-1.33 -0.20,-2.13 -0.84,-2.54 0.00,0.00 0.67,-2.07 -0.56,-4.14 -0.21,-0.35 -1.43,-1.46 -2.85,0.74 -0.55,0.84 -0.96,2.85 -0.18,3.42 z M 349.42,9.52 c 0.73,-1.02 1.08,-0.99 1.36,-0.82 0.82,0.77 0.70,2.03 0.67,2.31 0.00,0.00 -1.05,-0.49 -1.52,-0.69 -0.47,-0.20 -0.72,-0.50 -0.50,-0.80 z M 351.45,19.48 c 0.18,-0.50 -0.04,-0.77 -0.29,-0.16 -0.25,0.61 -1.30,2.73 -1.14,5.22 0.04,0.58 0.42,1.70 1.29,1.73 0.45,0.00 1.03,-0.33 1.44,-1.73 0.07,-0.32 0.12,-0.57 0.15,-0.70 0.04,-0.19 -0.10,-0.42 -0.24,0.02 -0.33,0.86 -1.18,1.47 -1.82,0.31 -0.10,-0.23 -0.53,-1.28 0.26,-3.57 0.16,-0.45 0.36,-1.11 0.36,-1.11 z M 290.97,18.96 c 0.17,-0.04 3.05,-0.49 6.41,-3.05 1.82,-1.38 2.92,-3.74 2.92,-3.74 0.00,0.00 0.91,0.76 1.03,0.91 0.28,0.34 0.43,0.60 0.56,0.23 0.48,-1.33 -0.20,-2.13 -0.84,-2.54 0.00,0.00 0.67,-2.07 -0.56,-4.14 -0.21,-0.35 -1.43,-1.46 -2.85,0.74 -0.55,0.84 -0.96,2.85 -0.17,3.42 0.79,0.58 1.94,1.04 1.94,1.04 -3.66,4.48 -6.16,5.34 -8.30,6.59 -0.55,0.32 -0.44,0.61 -0.12,0.53 z M 298.69,9.56 c -0.47,-0.20 -0.72,-0.50 -0.50,-0.80 0.73,-1.02 1.08,-0.98 1.36,-0.82 0.82,0.77 0.70,2.03 0.67,2.31 0.00,0.00 -1.05,-0.49 -1.52,-0.70 z M 298.55,19.34 c -0.06,-0.05 -0.15,-0.03 -0.20,0.04 -1.53,2.10 -1.53,2.10 -1.53,2.10 -0.05,0.07 -0.04,0.16 0.03,0.20 2.61,1.91 2.61,1.91 2.61,1.91 0.06,0.05 0.15,0.03 0.20,-0.04 1.32,-1.81 1.32,-1.81 1.32,-1.81 2.54,1.85 2.54,1.85 2.54,1.85 0.06,0.05 0.15,0.03 0.20,-0.04 1.53,-2.10 1.53,-2.10 1.53,-2.10 0.05,-0.07 0.04,-0.16 -0.03,-0.20 -2.61,-1.91 -2.61,-1.91 -2.61,-1.91 -0.06,-0.05 -0.15,-0.03 -0.20,0.04 -1.32,1.81 -1.32,1.81 -1.32,1.81 z M 297.92,29.09 c 0.00,0.00 1.25,-0.31 1.47,-0.38 0.22,-0.06 0.34,-0.35 -0.05,-0.55 -0.39,-0.20 -4.09,-1.67 -4.37,-1.79 -0.28,-0.11 -0.38,-0.24 -0.41,0.06 -0.02,0.30 -0.07,2.73 -0.07,2.73 0.00,0.00 -0.06,0.17 0.27,0.35 0.32,0.18 0.64,0.58 0.90,0.84 0.26,0.26 3.70,2.98 3.87,3.07 0.00,0.00 -1.72,3.02 -1.94,5.38 -0.22,2.36 0.04,5.63 3.27,4.58 0.87,-0.25 4.49,-1.69 5.30,-4.21 0.26,-0.93 1.01,-2.61 -0.21,-4.31 -0.70,-1.00 -3.53,-2.69 -3.53,-2.69 0.00,0.00 2.17,-3.00 2.38,-3.37 0.21,-0.37 1.00,-2.69 1.09,-3.26 0.09,-0.56 0.13,-0.84 -0.29,-0.32 -0.42,0.52 -4.63,6.05 -4.63,6.05 z M 304.88,37.97 c -1.20,0.99 -3.72,2.29 -4.43,2.36 -0.71,0.07 -2.59,-0.28 -1.77,-2.20 0.28,-0.62 2.16,-3.84 2.16,-3.84 0.70,0.39 5.24,2.70 4.04,3.69 z M 307.65,17.48 c 0.25,-0.16 13.84,-8.02 14.32,-8.31 0.46,-0.29 0.72,-0.41 0.90,-0.85 0.18,-0.44 0.23,-0.51 0.33,-0.82 0.10,-0.32 0.21,-0.67 -0.61,-0.19 -0.53,0.31 -14.04,8.11 -14.59,8.46 -0.55,0.35 -0.74,0.44 -0.83,0.86 -0.09,0.42 -0.13,0.67 -0.16,0.73 -0.10,0.28 -0.17,0.63 0.64,0.10 z M 353.83,42.39 c -0.24,0.68 -0.34,1.12 -0.32,1.38 0.03,0.26 0.12,1.10 0.12,1.10 -0.25,0.20 -1.33,0.87 -2.40,0.08 0.07,-0.23 0.21,-0.70 0.24,-0.95 0.12,-0.40 -0.13,-0.69 -0.32,-0.28 -0.20,0.41 -0.65,1.79 -0.99,2.10 -0.34,0.31 -0.74,1.45 -3.30,0.29 -0.45,-0.17 -1.23,-0.75 -2.46,0.48 -2.77,2.57 -4.68,2.78 -7.79,3.88 -0.38,0.17 -1.16,0.76 -0.23,0.67 0.94,-0.09 4.87,0.00 7.01,-2.46 0.45,-0.43 0.96,-1.58 2.66,-0.92 0.94,0.36 2.68,1.85 4.58,-1.10 1.12,0.75 2.82,0.45 3.09,-0.38 0.27,-0.82 0.58,-1.64 0.58,-2.20 0.00,-0.56 -0.05,-1.30 -0.05,-1.30 -0.04,-0.44 -0.19,-1.07 -0.44,-0.40 z" />
     </g>
</svg>
