<?xml version="1.0" encoding="UTF-8"?>
<svg version="1.1" id="Layer_1" x="0px" y="0px" width="578" height="50" viewBox="0 0 578 50"
xml:space="preserve" xmlns="http://www.w3.org/2000/svg" xmlns:svg="http://www.w3.org/2000/svg" xmlns:rdf="http://www.w3.org/1999/02/22-rdf-syntax-ns#"  xmlns:cc="http://creativecommons.org/ns#" xmlns:dc="http://purl.org/dc/elements/1.1/">
     <g>
<path d="M 262.24,42.87 c -1.92,2.63 -1.92,2.63 -1.92,2.63 -0.06,0.08 -0.05,0.20 0.03,0.25 3.27,2.38 3.27,2.38 3.27,2.38 0.08,0.06 0.19,0.04 0.25,-0.05 1.91,-2.63 1.91,-2.63 1.91,-2.63 0.06,-0.08 0.05,-0.20 -0.03,-0.25 -3.27,-2.38 -3.27,-2.38 -3.27,-2.38 -0.08,-0.06 -0.19,-0.04 -0.25,0.05 z M 251.23,15.39 c -0.87,0.95 -1.14,1.61 -1.41,2.02 -0.36,0.56 0.09,0.81 0.50,0.38 0.41,-0.44 0.69,-0.87 1.87,-0.84 1.19,0.03 4.03,-0.08 2.97,0.70 -1.06,0.78 -1.78,1.23 -1.78,1.23 -0.69,0.49 -1.30,1.42 -0.08,0.91 1.22,-0.52 2.83,-1.33 4.06,-3.19 0.36,-0.54 0.78,-1.27 -0.89,-1.52 -1.67,-0.25 -4.37,-0.64 -5.25,0.31 z M 268.81,23.01 c 0.88,0.42 2.17,0.03 3.14,-1.81 0.75,1.09 1.90,1.10 2.51,0.87 0.52,-0.19 1.10,-0.97 1.27,-2.06 0.17,-1.09 -0.11,-1.83 -0.45,-2.44 -0.45,-0.75 -0.75,-2.02 -0.75,-2.02 -0.16,-0.45 -0.28,-0.91 -0.48,-0.29 -0.20,0.62 -0.35,1.11 -0.08,1.82 0.27,0.71 1.00,2.33 1.12,2.56 0.12,0.23 0.15,0.49 -0.25,0.66 -0.40,0.17 -2.24,0.56 -2.58,-1.40 -0.34,-1.96 -0.37,-2.53 -0.54,-2.86 -0.17,-0.33 -0.33,-0.37 -0.46,-0.04 -0.13,0.33 -0.21,1.01 -0.23,1.12 -0.02,0.11 -0.02,0.19 0.05,0.31 0.07,0.12 0.80,2.31 0.47,2.91 -0.33,0.60 -1.98,1.69 -2.84,0.55 -0.41,-0.79 -0.16,-2.80 -0.16,-3.27 0.00,-0.47 -0.15,-0.63 -0.35,-0.25 -0.20,0.38 -0.31,0.63 -0.30,0.98 0.01,0.34 0.06,1.81 0.03,2.27 -0.03,0.46 0.00,1.96 0.88,2.38 z M 291.42,42.48 c 0.21,-0.44 1.67,-3.46 -0.06,-14.54 -0.13,-0.92 -2.76,-19.64 -2.76,-19.64 0.00,0.00 1.55,1.46 1.80,1.72 0.25,0.26 0.55,0.12 0.41,-0.30 -0.14,-0.42 -3.32,-8.09 -3.42,-8.36 -0.10,-0.27 -0.20,-0.46 -0.33,-0.15 -0.13,0.31 -0.88,2.38 -0.88,2.38 0.20,1.35 1.99,15.83 2.10,16.81 0.12,0.99 2.63,17.36 2.76,21.89 -0.04,0.46 0.17,0.64 0.38,0.19 z M 223.41,13.57 c 0.06,0.05 0.15,0.03 0.20,-0.04 1.32,-1.81 1.32,-1.81 1.32,-1.81 2.54,1.85 2.54,1.85 2.54,1.85 0.06,0.05 0.15,0.03 0.20,-0.04 1.53,-2.10 1.53,-2.10 1.53,-2.10 0.05,-0.07 0.04,-0.16 -0.03,-0.20 -2.61,-1.91 -2.61,-1.91 -2.61,-1.91 -0.06,-0.05 -0.15,-0.03 -0.20,0.04 -1.32,1.81 -1.32,1.81 -1.32,1.81 -2.54,-1.85 -2.54,-1.85 -2.54,-1.85 -0.06,-0.05 -0.15,-0.03 -0.20,0.04 -1.53,2.10 -1.53,2.10 -1.53,2.10 -0.05,0.07 -0.04,0.16 0.03,0.21 z M 261.63,5.34 c 0.33,0.26 1.28,0.73 1.43,0.79 0.16,0.06 0.32,0.06 0.34,-0.13 0.02,-0.18 0.17,-0.62 0.49,-0.36 0.27,0.22 1.97,1.32 3.10,3.96 0.18,0.35 0.52,0.34 0.54,-0.18 0.04,-1.29 -0.12,-3.49 -0.10,-4.17 0.03,-0.95 0.25,-2.93 1.54,-2.07 0.29,0.20 0.61,0.46 0.61,0.46 0.29,0.29 0.64,0.61 0.75,0.23 0.17,-0.58 0.24,-1.52 -0.07,-1.98 -0.14,-0.21 -1.82,-1.89 -2.66,-0.50 -1.05,1.72 -0.88,3.80 -0.77,6.13 -0.23,-0.46 -1.58,-3.44 -4.94,-4.84 -0.24,-0.10 -0.68,0.20 -0.64,0.93 0.02,0.43 0.03,1.47 0.36,1.73 z M 261.40,15.38 c 0.29,-0.16 13.67,-5.41 14.19,-5.71 0.51,-0.29 0.82,-0.40 1.05,-0.86 0.23,-0.47 0.29,-0.55 0.42,-0.88 0.14,-0.35 0.28,-0.72 -0.66,-0.25 -0.60,0.30 -13.88,5.50 -14.50,5.85 -0.62,0.35 -0.84,0.43 -0.97,0.89 -0.13,0.46 -0.19,0.72 -0.22,0.79 -0.13,0.30 -0.23,0.68 0.69,0.16 z M 234.12,12.43 c -0.12,0.36 -0.21,0.81 0.82,0.12 0.32,-0.22 18.24,-9.05 18.82,-9.44 0.57,-0.39 0.92,-0.54 1.15,-1.11 0.23,-0.56 0.29,-0.67 0.40,-1.06 0.13,-0.42 0.26,-0.86 -0.79,-0.23 -0.68,0.41 -18.47,9.17 -19.16,9.64 -0.70,0.46 -0.95,0.59 -1.05,1.13 -0.10,0.54 -0.16,0.86 -0.19,0.95 z M 223.19,37.14 c -0.55,0.28 -6.74,3.62 -7.34,3.97 -0.56,0.33 -0.70,0.51 -0.75,0.94 -0.05,0.43 -0.07,0.67 -0.09,0.75 -0.07,0.29 -0.18,0.54 0.64,0.05 0.40,-0.24 6.52,-3.44 7.09,-3.80 0.46,-0.29 0.68,-0.47 0.83,-0.92 0.14,-0.45 0.18,-0.53 0.25,-0.84 0.08,-0.33 0.19,-0.54 -0.63,-0.13 z M 244.00,43.12 c -0.34,-0.10 -0.85,0.01 -1.49,0.98 -0.13,0.23 -0.22,0.41 -0.27,0.50 -0.08,0.13 -0.02,0.34 0.19,0.04 0.45,-0.58 1.23,-0.84 1.45,0.18 0.03,0.20 0.11,1.09 -1.01,2.65 -0.22,0.30 -0.53,0.76 -0.53,0.76 -0.25,0.34 -0.15,0.60 0.18,0.19 0.33,-0.41 1.61,-1.77 2.06,-3.69 0.10,-0.44 0.07,-1.38 -0.58,-1.60 z M 232.76,8.74 c 0.49,-0.03 1.09,-0.43 1.43,-1.98 0.05,-0.35 0.08,-0.63 0.11,-0.77 0.03,-0.21 -0.13,-0.44 -0.26,0.04 -0.29,0.96 -1.17,1.67 -1.95,0.46 -0.13,-0.24 -0.67,-1.35 0.02,-3.88 0.14,-0.49 0.31,-1.22 0.31,-1.22 0.16,-0.56 -0.09,-0.84 -0.32,-0.15 -0.23,0.68 -1.21,3.05 -0.86,5.73 0.08,0.62 0.57,1.81 1.52,1.78 z M 253.30,5.03 c 0.16,-0.56 -0.09,-0.84 -0.32,-0.15 -0.23,0.68 -1.21,3.04 -0.86,5.73 0.08,0.62 0.57,1.81 1.52,1.78 0.49,-0.03 1.09,-0.43 1.43,-1.98 0.05,-0.35 0.08,-0.63 0.11,-0.77 0.03,-0.21 -0.13,-0.44 -0.26,0.04 -0.29,0.96 -1.17,1.67 -1.95,0.46 -0.13,-0.24 -0.67,-1.35 0.02,-3.88 0.14,-0.49 0.31,-1.22 0.31,-1.22 z M 250.53,22.46 c 0.16,-0.55 -0.09,-0.84 -0.32,-0.15 -0.23,0.68 -1.21,3.04 -0.86,5.73 0.08,0.62 0.57,1.81 1.52,1.78 0.49,-0.03 1.09,-0.43 1.43,-1.98 0.05,-0.35 0.08,-0.63 0.11,-0.77 0.03,-0.21 -0.13,-0.44 -0.26,0.04 -0.29,0.96 -1.17,1.67 -1.95,0.46 -0.13,-0.24 -0.67,-1.35 0.02,-3.88 0.14,-0.49 0.31,-1.23 0.31,-1.23 z M 236.84,24.33 c 0.18,-0.64 -0.10,-0.96 -0.36,-0.18 -0.26,0.78 -1.39,3.49 -1.02,6.58 0.09,0.71 0.63,2.09 1.69,2.06 0.55,-0.03 1.23,-0.48 1.63,-2.26 0.06,-0.40 0.10,-0.72 0.13,-0.88 0.04,-0.24 -0.15,-0.51 -0.29,0.04 -0.34,1.10 -1.33,1.91 -2.19,0.51 -0.14,-0.28 -0.74,-1.56 0.06,-4.47 0.16,-0.56 0.36,-1.41 0.36,-1.41 z M 285.41,36.89 c -0.22,0.60 -0.30,1.00 -0.28,1.23 0.02,0.23 0.10,0.98 0.10,0.98 -0.23,0.18 -1.18,0.78 -2.14,0.07 0.06,-0.21 0.19,-0.62 0.22,-0.85 0.10,-0.35 -0.11,-0.62 -0.29,-0.25 -0.18,0.37 -0.58,1.60 -0.88,1.88 -0.30,0.28 -0.66,1.30 -2.94,0.26 -0.40,-0.15 -1.10,-0.67 -2.19,0.43 -2.47,2.30 -4.18,2.48 -6.95,3.46 -0.34,0.15 -1.04,0.68 -0.20,0.60 0.84,-0.08 4.35,0.00 6.26,-2.19 0.40,-0.39 0.86,-1.41 2.38,-0.82 0.84,0.32 2.40,1.65 4.09,-0.98 1.00,0.67 2.52,0.40 2.76,-0.33 0.24,-0.73 0.52,-1.46 0.52,-1.96 0.00,-0.50 -0.05,-1.16 -0.05,-1.16 -0.04,-0.39 -0.17,-0.96 -0.39,-0.36 z M 271.34,39.11 c 0.39,-0.57 1.49,-2.74 1.49,-2.74 -0.57,-0.11 -12.67,0.13 -18.28,-1.84 0.57,-0.39 2.70,-2.74 3.22,-3.64 0.53,-0.90 1.62,-2.52 2.28,-2.96 0.66,-0.44 0.94,-0.72 1.10,0.09 0.15,0.81 0.46,4.69 4.05,5.32 0.61,0.09 2.96,0.13 4.32,-1.86 2.13,3.92 5.39,1.38 5.81,-0.83 0.00,0.00 0.92,1.91 3.18,2.17 0.72,0.08 3.35,0.42 4.58,-4.25 0.29,-1.11 -0.12,-5.61 -0.26,-6.75 -0.15,-1.18 -1.84,-13.52 -1.84,-13.52 0.00,0.00 1.59,1.46 1.84,1.72 0.25,0.26 0.55,0.12 0.41,-0.30 -0.14,-0.42 -3.31,-8.09 -3.42,-8.36 -0.10,-0.27 -0.20,-0.46 -0.33,-0.15 -0.13,0.31 -1.15,2.55 -1.15,2.55 0.03,0.18 0.27,0.73 0.43,1.87 0.17,1.18 1.30,9.25 1.96,14.25 0.00,0.00 1.00,8.58 1.00,8.90 0.00,0.33 0.04,0.58 -0.29,0.78 -0.33,0.20 -3.66,1.38 -5.08,-1.47 0.11,-0.71 0.12,-0.59 0.15,-0.90 0.04,-0.31 -0.15,-0.95 -0.53,-0.24 -0.38,0.71 -1.38,3.62 -3.38,3.47 -0.64,-0.07 -1.76,-0.47 -1.98,-1.58 0.25,-0.56 0.33,-0.76 0.42,-0.98 0.09,-0.22 -0.07,-0.71 -0.47,-0.27 -0.40,0.44 -2.40,3.38 -4.60,2.96 -0.64,-0.15 -2.53,-0.73 -3.31,-3.75 -0.22,-0.69 -0.49,-3.18 -2.20,-1.82 -1.71,1.36 -2.27,2.60 -2.80,3.37 -0.53,0.76 -1.04,2.62 -8.17,5.89 -0.44,0.63 -1.10,1.82 -1.23,2.15 -0.13,0.33 0.00,0.51 0.24,0.48 0.24,-0.02 4.27,0.11 11.92,2.05 -0.33,0.24 -7.26,3.85 -10.54,2.44 -1.14,-0.44 -2.97,-1.56 -3.74,-6.53 -0.31,-1.52 -1.32,-9.15 -3.28,-14.10 -0.51,-1.25 -2.24,-4.95 -2.60,-5.46 -0.35,-0.51 -0.51,-0.73 -0.64,-0.13 -0.13,0.59 -0.53,2.64 -0.18,3.41 0.35,0.77 2.83,7.75 3.39,10.10 0.18,0.74 0.51,2.09 0.89,3.62 -0.04,-0.08 -0.07,-0.12 -0.07,-0.12 -0.13,0.92 -2.44,7.09 -12.05,11.02 -0.94,0.38 -5.60,1.70 -4.85,-4.13 0.11,-0.97 0.82,-4.42 1.11,-5.70 1.26,-0.71 2.63,-1.80 3.09,-3.24 0.26,-0.93 1.01,-2.61 -0.21,-4.31 -0.70,-1.00 -3.53,-2.69 -3.53,-2.69 0.00,0.00 2.17,-3.00 2.38,-3.37 0.21,-0.37 1.00,-2.69 1.09,-3.26 0.09,-0.56 0.13,-0.84 -0.29,-0.32 -0.42,0.52 -4.63,6.05 -4.63,6.05 -3.06,-2.19 -3.06,-2.19 -3.06,-2.19 0.00,0.00 1.25,-0.31 1.47,-0.38 0.22,-0.06 0.34,-0.35 -0.05,-0.55 -0.39,-0.20 -4.09,-1.67 -4.37,-1.79 -0.28,-0.11 -0.38,-0.24 -0.41,0.06 -0.02,0.30 -0.07,2.73 -0.07,2.73 0.00,0.00 -0.06,0.17 0.27,0.35 0.32,0.18 0.64,0.58 0.90,0.84 0.26,0.26 3.70,2.98 3.87,3.07 0.00,0.00 -1.72,3.02 -1.94,5.38 -0.22,2.36 0.04,5.63 3.27,4.57 0.26,-0.07 0.75,-0.25 1.34,-0.53 -0.89,2.71 -3.51,11.51 1.53,12.88 0.76,0.21 4.91,0.57 11.49,-5.63 0.85,-0.80 3.85,-3.39 4.43,-5.86 0.63,2.48 1.23,4.78 1.41,5.31 0.36,1.09 1.65,4.49 6.04,4.16 1.39,-0.07 4.95,-1.12 10.76,-4.32 1.29,-0.69 5.73,-1.75 8.67,-1.23 z M 225.25,31.28 c -0.71,0.07 -2.59,-0.28 -1.77,-2.20 0.28,-0.62 2.16,-3.84 2.16,-3.84 0.70,0.39 5.24,2.70 4.04,3.69 -1.20,0.99 -3.72,2.29 -4.43,2.36 z M 309.67,12.51 c 0.25,-0.16 13.84,-8.02 14.32,-8.31 0.46,-0.29 0.72,-0.41 0.91,-0.85 0.18,-0.44 0.23,-0.51 0.33,-0.82 0.10,-0.32 0.21,-0.67 -0.61,-0.19 -0.53,0.31 -14.04,8.11 -14.59,8.46 -0.55,0.35 -0.74,0.44 -0.83,0.87 -0.09,0.42 -0.13,0.67 -0.16,0.73 -0.10,0.28 -0.17,0.63 0.64,0.10 z M 327.36,20.49 c 0.48,0.00 1.11,-0.35 1.55,-1.87 0.08,-0.34 0.13,-0.62 0.16,-0.75 0.05,-0.21 -0.10,-0.45 -0.26,0.02 -0.35,0.93 -1.28,1.58 -1.96,0.34 -0.11,-0.25 -0.58,-1.38 0.28,-3.86 0.17,-0.48 0.39,-1.20 0.39,-1.20 0.19,-0.54 -0.04,-0.84 -0.31,-0.17 -0.27,0.66 -1.40,2.94 -1.23,5.64 0.04,0.62 0.45,1.83 1.39,1.87 z M 350.71,6.58 c 0.79,0.58 1.93,1.04 1.93,1.04 -3.66,4.48 -10.84,7.67 -12.55,9.01 -0.51,0.39 -0.44,0.61 -0.12,0.53 0.28,-0.08 5.76,-1.61 10.76,-5.90 2.29,-1.97 2.23,-2.11 2.81,-3.31 0.50,0.26 0.84,0.67 1.03,0.91 0.28,0.34 0.43,0.60 0.56,0.23 0.48,-1.33 -0.20,-2.13 -0.84,-2.54 0.00,0.00 0.67,-2.07 -0.56,-4.14 -0.21,-0.35 -1.43,-1.46 -2.85,0.74 -0.55,0.84 -0.96,2.85 -0.17,3.42 z M 351.44,4.55 c 0.73,-1.02 1.08,-0.99 1.36,-0.82 0.83,0.77 0.70,2.02 0.67,2.31 0.00,0.00 -1.05,-0.49 -1.52,-0.69 -0.47,-0.20 -0.72,-0.50 -0.50,-0.80 z M 332.86,7.24 c 0.17,0.09 0.36,0.11 0.41,-0.10 0.05,-0.21 0.29,-0.68 0.62,-0.34 0.28,0.28 2.09,1.78 3.03,4.95 0.16,0.42 0.55,0.46 0.64,-0.14 0.22,-1.47 0.34,-4.02 0.45,-4.79 0.16,-1.09 0.68,-3.32 2.06,-2.16 0.31,0.26 0.64,0.61 0.64,0.61 0.29,0.37 0.66,0.79 0.84,0.36 0.27,-0.64 0.49,-1.70 0.19,-2.28 -0.13,-0.26 -1.83,-2.41 -3.00,-0.93 -1.44,1.83 -1.53,4.23 -1.72,6.91 -0.20,-0.56 -1.35,-4.16 -5.02,-6.21 -0.27,-0.15 -0.81,0.13 -0.86,0.98 -0.03,0.49 -0.17,1.69 0.18,2.03 0.35,0.34 1.37,1.01 1.54,1.10 z M 353.47,14.51 c 0.18,-0.50 -0.03,-0.77 -0.29,-0.16 -0.25,0.61 -1.30,2.73 -1.14,5.22 0.04,0.58 0.42,1.70 1.29,1.73 0.45,0.00 1.03,-0.33 1.44,-1.73 0.07,-0.32 0.12,-0.57 0.15,-0.70 0.04,-0.19 -0.10,-0.42 -0.24,0.02 -0.33,0.86 -1.18,1.47 -1.82,0.31 -0.10,-0.23 -0.53,-1.28 0.26,-3.57 0.16,-0.45 0.36,-1.11 0.36,-1.11 z M 355.84,37.42 c -0.24,0.68 -0.34,1.12 -0.32,1.38 0.03,0.26 0.12,1.10 0.12,1.10 -0.25,0.20 -1.33,0.87 -2.40,0.08 0.07,-0.23 0.21,-0.70 0.24,-0.95 0.12,-0.40 -0.13,-0.69 -0.32,-0.28 -0.20,0.41 -0.65,1.79 -0.99,2.10 -0.34,0.31 -0.73,1.45 -3.30,0.29 -0.45,-0.17 -1.23,-0.75 -2.46,0.48 -2.77,2.57 -4.68,2.78 -7.79,3.88 -0.38,0.17 -1.16,0.76 -0.23,0.67 0.94,-0.09 4.87,0.00 7.01,-2.46 0.45,-0.43 0.96,-1.58 2.66,-0.92 0.94,0.36 2.68,1.85 4.58,-1.10 1.12,0.75 2.82,0.45 3.09,-0.38 0.27,-0.82 0.58,-1.64 0.58,-2.20 0.00,-0.56 -0.05,-1.30 -0.05,-1.30 -0.04,-0.44 -0.19,-1.07 -0.44,-0.40 z M 359.05,25.11 c -0.25,-0.28 -0.38,-0.01 -0.46,0.31 -0.09,0.32 -0.36,1.52 -0.53,2.27 0.00,0.00 0.71,1.16 0.97,1.75 0.25,0.59 -0.12,0.92 -0.86,1.01 -2.08,0.25 -3.73,-0.94 -4.30,-1.49 -0.57,-0.55 0.05,-1.52 0.51,-2.68 0.37,-0.93 -0.32,-1.04 -0.84,0.00 -1.76,4.63 -4.23,5.12 -4.88,5.30 -5.86,1.60 -5.36,-3.76 -5.34,-4.64 0.02,-0.88 -0.62,-0.55 -1.34,0.03 -2.47,1.98 -4.45,3.14 -5.52,3.62 -0.92,-1.80 -2.26,-2.93 -2.82,-3.34 -6.34,-4.63 -6.87,4.71 -6.67,5.71 0.97,3.97 7.44,1.56 8.46,1.44 1.01,-0.12 0.68,1.22 0.11,2.02 -1.41,1.97 -3.03,3.38 -4.50,4.58 -6.28,5.13 -9.43,4.72 -10.41,4.69 -6.17,-0.17 -5.60,-6.82 -5.26,-8.24 1.86,-1.57 3.45,-3.28 4.38,-5.04 0.38,-0.96 1.03,-3.15 -0.15,-5.91 -0.62,-1.21 -2.56,-4.60 -2.56,-4.60 0.00,0.00 1.43,0.04 1.57,0.04 0.14,0.00 0.41,-0.14 0.06,-0.54 -0.35,-0.40 -3.36,-3.41 -3.54,-3.65 -0.18,-0.24 -0.35,-0.41 -0.45,-0.06 -0.10,0.36 -0.36,1.88 -0.42,2.20 -0.06,0.31 -0.06,0.63 0.10,0.90 0.15,0.27 0.55,1.20 0.84,1.96 0.29,0.76 3.26,6.47 3.53,6.98 0.27,0.51 0.33,0.89 0.06,1.22 -9.53,10.05 -27.91,16.23 -28.50,16.57 -0.59,0.34 -0.43,0.61 0.56,0.43 1.48,-0.26 9.74,-1.64 12.09,-2.77 1.55,-0.75 6.97,-3.41 11.41,-6.89 -0.12,0.90 -0.24,2.22 -0.18,3.89 0.30,8.08 7.53,6.74 9.43,6.33 5.68,-1.25 12.64,-9.11 13.23,-10.69 0.58,-1.56 0.67,-2.98 0.54,-4.22 1.50,-0.81 4.71,-3.40 4.71,-3.40 0.13,3.45 2.88,4.48 3.72,4.63 3.96,0.60 5.94,-2.71 6.78,-3.78 0.72,1.89 2.45,2.25 3.34,2.43 3.41,0.68 4.08,-1.74 4.26,-2.29 1.07,-3.33 -0.86,-5.81 -1.11,-6.08 z M 330.41,31.79 c -2.02,-0.14 -1.85,-0.92 -1.57,-1.23 0.30,-0.33 2.78,-1.89 4.85,0.89 0.00,0.00 -0.86,0.50 -3.28,0.33 z M 292.99,13.99 c 0.17,-0.04 3.05,-0.49 6.41,-3.05 1.82,-1.38 2.92,-3.74 2.92,-3.74 0.00,0.00 0.91,0.76 1.03,0.91 0.28,0.34 0.43,0.60 0.56,0.23 0.48,-1.33 -0.20,-2.13 -0.84,-2.54 0.00,0.00 0.67,-2.07 -0.56,-4.14 -0.21,-0.35 -1.43,-1.46 -2.85,0.74 -0.55,0.84 -0.96,2.85 -0.17,3.42 0.79,0.58 1.93,1.04 1.93,1.04 -3.66,4.48 -6.16,5.34 -8.30,6.59 -0.55,0.32 -0.44,0.61 -0.12,0.53 z M 300.70,4.60 c -0.47,-0.20 -0.72,-0.50 -0.50,-0.80 0.73,-1.02 1.08,-0.99 1.36,-0.82 0.83,0.77 0.70,2.03 0.67,2.31 0.00,0.00 -1.05,-0.49 -1.52,-0.69 z M 299.94,24.12 c 0.00,0.00 1.25,-0.31 1.47,-0.38 0.22,-0.06 0.34,-0.35 -0.05,-0.55 -0.39,-0.20 -4.09,-1.67 -4.37,-1.79 -0.28,-0.11 -0.38,-0.24 -0.41,0.06 -0.02,0.30 -0.07,2.73 -0.07,2.73 0.00,0.00 -0.06,0.17 0.27,0.35 0.32,0.18 0.64,0.58 0.90,0.84 0.26,0.26 3.70,2.98 3.87,3.07 0.00,0.00 -1.72,3.02 -1.94,5.38 -0.22,2.36 0.04,5.63 3.27,4.58 0.87,-0.25 4.49,-1.69 5.30,-4.21 0.26,-0.93 1.01,-2.61 -0.21,-4.31 -0.70,-1.00 -3.53,-2.69 -3.53,-2.69 0.00,0.00 2.17,-3.00 2.38,-3.37 0.21,-0.37 1.00,-2.69 1.09,-3.26 0.09,-0.56 0.13,-0.84 -0.29,-0.32 -0.42,0.52 -4.63,6.05 -4.63,6.05 z M 306.90,33.01 c -1.20,0.99 -3.72,2.29 -4.43,2.36 -0.71,0.07 -2.59,-0.28 -1.77,-2.20 0.28,-0.62 2.16,-3.84 2.16,-3.84 0.70,0.39 5.24,2.70 4.04,3.69 z M 300.57,14.38 c -0.06,-0.05 -0.15,-0.03 -0.20,0.04 -1.53,2.10 -1.53,2.10 -1.53,2.10 -0.05,0.07 -0.04,0.16 0.03,0.20 2.61,1.91 2.61,1.91 2.61,1.91 0.06,0.05 0.15,0.03 0.20,-0.04 1.32,-1.81 1.32,-1.81 1.32,-1.81 2.54,1.85 2.54,1.85 2.54,1.85 0.06,0.05 0.15,0.03 0.20,-0.04 1.53,-2.10 1.53,-2.10 1.53,-2.10 0.05,-0.07 0.04,-0.16 -0.03,-0.20 -2.61,-1.91 -2.61,-1.91 -2.61,-1.91 -0.06,-0.05 -0.15,-0.03 -0.20,0.04 -1.32,1.81 -1.32,1.81 -1.32,1.81 z" />
     </g>
</svg>
