<?xml version="1.0" encoding="UTF-8"?>
<svg version="1.1" id="Layer_1" x="0px" y="0px" width="578" height="58" viewBox="0 0 578 58"
xml:space="preserve" xmlns="http://www.w3.org/2000/svg" xmlns:svg="http://www.w3.org/2000/svg" xmlns:rdf="http://www.w3.org/1999/02/22-rdf-syntax-ns#"  xmlns:cc="http://creativecommons.org/ns#" xmlns:dc="http://purl.org/dc/elements/1.1/">
     <g>
<path d="M 222.62,47.20 c -1.92,2.63 -1.92,2.63 -1.92,2.63 -0.06,0.08 -0.05,0.20 0.03,0.25 3.27,2.38 3.27,2.38 3.27,2.38 0.08,0.06 0.19,0.04 0.25,-0.05 1.91,-2.63 1.91,-2.63 1.91,-2.63 0.06,-0.08 0.05,-0.20 -0.03,-0.25 -3.27,-2.38 -3.27,-2.38 -3.27,-2.38 -0.08,-0.06 -0.19,-0.04 -0.25,0.05 z M 247.35,32.41 c -1.92,2.63 -1.92,2.63 -1.92,2.63 -0.06,0.08 -0.05,0.20 0.03,0.25 3.27,2.38 3.27,2.38 3.27,2.38 0.08,0.06 0.19,0.04 0.25,-0.05 1.91,-2.63 1.91,-2.63 1.91,-2.63 0.06,-0.08 0.05,-0.20 -0.03,-0.25 -3.27,-2.38 -3.27,-2.38 -3.27,-2.38 -0.08,-0.06 -0.19,-0.04 -0.25,0.05 z M 240.67,46.95 c -0.04,0.46 0.17,0.64 0.38,0.19 0.21,-0.44 2.73,-4.96 0.31,-17.23 -0.13,-0.92 -2.79,-17.35 -2.79,-17.35 0.00,0.00 1.55,1.45 1.80,1.72 0.25,0.26 0.55,0.12 0.41,-0.30 -0.14,-0.42 -3.31,-8.10 -3.42,-8.36 -0.10,-0.27 -0.20,-0.46 -0.33,-0.15 -0.13,0.31 -1.01,2.80 -1.01,2.80 0.20,1.35 2.08,13.13 2.27,14.11 0.24,1.21 3.67,17.84 2.39,24.58 z M 288.98,12.72 c 0.00,0.00 1.55,1.45 1.80,1.72 0.25,0.26 0.55,0.12 0.41,-0.30 -0.14,-0.42 -3.31,-8.09 -3.42,-8.36 -0.10,-0.27 -0.20,-0.46 -0.33,-0.15 -0.13,0.31 -1.45,3.04 -1.45,3.04 0.03,0.18 0.38,0.56 0.57,1.62 0.66,3.68 2.12,11.86 3.06,18.74 0.19,1.38 1.48,9.06 1.26,10.72 -0.07,0.50 -0.21,1.04 -0.46,1.62 0.06,-1.42 -0.28,-3.64 -2.03,-6.89 -1.81,-3.35 -9.45,-9.57 -14.40,-15.79 -0.34,-0.43 -2.28,-2.71 -2.28,-2.71 0.00,0.00 1.56,0.18 1.87,0.20 0.38,0.02 0.91,0.05 0.53,-0.28 -0.37,-0.34 -5.02,-3.60 -5.54,-3.99 -0.52,-0.39 -0.73,-0.68 -0.73,-0.27 0.00,0.41 0.27,3.11 0.28,3.36 0.02,0.25 0.33,0.26 0.64,0.49 0.32,0.24 1.08,1.57 2.14,2.85 5.41,6.16 10.24,11.30 10.96,12.11 1.10,1.22 7.50,6.30 7.77,11.58 0.01,0.29 0.02,0.51 0.01,0.73 -1.83,2.66 -5.99,5.93 -14.86,9.60 -1.12,0.59 -0.73,0.92 0.07,0.79 0.79,-0.13 11.81,-1.42 15.87,-8.42 1.45,-2.77 2.39,-6.00 1.53,-11.87 -0.26,-1.85 -3.26,-20.14 -3.26,-20.14 z M 216.14,12.65 c 0.16,0.09 0.34,0.10 0.39,-0.09 0.05,-0.20 0.27,-0.65 0.59,-0.32 0.27,0.27 1.99,1.69 2.88,4.71 0.15,0.40 0.53,0.44 0.61,-0.13 0.21,-1.39 0.32,-3.82 0.43,-4.56 0.16,-1.03 0.65,-3.16 1.96,-2.06 0.30,0.25 0.61,0.58 0.61,0.58 0.28,0.35 0.63,0.75 0.80,0.35 0.26,-0.61 0.46,-1.62 0.18,-2.17 -0.12,-0.24 -1.75,-2.29 -2.85,-0.89 -1.37,1.74 -1.46,4.03 -1.64,6.58 -0.19,-0.53 -1.29,-3.95 -4.78,-5.91 -0.25,-0.14 -0.77,0.13 -0.82,0.93 -0.03,0.47 -0.16,1.61 0.17,1.93 0.33,0.32 1.31,0.96 1.47,1.04 z M 245.22,8.84 c 0.16,0.09 0.34,0.10 0.39,-0.09 0.05,-0.19 0.27,-0.65 0.59,-0.32 0.27,0.27 1.99,1.69 2.88,4.71 0.15,0.40 0.53,0.44 0.61,-0.13 0.21,-1.40 0.32,-3.82 0.43,-4.56 0.16,-1.03 0.65,-3.16 1.96,-2.06 0.30,0.25 0.61,0.58 0.61,0.58 0.28,0.35 0.63,0.75 0.80,0.35 0.26,-0.61 0.46,-1.62 0.18,-2.17 -0.12,-0.24 -1.75,-2.29 -2.85,-0.89 -1.37,1.74 -1.46,4.03 -1.64,6.58 -0.19,-0.53 -1.29,-3.95 -4.78,-5.91 -0.25,-0.14 -0.77,0.13 -0.82,0.93 -0.03,0.47 -0.16,1.61 0.17,1.93 0.33,0.32 1.31,0.96 1.47,1.05 z M 230.15,51.97 c -0.56,0.26 -13.10,3.98 -13.68,4.28 -0.58,0.30 -0.78,0.37 -0.91,0.78 -0.13,0.41 -0.19,0.65 -0.22,0.72 -0.13,0.27 -0.23,0.61 0.62,0.16 0.27,-0.14 12.92,-3.91 13.39,-4.16 0.48,-0.25 0.76,-0.34 0.98,-0.76 0.22,-0.42 0.28,-0.49 0.40,-0.79 0.13,-0.31 0.27,-0.65 -0.59,-0.24 z M 259.60,7.76 c 0.30,-0.16 11.66,-4.98 12.19,-5.28 0.53,-0.29 0.85,-0.39 1.09,-0.86 0.25,-0.47 0.30,-0.56 0.44,-0.89 0.15,-0.35 0.30,-0.73 -0.67,-0.26 -0.62,0.30 -11.87,5.07 -12.51,5.42 -0.65,0.34 -0.87,0.43 -1.01,0.89 -0.14,0.47 -0.21,0.74 -0.24,0.81 -0.14,0.31 -0.25,0.69 0.71,0.18 z M 254.51,48.61 c -0.41,-0.10 -1.00,0.07 -1.68,1.26 -0.13,0.27 -0.23,0.49 -0.29,0.60 -0.08,0.16 0.00,0.40 0.22,0.04 0.49,-0.71 1.39,-1.07 1.71,0.12 0.04,0.23 0.20,1.27 -1.02,3.17 -0.24,0.37 -0.57,0.92 -0.57,0.92 -0.27,0.41 -0.14,0.71 0.23,0.21 0.36,-0.50 1.77,-2.18 2.18,-4.47 0.09,-0.53 -0.01,-1.63 -0.78,-1.85 z M 251.35,30.76 c 0.52,0.00 1.18,-0.36 1.66,-1.90 0.08,-0.35 0.13,-0.63 0.17,-0.76 0.05,-0.21 -0.11,-0.45 -0.28,0.02 -0.38,0.94 -1.36,1.60 -2.09,0.34 -0.12,-0.25 -0.61,-1.40 0.29,-3.90 0.18,-0.49 0.41,-1.21 0.41,-1.21 0.20,-0.55 -0.04,-0.85 -0.33,-0.18 -0.29,0.67 -1.50,2.98 -1.31,5.71 0.04,0.63 0.48,1.86 1.48,1.89 z M 278.51,36.40 c 0.22,-0.84 -0.13,-1.27 -0.45,-0.24 -0.32,1.03 -1.71,4.60 -1.23,8.69 0.11,0.95 0.79,2.76 2.10,2.74 0.68,-0.04 1.52,-0.63 2.01,-2.98 0.08,-0.53 0.12,-0.96 0.15,-1.16 0.05,-0.32 -0.18,-0.68 -0.36,0.05 -0.41,1.45 -1.64,2.51 -2.71,0.66 -0.18,-0.37 -0.92,-2.06 0.05,-5.90 0.20,-0.75 0.44,-1.86 0.44,-1.86 z M 280.84,15.04 c 0.51,-0.03 1.15,-0.47 1.52,-2.26 0.06,-0.40 0.09,-0.72 0.12,-0.88 0.04,-0.24 -0.14,-0.51 -0.28,0.04 -0.31,1.10 -1.24,1.90 -2.05,0.50 -0.13,-0.28 -0.70,-1.56 0.04,-4.47 0.15,-0.56 0.33,-1.41 0.33,-1.41 0.17,-0.64 -0.09,-0.96 -0.34,-0.18 -0.24,0.78 -1.29,3.48 -0.93,6.58 0.08,0.72 0.60,2.09 1.59,2.07 z M 221.71,19.99 c 0.20,-0.61 -0.10,-0.92 -0.39,-0.17 -0.29,0.75 -1.52,3.36 -1.14,6.32 0.09,0.69 0.66,2.00 1.80,1.97 0.59,-0.03 1.33,-0.47 1.77,-2.18 0.07,-0.39 0.11,-0.69 0.14,-0.84 0.05,-0.23 -0.15,-0.49 -0.32,0.04 -0.37,1.06 -1.45,1.84 -2.36,0.51 -0.15,-0.27 -0.79,-1.49 0.09,-4.29 0.18,-0.54 0.40,-1.35 0.40,-1.35 z M 230.88,21.27 c 0.71,-0.04 1.61,-0.64 2.13,-3.03 0.08,-0.54 0.13,-0.97 0.17,-1.18 0.05,-0.32 -0.19,-0.69 -0.38,0.06 -0.44,1.47 -1.74,2.56 -2.87,0.68 -0.19,-0.37 -0.97,-2.09 0.07,-5.99 0.21,-0.76 0.47,-1.88 0.47,-1.88 0.24,-0.85 -0.13,-1.29 -0.47,-0.24 -0.34,1.05 -1.81,4.67 -1.32,8.82 0.11,0.96 0.83,2.80 2.21,2.77 z M 223.98,37.34 c -0.14,-0.25 -0.75,-1.41 0.09,-4.07 0.17,-0.52 0.38,-1.28 0.38,-1.28 0.19,-0.58 -0.09,-0.88 -0.37,-0.16 -0.27,0.71 -1.44,3.19 -1.08,6.01 0.08,0.65 0.63,1.90 1.71,1.87 0.56,-0.03 1.26,-0.44 1.68,-2.07 0.07,-0.37 0.11,-0.66 0.14,-0.80 0.04,-0.22 -0.15,-0.47 -0.30,0.04 -0.35,1.00 -1.38,1.75 -2.24,0.48 z M 265.85,10.90 c -0.12,0.42 -0.16,0.68 -0.17,0.84 -0.01,0.15 -0.04,0.27 0.21,0.20 0.25,-0.07 0.36,-0.11 0.36,-0.11 0.71,-0.31 3.41,-1.72 5.23,-2.15 0.06,-0.01 0.17,-0.61 0.23,-0.93 0.06,-0.33 -0.28,-0.30 -0.81,-0.18 -0.53,0.12 -2.44,0.68 -3.46,-0.19 -0.87,-0.75 -0.98,-1.05 -0.67,-1.24 0.31,-0.19 1.18,-0.77 1.75,-0.05 0.30,0.38 0.55,0.38 0.68,0.13 0.13,-0.25 0.56,-0.91 0.44,-1.18 -0.13,-0.27 -0.70,-1.19 -1.98,-0.57 -1.29,0.62 -2.56,2.63 -2.07,3.40 0.41,0.66 1.25,1.25 1.25,1.25 -0.41,0.23 -0.86,0.35 -0.99,0.78 z M 263.07,22.70 c -0.94,0.69 -1.57,1.09 -1.57,1.09 -0.61,0.44 -1.15,1.26 -0.07,0.80 1.08,-0.46 2.50,-1.17 3.59,-2.82 0.32,-0.48 0.69,-1.12 -0.79,-1.34 -1.48,-0.22 -3.87,-0.57 -4.64,0.28 -0.77,0.84 -1.01,1.42 -1.24,1.78 -0.32,0.50 0.08,0.72 0.44,0.33 0.36,-0.39 0.61,-0.77 1.66,-0.75 1.05,0.03 3.56,-0.07 2.62,0.62 z M 269.64,49.16 c -0.44,0.48 -2.46,2.34 -4.60,2.44 -1.67,-0.12 -1.91,-1.52 -1.48,-2.20 0.43,-0.68 2.07,-2.29 2.35,-2.70 0.29,-0.41 0.53,-1.04 0.53,-1.04 0.15,-0.45 0.22,-0.75 -0.24,-0.77 -0.47,-0.02 -2.11,-0.32 -2.80,0.75 -0.11,0.24 -0.57,1.03 -0.64,1.19 -0.07,0.17 0.00,0.35 0.12,0.22 0.12,-0.13 0.08,-0.80 2.18,-0.77 0.30,0.00 0.41,0.08 0.29,0.24 -0.13,0.16 -2.01,1.79 -2.49,3.96 -0.60,3.16 2.44,2.58 3.07,2.33 0.38,-0.15 2.32,-1.03 3.82,-3.31 0.21,-0.33 0.32,-0.81 -0.12,-0.33 z M 243.62,25.89 c 0.57,0.11 0.88,0.45 1.02,0.64 0.06,0.08 0.15,0.03 0.18,-0.02 0.68,-1.26 0.12,-2.07 -0.97,-2.42 -0.43,-0.14 -0.61,-0.75 1.04,-1.74 1.52,-0.91 16.45,-7.91 16.79,-8.13 0.45,-0.30 0.73,-0.41 0.92,-0.85 0.19,-0.44 0.23,-0.52 0.33,-0.83 0.11,-0.33 0.21,-0.67 -0.62,-0.19 -0.44,0.25 -16.83,7.81 -18.10,8.78 -0.64,0.48 -1.18,1.26 -1.38,2.12 -0.30,1.24 -0.02,2.49 0.79,2.64 z M 227.54,45.14 c 2.87,-0.81 7.02,-2.53 8.82,-5.02 0.32,-0.44 1.44,-2.72 0.62,-4.91 -0.33,-0.86 -1.77,-3.05 -2.06,-3.49 -0.29,-0.44 -0.51,-0.49 -0.64,-0.04 -0.13,0.46 -0.59,2.75 -0.59,2.75 0.47,0.62 2.82,3.50 2.27,4.05 -0.55,0.55 -5.39,4.58 -16.99,5.30 -1.30,0.08 -7.66,-0.14 -7.36,-4.96 0.04,-0.72 0.55,-3.04 1.31,-4.33 0.00,-0.01 0.01,-0.02 0.01,-0.03 0.14,0.05 0.28,0.07 0.44,0.07 0.67,-0.04 1.50,-0.65 1.98,-3.11 0.07,-0.55 0.12,-1.00 0.15,-1.21 0.05,-0.33 -0.19,-0.71 -0.36,0.05 -0.41,1.51 -1.62,2.63 -2.69,0.69 -0.18,-0.39 -0.92,-2.16 0.03,-6.17 0.19,-0.78 0.43,-1.94 0.43,-1.94 0.22,-0.88 -0.13,-1.33 -0.45,-0.25 -0.32,1.08 -1.68,4.80 -1.20,9.08 0.08,0.70 0.44,1.85 1.11,2.46 -0.03,0.04 -0.06,0.07 -0.08,0.12 -0.31,0.56 -4.06,6.52 -0.19,10.68 0.33,0.38 3.36,3.80 15.44,0.23 z M 276.75,31.73 c -1.06,-0.40 -12.41,-2.81 -21.02,-1.16 -1.25,0.20 -3.37,1.55 -3.76,3.20 -0.26,1.35 0.08,2.84 0.86,3.60 0.25,0.24 2.17,1.89 4.00,3.65 -0.14,0.06 -0.28,0.11 -0.42,0.16 -1.27,0.47 -7.29,3.63 -10.20,6.89 -1.04,1.06 -4.34,4.80 -6.23,5.62 -1.22,0.43 -3.56,1.16 -4.69,-1.98 -0.26,-0.76 -0.13,-5.28 3.17,-9.87 0.59,-0.82 0.23,-1.42 -0.56,-0.56 -0.79,0.86 -8.18,12.87 0.56,15.11 1.32,0.10 3.93,0.42 8.05,-4.67 1.07,-1.33 5.55,-5.82 10.66,-7.80 0.23,-0.09 0.86,-0.37 1.74,-0.76 0.39,0.43 0.71,0.84 0.96,1.20 0.22,0.31 0.60,0.38 0.64,-0.20 0.02,-0.26 0.08,-0.83 -0.13,-1.66 4.26,-1.94 11.26,-5.20 12.24,-5.77 1.35,-0.79 2.54,-1.35 2.54,-1.35 z M 259.22,40.08 c -0.34,-0.49 -0.76,-1.01 -1.29,-1.57 -0.40,-0.44 -3.69,-3.18 -3.99,-3.53 -0.31,-0.35 -0.49,-0.84 0.49,-1.15 0.97,-0.31 8.54,-2.14 17.61,0.24 -0.85,0.64 -7.17,3.68 -12.81,6.01 z M 298.50,46.23 c -0.04,0.46 0.17,0.64 0.38,0.19 0.11,-0.24 0.59,-1.22 0.73,-3.80 0.11,-1.94 -0.04,-4.91 -0.60,-9.01 -0.08,-0.60 -2.95,-21.37 -2.95,-21.37 0.00,0.00 1.55,1.45 1.80,1.72 0.25,0.26 0.55,0.12 0.41,-0.30 -0.14,-0.42 -3.31,-8.09 -3.42,-8.36 -0.10,-0.27 -0.20,-0.46 -0.33,-0.15 -0.13,0.31 -1.08,2.64 -1.08,2.64 0.02,0.14 0.28,1.16 0.33,1.54 0.44,3.36 3.20,23.25 3.99,29.54 0.39,3.09 0.69,5.88 0.73,7.37 z M 357.31,10.36 c 0.79,0.58 1.94,1.04 1.94,1.04 -3.66,4.48 -10.84,7.67 -12.56,9.01 -0.51,0.39 -0.44,0.61 -0.12,0.53 0.28,-0.08 5.76,-1.61 10.76,-5.90 2.29,-1.97 2.23,-2.11 2.81,-3.31 0.50,0.26 0.84,0.67 1.03,0.91 0.28,0.34 0.43,0.60 0.56,0.23 0.48,-1.33 -0.20,-2.13 -0.84,-2.54 0.00,0.00 0.67,-2.07 -0.56,-4.14 -0.21,-0.35 -1.43,-1.46 -2.85,0.74 -0.55,0.84 -0.96,2.85 -0.18,3.42 z M 358.04,8.33 c 0.73,-1.02 1.08,-0.98 1.36,-0.82 0.83,0.77 0.70,2.03 0.67,2.31 0.00,0.00 -1.05,-0.49 -1.52,-0.70 -0.47,-0.20 -0.72,-0.50 -0.50,-0.80 z M 333.96,24.27 c 0.48,0.00 1.11,-0.35 1.55,-1.88 0.08,-0.34 0.13,-0.62 0.16,-0.75 0.05,-0.21 -0.10,-0.45 -0.26,0.02 -0.35,0.93 -1.28,1.58 -1.96,0.33 -0.11,-0.25 -0.58,-1.38 0.28,-3.86 0.17,-0.48 0.39,-1.20 0.39,-1.20 0.19,-0.54 -0.04,-0.84 -0.31,-0.17 -0.27,0.66 -1.40,2.94 -1.23,5.64 0.04,0.62 0.45,1.83 1.39,1.87 z M 360.07,18.29 c 0.18,-0.50 -0.04,-0.77 -0.29,-0.16 -0.25,0.61 -1.30,2.73 -1.14,5.22 0.04,0.58 0.42,1.70 1.29,1.73 0.45,0.00 1.03,-0.33 1.44,-1.74 0.07,-0.32 0.12,-0.57 0.15,-0.70 0.04,-0.19 -0.10,-0.42 -0.24,0.02 -0.33,0.86 -1.18,1.47 -1.82,0.31 -0.10,-0.23 -0.53,-1.28 0.26,-3.57 0.16,-0.45 0.36,-1.11 0.36,-1.11 z M 339.46,11.02 c 0.17,0.09 0.36,0.11 0.41,-0.10 0.05,-0.21 0.29,-0.68 0.62,-0.34 0.28,0.28 2.09,1.78 3.03,4.95 0.16,0.42 0.55,0.46 0.64,-0.14 0.22,-1.47 0.33,-4.02 0.45,-4.79 0.17,-1.09 0.68,-3.33 2.06,-2.16 0.31,0.26 0.64,0.61 0.64,0.61 0.29,0.37 0.66,0.79 0.84,0.36 0.27,-0.64 0.49,-1.70 0.19,-2.28 -0.13,-0.26 -1.83,-2.41 -3.00,-0.93 -1.44,1.83 -1.53,4.23 -1.72,6.91 -0.20,-0.56 -1.35,-4.16 -5.02,-6.21 -0.27,-0.15 -0.81,0.13 -0.86,0.98 -0.03,0.49 -0.17,1.69 0.18,2.03 0.35,0.34 1.37,1.01 1.54,1.10 z M 316.26,16.29 c 0.25,-0.16 13.84,-8.02 14.32,-8.31 0.46,-0.29 0.72,-0.41 0.91,-0.85 0.18,-0.44 0.23,-0.51 0.33,-0.82 0.10,-0.32 0.21,-0.67 -0.61,-0.19 -0.53,0.31 -14.04,8.11 -14.59,8.46 -0.55,0.35 -0.74,0.44 -0.83,0.86 -0.09,0.42 -0.13,0.67 -0.16,0.73 -0.10,0.28 -0.17,0.63 0.64,0.10 z M 362.44,41.20 c -0.24,0.68 -0.34,1.12 -0.32,1.38 0.03,0.26 0.12,1.10 0.12,1.10 -0.25,0.20 -1.33,0.87 -2.40,0.08 0.07,-0.23 0.21,-0.70 0.24,-0.95 0.12,-0.40 -0.13,-0.69 -0.32,-0.28 -0.20,0.41 -0.65,1.79 -0.99,2.10 -0.34,0.31 -0.73,1.45 -3.30,0.29 -0.45,-0.17 -1.23,-0.75 -2.46,0.48 -2.77,2.57 -4.68,2.78 -7.79,3.88 -0.38,0.17 -1.16,0.77 -0.23,0.67 0.94,-0.09 4.87,0.00 7.01,-2.46 0.45,-0.43 0.96,-1.58 2.66,-0.92 0.94,0.36 2.68,1.85 4.58,-1.10 1.12,0.75 2.82,0.45 3.09,-0.38 0.27,-0.82 0.58,-1.64 0.58,-2.20 0.00,-0.56 -0.05,-1.30 -0.05,-1.30 -0.04,-0.44 -0.19,-1.07 -0.44,-0.40 z M 306.54,27.90 c 0.00,0.00 1.25,-0.31 1.47,-0.38 0.22,-0.06 0.34,-0.35 -0.05,-0.55 -0.39,-0.20 -4.09,-1.67 -4.37,-1.79 -0.28,-0.11 -0.38,-0.24 -0.41,0.06 -0.02,0.30 -0.07,2.73 -0.07,2.73 0.00,0.00 -0.06,0.17 0.27,0.35 0.32,0.18 0.64,0.58 0.90,0.84 0.26,0.26 3.70,2.98 3.87,3.07 0.00,0.00 -1.72,3.02 -1.94,5.38 -0.22,2.36 0.04,5.63 3.27,4.57 0.87,-0.25 4.49,-1.69 5.30,-4.21 0.26,-0.93 1.01,-2.61 -0.21,-4.31 -0.70,-1.00 -3.53,-2.69 -3.53,-2.69 0.00,0.00 2.17,-3.00 2.38,-3.37 0.21,-0.37 1.00,-2.69 1.09,-3.26 0.09,-0.56 0.13,-0.84 -0.29,-0.32 -0.42,0.52 -4.63,6.05 -4.63,6.05 z M 313.49,36.79 c -1.20,0.99 -3.72,2.29 -4.43,2.36 -0.71,0.07 -2.59,-0.28 -1.77,-2.20 0.28,-0.62 2.16,-3.84 2.16,-3.84 0.70,0.39 5.24,2.70 4.04,3.69 z M 365.65,28.89 c -0.25,-0.28 -0.38,-0.01 -0.46,0.31 -0.09,0.32 -0.36,1.52 -0.54,2.27 0.00,0.00 0.71,1.16 0.97,1.75 0.25,0.59 -0.12,0.92 -0.86,1.01 -2.08,0.25 -3.73,-0.94 -4.30,-1.48 -0.57,-0.55 0.05,-1.52 0.51,-2.68 0.37,-0.93 -0.32,-1.04 -0.84,0.00 -1.76,4.63 -4.23,5.12 -4.88,5.30 -5.86,1.60 -5.36,-3.76 -5.33,-4.64 0.02,-0.88 -0.62,-0.55 -1.34,0.03 -2.47,1.98 -4.45,3.14 -5.52,3.62 -0.92,-1.80 -2.26,-2.93 -2.82,-3.34 -6.34,-4.63 -6.87,4.71 -6.67,5.71 0.97,3.97 7.45,1.56 8.46,1.44 1.02,-0.12 0.68,1.22 0.11,2.02 -1.41,1.97 -3.03,3.38 -4.50,4.57 -6.28,5.13 -9.43,4.72 -10.41,4.69 -6.17,-0.17 -5.60,-6.82 -5.26,-8.24 1.86,-1.57 3.45,-3.28 4.38,-5.04 0.38,-0.96 1.03,-3.16 -0.15,-5.91 -0.62,-1.21 -2.56,-4.60 -2.56,-4.60 0.00,0.00 1.43,0.04 1.57,0.04 0.14,0.00 0.41,-0.14 0.06,-0.55 -0.35,-0.40 -3.36,-3.40 -3.54,-3.65 -0.18,-0.24 -0.35,-0.41 -0.45,-0.06 -0.10,0.36 -0.36,1.88 -0.42,2.20 -0.06,0.31 -0.06,0.63 0.10,0.90 0.15,0.27 0.55,1.20 0.84,1.96 0.29,0.76 3.26,6.47 3.53,6.98 0.27,0.51 0.33,0.88 0.06,1.22 -9.53,10.05 -27.91,16.23 -28.50,16.57 -0.59,0.34 -0.43,0.61 0.56,0.43 1.48,-0.26 9.74,-1.64 12.09,-2.77 1.55,-0.75 6.98,-3.41 11.41,-6.89 -0.12,0.90 -0.24,2.22 -0.18,3.89 0.30,8.08 7.53,6.74 9.43,6.33 5.68,-1.25 12.64,-9.11 13.23,-10.69 0.58,-1.56 0.67,-2.98 0.54,-4.22 1.50,-0.81 4.71,-3.40 4.71,-3.40 0.13,3.45 2.87,4.48 3.72,4.63 3.96,0.60 5.94,-2.71 6.78,-3.78 0.72,1.89 2.45,2.25 3.34,2.43 3.41,0.68 4.08,-1.74 4.26,-2.29 1.07,-3.33 -0.86,-5.81 -1.11,-6.08 z M 337.01,35.56 c -2.03,-0.14 -1.85,-0.92 -1.57,-1.22 0.30,-0.33 2.78,-1.89 4.85,0.89 0.00,0.00 -0.86,0.50 -3.28,0.33 z M 299.58,17.77 c 0.17,-0.04 3.05,-0.49 6.41,-3.05 1.82,-1.38 2.92,-3.74 2.92,-3.74 0.00,0.00 0.91,0.76 1.03,0.91 0.28,0.34 0.43,0.60 0.56,0.23 0.48,-1.33 -0.20,-2.13 -0.84,-2.54 0.00,0.00 0.67,-2.07 -0.56,-4.14 -0.21,-0.35 -1.43,-1.46 -2.85,0.74 -0.55,0.84 -0.96,2.85 -0.18,3.42 0.79,0.58 1.94,1.04 1.94,1.04 -3.66,4.48 -6.16,5.34 -8.30,6.59 -0.55,0.32 -0.44,0.61 -0.12,0.53 z M 307.30,8.38 c -0.47,-0.20 -0.72,-0.50 -0.50,-0.80 0.73,-1.02 1.08,-0.98 1.36,-0.82 0.82,0.77 0.70,2.03 0.67,2.31 0.00,0.00 -1.05,-0.49 -1.52,-0.70 z M 307.16,18.16 c -0.06,-0.04 -0.15,-0.03 -0.20,0.04 -1.53,2.10 -1.53,2.10 -1.53,2.10 -0.05,0.07 -0.04,0.16 0.03,0.21 2.61,1.91 2.61,1.91 2.61,1.91 0.06,0.05 0.15,0.03 0.20,-0.04 1.32,-1.81 1.32,-1.81 1.32,-1.81 2.54,1.85 2.54,1.85 2.54,1.85 0.06,0.05 0.15,0.03 0.20,-0.04 1.53,-2.10 1.53,-2.10 1.53,-2.10 0.05,-0.07 0.04,-0.16 -0.03,-0.20 -2.61,-1.91 -2.61,-1.91 -2.61,-1.91 -0.06,-0.04 -0.15,-0.03 -0.20,0.04 -1.32,1.81 -1.32,1.81 -1.32,1.81 z" />
     </g>
</svg>
