<?xml version="1.0" encoding="UTF-8"?>
<svg version="1.1" id="Layer_1" x="0px" y="0px" width="578" height="53" viewBox="0 0 578 53"
xml:space="preserve" xmlns="http://www.w3.org/2000/svg" xmlns:svg="http://www.w3.org/2000/svg" xmlns:rdf="http://www.w3.org/1999/02/22-rdf-syntax-ns#"  xmlns:cc="http://creativecommons.org/ns#" xmlns:dc="http://purl.org/dc/elements/1.1/">
     <g>
<path d="M 246.11,41.70 c -1.92,2.63 -1.92,2.63 -1.92,2.63 -0.06,0.08 -0.05,0.20 0.03,0.25 3.27,2.38 3.27,2.38 3.27,2.38 0.08,0.06 0.19,0.04 0.25,-0.05 1.91,-2.63 1.91,-2.63 1.91,-2.63 0.06,-0.08 0.05,-0.20 -0.03,-0.25 -3.27,-2.38 -3.27,-2.38 -3.27,-2.38 -0.08,-0.06 -0.19,-0.04 -0.25,0.05 z M 289.09,2.77 c -0.28,-0.17 -0.63,-0.20 -1.36,0.82 -0.22,0.30 0.03,0.60 0.50,0.80 0.47,0.20 1.52,0.69 1.52,0.69 0.03,-0.29 0.16,-1.55 -0.67,-2.31 z M 339.47,5.14 c 0.47,0.20 1.52,0.69 1.52,0.69 0.03,-0.29 0.16,-1.55 -0.67,-2.31 -0.28,-0.17 -0.63,-0.20 -1.36,0.82 -0.22,0.30 0.03,0.60 0.50,0.80 z M 288.94,6.66 c 0.00,0.00 -1.15,-0.46 -1.93,-1.04 -0.79,-0.57 -0.38,-2.58 0.17,-3.42 1.42,-2.20 2.64,-1.09 2.85,-0.74 1.24,2.07 0.56,4.14 0.56,4.14 0.65,0.41 1.32,1.21 0.84,2.54 -0.13,0.36 -0.28,0.11 -0.56,-0.23 -0.12,-0.15 -1.03,-0.91 -1.03,-0.91 0.00,0.00 -1.10,2.36 -2.92,3.74 -3.36,2.55 -6.24,3.00 -6.41,3.05 -0.32,0.09 -0.43,-0.20 0.12,-0.53 2.14,-1.25 4.64,-2.11 8.30,-6.60 z M 288.22,32.95 c -0.82,1.93 1.06,2.27 1.77,2.20 0.71,-0.07 3.23,-1.37 4.43,-2.36 1.20,-0.99 -3.34,-3.30 -4.04,-3.69 0.00,0.00 -1.88,3.22 -2.16,3.84 z M 290.53,26.09 c 0.00,0.00 4.21,-5.53 4.63,-6.05 0.42,-0.52 0.38,-0.24 0.29,0.32 -0.09,0.56 -0.88,2.89 -1.09,3.25 -0.21,0.37 -2.38,3.37 -2.38,3.37 0.00,0.00 2.83,1.69 3.53,2.69 1.21,1.70 0.47,3.38 0.21,4.31 -0.81,2.52 -4.43,3.96 -5.30,4.21 -3.23,1.05 -3.49,-2.21 -3.27,-4.58 0.22,-2.36 1.94,-5.38 1.94,-5.38 -0.17,-0.09 -3.60,-2.81 -3.87,-3.07 -0.26,-0.26 -0.58,-0.66 -0.90,-0.84 -0.32,-0.18 -0.27,-0.35 -0.27,-0.35 0.00,0.00 0.04,-2.43 0.07,-2.73 0.02,-0.30 0.13,-0.17 0.41,-0.06 0.28,0.11 3.98,1.59 4.37,1.79 0.39,0.20 0.27,0.48 0.05,0.55 -0.22,0.06 -1.47,0.38 -1.47,0.38 z M 288.09,14.16 c -0.06,-0.05 -0.15,-0.03 -0.20,0.04 -1.53,2.10 -1.53,2.10 -1.53,2.10 -0.05,0.07 -0.04,0.16 0.03,0.20 2.61,1.91 2.61,1.91 2.61,1.91 0.06,0.05 0.15,0.03 0.20,-0.04 1.32,-1.81 1.32,-1.81 1.32,-1.81 2.54,1.85 2.54,1.85 2.54,1.85 0.06,0.05 0.15,0.03 0.20,-0.04 1.53,-2.10 1.53,-2.10 1.53,-2.10 0.05,-0.07 0.04,-0.16 -0.03,-0.20 -2.61,-1.91 -2.61,-1.91 -2.61,-1.91 -0.06,-0.05 -0.15,-0.03 -0.20,0.04 -1.32,1.81 -1.32,1.81 -1.32,1.81 z M 320.39,7.03 c 0.17,0.09 0.36,0.11 0.41,-0.10 0.05,-0.21 0.28,-0.68 0.62,-0.34 0.28,0.28 2.09,1.78 3.03,4.95 0.16,0.42 0.55,0.46 0.64,-0.14 0.22,-1.47 0.34,-4.02 0.45,-4.79 0.16,-1.09 0.68,-3.32 2.06,-2.16 0.31,0.26 0.64,0.61 0.64,0.61 0.29,0.37 0.66,0.79 0.84,0.36 0.27,-0.64 0.49,-1.70 0.19,-2.28 -0.13,-0.25 -1.84,-2.41 -3.00,-0.93 -1.44,1.83 -1.53,4.23 -1.72,6.91 -0.20,-0.56 -1.35,-4.15 -5.02,-6.21 -0.27,-0.15 -0.81,0.13 -0.86,0.98 -0.03,0.49 -0.17,1.69 0.18,2.03 0.35,0.34 1.37,1.00 1.54,1.10 z M 297.20,12.30 c 0.25,-0.16 13.84,-8.02 14.32,-8.31 0.46,-0.29 0.72,-0.41 0.91,-0.85 0.18,-0.44 0.23,-0.52 0.33,-0.82 0.10,-0.32 0.21,-0.67 -0.61,-0.19 -0.53,0.31 -14.04,8.11 -14.59,8.46 -0.55,0.35 -0.74,0.44 -0.83,0.87 -0.09,0.42 -0.13,0.67 -0.16,0.73 -0.10,0.28 -0.17,0.63 0.64,0.10 z M 341.00,14.30 c 0.18,-0.50 -0.04,-0.77 -0.29,-0.16 -0.25,0.61 -1.30,2.73 -1.14,5.22 0.04,0.58 0.42,1.70 1.29,1.73 0.45,0.00 1.03,-0.33 1.44,-1.73 0.07,-0.32 0.12,-0.57 0.15,-0.70 0.04,-0.19 -0.10,-0.42 -0.24,0.02 -0.33,0.86 -1.18,1.47 -1.82,0.31 -0.10,-0.23 -0.53,-1.28 0.26,-3.57 0.16,-0.44 0.36,-1.11 0.36,-1.11 z M 338.41,2.95 c 1.42,-2.20 2.64,-1.09 2.85,-0.74 1.24,2.07 0.56,4.14 0.56,4.14 0.65,0.41 1.32,1.21 0.84,2.54 -0.13,0.36 -0.28,0.11 -0.56,-0.23 -0.19,-0.24 -0.54,-0.66 -1.03,-0.91 -0.58,1.19 -0.52,1.34 -2.82,3.30 -5.00,4.29 -10.48,5.82 -10.76,5.90 -0.32,0.09 -0.39,-0.14 0.12,-0.53 1.71,-1.33 8.89,-4.52 12.55,-9.01 0.00,0.00 -1.15,-0.46 -1.93,-1.04 -0.79,-0.57 -0.38,-2.58 0.17,-3.42 z M 250.64,23.92 c -0.15,0.54 -0.22,0.83 -0.26,0.94 -0.13,0.37 -0.30,0.74 0.82,0.19 0.35,-0.17 26.93,-12.50 27.53,-12.85 0.61,-0.35 0.97,-0.47 1.24,-1.02 0.27,-0.55 0.34,-0.65 0.49,-1.04 0.16,-0.41 0.35,-0.79 -0.78,-0.29 -0.75,0.33 -27.13,12.66 -27.90,13.02 -0.77,0.36 -1.00,0.51 -1.14,1.05 z M 314.89,20.27 c 0.48,0.00 1.11,-0.35 1.55,-1.87 0.08,-0.34 0.13,-0.62 0.16,-0.75 0.05,-0.21 -0.10,-0.45 -0.26,0.02 -0.35,0.93 -1.27,1.58 -1.96,0.33 -0.11,-0.25 -0.58,-1.38 0.28,-3.86 0.17,-0.48 0.39,-1.20 0.39,-1.20 0.19,-0.54 -0.04,-0.84 -0.31,-0.17 -0.27,0.66 -1.40,2.94 -1.23,5.63 0.04,0.62 0.45,1.83 1.39,1.87 z M 243.11,6.84 c 0.17,0.10 0.35,0.11 0.40,-0.10 0.05,-0.21 0.28,-0.68 0.60,-0.34 0.27,0.28 2.02,1.78 2.93,4.95 0.16,0.42 0.53,0.46 0.62,-0.14 0.21,-1.47 0.32,-4.02 0.43,-4.79 0.16,-1.09 0.66,-3.33 1.99,-2.16 0.30,0.26 0.62,0.61 0.62,0.61 0.28,0.37 0.64,0.79 0.81,0.36 0.26,-0.64 0.47,-1.70 0.18,-2.28 -0.13,-0.26 -1.78,-2.41 -2.90,-0.94 -1.39,1.83 -1.48,4.23 -1.66,6.91 -0.20,-0.56 -1.31,-4.16 -4.86,-6.21 -0.26,-0.15 -0.78,0.13 -0.83,0.98 -0.03,0.49 -0.17,1.69 0.17,2.03 0.34,0.34 1.33,1.01 1.49,1.10 z M 270.08,39.57 c 0.83,-0.02 3.04,-0.59 4.16,-2.87 1.11,0.97 2.79,2.90 5.13,1.24 0.86,-0.66 3.04,-2.90 0.83,-7.28 -0.28,-0.51 -0.33,-0.16 -0.46,0.02 -0.13,0.18 -0.79,2.16 -0.79,2.16 0.26,0.66 1.12,2.56 0.58,2.74 -0.54,0.18 -2.89,0.31 -4.03,-1.67 0.21,-0.45 0.47,-1.14 0.64,-1.63 0.23,-0.64 -0.11,-1.24 -0.53,-0.45 -1.34,4.06 -6.55,7.11 -7.87,2.51 0.35,-0.84 0.69,-1.95 -0.36,-1.27 -1.06,0.68 -6.67,4.73 -12.47,4.47 -1.63,-0.07 -6.19,-0.41 -6.99,-3.61 0.11,-0.40 -0.13,-1.47 -0.84,-0.42 -0.71,1.05 -2.12,4.74 -6.19,4.19 -0.94,-0.13 -3.34,-0.92 -4.03,-7.22 -0.15,-1.22 -1.30,-21.96 -1.80,-23.91 -0.10,-0.40 -1.46,1.40 -1.46,1.87 0.00,0.46 0.99,9.34 1.29,14.26 0.11,1.78 0.63,11.19 1.15,13.00 0.53,1.82 1.53,5.74 6.47,4.88 2.47,-0.42 4.11,-3.68 4.11,-3.68 0.00,0.00 0.97,2.56 4.37,3.30 0.56,0.12 2.36,0.27 3.83,0.19 2.20,-0.14 6.05,-0.88 11.40,-4.10 0.18,0.44 0.72,3.38 3.87,3.28 z M 275.69,39.64 c -0.24,0.68 -0.34,1.12 -0.32,1.38 0.03,0.26 0.12,1.10 0.12,1.10 -0.25,0.20 -1.33,0.87 -2.40,0.08 0.07,-0.23 0.21,-0.70 0.24,-0.95 0.12,-0.40 -0.13,-0.69 -0.32,-0.28 -0.20,0.41 -0.65,1.79 -0.99,2.10 -0.34,0.31 -0.73,1.45 -3.30,0.29 -0.45,-0.17 -1.23,-0.75 -2.46,0.48 -2.77,2.57 -4.68,2.78 -7.79,3.88 -0.38,0.17 -1.16,0.77 -0.23,0.67 0.94,-0.09 4.87,0.00 7.01,-2.46 0.45,-0.43 0.96,-1.58 2.66,-0.92 0.94,0.36 2.68,1.85 4.58,-1.10 1.12,0.75 2.82,0.45 3.09,-0.38 0.27,-0.82 0.58,-1.64 0.58,-2.20 0.00,-0.56 -0.05,-1.30 -0.05,-1.30 -0.04,-0.44 -0.19,-1.07 -0.44,-0.40 z M 347.68,30.98 c -0.18,0.55 -0.84,2.96 -4.26,2.29 -0.89,-0.18 -2.62,-0.54 -3.34,-2.43 -0.84,1.07 -2.83,4.38 -6.78,3.78 -0.84,-0.15 -3.59,-1.18 -3.72,-4.63 0.00,0.00 -3.22,2.59 -4.71,3.40 0.13,1.24 0.05,2.66 -0.54,4.22 -0.59,1.58 -7.54,9.44 -13.23,10.68 -1.90,0.42 -9.13,1.76 -9.43,-6.33 -0.06,-1.67 0.05,-2.99 0.18,-3.89 -4.43,3.48 -9.86,6.14 -11.41,6.89 -2.35,1.13 -10.61,2.51 -12.09,2.77 -0.99,0.17 -1.14,-0.09 -0.56,-0.43 0.59,-0.34 18.97,-6.52 28.50,-16.58 0.27,-0.34 0.22,-0.71 -0.06,-1.22 -0.27,-0.51 -3.24,-6.22 -3.53,-6.98 -0.29,-0.76 -0.69,-1.69 -0.84,-1.96 -0.15,-0.27 -0.16,-0.58 -0.10,-0.90 0.06,-0.31 0.32,-1.84 0.42,-2.20 0.10,-0.36 0.27,-0.18 0.45,0.06 0.18,0.24 3.19,3.24 3.54,3.65 0.35,0.40 0.08,0.54 -0.06,0.54 -0.14,0.00 -1.57,-0.04 -1.57,-0.04 0.00,0.00 1.95,3.39 2.56,4.60 1.18,2.75 0.53,4.94 0.15,5.91 -0.93,1.76 -2.52,3.47 -4.38,5.04 -0.34,1.42 -0.91,8.07 5.26,8.24 0.97,0.03 4.12,0.44 10.41,-4.69 1.47,-1.20 3.09,-2.61 4.50,-4.58 0.57,-0.80 0.90,-2.14 -0.11,-2.02 -1.02,0.12 -7.50,2.53 -8.46,-1.44 -0.19,-1.00 0.33,-10.33 6.67,-5.71 0.56,0.41 1.90,1.54 2.82,3.34 1.07,-0.48 3.06,-1.64 5.52,-3.62 0.72,-0.58 1.36,-0.90 1.34,-0.03 -0.02,0.88 -0.53,6.24 5.34,4.64 0.65,-0.18 3.12,-0.68 4.88,-5.30 0.52,-1.04 1.21,-0.92 0.84,0.00 -0.46,1.16 -1.08,2.13 -0.51,2.68 0.57,0.55 2.23,1.74 4.30,1.48 0.73,-0.09 1.11,-0.41 0.86,-1.01 -0.25,-0.59 -0.97,-1.75 -0.97,-1.75 0.17,-0.75 0.45,-1.95 0.53,-2.27 0.09,-0.32 0.21,-0.58 0.46,-0.31 0.25,0.28 2.18,2.76 1.11,6.08 z M 316.37,30.35 c -0.28,0.30 -0.45,1.09 1.57,1.22 2.41,0.16 3.28,-0.33 3.28,-0.33 -2.07,-2.78 -4.55,-1.22 -4.85,-0.89 z M 343.37,37.21 c -0.24,0.68 -0.34,1.12 -0.31,1.38 0.03,0.26 0.11,1.10 0.11,1.10 -0.25,0.20 -1.33,0.87 -2.40,0.08 0.07,-0.23 0.21,-0.70 0.24,-0.95 0.12,-0.40 -0.13,-0.69 -0.32,-0.28 -0.20,0.41 -0.65,1.79 -0.99,2.10 -0.34,0.31 -0.73,1.45 -3.30,0.29 -0.45,-0.17 -1.23,-0.75 -2.46,0.48 -2.77,2.57 -4.68,2.77 -7.79,3.88 -0.38,0.17 -1.16,0.76 -0.23,0.67 0.94,-0.09 4.87,0.00 7.01,-2.46 0.45,-0.43 0.96,-1.58 2.66,-0.92 0.94,0.36 2.68,1.85 4.58,-1.10 1.12,0.75 2.82,0.45 3.09,-0.38 0.27,-0.82 0.58,-1.64 0.58,-2.20 0.00,-0.56 -0.05,-1.30 -0.05,-1.30 -0.04,-0.44 -0.19,-1.07 -0.44,-0.40 z M 261.70,22.66 c 0.20,-0.62 -0.10,-0.93 -0.39,-0.17 -0.29,0.76 -1.53,3.38 -1.15,6.36 0.09,0.69 0.67,2.01 1.82,1.98 0.59,-0.04 1.33,-0.47 1.78,-2.19 0.07,-0.39 0.11,-0.70 0.14,-0.85 0.05,-0.23 -0.15,-0.49 -0.32,0.04 -0.37,1.06 -1.46,1.85 -2.38,0.51 -0.15,-0.27 -0.79,-1.50 0.09,-4.31 0.18,-0.55 0.40,-1.36 0.40,-1.36 z M 276.41,16.78 c 0.24,-0.72 -0.12,-1.09 -0.46,-0.20 -0.34,0.89 -1.80,3.97 -1.35,7.48 0.10,0.81 0.79,2.36 2.13,2.33 0.70,-0.04 1.57,-0.55 2.09,-2.58 0.08,-0.46 0.13,-0.82 0.17,-1.00 0.05,-0.27 -0.18,-0.58 -0.38,0.05 -0.44,1.25 -1.71,2.18 -2.79,0.60 -0.18,-0.32 -0.93,-1.76 0.11,-5.07 0.21,-0.64 0.47,-1.60 0.47,-1.60 z M 239.87,24.36 c 0.62,0.12 0.96,0.50 1.11,0.71 0.06,0.09 0.17,0.03 0.20,-0.03 0.76,-1.36 0.15,-2.26 -1.03,-2.65 -0.47,-0.16 -0.66,-0.82 1.14,-1.89 1.66,-0.98 33.17,-15.20 33.54,-15.44 0.50,-0.32 0.80,-0.44 1.01,-0.92 0.21,-0.48 0.26,-0.56 0.37,-0.90 0.12,-0.36 0.24,-0.73 -0.67,-0.21 -0.48,0.27 -33.59,15.09 -34.98,16.13 -0.70,0.52 -1.29,1.37 -1.53,2.31 -0.34,1.35 -0.05,2.72 0.84,2.89 z M 231.16,25.15 c -0.37,1.22 -1.46,2.12 -2.41,0.56 -0.16,-0.31 -0.81,-1.73 0.06,-4.95 0.18,-0.63 0.39,-1.56 0.39,-1.56 0.20,-0.71 -0.11,-1.07 -0.40,-0.20 -0.29,0.87 -1.52,3.87 -1.12,7.30 0.09,0.79 0.69,2.31 1.85,2.29 0.60,-0.04 1.35,-0.53 1.79,-2.51 0.07,-0.45 0.11,-0.80 0.14,-0.98 0.04,-0.27 -0.16,-0.57 -0.32,0.05 z M 237.52,44.08 c 0.17,-0.28 0.52,-0.94 -0.06,-0.62 -0.57,0.32 -2.11,0.79 -2.80,0.65 -0.68,-0.13 -1.49,-0.72 -1.67,-1.00 -0.18,-0.28 -0.15,-0.60 0.39,-0.91 0.54,-0.31 1.13,-0.53 1.55,0.17 0.08,0.12 0.17,0.11 0.34,-0.06 0.18,-0.18 0.53,-0.67 0.62,-0.81 0.09,-0.14 0.17,-0.38 0.02,-0.55 -0.15,-0.17 -0.74,-0.99 -1.71,-0.25 -0.96,0.75 -3.19,2.91 -2.19,3.92 0.58,0.47 0.84,0.70 0.84,0.70 -0.27,0.10 -0.50,0.36 -0.67,0.69 -0.16,0.33 -0.19,0.40 -0.27,0.59 -0.08,0.19 -0.13,0.44 0.33,0.18 0.46,-0.26 1.55,-1.30 4.50,-1.95 0.41,-0.09 0.77,-0.76 0.77,-0.76 z M 230.70,49.97 c 0.17,-0.10 6.25,-2.55 6.55,-2.73 0.31,-0.18 0.49,-0.24 0.62,-0.52 0.14,-0.28 0.17,-0.33 0.25,-0.52 0.08,-0.21 0.16,-0.43 -0.39,-0.15 -0.36,0.18 -6.37,2.61 -6.74,2.82 -0.37,0.21 -0.50,0.26 -0.57,0.53 -0.07,0.27 -0.11,0.43 -0.13,0.47 -0.08,0.18 -0.14,0.40 0.41,0.09 z M 230.27,52.44 c 0.17,-0.10 6.25,-2.55 6.55,-2.73 0.31,-0.18 0.49,-0.24 0.62,-0.52 0.14,-0.28 0.17,-0.33 0.25,-0.52 0.08,-0.21 0.16,-0.43 -0.39,-0.15 -0.36,0.18 -6.37,2.61 -6.74,2.82 -0.37,0.21 -0.50,0.26 -0.57,0.53 -0.07,0.27 -0.11,0.43 -0.13,0.47 -0.08,0.18 -0.14,0.41 0.41,0.09 z" />
     </g>
</svg>
