<?xml version="1.0" encoding="UTF-8"?>
<svg version="1.1" id="Layer_1" x="0px" y="0px" width="578" height="51" viewBox="0 0 578 51"
xml:space="preserve" xmlns="http://www.w3.org/2000/svg" xmlns:svg="http://www.w3.org/2000/svg" xmlns:rdf="http://www.w3.org/1999/02/22-rdf-syntax-ns#"  xmlns:cc="http://creativecommons.org/ns#" xmlns:dc="http://purl.org/dc/elements/1.1/">
     <g>
<path d="M 285.27,16.96 c -1.92,2.63 -1.92,2.63 -1.92,2.63 -0.06,0.08 -0.05,0.20 0.03,0.25 3.27,2.38 3.27,2.38 3.27,2.38 0.08,0.06 0.19,0.04 0.25,-0.05 1.91,-2.63 1.91,-2.63 1.91,-2.63 0.06,-0.08 0.05,-0.20 -0.03,-0.25 -3.27,-2.38 -3.27,-2.38 -3.27,-2.38 -0.08,-0.06 -0.19,-0.04 -0.25,0.05 z M 271.02,22.80 c 0.71,0.11 1.12,0.53 1.30,0.77 0.08,0.10 0.19,0.03 0.23,-0.04 0.81,-1.59 0.08,-2.59 -1.30,-2.99 -0.55,-0.16 -0.79,-0.91 1.23,-2.21 1.86,-1.19 20.25,-10.50 20.66,-10.79 0.56,-0.39 0.90,-0.54 1.11,-1.10 0.22,-0.56 0.27,-0.66 0.38,-1.04 0.12,-0.41 0.24,-0.85 -0.78,-0.21 -0.54,0.33 -20.72,10.39 -22.27,11.64 -0.78,0.63 -1.42,1.62 -1.65,2.70 -0.32,1.56 0.06,3.11 1.08,3.27 z M 224.87,14.08 c 0.64,-0.40 4.40,-2.06 4.85,-5.89 0.03,-0.50 -0.09,-0.87 -0.22,-1.11 0.05,0.01 0.11,0.04 0.17,0.10 0.28,0.26 2.07,1.60 3.10,4.57 0.17,0.39 0.55,0.41 0.61,-0.16 0.14,-1.40 0.14,-3.83 0.21,-4.57 0.11,-1.04 0.50,-3.19 1.86,-2.15 0.31,0.24 0.64,0.55 0.64,0.55 0.29,0.33 0.66,0.72 0.81,0.31 0.23,-0.62 0.39,-1.64 0.08,-2.17 -0.14,-0.24 -1.85,-2.21 -2.89,-0.75 -1.29,1.80 -1.27,4.09 -1.33,6.64 -0.22,-0.52 -1.47,-3.89 -5.05,-5.68 -0.26,-0.13 -0.76,0.16 -0.77,0.97 -0.01,0.47 -0.09,1.61 0.26,1.92 0.33,0.30 2.73,1.01 1.51,2.43 -0.54,0.63 -3.27,3.75 -3.86,4.50 -0.58,0.75 -0.64,0.88 0.01,0.49 z M 273.04,6.28 c 0.16,0.10 0.34,0.11 0.39,-0.10 0.05,-0.21 0.27,-0.68 0.59,-0.34 0.27,0.28 1.98,1.78 2.87,4.95 0.15,0.42 0.52,0.46 0.61,-0.14 0.21,-1.47 0.32,-4.02 0.43,-4.79 0.16,-1.09 0.65,-3.32 1.95,-2.16 0.30,0.26 0.61,0.61 0.61,0.61 0.28,0.37 0.62,0.79 0.79,0.36 0.26,-0.64 0.46,-1.70 0.18,-2.28 -0.12,-0.26 -1.74,-2.41 -2.84,-0.94 -1.36,1.83 -1.45,4.23 -1.63,6.91 -0.19,-0.56 -1.28,-4.16 -4.76,-6.21 -0.25,-0.15 -0.77,0.13 -0.81,0.98 -0.03,0.49 -0.16,1.69 0.17,2.03 0.33,0.34 1.30,1.01 1.46,1.10 z M 261.95,39.78 c -0.61,0.28 -10.19,4.82 -10.81,5.12 -0.59,0.28 -0.74,0.44 -0.83,0.86 -0.09,0.42 -0.13,0.67 -0.16,0.73 -0.10,0.28 -0.17,0.53 0.64,0.10 0.27,-0.14 10.05,-4.71 10.54,-4.97 0.48,-0.25 0.72,-0.41 0.91,-0.85 0.18,-0.44 0.23,-0.52 0.33,-0.82 0.11,-0.32 0.25,-0.58 -0.61,-0.19 z M 241.86,45.47 c 0.42,-0.18 0.63,-0.31 0.81,-0.67 0.18,-0.36 0.22,-0.42 0.32,-0.68 0.11,-0.27 0.23,-0.43 -0.51,-0.19 -0.50,0.16 -6.11,2.17 -6.66,2.39 -0.51,0.21 -0.65,0.33 -0.75,0.69 -0.10,0.35 -0.15,0.56 -0.17,0.61 -0.10,0.23 -0.22,0.43 0.53,0.12 0.37,-0.15 5.90,-2.05 6.42,-2.28 z M 242.58,46.84 c -0.49,0.16 -6.11,2.17 -6.66,2.39 -0.51,0.20 -0.65,0.33 -0.75,0.69 -0.10,0.35 -0.15,0.56 -0.17,0.61 -0.10,0.23 -0.22,0.43 0.53,0.12 0.37,-0.15 5.90,-2.05 6.42,-2.28 0.42,-0.18 0.63,-0.31 0.81,-0.67 0.18,-0.36 0.22,-0.42 0.32,-0.68 0.11,-0.27 0.23,-0.43 -0.51,-0.19 z M 240.31,21.83 c 0.50,-0.02 1.13,-0.42 1.52,-2.01 0.06,-0.36 0.10,-0.65 0.13,-0.79 0.04,-0.22 -0.13,-0.46 -0.27,0.03 -0.32,0.98 -1.25,1.70 -2.02,0.43 -0.13,-0.25 -0.66,-1.40 0.11,-4.01 0.16,-0.51 0.35,-1.26 0.35,-1.26 0.17,-0.57 -0.08,-0.86 -0.33,-0.17 -0.25,0.70 -1.32,3.11 -1.02,5.89 0.07,0.64 0.55,1.88 1.52,1.87 z M 234.12,25.22 c 0.17,-0.57 -0.08,-0.86 -0.33,-0.17 -0.25,0.70 -1.32,3.11 -1.02,5.89 0.07,0.64 0.55,1.88 1.52,1.87 0.50,-0.02 1.13,-0.41 1.52,-2.01 0.06,-0.36 0.10,-0.65 0.13,-0.79 0.04,-0.21 -0.13,-0.46 -0.27,0.03 -0.32,0.98 -1.25,1.70 -2.02,0.43 -0.13,-0.25 -0.66,-1.40 0.11,-4.01 0.16,-0.50 0.35,-1.26 0.35,-1.26 z M 276.02,27.33 c 0.18,-0.64 -0.10,-0.96 -0.37,-0.18 -0.27,0.78 -1.42,3.49 -1.04,6.59 0.09,0.71 0.64,2.09 1.71,2.06 0.56,-0.03 1.25,-0.48 1.66,-2.27 0.07,-0.40 0.10,-0.72 0.13,-0.88 0.04,-0.24 -0.15,-0.51 -0.30,0.04 -0.35,1.10 -1.36,1.91 -2.23,0.51 -0.14,-0.28 -0.75,-1.56 0.06,-4.47 0.17,-0.56 0.37,-1.41 0.37,-1.41 z M 255.78,15.83 c 0.76,-0.03 1.73,-0.73 2.34,-3.67 0.10,-0.66 0.16,-1.20 0.20,-1.46 0.06,-0.40 -0.19,-0.86 -0.41,0.05 -0.50,1.81 -1.91,3.10 -3.07,0.74 -0.19,-0.47 -0.99,-2.62 0.21,-7.42 0.24,-0.93 0.54,-2.32 0.54,-2.32 0.27,-1.05 -0.11,-1.60 -0.50,-0.32 -0.39,1.29 -2.04,5.72 -1.61,10.88 0.10,1.19 0.82,3.50 2.30,3.51 z M 262.40,30.39 c 0.26,-0.73 0.23,-1.22 -0.86,-2.54 -1.09,-1.32 -4.15,-3.22 -7.82,-1.98 -2.28,0.77 -4.59,2.97 -6.20,4.26 0.00,0.00 0.86,-4.46 0.13,-8.45 -0.26,-1.45 -2.44,-13.83 -2.44,-13.83 0.00,0.00 1.14,0.76 1.39,1.02 0.25,0.26 0.55,0.12 0.41,-0.30 -0.14,-0.42 -2.82,-6.90 -2.92,-7.16 -0.10,-0.27 -0.20,-0.46 -0.33,-0.15 -0.13,0.31 -1.15,2.55 -1.15,2.55 0.03,0.18 0.27,0.74 0.43,1.87 0.17,1.18 4.12,21.22 3.19,25.97 -0.02,0.12 -5.18,5.71 -5.81,6.07 -0.63,0.36 -5.41,2.84 -8.71,5.64 -1.48,1.26 -5.08,4.32 -8.05,3.80 -0.82,-0.15 -3.40,-1.02 -1.91,-6.04 0.44,-1.47 2.58,-5.34 3.40,-6.54 0.03,0.00 0.05,0.01 0.08,0.01 0.76,-0.05 1.71,-0.77 2.24,-3.73 0.08,-0.67 0.13,-1.20 0.17,-1.46 0.05,-0.40 -0.21,-0.85 -0.41,0.06 -0.46,1.82 -1.83,3.15 -3.05,0.82 -0.20,-0.47 -1.06,-2.60 0.02,-7.42 0.22,-0.94 0.48,-2.33 0.48,-2.33 0.24,-1.06 -0.15,-1.60 -0.51,-0.31 -0.35,1.29 -1.89,5.77 -1.33,10.92 0.10,0.88 0.55,2.36 1.38,3.06 -1.41,1.87 -7.31,10.40 -1.74,14.88 1.00,0.80 4.06,1.58 8.08,-1.78 1.33,-1.11 8.42,-6.83 12.84,-7.69 2.17,-0.42 12.42,-2.71 16.83,-5.25 1.32,-0.76 1.91,-3.23 2.18,-3.96 z M 243.38,36.75 c 0.85,-1.06 6.04,-6.72 9.92,-8.00 0.63,-0.21 3.25,-1.07 7.01,2.30 0.31,0.28 0.34,0.49 -0.39,0.89 -6.14,3.32 -16.54,4.81 -16.54,4.81 z M 292.86,36.89 c 0.41,-3.01 -0.29,-7.26 -3.10,-9.32 -0.65,-0.47 -2.68,-2.36 -5.18,0.53 -2.50,2.89 -1.61,6.04 0.87,6.73 1.18,0.35 3.60,0.08 4.17,0.04 0.57,-0.04 1.71,0.24 2.09,1.20 0.14,0.55 0.12,0.57 -1.34,1.40 -1.46,0.83 -7.36,4.15 -14.74,3.86 -1.91,-0.10 -7.40,0.06 -8.41,-7.36 -0.61,-4.11 -0.85,-10.49 -0.91,-11.30 -0.06,-0.81 -0.67,-15.16 -2.56,-21.22 -0.26,-0.83 -0.49,-0.49 -0.77,0.06 -0.28,0.55 -0.83,2.19 -0.83,2.19 0.30,1.44 2.36,11.79 2.46,17.92 0.03,1.48 0.56,10.73 0.69,12.04 0.13,1.32 0.00,10.53 9.97,10.76 1.45,0.07 6.48,0.65 14.88,-3.93 1.30,-0.71 2.35,-0.99 2.71,-3.60 z M 288.79,31.80 c -1.27,0.17 -1.94,0.13 -2.86,-0.02 -1.52,-0.23 -0.47,-1.48 0.23,-1.83 0.70,-0.35 2.48,-0.20 3.73,1.95 0.00,0.00 -0.59,-0.15 -1.10,-0.10 z M 330.79,7.23 c 0.17,0.10 0.36,0.11 0.41,-0.10 0.05,-0.21 0.29,-0.68 0.62,-0.34 0.28,0.28 2.09,1.78 3.03,4.95 0.16,0.42 0.55,0.46 0.64,-0.14 0.22,-1.47 0.34,-4.02 0.45,-4.79 0.16,-1.08 0.68,-3.32 2.06,-2.16 0.31,0.26 0.64,0.61 0.64,0.61 0.29,0.37 0.66,0.79 0.84,0.36 0.27,-0.64 0.49,-1.70 0.19,-2.28 -0.13,-0.26 -1.84,-2.41 -3.00,-0.94 -1.44,1.83 -1.53,4.23 -1.72,6.91 -0.20,-0.56 -1.35,-4.15 -5.02,-6.21 -0.27,-0.15 -0.81,0.13 -0.86,0.98 -0.03,0.49 -0.17,1.69 0.18,2.03 0.35,0.34 1.37,1.01 1.54,1.10 z M 351.39,14.50 c 0.18,-0.50 -0.04,-0.77 -0.29,-0.16 -0.25,0.61 -1.30,2.73 -1.14,5.22 0.04,0.58 0.42,1.70 1.29,1.73 0.45,0.00 1.03,-0.33 1.44,-1.74 0.07,-0.32 0.12,-0.57 0.15,-0.70 0.04,-0.19 -0.10,-0.42 -0.24,0.02 -0.33,0.86 -1.18,1.47 -1.82,0.31 -0.10,-0.23 -0.53,-1.28 0.26,-3.57 0.16,-0.44 0.36,-1.11 0.36,-1.11 z M 325.28,20.48 c 0.48,0.00 1.11,-0.35 1.55,-1.87 0.08,-0.34 0.12,-0.62 0.16,-0.75 0.05,-0.21 -0.10,-0.45 -0.26,0.02 -0.36,0.93 -1.28,1.58 -1.96,0.33 -0.11,-0.25 -0.58,-1.38 0.28,-3.86 0.17,-0.48 0.39,-1.20 0.39,-1.20 0.19,-0.54 -0.04,-0.84 -0.31,-0.17 -0.27,0.66 -1.40,2.94 -1.23,5.64 0.04,0.62 0.45,1.83 1.39,1.86 z M 348.63,6.58 c 0.79,0.58 1.94,1.04 1.94,1.04 -3.66,4.48 -10.84,7.67 -12.56,9.01 -0.51,0.39 -0.44,0.61 -0.12,0.53 0.28,-0.08 5.76,-1.61 10.76,-5.90 2.29,-1.97 2.23,-2.11 2.81,-3.31 0.50,0.26 0.84,0.67 1.03,0.91 0.28,0.34 0.43,0.60 0.56,0.23 0.48,-1.33 -0.20,-2.13 -0.84,-2.54 0.00,0.00 0.67,-2.07 -0.56,-4.14 -0.21,-0.35 -1.43,-1.46 -2.85,0.74 -0.55,0.84 -0.96,2.85 -0.17,3.42 z M 349.36,4.54 c 0.73,-1.02 1.08,-0.99 1.36,-0.82 0.82,0.77 0.70,2.02 0.67,2.31 0.00,0.00 -1.05,-0.49 -1.52,-0.69 -0.47,-0.20 -0.72,-0.50 -0.50,-0.80 z M 298.49,14.37 c -0.06,-0.05 -0.15,-0.03 -0.20,0.04 -1.53,2.10 -1.53,2.10 -1.53,2.10 -0.05,0.07 -0.04,0.16 0.03,0.21 2.61,1.91 2.61,1.91 2.61,1.91 0.06,0.05 0.15,0.03 0.20,-0.04 1.32,-1.81 1.32,-1.81 1.32,-1.81 2.54,1.85 2.54,1.85 2.54,1.85 0.06,0.05 0.15,0.03 0.20,-0.04 1.53,-2.10 1.53,-2.10 1.53,-2.10 0.05,-0.07 0.04,-0.16 -0.03,-0.21 -2.61,-1.91 -2.61,-1.91 -2.61,-1.91 -0.06,-0.05 -0.15,-0.03 -0.20,0.04 -1.32,1.81 -1.32,1.81 -1.32,1.81 z M 307.59,12.51 c 0.25,-0.16 13.84,-8.02 14.32,-8.31 0.46,-0.29 0.72,-0.41 0.90,-0.85 0.18,-0.44 0.23,-0.52 0.33,-0.82 0.10,-0.32 0.21,-0.67 -0.61,-0.19 -0.53,0.31 -14.04,8.11 -14.59,8.46 -0.55,0.35 -0.74,0.44 -0.83,0.87 -0.09,0.42 -0.13,0.67 -0.16,0.73 -0.10,0.28 -0.17,0.63 0.64,0.10 z M 297.40,5.82 c 0.79,0.58 1.94,1.04 1.94,1.04 -3.66,4.49 -6.16,5.34 -8.30,6.60 -0.55,0.32 -0.44,0.61 -0.12,0.53 0.17,-0.04 3.05,-0.49 6.41,-3.05 1.82,-1.38 2.92,-3.74 2.92,-3.74 0.00,0.00 0.91,0.76 1.03,0.91 0.28,0.34 0.43,0.60 0.56,0.23 0.48,-1.33 -0.20,-2.13 -0.84,-2.54 0.00,0.00 0.67,-2.07 -0.56,-4.14 -0.21,-0.35 -1.43,-1.46 -2.85,0.74 -0.55,0.84 -0.96,2.85 -0.17,3.42 z M 298.13,3.79 c 0.73,-1.02 1.08,-0.99 1.36,-0.82 0.82,0.77 0.70,2.02 0.67,2.31 0.00,0.00 -1.05,-0.49 -1.52,-0.69 -0.47,-0.20 -0.72,-0.50 -0.50,-0.80 z M 353.77,37.41 c -0.24,0.68 -0.34,1.12 -0.31,1.38 0.03,0.26 0.12,1.10 0.12,1.10 -0.25,0.20 -1.33,0.87 -2.40,0.08 0.07,-0.23 0.21,-0.70 0.24,-0.95 0.12,-0.40 -0.13,-0.69 -0.32,-0.28 -0.20,0.41 -0.65,1.79 -0.99,2.10 -0.34,0.31 -0.74,1.45 -3.30,0.29 -0.45,-0.17 -1.23,-0.75 -2.46,0.48 -2.77,2.57 -4.68,2.78 -7.79,3.88 -0.38,0.17 -1.16,0.77 -0.23,0.67 0.94,-0.09 4.87,0.00 7.01,-2.46 0.45,-0.43 0.96,-1.58 2.66,-0.92 0.94,0.36 2.68,1.85 4.58,-1.10 1.12,0.75 2.82,0.45 3.09,-0.38 0.27,-0.82 0.58,-1.64 0.58,-2.20 0.00,-0.56 -0.05,-1.30 -0.05,-1.30 -0.04,-0.44 -0.19,-1.07 -0.44,-0.40 z M 356.97,25.10 c -0.25,-0.28 -0.37,-0.01 -0.46,0.31 -0.09,0.32 -0.36,1.52 -0.54,2.27 0.00,0.00 0.71,1.16 0.97,1.76 0.25,0.59 -0.12,0.92 -0.86,1.01 -2.08,0.25 -3.73,-0.94 -4.30,-1.48 -0.57,-0.55 0.05,-1.52 0.51,-2.68 0.37,-0.93 -0.32,-1.04 -0.84,0.00 -1.76,4.63 -4.23,5.13 -4.88,5.30 -5.86,1.60 -5.36,-3.76 -5.33,-4.64 0.02,-0.88 -0.62,-0.55 -1.34,0.03 -2.47,1.98 -4.45,3.14 -5.52,3.62 -0.92,-1.80 -2.26,-2.93 -2.82,-3.33 -6.34,-4.63 -6.87,4.71 -6.67,5.71 0.97,3.97 7.45,1.56 8.46,1.44 1.02,-0.12 0.68,1.22 0.11,2.02 -1.41,1.96 -3.03,3.38 -4.50,4.57 -6.28,5.13 -9.43,4.72 -10.41,4.69 -6.17,-0.17 -5.60,-6.82 -5.26,-8.24 1.86,-1.57 3.45,-3.28 4.38,-5.04 0.38,-0.96 1.03,-3.16 -0.15,-5.91 -0.62,-1.21 -2.56,-4.60 -2.56,-4.60 0.00,0.00 1.43,0.04 1.57,0.04 0.14,0.00 0.41,-0.14 0.06,-0.54 -0.35,-0.40 -3.36,-3.40 -3.54,-3.65 -0.18,-0.24 -0.35,-0.42 -0.45,-0.06 -0.10,0.36 -0.36,1.88 -0.42,2.20 -0.06,0.31 -0.06,0.63 0.10,0.90 0.16,0.27 0.55,1.20 0.84,1.96 0.29,0.76 3.25,6.47 3.53,6.98 0.27,0.51 0.33,0.88 0.06,1.22 -9.53,10.05 -27.91,16.23 -28.50,16.57 -0.59,0.34 -0.43,0.61 0.56,0.43 1.48,-0.26 9.74,-1.64 12.09,-2.77 1.55,-0.75 6.97,-3.41 11.41,-6.89 -0.12,0.90 -0.24,2.22 -0.17,3.89 0.30,8.08 7.53,6.74 9.43,6.33 5.68,-1.25 12.64,-9.11 13.23,-10.69 0.58,-1.56 0.67,-2.98 0.54,-4.22 1.50,-0.81 4.71,-3.40 4.71,-3.40 0.13,3.45 2.87,4.48 3.72,4.63 3.96,0.60 5.94,-2.70 6.78,-3.78 0.72,1.89 2.45,2.26 3.34,2.43 3.41,0.68 4.08,-1.73 4.25,-2.29 1.07,-3.33 -0.86,-5.81 -1.11,-6.08 z M 328.34,31.78 c -2.02,-0.14 -1.85,-0.92 -1.57,-1.22 0.30,-0.33 2.78,-1.89 4.85,0.89 0.00,0.00 -0.86,0.50 -3.28,0.33 z M 297.87,24.11 c 0.00,0.00 1.25,-0.31 1.47,-0.38 0.22,-0.06 0.34,-0.35 -0.05,-0.55 -0.39,-0.20 -4.09,-1.67 -4.37,-1.79 -0.28,-0.11 -0.38,-0.24 -0.41,0.06 -0.02,0.30 -0.07,2.73 -0.07,2.73 0.00,0.00 -0.06,0.17 0.27,0.35 0.32,0.18 0.64,0.58 0.90,0.84 0.26,0.26 3.70,2.98 3.87,3.07 0.00,0.00 -1.72,3.02 -1.94,5.38 -0.22,2.36 0.04,5.63 3.27,4.58 0.87,-0.25 4.49,-1.69 5.30,-4.21 0.26,-0.93 1.01,-2.61 -0.21,-4.31 -0.70,-1.00 -3.53,-2.69 -3.53,-2.69 0.00,0.00 2.17,-3.00 2.38,-3.37 0.21,-0.37 1.00,-2.69 1.09,-3.25 0.09,-0.56 0.13,-0.84 -0.29,-0.32 -0.42,0.52 -4.63,6.05 -4.63,6.05 z M 304.82,33.00 c -1.20,0.99 -3.72,2.29 -4.43,2.36 -0.71,0.07 -2.59,-0.28 -1.77,-2.20 0.28,-0.62 2.16,-3.84 2.16,-3.84 0.70,0.39 5.24,2.70 4.04,3.69 z" />
     </g>
</svg>
