<?xml version="1.0" encoding="UTF-8"?>
<svg version="1.1" id="Layer_1" x="0px" y="0px" width="578" height="50" viewBox="0 0 578 50"
xml:space="preserve" xmlns="http://www.w3.org/2000/svg" xmlns:svg="http://www.w3.org/2000/svg" xmlns:rdf="http://www.w3.org/1999/02/22-rdf-syntax-ns#"  xmlns:cc="http://creativecommons.org/ns#" xmlns:dc="http://purl.org/dc/elements/1.1/">
     <g>
<path d="M 236.50,13.22 c 0.66,-0.37 4.49,-1.86 5.12,-5.65 0.05,-0.50 -0.05,-0.87 -0.17,-1.12 0.05,0.01 0.11,0.05 0.17,0.11 0.27,0.27 1.99,1.69 2.88,4.71 0.16,0.40 0.53,0.44 0.61,-0.13 0.21,-1.40 0.32,-3.82 0.43,-4.56 0.16,-1.03 0.65,-3.16 1.96,-2.06 0.30,0.25 0.61,0.58 0.61,0.58 0.28,0.35 0.63,0.75 0.80,0.35 0.26,-0.61 0.46,-1.62 0.18,-2.17 -0.12,-0.24 -1.75,-2.29 -2.85,-0.89 -1.37,1.74 -1.46,4.03 -1.64,6.58 -0.19,-0.53 -1.29,-3.95 -4.78,-5.91 -0.25,-0.14 -0.77,0.13 -0.82,0.93 -0.03,0.47 -0.16,1.61 0.17,1.93 0.32,0.31 2.68,1.14 1.40,2.49 -0.57,0.61 -3.45,3.59 -4.06,4.31 -0.62,0.72 -0.68,0.85 -0.01,0.49 z M 278.16,41.49 c 0.06,0.05 0.15,0.03 0.20,-0.04 1.53,-2.10 1.53,-2.10 1.53,-2.10 0.05,-0.07 0.04,-0.16 -0.03,-0.20 -2.61,-1.91 -2.61,-1.91 -2.61,-1.91 -0.06,-0.05 -0.15,-0.03 -0.20,0.04 -1.32,1.81 -1.32,1.81 -1.32,1.81 -2.54,-1.85 -2.54,-1.85 -2.54,-1.85 -0.06,-0.05 -0.15,-0.03 -0.20,0.04 -1.53,2.10 -1.53,2.10 -1.53,2.10 -0.05,0.07 -0.04,0.16 0.03,0.21 2.61,1.91 2.61,1.91 2.61,1.91 0.06,0.05 0.15,0.03 0.20,-0.04 1.32,-1.81 1.32,-1.81 1.32,-1.81 z M 264.66,14.40 c -1.12,1.61 -1.08,3.64 -1.11,5.90 -0.20,-0.46 -1.34,-3.43 -4.53,-4.99 -0.23,-0.11 -0.67,0.15 -0.68,0.87 0.00,0.42 -0.06,1.43 0.25,1.70 0.31,0.27 1.20,0.78 1.35,0.85 0.15,0.07 0.31,0.07 0.34,-0.10 0.03,-0.17 0.21,-0.59 0.51,-0.32 0.25,0.23 1.84,1.40 2.79,4.02 0.16,0.35 0.49,0.36 0.53,-0.15 0.11,-1.25 0.09,-3.40 0.15,-4.05 0.09,-0.92 0.41,-2.83 1.63,-1.92 0.28,0.21 0.57,0.49 0.57,0.49 0.26,0.30 0.59,0.63 0.72,0.26 0.20,-0.55 0.33,-1.46 0.05,-1.93 -0.12,-0.21 -1.66,-1.94 -2.57,-0.64 z M 246.15,15.22 c 0.21,-0.59 -0.04,-0.91 -0.34,-0.19 -0.29,0.72 -1.52,3.19 -1.34,6.11 0.04,0.68 0.49,1.99 1.51,2.02 0.53,0.00 1.20,-0.38 1.69,-2.03 0.08,-0.37 0.14,-0.67 0.17,-0.82 0.05,-0.22 -0.11,-0.49 -0.28,0.02 -0.38,1.01 -1.38,1.72 -2.13,0.36 -0.12,-0.27 -0.63,-1.50 0.30,-4.18 0.19,-0.52 0.42,-1.30 0.42,-1.30 z M 266.38,41.86 c -0.35,1.10 -1.37,1.91 -2.26,0.51 -0.15,-0.28 -0.76,-1.56 0.07,-4.47 0.17,-0.57 0.37,-1.41 0.37,-1.41 0.19,-0.64 -0.10,-0.96 -0.37,-0.18 -0.27,0.78 -1.44,3.49 -1.06,6.59 0.09,0.72 0.65,2.09 1.73,2.06 0.56,-0.03 1.27,-0.48 1.68,-2.27 0.07,-0.40 0.11,-0.72 0.13,-0.88 0.04,-0.24 -0.15,-0.51 -0.30,0.04 z M 246.79,34.38 c -0.15,-0.40 -0.76,-2.22 0.45,-6.16 0.24,-0.77 0.55,-1.91 0.55,-1.91 0.27,-0.86 -0.04,-1.34 -0.42,-0.28 -0.38,1.06 -1.97,4.69 -1.78,9.00 0.04,0.99 0.59,2.94 1.86,3.00 0.66,0.00 1.52,-0.55 2.15,-2.97 0.11,-0.55 0.18,-0.99 0.23,-1.20 0.07,-0.33 -0.13,-0.72 -0.36,0.03 -0.50,1.49 -1.77,2.51 -2.68,0.51 z M 254.32,8.72 c 0.71,0.63 1.02,1.88 1.06,2.24 0.04,0.37 0.20,0.35 0.33,0.12 0.12,-0.23 0.22,-1.02 0.29,-1.98 8.61,0.55 14.99,-4.15 15.36,-4.39 0.63,-0.41 0.41,0.26 0.35,0.94 -0.06,0.67 -0.29,2.00 -0.33,2.47 -0.04,0.47 0.20,0.18 0.33,-0.26 0.12,-0.45 0.61,-2.20 0.82,-4.02 0.20,-1.82 -1.20,-0.98 -1.78,-0.65 -9.04,5.63 -15.77,3.53 -16.13,3.37 -0.37,-0.16 -0.75,-0.29 -0.65,0.18 0.10,0.47 0.14,1.73 0.37,1.98 z M 276.52,32.11 c 0.66,-0.25 2.92,-2.38 1.83,-6.59 -0.23,-0.89 -2.08,-5.67 -2.08,-5.67 0.00,0.00 0.96,0.38 1.16,0.45 0.20,0.07 0.72,0.13 0.40,-0.45 -0.33,-0.58 -3.04,-4.06 -3.26,-4.35 -0.22,-0.29 -0.27,-0.36 -0.40,-0.02 -0.13,0.34 -0.52,2.19 -0.58,2.37 -0.05,0.18 0.66,2.57 0.80,2.99 0.25,0.78 2.64,6.74 2.79,7.19 0.14,0.45 0.49,1.61 -0.85,1.65 -1.34,0.04 -3.59,-0.43 -4.62,-2.18 0.00,0.00 0.08,-0.43 0.22,-0.77 0.18,-0.44 -0.09,-0.94 -0.40,-0.36 -0.31,0.58 -1.59,4.06 -3.59,4.31 -0.51,0.07 -2.04,0.23 -2.33,-1.98 0.00,0.00 0.21,-0.74 0.39,-1.16 0.18,-0.42 0.02,-0.85 -0.42,-0.34 -0.43,0.51 -3.47,4.32 -7.80,3.04 0.00,0.00 -1.23,-2.77 -1.43,-3.17 -0.20,-0.40 -0.57,-0.19 -0.62,0.13 -0.05,0.33 -0.43,2.54 -0.43,2.54 0.00,0.00 2.25,4.65 2.41,5.43 0.16,0.78 0.71,2.13 -1.92,3.97 -0.81,0.56 -7.38,5.71 -13.81,5.50 -1.58,-0.05 -10.61,-0.66 -6.46,-12.31 0.65,-0.33 1.37,-1.32 1.93,-3.76 0.13,-0.72 0.21,-1.29 0.26,-1.58 0.08,-0.43 -0.15,-0.94 -0.41,0.04 -0.58,1.95 -2.04,3.29 -3.10,0.67 -0.17,-0.52 -0.88,-2.90 0.52,-8.06 0.28,-1.00 0.64,-2.50 0.64,-2.50 0.31,-1.13 -0.04,-1.75 -0.48,-0.37 -0.44,1.38 -2.28,6.14 -2.07,11.77 0.05,1.21 0.59,3.48 1.84,3.87 -0.02,0.06 -0.04,0.11 -0.06,0.18 -0.53,1.65 -4.94,13.53 5.68,14.95 1.68,0.23 11.77,-0.44 17.49,-7.59 0.73,-0.91 1.29,-1.59 1.31,-3.62 0.02,-1.05 -0.26,-2.53 -0.26,-2.53 0.85,-0.05 3.11,-0.08 5.61,-2.49 0.00,0.23 0.14,2.27 2.75,2.34 0.56,0.02 2.26,-0.16 3.62,-3.17 0.24,0.20 1.88,3.07 5.74,1.63 z M 318.05,7.03 c 0.17,0.09 0.36,0.11 0.41,-0.10 0.05,-0.21 0.29,-0.68 0.62,-0.34 0.28,0.28 2.09,1.78 3.03,4.95 0.16,0.42 0.55,0.46 0.64,-0.14 0.22,-1.47 0.34,-4.02 0.45,-4.79 0.16,-1.09 0.68,-3.33 2.06,-2.16 0.31,0.26 0.64,0.61 0.64,0.61 0.29,0.37 0.66,0.79 0.84,0.36 0.27,-0.64 0.49,-1.70 0.19,-2.28 -0.13,-0.26 -1.83,-2.41 -3.00,-0.93 -1.44,1.83 -1.53,4.23 -1.72,6.91 -0.20,-0.56 -1.35,-4.16 -5.02,-6.21 -0.27,-0.15 -0.81,0.13 -0.86,0.98 -0.03,0.49 -0.17,1.69 0.18,2.03 0.35,0.34 1.37,1.01 1.54,1.10 z M 335.90,6.37 c 0.79,0.58 1.93,1.04 1.93,1.04 -3.66,4.48 -10.84,7.67 -12.55,9.01 -0.51,0.39 -0.44,0.61 -0.12,0.53 0.29,-0.08 5.76,-1.61 10.76,-5.90 2.29,-1.97 2.23,-2.11 2.81,-3.31 0.50,0.26 0.84,0.67 1.03,0.91 0.28,0.34 0.43,0.60 0.56,0.23 0.48,-1.33 -0.20,-2.13 -0.84,-2.54 0.00,0.00 0.67,-2.07 -0.56,-4.14 -0.21,-0.35 -1.43,-1.46 -2.85,0.74 -0.55,0.84 -0.96,2.85 -0.17,3.42 z M 336.62,4.34 c 0.73,-1.02 1.08,-0.98 1.36,-0.82 0.83,0.77 0.70,2.03 0.67,2.31 0.00,0.00 -1.05,-0.49 -1.52,-0.70 -0.47,-0.20 -0.72,-0.50 -0.50,-0.80 z M 338.66,14.30 c 0.18,-0.50 -0.04,-0.77 -0.29,-0.16 -0.25,0.61 -1.30,2.73 -1.14,5.22 0.04,0.58 0.42,1.70 1.29,1.73 0.45,0.00 1.03,-0.33 1.44,-1.74 0.07,-0.32 0.12,-0.57 0.15,-0.70 0.04,-0.19 -0.10,-0.42 -0.24,0.02 -0.33,0.86 -1.18,1.47 -1.82,0.31 -0.10,-0.23 -0.53,-1.28 0.26,-3.57 0.16,-0.45 0.36,-1.11 0.36,-1.11 z M 312.54,20.28 c 0.48,0.00 1.11,-0.35 1.55,-1.88 0.08,-0.34 0.13,-0.62 0.16,-0.75 0.05,-0.21 -0.10,-0.45 -0.26,0.02 -0.35,0.93 -1.27,1.58 -1.96,0.33 -0.11,-0.25 -0.58,-1.38 0.28,-3.86 0.17,-0.48 0.39,-1.20 0.39,-1.20 0.19,-0.54 -0.04,-0.84 -0.31,-0.17 -0.27,0.66 -1.40,2.94 -1.23,5.64 0.04,0.62 0.45,1.83 1.39,1.87 z M 344.23,24.89 c -0.25,-0.27 -0.38,-0.01 -0.46,0.31 -0.09,0.32 -0.36,1.52 -0.53,2.27 0.00,0.00 0.71,1.16 0.97,1.75 0.25,0.59 -0.12,0.92 -0.86,1.01 -2.08,0.25 -3.73,-0.94 -4.30,-1.48 -0.57,-0.55 0.05,-1.52 0.51,-2.68 0.37,-0.93 -0.32,-1.04 -0.84,0.00 -1.76,4.63 -4.23,5.12 -4.88,5.30 -5.86,1.60 -5.36,-3.76 -5.34,-4.64 0.02,-0.88 -0.62,-0.55 -1.34,0.03 -2.47,1.98 -4.45,3.14 -5.52,3.62 -0.92,-1.80 -2.26,-2.93 -2.82,-3.34 -6.34,-4.63 -6.86,4.71 -6.67,5.71 0.97,3.97 7.44,1.56 8.46,1.44 1.01,-0.12 0.68,1.22 0.11,2.02 -1.41,1.97 -3.03,3.38 -4.50,4.58 -6.28,5.13 -9.43,4.72 -10.41,4.69 -6.17,-0.17 -5.60,-6.82 -5.26,-8.24 1.86,-1.57 3.45,-3.28 4.38,-5.04 0.38,-0.96 1.03,-3.16 -0.15,-5.91 -0.62,-1.21 -2.56,-4.60 -2.56,-4.60 0.00,0.00 1.43,0.04 1.57,0.04 0.14,0.00 0.41,-0.14 0.06,-0.55 -0.35,-0.40 -3.36,-3.40 -3.54,-3.65 -0.18,-0.24 -0.35,-0.41 -0.45,-0.06 -0.10,0.36 -0.36,1.88 -0.42,2.20 -0.06,0.31 -0.06,0.63 0.10,0.90 0.15,0.27 0.55,1.20 0.84,1.96 0.29,0.76 3.26,6.47 3.53,6.98 0.27,0.51 0.33,0.88 0.06,1.22 -9.53,10.05 -27.91,16.23 -28.50,16.57 -0.59,0.34 -0.43,0.61 0.56,0.43 1.48,-0.26 9.74,-1.64 12.09,-2.77 1.55,-0.75 6.97,-3.41 11.41,-6.89 -0.12,0.90 -0.24,2.22 -0.18,3.89 0.30,8.08 7.53,6.74 9.43,6.33 5.68,-1.25 12.64,-9.11 13.23,-10.69 0.58,-1.56 0.67,-2.98 0.54,-4.22 1.50,-0.81 4.71,-3.40 4.71,-3.40 0.13,3.45 2.88,4.48 3.72,4.63 3.96,0.60 5.94,-2.71 6.78,-3.78 0.72,1.89 2.45,2.25 3.34,2.43 3.41,0.68 4.08,-1.74 4.26,-2.29 1.07,-3.33 -0.86,-5.81 -1.11,-6.08 z M 315.60,31.57 c -2.02,-0.14 -1.85,-0.92 -1.57,-1.22 0.30,-0.33 2.78,-1.89 4.85,0.89 0.00,0.00 -0.86,0.50 -3.28,0.33 z M 278.17,13.78 c 0.17,-0.04 3.05,-0.49 6.41,-3.05 1.82,-1.38 2.92,-3.74 2.92,-3.74 0.00,0.00 0.91,0.76 1.03,0.91 0.28,0.34 0.43,0.60 0.56,0.23 0.48,-1.33 -0.20,-2.13 -0.84,-2.54 0.00,0.00 0.67,-2.07 -0.56,-4.14 -0.21,-0.35 -1.43,-1.46 -2.85,0.74 -0.55,0.84 -0.96,2.85 -0.17,3.42 0.79,0.58 1.93,1.04 1.93,1.04 -3.66,4.48 -6.16,5.34 -8.30,6.59 -0.55,0.32 -0.44,0.61 -0.12,0.53 z M 285.89,4.39 c -0.47,-0.20 -0.72,-0.50 -0.50,-0.80 0.73,-1.02 1.08,-0.98 1.36,-0.82 0.83,0.77 0.70,2.03 0.67,2.31 0.00,0.00 -1.05,-0.49 -1.52,-0.70 z M 294.85,12.30 c 0.25,-0.16 13.84,-8.02 14.32,-8.31 0.46,-0.29 0.72,-0.41 0.91,-0.85 0.18,-0.44 0.23,-0.51 0.33,-0.82 0.10,-0.32 0.21,-0.67 -0.61,-0.19 -0.53,0.31 -14.04,8.11 -14.59,8.46 -0.55,0.35 -0.74,0.44 -0.83,0.86 -0.09,0.42 -0.13,0.67 -0.16,0.73 -0.10,0.28 -0.17,0.63 0.64,0.10 z M 341.03,37.21 c -0.24,0.68 -0.34,1.12 -0.32,1.38 0.03,0.26 0.12,1.10 0.12,1.10 -0.25,0.20 -1.33,0.87 -2.40,0.08 0.07,-0.23 0.21,-0.70 0.24,-0.95 0.12,-0.40 -0.13,-0.69 -0.32,-0.28 -0.20,0.41 -0.65,1.79 -0.99,2.10 -0.34,0.31 -0.73,1.45 -3.30,0.29 -0.45,-0.17 -1.23,-0.75 -2.46,0.48 -2.77,2.57 -4.68,2.78 -7.79,3.88 -0.38,0.17 -1.16,0.77 -0.23,0.67 0.94,-0.09 4.87,0.00 7.01,-2.46 0.45,-0.43 0.96,-1.58 2.66,-0.92 0.94,0.36 2.68,1.85 4.58,-1.10 1.12,0.75 2.82,0.45 3.09,-0.38 0.27,-0.82 0.58,-1.64 0.58,-2.20 0.00,-0.56 -0.05,-1.30 -0.05,-1.30 -0.04,-0.44 -0.19,-1.07 -0.44,-0.40 z M 285.75,14.16 c -0.06,-0.05 -0.15,-0.03 -0.20,0.04 -1.53,2.10 -1.53,2.10 -1.53,2.10 -0.05,0.07 -0.04,0.16 0.03,0.21 2.61,1.91 2.61,1.91 2.61,1.91 0.06,0.05 0.15,0.03 0.20,-0.04 1.32,-1.81 1.32,-1.81 1.32,-1.81 2.54,1.85 2.54,1.85 2.54,1.85 0.06,0.05 0.15,0.03 0.20,-0.04 1.53,-2.10 1.53,-2.10 1.53,-2.10 0.05,-0.07 0.04,-0.16 -0.03,-0.20 -2.61,-1.91 -2.61,-1.91 -2.61,-1.91 -0.06,-0.05 -0.15,-0.03 -0.20,0.04 -1.32,1.81 -1.32,1.81 -1.32,1.81 z M 285.13,23.91 c 0.00,0.00 1.25,-0.31 1.47,-0.38 0.22,-0.06 0.34,-0.35 -0.05,-0.55 -0.39,-0.20 -4.09,-1.67 -4.37,-1.79 -0.28,-0.11 -0.38,-0.24 -0.41,0.06 -0.02,0.30 -0.07,2.73 -0.07,2.73 0.00,0.00 -0.06,0.17 0.27,0.35 0.32,0.18 0.64,0.58 0.90,0.84 0.26,0.26 3.70,2.98 3.87,3.07 0.00,0.00 -1.72,3.02 -1.94,5.38 -0.22,2.36 0.04,5.63 3.27,4.57 0.87,-0.25 4.49,-1.69 5.30,-4.21 0.26,-0.93 1.01,-2.61 -0.21,-4.31 -0.70,-1.00 -3.53,-2.69 -3.53,-2.69 0.00,0.00 2.17,-3.00 2.38,-3.37 0.21,-0.37 1.00,-2.69 1.09,-3.26 0.09,-0.56 0.13,-0.84 -0.29,-0.32 -0.42,0.52 -4.63,6.05 -4.63,6.05 z M 292.08,32.79 c -1.20,0.99 -3.72,2.29 -4.43,2.36 -0.71,0.07 -2.59,-0.28 -1.77,-2.20 0.28,-0.62 2.16,-3.84 2.16,-3.84 0.70,0.39 5.24,2.70 4.04,3.69 z" />
     </g>
</svg>
