<?xml version="1.0" encoding="UTF-8"?>
<svg version="1.1" id="Layer_1" x="0px" y="0px" width="578" height="50" viewBox="0 0 578 50"
xml:space="preserve" xmlns="http://www.w3.org/2000/svg" xmlns:svg="http://www.w3.org/2000/svg" xmlns:rdf="http://www.w3.org/1999/02/22-rdf-syntax-ns#"  xmlns:cc="http://creativecommons.org/ns#" xmlns:dc="http://purl.org/dc/elements/1.1/">
     <g>
<path d="M 243.28,19.87 c -1.92,2.63 -1.92,2.63 -1.92,2.63 -0.06,0.08 -0.05,0.20 0.03,0.25 3.27,2.38 3.27,2.38 3.27,2.38 0.08,0.06 0.19,0.04 0.25,-0.05 1.91,-2.63 1.91,-2.63 1.91,-2.63 0.06,-0.08 0.05,-0.20 -0.03,-0.25 -3.27,-2.38 -3.27,-2.38 -3.27,-2.38 -0.08,-0.06 -0.19,-0.04 -0.25,0.05 z M 312.17,23.91 c 0.00,0.00 1.25,-0.31 1.47,-0.38 0.22,-0.06 0.34,-0.35 -0.05,-0.55 -0.39,-0.20 -4.09,-1.67 -4.37,-1.79 -0.28,-0.11 -0.38,-0.24 -0.41,0.06 -0.02,0.30 -0.07,2.73 -0.07,2.73 0.00,0.00 -0.06,0.17 0.27,0.35 0.32,0.18 0.64,0.58 0.90,0.84 0.26,0.26 3.70,2.98 3.87,3.07 0.00,0.00 -1.72,3.02 -1.94,5.38 -0.22,2.36 0.04,5.63 3.27,4.58 0.87,-0.25 4.49,-1.69 5.30,-4.21 0.26,-0.93 1.01,-2.61 -0.21,-4.31 -0.70,-1.00 -3.53,-2.69 -3.53,-2.69 0.00,0.00 2.17,-3.00 2.38,-3.37 0.21,-0.37 1.00,-2.69 1.09,-3.26 0.09,-0.56 0.13,-0.84 -0.29,-0.32 -0.42,0.52 -4.63,6.05 -4.63,6.05 z M 319.12,32.79 c -1.20,0.99 -3.72,2.29 -4.43,2.36 -0.71,0.07 -2.59,-0.28 -1.77,-2.20 0.28,-0.62 2.16,-3.84 2.16,-3.84 0.70,0.39 5.24,2.70 4.04,3.69 z M 312.79,14.16 c -0.06,-0.05 -0.15,-0.03 -0.20,0.04 -1.53,2.10 -1.53,2.10 -1.53,2.10 -0.05,0.07 -0.04,0.16 0.03,0.20 2.61,1.91 2.61,1.91 2.61,1.91 0.06,0.05 0.15,0.03 0.20,-0.04 1.32,-1.81 1.32,-1.81 1.32,-1.81 2.54,1.85 2.54,1.85 2.54,1.85 0.06,0.05 0.15,0.03 0.20,-0.04 1.53,-2.10 1.53,-2.10 1.53,-2.10 0.05,-0.07 0.04,-0.16 -0.03,-0.20 -2.61,-1.91 -2.61,-1.91 -2.61,-1.91 -0.06,-0.05 -0.15,-0.03 -0.20,0.04 -1.32,1.81 -1.32,1.81 -1.32,1.81 z M 303.39,34.87 c 0.39,3.09 0.69,5.88 0.73,7.37 -0.04,0.46 0.17,0.63 0.38,0.19 0.11,-0.24 0.59,-1.22 0.73,-3.80 0.11,-1.94 -0.04,-4.91 -0.60,-9.01 -0.08,-0.60 -2.95,-21.37 -2.95,-21.37 0.00,0.00 1.55,1.46 1.80,1.72 0.25,0.26 0.55,0.12 0.41,-0.30 -0.14,-0.42 -3.31,-8.09 -3.42,-8.36 -0.10,-0.27 -0.20,-0.46 -0.33,-0.15 -0.13,0.31 -1.08,2.64 -1.08,2.64 0.02,0.14 0.28,1.16 0.33,1.54 0.44,3.37 3.20,23.25 3.99,29.54 z M 362.94,6.37 c 0.79,0.58 1.93,1.04 1.93,1.04 -3.66,4.48 -10.84,7.67 -12.55,9.01 -0.51,0.38 -0.44,0.61 -0.12,0.52 0.28,-0.08 5.76,-1.61 10.76,-5.90 2.29,-1.97 2.23,-2.11 2.81,-3.31 0.50,0.26 0.84,0.67 1.03,0.91 0.28,0.34 0.43,0.60 0.56,0.23 0.48,-1.33 -0.20,-2.13 -0.84,-2.54 0.00,0.00 0.67,-2.07 -0.56,-4.14 -0.21,-0.35 -1.43,-1.46 -2.85,0.74 -0.55,0.84 -0.96,2.85 -0.17,3.42 z M 363.66,4.34 c 0.73,-1.02 1.08,-0.99 1.36,-0.82 0.82,0.77 0.70,2.03 0.67,2.31 0.00,0.00 -1.05,-0.49 -1.52,-0.69 -0.47,-0.20 -0.72,-0.50 -0.50,-0.80 z M 365.69,14.30 c 0.18,-0.50 -0.03,-0.77 -0.29,-0.16 -0.25,0.61 -1.30,2.73 -1.14,5.22 0.04,0.58 0.42,1.70 1.29,1.73 0.45,0.00 1.03,-0.33 1.44,-1.73 0.07,-0.32 0.12,-0.57 0.15,-0.70 0.04,-0.19 -0.10,-0.42 -0.24,0.02 -0.33,0.86 -1.18,1.47 -1.82,0.31 -0.10,-0.23 -0.53,-1.28 0.26,-3.57 0.16,-0.44 0.36,-1.11 0.36,-1.11 z M 321.89,12.30 c 0.25,-0.16 13.84,-8.02 14.32,-8.31 0.46,-0.29 0.72,-0.41 0.91,-0.85 0.18,-0.44 0.23,-0.51 0.33,-0.82 0.10,-0.32 0.21,-0.67 -0.61,-0.19 -0.53,0.31 -14.04,8.11 -14.59,8.46 -0.55,0.35 -0.74,0.44 -0.83,0.87 -0.09,0.42 -0.13,0.67 -0.16,0.73 -0.10,0.28 -0.17,0.63 0.64,0.10 z M 345.09,7.03 c 0.17,0.09 0.36,0.11 0.41,-0.10 0.05,-0.21 0.29,-0.68 0.62,-0.34 0.28,0.28 2.09,1.78 3.03,4.95 0.16,0.42 0.55,0.46 0.64,-0.14 0.22,-1.47 0.34,-4.02 0.45,-4.79 0.16,-1.09 0.68,-3.32 2.06,-2.16 0.31,0.26 0.64,0.61 0.64,0.61 0.29,0.37 0.66,0.79 0.84,0.36 0.27,-0.64 0.49,-1.70 0.19,-2.28 -0.13,-0.26 -1.83,-2.41 -3.00,-0.93 -1.44,1.83 -1.53,4.23 -1.72,6.91 -0.20,-0.56 -1.35,-4.16 -5.02,-6.21 -0.27,-0.15 -0.81,0.13 -0.86,0.98 -0.03,0.49 -0.17,1.69 0.18,2.03 0.35,0.34 1.37,1.01 1.54,1.10 z M 339.58,20.28 c 0.48,0.00 1.11,-0.35 1.55,-1.87 0.08,-0.34 0.13,-0.62 0.16,-0.75 0.05,-0.21 -0.10,-0.45 -0.26,0.02 -0.35,0.93 -1.28,1.58 -1.96,0.33 -0.11,-0.25 -0.58,-1.38 0.28,-3.86 0.17,-0.48 0.39,-1.20 0.39,-1.20 0.19,-0.54 -0.04,-0.84 -0.31,-0.18 -0.27,0.66 -1.40,2.94 -1.23,5.64 0.04,0.62 0.45,1.83 1.39,1.87 z M 305.21,13.78 c 0.17,-0.04 3.05,-0.49 6.41,-3.05 1.82,-1.38 2.92,-3.74 2.92,-3.74 0.00,0.00 0.91,0.76 1.03,0.91 0.28,0.34 0.43,0.60 0.56,0.23 0.48,-1.33 -0.20,-2.13 -0.84,-2.54 0.00,0.00 0.67,-2.07 -0.56,-4.14 -0.21,-0.35 -1.43,-1.46 -2.85,0.74 -0.55,0.84 -0.96,2.85 -0.17,3.42 0.79,0.58 1.93,1.04 1.93,1.04 -3.66,4.48 -6.16,5.34 -8.30,6.59 -0.55,0.32 -0.44,0.61 -0.12,0.53 z M 312.93,4.39 c -0.47,-0.20 -0.72,-0.50 -0.50,-0.80 0.73,-1.02 1.08,-0.99 1.36,-0.82 0.83,0.77 0.70,2.02 0.67,2.31 0.00,0.00 -1.05,-0.49 -1.52,-0.69 z M 368.07,37.21 c -0.24,0.68 -0.34,1.12 -0.32,1.38 0.03,0.26 0.12,1.10 0.12,1.10 -0.25,0.20 -1.33,0.87 -2.40,0.08 0.07,-0.23 0.21,-0.70 0.24,-0.95 0.12,-0.40 -0.13,-0.69 -0.32,-0.28 -0.20,0.41 -0.65,1.79 -0.99,2.10 -0.34,0.31 -0.73,1.45 -3.30,0.29 -0.45,-0.17 -1.23,-0.75 -2.46,0.48 -2.77,2.57 -4.68,2.78 -7.79,3.88 -0.37,0.17 -1.16,0.76 -0.23,0.67 0.94,-0.09 4.87,0.00 7.01,-2.46 0.45,-0.43 0.96,-1.58 2.66,-0.92 0.94,0.36 2.68,1.85 4.58,-1.10 1.12,0.75 2.82,0.45 3.09,-0.38 0.27,-0.82 0.58,-1.64 0.58,-2.20 0.00,-0.56 -0.05,-1.30 -0.05,-1.30 -0.04,-0.44 -0.19,-1.07 -0.44,-0.40 z M 371.27,24.89 c -0.25,-0.28 -0.38,-0.01 -0.46,0.31 -0.09,0.32 -0.36,1.52 -0.53,2.27 0.00,0.00 0.71,1.16 0.97,1.75 0.25,0.59 -0.12,0.92 -0.86,1.01 -2.08,0.25 -3.73,-0.94 -4.30,-1.49 -0.57,-0.55 0.05,-1.52 0.51,-2.68 0.37,-0.93 -0.32,-1.04 -0.84,0.00 -1.76,4.63 -4.23,5.12 -4.88,5.30 -5.86,1.60 -5.36,-3.76 -5.34,-4.64 0.02,-0.88 -0.62,-0.55 -1.34,0.03 -2.47,1.98 -4.45,3.14 -5.52,3.62 -0.92,-1.80 -2.26,-2.93 -2.82,-3.34 -6.34,-4.63 -6.86,4.71 -6.67,5.71 0.97,3.97 7.44,1.56 8.46,1.44 1.01,-0.12 0.68,1.22 0.11,2.02 -1.41,1.97 -3.03,3.38 -4.50,4.58 -6.28,5.13 -9.43,4.72 -10.41,4.69 -6.17,-0.17 -5.60,-6.82 -5.26,-8.24 1.86,-1.57 3.45,-3.28 4.38,-5.04 0.38,-0.96 1.03,-3.15 -0.15,-5.91 -0.62,-1.21 -2.56,-4.60 -2.56,-4.60 0.00,0.00 1.43,0.04 1.57,0.04 0.14,0.00 0.41,-0.14 0.06,-0.54 -0.35,-0.40 -3.36,-3.41 -3.54,-3.65 -0.18,-0.24 -0.35,-0.41 -0.45,-0.06 -0.10,0.36 -0.36,1.88 -0.42,2.20 -0.06,0.31 -0.06,0.63 0.10,0.90 0.15,0.27 0.55,1.20 0.84,1.96 0.29,0.76 3.26,6.47 3.53,6.98 0.27,0.51 0.33,0.88 0.06,1.22 -9.53,10.05 -27.91,16.23 -28.50,16.57 -0.59,0.34 -0.43,0.61 0.56,0.43 1.48,-0.26 9.74,-1.64 12.09,-2.77 1.55,-0.75 6.97,-3.41 11.41,-6.89 -0.12,0.90 -0.24,2.22 -0.18,3.89 0.30,8.08 7.53,6.74 9.43,6.33 5.68,-1.25 12.64,-9.11 13.23,-10.69 0.58,-1.56 0.67,-2.98 0.54,-4.22 1.50,-0.81 4.71,-3.40 4.71,-3.40 0.13,3.45 2.88,4.48 3.72,4.63 3.96,0.60 5.94,-2.71 6.78,-3.78 0.72,1.89 2.45,2.25 3.34,2.43 3.41,0.68 4.08,-1.74 4.26,-2.29 1.07,-3.33 -0.86,-5.81 -1.11,-6.08 z M 342.64,31.57 c -2.02,-0.14 -1.85,-0.92 -1.57,-1.23 0.30,-0.33 2.78,-1.89 4.85,0.89 0.00,0.00 -0.86,0.50 -3.28,0.33 z M 277.56,25.29 c 0.88,0.42 2.17,0.03 3.14,-1.81 0.75,1.09 1.90,1.10 2.51,0.87 0.52,-0.19 1.11,-0.97 1.28,-2.06 0.17,-1.08 -0.11,-1.83 -0.45,-2.44 -0.45,-0.75 -0.75,-2.02 -0.75,-2.02 -0.16,-0.45 -0.28,-0.91 -0.48,-0.29 -0.20,0.62 -0.35,1.11 -0.08,1.82 0.27,0.71 1.00,2.33 1.12,2.56 0.12,0.23 0.15,0.49 -0.25,0.66 -0.40,0.17 -2.24,0.56 -2.58,-1.40 -0.34,-1.96 -0.37,-2.53 -0.54,-2.86 -0.17,-0.33 -0.33,-0.37 -0.46,-0.04 -0.13,0.33 -0.21,1.01 -0.23,1.12 -0.02,0.11 -0.02,0.19 0.05,0.31 0.07,0.12 0.80,2.31 0.47,2.91 -0.33,0.60 -1.98,1.69 -2.84,0.55 -0.41,-0.79 -0.16,-2.80 -0.16,-3.27 0.00,-0.47 -0.15,-0.63 -0.35,-0.25 -0.20,0.38 -0.31,0.63 -0.30,0.98 0.01,0.34 0.06,1.81 0.03,2.27 -0.03,0.46 0.00,1.96 0.88,2.38 z M 246.96,14.99 c 0.14,-0.88 -0.09,-1.47 -0.36,-1.97 -0.36,-0.61 -0.61,-1.63 -0.61,-1.63 -0.13,-0.36 -0.23,-0.74 -0.39,-0.23 -0.16,0.50 -0.28,0.89 -0.06,1.47 0.22,0.58 0.81,1.88 0.91,2.07 0.10,0.19 0.12,0.40 -0.20,0.53 -0.32,0.14 -1.81,0.45 -2.08,-1.13 -0.28,-1.58 -0.30,-2.04 -0.44,-2.31 -0.14,-0.27 -0.27,-0.30 -0.37,-0.03 -0.10,0.27 -0.17,0.82 -0.19,0.91 -0.02,0.09 -0.02,0.15 0.04,0.25 0.06,0.10 0.65,1.86 0.38,2.35 -0.27,0.49 -1.60,1.36 -2.29,0.45 -0.33,-0.64 -0.13,-2.26 -0.13,-2.64 0.00,-0.38 -0.12,-0.51 -0.28,-0.20 -0.16,0.31 -0.25,0.51 -0.24,0.79 0.01,0.28 0.05,1.46 0.02,1.83 -0.02,0.37 0.00,1.58 0.71,1.92 0.71,0.34 1.75,0.02 2.54,-1.46 0.61,0.88 1.53,0.89 2.03,0.70 0.42,-0.15 0.89,-0.79 1.03,-1.66 z M 218.86,22.76 c -1.32,1.81 -1.32,1.81 -1.32,1.81 -2.54,-1.85 -2.54,-1.85 -2.54,-1.85 -0.06,-0.05 -0.15,-0.03 -0.20,0.04 -1.53,2.10 -1.53,2.10 -1.53,2.10 -0.05,0.07 -0.04,0.16 0.03,0.21 2.61,1.91 2.61,1.91 2.61,1.91 0.06,0.05 0.15,0.03 0.20,-0.04 1.32,-1.81 1.32,-1.81 1.32,-1.81 2.54,1.85 2.54,1.85 2.54,1.85 0.06,0.05 0.15,0.03 0.20,-0.04 1.53,-2.10 1.53,-2.10 1.53,-2.10 0.05,-0.07 0.04,-0.16 -0.03,-0.20 -2.61,-1.91 -2.61,-1.91 -2.61,-1.91 -0.06,-0.05 -0.15,-0.03 -0.20,0.04 z M 261.80,6.82 c 0.17,0.10 0.34,0.11 0.39,-0.10 0.05,-0.21 0.27,-0.68 0.59,-0.34 0.27,0.28 1.99,1.78 2.88,4.95 0.16,0.42 0.53,0.46 0.61,-0.13 0.21,-1.47 0.32,-4.02 0.43,-4.79 0.16,-1.09 0.65,-3.32 1.96,-2.16 0.30,0.26 0.61,0.61 0.61,0.61 0.28,0.37 0.63,0.79 0.80,0.36 0.26,-0.64 0.46,-1.70 0.18,-2.28 -0.13,-0.25 -1.75,-2.41 -2.85,-0.94 -1.37,1.83 -1.45,4.23 -1.63,6.91 -0.19,-0.56 -1.29,-4.16 -4.78,-6.22 -0.25,-0.15 -0.77,0.13 -0.82,0.98 -0.03,0.49 -0.16,1.69 0.17,2.03 0.33,0.34 1.31,1.01 1.47,1.10 z M 237.91,9.14 c 0.27,-0.13 9.46,-3.88 9.97,-4.12 0.49,-0.23 0.74,-0.37 0.95,-0.79 0.21,-0.43 0.26,-0.50 0.37,-0.80 0.12,-0.32 0.29,-0.57 -0.60,-0.22 -0.62,0.24 -9.62,3.99 -10.25,4.25 -0.60,0.25 -0.76,0.40 -0.88,0.82 -0.11,0.42 -0.17,0.66 -0.20,0.73 -0.11,0.28 -0.20,0.52 0.63,0.14 z M 230.60,42.30 c -0.55,0.28 -11.61,4.46 -12.18,4.78 -0.57,0.32 -0.77,0.40 -0.88,0.81 -0.11,0.41 -0.17,0.66 -0.20,0.72 -0.12,0.28 -0.21,0.62 0.63,0.14 0.26,-0.15 11.43,-4.38 11.90,-4.65 0.47,-0.27 0.75,-0.36 0.96,-0.79 0.21,-0.43 0.26,-0.50 0.38,-0.80 0.12,-0.32 0.25,-0.65 -0.60,-0.22 z M 259.74,22.68 c 0.36,-0.18 27.69,-12.85 28.32,-13.21 0.62,-0.36 0.99,-0.48 1.28,-1.05 0.28,-0.57 0.35,-0.67 0.51,-1.06 0.17,-0.42 0.36,-0.81 -0.80,-0.30 -0.77,0.34 -27.90,13.01 -28.69,13.38 -0.79,0.37 -1.02,0.53 -1.18,1.08 -0.15,0.55 -0.23,0.85 -0.27,0.96 -0.13,0.38 -0.31,0.76 0.84,0.19 z M 267.12,24.26 c 0.19,-0.53 -0.04,-0.83 -0.31,-0.17 -0.27,0.65 -1.39,2.91 -1.22,5.57 0.04,0.61 0.45,1.81 1.37,1.84 0.48,0.00 1.10,-0.35 1.54,-1.85 0.08,-0.34 0.12,-0.61 0.16,-0.75 0.05,-0.20 -0.10,-0.44 -0.26,0.02 -0.35,0.92 -1.26,1.56 -1.94,0.33 -0.11,-0.25 -0.57,-1.37 0.27,-3.81 0.17,-0.47 0.38,-1.18 0.38,-1.18 z M 217.87,29.62 c 0.12,-0.45 -0.09,-0.67 -0.26,-0.12 -0.17,0.55 -0.93,2.48 -0.61,4.64 0.08,0.50 0.49,1.45 1.25,1.41 0.39,-0.03 0.87,-0.36 1.13,-1.62 0.04,-0.28 0.06,-0.51 0.08,-0.62 0.02,-0.17 -0.11,-0.36 -0.21,0.03 -0.22,0.78 -0.92,1.37 -1.57,0.40 -0.11,-0.19 -0.56,-1.08 -0.04,-3.14 0.11,-0.40 0.23,-0.99 0.23,-0.99 z M 277.17,9.50 c 0.48,0.00 1.10,-0.35 1.54,-1.85 0.08,-0.34 0.12,-0.61 0.16,-0.75 0.05,-0.20 -0.10,-0.45 -0.26,0.02 -0.35,0.92 -1.26,1.56 -1.94,0.33 -0.11,-0.24 -0.57,-1.36 0.27,-3.81 0.17,-0.47 0.38,-1.18 0.38,-1.18 0.19,-0.54 -0.04,-0.83 -0.31,-0.17 -0.27,0.66 -1.39,2.91 -1.22,5.57 0.04,0.61 0.45,1.81 1.37,1.84 z M 252.82,42.01 c -0.38,-0.03 -0.90,0.20 -1.36,1.38 -0.08,0.27 -0.14,0.48 -0.18,0.59 -0.05,0.16 0.05,0.36 0.21,0.00 0.34,-0.71 1.12,-1.17 1.58,-0.13 0.07,0.20 0.36,1.13 -0.48,3.04 -0.17,0.37 -0.39,0.92 -0.39,0.92 -0.19,0.42 -0.03,0.67 0.23,0.16 0.26,-0.51 1.31,-2.24 1.36,-4.38 0.01,-0.50 -0.23,-1.48 -0.97,-1.57 z M 299.20,39.10 c -0.36,-0.13 -0.93,-0.03 -1.66,0.99 -0.15,0.24 -0.26,0.43 -0.32,0.52 -0.09,0.14 -0.04,0.37 0.20,0.05 0.51,-0.61 1.38,-0.85 1.56,0.27 0.02,0.22 0.07,1.19 -1.23,2.82 -0.26,0.31 -0.61,0.79 -0.61,0.79 -0.29,0.36 -0.19,0.64 0.19,0.21 0.38,-0.43 1.83,-1.84 2.42,-3.90 0.13,-0.48 0.15,-1.50 -0.55,-1.77 z M 227.08,19.35 c 0.76,-0.05 1.71,-0.74 2.25,-3.53 0.09,-0.63 0.13,-1.13 0.17,-1.38 0.05,-0.38 -0.21,-0.81 -0.41,0.06 -0.46,1.72 -1.84,2.98 -3.06,0.78 -0.20,-0.44 -1.05,-2.45 0.04,-7.01 0.22,-0.88 0.49,-2.20 0.49,-2.20 0.25,-1.00 -0.15,-1.51 -0.51,-0.29 -0.36,1.22 -1.91,5.46 -1.36,10.32 0.13,1.12 0.90,3.28 2.38,3.26 z M 208.33,25.41 c 0.70,-0.04 1.58,-0.68 2.08,-3.27 0.08,-0.58 0.12,-1.05 0.16,-1.28 0.05,-0.35 -0.19,-0.75 -0.38,0.06 -0.43,1.59 -1.70,2.76 -2.83,0.72 -0.19,-0.41 -0.97,-2.27 0.04,-6.49 0.20,-0.82 0.45,-2.04 0.45,-2.04 0.23,-0.92 -0.13,-1.40 -0.47,-0.27 -0.33,1.13 -1.76,5.05 -1.26,9.55 0.12,1.04 0.83,3.04 2.20,3.01 z M 212.29,6.94 c 0.16,0.09 0.33,0.10 0.38,-0.09 0.05,-0.19 0.27,-0.64 0.58,-0.32 0.22,0.23 2.05,1.84 2.61,4.03 0.46,1.91 -4.23,5.77 -4.48,5.94 -0.44,0.32 -0.30,0.52 -0.09,0.41 0.21,-0.11 0.41,-0.14 2.82,-1.73 1.94,-1.28 2.35,-2.77 2.52,-3.91 0.02,-0.06 0.04,-0.12 0.05,-0.19 0.20,-1.39 0.31,-3.79 0.42,-4.52 0.15,-1.03 0.64,-3.14 1.92,-2.04 0.29,0.25 0.60,0.58 0.60,0.58 0.27,0.35 0.61,0.75 0.78,0.34 0.25,-0.60 0.45,-1.61 0.18,-2.15 -0.12,-0.24 -1.71,-2.28 -2.79,-0.88 -1.34,1.73 -1.42,4.00 -1.60,6.53 -0.19,-0.53 -1.26,-3.93 -4.68,-5.87 -0.25,-0.14 -0.75,0.13 -0.80,0.93 -0.03,0.47 -0.16,1.60 0.16,1.92 0.32,0.32 1.28,0.95 1.44,1.04 z M 297.23,29.51 c -0.18,-1.32 -2.77,-21.73 -2.77,-21.73 0.00,0.00 1.32,1.02 1.57,1.28 0.25,0.26 0.55,0.12 0.41,-0.30 -0.14,-0.42 -3.09,-7.66 -3.19,-7.93 -0.10,-0.27 -0.20,-0.46 -0.33,-0.15 -0.13,0.31 -1.15,2.55 -1.15,2.55 0.03,0.18 0.27,0.73 0.43,1.87 0.17,1.18 0.42,2.86 0.69,4.71 0.00,0.00 3.11,22.98 3.17,23.68 0.06,0.70 0.11,3.27 -4.98,4.11 0.28,-0.64 2.18,-4.00 0.84,-6.24 -2.11,-3.53 -6.59,-4.84 -10.89,-2.18 -3.00,1.86 -5.78,5.76 -8.45,10.41 0.00,0.00 -3.06,-0.85 -3.80,-3.53 0.11,-0.30 0.14,-0.47 0.18,-0.73 0.04,-0.26 -0.18,-0.89 -0.66,-0.17 -0.48,0.72 -3.12,5.78 -6.66,5.38 -0.75,-0.07 -3.74,-0.51 -4.82,-6.80 -0.33,-1.86 -1.02,-18.53 -2.46,-26.27 -0.29,-1.58 -0.92,-5.17 -1.08,-5.79 -0.15,-0.62 -0.35,-0.44 -0.51,-0.13 -0.15,0.31 -1.12,2.24 -1.12,2.24 2.81,10.44 2.53,28.96 4.40,34.85 0.57,1.78 2.15,5.02 5.62,5.03 0.99,0.00 4.19,-0.79 5.85,-4.46 0.00,0.00 1.04,1.92 3.51,3.13 -0.30,0.54 -0.92,1.71 -0.97,1.93 -0.06,0.24 0.05,0.67 0.33,0.33 0.25,-0.30 1.17,-1.59 1.40,-1.92 1.31,0.50 2.96,0.79 4.98,0.57 1.02,-0.10 7.26,-0.73 14.50,-3.00 1.50,-0.46 5.24,-1.65 5.74,-4.77 0.26,-0.92 0.77,-2.46 0.22,-5.98 z M 289.46,36.02 c -6.97,4.86 -15.91,3.91 -15.91,3.91 0.57,-0.93 4.82,-8.01 9.57,-8.86 1.16,-0.14 4.89,-0.57 7.20,3.24 0.21,0.34 0.32,0.87 -0.85,1.70 z M 247.29,28.50 c -0.46,-0.40 -2.77,-2.02 -4.63,0.07 -1.86,2.09 -2.14,5.20 -0.59,6.56 0.89,0.66 2.05,0.86 4.09,0.59 0.79,-0.13 2.91,-0.07 3.38,0.57 0.46,0.64 0.09,0.95 -0.30,1.23 -0.39,0.29 -3.43,2.59 -6.50,2.47 -1.11,-0.04 -4.36,0.14 -5.77,-5.20 -0.35,-1.28 -1.00,-7.63 -1.13,-8.74 -0.12,-1.11 -1.60,-20.30 -3.02,-24.28 -0.18,-0.43 -0.38,-0.68 -0.73,0.07 -0.36,0.75 -0.70,2.07 -0.70,2.07 1.13,4.57 2.88,22.59 2.96,23.47 0.04,0.37 0.19,2.74 0.57,5.55 0.54,3.90 1.22,8.42 4.60,9.71 3.98,1.53 7.34,-0.48 7.34,-0.48 0.80,-0.45 4.20,-1.89 4.04,-5.86 -0.04,-0.98 0.45,-4.26 -3.61,-7.82 z M 245.35,32.78 c -0.94,0.13 -1.53,0.27 -2.27,-0.26 -0.71,-0.51 0.00,-1.30 0.44,-1.54 0.44,-0.24 2.02,-0.71 3.86,1.77 0.00,0.00 -1.09,-0.09 -2.03,0.04 z M 229.19,27.67 c -0.28,-0.45 -0.49,-0.51 -0.63,-0.05 -0.14,0.46 -0.65,2.76 -0.65,2.76 0.45,0.64 2.46,3.37 1.91,3.91 -0.55,0.54 -5.50,4.65 -16.93,5.11 -1.28,0.05 -7.21,-0.23 -6.81,-5.09 0.06,-0.73 0.61,-3.06 1.39,-4.35 0.21,-0.50 -0.29,-0.83 -0.60,-0.27 -0.32,0.56 -4.28,6.65 -0.57,10.94 0.32,0.39 3.35,3.76 15.32,0.43 2.84,-0.75 6.96,-2.39 8.79,-4.87 0.32,-0.44 1.48,-2.72 0.72,-4.95 -0.30,-0.87 -1.67,-3.12 -1.95,-3.57 z" />
     </g>
</svg>
