<?xml version="1.0" encoding="UTF-8"?>
<svg version="1.1" id="Layer_1" x="0px" y="0px" width="578" height="53" viewBox="0 0 578 53"
xml:space="preserve" xmlns="http://www.w3.org/2000/svg" xmlns:svg="http://www.w3.org/2000/svg" xmlns:rdf="http://www.w3.org/1999/02/22-rdf-syntax-ns#"  xmlns:cc="http://creativecommons.org/ns#" xmlns:dc="http://purl.org/dc/elements/1.1/">
     <g>
<path d="M 263.72,17.95 c -1.92,2.63 -1.92,2.63 -1.92,2.63 -0.06,0.08 -0.05,0.20 0.03,0.25 3.27,2.38 3.27,2.38 3.27,2.38 0.08,0.06 0.19,0.04 0.25,-0.05 1.91,-2.63 1.91,-2.63 1.91,-2.63 0.06,-0.08 0.05,-0.20 -0.03,-0.26 -3.27,-2.38 -3.27,-2.38 -3.27,-2.38 -0.08,-0.06 -0.19,-0.04 -0.25,0.05 z M 257.51,24.39 c 0.31,0.20 0.64,0.48 0.64,0.48 0.30,0.30 0.68,0.64 0.79,0.24 0.17,-0.60 0.26,-1.59 -0.07,-2.07 -0.14,-0.22 -1.91,-1.97 -2.80,-0.52 -1.10,1.80 -0.93,3.97 -0.81,6.40 -0.24,-0.48 -1.66,-3.60 -5.18,-5.05 -0.26,-0.11 -0.71,0.21 -0.67,0.97 0.02,0.45 0.03,1.54 0.38,1.81 0.35,0.27 1.34,0.76 1.51,0.82 0.17,0.07 0.33,0.06 0.36,-0.13 0.02,-0.19 0.18,-0.64 0.52,-0.37 0.28,0.23 2.07,1.38 3.25,4.13 0.19,0.36 0.55,0.36 0.56,-0.19 0.04,-1.34 -0.13,-3.65 -0.10,-4.36 0.03,-0.99 0.26,-3.07 1.62,-2.17 z M 258.59,8.95 c 0.43,0.00 0.98,-0.31 1.38,-1.66 0.07,-0.30 0.11,-0.55 0.14,-0.67 0.04,-0.18 -0.09,-0.40 -0.23,0.02 -0.31,0.83 -1.13,1.41 -1.74,0.30 -0.10,-0.22 -0.51,-1.22 0.25,-3.42 0.15,-0.43 0.35,-1.06 0.35,-1.06 0.17,-0.48 -0.03,-0.74 -0.28,-0.15 -0.24,0.59 -1.25,2.61 -1.09,5.00 0.04,0.55 0.40,1.63 1.23,1.65 z M 238.10,9.15 c 0.17,0.09 0.36,0.11 0.41,-0.10 0.05,-0.21 0.29,-0.68 0.62,-0.34 0.28,0.28 2.09,1.78 3.03,4.95 0.16,0.42 0.55,0.46 0.64,-0.14 0.22,-1.47 0.33,-4.02 0.45,-4.79 0.16,-1.09 0.68,-3.32 2.06,-2.16 0.31,0.26 0.64,0.61 0.64,0.61 0.29,0.37 0.66,0.79 0.84,0.36 0.27,-0.64 0.49,-1.71 0.19,-2.28 -0.13,-0.25 -1.84,-2.41 -3.00,-0.93 -1.44,1.83 -1.53,4.23 -1.72,6.91 -0.20,-0.56 -1.35,-4.15 -5.02,-6.21 -0.27,-0.15 -0.81,0.13 -0.86,0.98 -0.03,0.49 -0.17,1.69 0.18,2.03 0.35,0.34 1.37,1.00 1.54,1.10 z M 272.00,27.62 c 0.52,-0.03 1.17,-0.41 1.56,-1.92 0.06,-0.34 0.10,-0.61 0.13,-0.75 0.04,-0.20 -0.14,-0.43 -0.28,0.04 -0.33,0.93 -1.28,1.62 -2.08,0.45 -0.13,-0.24 -0.69,-1.31 0.08,-3.78 0.16,-0.48 0.35,-1.19 0.35,-1.19 0.18,-0.54 -0.09,-0.81 -0.34,-0.15 -0.25,0.66 -1.34,2.96 -1.01,5.58 0.08,0.60 0.59,1.76 1.59,1.74 z M 242.57,25.52 c 0.23,-0.72 -0.12,-1.08 -0.45,-0.20 -0.34,0.88 -1.78,3.93 -1.34,7.40 0.10,0.80 0.78,2.34 2.11,2.30 0.69,-0.04 1.55,-0.54 2.07,-2.55 0.08,-0.45 0.13,-0.81 0.17,-0.99 0.05,-0.27 -0.18,-0.57 -0.37,0.05 -0.44,1.24 -1.69,2.15 -2.77,0.59 -0.18,-0.31 -0.92,-1.74 0.11,-5.02 0.21,-0.64 0.47,-1.58 0.47,-1.58 z M 264.71,14.09 c 0.53,0.23 2.17,0.73 3.13,-1.84 0.33,-1.22 0.06,-2.77 0.06,-2.77 -0.13,-0.74 -0.33,-1.04 -0.58,-0.35 -0.25,0.69 -0.30,0.90 -0.26,1.19 0.04,0.29 0.24,1.24 0.16,1.50 -0.08,0.25 -1.37,1.17 -1.94,0.60 -0.20,-0.23 -0.14,-1.15 -0.19,-1.60 -0.04,-0.45 -0.13,-0.95 -0.44,-0.30 -0.30,0.64 -0.23,0.85 -0.20,1.26 0.03,0.41 0.20,0.91 -0.12,1.30 -0.32,0.39 -1.80,1.52 -2.59,0.29 -0.13,-0.25 -0.07,-0.70 -0.05,-1.05 0.03,-0.35 -0.31,-0.70 -0.45,-0.15 -0.14,0.55 -0.40,1.60 -0.14,2.31 0.26,0.71 1.68,2.22 3.61,-0.39 z M 236.40,23.30 c 0.28,-0.18 19.21,-10.33 19.72,-10.67 0.51,-0.33 0.81,-0.46 1.02,-0.95 0.21,-0.49 0.26,-0.58 0.37,-0.92 0.12,-0.36 0.24,-0.75 -0.69,-0.21 -0.60,0.35 -19.41,10.44 -20.03,10.84 -0.62,0.40 -0.83,0.50 -0.93,0.98 -0.10,0.47 -0.15,0.75 -0.18,0.83 -0.11,0.32 -0.19,0.71 0.72,0.12 z M 246.25,45.77 c -0.42,-0.09 -1.03,0.11 -1.69,1.35 -0.13,0.28 -0.22,0.52 -0.27,0.63 -0.08,0.17 0.01,0.41 0.23,0.03 0.48,-0.75 1.39,-1.14 1.77,0.07 0.05,0.24 0.25,1.30 -0.94,3.30 -0.24,0.39 -0.55,0.97 -0.55,0.97 -0.26,0.44 -0.12,0.73 0.24,0.21 0.36,-0.53 1.75,-2.31 2.09,-4.67 0.08,-0.55 -0.06,-1.67 -0.87,-1.87 z M 272.92,44.77 c -0.55,0.28 -8.80,3.50 -9.37,3.82 -0.57,0.32 -0.77,0.39 -0.88,0.81 -0.11,0.42 -0.17,0.66 -0.20,0.72 -0.12,0.28 -0.21,0.62 0.63,0.14 0.26,-0.15 8.62,-3.42 9.09,-3.69 0.47,-0.27 0.75,-0.36 0.96,-0.79 0.21,-0.42 0.26,-0.50 0.38,-0.80 0.12,-0.32 0.25,-0.65 -0.60,-0.22 z M 286.97,42.55 c 0.21,-0.44 1.67,-3.46 -0.06,-14.54 -0.13,-0.92 -2.76,-19.64 -2.76,-19.64 0.00,0.00 1.55,1.46 1.80,1.72 0.25,0.26 0.55,0.12 0.41,-0.30 -0.14,-0.42 -3.32,-8.09 -3.42,-8.36 -0.10,-0.27 -0.20,-0.46 -0.33,-0.15 -0.13,0.31 -0.88,2.38 -0.88,2.38 0.20,1.35 1.99,15.82 2.10,16.81 0.12,0.99 2.63,17.36 2.76,21.89 -0.04,0.46 0.17,0.64 0.38,0.19 z M 275.93,8.54 c 0.00,0.00 1.55,1.46 1.80,1.72 0.25,0.26 0.55,0.12 0.41,-0.30 -0.14,-0.42 -3.31,-8.10 -3.42,-8.36 -0.10,-0.27 -0.21,-0.46 -0.33,-0.15 -0.13,0.31 -0.88,2.38 -0.88,2.38 0.10,0.67 1.28,8.68 2.40,16.46 0.00,0.00 2.91,16.67 2.92,17.59 0.02,0.45 0.17,1.02 -0.08,1.22 -0.25,0.20 -3.92,2.68 -6.97,0.47 -0.46,-0.33 -2.11,-1.56 -2.65,-4.75 -0.22,-1.05 -1.49,-6.20 -2.88,-8.46 -0.32,-0.38 -0.45,-0.38 -0.62,0.10 -0.17,0.49 -0.35,2.41 -0.35,2.41 0.37,1.04 2.35,6.52 2.58,9.13 0.07,0.85 -0.74,2.03 -2.16,1.86 -0.45,-0.07 -2.66,-0.59 -3.01,-1.91 0.07,-0.32 0.08,-0.25 0.13,-0.59 0.05,-0.34 -0.10,-0.96 -0.52,-0.32 -0.42,0.64 -1.28,2.57 -1.94,3.20 -0.95,0.91 -4.09,1.19 -3.95,-1.24 0.22,-0.50 0.34,-0.79 0.45,-1.04 0.12,-0.25 -0.07,-0.69 -0.54,-0.23 -0.47,0.45 -1.67,2.43 -3.18,3.26 -1.51,0.84 -4.64,1.51 -5.17,-1.62 0.18,-0.49 0.25,-1.00 0.32,-1.27 0.07,-0.27 -0.12,-0.87 -0.52,-0.34 -0.40,0.54 -1.99,3.15 -4.67,4.04 -1.28,0.43 -5.62,1.82 -8.09,-3.63 -0.37,-0.83 -1.49,-4.19 -1.84,-9.19 -0.07,-1.04 -1.52,-16.16 -1.79,-18.07 -0.27,-1.91 -0.80,-5.91 -1.37,-7.15 -0.20,-0.49 -0.47,-0.47 -0.62,-0.07 -0.15,0.40 -0.79,2.19 -0.79,2.19 1.09,4.10 2.06,13.45 2.21,14.59 0.24,1.85 1.12,13.82 1.65,16.54 0.42,2.19 0.89,6.12 4.62,7.69 0.92,0.38 5.53,2.02 9.37,-2.26 0.60,0.75 2.56,3.53 6.41,1.53 0.77,-0.40 1.47,-1.08 2.07,-2.11 0.21,0.41 0.85,2.35 3.03,2.36 0.57,0.00 2.30,-0.05 3.73,-2.85 0.45,0.30 2.06,1.85 4.34,1.61 0.67,-0.11 2.46,-0.78 2.62,-3.40 0.00,0.00 1.07,2.44 3.13,3.47 0.69,0.34 2.64,1.50 6.22,-0.36 0.63,-0.33 1.39,-0.69 2.28,-4.24 0.15,-0.76 0.33,-1.76 -0.08,-4.26 -0.38,-1.57 -4.26,-25.65 -4.26,-25.65 z M 230.03,34.20 c 0.09,-0.49 -0.42,-0.44 -1.21,-0.26 -0.79,0.18 -3.66,1.03 -5.19,-0.26 -1.32,-1.11 -1.49,-1.57 -1.02,-1.86 0.47,-0.28 1.77,-1.16 2.62,-0.09 0.45,0.57 0.83,0.57 1.02,0.19 0.19,-0.38 0.84,-1.37 0.65,-1.77 -0.20,-0.40 -1.05,-1.78 -2.98,-0.84 -1.92,0.94 -3.82,3.96 -3.09,5.12 0.62,0.98 1.89,1.86 1.89,1.86 -0.61,0.35 -1.29,0.54 -1.47,1.17 -0.18,0.64 -0.23,1.02 -0.25,1.26 -0.02,0.23 -0.06,0.41 0.31,0.30 0.37,-0.10 0.54,-0.17 0.54,-0.17 1.06,-0.48 5.11,-2.60 7.84,-3.26 0.08,-0.02 0.26,-0.92 0.34,-1.40 z M 222.34,21.79 c -0.16,-0.28 -0.82,-1.55 0.10,-4.47 0.19,-0.57 0.41,-1.41 0.41,-1.41 0.21,-0.64 -0.10,-0.96 -0.40,-0.18 -0.30,0.78 -1.58,3.50 -1.19,6.59 0.09,0.71 0.69,2.08 1.88,2.05 0.61,-0.04 1.38,-0.49 1.85,-2.28 0.07,-0.40 0.12,-0.72 0.15,-0.88 0.05,-0.24 -0.16,-0.51 -0.33,0.04 -0.39,1.10 -1.51,1.92 -2.47,0.53 z M 222.83,12.76 c 0.52,-0.03 1.17,-0.41 1.56,-1.92 0.06,-0.34 0.10,-0.61 0.13,-0.75 0.04,-0.20 -0.14,-0.43 -0.28,0.04 -0.33,0.93 -1.28,1.62 -2.08,0.45 -0.13,-0.24 -0.69,-1.31 0.08,-3.78 0.16,-0.48 0.35,-1.19 0.35,-1.19 0.18,-0.54 -0.09,-0.81 -0.34,-0.15 -0.25,0.66 -1.34,2.96 -1.01,5.58 0.08,0.60 0.59,1.76 1.59,1.74 z M 231.01,40.76 c -0.55,0.28 -7.29,2.50 -7.86,2.82 -0.57,0.32 -0.77,0.39 -0.88,0.81 -0.11,0.41 -0.17,0.66 -0.20,0.72 -0.12,0.28 -0.21,0.62 0.63,0.14 0.26,-0.15 7.11,-2.42 7.58,-2.69 0.47,-0.27 0.75,-0.36 0.96,-0.79 0.21,-0.42 0.26,-0.50 0.38,-0.80 0.13,-0.32 0.25,-0.65 -0.60,-0.22 z M 322.09,20.27 c 0.48,0.00 1.11,-0.35 1.55,-1.87 0.08,-0.34 0.13,-0.62 0.16,-0.75 0.05,-0.21 -0.10,-0.45 -0.26,0.02 -0.36,0.93 -1.27,1.58 -1.96,0.33 -0.11,-0.25 -0.58,-1.38 0.28,-3.86 0.17,-0.48 0.39,-1.20 0.39,-1.20 0.19,-0.54 -0.04,-0.84 -0.31,-0.17 -0.27,0.66 -1.40,2.94 -1.23,5.64 0.04,0.62 0.45,1.83 1.39,1.86 z M 304.39,12.30 c 0.25,-0.16 13.84,-8.02 14.32,-8.31 0.46,-0.29 0.72,-0.41 0.91,-0.85 0.18,-0.44 0.23,-0.52 0.33,-0.82 0.10,-0.32 0.21,-0.67 -0.61,-0.19 -0.53,0.31 -14.04,8.11 -14.59,8.46 -0.55,0.35 -0.74,0.44 -0.83,0.87 -0.09,0.42 -0.13,0.67 -0.16,0.73 -0.10,0.28 -0.17,0.63 0.64,0.10 z M 327.59,7.03 c 0.17,0.10 0.36,0.11 0.41,-0.10 0.05,-0.21 0.29,-0.68 0.62,-0.34 0.28,0.28 2.09,1.78 3.03,4.95 0.16,0.42 0.55,0.46 0.64,-0.14 0.22,-1.47 0.33,-4.02 0.45,-4.79 0.17,-1.09 0.68,-3.33 2.06,-2.16 0.31,0.26 0.64,0.61 0.64,0.61 0.29,0.37 0.66,0.79 0.84,0.36 0.27,-0.64 0.49,-1.70 0.19,-2.28 -0.13,-0.26 -1.83,-2.41 -3.00,-0.93 -1.44,1.83 -1.53,4.23 -1.72,6.91 -0.20,-0.56 -1.35,-4.16 -5.02,-6.21 -0.27,-0.15 -0.81,0.13 -0.86,0.98 -0.03,0.49 -0.17,1.69 0.18,2.03 0.35,0.34 1.37,1.01 1.54,1.10 z M 348.20,14.30 c 0.18,-0.50 -0.04,-0.77 -0.29,-0.16 -0.25,0.61 -1.30,2.73 -1.14,5.22 0.04,0.58 0.42,1.70 1.29,1.73 0.45,0.00 1.03,-0.33 1.44,-1.74 0.07,-0.32 0.12,-0.57 0.15,-0.70 0.04,-0.19 -0.10,-0.42 -0.24,0.02 -0.33,0.86 -1.18,1.47 -1.82,0.31 -0.10,-0.23 -0.54,-1.28 0.26,-3.57 0.16,-0.44 0.36,-1.11 0.36,-1.11 z M 345.44,6.37 c 0.79,0.58 1.94,1.04 1.94,1.04 -3.66,4.48 -10.84,7.67 -12.56,9.01 -0.51,0.39 -0.44,0.61 -0.12,0.53 0.28,-0.08 5.76,-1.61 10.76,-5.90 2.29,-1.97 2.23,-2.11 2.81,-3.31 0.50,0.26 0.84,0.67 1.03,0.91 0.28,0.34 0.43,0.60 0.56,0.23 0.48,-1.33 -0.20,-2.13 -0.84,-2.54 0.00,0.00 0.67,-2.07 -0.56,-4.14 -0.21,-0.35 -1.43,-1.46 -2.85,0.74 -0.55,0.84 -0.96,2.85 -0.18,3.42 z M 346.17,4.34 c 0.73,-1.02 1.08,-0.98 1.36,-0.82 0.83,0.77 0.70,2.02 0.67,2.31 0.00,0.00 -1.05,-0.49 -1.52,-0.70 -0.47,-0.20 -0.72,-0.50 -0.50,-0.80 z M 294.67,23.91 c 0.00,0.00 1.25,-0.31 1.47,-0.38 0.22,-0.06 0.34,-0.35 -0.05,-0.55 -0.39,-0.20 -4.09,-1.67 -4.37,-1.79 -0.28,-0.11 -0.38,-0.24 -0.41,0.06 -0.02,0.30 -0.07,2.73 -0.07,2.73 0.00,0.00 -0.06,0.17 0.27,0.35 0.32,0.18 0.64,0.58 0.90,0.84 0.26,0.26 3.70,2.98 3.87,3.07 0.00,0.00 -1.72,3.02 -1.94,5.38 -0.22,2.36 0.04,5.63 3.27,4.58 0.87,-0.25 4.49,-1.69 5.30,-4.21 0.26,-0.93 1.01,-2.61 -0.21,-4.31 -0.70,-1.00 -3.53,-2.69 -3.53,-2.69 0.00,0.00 2.17,-3.00 2.38,-3.37 0.21,-0.37 1.00,-2.69 1.09,-3.26 0.09,-0.56 0.13,-0.84 -0.29,-0.32 -0.42,0.52 -4.63,6.05 -4.63,6.05 z M 301.62,32.79 c -1.20,0.99 -3.72,2.29 -4.43,2.36 -0.71,0.07 -2.59,-0.28 -1.77,-2.20 0.28,-0.62 2.16,-3.84 2.16,-3.84 0.70,0.39 5.24,2.70 4.04,3.69 z M 350.57,37.21 c -0.24,0.68 -0.34,1.12 -0.32,1.38 0.03,0.26 0.12,1.10 0.12,1.10 -0.25,0.20 -1.33,0.87 -2.40,0.08 0.07,-0.23 0.21,-0.70 0.24,-0.95 0.12,-0.40 -0.13,-0.69 -0.32,-0.28 -0.20,0.41 -0.65,1.79 -0.99,2.10 -0.34,0.31 -0.74,1.45 -3.30,0.29 -0.45,-0.17 -1.23,-0.75 -2.46,0.48 -2.77,2.57 -4.68,2.78 -7.79,3.88 -0.38,0.17 -1.16,0.77 -0.23,0.67 0.94,-0.09 4.87,0.00 7.01,-2.46 0.45,-0.43 0.96,-1.58 2.66,-0.92 0.94,0.36 2.68,1.85 4.58,-1.10 1.12,0.75 2.82,0.45 3.09,-0.38 0.27,-0.82 0.58,-1.64 0.58,-2.20 0.00,-0.56 -0.05,-1.30 -0.05,-1.30 -0.04,-0.44 -0.19,-1.07 -0.44,-0.40 z M 353.78,24.89 c -0.25,-0.28 -0.37,-0.01 -0.46,0.31 -0.09,0.32 -0.36,1.52 -0.54,2.27 0.00,0.00 0.71,1.16 0.97,1.76 0.25,0.59 -0.12,0.92 -0.86,1.01 -2.08,0.25 -3.73,-0.94 -4.30,-1.48 -0.57,-0.55 0.05,-1.52 0.51,-2.68 0.37,-0.93 -0.32,-1.04 -0.84,0.00 -1.76,4.63 -4.23,5.13 -4.88,5.30 -5.86,1.60 -5.36,-3.76 -5.33,-4.64 0.02,-0.88 -0.62,-0.55 -1.34,0.03 -2.47,1.98 -4.45,3.14 -5.52,3.62 -0.92,-1.80 -2.26,-2.93 -2.82,-3.34 -6.34,-4.63 -6.87,4.71 -6.67,5.71 0.96,3.97 7.44,1.56 8.46,1.44 1.02,-0.12 0.68,1.22 0.11,2.02 -1.41,1.97 -3.03,3.38 -4.50,4.57 -6.28,5.13 -9.43,4.72 -10.41,4.69 -6.17,-0.17 -5.60,-6.82 -5.26,-8.24 1.86,-1.57 3.45,-3.28 4.38,-5.04 0.38,-0.96 1.03,-3.16 -0.15,-5.91 -0.62,-1.21 -2.56,-4.60 -2.56,-4.60 0.00,0.00 1.43,0.04 1.57,0.04 0.14,0.00 0.41,-0.14 0.06,-0.54 -0.35,-0.40 -3.36,-3.40 -3.54,-3.65 -0.18,-0.24 -0.35,-0.41 -0.45,-0.06 -0.10,0.36 -0.36,1.88 -0.42,2.20 -0.06,0.31 -0.06,0.63 0.10,0.90 0.15,0.27 0.55,1.20 0.84,1.96 0.29,0.76 3.25,6.47 3.53,6.98 0.27,0.51 0.33,0.88 0.06,1.22 -9.53,10.05 -27.91,16.23 -28.50,16.58 -0.59,0.34 -0.43,0.61 0.56,0.43 1.48,-0.26 9.74,-1.64 12.09,-2.77 1.55,-0.75 6.97,-3.41 11.41,-6.89 -0.12,0.90 -0.24,2.22 -0.17,3.89 0.30,8.08 7.53,6.74 9.43,6.33 5.68,-1.25 12.64,-9.11 13.23,-10.69 0.58,-1.56 0.67,-2.98 0.54,-4.22 1.50,-0.81 4.71,-3.40 4.71,-3.40 0.13,3.45 2.87,4.48 3.72,4.63 3.96,0.60 5.94,-2.70 6.78,-3.78 0.72,1.89 2.45,2.26 3.34,2.43 3.41,0.68 4.08,-1.73 4.25,-2.29 1.07,-3.33 -0.86,-5.81 -1.11,-6.08 z M 325.14,31.57 c -2.03,-0.14 -1.85,-0.92 -1.57,-1.22 0.30,-0.33 2.78,-1.89 4.85,0.89 0.00,0.00 -0.86,0.50 -3.28,0.33 z M 287.71,13.78 c 0.17,-0.04 3.05,-0.49 6.41,-3.05 1.82,-1.38 2.92,-3.74 2.92,-3.74 0.00,0.00 0.91,0.76 1.03,0.91 0.28,0.34 0.43,0.60 0.56,0.23 0.48,-1.33 -0.20,-2.13 -0.84,-2.54 0.00,0.00 0.67,-2.07 -0.56,-4.14 -0.21,-0.35 -1.43,-1.46 -2.85,0.74 -0.55,0.84 -0.96,2.85 -0.18,3.42 0.79,0.58 1.94,1.04 1.94,1.04 -3.66,4.48 -6.16,5.34 -8.30,6.59 -0.55,0.32 -0.44,0.61 -0.12,0.53 z M 295.43,4.39 c -0.47,-0.20 -0.72,-0.50 -0.50,-0.80 0.73,-1.02 1.08,-0.98 1.36,-0.82 0.82,0.77 0.70,2.02 0.67,2.31 0.00,0.00 -1.05,-0.49 -1.52,-0.69 z M 295.29,14.16 c -0.06,-0.05 -0.15,-0.03 -0.20,0.04 -1.53,2.10 -1.53,2.10 -1.53,2.10 -0.05,0.07 -0.04,0.16 0.03,0.21 2.61,1.91 2.61,1.91 2.61,1.91 0.06,0.05 0.15,0.03 0.20,-0.04 1.32,-1.81 1.32,-1.81 1.32,-1.81 2.54,1.85 2.54,1.85 2.54,1.85 0.06,0.05 0.15,0.03 0.20,-0.04 1.53,-2.10 1.53,-2.10 1.53,-2.10 0.05,-0.07 0.04,-0.16 -0.03,-0.21 -2.61,-1.91 -2.61,-1.91 -2.61,-1.91 -0.06,-0.05 -0.15,-0.03 -0.20,0.04 -1.32,1.81 -1.32,1.81 -1.32,1.81 z" />
     </g>
</svg>
