<?xml version="1.0" encoding="UTF-8"?>
<svg version="1.1" id="Layer_1" x="0px" y="0px" width="578" height="50" viewBox="0 0 578 50"
xml:space="preserve" xmlns="http://www.w3.org/2000/svg" xmlns:svg="http://www.w3.org/2000/svg" xmlns:rdf="http://www.w3.org/1999/02/22-rdf-syntax-ns#"  xmlns:cc="http://creativecommons.org/ns#" xmlns:dc="http://purl.org/dc/elements/1.1/">
     <g>
<path d="M 242.43,11.00 c -1.92,2.63 -1.92,2.63 -1.92,2.63 -0.06,0.08 -0.05,0.20 0.03,0.25 3.27,2.38 3.27,2.38 3.27,2.38 0.08,0.06 0.19,0.04 0.25,-0.05 1.91,-2.63 1.91,-2.63 1.91,-2.63 0.06,-0.08 0.05,-0.20 -0.03,-0.25 -3.27,-2.38 -3.27,-2.38 -3.27,-2.38 -0.08,-0.06 -0.19,-0.04 -0.25,0.05 z M 279.63,12.76 c -1.92,2.63 -1.92,2.63 -1.92,2.63 -0.06,0.08 -0.05,0.20 0.03,0.25 3.27,2.38 3.27,2.38 3.27,2.38 0.08,0.06 0.19,0.04 0.25,-0.05 1.91,-2.63 1.91,-2.63 1.91,-2.63 0.06,-0.08 0.05,-0.20 -0.03,-0.26 -3.27,-2.38 -3.27,-2.38 -3.27,-2.38 -0.08,-0.06 -0.19,-0.04 -0.25,0.05 z M 262.06,19.80 c 0.70,0.11 1.10,0.52 1.28,0.75 0.08,0.10 0.19,0.03 0.22,-0.04 0.79,-1.57 0.08,-2.55 -1.28,-2.94 -0.54,-0.15 -0.78,-0.90 1.21,-2.18 1.83,-1.18 23.84,-11.85 24.25,-12.14 0.55,-0.38 0.88,-0.53 1.09,-1.08 0.21,-0.55 0.27,-0.65 0.38,-1.03 0.12,-0.41 0.24,-0.84 -0.77,-0.21 -0.53,0.33 -24.31,11.75 -25.83,12.98 -0.76,0.62 -1.40,1.60 -1.62,2.66 -0.32,1.54 0.06,3.06 1.06,3.22 z M 225.18,14.42 c 0.66,-0.37 4.49,-1.85 5.12,-5.65 0.05,-0.50 -0.05,-0.87 -0.17,-1.12 0.05,0.01 0.11,0.05 0.17,0.11 0.27,0.27 1.99,1.69 2.88,4.71 0.15,0.40 0.53,0.44 0.61,-0.13 0.21,-1.40 0.32,-3.82 0.43,-4.56 0.16,-1.03 0.65,-3.16 1.96,-2.06 0.30,0.25 0.61,0.58 0.61,0.58 0.28,0.35 0.63,0.75 0.80,0.34 0.26,-0.61 0.46,-1.62 0.18,-2.17 -0.12,-0.24 -1.75,-2.30 -2.85,-0.89 -1.37,1.74 -1.46,4.03 -1.64,6.58 -0.19,-0.53 -1.29,-3.95 -4.78,-5.91 -0.25,-0.14 -0.77,0.13 -0.82,0.93 -0.03,0.47 -0.16,1.61 0.17,1.93 0.32,0.31 2.68,1.14 1.40,2.49 -0.57,0.61 -3.45,3.59 -4.06,4.31 -0.62,0.72 -0.68,0.85 -0.01,0.49 z M 255.17,41.17 c -0.55,0.28 -9.00,3.58 -9.57,3.90 -0.57,0.32 -0.77,0.39 -0.88,0.81 -0.11,0.41 -0.17,0.66 -0.20,0.72 -0.12,0.28 -0.21,0.62 0.63,0.14 0.26,-0.15 8.82,-3.50 9.29,-3.76 0.47,-0.27 0.75,-0.36 0.96,-0.79 0.21,-0.42 0.26,-0.50 0.38,-0.80 0.12,-0.32 0.25,-0.65 -0.60,-0.22 z M 239.28,45.23 c -0.51,0.17 -5.39,1.86 -5.95,2.08 -0.53,0.21 -0.67,0.34 -0.77,0.71 -0.10,0.36 -0.15,0.57 -0.18,0.63 -0.10,0.24 -0.23,0.44 0.55,0.13 0.38,-0.16 5.17,-1.74 5.71,-1.97 0.43,-0.19 0.65,-0.31 0.83,-0.68 0.18,-0.37 0.23,-0.43 0.33,-0.69 0.11,-0.28 0.24,-0.44 -0.52,-0.20 z M 239.28,42.23 c -0.51,0.17 -5.39,1.86 -5.95,2.08 -0.53,0.21 -0.67,0.34 -0.77,0.71 -0.10,0.36 -0.15,0.57 -0.18,0.63 -0.10,0.24 -0.23,0.44 0.55,0.13 0.38,-0.15 5.17,-1.74 5.71,-1.97 0.43,-0.19 0.65,-0.31 0.83,-0.68 0.18,-0.37 0.23,-0.43 0.33,-0.69 0.11,-0.28 0.24,-0.44 -0.52,-0.19 z M 285.25,41.30 c -0.44,-0.19 -1.16,-0.12 -2.17,1.09 -0.21,0.28 -0.36,0.52 -0.45,0.63 -0.13,0.17 -0.09,0.45 0.25,0.09 0.70,-0.71 1.80,-0.94 1.93,0.48 0.00,0.27 -0.03,1.49 -1.80,3.41 -0.35,0.37 -0.84,0.94 -0.84,0.94 -0.39,0.42 -0.30,0.78 0.21,0.28 0.51,-0.50 2.47,-2.13 3.39,-4.66 0.21,-0.58 0.32,-1.86 -0.52,-2.26 z M 247.03,10.05 c 0.46,0.00 1.05,-0.33 1.46,-1.77 0.07,-0.32 0.12,-0.58 0.15,-0.71 0.04,-0.19 -0.10,-0.42 -0.25,0.02 -0.33,0.88 -1.20,1.49 -1.85,0.32 -0.10,-0.23 -0.54,-1.30 0.26,-3.64 0.16,-0.45 0.37,-1.13 0.37,-1.13 0.18,-0.51 -0.04,-0.79 -0.29,-0.16 -0.25,0.62 -1.32,2.78 -1.16,5.31 0.04,0.59 0.43,1.73 1.31,1.76 z M 266.59,8.23 c 0.46,0.00 1.05,-0.33 1.46,-1.77 0.07,-0.32 0.12,-0.58 0.15,-0.71 0.04,-0.19 -0.10,-0.42 -0.25,0.02 -0.33,0.88 -1.20,1.49 -1.85,0.31 -0.11,-0.23 -0.54,-1.30 0.26,-3.64 0.16,-0.45 0.37,-1.13 0.37,-1.13 0.18,-0.51 -0.04,-0.79 -0.29,-0.16 -0.26,0.62 -1.32,2.78 -1.16,5.31 0.04,0.59 0.43,1.73 1.31,1.76 z M 267.10,25.01 c 0.27,-0.72 -0.03,-1.12 -0.41,-0.24 -0.38,0.88 -1.97,3.90 -1.80,7.50 0.04,0.83 0.57,2.46 1.83,2.53 0.66,0.01 1.51,-0.44 2.15,-2.47 0.11,-0.46 0.19,-0.82 0.23,-1.00 0.07,-0.27 -0.13,-0.60 -0.35,0.02 -0.50,1.24 -1.76,2.09 -2.66,0.40 -0.14,-0.33 -0.75,-1.86 0.47,-5.15 0.24,-0.64 0.56,-1.59 0.56,-1.59 z M 233.89,18.85 c 0.31,-0.88 0.02,-1.38 -0.41,-0.31 -0.43,1.07 -2.18,4.74 -2.18,9.17 0.00,1.03 0.45,3.05 1.72,3.17 0.66,0.03 1.54,-0.50 2.29,-2.96 0.13,-0.56 0.23,-1.01 0.28,-1.23 0.08,-0.33 -0.10,-0.75 -0.36,0.02 -0.57,1.51 -1.88,2.51 -2.70,0.40 -0.13,-0.41 -0.66,-2.31 0.72,-6.32 0.28,-0.78 0.64,-1.94 0.64,-1.94 z M 246.93,20.62 c -0.64,-0.53 -2.02,-1.38 -4.01,0.11 -2.18,1.63 -3.40,5.16 -1.31,6.74 1.06,0.81 1.95,0.91 4.59,0.89 1.04,0.00 4.11,0.47 2.73,2.09 -1.38,1.62 -6.06,2.51 -6.90,2.68 -0.84,0.18 -7.59,1.77 -11.12,5.10 -0.98,0.93 -5.84,6.24 -7.26,6.92 -1.42,0.69 -4.68,2.29 -5.70,-2.13 -0.18,-0.82 0.65,-5.72 3.86,-10.21 0.00,-0.01 0.01,-0.01 0.01,-0.02 0.55,-0.46 1.17,-1.39 1.78,-3.11 0.21,-0.68 0.35,-1.23 0.43,-1.50 0.13,-0.41 -0.05,-0.93 -0.41,-0.01 -0.79,1.82 -2.39,2.97 -3.16,0.30 -0.11,-0.52 -0.56,-2.91 1.39,-7.77 0.39,-0.94 0.91,-2.35 0.91,-2.35 0.43,-1.06 0.15,-1.70 -0.44,-0.41 -0.59,1.29 -2.93,5.70 -3.33,11.19 -0.09,1.25 0.24,3.73 1.65,4.03 -1.05,1.47 -3.36,4.70 -3.74,9.34 -0.09,1.09 0.02,5.21 4.46,6.01 0.69,0.11 3.50,0.21 7.52,-4.77 0.71,-0.88 5.57,-5.93 11.56,-7.30 1.63,-0.37 7.78,-2.25 8.85,-3.28 3.51,-3.39 1.31,-9.54 -2.37,-12.56 z M 245.06,25.27 c -2.82,0.52 -2.61,-1.50 -1.03,-2.03 1.44,-0.48 3.01,1.42 3.35,2.07 0.00,0.00 -1.26,-0.24 -2.32,-0.04 z M 294.12,31.26 c 0.19,-0.46 0.17,-0.88 -0.49,-0.54 -0.66,0.34 -8.39,4.11 -9.56,4.35 -1.17,0.24 -5.48,0.49 -8.07,-3.15 -0.55,-0.78 -1.47,-2.30 -1.61,-3.40 -0.09,-0.67 0.24,-1.15 0.71,-1.39 0.46,-0.24 6.21,-4.50 13.01,-2.40 0.75,0.23 1.17,0.15 0.29,-0.64 -0.88,-0.78 -4.01,-2.76 -6.58,-2.47 -2.57,0.29 -6.65,1.03 -8.63,6.21 -0.50,1.32 -0.91,4.23 1.05,6.73 0.56,0.66 3.25,3.06 3.25,3.06 -1.57,0.56 -9.68,3.35 -15.19,0.76 -1.68,-0.79 -4.53,-2.65 -4.85,-10.79 -0.14,-3.56 0.13,-20.43 -1.82,-25.15 -0.26,-0.59 -0.56,-0.43 -0.79,0.43 -0.23,0.86 -0.86,2.67 -0.86,2.67 0.90,3.05 1.68,10.33 1.52,15.02 0.00,2.14 -0.26,16.63 3.79,20.00 0.79,0.66 4.77,4.40 16.86,0.49 1.73,-0.56 16.60,-6.80 16.60,-6.80 0.00,0.00 1.17,-2.52 1.37,-2.98 z M 330.87,7.03 c 0.17,0.10 0.36,0.11 0.41,-0.10 0.05,-0.21 0.29,-0.68 0.62,-0.34 0.28,0.28 2.09,1.78 3.03,4.95 0.16,0.42 0.55,0.46 0.64,-0.14 0.22,-1.47 0.34,-4.02 0.45,-4.79 0.16,-1.09 0.68,-3.32 2.06,-2.16 0.31,0.26 0.64,0.61 0.64,0.61 0.29,0.37 0.66,0.79 0.84,0.36 0.27,-0.64 0.49,-1.70 0.19,-2.28 -0.13,-0.26 -1.84,-2.41 -3.00,-0.93 -1.44,1.83 -1.53,4.23 -1.72,6.91 -0.20,-0.56 -1.35,-4.15 -5.02,-6.21 -0.27,-0.15 -0.81,0.13 -0.86,0.98 -0.03,0.49 -0.17,1.69 0.18,2.03 0.35,0.34 1.37,1.01 1.54,1.10 z M 325.36,20.27 c 0.48,0.00 1.11,-0.35 1.55,-1.87 0.08,-0.34 0.13,-0.62 0.16,-0.75 0.05,-0.21 -0.10,-0.45 -0.26,0.02 -0.36,0.93 -1.28,1.58 -1.96,0.33 -0.11,-0.25 -0.58,-1.38 0.28,-3.86 0.17,-0.48 0.39,-1.20 0.39,-1.20 0.19,-0.54 -0.04,-0.84 -0.31,-0.17 -0.27,0.66 -1.40,2.94 -1.23,5.64 0.04,0.62 0.45,1.83 1.39,1.86 z M 290.99,13.78 c 0.17,-0.04 3.05,-0.49 6.41,-3.05 1.82,-1.38 2.92,-3.74 2.92,-3.74 0.00,0.00 0.91,0.76 1.03,0.91 0.28,0.34 0.43,0.60 0.56,0.23 0.48,-1.33 -0.20,-2.13 -0.84,-2.54 0.00,0.00 0.67,-2.07 -0.56,-4.14 -0.21,-0.35 -1.43,-1.46 -2.85,0.74 -0.55,0.84 -0.96,2.85 -0.17,3.42 0.79,0.58 1.94,1.04 1.94,1.04 -3.66,4.49 -6.16,5.34 -8.30,6.60 -0.55,0.32 -0.44,0.61 -0.12,0.53 z M 298.70,4.39 c -0.47,-0.20 -0.72,-0.50 -0.50,-0.80 0.73,-1.02 1.08,-0.99 1.36,-0.82 0.82,0.77 0.70,2.03 0.67,2.31 0.00,0.00 -1.05,-0.49 -1.52,-0.69 z M 348.71,6.37 c 0.79,0.58 1.94,1.04 1.94,1.04 -3.66,4.48 -10.85,7.67 -12.56,9.01 -0.51,0.39 -0.44,0.61 -0.12,0.53 0.28,-0.08 5.76,-1.61 10.76,-5.90 2.29,-1.97 2.23,-2.11 2.81,-3.31 0.50,0.26 0.84,0.67 1.03,0.91 0.28,0.34 0.43,0.60 0.56,0.23 0.48,-1.33 -0.20,-2.13 -0.84,-2.54 0.00,0.00 0.67,-2.07 -0.56,-4.14 -0.21,-0.35 -1.43,-1.46 -2.85,0.74 -0.55,0.84 -0.96,2.85 -0.17,3.42 z M 349.44,4.34 c 0.73,-1.02 1.08,-0.98 1.36,-0.82 0.82,0.77 0.70,2.03 0.67,2.31 0.00,0.00 -1.05,-0.49 -1.52,-0.69 -0.47,-0.20 -0.72,-0.50 -0.50,-0.80 z M 353.85,37.21 c -0.24,0.68 -0.34,1.12 -0.31,1.38 0.03,0.26 0.12,1.10 0.12,1.10 -0.25,0.20 -1.33,0.87 -2.40,0.08 0.07,-0.23 0.21,-0.70 0.24,-0.95 0.12,-0.40 -0.13,-0.69 -0.32,-0.28 -0.20,0.41 -0.65,1.79 -0.99,2.10 -0.34,0.31 -0.74,1.45 -3.30,0.29 -0.45,-0.17 -1.23,-0.75 -2.46,0.48 -2.77,2.57 -4.68,2.78 -7.79,3.88 -0.38,0.17 -1.16,0.77 -0.23,0.67 0.94,-0.09 4.87,0.00 7.01,-2.46 0.45,-0.43 0.96,-1.58 2.66,-0.92 0.94,0.36 2.68,1.85 4.58,-1.10 1.12,0.75 2.82,0.45 3.09,-0.38 0.27,-0.82 0.58,-1.64 0.58,-2.20 0.00,-0.56 -0.05,-1.30 -0.05,-1.30 -0.04,-0.44 -0.19,-1.07 -0.44,-0.40 z M 351.47,14.30 c 0.18,-0.50 -0.04,-0.77 -0.29,-0.16 -0.25,0.61 -1.30,2.73 -1.14,5.22 0.04,0.58 0.42,1.70 1.29,1.73 0.45,0.00 1.03,-0.33 1.44,-1.74 0.07,-0.32 0.12,-0.57 0.15,-0.70 0.04,-0.19 -0.10,-0.42 -0.24,0.02 -0.33,0.86 -1.18,1.47 -1.82,0.31 -0.10,-0.23 -0.53,-1.28 0.26,-3.57 0.16,-0.44 0.36,-1.11 0.36,-1.11 z M 307.67,12.30 c 0.25,-0.16 13.84,-8.02 14.32,-8.31 0.46,-0.29 0.72,-0.41 0.90,-0.85 0.18,-0.44 0.23,-0.52 0.33,-0.82 0.10,-0.32 0.21,-0.67 -0.61,-0.19 -0.53,0.31 -14.04,8.11 -14.59,8.46 -0.55,0.35 -0.74,0.44 -0.83,0.87 -0.09,0.42 -0.13,0.67 -0.15,0.73 -0.10,0.28 -0.17,0.63 0.64,0.10 z M 298.57,14.16 c -0.06,-0.05 -0.15,-0.03 -0.20,0.04 -1.53,2.10 -1.53,2.10 -1.53,2.10 -0.05,0.07 -0.04,0.16 0.03,0.21 2.61,1.91 2.61,1.91 2.61,1.91 0.06,0.05 0.15,0.03 0.20,-0.04 1.32,-1.81 1.32,-1.81 1.32,-1.81 2.54,1.85 2.54,1.85 2.54,1.85 0.06,0.05 0.15,0.03 0.20,-0.04 1.53,-2.10 1.53,-2.10 1.53,-2.10 0.05,-0.07 0.04,-0.16 -0.03,-0.21 -2.61,-1.91 -2.61,-1.91 -2.61,-1.91 -0.06,-0.05 -0.15,-0.03 -0.20,0.04 -1.32,1.81 -1.32,1.81 -1.32,1.81 z M 297.94,23.91 c 0.00,0.00 1.25,-0.31 1.47,-0.38 0.22,-0.06 0.34,-0.35 -0.05,-0.55 -0.39,-0.20 -4.09,-1.67 -4.37,-1.79 -0.28,-0.11 -0.38,-0.24 -0.41,0.06 -0.02,0.30 -0.07,2.73 -0.07,2.73 0.00,0.00 -0.06,0.17 0.27,0.35 0.32,0.18 0.64,0.58 0.90,0.84 0.26,0.26 3.70,2.98 3.87,3.07 0.00,0.00 -1.72,3.02 -1.94,5.38 -0.22,2.36 0.04,5.63 3.27,4.57 0.87,-0.25 4.49,-1.69 5.30,-4.21 0.26,-0.93 1.01,-2.61 -0.21,-4.31 -0.70,-1.00 -3.53,-2.69 -3.53,-2.69 0.00,0.00 2.17,-3.00 2.38,-3.37 0.21,-0.37 1.00,-2.69 1.09,-3.25 0.09,-0.56 0.13,-0.84 -0.29,-0.32 -0.42,0.52 -4.63,6.05 -4.63,6.05 z M 304.90,32.79 c -1.20,0.99 -3.72,2.29 -4.43,2.36 -0.71,0.07 -2.59,-0.28 -1.77,-2.20 0.28,-0.62 2.16,-3.84 2.16,-3.84 0.70,0.39 5.24,2.70 4.04,3.69 z M 357.05,24.89 c -0.25,-0.28 -0.37,-0.01 -0.46,0.31 -0.09,0.32 -0.36,1.52 -0.54,2.27 0.00,0.00 0.71,1.16 0.97,1.76 0.25,0.59 -0.12,0.92 -0.86,1.01 -2.08,0.25 -3.73,-0.94 -4.30,-1.48 -0.57,-0.55 0.05,-1.52 0.51,-2.68 0.37,-0.93 -0.32,-1.04 -0.84,0.00 -1.76,4.63 -4.23,5.13 -4.88,5.30 -5.86,1.60 -5.36,-3.76 -5.34,-4.64 0.02,-0.88 -0.62,-0.55 -1.34,0.03 -2.47,1.98 -4.45,3.14 -5.52,3.62 -0.92,-1.80 -2.26,-2.93 -2.82,-3.34 -6.34,-4.63 -6.87,4.71 -6.67,5.71 0.97,3.97 7.45,1.56 8.46,1.44 1.02,-0.12 0.68,1.22 0.11,2.02 -1.41,1.97 -3.03,3.38 -4.50,4.57 -6.28,5.13 -9.44,4.72 -10.41,4.69 -6.17,-0.17 -5.60,-6.82 -5.26,-8.24 1.86,-1.57 3.45,-3.28 4.38,-5.04 0.38,-0.96 1.03,-3.16 -0.15,-5.91 -0.62,-1.21 -2.56,-4.60 -2.56,-4.60 0.00,0.00 1.43,0.04 1.57,0.04 0.14,0.00 0.41,-0.14 0.06,-0.54 -0.35,-0.40 -3.36,-3.40 -3.54,-3.65 -0.18,-0.24 -0.35,-0.42 -0.45,-0.06 -0.10,0.36 -0.36,1.88 -0.42,2.20 -0.06,0.31 -0.06,0.63 0.10,0.90 0.16,0.27 0.55,1.20 0.84,1.96 0.29,0.76 3.25,6.47 3.53,6.98 0.27,0.51 0.33,0.88 0.06,1.22 -9.53,10.05 -27.91,16.23 -28.50,16.58 -0.59,0.34 -0.43,0.61 0.56,0.43 1.48,-0.26 9.74,-1.64 12.09,-2.78 1.55,-0.75 6.97,-3.41 11.41,-6.89 -0.12,0.90 -0.24,2.22 -0.17,3.89 0.30,8.08 7.53,6.74 9.43,6.33 5.68,-1.25 12.64,-9.11 13.23,-10.69 0.58,-1.56 0.67,-2.98 0.54,-4.22 1.50,-0.81 4.71,-3.40 4.71,-3.40 0.13,3.45 2.87,4.48 3.72,4.63 3.96,0.60 5.94,-2.70 6.78,-3.78 0.72,1.89 2.45,2.26 3.34,2.43 3.41,0.68 4.08,-1.73 4.25,-2.29 1.07,-3.33 -0.86,-5.81 -1.11,-6.08 z M 328.42,31.57 c -2.02,-0.14 -1.85,-0.92 -1.57,-1.22 0.30,-0.33 2.78,-1.89 4.85,0.89 0.00,0.00 -0.86,0.50 -3.28,0.33 z" />
     </g>
</svg>
