<?xml version="1.0" encoding="UTF-8"?>
<svg version="1.1" id="Layer_1" x="0px" y="0px" width="578" height="52" viewBox="0 0 578 52"
xml:space="preserve" xmlns="http://www.w3.org/2000/svg" xmlns:svg="http://www.w3.org/2000/svg" xmlns:rdf="http://www.w3.org/1999/02/22-rdf-syntax-ns#"  xmlns:cc="http://creativecommons.org/ns#" xmlns:dc="http://purl.org/dc/elements/1.1/">
     <g>
<path d="M 292.31,17.22 c -1.92,2.63 -1.92,2.63 -1.92,2.63 -0.06,0.08 -0.05,0.20 0.03,0.25 3.27,2.38 3.27,2.38 3.27,2.38 0.08,0.06 0.19,0.04 0.25,-0.05 1.91,-2.63 1.91,-2.63 1.91,-2.63 0.06,-0.08 0.05,-0.20 -0.03,-0.26 -3.27,-2.38 -3.27,-2.38 -3.27,-2.38 -0.08,-0.06 -0.19,-0.04 -0.25,0.05 z M 235.15,13.85 c 0.61,0.16 0.93,0.55 1.06,0.78 0.06,0.09 0.16,0.04 0.20,-0.01 0.84,-1.32 0.29,-2.25 -0.87,-2.71 -0.46,-0.18 -0.61,-0.86 1.26,-1.82 1.72,-0.88 18.52,-7.41 18.90,-7.63 0.52,-0.29 0.82,-0.39 1.06,-0.86 0.24,-0.47 0.29,-0.55 0.42,-0.88 0.14,-0.35 0.28,-0.72 -0.66,-0.25 -0.50,0.24 -18.92,7.28 -20.37,8.23 -0.73,0.48 -1.38,1.29 -1.66,2.21 -0.42,1.33 -0.21,2.71 0.66,2.94 z M 224.67,17.54 c -0.90,0.98 -1.18,1.65 -1.45,2.08 -0.37,0.58 0.10,0.84 0.51,0.39 0.42,-0.45 0.71,-0.90 1.93,-0.87 1.22,0.03 4.15,-0.08 3.06,0.72 -1.09,0.81 -1.83,1.27 -1.83,1.27 -0.71,0.51 -1.33,1.46 -0.08,0.93 1.25,-0.53 2.91,-1.37 4.18,-3.28 0.37,-0.56 0.80,-1.30 -0.92,-1.56 -1.72,-0.26 -4.50,-0.66 -5.40,0.32 z M 258.08,15.96 c 0.68,-0.34 4.56,-1.68 5.34,-5.45 0.07,-0.49 -0.02,-0.87 -0.12,-1.13 0.05,0.02 0.11,0.05 0.17,0.11 0.26,0.28 1.92,1.77 2.70,4.82 0.14,0.41 0.51,0.46 0.62,-0.11 0.26,-1.39 0.47,-3.81 0.60,-4.54 0.20,-1.03 0.77,-3.14 2.04,-1.98 0.29,0.26 0.59,0.61 0.59,0.61 0.26,0.36 0.60,0.77 0.78,0.38 0.28,-0.60 0.53,-1.60 0.27,-2.16 -0.12,-0.25 -1.66,-2.36 -2.82,-1.00 -1.44,1.69 -1.61,3.97 -1.89,6.51 -0.17,-0.54 -1.13,-4.00 -4.55,-6.09 -0.25,-0.15 -0.77,0.10 -0.85,0.90 -0.05,0.47 -0.23,1.60 0.09,1.94 0.31,0.32 2.63,1.24 1.30,2.55 -0.60,0.58 -3.58,3.46 -4.23,4.15 -0.65,0.70 -0.71,0.83 -0.03,0.49 z M 281.40,18.37 c -0.55,0.26 -0.46,0.55 -0.15,0.49 0.16,-0.03 2.92,-0.80 6.33,-2.93 2.87,-1.79 5.75,-5.79 5.75,-5.79 0.00,0.00 0.81,0.79 0.91,0.94 0.24,0.34 0.36,0.60 0.51,0.26 0.55,-1.22 -0.03,-2.03 -0.61,-2.47 0.00,0.00 0.79,-1.91 -0.22,-3.97 -0.17,-0.34 -1.25,-1.49 -2.76,0.49 -0.59,0.75 -1.13,2.63 -0.42,3.23 0.70,0.61 1.76,1.13 1.76,1.13 -3.81,3.97 -8.96,7.59 -11.09,8.61 z M 291.99,7.55 c -0.43,-0.23 -0.64,-0.53 -0.41,-0.80 0.77,-0.91 1.10,-0.85 1.35,-0.67 0.72,0.79 0.51,1.97 0.46,2.24 0.00,0.00 -0.96,-0.55 -1.39,-0.77 z M 270.27,24.97 c -0.41,-0.79 -0.16,-2.80 -0.16,-3.27 0.00,-0.47 -0.15,-0.63 -0.35,-0.25 -0.20,0.38 -0.31,0.63 -0.30,0.97 0.01,0.34 0.06,1.81 0.03,2.27 -0.03,0.46 0.00,1.96 0.88,2.38 0.88,0.42 2.17,0.03 3.14,-1.81 0.75,1.09 1.90,1.10 2.51,0.87 0.52,-0.19 1.10,-0.97 1.27,-2.06 0.17,-1.08 -0.11,-1.83 -0.45,-2.44 -0.45,-0.75 -0.75,-2.02 -0.75,-2.02 -0.16,-0.45 -0.28,-0.91 -0.48,-0.29 -0.20,0.62 -0.35,1.11 -0.08,1.82 0.27,0.71 1.00,2.33 1.12,2.56 0.12,0.23 0.15,0.49 -0.25,0.66 -0.40,0.17 -2.24,0.56 -2.58,-1.40 -0.34,-1.96 -0.37,-2.53 -0.54,-2.86 -0.17,-0.33 -0.33,-0.37 -0.46,-0.04 -0.13,0.33 -0.21,1.01 -0.23,1.12 -0.02,0.11 -0.02,0.19 0.05,0.31 0.07,0.12 0.80,2.31 0.47,2.91 -0.33,0.60 -1.98,1.69 -2.84,0.55 z M 229.58,29.15 c -1.32,1.81 -1.32,1.81 -1.32,1.81 -2.54,-1.85 -2.54,-1.85 -2.54,-1.85 -0.06,-0.05 -0.15,-0.03 -0.20,0.04 -1.53,2.10 -1.53,2.10 -1.53,2.10 -0.05,0.07 -0.04,0.16 0.03,0.20 2.61,1.91 2.61,1.91 2.61,1.91 0.06,0.05 0.15,0.03 0.20,-0.04 1.32,-1.81 1.32,-1.81 1.32,-1.81 2.54,1.85 2.54,1.85 2.54,1.85 0.06,0.05 0.15,0.03 0.20,-0.04 1.53,-2.10 1.53,-2.10 1.53,-2.10 0.05,-0.07 0.04,-0.16 -0.03,-0.20 -2.62,-1.91 -2.62,-1.91 -2.62,-1.91 -0.06,-0.05 -0.15,-0.03 -0.20,0.04 z M 221.18,8.42 c 0.17,0.09 0.34,0.10 0.39,-0.09 0.05,-0.20 0.27,-0.65 0.59,-0.32 0.27,0.27 1.99,1.69 2.88,4.71 0.15,0.40 0.52,0.44 0.61,-0.13 0.21,-1.40 0.32,-3.82 0.43,-4.56 0.16,-1.03 0.65,-3.16 1.96,-2.06 0.30,0.25 0.61,0.58 0.61,0.58 0.28,0.35 0.63,0.75 0.80,0.34 0.26,-0.61 0.46,-1.62 0.18,-2.17 -0.12,-0.24 -1.75,-2.30 -2.85,-0.89 -1.37,1.74 -1.46,4.03 -1.64,6.58 -0.19,-0.53 -1.29,-3.95 -4.78,-5.91 -0.25,-0.14 -0.77,0.13 -0.82,0.93 -0.03,0.47 -0.16,1.61 0.17,1.93 0.33,0.32 1.31,0.96 1.47,1.04 z M 280.25,45.48 c -0.55,0.28 -12.39,3.87 -12.96,4.18 -0.57,0.32 -0.77,0.39 -0.88,0.81 -0.11,0.42 -0.17,0.66 -0.20,0.72 -0.12,0.27 -0.21,0.62 0.63,0.14 0.26,-0.15 12.21,-3.79 12.67,-4.05 0.47,-0.27 0.75,-0.36 0.96,-0.79 0.21,-0.42 0.26,-0.50 0.38,-0.80 0.13,-0.32 0.25,-0.65 -0.60,-0.22 z M 279.51,12.90 c 0.48,0.00 1.10,-0.35 1.53,-1.85 0.08,-0.34 0.12,-0.61 0.16,-0.74 0.05,-0.20 -0.10,-0.45 -0.26,0.02 -0.35,0.92 -1.26,1.56 -1.94,0.33 -0.11,-0.24 -0.57,-1.36 0.27,-3.81 0.17,-0.47 0.38,-1.18 0.38,-1.18 0.19,-0.54 -0.04,-0.83 -0.31,-0.17 -0.27,0.65 -1.39,2.91 -1.22,5.57 0.04,0.61 0.45,1.81 1.37,1.84 z M 239.40,47.19 c -0.29,0.76 -1.04,1.30 -1.61,0.27 -0.09,-0.20 -0.47,-1.13 0.23,-3.16 0.14,-0.39 0.32,-0.98 0.32,-0.98 0.16,-0.44 -0.03,-0.68 -0.25,-0.14 -0.22,0.54 -1.15,2.41 -1.01,4.62 0.03,0.51 0.37,1.50 1.14,1.53 0.40,0.00 0.91,-0.29 1.27,-1.54 0.06,-0.28 0.10,-0.51 0.13,-0.62 0.04,-0.17 -0.09,-0.37 -0.21,0.02 z M 260.16,23.17 c 0.21,-0.64 -0.10,-0.96 -0.40,-0.18 -0.30,0.78 -1.58,3.50 -1.19,6.59 0.09,0.71 0.69,2.08 1.88,2.05 0.61,-0.04 1.38,-0.49 1.85,-2.27 0.08,-0.40 0.12,-0.72 0.15,-0.88 0.05,-0.24 -0.16,-0.51 -0.33,0.04 -0.39,1.10 -1.51,1.92 -2.47,0.53 -0.16,-0.28 -0.82,-1.55 0.10,-4.47 0.19,-0.57 0.41,-1.41 0.41,-1.41 z M 241.81,20.01 c 0.19,-0.64 -0.10,-0.96 -0.38,-0.18 -0.28,0.78 -1.47,3.49 -1.09,6.59 0.09,0.72 0.66,2.09 1.76,2.06 0.57,-0.04 1.29,-0.48 1.72,-2.27 0.07,-0.40 0.11,-0.72 0.14,-0.88 0.04,-0.24 -0.15,-0.51 -0.31,0.04 -0.36,1.10 -1.40,1.91 -2.30,0.52 -0.15,-0.28 -0.77,-1.56 0.08,-4.47 0.17,-0.57 0.38,-1.41 0.38,-1.41 z M 300.15,31.98 c -1.98,-7.32 -6.58,-5.98 -7.77,-4.97 -0.94,0.81 -3.85,4.82 -1.52,6.67 1.41,1.21 5.04,1.10 5.63,1.08 0.62,-0.02 1.60,0.01 2.05,0.53 0.45,0.51 0.75,0.73 0.33,0.99 -0.42,0.26 -9.13,4.24 -12.32,4.49 0.40,-0.55 3.30,-4.03 2.05,-6.69 -2.44,-5.32 -8.18,-4.18 -9.22,-3.92 -1.03,0.26 -5.79,2.05 -10.45,10.67 0.00,0.00 -3.03,-0.77 -3.53,-3.92 0.39,-0.92 -0.01,-1.43 -0.58,-0.74 -0.48,0.58 -3.15,5.81 -7.52,5.28 -0.68,-0.08 -3.30,-0.71 -4.39,-4.90 -0.48,-1.91 -1.34,-10.68 -1.34,-10.68 0.00,0.00 -1.59,-15.32 -2.46,-18.60 -0.16,-0.59 -0.25,-0.73 -0.49,-0.20 -0.25,0.53 -0.91,1.24 -0.71,2.94 0.20,1.70 1.52,12.98 1.66,13.90 0.13,0.92 1.23,10.63 0.99,13.09 -0.10,1.04 -0.95,3.31 -5.00,3.43 -0.65,-0.01 -3.18,-0.07 -3.40,-2.41 0.00,-0.35 0.11,-1.65 0.16,-2.01 0.04,-0.36 0.05,-0.77 -0.60,-0.44 -0.65,0.33 -8.08,4.92 -16.40,6.38 -1.39,0.20 -10.79,1.41 -12.08,-5.58 -0.19,-1.04 -0.10,-3.36 1.17,-5.47 0.22,0.11 0.45,0.18 0.71,0.18 0.76,-0.05 1.71,-0.74 2.25,-3.53 0.09,-0.63 0.13,-1.13 0.17,-1.38 0.05,-0.38 -0.21,-0.81 -0.41,0.06 -0.46,1.72 -1.84,2.98 -3.06,0.78 -0.20,-0.44 -1.05,-2.45 0.04,-7.01 0.22,-0.89 0.49,-2.20 0.49,-2.20 0.25,-1.00 -0.15,-1.51 -0.51,-0.29 -0.36,1.22 -1.91,5.46 -1.36,10.32 0.09,0.76 0.47,2.00 1.17,2.71 -0.03,0.04 -0.06,0.09 -0.09,0.14 -0.69,1.19 -4.55,7.95 0.36,12.55 1.54,1.44 8.45,4.41 18.95,-0.54 1.42,-0.66 7.18,-3.52 7.59,-3.80 0.00,0.00 0.27,4.71 4.16,4.64 5.96,-0.10 6.39,-4.94 6.39,-4.94 0.22,0.53 1.23,5.61 6.40,5.76 0.86,0.00 3.74,0.15 6.49,-4.44 0.00,0.00 0.55,2.31 3.23,3.67 -0.29,0.68 -0.68,1.36 -0.85,1.80 -0.18,0.47 0.13,0.81 0.46,0.35 0.25,-0.35 1.02,-1.31 1.37,-1.74 0.66,0.23 1.42,0.40 2.29,0.49 0.89,0.14 8.04,0.77 17.35,-1.56 1.74,-0.42 8.63,-2.19 11.31,-4.75 0.45,-0.43 1.87,-2.24 0.81,-6.16 z M 292.65,31.00 c -1.45,-0.49 -0.40,-1.30 0.43,-1.55 0.83,-0.25 2.76,-0.18 4.13,2.10 0.00,0.00 -2.00,0.13 -4.55,-0.54 z M 270.18,41.26 c 0.00,0.00 5.36,-9.01 10.69,-8.47 5.40,0.55 6.53,4.15 6.27,4.44 -5.97,5.48 -16.60,4.16 -16.96,4.02 z M 338.39,8.20 c 0.17,0.09 0.36,0.11 0.41,-0.10 0.05,-0.21 0.28,-0.68 0.62,-0.34 0.28,0.28 2.09,1.78 3.03,4.95 0.16,0.42 0.55,0.46 0.64,-0.14 0.22,-1.47 0.34,-4.02 0.45,-4.79 0.16,-1.09 0.68,-3.32 2.06,-2.16 0.31,0.26 0.64,0.61 0.64,0.61 0.29,0.37 0.66,0.79 0.84,0.36 0.27,-0.64 0.49,-1.70 0.19,-2.28 -0.13,-0.25 -1.84,-2.41 -3.00,-0.93 -1.44,1.83 -1.53,4.23 -1.72,6.91 -0.20,-0.56 -1.35,-4.15 -5.02,-6.21 -0.27,-0.15 -0.81,0.13 -0.86,0.98 -0.03,0.49 -0.17,1.69 0.18,2.03 0.35,0.34 1.37,1.00 1.54,1.10 z M 359.00,15.47 c 0.18,-0.50 -0.04,-0.77 -0.29,-0.16 -0.25,0.61 -1.30,2.73 -1.14,5.22 0.04,0.58 0.42,1.70 1.29,1.73 0.45,0.00 1.03,-0.33 1.44,-1.73 0.07,-0.32 0.12,-0.57 0.15,-0.70 0.04,-0.19 -0.10,-0.42 -0.24,0.02 -0.33,0.86 -1.18,1.47 -1.82,0.31 -0.10,-0.23 -0.53,-1.28 0.26,-3.57 0.16,-0.44 0.36,-1.11 0.36,-1.11 z M 356.24,7.54 c 0.79,0.58 1.94,1.04 1.94,1.04 -3.66,4.49 -10.85,7.67 -12.56,9.01 -0.51,0.39 -0.44,0.61 -0.12,0.53 0.28,-0.08 5.76,-1.61 10.76,-5.90 2.29,-1.97 2.23,-2.11 2.81,-3.30 0.50,0.26 0.84,0.67 1.03,0.91 0.28,0.34 0.43,0.60 0.56,0.23 0.48,-1.33 -0.20,-2.13 -0.84,-2.54 0.00,0.00 0.67,-2.07 -0.56,-4.14 -0.21,-0.35 -1.43,-1.46 -2.85,0.74 -0.55,0.84 -0.96,2.85 -0.17,3.42 z M 356.97,5.51 c 0.73,-1.02 1.08,-0.99 1.36,-0.82 0.82,0.77 0.70,2.02 0.67,2.31 0.00,0.00 -1.05,-0.49 -1.52,-0.69 -0.47,-0.20 -0.72,-0.50 -0.50,-0.80 z M 332.89,21.45 c 0.48,0.00 1.11,-0.35 1.55,-1.87 0.08,-0.34 0.13,-0.62 0.16,-0.75 0.05,-0.21 -0.10,-0.45 -0.26,0.02 -0.35,0.93 -1.27,1.58 -1.96,0.33 -0.11,-0.25 -0.58,-1.38 0.28,-3.86 0.17,-0.48 0.39,-1.20 0.39,-1.20 0.19,-0.54 -0.04,-0.84 -0.31,-0.17 -0.27,0.66 -1.40,2.94 -1.23,5.63 0.04,0.62 0.45,1.83 1.39,1.87 z M 306.09,15.34 c -0.06,-0.05 -0.15,-0.03 -0.20,0.04 -1.53,2.10 -1.53,2.10 -1.53,2.10 -0.05,0.07 -0.04,0.16 0.03,0.20 2.61,1.91 2.61,1.91 2.61,1.91 0.06,0.05 0.15,0.03 0.20,-0.04 1.32,-1.81 1.32,-1.81 1.32,-1.81 2.54,1.85 2.54,1.85 2.54,1.85 0.06,0.05 0.15,0.03 0.20,-0.04 1.53,-2.10 1.53,-2.10 1.53,-2.10 0.05,-0.07 0.04,-0.16 -0.03,-0.20 -2.61,-1.91 -2.61,-1.91 -2.61,-1.91 -0.06,-0.05 -0.15,-0.03 -0.20,0.04 -1.32,1.81 -1.32,1.81 -1.32,1.81 z M 298.51,14.95 c 0.17,-0.04 3.05,-0.49 6.41,-3.05 1.82,-1.38 2.92,-3.74 2.92,-3.74 0.00,0.00 0.91,0.76 1.03,0.91 0.28,0.34 0.43,0.60 0.56,0.23 0.48,-1.33 -0.20,-2.13 -0.84,-2.54 0.00,0.00 0.67,-2.07 -0.56,-4.14 -0.21,-0.35 -1.43,-1.46 -2.85,0.74 -0.55,0.84 -0.96,2.85 -0.17,3.42 0.79,0.58 1.93,1.04 1.93,1.04 -3.66,4.49 -6.16,5.34 -8.30,6.60 -0.55,0.32 -0.44,0.61 -0.12,0.52 z M 306.23,5.56 c -0.47,-0.20 -0.72,-0.50 -0.50,-0.80 0.73,-1.02 1.08,-0.99 1.36,-0.82 0.82,0.77 0.70,2.02 0.67,2.31 0.00,0.00 -1.05,-0.49 -1.52,-0.69 z M 361.37,38.38 c -0.24,0.68 -0.34,1.12 -0.31,1.38 0.03,0.26 0.12,1.10 0.12,1.10 -0.25,0.20 -1.33,0.87 -2.40,0.08 0.07,-0.23 0.21,-0.70 0.24,-0.95 0.12,-0.40 -0.13,-0.69 -0.32,-0.28 -0.20,0.41 -0.65,1.79 -0.99,2.10 -0.34,0.31 -0.73,1.45 -3.30,0.29 -0.45,-0.17 -1.24,-0.75 -2.46,0.48 -2.77,2.57 -4.68,2.78 -7.79,3.88 -0.38,0.17 -1.16,0.76 -0.23,0.67 0.94,-0.09 4.87,0.00 7.01,-2.46 0.45,-0.43 0.96,-1.58 2.66,-0.92 0.94,0.36 2.68,1.85 4.58,-1.10 1.12,0.75 2.82,0.45 3.09,-0.38 0.27,-0.82 0.58,-1.64 0.58,-2.20 0.00,-0.56 -0.05,-1.30 -0.05,-1.30 -0.04,-0.44 -0.19,-1.07 -0.44,-0.40 z M 364.58,26.06 c -0.25,-0.28 -0.37,-0.01 -0.46,0.31 -0.09,0.32 -0.36,1.52 -0.54,2.27 0.00,0.00 0.71,1.16 0.97,1.75 0.25,0.59 -0.12,0.92 -0.86,1.01 -2.08,0.25 -3.73,-0.94 -4.30,-1.48 -0.57,-0.55 0.05,-1.52 0.51,-2.68 0.37,-0.93 -0.32,-1.04 -0.84,0.00 -1.76,4.63 -4.23,5.12 -4.88,5.30 -5.86,1.60 -5.36,-3.76 -5.34,-4.64 0.02,-0.88 -0.62,-0.55 -1.34,0.03 -2.47,1.98 -4.45,3.14 -5.52,3.62 -0.92,-1.80 -2.26,-2.93 -2.82,-3.34 -6.34,-4.62 -6.87,4.71 -6.67,5.71 0.97,3.97 7.45,1.56 8.46,1.44 1.02,-0.12 0.68,1.22 0.11,2.02 -1.41,1.97 -3.03,3.38 -4.50,4.57 -6.28,5.13 -9.44,4.72 -10.41,4.69 -6.17,-0.17 -5.60,-6.82 -5.26,-8.24 1.86,-1.57 3.45,-3.28 4.38,-5.04 0.38,-0.96 1.03,-3.16 -0.15,-5.91 -0.62,-1.21 -2.56,-4.60 -2.56,-4.60 0.00,0.00 1.43,0.04 1.57,0.04 0.14,0.00 0.41,-0.14 0.06,-0.54 -0.35,-0.40 -3.36,-3.40 -3.54,-3.65 -0.18,-0.24 -0.35,-0.41 -0.45,-0.06 -0.10,0.36 -0.36,1.88 -0.42,2.20 -0.06,0.31 -0.06,0.63 0.10,0.90 0.15,0.27 0.55,1.20 0.84,1.96 0.29,0.76 3.25,6.47 3.53,6.98 0.27,0.51 0.33,0.88 0.06,1.22 -9.53,10.05 -27.91,16.23 -28.50,16.57 -0.59,0.34 -0.43,0.61 0.56,0.43 1.48,-0.26 9.74,-1.64 12.09,-2.77 1.55,-0.75 6.98,-3.41 11.41,-6.89 -0.12,0.90 -0.24,2.22 -0.17,3.89 0.30,8.08 7.53,6.74 9.43,6.33 5.68,-1.25 12.64,-9.11 13.23,-10.69 0.58,-1.56 0.67,-2.98 0.54,-4.22 1.50,-0.81 4.71,-3.40 4.71,-3.40 0.13,3.45 2.88,4.48 3.72,4.63 3.96,0.60 5.94,-2.71 6.78,-3.78 0.72,1.89 2.45,2.25 3.34,2.43 3.41,0.68 4.08,-1.74 4.26,-2.29 1.07,-3.33 -0.86,-5.81 -1.11,-6.08 z M 335.94,32.74 c -2.02,-0.14 -1.85,-0.92 -1.57,-1.23 0.30,-0.33 2.78,-1.89 4.85,0.89 0.00,0.00 -0.86,0.50 -3.28,0.34 z M 315.19,13.47 c 0.25,-0.16 13.84,-8.02 14.32,-8.31 0.46,-0.28 0.72,-0.41 0.91,-0.84 0.18,-0.44 0.23,-0.52 0.33,-0.82 0.11,-0.32 0.21,-0.67 -0.61,-0.19 -0.53,0.31 -14.04,8.11 -14.59,8.46 -0.55,0.35 -0.74,0.44 -0.83,0.87 -0.09,0.42 -0.13,0.67 -0.16,0.73 -0.10,0.28 -0.17,0.63 0.64,0.10 z M 305.47,25.08 c 0.00,0.00 1.25,-0.31 1.47,-0.38 0.22,-0.06 0.34,-0.34 -0.05,-0.55 -0.39,-0.20 -4.09,-1.67 -4.37,-1.79 -0.28,-0.11 -0.38,-0.24 -0.41,0.06 -0.02,0.30 -0.07,2.73 -0.07,2.73 0.00,0.00 -0.06,0.17 0.26,0.35 0.32,0.18 0.64,0.58 0.90,0.84 0.26,0.26 3.70,2.98 3.87,3.07 0.00,0.00 -1.72,3.02 -1.94,5.38 -0.22,2.36 0.04,5.63 3.27,4.57 0.87,-0.25 4.49,-1.69 5.30,-4.21 0.26,-0.93 1.01,-2.61 -0.21,-4.31 -0.70,-1.00 -3.53,-2.69 -3.53,-2.69 0.00,0.00 2.17,-3.00 2.38,-3.37 0.21,-0.37 1.00,-2.69 1.09,-3.26 0.09,-0.56 0.13,-0.84 -0.29,-0.32 -0.42,0.52 -4.63,6.05 -4.63,6.05 z M 312.42,33.96 c -1.20,0.99 -3.72,2.29 -4.43,2.36 -0.71,0.07 -2.59,-0.28 -1.77,-2.20 0.28,-0.62 2.16,-3.84 2.16,-3.84 0.70,0.39 5.24,2.70 4.04,3.69 z" />
     </g>
</svg>
