<?xml version="1.0" encoding="UTF-8"?>
<svg version="1.1" id="Layer_1" x="0px" y="0px" width="578" height="52" viewBox="0 0 578 52"
xml:space="preserve" xmlns="http://www.w3.org/2000/svg" xmlns:svg="http://www.w3.org/2000/svg" xmlns:rdf="http://www.w3.org/1999/02/22-rdf-syntax-ns#"  xmlns:cc="http://creativecommons.org/ns#" xmlns:dc="http://purl.org/dc/elements/1.1/">
     <g>
<path d="M 211.86,15.74 c 0.66,-0.37 4.49,-1.86 5.12,-5.65 0.05,-0.50 -0.05,-0.87 -0.17,-1.12 0.05,0.01 0.11,0.05 0.17,0.11 0.27,0.27 1.99,1.69 2.88,4.71 0.15,0.40 0.53,0.44 0.61,-0.13 0.21,-1.40 0.32,-3.82 0.43,-4.56 0.16,-1.03 0.65,-3.16 1.96,-2.06 0.30,0.25 0.61,0.58 0.61,0.58 0.28,0.35 0.63,0.75 0.80,0.35 0.26,-0.61 0.46,-1.62 0.18,-2.17 -0.12,-0.24 -1.75,-2.29 -2.85,-0.89 -1.37,1.74 -1.46,4.03 -1.64,6.58 -0.19,-0.53 -1.29,-3.95 -4.78,-5.91 -0.25,-0.14 -0.77,0.13 -0.82,0.93 -0.03,0.47 -0.16,1.61 0.17,1.93 0.32,0.31 2.68,1.14 1.40,2.49 -0.57,0.61 -3.45,3.59 -4.06,4.31 -0.62,0.72 -0.68,0.85 -0.01,0.49 z M 262.15,15.15 c 0.16,-0.02 2.96,-0.71 6.46,-2.74 2.94,-1.71 5.97,-5.63 5.97,-5.63 0.00,0.00 0.78,0.82 0.88,0.98 0.23,0.36 0.34,0.61 0.50,0.28 0.60,-1.21 0.04,-2.04 -0.53,-2.51 0.00,0.00 0.86,-1.89 -0.09,-4.00 -0.16,-0.35 -1.20,-1.54 -2.79,0.40 -0.61,0.74 -1.22,2.61 -0.53,3.23 0.69,0.63 1.73,1.20 1.73,1.20 -3.96,3.87 -9.26,7.33 -11.43,8.30 -0.56,0.25 -0.49,0.53 -0.17,0.49 z M 273.32,4.13 c -0.42,-0.24 -0.63,-0.55 -0.39,-0.81 0.80,-0.89 1.13,-0.82 1.38,-0.63 0.70,0.82 0.45,2.00 0.38,2.27 0.00,0.00 -0.95,-0.58 -1.37,-0.82 z M 277.94,13.74 c 0.10,0.20 0.13,0.43 -0.22,0.58 -0.35,0.15 -1.95,0.49 -2.25,-1.22 -0.30,-1.71 -0.32,-2.21 -0.47,-2.49 -0.15,-0.29 -0.29,-0.32 -0.40,-0.04 -0.11,0.29 -0.18,0.88 -0.20,0.98 -0.02,0.10 -0.02,0.17 0.04,0.27 0.06,0.11 0.70,2.01 0.41,2.54 -0.29,0.52 -1.72,1.47 -2.48,0.48 -0.36,-0.69 -0.14,-2.44 -0.14,-2.85 0.00,-0.41 -0.13,-0.55 -0.31,-0.22 -0.17,0.33 -0.27,0.55 -0.26,0.85 0.01,0.30 0.05,1.58 0.03,1.98 -0.03,0.40 0.00,1.71 0.77,2.07 0.77,0.37 1.89,0.03 2.74,-1.58 0.66,0.95 1.65,0.96 2.19,0.76 0.46,-0.17 0.96,-0.85 1.11,-1.79 0.15,-0.95 -0.10,-1.59 -0.39,-2.13 -0.39,-0.66 -0.66,-1.76 -0.66,-1.76 -0.14,-0.39 -0.24,-0.80 -0.42,-0.25 -0.17,0.54 -0.31,0.96 -0.07,1.58 0.24,0.62 0.87,2.03 0.98,2.23 z M 298.36,42.78 c 0.21,-0.44 1.67,-3.47 -0.06,-14.54 -0.13,-0.92 -2.76,-19.64 -2.76,-19.64 0.00,0.00 1.55,1.46 1.80,1.72 0.25,0.26 0.55,0.12 0.41,-0.30 -0.14,-0.42 -3.31,-8.09 -3.42,-8.36 -0.10,-0.27 -0.20,-0.46 -0.33,-0.15 -0.13,0.31 -0.88,2.38 -0.88,2.38 0.20,1.35 1.99,15.83 2.10,16.81 0.12,0.99 2.63,17.36 2.76,21.89 -0.04,0.46 0.17,0.64 0.38,0.19 z M 276.46,18.30 c -1.53,2.10 -1.53,2.10 -1.53,2.10 -0.05,0.07 -0.04,0.16 0.03,0.20 2.61,1.91 2.61,1.91 2.61,1.91 0.06,0.05 0.15,0.03 0.20,-0.04 1.53,-2.10 1.53,-2.10 1.53,-2.10 0.05,-0.07 0.04,-0.16 -0.03,-0.21 -2.61,-1.91 -2.61,-1.91 -2.61,-1.91 -0.06,-0.05 -0.15,-0.03 -0.20,0.04 z M 277.94,24.59 c -2.54,-1.85 -2.54,-1.85 -2.54,-1.85 -0.06,-0.05 -0.15,-0.03 -0.20,0.04 -1.53,2.10 -1.53,2.10 -1.53,2.10 -0.05,0.07 -0.04,0.16 0.03,0.20 2.61,1.91 2.61,1.91 2.61,1.91 0.06,0.05 0.15,0.03 0.20,-0.04 1.32,-1.81 1.32,-1.81 1.32,-1.81 2.54,1.85 2.54,1.85 2.54,1.85 0.06,0.05 0.15,0.03 0.20,-0.04 1.53,-2.10 1.53,-2.10 1.53,-2.10 0.05,-0.07 0.04,-0.16 -0.03,-0.20 -2.61,-1.91 -2.61,-1.91 -2.61,-1.91 -0.06,-0.05 -0.15,-0.03 -0.20,0.04 z M 252.75,17.72 c -0.24,-0.11 -0.70,0.17 -0.69,0.90 0.00,0.43 -0.05,1.48 0.27,1.76 0.32,0.28 1.26,0.80 1.41,0.87 0.16,0.07 0.32,0.07 0.35,-0.11 0.03,-0.18 0.21,-0.61 0.52,-0.33 0.26,0.23 1.93,1.43 2.93,4.15 0.17,0.36 0.51,0.37 0.55,-0.16 0.10,-1.29 0.06,-3.52 0.12,-4.20 0.08,-0.96 0.40,-2.94 1.67,-2.01 0.29,0.21 0.60,0.50 0.60,0.50 0.28,0.30 0.62,0.65 0.75,0.27 0.20,-0.57 0.33,-1.51 0.04,-2.00 -0.13,-0.22 -1.74,-2.00 -2.67,-0.64 -1.15,1.68 -1.09,3.78 -1.10,6.13 -0.21,-0.48 -1.42,-3.55 -4.74,-5.13 z M 240.57,14.64 c 0.27,-0.14 16.05,-7.84 16.54,-8.10 0.48,-0.25 0.72,-0.41 0.91,-0.85 0.18,-0.44 0.23,-0.51 0.33,-0.82 0.10,-0.32 0.25,-0.58 -0.61,-0.19 -0.61,0.28 -16.20,7.95 -16.82,8.25 -0.59,0.28 -0.74,0.44 -0.83,0.87 -0.09,0.42 -0.13,0.67 -0.16,0.73 -0.10,0.28 -0.17,0.53 0.64,0.10 z M 293.84,42.19 c -0.43,1.06 -1.47,1.78 -2.17,0.31 -0.11,-0.29 -0.58,-1.62 0.46,-4.44 0.21,-0.55 0.48,-1.37 0.48,-1.37 0.23,-0.62 -0.01,-0.97 -0.33,-0.21 -0.33,0.75 -1.67,3.35 -1.59,6.46 0.02,0.72 0.42,2.14 1.45,2.21 0.53,0.02 1.24,-0.36 1.79,-2.10 0.10,-0.39 0.16,-0.71 0.21,-0.87 0.06,-0.24 -0.10,-0.52 -0.29,0.01 z M 236.81,11.43 c 0.52,-0.03 1.17,-0.41 1.56,-1.92 0.06,-0.34 0.10,-0.61 0.13,-0.75 0.04,-0.20 -0.14,-0.43 -0.28,0.04 -0.33,0.93 -1.27,1.62 -2.08,0.44 -0.13,-0.23 -0.69,-1.31 0.08,-3.77 0.16,-0.48 0.35,-1.19 0.35,-1.19 0.18,-0.54 -0.09,-0.81 -0.34,-0.15 -0.25,0.66 -1.34,2.95 -1.00,5.56 0.08,0.60 0.58,1.76 1.59,1.73 z M 280.83,40.37 c -0.24,0.68 -0.34,1.12 -0.31,1.38 0.03,0.26 0.12,1.10 0.12,1.10 -0.25,0.20 -1.33,0.87 -2.40,0.08 0.07,-0.23 0.21,-0.70 0.24,-0.95 0.12,-0.40 -0.13,-0.69 -0.32,-0.28 -0.20,0.41 -0.65,1.79 -0.99,2.10 -0.34,0.31 -0.73,1.45 -3.30,0.29 -0.45,-0.17 -1.24,-0.75 -2.46,0.48 -2.77,2.57 -4.68,2.78 -7.79,3.88 -0.38,0.17 -1.16,0.77 -0.23,0.67 0.94,-0.09 4.87,0.00 7.01,-2.46 0.45,-0.43 0.96,-1.58 2.66,-0.92 0.94,0.36 2.68,1.85 4.58,-1.10 1.12,0.75 2.82,0.45 3.09,-0.38 0.27,-0.82 0.58,-1.64 0.58,-2.20 0.00,-0.56 -0.05,-1.30 -0.05,-1.30 -0.04,-0.44 -0.19,-1.07 -0.44,-0.40 z M 288.77,10.00 c 0.25,0.26 0.55,0.12 0.41,-0.30 -0.14,-0.42 -3.04,-7.78 -3.15,-8.05 -0.10,-0.27 -0.20,-0.46 -0.33,-0.15 -0.13,0.31 -1.15,2.55 -1.15,2.55 0.03,0.18 0.27,0.73 0.43,1.87 0.17,1.18 0.42,2.86 0.69,4.72 0.00,0.00 0.61,4.54 1.27,9.53 0.00,0.00 1.71,13.13 1.40,13.66 -0.31,0.53 -3.33,1.46 -4.96,-1.26 0.00,0.00 0.27,-0.72 0.38,-0.98 0.18,-0.38 0.10,-1.04 -0.45,-0.34 -0.55,0.70 -1.84,3.61 -3.66,4.27 -0.29,0.12 -2.37,0.34 -2.42,-1.82 0.09,-0.22 0.28,-0.74 0.39,-1.03 0.11,-0.30 0.09,-1.06 -0.53,-0.38 -0.61,0.68 -2.31,3.72 -5.31,3.93 -0.77,0.06 -4.03,0.17 -3.86,-3.61 0.09,-0.56 0.79,-2.66 -0.36,-1.88 -0.99,0.68 -4.88,2.84 -6.33,3.55 -0.28,-0.71 -0.68,-1.46 -1.27,-2.21 -1.74,-2.03 -3.67,-3.10 -5.79,-0.78 -2.42,2.65 -2.24,4.63 -1.03,5.77 0.49,0.46 2.51,1.42 6.29,0.85 0.43,-0.06 1.79,-0.12 1.11,0.88 -0.68,0.99 -6.49,7.57 -12.70,7.69 -0.79,0.02 -6.05,-0.59 -4.49,-6.40 0.00,-0.02 0.01,-0.05 0.01,-0.07 2.49,-1.69 4.70,-3.66 5.79,-5.81 0.47,-0.93 1.38,-2.84 0.27,-5.79 -0.48,-1.27 -2.56,-4.60 -2.56,-4.60 0.04,-0.11 0.04,-0.11 0.04,-0.11 0.00,0.00 1.39,0.15 1.53,0.15 0.14,0.00 0.41,-0.14 0.06,-0.54 -0.35,-0.40 -3.36,-3.40 -3.54,-3.65 -0.18,-0.24 -0.35,-0.42 -0.45,-0.06 -0.10,0.36 -0.36,1.88 -0.42,2.20 -0.06,0.31 -0.06,0.63 0.10,0.90 0.15,0.27 0.55,1.20 0.84,1.96 0.29,0.76 3.25,6.47 3.53,6.98 0.27,0.51 -0.10,0.73 -0.38,1.06 -9.75,9.62 -28.14,15.19 -28.73,15.53 -0.59,0.34 -0.43,0.61 0.56,0.43 1.48,-0.26 9.74,-1.64 12.09,-2.77 1.40,-0.67 6.08,-2.56 10.29,-5.23 -0.58,2.80 -0.80,6.64 1.99,8.30 0.68,0.40 5.83,2.92 14.79,-5.74 2.16,-2.09 2.54,-4.93 2.54,-4.93 0.03,-0.27 0.08,-0.74 0.06,-1.34 1.80,-0.90 4.69,-2.48 4.80,-2.60 0.00,0.00 0.06,6.08 5.25,4.86 0.64,-0.16 1.99,-0.42 4.08,-2.66 0.09,1.40 3.47,4.40 6.19,-0.86 0.47,0.52 2.05,2.23 4.80,1.76 0.68,-0.15 2.96,-0.66 2.97,-6.10 0.07,-0.99 -2.64,-22.74 -2.64,-22.74 0.00,0.00 1.28,1.14 1.53,1.41 z M 255.98,35.04 c -2.01,-0.34 -1.69,-1.09 -0.63,-1.70 0.95,-0.55 2.45,-0.23 3.60,1.73 0.00,0.00 -1.10,0.29 -2.97,-0.03 z M 221.37,35.09 c 0.11,-0.30 1.62,-7.61 -3.07,-12.63 -0.52,-0.55 -0.54,-0.31 -0.67,-0.07 -0.14,0.24 -0.41,1.31 -0.41,1.31 0.32,0.47 4.38,4.50 3.92,10.99 -0.02,0.38 0.12,0.71 0.23,0.41 z M 230.76,38.17 c 0.88,-0.60 6.72,-4.10 6.85,-8.26 0.02,-0.97 -0.26,-2.95 -3.41,-3.06 -1.17,0.02 -4.80,0.29 -5.92,-0.40 -1.12,-0.68 -2.31,-1.67 -0.68,-4.05 0.86,-1.28 5.15,-5.44 7.08,-4.55 1.04,0.48 1.50,1.14 1.68,1.33 0.17,0.19 0.28,0.24 0.34,0.12 0.06,-0.12 1.04,-1.65 0.73,-2.62 -0.91,-2.43 -2.68,-2.19 -3.75,-1.79 -1.07,0.40 -6.66,2.90 -8.13,10.33 -0.17,0.87 -0.97,4.95 5.07,5.03 0.73,0.01 4.19,-0.41 5.10,0.36 0.33,0.28 0.20,0.38 -0.23,0.81 -0.43,0.43 -5.29,4.33 -10.33,6.31 -1.79,0.71 -10.16,3.05 -12.72,-2.82 -0.34,-0.79 -1.72,-4.84 0.99,-11.18 0.21,-0.48 0.09,-1.25 -0.57,-0.33 -0.66,0.92 -5.51,11.42 0.02,16.43 1.05,0.96 7.41,5.42 17.87,-1.69 z M 340.33,7.69 c 0.17,0.09 0.36,0.11 0.41,-0.10 0.05,-0.21 0.29,-0.68 0.62,-0.34 0.28,0.28 2.09,1.78 3.03,4.95 0.16,0.42 0.55,0.46 0.64,-0.14 0.22,-1.47 0.34,-4.02 0.45,-4.79 0.16,-1.09 0.68,-3.32 2.06,-2.16 0.31,0.26 0.64,0.61 0.64,0.61 0.29,0.37 0.66,0.79 0.84,0.36 0.27,-0.64 0.49,-1.70 0.19,-2.28 -0.13,-0.26 -1.84,-2.41 -3.00,-0.93 -1.44,1.83 -1.53,4.23 -1.72,6.91 -0.20,-0.56 -1.35,-4.16 -5.02,-6.21 -0.27,-0.15 -0.81,0.13 -0.86,0.98 -0.03,0.49 -0.17,1.69 0.18,2.03 0.35,0.34 1.37,1.01 1.54,1.10 z M 360.94,14.96 c 0.18,-0.50 -0.04,-0.77 -0.29,-0.16 -0.25,0.61 -1.30,2.73 -1.14,5.22 0.04,0.58 0.42,1.70 1.29,1.73 0.45,0.00 1.03,-0.33 1.44,-1.74 0.07,-0.32 0.12,-0.57 0.15,-0.70 0.04,-0.19 -0.10,-0.42 -0.24,0.02 -0.33,0.86 -1.18,1.47 -1.82,0.31 -0.10,-0.23 -0.53,-1.28 0.26,-3.57 0.16,-0.45 0.36,-1.11 0.36,-1.11 z M 334.83,20.93 c 0.48,0.00 1.11,-0.35 1.55,-1.87 0.08,-0.34 0.13,-0.62 0.16,-0.75 0.05,-0.21 -0.10,-0.45 -0.26,0.02 -0.35,0.93 -1.27,1.58 -1.96,0.34 -0.11,-0.25 -0.58,-1.38 0.28,-3.86 0.17,-0.48 0.39,-1.20 0.39,-1.20 0.19,-0.54 -0.04,-0.84 -0.31,-0.17 -0.27,0.66 -1.40,2.94 -1.23,5.64 0.04,0.62 0.45,1.83 1.39,1.87 z M 366.52,25.55 c -0.25,-0.28 -0.37,-0.01 -0.46,0.31 -0.09,0.32 -0.36,1.52 -0.53,2.27 0.00,0.00 0.71,1.16 0.97,1.75 0.25,0.59 -0.12,0.92 -0.86,1.01 -2.08,0.25 -3.73,-0.94 -4.30,-1.48 -0.57,-0.55 0.05,-1.52 0.51,-2.68 0.37,-0.93 -0.32,-1.04 -0.84,0.00 -1.76,4.63 -4.23,5.12 -4.88,5.30 -5.86,1.60 -5.36,-3.76 -5.34,-4.64 0.02,-0.88 -0.62,-0.55 -1.34,0.03 -2.47,1.98 -4.45,3.14 -5.52,3.62 -0.92,-1.80 -2.26,-2.93 -2.82,-3.34 -6.34,-4.63 -6.86,4.71 -6.67,5.71 0.97,3.97 7.44,1.56 8.46,1.44 1.02,-0.12 0.68,1.22 0.11,2.02 -1.41,1.97 -3.03,3.38 -4.50,4.58 -6.28,5.13 -9.44,4.72 -10.41,4.69 -6.17,-0.17 -5.60,-6.82 -5.26,-8.24 1.86,-1.57 3.45,-3.28 4.38,-5.04 0.38,-0.96 1.03,-3.16 -0.15,-5.91 -0.62,-1.21 -2.56,-4.60 -2.56,-4.60 0.00,0.00 1.43,0.04 1.57,0.04 0.14,0.00 0.41,-0.14 0.06,-0.55 -0.35,-0.40 -3.36,-3.40 -3.54,-3.65 -0.18,-0.24 -0.35,-0.41 -0.45,-0.06 -0.10,0.36 -0.36,1.88 -0.42,2.20 -0.06,0.31 -0.06,0.63 0.10,0.90 0.15,0.27 0.55,1.20 0.84,1.96 0.29,0.76 3.26,6.47 3.53,6.98 0.27,0.51 0.33,0.88 0.06,1.22 -9.53,10.05 -27.91,16.23 -28.50,16.57 -0.59,0.34 -0.43,0.61 0.56,0.43 1.48,-0.26 9.74,-1.64 12.09,-2.77 1.55,-0.75 6.98,-3.41 11.41,-6.89 -0.12,0.90 -0.24,2.22 -0.18,3.89 0.30,8.08 7.53,6.74 9.43,6.33 5.68,-1.25 12.64,-9.11 13.23,-10.69 0.58,-1.56 0.67,-2.98 0.54,-4.22 1.50,-0.81 4.71,-3.40 4.71,-3.40 0.13,3.45 2.88,4.48 3.72,4.63 3.96,0.60 5.94,-2.71 6.78,-3.78 0.72,1.89 2.45,2.25 3.34,2.43 3.41,0.68 4.08,-1.74 4.26,-2.29 1.07,-3.33 -0.86,-5.81 -1.11,-6.08 z M 337.88,32.23 c -2.03,-0.14 -1.85,-0.92 -1.57,-1.23 0.30,-0.33 2.78,-1.89 4.85,0.89 0.00,0.00 -0.86,0.50 -3.28,0.34 z M 358.18,7.03 c 0.79,0.58 1.93,1.04 1.93,1.04 -3.66,4.48 -10.84,7.67 -12.55,9.01 -0.51,0.39 -0.44,0.61 -0.12,0.53 0.29,-0.08 5.76,-1.61 10.76,-5.90 2.29,-1.97 2.23,-2.11 2.82,-3.31 0.50,0.26 0.84,0.67 1.03,0.91 0.28,0.34 0.43,0.60 0.56,0.23 0.48,-1.33 -0.20,-2.13 -0.84,-2.54 0.00,0.00 0.67,-2.07 -0.56,-4.14 -0.21,-0.35 -1.43,-1.46 -2.85,0.74 -0.55,0.84 -0.96,2.85 -0.17,3.42 z M 358.91,5.00 c 0.73,-1.02 1.08,-0.99 1.36,-0.82 0.82,0.77 0.70,2.03 0.67,2.31 0.00,0.00 -1.05,-0.49 -1.52,-0.69 -0.47,-0.20 -0.72,-0.50 -0.50,-0.80 z M 300.45,14.44 c 0.17,-0.04 3.05,-0.49 6.41,-3.05 1.82,-1.38 2.92,-3.74 2.92,-3.74 0.00,0.00 0.91,0.76 1.03,0.91 0.28,0.34 0.43,0.60 0.56,0.23 0.48,-1.33 -0.20,-2.13 -0.84,-2.54 0.00,0.00 0.67,-2.07 -0.56,-4.14 -0.21,-0.35 -1.43,-1.46 -2.85,0.74 -0.55,0.84 -0.96,2.85 -0.17,3.42 0.79,0.58 1.93,1.04 1.93,1.04 -3.66,4.48 -6.16,5.34 -8.30,6.59 -0.55,0.32 -0.44,0.61 -0.12,0.53 z M 308.17,5.04 c -0.47,-0.20 -0.72,-0.50 -0.50,-0.80 0.73,-1.02 1.08,-0.98 1.36,-0.82 0.83,0.77 0.70,2.03 0.67,2.31 0.00,0.00 -1.05,-0.49 -1.52,-0.70 z M 317.14,12.96 c 0.25,-0.16 13.84,-8.02 14.32,-8.31 0.46,-0.29 0.72,-0.41 0.91,-0.85 0.18,-0.44 0.23,-0.51 0.33,-0.82 0.10,-0.32 0.21,-0.67 -0.61,-0.19 -0.53,0.31 -14.04,8.11 -14.59,8.46 -0.55,0.35 -0.74,0.44 -0.83,0.86 -0.09,0.42 -0.13,0.67 -0.16,0.73 -0.10,0.28 -0.17,0.63 0.64,0.10 z M 307.41,24.57 c 0.00,0.00 1.25,-0.31 1.47,-0.38 0.22,-0.06 0.34,-0.35 -0.05,-0.55 -0.39,-0.20 -4.09,-1.67 -4.37,-1.79 -0.28,-0.11 -0.38,-0.24 -0.41,0.06 -0.02,0.30 -0.07,2.73 -0.07,2.73 0.00,0.00 -0.06,0.17 0.27,0.35 0.32,0.18 0.64,0.58 0.90,0.84 0.26,0.26 3.70,2.98 3.87,3.07 0.00,0.00 -1.72,3.02 -1.94,5.38 -0.22,2.36 0.04,5.63 3.27,4.57 0.87,-0.25 4.49,-1.69 5.30,-4.21 0.26,-0.93 1.01,-2.61 -0.21,-4.31 -0.70,-1.00 -3.53,-2.69 -3.53,-2.69 0.00,0.00 2.17,-3.00 2.38,-3.37 0.21,-0.37 1.00,-2.69 1.09,-3.26 0.09,-0.56 0.13,-0.84 -0.29,-0.32 -0.42,0.52 -4.63,6.05 -4.63,6.05 z M 314.37,33.45 c -1.20,0.99 -3.72,2.29 -4.43,2.36 -0.71,0.07 -2.59,-0.28 -1.77,-2.20 0.28,-0.62 2.16,-3.84 2.16,-3.84 0.70,0.39 5.24,2.70 4.04,3.69 z M 308.03,14.82 c -0.06,-0.05 -0.15,-0.03 -0.20,0.04 -1.53,2.10 -1.53,2.10 -1.53,2.10 -0.05,0.07 -0.04,0.16 0.03,0.21 2.61,1.91 2.61,1.91 2.61,1.91 0.06,0.05 0.15,0.03 0.20,-0.04 1.32,-1.81 1.32,-1.81 1.32,-1.81 2.54,1.85 2.54,1.85 2.54,1.85 0.06,0.05 0.15,0.03 0.20,-0.04 1.53,-2.10 1.53,-2.10 1.53,-2.10 0.05,-0.07 0.04,-0.16 -0.03,-0.20 -2.62,-1.91 -2.62,-1.91 -2.62,-1.91 -0.06,-0.05 -0.15,-0.03 -0.20,0.04 -1.32,1.81 -1.32,1.81 -1.32,1.81 z M 363.31,37.87 c -0.24,0.68 -0.34,1.12 -0.31,1.38 0.03,0.26 0.11,1.10 0.11,1.10 -0.25,0.20 -1.33,0.87 -2.40,0.08 0.07,-0.23 0.21,-0.70 0.24,-0.95 0.12,-0.40 -0.13,-0.69 -0.32,-0.28 -0.20,0.41 -0.65,1.79 -0.99,2.10 -0.34,0.31 -0.73,1.45 -3.30,0.29 -0.45,-0.17 -1.23,-0.75 -2.46,0.48 -2.77,2.57 -4.68,2.78 -7.79,3.88 -0.38,0.17 -1.16,0.76 -0.23,0.67 0.94,-0.09 4.87,0.00 7.01,-2.46 0.45,-0.43 0.96,-1.58 2.66,-0.92 0.94,0.36 2.68,1.85 4.58,-1.10 1.12,0.75 2.82,0.45 3.09,-0.38 0.27,-0.82 0.58,-1.64 0.58,-2.20 0.00,-0.56 -0.05,-1.30 -0.05,-1.30 -0.04,-0.44 -0.19,-1.07 -0.44,-0.40 z" />
     </g>
</svg>
