<?xml version="1.0" encoding="UTF-8"?>
<svg version="1.1" id="Layer_1" x="0px" y="0px" width="578" height="52" viewBox="0 0 578 52"
xml:space="preserve" xmlns="http://www.w3.org/2000/svg" xmlns:svg="http://www.w3.org/2000/svg" xmlns:rdf="http://www.w3.org/1999/02/22-rdf-syntax-ns#"  xmlns:cc="http://creativecommons.org/ns#" xmlns:dc="http://purl.org/dc/elements/1.1/">
     <g>
<path d="M 230.38,13.82 c -1.92,2.63 -1.92,2.63 -1.92,2.63 -0.06,0.08 -0.05,0.20 0.03,0.25 3.27,2.38 3.27,2.38 3.27,2.38 0.08,0.06 0.19,0.04 0.25,-0.05 1.91,-2.63 1.91,-2.63 1.91,-2.63 0.06,-0.08 0.05,-0.20 -0.03,-0.26 -3.27,-2.38 -3.27,-2.38 -3.27,-2.38 -0.08,-0.06 -0.19,-0.04 -0.25,0.05 z M 257.98,12.72 c -1.92,2.63 -1.92,2.63 -1.92,2.63 -0.06,0.08 -0.05,0.20 0.03,0.25 3.27,2.38 3.27,2.38 3.27,2.38 0.08,0.06 0.19,0.04 0.25,-0.05 1.91,-2.63 1.91,-2.63 1.91,-2.63 0.06,-0.08 0.05,-0.20 -0.03,-0.25 -3.27,-2.38 -3.27,-2.38 -3.27,-2.38 -0.08,-0.06 -0.19,-0.04 -0.25,0.05 z M 279.83,26.18 c -1.92,2.63 -1.92,2.63 -1.92,2.63 -0.06,0.08 -0.05,0.20 0.03,0.25 3.27,2.38 3.27,2.38 3.27,2.38 0.08,0.06 0.19,0.04 0.25,-0.05 1.91,-2.63 1.91,-2.63 1.91,-2.63 0.06,-0.08 0.05,-0.20 -0.03,-0.25 -3.27,-2.38 -3.27,-2.38 -3.27,-2.38 -0.08,-0.06 -0.19,-0.04 -0.25,0.05 z M 259.91,7.02 c 0.40,-0.50 0.67,-0.99 1.94,-1.04 1.27,-0.06 4.29,-0.39 3.22,0.52 -1.07,0.92 -1.81,1.45 -1.81,1.45 -0.70,0.58 -1.27,1.62 -0.01,0.97 1.26,-0.64 2.91,-1.63 4.09,-3.71 0.34,-0.60 0.74,-1.41 -1.07,-1.55 -1.80,-0.14 -4.72,-0.35 -5.58,0.74 -0.86,1.08 -1.10,1.80 -1.34,2.26 -0.34,0.63 0.16,0.86 0.56,0.36 z M 239.67,18.99 c 0.17,-0.05 3.03,-1.22 6.42,-3.91 2.85,-2.27 5.45,-6.90 5.45,-6.90 0.00,0.00 0.96,0.75 1.09,0.90 0.29,0.34 0.46,0.60 0.58,0.22 0.45,-1.38 -0.28,-2.18 -0.95,-2.58 0.00,0.00 0.62,-2.14 -0.72,-4.23 -0.22,-0.35 -1.52,-1.44 -2.90,0.86 -0.54,0.88 -0.89,2.95 -0.06,3.51 0.83,0.56 2.02,1.00 2.02,1.00 -3.60,4.72 -8.68,9.22 -10.83,10.58 -0.55,0.35 -0.43,0.64 -0.10,0.54 z M 249.80,5.56 c -0.49,-0.19 -0.75,-0.49 -0.54,-0.80 0.71,-1.07 1.08,-1.05 1.36,-0.89 0.87,0.76 0.79,2.05 0.76,2.35 0.00,0.00 -1.10,-0.47 -1.59,-0.66 z M 277.15,6.83 c -4.19,4.20 -9.83,7.98 -12.14,9.04 -0.60,0.27 -0.51,0.58 -0.18,0.53 0.18,-0.03 3.17,-0.80 6.89,-3.02 3.13,-1.87 6.32,-6.11 6.32,-6.11 0.00,0.00 0.85,0.87 0.96,1.04 0.25,0.38 0.37,0.65 0.54,0.30 0.62,-1.31 0.02,-2.19 -0.60,-2.68 0.00,0.00 0.90,-2.04 -0.15,-4.29 -0.18,-0.38 -1.31,-1.63 -2.98,0.46 -0.65,0.80 -1.27,2.81 -0.53,3.47 0.74,0.67 1.87,1.26 1.87,1.26 z M 276.24,3.57 c 0.85,-0.97 1.21,-0.89 1.47,-0.70 0.76,0.87 0.51,2.14 0.44,2.43 0.00,0.00 -1.02,-0.61 -1.48,-0.87 -0.46,-0.25 -0.68,-0.58 -0.43,-0.87 z M 278.99,12.60 c -0.13,0.33 -0.21,1.01 -0.23,1.13 -0.02,0.11 -0.02,0.19 0.05,0.31 0.07,0.12 0.80,2.31 0.47,2.91 -0.33,0.60 -1.98,1.69 -2.84,0.55 -0.41,-0.79 -0.16,-2.80 -0.16,-3.27 0.00,-0.47 -0.15,-0.63 -0.35,-0.25 -0.20,0.38 -0.31,0.63 -0.30,0.97 0.01,0.34 0.06,1.81 0.03,2.27 -0.03,0.46 0.00,1.96 0.88,2.38 0.88,0.42 2.17,0.03 3.14,-1.81 0.75,1.09 1.90,1.10 2.51,0.87 0.52,-0.19 1.10,-0.98 1.28,-2.06 0.17,-1.08 -0.11,-1.83 -0.45,-2.44 -0.45,-0.75 -0.75,-2.02 -0.75,-2.02 -0.16,-0.45 -0.28,-0.91 -0.48,-0.29 -0.20,0.62 -0.35,1.10 -0.08,1.82 0.27,0.71 1.00,2.33 1.12,2.56 0.12,0.23 0.15,0.49 -0.25,0.66 -0.40,0.17 -2.24,0.56 -2.58,-1.40 -0.34,-1.96 -0.37,-2.53 -0.54,-2.86 -0.17,-0.33 -0.33,-0.37 -0.46,-0.04 z M 299.52,42.69 c 0.22,-0.44 1.74,-3.43 0.22,-14.54 -0.11,-0.92 -2.37,-19.69 -2.37,-19.69 0.00,0.00 1.52,1.48 1.76,1.75 0.24,0.27 0.55,0.13 0.41,-0.29 -0.13,-0.43 -3.16,-8.16 -3.25,-8.43 -0.10,-0.27 -0.19,-0.46 -0.33,-0.16 -0.13,0.30 -0.93,2.37 -0.93,2.37 0.18,1.35 1.68,15.86 1.78,16.85 0.10,0.99 2.29,17.41 2.33,21.94 -0.04,0.46 0.15,0.64 0.37,0.20 z M 224.31,43.89 c -0.58,0.19 -7.21,2.56 -7.86,2.82 -0.60,0.24 -0.77,0.40 -0.88,0.81 -0.11,0.41 -0.17,0.66 -0.20,0.72 -0.12,0.28 -0.26,0.51 0.63,0.14 0.43,-0.18 6.96,-2.42 7.58,-2.69 0.49,-0.22 0.75,-0.36 0.96,-0.79 0.21,-0.42 0.26,-0.50 0.38,-0.80 0.12,-0.32 0.27,-0.51 -0.60,-0.22 z M 290.89,45.28 c -0.43,0.89 -1.40,1.45 -1.97,0.15 -0.09,-0.25 -0.45,-1.41 0.62,-3.78 0.21,-0.46 0.49,-1.15 0.49,-1.15 0.24,-0.52 0.04,-0.83 -0.29,-0.20 -0.33,0.63 -1.65,2.78 -1.71,5.45 -0.02,0.62 0.28,1.85 1.20,1.96 0.48,0.04 1.13,-0.25 1.70,-1.71 0.11,-0.33 0.18,-0.60 0.22,-0.73 0.06,-0.20 -0.06,-0.45 -0.26,0.00 z M 246.06,21.68 c 0.15,-0.58 -0.09,-0.88 -0.31,-0.17 -0.22,0.72 -1.19,3.20 -0.86,6.04 0.08,0.66 0.55,1.92 1.46,1.90 0.47,-0.03 1.06,-0.43 1.40,-2.07 0.05,-0.37 0.08,-0.66 0.11,-0.81 0.03,-0.22 -0.13,-0.47 -0.25,0.04 -0.29,1.01 -1.14,1.75 -1.89,0.46 -0.12,-0.26 -0.64,-1.43 0.04,-4.10 0.14,-0.52 0.31,-1.29 0.31,-1.29 z M 253.85,46.38 c -0.40,0.90 -1.34,1.50 -1.93,0.21 -0.09,-0.25 -0.48,-1.41 0.51,-3.81 0.20,-0.47 0.45,-1.16 0.45,-1.16 0.22,-0.52 0.02,-0.83 -0.29,-0.19 -0.30,0.64 -1.55,2.84 -1.55,5.52 0.00,0.62 0.33,1.85 1.23,1.94 0.47,0.03 1.10,-0.28 1.63,-1.77 0.10,-0.34 0.16,-0.61 0.20,-0.74 0.06,-0.20 -0.07,-0.45 -0.26,0.01 z M 223.08,22.43 c 0.22,-0.90 -0.13,-1.37 -0.46,-0.26 -0.32,1.11 -1.72,4.93 -1.23,9.31 0.12,1.01 0.81,2.96 2.15,2.94 0.69,-0.04 1.54,-0.67 2.03,-3.19 0.08,-0.57 0.12,-1.02 0.15,-1.25 0.05,-0.34 -0.19,-0.73 -0.37,0.06 -0.42,1.55 -1.66,2.69 -2.76,0.70 -0.18,-0.40 -0.95,-2.21 0.04,-6.33 0.20,-0.80 0.44,-1.99 0.44,-1.99 z M 235.72,13.65 c 0.66,-0.01 1.51,-0.56 2.10,-2.96 0.10,-0.54 0.16,-0.97 0.21,-1.19 0.06,-0.32 -0.15,-0.71 -0.36,0.03 -0.47,1.47 -1.72,2.50 -2.68,0.54 -0.15,-0.39 -0.80,-2.16 0.34,-6.06 0.23,-0.76 0.52,-1.88 0.52,-1.88 0.26,-0.85 -0.06,-1.31 -0.43,-0.27 -0.36,1.04 -1.88,4.64 -1.62,8.86 0.06,0.98 0.64,2.88 1.91,2.92 z M 217.26,8.08 c 0.17,0.08 0.34,0.09 0.38,-0.11 0.04,-0.20 0.24,-0.67 0.57,-0.36 0.24,0.22 2.19,1.77 2.87,3.99 0.57,1.93 -4.03,6.11 -4.27,6.30 -0.43,0.34 -0.28,0.55 -0.08,0.42 0.20,-0.12 0.41,-0.17 2.79,-1.91 1.92,-1.41 2.26,-2.95 2.37,-4.12 0.02,-0.06 0.03,-0.12 0.04,-0.20 0.14,-1.42 0.12,-3.89 0.20,-4.64 0.10,-1.06 0.49,-3.24 1.85,-2.18 0.31,0.24 0.64,0.56 0.64,0.56 0.30,0.34 0.67,0.73 0.81,0.31 0.23,-0.63 0.38,-1.67 0.07,-2.21 -0.14,-0.24 -1.86,-2.24 -2.90,-0.76 -1.28,1.83 -1.25,4.16 -1.30,6.75 -0.22,-0.53 -1.49,-3.94 -5.08,-5.76 -0.26,-0.13 -0.76,0.17 -0.77,0.99 -0.01,0.48 -0.08,1.64 0.27,1.95 0.35,0.31 1.35,0.90 1.52,0.99 z M 288.99,8.87 c 0.00,0.00 1.37,1.27 1.62,1.57 0.25,0.30 0.59,0.18 0.47,-0.28 -0.12,-0.45 -2.76,-8.36 -2.85,-8.65 -0.09,-0.29 -0.19,-0.50 -0.35,-0.19 -0.17,0.31 -1.47,2.57 -1.47,2.57 0.02,0.19 0.29,0.85 0.38,2.04 0.09,1.24 0.31,2.91 0.45,4.88 0.00,0.00 2.31,19.93 2.35,21.03 0.04,1.09 0.12,1.66 -1.09,2.30 -2.52,1.34 -9.01,2.79 -10.00,3.09 -0.60,0.19 -4.09,0.87 -9.61,6.89 -0.84,0.84 -3.38,3.80 -5.93,4.23 -1.33,0.31 -3.37,-0.60 -3.43,-3.86 -0.07,-3.81 2.38,-8.00 4.45,-11.40 0.02,-0.03 0.03,-0.05 0.04,-0.08 4.91,-2.23 11.50,-5.08 11.50,-5.08 1.01,-3.06 1.01,-3.06 1.01,-3.06 -1.10,-0.44 -12.60,-3.53 -21.57,-2.28 -1.32,0.18 -3.53,1.24 -3.94,3.07 -0.28,1.50 0.06,3.10 1.27,4.14 0.28,0.24 4.51,3.46 4.37,3.52 -1.32,0.52 -8.65,4.15 -12.76,8.91 -1.08,1.17 -4.51,5.39 -6.51,6.22 -1.26,0.52 -4.34,1.32 -4.90,-2.19 -0.12,-0.74 0.18,-3.86 1.66,-7.35 4.05,-1.87 5.37,-3.35 5.90,-4.60 0.48,-1.14 0.70,-2.66 0.29,-4.68 -2.00,-7.66 -5.60,-7.61 -7.32,-6.94 -0.41,0.16 -1.19,0.82 -1.41,1.10 -1.04,1.36 -2.56,4.35 -0.42,6.38 1.64,1.33 4.57,0.69 5.11,0.67 0.97,-0.04 2.22,-0.09 2.87,1.51 0.13,0.41 -0.35,0.93 -1.44,1.56 -1.09,0.62 -13.79,7.58 -21.67,5.35 -1.33,-0.40 -6.18,-1.49 -6.01,-7.20 0.03,-0.70 0.35,-1.92 0.64,-2.92 0.19,0.11 0.41,0.19 0.64,0.20 0.75,0.00 1.73,-0.69 2.41,-3.63 0.12,-0.67 0.19,-1.20 0.24,-1.46 0.07,-0.40 -0.16,-0.87 -0.41,0.04 -0.55,1.80 -1.97,3.07 -3.05,0.65 -0.18,-0.48 -0.91,-2.67 0.41,-7.46 0.26,-0.93 0.60,-2.31 0.60,-2.31 0.30,-1.05 -0.06,-1.62 -0.48,-0.34 -0.42,1.28 -2.17,5.70 -1.89,10.90 0.04,0.75 0.31,1.96 0.87,2.76 -1.11,2.51 -3.34,8.68 1.94,12.54 1.18,0.82 5.29,3.52 15.07,0.58 2.41,-0.79 4.37,-1.53 5.97,-2.21 -1.59,4.17 -3.07,11.11 2.78,12.04 1.37,0.22 3.91,-0.03 8.22,-5.67 5.70,-7.47 14.24,-10.06 15.16,-10.50 0.40,0.48 0.60,0.67 0.85,1.06 0.23,0.34 0.62,0.42 0.67,-0.22 0.02,-0.29 0.17,-1.26 0.14,-1.63 0.52,-0.25 1.12,-0.53 1.78,-0.84 -1.69,2.43 -8.76,16.16 -0.27,17.26 0.74,0.10 3.31,0.29 6.11,-2.84 1.43,-1.51 5.80,-6.11 8.84,-7.21 2.12,-0.99 6.97,-2.28 8.73,-2.91 1.43,-0.51 3.93,-0.75 4.84,-4.62 0.25,-1.00 0.65,-3.49 0.27,-6.92 -0.13,-1.38 -2.16,-17.53 -2.16,-17.53 z M 235.50,27.70 c -0.49,0.15 -1.38,0.46 -2.74,0.00 -1.22,-0.41 -0.70,-1.65 0.13,-1.96 0.38,-0.14 1.95,-0.73 3.88,1.79 0.00,0.00 -0.78,0.03 -1.27,0.18 z M 259.92,32.18 c -0.35,-0.54 -6.50,-4.81 -6.82,-5.20 -0.32,-0.39 -0.51,-0.93 0.51,-1.27 1.02,-0.34 8.36,-1.06 17.89,1.25 -1.10,0.66 -5.67,2.64 -11.57,5.22 z M 361.57,14.69 c 0.18,-0.50 -0.04,-0.77 -0.29,-0.16 -0.25,0.61 -1.30,2.73 -1.14,5.22 0.04,0.58 0.42,1.70 1.29,1.73 0.45,0.00 1.03,-0.33 1.44,-1.73 0.07,-0.32 0.12,-0.57 0.15,-0.70 0.04,-0.19 -0.10,-0.42 -0.24,0.02 -0.33,0.86 -1.18,1.46 -1.82,0.31 -0.10,-0.23 -0.53,-1.28 0.26,-3.57 0.16,-0.44 0.36,-1.11 0.36,-1.11 z M 335.46,20.67 c 0.49,0.00 1.11,-0.35 1.55,-1.87 0.08,-0.34 0.13,-0.62 0.16,-0.75 0.05,-0.21 -0.10,-0.45 -0.26,0.02 -0.35,0.93 -1.27,1.58 -1.96,0.33 -0.11,-0.25 -0.58,-1.38 0.28,-3.86 0.17,-0.48 0.39,-1.20 0.39,-1.20 0.19,-0.54 -0.04,-0.84 -0.31,-0.17 -0.27,0.66 -1.40,2.94 -1.23,5.63 0.04,0.62 0.45,1.83 1.39,1.87 z M 340.96,7.42 c 0.17,0.09 0.36,0.11 0.41,-0.10 0.05,-0.21 0.28,-0.68 0.62,-0.34 0.28,0.28 2.09,1.78 3.03,4.95 0.16,0.42 0.55,0.46 0.64,-0.14 0.22,-1.47 0.34,-4.02 0.45,-4.79 0.16,-1.09 0.68,-3.32 2.06,-2.16 0.31,0.26 0.64,0.61 0.64,0.61 0.29,0.37 0.66,0.79 0.84,0.36 0.27,-0.64 0.49,-1.70 0.19,-2.28 -0.13,-0.25 -1.84,-2.41 -3.00,-0.93 -1.44,1.83 -1.53,4.23 -1.72,6.91 -0.20,-0.56 -1.35,-4.16 -5.03,-6.21 -0.27,-0.15 -0.81,0.13 -0.86,0.98 -0.03,0.49 -0.17,1.69 0.18,2.03 0.35,0.34 1.37,1.00 1.54,1.10 z M 367.15,25.29 c -0.25,-0.28 -0.37,-0.01 -0.46,0.31 -0.09,0.32 -0.36,1.52 -0.54,2.27 0.00,0.00 0.71,1.16 0.97,1.75 0.25,0.59 -0.12,0.92 -0.86,1.01 -2.08,0.25 -3.73,-0.94 -4.30,-1.48 -0.57,-0.55 0.05,-1.52 0.51,-2.68 0.37,-0.93 -0.32,-1.04 -0.84,0.00 -1.76,4.63 -4.23,5.12 -4.88,5.30 -5.86,1.60 -5.36,-3.76 -5.34,-4.64 0.02,-0.88 -0.62,-0.55 -1.34,0.03 -2.47,1.98 -4.45,3.14 -5.52,3.62 -0.92,-1.80 -2.26,-2.93 -2.82,-3.34 -6.34,-4.63 -6.87,4.71 -6.67,5.71 0.97,3.97 7.45,1.56 8.46,1.44 1.02,-0.12 0.68,1.22 0.11,2.02 -1.41,1.97 -3.03,3.38 -4.50,4.57 -6.28,5.13 -9.44,4.72 -10.41,4.69 -6.17,-0.17 -5.60,-6.82 -5.26,-8.24 1.86,-1.57 3.45,-3.28 4.38,-5.04 0.38,-0.97 1.03,-3.16 -0.15,-5.91 -0.62,-1.21 -2.56,-4.60 -2.56,-4.60 0.00,0.00 1.43,0.04 1.57,0.04 0.14,0.00 0.41,-0.14 0.06,-0.54 -0.35,-0.40 -3.36,-3.41 -3.54,-3.65 -0.18,-0.24 -0.35,-0.41 -0.45,-0.06 -0.10,0.35 -0.36,1.88 -0.42,2.20 -0.06,0.31 -0.06,0.63 0.10,0.90 0.15,0.27 0.55,1.20 0.84,1.96 0.29,0.76 3.25,6.47 3.53,6.98 0.27,0.51 0.33,0.88 0.06,1.22 -9.53,10.05 -27.91,16.23 -28.50,16.57 -0.59,0.34 -0.43,0.61 0.56,0.43 1.48,-0.26 9.74,-1.64 12.09,-2.78 1.55,-0.75 6.98,-3.41 11.41,-6.89 -0.12,0.90 -0.24,2.22 -0.17,3.89 0.30,8.08 7.53,6.74 9.43,6.33 5.68,-1.25 12.64,-9.11 13.23,-10.68 0.58,-1.56 0.67,-2.98 0.54,-4.22 1.50,-0.81 4.71,-3.40 4.71,-3.40 0.13,3.45 2.87,4.48 3.72,4.63 3.96,0.60 5.94,-2.71 6.78,-3.78 0.72,1.89 2.45,2.26 3.34,2.43 3.41,0.68 4.08,-1.74 4.26,-2.29 1.07,-3.33 -0.86,-5.81 -1.11,-6.08 z M 338.51,31.97 c -2.02,-0.14 -1.85,-0.92 -1.57,-1.23 0.30,-0.33 2.78,-1.89 4.85,0.89 0.00,0.00 -0.86,0.50 -3.28,0.33 z M 358.81,6.77 c 0.79,0.58 1.94,1.04 1.94,1.04 -3.66,4.49 -10.85,7.67 -12.56,9.01 -0.51,0.39 -0.44,0.61 -0.12,0.53 0.28,-0.08 5.76,-1.61 10.76,-5.90 2.29,-1.97 2.23,-2.11 2.81,-3.31 0.50,0.26 0.84,0.67 1.03,0.91 0.28,0.34 0.43,0.60 0.56,0.23 0.48,-1.33 -0.20,-2.13 -0.84,-2.54 0.00,0.00 0.67,-2.07 -0.56,-4.14 -0.21,-0.35 -1.43,-1.46 -2.85,0.74 -0.55,0.84 -0.96,2.85 -0.17,3.42 z M 359.54,4.73 c 0.73,-1.02 1.08,-0.99 1.36,-0.82 0.82,0.77 0.70,2.02 0.67,2.31 0.00,0.00 -1.05,-0.49 -1.52,-0.69 -0.47,-0.20 -0.72,-0.50 -0.50,-0.80 z M 301.09,14.18 c 0.17,-0.04 3.05,-0.49 6.41,-3.05 1.82,-1.38 2.92,-3.74 2.92,-3.74 0.00,0.00 0.91,0.76 1.03,0.91 0.28,0.34 0.43,0.60 0.56,0.23 0.48,-1.33 -0.20,-2.13 -0.84,-2.54 0.00,0.00 0.67,-2.07 -0.56,-4.14 -0.21,-0.35 -1.43,-1.46 -2.85,0.74 -0.55,0.84 -0.96,2.85 -0.17,3.42 0.79,0.58 1.94,1.04 1.94,1.04 -3.66,4.48 -6.16,5.34 -8.30,6.60 -0.55,0.32 -0.44,0.61 -0.12,0.53 z M 308.80,4.78 c -0.47,-0.20 -0.72,-0.50 -0.50,-0.80 0.73,-1.02 1.08,-0.99 1.36,-0.82 0.82,0.77 0.70,2.02 0.67,2.31 0.00,0.00 -1.05,-0.49 -1.52,-0.70 z M 308.67,14.56 c -0.06,-0.05 -0.15,-0.03 -0.20,0.04 -1.53,2.10 -1.53,2.10 -1.53,2.10 -0.05,0.07 -0.04,0.16 0.03,0.20 2.61,1.91 2.61,1.91 2.61,1.91 0.06,0.05 0.15,0.03 0.20,-0.04 1.32,-1.81 1.32,-1.81 1.32,-1.81 2.54,1.85 2.54,1.85 2.54,1.85 0.06,0.05 0.15,0.03 0.20,-0.04 1.53,-2.10 1.53,-2.10 1.53,-2.10 0.05,-0.07 0.04,-0.16 -0.03,-0.20 -2.61,-1.91 -2.61,-1.91 -2.61,-1.91 -0.06,-0.05 -0.15,-0.03 -0.20,0.04 -1.32,1.81 -1.32,1.81 -1.32,1.81 z M 308.04,24.30 c 0.00,0.00 1.25,-0.31 1.47,-0.38 0.22,-0.06 0.34,-0.34 -0.05,-0.55 -0.39,-0.20 -4.09,-1.67 -4.37,-1.79 -0.28,-0.11 -0.38,-0.24 -0.41,0.06 -0.02,0.30 -0.07,2.73 -0.07,2.73 0.00,0.00 -0.06,0.17 0.27,0.35 0.32,0.18 0.64,0.58 0.90,0.84 0.26,0.26 3.70,2.98 3.87,3.07 0.00,0.00 -1.72,3.02 -1.94,5.38 -0.22,2.36 0.04,5.63 3.27,4.57 0.87,-0.25 4.49,-1.69 5.30,-4.21 0.26,-0.93 1.01,-2.61 -0.21,-4.31 -0.70,-1.00 -3.53,-2.69 -3.53,-2.69 0.00,0.00 2.17,-3.00 2.38,-3.37 0.21,-0.37 1.01,-2.69 1.09,-3.26 0.09,-0.56 0.13,-0.84 -0.29,-0.32 -0.42,0.52 -4.63,6.05 -4.63,6.05 z M 315.00,33.19 c -1.20,0.99 -3.72,2.29 -4.43,2.36 -0.71,0.07 -2.59,-0.28 -1.77,-2.20 0.28,-0.62 2.16,-3.84 2.16,-3.84 0.70,0.39 5.24,2.70 4.04,3.69 z M 363.94,37.60 c -0.24,0.68 -0.34,1.12 -0.31,1.38 0.03,0.26 0.12,1.10 0.12,1.10 -0.25,0.20 -1.33,0.87 -2.40,0.08 0.07,-0.23 0.21,-0.70 0.24,-0.95 0.12,-0.40 -0.13,-0.69 -0.32,-0.28 -0.20,0.41 -0.65,1.79 -0.99,2.10 -0.34,0.31 -0.73,1.45 -3.30,0.29 -0.45,-0.17 -1.23,-0.75 -2.46,0.48 -2.77,2.57 -4.68,2.77 -7.79,3.88 -0.38,0.17 -1.16,0.76 -0.23,0.67 0.94,-0.09 4.87,0.00 7.01,-2.46 0.45,-0.43 0.96,-1.58 2.66,-0.92 0.94,0.36 2.68,1.85 4.58,-1.10 1.12,0.75 2.82,0.45 3.09,-0.38 0.27,-0.82 0.58,-1.64 0.58,-2.20 0.00,-0.56 -0.05,-1.30 -0.05,-1.30 -0.04,-0.44 -0.19,-1.07 -0.44,-0.40 z M 317.77,12.69 c 0.25,-0.16 13.84,-8.02 14.32,-8.31 0.46,-0.28 0.72,-0.41 0.90,-0.84 0.18,-0.44 0.23,-0.52 0.33,-0.82 0.11,-0.32 0.21,-0.67 -0.61,-0.19 -0.53,0.31 -14.04,8.11 -14.59,8.46 -0.55,0.35 -0.74,0.44 -0.83,0.87 -0.09,0.42 -0.13,0.67 -0.16,0.73 -0.10,0.28 -0.17,0.63 0.64,0.10 z" />
     </g>
</svg>
