<?xml version="1.0" encoding="UTF-8"?>
<svg version="1.1" id="Layer_1" x="0px" y="0px" width="578" height="51" viewBox="0 0 578 51"
xml:space="preserve" xmlns="http://www.w3.org/2000/svg" xmlns:svg="http://www.w3.org/2000/svg" xmlns:rdf="http://www.w3.org/1999/02/22-rdf-syntax-ns#"  xmlns:cc="http://creativecommons.org/ns#" xmlns:dc="http://purl.org/dc/elements/1.1/">
     <g>
<path d="M 220.18,32.01 c -1.92,2.63 -1.92,2.63 -1.92,2.63 -0.06,0.08 -0.05,0.20 0.03,0.25 3.27,2.38 3.27,2.38 3.27,2.38 0.08,0.06 0.19,0.04 0.25,-0.05 1.91,-2.63 1.91,-2.63 1.91,-2.63 0.06,-0.08 0.05,-0.20 -0.03,-0.25 -3.27,-2.38 -3.27,-2.38 -3.27,-2.38 -0.08,-0.06 -0.19,-0.04 -0.25,0.05 z M 260.77,20.61 c -1.92,2.63 -1.92,2.63 -1.92,2.63 -0.06,0.08 -0.05,0.20 0.03,0.25 3.27,2.38 3.27,2.38 3.27,2.38 0.08,0.06 0.19,0.04 0.25,-0.05 1.91,-2.63 1.91,-2.63 1.91,-2.63 0.06,-0.08 0.05,-0.20 -0.03,-0.25 -3.27,-2.38 -3.27,-2.38 -3.27,-2.38 -0.08,-0.06 -0.19,-0.04 -0.25,0.05 z M 207.59,16.41 c 0.66,-0.37 4.49,-1.86 5.12,-5.65 0.05,-0.50 -0.05,-0.87 -0.17,-1.12 0.05,0.01 0.11,0.05 0.17,0.11 0.27,0.27 1.99,1.69 2.88,4.71 0.15,0.40 0.53,0.44 0.61,-0.13 0.21,-1.40 0.32,-3.82 0.43,-4.56 0.16,-1.03 0.65,-3.16 1.96,-2.06 0.30,0.25 0.61,0.58 0.61,0.58 0.28,0.35 0.63,0.75 0.80,0.35 0.26,-0.61 0.46,-1.62 0.18,-2.17 -0.12,-0.24 -1.75,-2.30 -2.85,-0.89 -1.37,1.74 -1.46,4.03 -1.64,6.58 -0.19,-0.53 -1.29,-3.95 -4.78,-5.91 -0.25,-0.14 -0.77,0.13 -0.82,0.93 -0.03,0.47 -0.16,1.61 0.17,1.93 0.32,0.31 2.68,1.14 1.40,2.49 -0.57,0.61 -3.45,3.59 -4.06,4.31 -0.62,0.72 -0.68,0.85 -0.01,0.49 z M 273.80,4.69 c 0.65,0.50 1.61,0.92 1.61,0.92 -3.17,3.69 -7.54,7.13 -9.37,8.14 -0.47,0.26 -0.38,0.51 -0.11,0.44 0.14,-0.03 2.54,-0.85 5.44,-2.90 2.44,-1.72 4.79,-5.39 4.79,-5.39 0.00,0.00 0.75,0.66 0.85,0.79 0.23,0.29 0.35,0.51 0.46,0.21 0.43,-1.11 -0.12,-1.79 -0.66,-2.15 0.00,0.00 0.61,-1.72 -0.39,-3.49 -0.17,-0.30 -1.17,-1.26 -2.41,0.56 -0.48,0.69 -0.87,2.37 -0.22,2.87 z M 274.46,3.00 c 0.63,-0.84 0.93,-0.81 1.16,-0.66 0.68,0.66 0.55,1.72 0.51,1.96 0.00,0.00 -0.87,-0.44 -1.27,-0.62 -0.39,-0.18 -0.59,-0.43 -0.40,-0.68 z M 277.40,9.14 c -0.13,0.32 -0.20,0.97 -0.22,1.08 -0.02,0.11 -0.02,0.18 0.05,0.30 0.07,0.12 0.77,2.21 0.45,2.79 -0.32,0.58 -1.89,1.61 -2.72,0.53 -0.39,-0.76 -0.15,-2.68 -0.15,-3.13 0.00,-0.45 -0.14,-0.61 -0.34,-0.24 -0.19,0.36 -0.30,0.61 -0.29,0.93 0.01,0.33 0.06,1.73 0.03,2.17 -0.03,0.44 0.00,1.87 0.85,2.28 0.84,0.40 2.08,0.03 3.01,-1.73 0.72,1.05 1.82,1.05 2.40,0.84 0.50,-0.18 1.06,-0.93 1.22,-1.97 0.16,-1.04 -0.11,-1.75 -0.43,-2.34 -0.43,-0.72 -0.72,-1.93 -0.72,-1.93 -0.15,-0.43 -0.27,-0.87 -0.46,-0.28 -0.19,0.60 -0.34,1.06 -0.08,1.74 0.26,0.68 0.96,2.23 1.08,2.45 0.12,0.22 0.15,0.47 -0.24,0.64 -0.38,0.16 -2.14,0.54 -2.47,-1.34 -0.33,-1.88 -0.36,-2.42 -0.52,-2.74 -0.16,-0.32 -0.32,-0.36 -0.44,-0.04 z M 304.03,43.09 c 0.20,-0.45 1.58,-3.51 -0.43,-14.54 -0.15,-0.92 -3.26,-19.56 -3.26,-19.56 0.00,0.00 1.59,1.41 1.84,1.67 0.26,0.26 0.55,0.11 0.40,-0.31 -0.15,-0.42 -3.52,-8.01 -3.63,-8.27 -0.11,-0.26 -0.22,-0.45 -0.34,-0.14 -0.12,0.31 -0.82,2.40 -0.82,2.40 0.24,1.34 2.39,15.77 2.54,16.75 0.14,0.98 3.07,17.29 3.32,21.81 -0.02,0.46 0.18,0.63 0.38,0.18 z M 244.30,7.94 c 0.16,0.09 0.33,0.10 0.38,-0.09 0.05,-0.19 0.26,-0.63 0.57,-0.31 0.26,0.26 1.92,1.64 2.79,4.56 0.15,0.39 0.51,0.42 0.59,-0.13 0.20,-1.35 0.31,-3.70 0.41,-4.41 0.15,-1.00 0.63,-3.06 1.89,-1.99 0.29,0.24 0.59,0.56 0.59,0.56 0.27,0.34 0.61,0.73 0.77,0.33 0.25,-0.59 0.45,-1.57 0.18,-2.10 -0.12,-0.24 -1.69,-2.22 -2.76,-0.86 -1.32,1.68 -1.41,3.90 -1.58,6.36 -0.19,-0.52 -1.24,-3.83 -4.62,-5.72 -0.25,-0.14 -0.74,0.12 -0.79,0.90 -0.03,0.45 -0.16,1.56 0.16,1.87 0.32,0.31 1.26,0.92 1.42,1.01 z M 238.26,44.46 c -0.61,0.28 -9.25,4.47 -9.87,4.76 -0.59,0.28 -0.74,0.44 -0.83,0.87 -0.09,0.42 -0.13,0.67 -0.16,0.73 -0.10,0.28 -0.17,0.53 0.64,0.10 0.27,-0.14 9.11,-4.36 9.60,-4.62 0.48,-0.25 0.72,-0.41 0.91,-0.84 0.18,-0.44 0.23,-0.52 0.33,-0.82 0.10,-0.32 0.25,-0.58 -0.61,-0.19 z M 243.36,20.78 c 0.32,-0.18 24.55,-13.33 25.10,-13.69 0.55,-0.36 0.88,-0.50 1.11,-1.03 0.22,-0.53 0.28,-0.63 0.40,-1.00 0.13,-0.40 0.29,-0.76 -0.75,-0.23 -0.68,0.35 -24.73,13.49 -25.44,13.87 -0.70,0.38 -0.91,0.54 -1.01,1.06 -0.11,0.51 -0.16,0.79 -0.19,0.90 -0.10,0.35 -0.24,0.71 0.78,0.13 z M 285.55,45.99 c -0.31,0.83 -1.13,1.41 -1.74,0.30 -0.10,-0.22 -0.51,-1.22 0.24,-3.42 0.15,-0.43 0.35,-1.06 0.35,-1.06 0.17,-0.48 -0.03,-0.74 -0.28,-0.15 -0.24,0.59 -1.25,2.61 -1.09,5.00 0.04,0.55 0.40,1.63 1.23,1.66 0.43,0.00 0.98,-0.31 1.38,-1.66 0.07,-0.30 0.11,-0.55 0.14,-0.67 0.04,-0.18 -0.09,-0.40 -0.23,0.02 z M 271.75,20.54 c 0.19,-0.60 -0.10,-0.90 -0.38,-0.17 -0.28,0.74 -1.49,3.29 -1.12,6.19 0.09,0.67 0.65,1.96 1.77,1.93 0.58,-0.03 1.30,-0.46 1.73,-2.14 0.07,-0.38 0.11,-0.68 0.14,-0.83 0.04,-0.23 -0.15,-0.48 -0.31,0.04 -0.36,1.03 -1.42,1.80 -2.31,0.49 -0.15,-0.26 -0.77,-1.46 0.09,-4.20 0.17,-0.53 0.39,-1.32 0.39,-1.32 z M 246.61,23.69 c 0.15,-0.54 -0.08,-0.82 -0.30,-0.15 -0.22,0.66 -1.16,2.95 -0.85,5.57 0.07,0.61 0.53,1.77 1.42,1.75 0.46,-0.03 1.03,-0.40 1.36,-1.91 0.05,-0.34 0.08,-0.61 0.11,-0.75 0.03,-0.20 -0.12,-0.43 -0.25,0.04 -0.28,0.93 -1.12,1.62 -1.84,0.43 -0.12,-0.24 -0.62,-1.32 0.05,-3.78 0.14,-0.48 0.30,-1.19 0.30,-1.19 z M 218.93,25.55 c -0.12,-0.24 -0.62,-1.32 0.05,-3.78 0.14,-0.48 0.30,-1.19 0.30,-1.19 0.15,-0.54 -0.08,-0.82 -0.30,-0.15 -0.22,0.66 -1.16,2.95 -0.85,5.57 0.07,0.61 0.53,1.77 1.41,1.75 0.46,-0.03 1.03,-0.40 1.36,-1.91 0.05,-0.34 0.08,-0.61 0.11,-0.75 0.03,-0.20 -0.12,-0.43 -0.25,0.03 -0.28,0.93 -1.12,1.62 -1.84,0.43 z M 227.74,17.78 c 0.69,0.01 1.59,-0.56 2.28,-3.11 0.12,-0.58 0.20,-1.04 0.25,-1.27 0.08,-0.34 -0.13,-0.76 -0.37,0.03 -0.54,1.56 -1.87,2.63 -2.81,0.51 -0.15,-0.42 -0.77,-2.34 0.53,-6.49 0.26,-0.80 0.60,-2.01 0.60,-2.01 0.29,-0.91 -0.03,-1.41 -0.44,-0.30 -0.41,1.11 -2.10,4.92 -1.95,9.46 0.04,1.05 0.58,3.11 1.91,3.19 z M 292.11,9.64 c 0.00,0.00 1.58,1.43 1.83,1.69 0.25,0.26 0.55,0.11 0.40,-0.31 -0.15,-0.42 -3.47,-8.03 -3.57,-8.29 -0.11,-0.26 -0.21,-0.46 -0.34,-0.15 -0.12,0.31 -1.10,2.57 -1.10,2.57 0.03,0.18 0.28,0.73 0.47,1.86 0.19,1.17 0.47,2.85 0.78,4.70 0.00,0.00 4.13,24.70 4.24,25.51 0.11,0.81 0.49,3.01 -3.27,3.19 -0.59,0.03 -3.83,0.63 -5.17,-3.52 -0.26,-0.77 -1.56,-8.01 -1.98,-9.50 -0.43,-1.48 -2.31,-7.97 -4.41,-10.13 -0.34,-0.35 -0.33,-0.12 -0.38,0.15 -0.04,0.28 -0.35,2.28 -0.35,2.28 0.38,0.84 4.05,9.51 4.71,14.23 0.03,0.49 0.19,1.12 -0.86,2.37 -1.04,1.25 -5.80,6.29 -10.56,8.29 -0.58,0.24 -2.31,1.10 -4.33,-0.16 -0.90,-0.56 -1.78,-2.30 -0.56,-6.14 0.03,-0.08 0.04,-0.16 0.06,-0.24 1.41,-0.67 2.60,-1.20 3.32,-1.38 4.72,-1.23 7.25,-0.75 7.25,-0.75 1.17,-3.00 1.17,-3.00 1.17,-3.00 0.00,0.00 -6.23,0.51 -10.99,-0.41 -4.69,-0.91 -11.94,-2.95 -12.86,-2.57 -0.92,0.38 -4.07,1.61 -4.40,1.80 -0.33,0.20 -0.55,0.35 -0.66,0.73 -0.11,0.37 -0.33,1.47 -0.40,1.78 -0.07,0.31 0.04,0.40 0.24,0.33 0.20,-0.07 4.75,-0.48 5.24,-0.48 0.48,0.00 0.77,-0.09 0.88,-0.24 0.11,-0.15 0.24,-0.40 0.24,-0.40 2.53,0.26 10.08,2.05 10.27,2.02 0.20,-0.02 -9.34,5.46 -15.66,6.14 -1.47,0.16 -5.99,1.09 -8.72,-2.28 -1.86,-2.29 -2.39,-5.85 -2.57,-7.48 -0.35,-3.24 -0.78,-7.90 -0.89,-9.62 -0.17,-2.57 -1.12,-15.00 -2.83,-19.00 -0.22,-0.40 -0.36,-0.53 -0.58,-0.04 -0.22,0.49 -0.85,2.23 -0.85,2.23 2.36,8.79 3.01,24.82 3.63,28.95 0.72,4.76 2.19,9.72 7.26,10.47 5.01,0.74 9.31,-0.74 12.76,-2.29 2.07,-0.93 5.29,-2.63 8.02,-3.97 -0.04,0.11 -0.07,0.24 -0.10,0.37 -0.58,2.34 -1.19,6.97 1.20,8.69 0.61,0.44 3.68,1.89 8.22,-1.71 0.88,-0.70 5.82,-4.39 7.55,-6.90 0.45,-0.66 0.89,-1.45 1.09,-2.32 0.00,0.00 0.95,3.62 2.02,4.91 0.25,0.30 3.87,4.52 8.20,-0.13 0.34,-0.37 1.83,-2.80 1.32,-7.13 -0.11,-0.99 -4.01,-24.73 -4.01,-24.73 z M 234.48,33.74 c -0.15,-0.69 -2.88,-6.98 -2.88,-6.98 0.64,0.26 1.06,0.38 1.29,0.48 0.23,0.10 0.62,-0.13 0.26,-0.61 -0.36,-0.47 -2.73,-3.35 -2.80,-3.54 -0.07,-0.19 -0.17,-0.33 -0.24,-0.58 -0.07,-0.25 -0.23,-0.21 -0.33,0.00 -0.10,0.21 -0.71,2.27 -0.75,2.46 -0.04,0.19 0.46,2.06 0.78,2.91 0.84,2.43 2.60,5.84 2.88,6.40 0.28,0.56 0.76,1.47 0.13,2.32 -0.63,0.84 -5.76,5.92 -14.35,8.12 -1.35,0.35 -7.04,1.56 -10.11,-2.71 -0.46,-0.65 -2.48,-3.66 -0.83,-9.29 0.24,0.17 0.52,0.28 0.82,0.28 0.69,-0.04 1.55,-0.68 2.03,-3.28 0.08,-0.58 0.12,-1.05 0.15,-1.28 0.05,-0.35 -0.19,-0.75 -0.37,0.06 -0.41,1.60 -1.66,2.77 -2.76,0.72 -0.18,-0.41 -0.95,-2.28 0.03,-6.51 0.20,-0.82 0.44,-2.05 0.44,-2.05 0.22,-0.93 -0.13,-1.41 -0.46,-0.27 -0.32,1.14 -1.72,5.07 -1.21,9.59 0.07,0.59 0.32,1.48 0.76,2.15 -1.22,3.38 -3.64,13.26 4.81,15.88 2.16,0.67 7.84,1.96 18.18,-5.66 0.98,-0.73 5.79,-3.71 4.51,-8.61 z M 338.85,21.00 c 0.48,0.00 1.11,-0.35 1.55,-1.87 0.08,-0.34 0.13,-0.62 0.16,-0.75 0.05,-0.21 -0.10,-0.45 -0.26,0.02 -0.35,0.93 -1.28,1.58 -1.96,0.33 -0.11,-0.25 -0.58,-1.38 0.28,-3.86 0.17,-0.48 0.39,-1.20 0.39,-1.20 0.19,-0.54 -0.04,-0.84 -0.31,-0.17 -0.27,0.66 -1.40,2.94 -1.23,5.64 0.04,0.62 0.45,1.83 1.39,1.86 z M 344.35,7.76 c 0.17,0.10 0.36,0.11 0.41,-0.10 0.05,-0.21 0.29,-0.68 0.62,-0.34 0.28,0.28 2.09,1.78 3.03,4.95 0.16,0.42 0.55,0.46 0.64,-0.14 0.22,-1.47 0.34,-4.02 0.45,-4.79 0.16,-1.09 0.68,-3.33 2.06,-2.16 0.31,0.26 0.64,0.61 0.64,0.61 0.29,0.37 0.66,0.79 0.84,0.36 0.27,-0.64 0.49,-1.70 0.19,-2.28 -0.13,-0.26 -1.83,-2.41 -3.00,-0.93 -1.44,1.83 -1.53,4.23 -1.72,6.91 -0.20,-0.56 -1.35,-4.16 -5.02,-6.21 -0.27,-0.15 -0.81,0.13 -0.86,0.98 -0.03,0.49 -0.17,1.69 0.18,2.03 0.35,0.34 1.37,1.01 1.54,1.10 z M 362.20,7.10 c 0.79,0.58 1.93,1.04 1.93,1.04 -3.66,4.48 -10.84,7.67 -12.55,9.01 -0.51,0.39 -0.44,0.61 -0.12,0.53 0.28,-0.08 5.76,-1.61 10.76,-5.90 2.29,-1.97 2.23,-2.11 2.81,-3.31 0.50,0.26 0.84,0.67 1.03,0.91 0.28,0.34 0.43,0.60 0.56,0.23 0.48,-1.33 -0.20,-2.13 -0.84,-2.54 0.00,0.00 0.67,-2.07 -0.56,-4.14 -0.21,-0.35 -1.43,-1.46 -2.85,0.74 -0.55,0.84 -0.96,2.85 -0.17,3.42 z M 362.93,5.07 c 0.73,-1.02 1.08,-0.98 1.36,-0.82 0.83,0.77 0.70,2.02 0.67,2.31 0.00,0.00 -1.05,-0.49 -1.52,-0.70 -0.47,-0.20 -0.72,-0.50 -0.50,-0.80 z M 321.16,13.03 c 0.25,-0.16 13.84,-8.02 14.32,-8.31 0.46,-0.29 0.72,-0.41 0.91,-0.85 0.18,-0.44 0.23,-0.52 0.33,-0.82 0.10,-0.32 0.21,-0.67 -0.61,-0.19 -0.53,0.31 -14.04,8.11 -14.59,8.46 -0.55,0.35 -0.74,0.44 -0.83,0.87 -0.09,0.42 -0.13,0.67 -0.16,0.73 -0.10,0.28 -0.17,0.63 0.64,0.10 z M 364.96,15.03 c 0.18,-0.50 -0.03,-0.77 -0.29,-0.16 -0.25,0.61 -1.30,2.73 -1.14,5.22 0.04,0.58 0.42,1.70 1.29,1.73 0.45,0.00 1.03,-0.33 1.44,-1.74 0.07,-0.32 0.12,-0.57 0.15,-0.70 0.04,-0.19 -0.10,-0.42 -0.24,0.02 -0.33,0.86 -1.18,1.47 -1.82,0.31 -0.10,-0.23 -0.53,-1.28 0.26,-3.57 0.16,-0.44 0.36,-1.11 0.36,-1.11 z M 370.54,25.62 c -0.25,-0.28 -0.38,-0.01 -0.46,0.31 -0.09,0.32 -0.36,1.52 -0.54,2.27 0.00,0.00 0.71,1.16 0.97,1.76 0.25,0.59 -0.12,0.92 -0.86,1.01 -2.08,0.25 -3.73,-0.94 -4.30,-1.48 -0.57,-0.55 0.05,-1.52 0.51,-2.68 0.37,-0.93 -0.32,-1.04 -0.84,0.00 -1.76,4.63 -4.23,5.13 -4.88,5.30 -5.86,1.60 -5.36,-3.76 -5.33,-4.64 0.02,-0.88 -0.62,-0.55 -1.34,0.03 -2.47,1.98 -4.45,3.14 -5.52,3.62 -0.92,-1.80 -2.26,-2.93 -2.82,-3.34 -6.34,-4.63 -6.87,4.71 -6.67,5.71 0.97,3.97 7.44,1.56 8.46,1.44 1.01,-0.12 0.68,1.22 0.11,2.02 -1.41,1.97 -3.03,3.38 -4.50,4.57 -6.28,5.13 -9.43,4.72 -10.41,4.69 -6.17,-0.17 -5.60,-6.82 -5.26,-8.24 1.86,-1.57 3.45,-3.28 4.38,-5.04 0.38,-0.96 1.03,-3.16 -0.15,-5.91 -0.62,-1.21 -2.56,-4.60 -2.56,-4.60 0.00,0.00 1.43,0.04 1.57,0.04 0.14,0.00 0.41,-0.14 0.06,-0.54 -0.35,-0.40 -3.36,-3.40 -3.54,-3.65 -0.18,-0.24 -0.35,-0.42 -0.45,-0.06 -0.10,0.36 -0.36,1.88 -0.42,2.20 -0.06,0.31 -0.06,0.63 0.10,0.90 0.15,0.27 0.55,1.20 0.84,1.96 0.29,0.76 3.26,6.47 3.53,6.98 0.27,0.51 0.33,0.88 0.06,1.22 -9.53,10.05 -27.91,16.23 -28.50,16.57 -0.59,0.34 -0.43,0.61 0.56,0.43 1.48,-0.26 9.74,-1.64 12.09,-2.77 1.55,-0.75 6.98,-3.41 11.41,-6.89 -0.12,0.90 -0.24,2.22 -0.18,3.89 0.30,8.08 7.53,6.74 9.43,6.33 5.68,-1.25 12.64,-9.11 13.23,-10.69 0.58,-1.56 0.67,-2.98 0.54,-4.22 1.50,-0.81 4.71,-3.40 4.71,-3.40 0.13,3.45 2.87,4.48 3.72,4.63 3.96,0.60 5.94,-2.70 6.78,-3.78 0.72,1.89 2.45,2.26 3.34,2.43 3.41,0.68 4.08,-1.73 4.26,-2.29 1.07,-3.33 -0.86,-5.81 -1.11,-6.08 z M 341.90,32.30 c -2.03,-0.14 -1.85,-0.92 -1.57,-1.22 0.30,-0.33 2.78,-1.89 4.85,0.89 0.00,0.00 -0.86,0.50 -3.28,0.33 z M 367.33,37.94 c -0.24,0.68 -0.34,1.12 -0.32,1.38 0.03,0.26 0.12,1.10 0.12,1.10 -0.25,0.20 -1.33,0.87 -2.40,0.08 0.07,-0.23 0.21,-0.70 0.24,-0.95 0.12,-0.40 -0.13,-0.69 -0.32,-0.28 -0.20,0.41 -0.65,1.79 -0.99,2.10 -0.34,0.31 -0.73,1.45 -3.30,0.29 -0.45,-0.17 -1.23,-0.75 -2.46,0.48 -2.77,2.57 -4.68,2.78 -7.79,3.88 -0.38,0.17 -1.16,0.77 -0.23,0.67 0.94,-0.09 4.87,0.00 7.01,-2.46 0.45,-0.43 0.96,-1.58 2.66,-0.92 0.94,0.36 2.68,1.85 4.58,-1.10 1.12,0.75 2.82,0.45 3.09,-0.38 0.27,-0.82 0.58,-1.64 0.58,-2.20 0.00,-0.56 -0.05,-1.30 -0.05,-1.30 -0.04,-0.44 -0.19,-1.07 -0.44,-0.40 z M 304.48,14.51 c 0.17,-0.04 3.05,-0.49 6.41,-3.05 1.82,-1.38 2.92,-3.74 2.92,-3.74 0.00,0.00 0.91,0.76 1.03,0.91 0.28,0.34 0.43,0.60 0.56,0.23 0.48,-1.33 -0.20,-2.13 -0.84,-2.54 0.00,0.00 0.67,-2.07 -0.56,-4.14 -0.21,-0.35 -1.43,-1.46 -2.85,0.74 -0.55,0.84 -0.96,2.85 -0.17,3.42 0.79,0.58 1.93,1.04 1.93,1.04 -3.66,4.49 -6.16,5.34 -8.30,6.60 -0.55,0.32 -0.44,0.61 -0.12,0.53 z M 312.19,5.12 c -0.47,-0.20 -0.72,-0.50 -0.50,-0.80 0.73,-1.02 1.08,-0.99 1.36,-0.82 0.83,0.77 0.70,2.02 0.67,2.31 0.00,0.00 -1.05,-0.49 -1.52,-0.69 z M 312.06,14.89 c -0.06,-0.05 -0.15,-0.03 -0.20,0.04 -1.53,2.10 -1.53,2.10 -1.53,2.10 -0.05,0.07 -0.04,0.16 0.03,0.21 2.61,1.91 2.61,1.91 2.61,1.91 0.06,0.05 0.15,0.03 0.20,-0.04 1.32,-1.81 1.32,-1.81 1.32,-1.81 2.54,1.85 2.54,1.85 2.54,1.85 0.06,0.05 0.15,0.03 0.20,-0.04 1.53,-2.10 1.53,-2.10 1.53,-2.10 0.05,-0.07 0.04,-0.16 -0.03,-0.21 -2.61,-1.91 -2.61,-1.91 -2.61,-1.91 -0.06,-0.05 -0.15,-0.03 -0.20,0.04 -1.32,1.81 -1.32,1.81 -1.32,1.81 z M 311.43,24.64 c 0.00,0.00 1.25,-0.31 1.47,-0.38 0.22,-0.06 0.34,-0.35 -0.05,-0.55 -0.39,-0.20 -4.09,-1.67 -4.37,-1.79 -0.28,-0.11 -0.38,-0.24 -0.41,0.06 -0.02,0.30 -0.07,2.73 -0.07,2.73 0.00,0.00 -0.06,0.17 0.27,0.35 0.32,0.18 0.64,0.58 0.90,0.84 0.26,0.26 3.70,2.98 3.87,3.07 0.00,0.00 -1.72,3.02 -1.94,5.38 -0.22,2.36 0.04,5.63 3.27,4.57 0.87,-0.25 4.49,-1.69 5.30,-4.21 0.26,-0.93 1.01,-2.61 -0.21,-4.31 -0.70,-1.00 -3.53,-2.69 -3.53,-2.69 0.00,0.00 2.17,-3.00 2.38,-3.37 0.21,-0.37 1.00,-2.69 1.09,-3.25 0.09,-0.56 0.13,-0.84 -0.29,-0.32 -0.42,0.52 -4.63,6.05 -4.63,6.05 z M 318.39,33.52 c -1.20,0.99 -3.72,2.29 -4.43,2.36 -0.71,0.07 -2.59,-0.28 -1.77,-2.20 0.28,-0.62 2.16,-3.84 2.16,-3.84 0.70,0.39 5.24,2.70 4.04,3.69 z" />
     </g>
</svg>
