<?xml version="1.0" encoding="UTF-8"?>
<svg version="1.1" id="Layer_1" x="0px" y="0px" width="578" height="51" viewBox="0 0 578 51"
xml:space="preserve" xmlns="http://www.w3.org/2000/svg" xmlns:svg="http://www.w3.org/2000/svg" xmlns:rdf="http://www.w3.org/1999/02/22-rdf-syntax-ns#"  xmlns:cc="http://creativecommons.org/ns#" xmlns:dc="http://purl.org/dc/elements/1.1/">
     <g>
<path d="M 284.80,43.30 c -1.92,2.63 -1.92,2.63 -1.92,2.63 -0.06,0.08 -0.05,0.20 0.03,0.25 3.27,2.38 3.27,2.38 3.27,2.38 0.08,0.06 0.19,0.04 0.25,-0.05 1.91,-2.63 1.91,-2.63 1.91,-2.63 0.06,-0.08 0.05,-0.20 -0.03,-0.25 -3.27,-2.38 -3.27,-2.38 -3.27,-2.38 -0.08,-0.06 -0.19,-0.04 -0.25,0.05 z M 279.42,16.86 c 0.17,-0.45 0.22,-0.53 0.31,-0.84 0.10,-0.33 0.19,-0.68 -0.62,-0.17 -0.43,0.27 -15.36,7.74 -16.59,8.75 -0.62,0.50 -1.14,1.30 -1.32,2.17 -0.26,1.25 0.05,2.49 0.87,2.63 0.57,0.09 0.90,0.42 1.04,0.61 0.06,0.08 0.15,0.02 0.18,-0.03 0.65,-1.28 0.06,-2.08 -1.04,-2.40 -0.44,-0.13 -0.63,-0.73 0.99,-1.77 1.49,-0.96 14.97,-7.83 15.30,-8.06 0.45,-0.31 0.72,-0.43 0.89,-0.88 z M 246.52,16.10 c -1.53,2.10 -1.53,2.10 -1.53,2.10 -0.05,0.07 -0.04,0.16 0.03,0.21 2.61,1.91 2.61,1.91 2.61,1.91 0.06,0.05 0.15,0.03 0.20,-0.04 1.53,-2.10 1.53,-2.10 1.53,-2.10 0.05,-0.07 0.04,-0.16 -0.03,-0.21 -2.61,-1.91 -2.61,-1.91 -2.61,-1.91 -0.06,-0.05 -0.15,-0.03 -0.20,0.04 z M 246.90,24.39 c 0.06,0.05 0.15,0.03 0.20,-0.04 1.32,-1.81 1.32,-1.81 1.32,-1.81 2.54,1.85 2.54,1.85 2.54,1.85 0.06,0.05 0.15,0.03 0.20,-0.04 1.53,-2.10 1.53,-2.10 1.53,-2.10 0.05,-0.07 0.04,-0.16 -0.03,-0.21 -2.61,-1.91 -2.61,-1.91 -2.61,-1.91 -0.06,-0.05 -0.15,-0.03 -0.20,0.04 -1.32,1.81 -1.32,1.81 -1.32,1.81 -2.54,-1.85 -2.54,-1.85 -2.54,-1.85 -0.06,-0.05 -0.15,-0.03 -0.20,0.04 -1.53,2.10 -1.53,2.10 -1.53,2.10 -0.05,0.07 -0.04,0.16 0.03,0.20 z M 242.13,43.64 c -0.06,-0.05 -0.15,-0.03 -0.20,0.04 -1.32,1.81 -1.32,1.81 -1.32,1.81 -2.54,-1.85 -2.54,-1.85 -2.54,-1.85 -0.06,-0.05 -0.15,-0.03 -0.20,0.04 -1.53,2.10 -1.53,2.10 -1.53,2.10 -0.05,0.07 -0.04,0.16 0.03,0.20 2.61,1.91 2.61,1.91 2.61,1.91 0.06,0.05 0.15,0.03 0.20,-0.04 1.32,-1.81 1.32,-1.81 1.32,-1.81 2.54,1.85 2.54,1.85 2.54,1.85 0.06,0.05 0.15,0.03 0.20,-0.04 1.53,-2.10 1.53,-2.10 1.53,-2.10 0.05,-0.07 0.04,-0.16 -0.03,-0.20 z M 221.75,24.83 c 0.06,0.05 0.15,0.03 0.20,-0.04 1.32,-1.81 1.32,-1.81 1.32,-1.81 2.54,1.85 2.54,1.85 2.54,1.85 0.06,0.05 0.15,0.03 0.20,-0.04 1.53,-2.10 1.53,-2.10 1.53,-2.10 0.05,-0.07 0.04,-0.16 -0.03,-0.21 -2.61,-1.91 -2.61,-1.91 -2.61,-1.91 -0.06,-0.05 -0.15,-0.03 -0.20,0.04 -1.32,1.81 -1.32,1.81 -1.32,1.81 -2.54,-1.85 -2.54,-1.85 -2.54,-1.85 -0.06,-0.05 -0.15,-0.03 -0.20,0.04 -1.53,2.10 -1.53,2.10 -1.53,2.10 -0.05,0.07 -0.04,0.16 0.03,0.20 z M 231.68,6.56 c 0.15,0.08 0.31,0.09 0.35,-0.09 0.04,-0.18 0.24,-0.60 0.53,-0.30 0.24,0.25 1.78,1.56 2.59,4.35 0.14,0.37 0.47,0.40 0.55,-0.12 0.19,-1.29 0.29,-3.53 0.38,-4.21 0.14,-0.95 0.58,-2.92 1.76,-1.90 0.27,0.23 0.55,0.54 0.55,0.54 0.25,0.32 0.56,0.69 0.72,0.32 0.23,-0.56 0.42,-1.50 0.16,-2.00 -0.11,-0.23 -1.57,-2.12 -2.56,-0.82 -1.23,1.61 -1.31,3.72 -1.47,6.07 -0.17,-0.49 -1.15,-3.65 -4.29,-5.46 -0.23,-0.13 -0.69,0.12 -0.73,0.86 -0.03,0.43 -0.15,1.48 0.15,1.78 0.30,0.30 1.17,0.88 1.32,0.97 z M 257.29,42.22 c -0.61,0.28 -6.45,3.02 -7.07,3.32 -0.59,0.28 -0.74,0.44 -0.83,0.87 -0.09,0.42 -0.13,0.67 -0.16,0.73 -0.10,0.28 -0.17,0.53 0.64,0.10 0.27,-0.14 6.30,-2.91 6.79,-3.17 0.48,-0.25 0.72,-0.41 0.90,-0.85 0.18,-0.44 0.23,-0.52 0.33,-0.82 0.11,-0.32 0.25,-0.58 -0.61,-0.19 z M 231.32,42.11 c -0.58,0.19 -8.54,3.93 -9.19,4.19 -0.60,0.24 -0.77,0.40 -0.88,0.81 -0.11,0.41 -0.17,0.66 -0.20,0.72 -0.12,0.28 -0.26,0.51 0.63,0.14 0.43,-0.18 8.29,-3.79 8.91,-4.06 0.49,-0.22 0.75,-0.36 0.96,-0.79 0.21,-0.42 0.26,-0.50 0.38,-0.80 0.13,-0.32 0.27,-0.51 -0.60,-0.22 z M 268.21,29.54 c 0.19,-0.54 -0.04,-0.84 -0.31,-0.18 -0.27,0.67 -1.41,2.96 -1.24,5.67 0.04,0.62 0.45,1.84 1.40,1.88 0.49,0.00 1.12,-0.36 1.56,-1.89 0.08,-0.35 0.13,-0.62 0.16,-0.76 0.05,-0.21 -0.10,-0.45 -0.26,0.02 -0.36,0.94 -1.28,1.59 -1.97,0.34 -0.11,-0.25 -0.58,-1.39 0.28,-3.88 0.17,-0.48 0.39,-1.20 0.39,-1.20 z M 273.94,15.06 c 0.49,0.00 1.12,-0.35 1.56,-1.88 0.08,-0.35 0.13,-0.62 0.16,-0.76 0.05,-0.21 -0.11,-0.45 -0.26,0.02 -0.36,0.94 -1.28,1.59 -1.97,0.34 -0.11,-0.25 -0.58,-1.39 0.28,-3.88 0.17,-0.48 0.39,-1.20 0.39,-1.20 0.19,-0.54 -0.04,-0.84 -0.31,-0.18 -0.27,0.67 -1.41,2.96 -1.24,5.67 0.04,0.63 0.45,1.84 1.40,1.88 z M 245.95,10.97 c 0.52,0.00 1.19,-0.38 1.67,-2.01 0.08,-0.37 0.13,-0.67 0.17,-0.81 0.05,-0.22 -0.11,-0.48 -0.28,0.02 -0.38,1.00 -1.37,1.70 -2.11,0.36 -0.12,-0.27 -0.62,-1.48 0.30,-4.14 0.18,-0.52 0.42,-1.28 0.42,-1.28 0.21,-0.58 -0.04,-0.90 -0.33,-0.19 -0.29,0.71 -1.51,3.16 -1.32,6.05 0.04,0.67 0.49,1.97 1.49,2.00 z M 236.00,17.70 c 0.21,-0.58 -0.04,-0.90 -0.33,-0.19 -0.29,0.71 -1.51,3.16 -1.32,6.05 0.04,0.67 0.49,1.97 1.49,2.00 0.52,0.00 1.19,-0.38 1.67,-2.01 0.08,-0.37 0.13,-0.67 0.17,-0.81 0.05,-0.22 -0.11,-0.48 -0.28,0.02 -0.38,1.00 -1.37,1.70 -2.11,0.36 -0.12,-0.27 -0.62,-1.48 0.30,-4.14 0.18,-0.52 0.42,-1.28 0.42,-1.28 z M 212.61,26.02 c 0.61,-0.04 1.38,-0.54 1.83,-2.57 0.07,-0.46 0.11,-0.82 0.14,-1.00 0.05,-0.27 -0.17,-0.58 -0.33,0.05 -0.38,1.25 -1.50,2.17 -2.46,0.58 -0.16,-0.32 -0.83,-1.77 0.06,-5.09 0.18,-0.64 0.40,-1.60 0.40,-1.60 0.20,-0.73 -0.11,-1.10 -0.41,-0.21 -0.29,0.89 -1.56,3.97 -1.14,7.50 0.10,0.81 0.71,2.38 1.90,2.35 z M 221.87,17.07 c 0.67,-0.04 1.52,-0.60 2.01,-2.83 0.08,-0.50 0.12,-0.91 0.16,-1.10 0.05,-0.30 -0.18,-0.64 -0.36,0.05 -0.42,1.38 -1.65,2.39 -2.71,0.64 -0.18,-0.35 -0.92,-1.95 0.07,-5.60 0.20,-0.71 0.44,-1.76 0.44,-1.76 0.22,-0.80 -0.12,-1.21 -0.45,-0.23 -0.32,0.98 -1.72,4.37 -1.25,8.25 0.11,0.90 0.78,2.62 2.09,2.59 z M 262.05,6.29 c 0.17,0.09 0.35,0.11 0.40,-0.10 0.05,-0.21 0.28,-0.68 0.61,-0.34 0.24,0.24 2.17,1.94 2.76,4.27 0.49,2.02 -4.48,6.10 -4.74,6.29 -0.47,0.33 -0.32,0.55 -0.10,0.43 0.22,-0.12 0.43,-0.15 2.98,-1.83 2.06,-1.36 2.49,-2.93 2.66,-4.14 0.02,-0.06 0.04,-0.13 0.05,-0.21 0.21,-1.47 0.33,-4.02 0.44,-4.79 0.16,-1.09 0.67,-3.33 2.03,-2.16 0.31,0.26 0.63,0.61 0.63,0.61 0.29,0.37 0.65,0.79 0.83,0.36 0.27,-0.64 0.48,-1.70 0.19,-2.28 -0.13,-0.26 -1.81,-2.41 -2.95,-0.94 -1.42,1.83 -1.51,4.23 -1.70,6.91 -0.20,-0.56 -1.33,-4.16 -4.95,-6.21 -0.26,-0.15 -0.80,0.13 -0.85,0.98 -0.03,0.49 -0.17,1.69 0.17,2.03 0.34,0.34 1.35,1.01 1.52,1.10 z M 294.95,36.94 c 0.26,2.25 0.45,4.18 0.49,5.33 -0.04,0.46 0.17,0.64 0.38,0.19 0.14,-0.29 0.80,-1.67 0.77,-5.62 1.30,-0.04 2.71,0.02 4.22,0.21 0.49,-0.99 1.35,-2.87 1.35,-2.87 -0.42,-0.01 -2.74,-0.07 -5.70,-0.25 -0.12,-1.68 -0.34,-3.66 -0.71,-6.01 -0.13,-0.92 -2.76,-19.64 -2.76,-19.64 0.00,0.00 1.55,1.46 1.80,1.72 0.25,0.26 0.55,0.12 0.41,-0.30 -0.14,-0.42 -3.31,-8.10 -3.42,-8.36 -0.10,-0.27 -0.20,-0.46 -0.33,-0.15 -0.13,0.31 -0.88,2.38 -0.88,2.38 0.20,1.35 1.99,15.83 2.10,16.81 0.07,0.62 1.10,7.38 1.88,13.42 -3.87,-0.28 -8.29,-0.76 -10.94,-1.57 0.26,-0.49 1.45,-3.07 0.82,-6.83 -0.40,-2.51 -2.89,-17.95 -2.89,-17.95 0.00,0.00 1.55,1.46 1.80,1.72 0.25,0.26 0.55,0.12 0.41,-0.30 -0.14,-0.42 -2.91,-7.26 -3.02,-7.52 -0.10,-0.27 -0.20,-0.46 -0.33,-0.15 -0.13,0.31 -1.15,2.55 -1.15,2.55 0.03,0.18 0.27,0.73 0.43,1.87 0.17,1.18 0.42,2.86 0.69,4.72 0.00,0.00 2.79,18.65 2.79,19.13 0.00,0.48 -0.29,0.74 -0.61,0.81 -1.42,0.48 -8.06,0.65 -9.38,2.35 -0.55,0.61 -0.87,2.26 0.26,1.97 2.58,-0.87 12.83,1.61 12.83,1.61 -1.00,0.61 -8.27,4.04 -15.96,5.06 -1.64,0.22 -7.96,1.27 -10.61,-4.51 -1.61,-3.53 -2.06,-27.79 -4.61,-35.24 -0.36,-0.97 -0.39,-0.90 -0.70,-0.34 -0.31,0.56 -0.92,2.48 -0.92,2.48 1.86,5.88 3.09,25.51 3.57,29.79 0.18,1.58 0.13,11.42 10.03,11.48 1.16,-0.03 6.68,0.23 18.35,-5.15 1.65,-0.76 4.79,-2.38 9.52,-2.81 z M 253.22,34.79 c 0.12,-0.69 0.46,-2.93 -1.17,-5.25 -0.17,-0.24 -0.23,0.00 -0.35,0.26 -0.12,0.26 -0.53,1.86 -0.53,1.86 0.37,1.02 1.24,3.04 0.85,3.43 -0.38,0.40 -2.87,2.07 -5.19,0.87 -0.45,-0.24 -1.86,-1.10 -2.01,-3.22 0.14,-0.40 0.08,-0.15 0.23,-0.61 0.15,-0.46 -0.08,-0.96 -0.52,-0.52 -0.44,0.44 -2.18,3.09 -4.36,4.27 -0.72,0.39 -6.75,3.48 -10.49,-1.58 -0.57,-0.77 -1.47,-2.18 -1.76,-2.62 -0.29,-0.44 -1.03,-1.16 -2.42,-0.46 -0.84,0.43 -1.79,1.22 -2.54,1.97 -0.48,0.48 -1.51,2.10 -1.81,2.79 -0.81,1.82 -1.92,4.58 -2.16,5.08 -0.33,0.68 -1.65,3.52 -4.07,1.43 -2.42,-2.09 -2.99,-3.69 -3.19,-9.17 -0.02,-0.57 -0.22,-1.39 -0.48,-0.02 -0.26,1.36 -0.81,9.92 3.83,12.45 0.88,0.48 2.68,1.30 3.81,-0.68 0.46,-0.81 1.61,-4.66 2.33,-6.05 0.73,-1.39 2.53,-3.54 3.83,-4.53 0.70,-0.46 1.50,-1.01 2.18,0.13 0.68,1.14 2.77,5.73 8.01,5.68 5.57,-0.06 8.34,-4.69 8.34,-4.69 0.18,0.40 0.93,4.25 5.38,3.72 0.51,-0.06 3.51,-0.14 4.29,-4.53 z M 358.00,14.89 c 0.18,-0.50 -0.04,-0.77 -0.29,-0.16 -0.25,0.61 -1.30,2.73 -1.14,5.22 0.04,0.58 0.42,1.70 1.29,1.73 0.45,0.00 1.03,-0.33 1.44,-1.73 0.07,-0.32 0.12,-0.57 0.15,-0.70 0.04,-0.19 -0.10,-0.42 -0.24,0.02 -0.33,0.86 -1.18,1.47 -1.82,0.31 -0.10,-0.23 -0.53,-1.28 0.26,-3.57 0.16,-0.45 0.36,-1.11 0.36,-1.11 z M 337.40,7.61 c 0.17,0.09 0.36,0.11 0.41,-0.10 0.05,-0.21 0.29,-0.68 0.62,-0.34 0.28,0.28 2.09,1.78 3.03,4.95 0.16,0.42 0.55,0.46 0.64,-0.14 0.22,-1.47 0.33,-4.02 0.45,-4.79 0.17,-1.09 0.68,-3.32 2.06,-2.16 0.31,0.26 0.64,0.61 0.64,0.61 0.29,0.37 0.66,0.79 0.84,0.36 0.27,-0.64 0.49,-1.70 0.19,-2.28 -0.13,-0.26 -1.84,-2.41 -3.00,-0.93 -1.44,1.83 -1.53,4.23 -1.72,6.91 -0.20,-0.56 -1.35,-4.16 -5.02,-6.21 -0.27,-0.15 -0.81,0.13 -0.86,0.98 -0.03,0.49 -0.17,1.69 0.18,2.03 0.35,0.34 1.37,1.01 1.54,1.10 z M 355.24,6.96 c 0.79,0.58 1.94,1.04 1.94,1.04 -3.66,4.48 -10.84,7.67 -12.56,9.01 -0.51,0.39 -0.44,0.61 -0.12,0.53 0.28,-0.08 5.76,-1.61 10.76,-5.90 2.29,-1.97 2.23,-2.11 2.81,-3.31 0.50,0.26 0.84,0.67 1.03,0.91 0.28,0.34 0.43,0.60 0.56,0.23 0.48,-1.33 -0.20,-2.13 -0.84,-2.54 0.00,0.00 0.67,-2.07 -0.56,-4.14 -0.21,-0.35 -1.43,-1.46 -2.85,0.74 -0.55,0.84 -0.96,2.85 -0.18,3.42 z M 355.97,4.93 c 0.73,-1.02 1.08,-0.99 1.36,-0.82 0.83,0.77 0.70,2.02 0.67,2.31 0.00,0.00 -1.05,-0.49 -1.52,-0.69 -0.47,-0.20 -0.72,-0.50 -0.50,-0.80 z M 360.38,37.80 c -0.24,0.68 -0.34,1.12 -0.32,1.38 0.03,0.26 0.12,1.10 0.12,1.10 -0.25,0.20 -1.33,0.87 -2.40,0.08 0.07,-0.23 0.21,-0.70 0.24,-0.95 0.12,-0.40 -0.13,-0.69 -0.32,-0.28 -0.20,0.41 -0.65,1.79 -0.99,2.10 -0.34,0.31 -0.74,1.45 -3.30,0.29 -0.45,-0.17 -1.23,-0.75 -2.46,0.48 -2.77,2.57 -4.68,2.78 -7.79,3.88 -0.38,0.17 -1.16,0.77 -0.23,0.67 0.94,-0.09 4.87,0.00 7.01,-2.46 0.45,-0.43 0.96,-1.58 2.66,-0.92 0.94,0.36 2.68,1.85 4.58,-1.10 1.12,0.75 2.82,0.45 3.09,-0.38 0.27,-0.82 0.58,-1.64 0.58,-2.20 0.00,-0.56 -0.05,-1.30 -0.05,-1.30 -0.04,-0.44 -0.19,-1.07 -0.44,-0.40 z M 331.89,20.86 c 0.48,0.00 1.11,-0.35 1.55,-1.87 0.08,-0.34 0.13,-0.62 0.16,-0.75 0.05,-0.21 -0.10,-0.45 -0.26,0.02 -0.36,0.93 -1.27,1.58 -1.96,0.34 -0.11,-0.25 -0.58,-1.38 0.28,-3.86 0.17,-0.48 0.39,-1.20 0.39,-1.20 0.19,-0.54 -0.04,-0.84 -0.31,-0.17 -0.27,0.66 -1.40,2.94 -1.23,5.64 0.04,0.62 0.45,1.83 1.39,1.87 z M 305.10,14.75 c -0.06,-0.05 -0.15,-0.03 -0.20,0.04 -1.53,2.10 -1.53,2.10 -1.53,2.10 -0.05,0.07 -0.04,0.16 0.03,0.20 2.61,1.91 2.61,1.91 2.61,1.91 0.06,0.05 0.15,0.03 0.20,-0.04 1.32,-1.81 1.32,-1.81 1.32,-1.81 2.54,1.85 2.54,1.85 2.54,1.85 0.06,0.05 0.15,0.03 0.20,-0.04 1.53,-2.10 1.53,-2.10 1.53,-2.10 0.05,-0.07 0.04,-0.16 -0.03,-0.20 -2.61,-1.91 -2.61,-1.91 -2.61,-1.91 -0.06,-0.05 -0.15,-0.03 -0.20,0.04 -1.32,1.81 -1.32,1.81 -1.32,1.81 z M 297.52,14.37 c 0.17,-0.04 3.05,-0.49 6.41,-3.05 1.82,-1.38 2.92,-3.74 2.92,-3.74 0.00,0.00 0.91,0.76 1.03,0.91 0.28,0.34 0.43,0.60 0.56,0.23 0.48,-1.33 -0.20,-2.13 -0.84,-2.54 0.00,0.00 0.67,-2.07 -0.56,-4.14 -0.21,-0.35 -1.43,-1.46 -2.85,0.74 -0.55,0.84 -0.96,2.85 -0.18,3.42 0.79,0.58 1.94,1.04 1.94,1.04 -3.66,4.48 -6.16,5.34 -8.30,6.59 -0.55,0.32 -0.44,0.61 -0.12,0.53 z M 305.23,4.97 c -0.47,-0.20 -0.72,-0.50 -0.50,-0.80 0.73,-1.02 1.08,-0.99 1.36,-0.82 0.82,0.77 0.70,2.03 0.67,2.31 0.00,0.00 -1.05,-0.49 -1.52,-0.69 z M 314.20,12.89 c 0.25,-0.16 13.84,-8.02 14.32,-8.31 0.46,-0.29 0.72,-0.41 0.91,-0.85 0.18,-0.44 0.23,-0.51 0.33,-0.82 0.10,-0.32 0.21,-0.67 -0.61,-0.19 -0.53,0.31 -14.04,8.11 -14.59,8.46 -0.55,0.35 -0.74,0.44 -0.83,0.87 -0.09,0.42 -0.13,0.67 -0.16,0.73 -0.10,0.28 -0.17,0.63 0.64,0.10 z M 363.58,25.48 c -0.25,-0.28 -0.37,-0.01 -0.46,0.31 -0.09,0.32 -0.36,1.52 -0.54,2.27 0.00,0.00 0.71,1.16 0.97,1.75 0.25,0.59 -0.12,0.92 -0.86,1.01 -2.08,0.25 -3.73,-0.94 -4.30,-1.48 -0.57,-0.55 0.05,-1.52 0.51,-2.68 0.37,-0.93 -0.32,-1.04 -0.84,0.00 -1.76,4.63 -4.23,5.12 -4.88,5.30 -5.86,1.60 -5.36,-3.76 -5.33,-4.64 0.02,-0.88 -0.62,-0.55 -1.34,0.03 -2.47,1.98 -4.45,3.14 -5.52,3.62 -0.92,-1.80 -2.26,-2.93 -2.82,-3.34 -6.34,-4.63 -6.87,4.71 -6.67,5.71 0.96,3.97 7.44,1.56 8.46,1.44 1.02,-0.12 0.68,1.22 0.11,2.02 -1.41,1.97 -3.03,3.38 -4.50,4.58 -6.28,5.13 -9.43,4.72 -10.41,4.69 -6.17,-0.17 -5.60,-6.82 -5.26,-8.24 1.86,-1.57 3.45,-3.28 4.38,-5.04 0.38,-0.96 1.03,-3.16 -0.15,-5.91 -0.62,-1.21 -2.56,-4.60 -2.56,-4.60 0.00,0.00 1.43,0.04 1.57,0.04 0.14,0.00 0.41,-0.14 0.06,-0.54 -0.35,-0.40 -3.36,-3.41 -3.54,-3.65 -0.18,-0.24 -0.35,-0.41 -0.45,-0.06 -0.10,0.36 -0.36,1.88 -0.42,2.20 -0.06,0.31 -0.06,0.63 0.10,0.90 0.15,0.27 0.55,1.20 0.84,1.96 0.29,0.76 3.25,6.47 3.53,6.98 0.27,0.51 0.33,0.88 0.06,1.22 -9.53,10.05 -27.91,16.23 -28.50,16.58 -0.59,0.34 -0.43,0.61 0.56,0.43 1.48,-0.26 9.74,-1.64 12.09,-2.77 1.55,-0.75 6.97,-3.41 11.41,-6.89 -0.12,0.90 -0.24,2.22 -0.17,3.89 0.30,8.08 7.53,6.74 9.43,6.33 5.68,-1.25 12.64,-9.11 13.23,-10.69 0.58,-1.56 0.67,-2.98 0.54,-4.22 1.50,-0.81 4.71,-3.40 4.71,-3.40 0.13,3.45 2.87,4.48 3.72,4.63 3.96,0.60 5.94,-2.71 6.78,-3.78 0.72,1.89 2.45,2.25 3.34,2.43 3.41,0.68 4.08,-1.74 4.25,-2.29 1.07,-3.33 -0.86,-5.81 -1.11,-6.08 z M 334.95,32.16 c -2.03,-0.14 -1.85,-0.92 -1.57,-1.22 0.30,-0.33 2.78,-1.89 4.85,0.89 0.00,0.00 -0.86,0.50 -3.28,0.33 z M 304.47,24.50 c 0.00,0.00 1.25,-0.31 1.47,-0.38 0.22,-0.06 0.34,-0.35 -0.05,-0.55 -0.39,-0.20 -4.09,-1.67 -4.37,-1.79 -0.28,-0.11 -0.38,-0.24 -0.41,0.06 -0.02,0.30 -0.07,2.73 -0.07,2.73 0.00,0.00 -0.06,0.17 0.27,0.35 0.32,0.18 0.64,0.58 0.90,0.84 0.26,0.26 3.70,2.98 3.87,3.07 0.00,0.00 -1.72,3.02 -1.94,5.38 -0.22,2.36 0.04,5.63 3.27,4.57 0.87,-0.25 4.49,-1.69 5.30,-4.21 0.26,-0.93 1.01,-2.61 -0.21,-4.31 -0.70,-1.00 -3.53,-2.69 -3.53,-2.69 0.00,0.00 2.17,-3.00 2.38,-3.37 0.21,-0.37 1.00,-2.69 1.09,-3.26 0.09,-0.56 0.13,-0.84 -0.29,-0.32 -0.42,0.52 -4.63,6.05 -4.63,6.05 z M 311.43,33.38 c -1.20,0.99 -3.72,2.29 -4.43,2.36 -0.71,0.07 -2.59,-0.28 -1.77,-2.20 0.28,-0.62 2.16,-3.84 2.16,-3.84 0.70,0.39 5.24,2.70 4.04,3.69 z" />
     </g>
</svg>
