<?xml version="1.0" encoding="UTF-8"?>
<svg version="1.1" id="Layer_1" x="0px" y="0px" width="578" height="53" viewBox="0 0 578 53"
xml:space="preserve" xmlns="http://www.w3.org/2000/svg" xmlns:svg="http://www.w3.org/2000/svg" xmlns:rdf="http://www.w3.org/1999/02/22-rdf-syntax-ns#"  xmlns:cc="http://creativecommons.org/ns#" xmlns:dc="http://purl.org/dc/elements/1.1/">
     <g>
<path d="M 224.72,18.76 c -1.92,2.63 -1.92,2.63 -1.92,2.63 -0.06,0.08 -0.05,0.20 0.03,0.25 3.27,2.38 3.27,2.38 3.27,2.38 0.08,0.06 0.19,0.04 0.25,-0.05 1.91,-2.63 1.91,-2.63 1.91,-2.63 0.06,-0.08 0.05,-0.20 -0.03,-0.25 -3.27,-2.38 -3.27,-2.38 -3.27,-2.38 -0.08,-0.06 -0.19,-0.04 -0.25,0.05 z M 239.09,20.70 c 0.66,0.11 1.04,0.49 1.20,0.71 0.07,0.09 0.18,0.03 0.21,-0.04 0.75,-1.48 0.07,-2.40 -1.20,-2.77 -0.51,-0.15 -0.73,-0.85 1.14,-2.05 1.72,-1.11 17.60,-9.12 17.98,-9.39 0.52,-0.36 0.83,-0.50 1.03,-1.02 0.20,-0.52 0.25,-0.61 0.36,-0.97 0.11,-0.38 0.22,-0.79 -0.72,-0.20 -0.50,0.31 -18.04,9.02 -19.48,10.18 -0.72,0.58 -1.32,1.51 -1.53,2.51 -0.30,1.45 0.06,2.88 1.00,3.03 z M 261.74,13.25 c 0.58,0.09 0.92,0.43 1.07,0.63 0.06,0.08 0.16,0.03 0.19,-0.03 0.66,-1.31 0.06,-2.13 -1.07,-2.46 -0.45,-0.13 -0.65,-0.75 1.01,-1.82 1.53,-0.98 13.70,-6.87 14.04,-7.11 0.46,-0.32 0.74,-0.44 0.91,-0.90 0.18,-0.46 0.22,-0.54 0.32,-0.86 0.10,-0.34 0.20,-0.70 -0.64,-0.18 -0.44,0.28 -14.09,6.79 -15.36,7.82 -0.64,0.52 -1.17,1.33 -1.35,2.22 -0.27,1.28 0.05,2.55 0.89,2.69 z M 277.22,28.89 c -0.95,0.70 -1.60,1.11 -1.60,1.11 -0.62,0.44 -1.16,1.28 -0.07,0.81 1.09,-0.46 2.54,-1.19 3.65,-2.86 0.32,-0.49 0.70,-1.14 -0.80,-1.36 -1.50,-0.22 -3.93,-0.57 -4.71,0.28 -0.79,0.85 -1.03,1.44 -1.26,1.81 -0.32,0.50 0.08,0.73 0.45,0.34 0.37,-0.39 0.62,-0.79 1.68,-0.76 1.07,0.03 3.62,-0.07 2.66,0.63 z M 206.34,18.80 c 0.64,-0.37 4.31,-1.86 4.92,-5.65 0.05,-0.50 -0.05,-0.87 -0.16,-1.12 0.05,0.01 0.10,0.05 0.16,0.11 0.26,0.27 1.91,1.69 2.77,4.71 0.15,0.40 0.50,0.44 0.59,-0.13 0.20,-1.40 0.31,-3.82 0.41,-4.56 0.15,-1.03 0.62,-3.16 1.88,-2.06 0.28,0.25 0.59,0.58 0.59,0.58 0.27,0.35 0.60,0.75 0.76,0.35 0.25,-0.61 0.45,-1.62 0.18,-2.17 -0.12,-0.24 -1.68,-2.29 -2.74,-0.89 -1.31,1.74 -1.40,4.03 -1.57,6.58 -0.19,-0.53 -1.23,-3.95 -4.59,-5.91 -0.24,-0.14 -0.74,0.13 -0.78,0.93 -0.03,0.47 -0.16,1.61 0.16,1.93 0.30,0.31 2.57,1.14 1.34,2.49 -0.55,0.61 -3.31,3.59 -3.90,4.31 -0.59,0.72 -0.65,0.85 -0.01,0.49 z M 277.90,8.08 c 0.17,-0.27 0.50,-0.92 -0.06,-0.60 -0.56,0.32 -2.05,0.76 -2.72,0.64 -0.67,-0.13 -1.45,-0.70 -1.63,-0.98 -0.17,-0.27 -0.15,-0.58 0.38,-0.89 0.53,-0.30 1.10,-0.51 1.51,0.16 0.08,0.11 0.16,0.11 0.34,-0.06 0.17,-0.17 0.51,-0.65 0.60,-0.78 0.09,-0.14 0.17,-0.36 0.02,-0.53 -0.14,-0.17 -0.72,-0.97 -1.66,-0.24 -0.94,0.73 -3.10,2.83 -2.13,3.81 0.56,0.46 0.82,0.68 0.82,0.68 -0.26,0.10 -0.49,0.35 -0.65,0.68 -0.16,0.32 -0.18,0.39 -0.26,0.57 -0.08,0.18 -0.13,0.43 0.32,0.17 0.45,-0.25 1.51,-1.26 4.38,-1.89 0.40,-0.08 0.75,-0.74 0.75,-0.74 z M 306.30,46.22 c 0.21,-0.44 1.67,-3.47 -0.06,-14.54 -0.13,-0.92 -2.76,-19.64 -2.76,-19.64 0.00,0.00 1.55,1.45 1.80,1.72 0.25,0.26 0.55,0.12 0.41,-0.30 -0.14,-0.42 -3.31,-8.09 -3.42,-8.36 -0.10,-0.27 -0.20,-0.46 -0.33,-0.15 -0.13,0.31 -0.88,2.38 -0.88,2.38 0.20,1.35 1.99,15.82 2.10,16.81 0.12,0.99 2.62,17.36 2.76,21.89 -0.04,0.46 0.17,0.64 0.38,0.19 z M 256.68,29.01 c 0.06,0.05 0.15,0.03 0.20,-0.04 1.32,-1.81 1.32,-1.81 1.32,-1.81 2.54,1.85 2.54,1.85 2.54,1.85 0.06,0.05 0.15,0.03 0.20,-0.04 1.53,-2.10 1.53,-2.10 1.53,-2.10 0.05,-0.07 0.04,-0.16 -0.03,-0.20 -2.61,-1.91 -2.61,-1.91 -2.61,-1.91 -0.06,-0.05 -0.15,-0.03 -0.20,0.04 -1.32,1.81 -1.32,1.81 -1.32,1.81 -2.54,-1.85 -2.54,-1.85 -2.54,-1.85 -0.06,-0.05 -0.15,-0.03 -0.20,0.04 -1.53,2.10 -1.53,2.10 -1.53,2.10 -0.05,0.07 -0.04,0.16 0.03,0.20 z M 248.87,31.06 c 0.29,0.20 0.61,0.47 0.61,0.47 0.29,0.29 0.64,0.62 0.76,0.23 0.17,-0.58 0.26,-1.52 -0.05,-1.99 -0.14,-0.21 -1.81,-1.91 -2.68,-0.53 -1.07,1.71 -0.92,3.80 -0.84,6.13 -0.23,-0.47 -1.56,-3.46 -4.92,-4.90 -0.24,-0.10 -0.69,0.19 -0.65,0.93 0.02,0.43 0.01,1.48 0.34,1.74 0.33,0.26 1.28,0.74 1.44,0.80 0.16,0.07 0.32,0.06 0.35,-0.12 0.02,-0.18 0.18,-0.62 0.50,-0.35 0.27,0.22 1.97,1.34 3.08,3.99 0.18,0.35 0.52,0.35 0.54,-0.18 0.05,-1.29 -0.09,-3.50 -0.06,-4.18 0.04,-0.95 0.28,-2.94 1.58,-2.06 z M 234.28,44.14 c -0.56,0.25 -11.08,5.22 -11.70,5.55 -0.58,0.30 -0.72,0.47 -0.79,0.90 -0.07,0.42 -0.11,0.67 -0.13,0.74 -0.09,0.29 -0.21,0.54 0.64,0.08 0.41,-0.22 10.85,-5.06 11.43,-5.39 0.47,-0.26 0.70,-0.43 0.87,-0.88 0.17,-0.44 0.21,-0.52 0.29,-0.83 0.09,-0.33 0.22,-0.53 -0.62,-0.16 z M 253.07,14.25 c 0.19,-0.54 -0.04,-0.84 -0.31,-0.17 -0.27,0.66 -1.40,2.94 -1.23,5.63 0.04,0.62 0.45,1.83 1.39,1.86 0.48,0.00 1.11,-0.35 1.55,-1.87 0.08,-0.34 0.12,-0.62 0.16,-0.75 0.05,-0.21 -0.10,-0.45 -0.26,0.02 -0.35,0.93 -1.27,1.58 -1.96,0.33 -0.11,-0.25 -0.58,-1.38 0.28,-3.85 0.17,-0.48 0.39,-1.19 0.39,-1.19 z M 268.64,14.52 c 0.19,-0.54 -0.04,-0.84 -0.31,-0.17 -0.27,0.66 -1.40,2.94 -1.23,5.63 0.04,0.62 0.45,1.83 1.39,1.86 0.48,0.00 1.11,-0.35 1.55,-1.87 0.08,-0.34 0.13,-0.62 0.16,-0.75 0.05,-0.21 -0.10,-0.45 -0.26,0.02 -0.35,0.93 -1.27,1.58 -1.96,0.33 -0.11,-0.25 -0.58,-1.38 0.28,-3.85 0.17,-0.48 0.39,-1.20 0.39,-1.20 z M 288.71,17.01 c 0.53,-0.03 1.20,-0.48 1.59,-2.26 0.06,-0.40 0.10,-0.72 0.12,-0.88 0.04,-0.24 -0.14,-0.51 -0.29,0.04 -0.33,1.10 -1.30,1.91 -2.14,0.51 -0.14,-0.28 -0.72,-1.56 0.05,-4.47 0.16,-0.56 0.35,-1.41 0.35,-1.41 0.18,-0.64 -0.10,-0.96 -0.35,-0.18 -0.25,0.78 -1.35,3.49 -0.99,6.58 0.09,0.71 0.62,2.09 1.65,2.07 z M 224.35,16.25 c 0.56,-0.03 1.26,-0.44 1.69,-2.08 0.07,-0.37 0.11,-0.66 0.14,-0.81 0.04,-0.22 -0.15,-0.47 -0.30,0.04 -0.35,1.01 -1.38,1.75 -2.25,0.48 -0.14,-0.25 -0.75,-1.42 0.09,-4.09 0.17,-0.52 0.38,-1.29 0.38,-1.29 0.19,-0.58 -0.09,-0.88 -0.37,-0.16 -0.27,0.72 -1.45,3.20 -1.09,6.03 0.08,0.65 0.63,1.91 1.72,1.88 z M 207.13,30.78 c 0.48,-0.03 1.08,-0.43 1.43,-2.06 0.06,-0.37 0.09,-0.66 0.11,-0.81 0.03,-0.22 -0.13,-0.47 -0.26,0.04 -0.29,1.00 -1.17,1.74 -1.92,0.46 -0.13,-0.25 -0.65,-1.42 0.04,-4.08 0.14,-0.52 0.31,-1.28 0.31,-1.28 0.16,-0.58 -0.09,-0.88 -0.32,-0.17 -0.23,0.71 -1.21,3.19 -0.88,6.02 0.08,0.65 0.56,1.91 1.49,1.89 z M 215.34,22.66 c 0.23,-0.93 -0.14,-1.40 -0.47,-0.27 -0.33,1.14 -1.77,5.07 -1.26,9.58 0.12,1.04 0.84,3.05 2.21,3.02 0.71,-0.04 1.59,-0.68 2.09,-3.28 0.08,-0.58 0.12,-1.05 0.16,-1.28 0.05,-0.35 -0.20,-0.75 -0.38,0.06 -0.43,1.60 -1.71,2.77 -2.84,0.72 -0.19,-0.41 -0.98,-2.27 0.04,-6.51 0.21,-0.82 0.45,-2.05 0.45,-2.05 z M 295.62,12.04 c 0.00,0.00 1.55,1.45 1.80,1.72 0.25,0.26 0.55,0.12 0.41,-0.30 -0.14,-0.42 -3.31,-8.09 -3.42,-8.36 -0.10,-0.27 -0.20,-0.46 -0.33,-0.15 -0.13,0.31 -1.15,2.55 -1.15,2.55 0.03,0.18 0.27,0.73 0.43,1.87 0.17,1.18 0.42,2.86 0.69,4.71 0.00,0.00 4.03,22.07 3.42,24.02 -0.08,0.26 -0.21,0.60 -0.39,1.01 0.03,-1.73 -0.29,-4.32 -1.98,-6.50 -2.26,-2.92 -6.62,-6.46 -7.59,-7.40 -0.72,-0.70 -4.63,-4.24 -6.68,-6.87 -0.92,-1.21 -2.00,-2.82 -2.00,-2.82 0.65,0.24 1.45,0.46 1.88,0.60 0.43,0.15 0.94,0.00 0.29,-0.60 -0.65,-0.60 -5.62,-4.22 -6.00,-4.65 -0.39,-0.43 -0.43,-0.36 -0.46,-0.02 -0.02,0.34 0.00,2.12 0.02,2.68 0.02,0.55 0.14,0.75 0.39,0.92 0.24,0.17 0.63,0.43 0.89,0.84 0.26,0.41 4.92,7.23 8.99,10.78 0.52,0.54 7.90,5.94 10.67,11.25 0.57,1.08 0.80,2.13 0.86,3.16 -1.66,2.73 -5.45,6.86 -14.11,10.40 -0.72,0.33 -0.61,0.84 0.89,0.39 1.50,-0.45 11.03,-2.06 14.27,-9.25 0.78,-1.73 2.34,-4.96 0.84,-12.98 -0.39,-3.29 -2.63,-16.97 -2.63,-16.97 z M 232.34,39.56 c 0.44,-1.10 0.64,-2.58 0.27,-4.54 -1.83,-7.43 -5.14,-7.38 -6.72,-6.73 -0.37,0.15 -1.09,0.79 -1.29,1.07 -0.95,1.32 -2.35,4.22 -0.39,6.19 1.51,1.29 4.20,0.67 4.69,0.65 0.89,-0.04 2.04,-0.09 2.64,1.47 0.12,0.40 -0.32,0.90 -1.32,1.51 -1.00,0.60 -12.67,7.35 -19.90,5.19 -1.23,-0.39 -5.68,-1.45 -5.52,-6.98 0.04,-0.97 0.63,-3.00 0.88,-3.91 0.25,-0.91 -0.08,-1.56 -0.49,-0.50 -0.41,1.06 -4.39,8.67 1.37,13.12 1.08,0.79 4.86,3.41 13.84,0.56 9.03,-3.14 11.24,-5.34 11.94,-7.09 z M 228.14,33.16 c -0.45,0.14 -1.27,0.45 -2.52,0.00 -1.12,-0.40 -0.65,-1.60 0.12,-1.90 0.35,-0.14 1.79,-0.71 3.56,1.73 0.00,0.00 -0.72,0.03 -1.17,0.17 z M 289.75,40.71 c 1.43,-2.92 1.43,-2.92 1.43,-2.92 0.00,0.00 -0.47,-0.11 -1.32,-0.15 -0.85,-0.04 -9.13,-0.21 -15.02,-2.28 -1.70,-0.54 -2.54,-1.56 -6.14,-0.39 -0.46,0.17 -2.87,1.22 -3.18,1.94 -0.31,0.72 -0.54,1.75 -0.57,2.04 -0.02,0.29 0.10,0.33 0.41,0.30 0.31,-0.02 5.94,-0.77 5.94,-0.77 0.00,0.00 0.35,-0.04 0.51,-0.25 0.16,-0.22 0.39,-0.34 0.96,-0.16 0.58,0.18 6.36,1.57 6.36,1.57 -0.97,0.54 -13.82,8.55 -19.08,3.47 0.53,-0.56 3.66,-2.95 2.23,-7.47 -0.23,-0.71 -2.17,-6.05 -4.76,-3.44 -2.60,2.61 -2.64,6.08 -0.94,9.89 -0.91,0.62 -8.71,4.74 -13.92,2.91 -0.78,-0.27 -4.53,-1.97 -5.15,-11.31 -0.08,-1.21 -0.95,-20.06 -3.67,-27.68 -0.35,-0.62 -0.51,-0.46 -0.70,-0.01 -0.19,0.45 -0.81,2.30 -0.81,2.30 3.05,11.15 3.16,23.81 3.78,28.45 0.59,4.40 0.86,8.44 4.46,10.75 1.93,1.24 8.28,2.83 17.38,-3.03 1.26,1.23 4.22,6.90 15.89,0.83 1.35,-0.70 6.13,-3.56 8.29,-4.04 4.23,-0.96 7.60,-0.55 7.60,-0.55 z M 258.49,40.85 c 0.00,0.00 -0.35,-0.50 -1.30,-2.23 -0.95,-1.73 -0.70,-2.54 0.64,-3.66 1.34,-1.11 2.91,1.61 3.49,2.85 0.58,1.24 -2.35,2.79 -2.83,3.04 z M 341.39,23.08 c 0.48,0.00 1.11,-0.35 1.55,-1.87 0.08,-0.34 0.13,-0.62 0.16,-0.75 0.05,-0.21 -0.10,-0.45 -0.26,0.02 -0.35,0.93 -1.27,1.58 -1.96,0.33 -0.11,-0.25 -0.58,-1.38 0.28,-3.86 0.17,-0.48 0.39,-1.20 0.39,-1.20 0.19,-0.54 -0.04,-0.84 -0.31,-0.18 -0.27,0.66 -1.40,2.94 -1.23,5.64 0.04,0.62 0.45,1.83 1.39,1.87 z M 367.50,17.10 c 0.18,-0.50 -0.04,-0.77 -0.29,-0.16 -0.25,0.61 -1.30,2.73 -1.14,5.22 0.04,0.58 0.42,1.70 1.29,1.73 0.45,0.00 1.03,-0.33 1.44,-1.73 0.07,-0.32 0.12,-0.57 0.15,-0.70 0.04,-0.19 -0.10,-0.42 -0.24,0.02 -0.33,0.86 -1.18,1.47 -1.82,0.31 -0.10,-0.23 -0.53,-1.28 0.26,-3.57 0.16,-0.44 0.36,-1.11 0.36,-1.11 z M 346.90,9.83 c 0.17,0.09 0.36,0.11 0.41,-0.10 0.05,-0.21 0.28,-0.68 0.62,-0.34 0.28,0.28 2.09,1.78 3.03,4.95 0.16,0.42 0.55,0.46 0.64,-0.14 0.22,-1.47 0.34,-4.02 0.45,-4.79 0.16,-1.08 0.68,-3.32 2.06,-2.16 0.31,0.26 0.64,0.61 0.64,0.61 0.29,0.37 0.66,0.79 0.84,0.36 0.27,-0.64 0.49,-1.70 0.19,-2.28 -0.13,-0.26 -1.84,-2.41 -3.00,-0.93 -1.44,1.83 -1.53,4.23 -1.72,6.91 -0.20,-0.56 -1.35,-4.16 -5.02,-6.21 -0.27,-0.15 -0.81,0.13 -0.86,0.98 -0.03,0.49 -0.17,1.69 0.18,2.03 0.35,0.34 1.37,1.01 1.54,1.10 z M 364.74,9.17 c 0.79,0.58 1.93,1.04 1.93,1.04 -3.66,4.48 -10.84,7.67 -12.55,9.01 -0.51,0.38 -0.44,0.61 -0.12,0.52 0.29,-0.08 5.76,-1.61 10.77,-5.90 2.29,-1.97 2.23,-2.11 2.81,-3.31 0.50,0.26 0.84,0.67 1.03,0.91 0.28,0.34 0.43,0.60 0.56,0.23 0.48,-1.33 -0.20,-2.13 -0.84,-2.54 0.00,0.00 0.67,-2.07 -0.56,-4.14 -0.21,-0.35 -1.43,-1.46 -2.85,0.74 -0.55,0.84 -0.96,2.85 -0.17,3.42 z M 365.47,7.14 c 0.73,-1.02 1.08,-0.99 1.36,-0.82 0.82,0.77 0.70,2.03 0.67,2.31 0.00,0.00 -1.05,-0.49 -1.52,-0.69 -0.47,-0.20 -0.72,-0.50 -0.50,-0.80 z M 323.70,15.10 c 0.25,-0.16 13.84,-8.02 14.32,-8.31 0.46,-0.29 0.72,-0.41 0.91,-0.85 0.18,-0.44 0.23,-0.51 0.33,-0.82 0.10,-0.32 0.21,-0.67 -0.61,-0.19 -0.53,0.31 -14.04,8.11 -14.59,8.46 -0.55,0.35 -0.74,0.44 -0.83,0.87 -0.09,0.42 -0.13,0.67 -0.16,0.73 -0.10,0.28 -0.17,0.63 0.64,0.10 z M 373.08,27.69 c -0.25,-0.28 -0.37,-0.01 -0.46,0.31 -0.09,0.32 -0.36,1.52 -0.54,2.27 0.00,0.00 0.71,1.16 0.97,1.76 0.25,0.59 -0.12,0.92 -0.86,1.01 -2.08,0.25 -3.73,-0.94 -4.30,-1.48 -0.57,-0.55 0.05,-1.52 0.51,-2.68 0.37,-0.93 -0.32,-1.04 -0.84,0.00 -1.76,4.63 -4.23,5.12 -4.88,5.30 -5.86,1.60 -5.36,-3.76 -5.34,-4.64 0.02,-0.88 -0.62,-0.55 -1.34,0.03 -2.47,1.98 -4.45,3.14 -5.52,3.62 -0.92,-1.80 -2.26,-2.93 -2.82,-3.34 -6.34,-4.63 -6.87,4.71 -6.67,5.71 0.97,3.97 7.45,1.56 8.46,1.44 1.02,-0.12 0.68,1.22 0.11,2.02 -1.41,1.97 -3.03,3.38 -4.50,4.58 -6.28,5.13 -9.44,4.72 -10.41,4.69 -6.17,-0.17 -5.60,-6.82 -5.26,-8.24 1.86,-1.57 3.45,-3.28 4.38,-5.04 0.38,-0.96 1.03,-3.16 -0.15,-5.91 -0.62,-1.21 -2.56,-4.60 -2.56,-4.60 0.00,0.00 1.43,0.04 1.57,0.04 0.14,0.00 0.41,-0.14 0.06,-0.54 -0.35,-0.40 -3.36,-3.41 -3.54,-3.65 -0.18,-0.24 -0.35,-0.41 -0.45,-0.06 -0.10,0.36 -0.36,1.88 -0.42,2.20 -0.06,0.31 -0.06,0.63 0.10,0.90 0.15,0.27 0.55,1.20 0.84,1.96 0.29,0.76 3.26,6.47 3.53,6.98 0.27,0.51 0.33,0.88 0.06,1.22 -9.53,10.05 -27.91,16.23 -28.50,16.57 -0.59,0.34 -0.43,0.61 0.56,0.43 1.48,-0.26 9.74,-1.64 12.09,-2.77 1.55,-0.75 6.97,-3.41 11.41,-6.89 -0.12,0.90 -0.24,2.22 -0.17,3.89 0.30,8.08 7.53,6.74 9.43,6.33 5.68,-1.25 12.64,-9.11 13.23,-10.69 0.58,-1.56 0.67,-2.98 0.54,-4.22 1.50,-0.81 4.71,-3.40 4.71,-3.40 0.13,3.45 2.88,4.48 3.72,4.63 3.96,0.60 5.94,-2.70 6.78,-3.78 0.72,1.89 2.45,2.26 3.34,2.43 3.41,0.68 4.08,-1.73 4.26,-2.29 1.07,-3.33 -0.86,-5.81 -1.11,-6.08 z M 344.45,34.37 c -2.02,-0.14 -1.85,-0.92 -1.57,-1.22 0.30,-0.33 2.78,-1.89 4.85,0.89 0.00,0.00 -0.86,0.50 -3.28,0.33 z M 369.88,40.01 c -0.24,0.68 -0.34,1.12 -0.31,1.38 0.03,0.26 0.11,1.10 0.11,1.10 -0.25,0.20 -1.33,0.87 -2.40,0.08 0.07,-0.23 0.21,-0.70 0.24,-0.95 0.12,-0.40 -0.13,-0.69 -0.32,-0.28 -0.19,0.41 -0.65,1.79 -0.99,2.10 -0.34,0.31 -0.73,1.45 -3.30,0.29 -0.45,-0.17 -1.23,-0.75 -2.46,0.48 -2.77,2.57 -4.68,2.78 -7.79,3.88 -0.38,0.17 -1.16,0.77 -0.23,0.67 0.94,-0.09 4.87,0.00 7.01,-2.46 0.45,-0.43 0.96,-1.58 2.66,-0.92 0.94,0.36 2.68,1.85 4.58,-1.10 1.12,0.75 2.82,0.45 3.09,-0.38 0.27,-0.82 0.58,-1.64 0.58,-2.20 0.00,-0.56 -0.05,-1.30 -0.05,-1.30 -0.04,-0.44 -0.19,-1.07 -0.44,-0.40 z M 307.02,16.58 c 0.17,-0.04 3.05,-0.49 6.41,-3.05 1.82,-1.38 2.92,-3.74 2.92,-3.74 0.00,0.00 0.91,0.76 1.03,0.91 0.28,0.34 0.43,0.60 0.56,0.23 0.48,-1.33 -0.20,-2.13 -0.84,-2.54 0.00,0.00 0.67,-2.07 -0.56,-4.14 -0.21,-0.35 -1.43,-1.46 -2.85,0.74 -0.55,0.84 -0.96,2.85 -0.17,3.42 0.79,0.58 1.93,1.04 1.93,1.04 -3.66,4.48 -6.16,5.34 -8.30,6.59 -0.55,0.32 -0.44,0.61 -0.12,0.53 z M 314.74,7.19 c -0.47,-0.20 -0.72,-0.50 -0.50,-0.80 0.73,-1.02 1.08,-0.99 1.36,-0.82 0.82,0.77 0.70,2.03 0.67,2.31 0.00,0.00 -1.05,-0.49 -1.52,-0.69 z M 314.60,16.97 c -0.06,-0.05 -0.15,-0.03 -0.20,0.04 -1.53,2.10 -1.53,2.10 -1.53,2.10 -0.05,0.07 -0.04,0.16 0.03,0.20 2.61,1.91 2.61,1.91 2.61,1.91 0.06,0.05 0.15,0.03 0.20,-0.04 1.32,-1.81 1.32,-1.81 1.32,-1.81 2.54,1.85 2.54,1.85 2.54,1.85 0.06,0.05 0.15,0.03 0.20,-0.04 1.53,-2.10 1.53,-2.10 1.53,-2.10 0.05,-0.07 0.04,-0.16 -0.03,-0.20 -2.61,-1.91 -2.61,-1.91 -2.61,-1.91 -0.06,-0.05 -0.15,-0.03 -0.20,0.04 -1.32,1.81 -1.32,1.81 -1.32,1.81 z M 313.98,26.71 c 0.00,0.00 1.25,-0.31 1.47,-0.38 0.22,-0.06 0.34,-0.35 -0.05,-0.55 -0.39,-0.20 -4.09,-1.67 -4.37,-1.79 -0.28,-0.11 -0.38,-0.24 -0.41,0.06 -0.02,0.30 -0.07,2.73 -0.07,2.73 0.00,0.00 -0.06,0.17 0.26,0.35 0.32,0.18 0.64,0.58 0.90,0.84 0.26,0.26 3.70,2.98 3.87,3.07 0.00,0.00 -1.72,3.02 -1.94,5.38 -0.22,2.36 0.04,5.63 3.27,4.57 0.87,-0.25 4.49,-1.69 5.30,-4.21 0.26,-0.93 1.01,-2.61 -0.21,-4.31 -0.70,-1.00 -3.53,-2.69 -3.53,-2.69 0.00,0.00 2.17,-3.00 2.38,-3.37 0.21,-0.37 1.00,-2.69 1.09,-3.26 0.09,-0.56 0.13,-0.84 -0.29,-0.32 -0.42,0.52 -4.63,6.05 -4.63,6.05 z M 320.93,35.59 c -1.20,0.99 -3.72,2.29 -4.43,2.36 -0.71,0.07 -2.59,-0.28 -1.77,-2.20 0.28,-0.62 2.16,-3.84 2.16,-3.84 0.70,0.39 5.24,2.70 4.04,3.69 z" />
     </g>
</svg>
