<?xml version="1.0" encoding="UTF-8"?>
<svg version="1.1" id="Layer_1" x="0px" y="0px" width="578" height="52" viewBox="0 0 578 52"
xml:space="preserve" xmlns="http://www.w3.org/2000/svg" xmlns:svg="http://www.w3.org/2000/svg" xmlns:rdf="http://www.w3.org/1999/02/22-rdf-syntax-ns#"  xmlns:cc="http://creativecommons.org/ns#" xmlns:dc="http://purl.org/dc/elements/1.1/">
     <g>
<path d="M 237.77,17.50 c 0.68,0.11 1.07,0.50 1.24,0.73 0.07,0.10 0.18,0.03 0.22,-0.04 0.77,-1.53 0.07,-2.49 -1.24,-2.86 -0.52,-0.15 -0.76,-0.88 1.18,-2.12 1.78,-1.15 19.42,-10.07 19.81,-10.35 0.53,-0.37 0.86,-0.52 1.07,-1.05 0.21,-0.53 0.26,-0.63 0.37,-1.00 0.12,-0.39 0.23,-0.81 -0.74,-0.21 -0.52,0.32 -19.88,9.96 -21.36,11.16 -0.74,0.60 -1.36,1.56 -1.58,2.59 -0.31,1.50 0.06,2.98 1.04,3.14 z M 225.29,12.33 c 0.66,-0.37 4.49,-1.86 5.12,-5.65 0.05,-0.50 -0.05,-0.87 -0.17,-1.12 0.05,0.01 0.11,0.05 0.17,0.11 0.27,0.27 1.99,1.69 2.88,4.71 0.15,0.40 0.53,0.44 0.61,-0.13 0.21,-1.40 0.32,-3.82 0.43,-4.56 0.16,-1.03 0.65,-3.16 1.96,-2.06 0.30,0.25 0.61,0.58 0.61,0.58 0.28,0.35 0.63,0.75 0.80,0.35 0.26,-0.61 0.46,-1.62 0.18,-2.17 -0.12,-0.24 -1.75,-2.30 -2.85,-0.89 -1.37,1.74 -1.46,4.03 -1.64,6.58 -0.19,-0.53 -1.29,-3.95 -4.78,-5.91 -0.25,-0.14 -0.77,0.13 -0.82,0.93 -0.03,0.47 -0.16,1.61 0.17,1.93 0.32,0.31 2.68,1.14 1.40,2.49 -0.57,0.61 -3.45,3.59 -4.06,4.31 -0.62,0.72 -0.68,0.85 -0.01,0.49 z M 284.98,7.47 c -4.19,4.27 -7.60,6.41 -9.92,7.50 -0.60,0.28 -0.51,0.60 -0.17,0.53 1.43,-0.28 4.28,-1.24 6.91,-3.10 2.62,-1.86 4.09,-4.50 4.09,-4.50 0.00,0.00 0.87,0.87 0.98,1.04 0.25,0.38 0.38,0.65 0.55,0.29 0.62,-1.32 0.00,-2.21 -0.63,-2.70 0.00,0.00 0.89,-2.06 -0.19,-4.32 -0.18,-0.38 -1.33,-1.63 -3.00,0.49 -0.65,0.81 -1.26,2.84 -0.50,3.50 0.75,0.67 1.89,1.26 1.89,1.26 z M 284.03,4.20 c 0.84,-0.98 1.21,-0.91 1.48,-0.71 0.77,0.87 0.53,2.15 0.47,2.44 0.00,0.00 -1.04,-0.61 -1.50,-0.86 -0.46,-0.25 -0.69,-0.58 -0.44,-0.87 z M 245.88,27.41 c 0.82,0.39 2.02,0.03 2.93,-1.69 0.70,1.02 1.77,1.02 2.34,0.81 0.49,-0.18 1.03,-0.91 1.19,-1.92 0.16,-1.01 -0.10,-1.71 -0.42,-2.28 -0.42,-0.70 -0.70,-1.88 -0.70,-1.88 -0.15,-0.42 -0.26,-0.85 -0.45,-0.27 -0.19,0.58 -0.33,1.03 -0.08,1.70 0.25,0.67 0.94,2.17 1.05,2.39 0.11,0.22 0.14,0.46 -0.23,0.62 -0.37,0.16 -2.09,0.53 -2.41,-1.30 -0.32,-1.83 -0.35,-2.36 -0.51,-2.67 -0.16,-0.31 -0.31,-0.35 -0.43,-0.04 -0.12,0.31 -0.20,0.95 -0.22,1.05 -0.02,0.10 -0.02,0.18 0.05,0.29 0.07,0.11 0.75,2.16 0.44,2.72 -0.31,0.56 -1.85,1.57 -2.65,0.52 -0.38,-0.74 -0.15,-2.61 -0.15,-3.06 0.00,-0.44 -0.14,-0.59 -0.33,-0.23 -0.19,0.36 -0.29,0.59 -0.28,0.91 0.01,0.32 0.06,1.69 0.03,2.12 -0.03,0.43 0.00,1.83 0.82,2.22 z M 239.08,46.81 c -0.58,0.19 -7.21,2.56 -7.86,2.82 -0.60,0.24 -0.77,0.39 -0.88,0.81 -0.11,0.42 -0.17,0.66 -0.20,0.72 -0.12,0.28 -0.26,0.51 0.63,0.14 0.43,-0.18 6.96,-2.42 7.58,-2.69 0.49,-0.22 0.75,-0.36 0.96,-0.79 0.21,-0.42 0.26,-0.50 0.38,-0.80 0.12,-0.32 0.27,-0.51 -0.60,-0.23 z M 239.08,43.51 c -0.58,0.19 -7.21,2.56 -7.86,2.82 -0.60,0.24 -0.77,0.39 -0.88,0.81 -0.11,0.42 -0.17,0.66 -0.20,0.72 -0.12,0.28 -0.26,0.51 0.63,0.14 0.43,-0.18 6.96,-2.42 7.58,-2.69 0.49,-0.22 0.75,-0.36 0.96,-0.79 0.21,-0.42 0.26,-0.50 0.38,-0.80 0.12,-0.32 0.27,-0.51 -0.60,-0.22 z M 253.38,15.23 c -0.11,0.47 -0.16,0.72 -0.19,0.82 -0.10,0.32 -0.23,0.65 0.71,0.13 0.29,-0.16 22.85,-11.88 23.37,-12.21 0.51,-0.32 0.82,-0.44 1.04,-0.93 0.21,-0.49 0.27,-0.58 0.38,-0.92 0.12,-0.36 0.28,-0.70 -0.68,-0.22 -0.64,0.32 -23.02,12.03 -23.68,12.37 -0.65,0.34 -0.84,0.48 -0.95,0.96 z M 260.48,25.47 c 0.18,-0.52 -0.04,-0.80 -0.30,-0.17 -0.26,0.63 -1.34,2.82 -1.18,5.39 0.04,0.59 0.43,1.75 1.33,1.78 0.46,0.00 1.06,-0.34 1.49,-1.79 0.07,-0.33 0.12,-0.59 0.15,-0.72 0.05,-0.20 -0.10,-0.43 -0.25,0.02 -0.34,0.89 -1.22,1.52 -1.88,0.32 -0.11,-0.24 -0.55,-1.32 0.26,-3.69 0.16,-0.46 0.37,-1.14 0.37,-1.14 z M 268.76,14.46 c 0.25,-0.76 -0.05,-1.17 -0.41,-0.24 -0.35,0.93 -1.84,4.11 -1.61,7.87 0.05,0.87 0.59,2.56 1.82,2.61 0.63,0.00 1.45,-0.49 2.03,-2.62 0.10,-0.48 0.16,-0.87 0.21,-1.05 0.06,-0.29 -0.14,-0.63 -0.34,0.03 -0.46,1.30 -1.67,2.21 -2.57,0.47 -0.15,-0.35 -0.76,-1.93 0.36,-5.39 0.23,-0.67 0.51,-1.67 0.51,-1.67 z M 229.50,23.15 c 0.19,-0.60 -0.10,-0.90 -0.38,-0.17 -0.28,0.73 -1.49,3.28 -1.12,6.18 0.09,0.67 0.65,1.95 1.76,1.92 0.57,-0.03 1.30,-0.45 1.73,-2.13 0.07,-0.38 0.11,-0.68 0.14,-0.83 0.04,-0.23 -0.15,-0.48 -0.31,0.04 -0.36,1.03 -1.42,1.80 -2.31,0.49 -0.15,-0.26 -0.77,-1.45 0.09,-4.19 0.17,-0.53 0.39,-1.32 0.39,-1.32 z M 290.90,43.70 c -0.44,0.48 -2.46,2.34 -4.60,2.44 -1.67,-0.12 -1.91,-1.52 -1.48,-2.20 0.43,-0.68 2.06,-2.29 2.35,-2.70 0.29,-0.41 0.54,-1.04 0.54,-1.04 0.15,-0.45 0.22,-0.75 -0.24,-0.77 -0.47,-0.02 -2.11,-0.32 -2.80,0.75 -0.11,0.24 -0.57,1.03 -0.64,1.19 -0.07,0.17 0.00,0.35 0.12,0.22 0.12,-0.13 0.08,-0.80 2.18,-0.77 0.30,0.00 0.41,0.08 0.29,0.24 -0.13,0.16 -2.01,1.79 -2.49,3.96 -0.60,3.16 2.44,2.58 3.08,2.33 0.38,-0.15 2.32,-1.03 3.82,-3.31 0.21,-0.33 0.32,-0.81 -0.12,-0.33 z M 296.02,36.01 c 0.00,0.00 1.90,-2.94 1.98,-3.23 -11.76,-0.02 -23.47,-1.51 -24.14,-1.61 1.24,-1.24 5.56,-3.09 9.40,-4.60 0.28,0.48 0.52,0.91 0.73,1.13 0.29,0.29 0.35,-0.43 0.49,-1.59 0.00,0.00 0.00,0.00 0.00,-0.01 2.91,-1.12 5.29,-1.95 5.37,-2.02 0.20,-0.16 0.86,-2.02 0.76,-2.25 -0.30,-0.66 -2.74,-3.72 -5.66,-4.66 -2.12,-0.73 -3.43,1.70 -3.88,2.66 -0.45,0.96 -0.14,2.59 0.06,3.17 0.09,0.24 0.35,0.70 0.65,1.21 -5.56,2.10 -9.78,4.99 -10.82,5.60 -1.33,0.78 -2.10,2.75 -2.33,3.45 -0.22,0.69 0.18,0.69 0.41,0.71 0.22,0.02 14.93,0.94 14.57,1.24 -21.85,10.91 -29.91,2.01 -31.53,-0.18 -0.15,-0.26 -0.25,-0.46 -0.25,-0.57 -0.04,-0.51 -0.12,-1.42 -0.68,-0.79 -0.56,0.63 -2.80,6.10 -7.12,5.94 -0.74,-0.03 -3.62,0.44 -4.65,-6.71 -0.18,-1.21 -1.38,-11.72 -6.75,-18.85 -0.37,-0.37 -0.53,-0.11 -0.58,0.17 -0.05,0.28 -0.35,2.37 -0.35,2.37 0.44,0.95 4.20,8.75 5.39,14.56 0.13,0.76 0.33,1.62 -0.89,2.97 -1.22,1.35 -5.02,5.64 -10.79,7.85 -1.49,0.56 -4.59,2.25 -6.80,-1.25 -0.62,-0.99 -1.06,-4.55 1.22,-9.14 0.06,-0.16 0.09,-0.31 0.12,-0.44 0.15,0.05 0.30,0.08 0.47,0.07 0.73,-0.04 1.63,-0.70 2.15,-3.37 0.08,-0.60 0.13,-1.08 0.16,-1.31 0.05,-0.36 -0.20,-0.77 -0.39,0.06 -0.44,1.64 -1.76,2.84 -2.91,0.74 -0.19,-0.42 -1.00,-2.33 0.04,-6.68 0.21,-0.84 0.47,-2.10 0.47,-2.10 0.23,-0.95 -0.14,-1.44 -0.48,-0.28 -0.34,1.17 -1.82,5.20 -1.29,9.83 0.08,0.73 0.46,1.93 1.14,2.61 -0.06,0.11 -0.12,0.24 -0.18,0.40 -0.30,0.79 -5.56,13.06 1.62,15.05 1.63,0.45 4.65,-0.23 9.37,-3.47 2.21,-1.45 6.53,-4.36 7.89,-8.58 0.23,1.62 0.40,8.15 5.87,8.68 4.06,0.17 6.10,-4.22 6.10,-4.22 0.05,0.51 -0.16,6.73 4.08,7.64 0.28,0.05 1.53,0.33 1.83,-1.42 0.15,-0.86 0.28,-1.67 0.22,-2.49 10.89,4.08 24.48,-2.45 26.22,-3.34 7.39,-3.56 12.59,-3.08 13.73,-2.95 z M 282.74,20.37 c 1.20,-0.61 3.67,1.37 4.12,1.67 0.45,0.31 0.18,0.57 -0.37,0.71 -0.99,0.23 -1.96,0.51 -2.90,0.81 -0.60,-1.15 -1.30,-2.25 -1.41,-2.45 -0.20,-0.37 0.04,-0.51 0.55,-0.75 z M 254.02,42.71 c -1.95,-0.93 -2.70,-3.37 -2.74,-4.29 0.00,0.00 1.65,0.74 3.09,3.44 0.49,0.91 0.02,1.02 -0.35,0.84 z M 334.16,7.10 c 0.17,0.10 0.36,0.11 0.41,-0.10 0.05,-0.21 0.29,-0.68 0.62,-0.34 0.28,0.28 2.09,1.78 3.03,4.95 0.16,0.42 0.55,0.46 0.64,-0.14 0.22,-1.47 0.33,-4.02 0.45,-4.79 0.17,-1.09 0.68,-3.32 2.06,-2.16 0.31,0.26 0.64,0.61 0.64,0.61 0.29,0.37 0.66,0.79 0.84,0.36 0.27,-0.64 0.49,-1.71 0.19,-2.28 -0.13,-0.25 -1.84,-2.41 -3.00,-0.93 -1.44,1.83 -1.53,4.23 -1.72,6.91 -0.20,-0.56 -1.35,-4.15 -5.02,-6.21 -0.27,-0.15 -0.81,0.13 -0.86,0.98 -0.03,0.49 -0.17,1.69 0.18,2.03 0.35,0.34 1.37,1.00 1.54,1.10 z M 354.77,14.37 c 0.18,-0.50 -0.04,-0.77 -0.29,-0.16 -0.25,0.61 -1.30,2.73 -1.14,5.22 0.04,0.58 0.42,1.70 1.29,1.73 0.45,0.00 1.03,-0.33 1.44,-1.74 0.07,-0.32 0.12,-0.57 0.15,-0.70 0.04,-0.19 -0.10,-0.42 -0.24,0.02 -0.33,0.86 -1.18,1.47 -1.82,0.31 -0.10,-0.23 -0.53,-1.28 0.26,-3.57 0.16,-0.44 0.36,-1.11 0.36,-1.11 z M 360.35,24.97 c -0.25,-0.28 -0.37,-0.01 -0.46,0.31 -0.09,0.32 -0.36,1.52 -0.54,2.27 0.00,0.00 0.71,1.16 0.97,1.76 0.25,0.59 -0.12,0.92 -0.86,1.01 -2.08,0.25 -3.73,-0.94 -4.30,-1.48 -0.57,-0.55 0.05,-1.52 0.51,-2.68 0.37,-0.93 -0.32,-1.04 -0.84,0.00 -1.76,4.63 -4.23,5.12 -4.88,5.30 -5.86,1.60 -5.36,-3.76 -5.33,-4.64 0.02,-0.88 -0.62,-0.55 -1.34,0.03 -2.47,1.98 -4.45,3.14 -5.52,3.62 -0.92,-1.80 -2.26,-2.93 -2.82,-3.34 -6.34,-4.63 -6.87,4.71 -6.67,5.71 0.96,3.97 7.44,1.56 8.46,1.44 1.02,-0.12 0.68,1.22 0.11,2.02 -1.41,1.97 -3.03,3.38 -4.50,4.58 -6.28,5.13 -9.43,4.72 -10.41,4.69 -6.17,-0.17 -5.60,-6.82 -5.26,-8.24 1.86,-1.57 3.45,-3.28 4.38,-5.04 0.38,-0.96 1.03,-3.16 -0.15,-5.91 -0.62,-1.21 -2.56,-4.60 -2.56,-4.60 0.00,0.00 1.43,0.04 1.57,0.04 0.14,0.00 0.41,-0.14 0.06,-0.54 -0.35,-0.40 -3.36,-3.40 -3.54,-3.65 -0.18,-0.24 -0.35,-0.41 -0.45,-0.06 -0.10,0.36 -0.36,1.88 -0.42,2.20 -0.06,0.31 -0.06,0.63 0.10,0.90 0.15,0.27 0.55,1.20 0.84,1.96 0.29,0.76 3.25,6.47 3.53,6.98 0.27,0.51 0.33,0.88 0.06,1.22 -9.53,10.05 -27.91,16.23 -28.50,16.58 -0.59,0.34 -0.43,0.61 0.56,0.43 1.48,-0.26 9.74,-1.64 12.09,-2.77 1.55,-0.75 6.97,-3.41 11.41,-6.89 -0.12,0.90 -0.24,2.22 -0.17,3.89 0.30,8.08 7.53,6.74 9.43,6.33 5.68,-1.25 12.64,-9.11 13.23,-10.68 0.58,-1.56 0.67,-2.98 0.54,-4.22 1.50,-0.81 4.71,-3.40 4.71,-3.40 0.13,3.45 2.87,4.48 3.72,4.63 3.96,0.60 5.94,-2.70 6.78,-3.78 0.72,1.89 2.45,2.26 3.34,2.43 3.41,0.68 4.08,-1.73 4.25,-2.29 1.07,-3.33 -0.86,-5.81 -1.11,-6.08 z M 331.71,31.64 c -2.03,-0.14 -1.85,-0.92 -1.57,-1.22 0.30,-0.33 2.78,-1.89 4.85,0.89 0.00,0.00 -0.86,0.50 -3.28,0.33 z M 328.66,20.35 c 0.48,0.00 1.11,-0.35 1.55,-1.87 0.08,-0.34 0.13,-0.62 0.16,-0.75 0.05,-0.21 -0.10,-0.45 -0.26,0.02 -0.36,0.93 -1.27,1.58 -1.96,0.33 -0.11,-0.25 -0.58,-1.38 0.28,-3.86 0.17,-0.48 0.39,-1.20 0.39,-1.20 0.19,-0.54 -0.04,-0.84 -0.31,-0.17 -0.27,0.66 -1.40,2.94 -1.23,5.63 0.04,0.62 0.45,1.83 1.39,1.87 z M 352.01,6.44 c 0.79,0.58 1.94,1.04 1.94,1.04 -3.66,4.49 -10.84,7.67 -12.56,9.01 -0.51,0.39 -0.44,0.61 -0.12,0.53 0.28,-0.08 5.76,-1.61 10.76,-5.90 2.29,-1.97 2.23,-2.11 2.81,-3.30 0.50,0.26 0.84,0.67 1.03,0.91 0.28,0.34 0.43,0.60 0.56,0.23 0.48,-1.33 -0.20,-2.13 -0.84,-2.54 0.00,0.00 0.67,-2.07 -0.56,-4.14 -0.21,-0.35 -1.43,-1.46 -2.85,0.74 -0.55,0.84 -0.96,2.85 -0.18,3.42 z M 352.74,4.41 c 0.73,-1.02 1.08,-0.99 1.36,-0.82 0.82,0.77 0.70,2.03 0.67,2.31 0.00,0.00 -1.05,-0.49 -1.52,-0.69 -0.47,-0.20 -0.72,-0.50 -0.50,-0.80 z M 301.24,23.98 c 0.00,0.00 1.25,-0.31 1.47,-0.38 0.22,-0.06 0.34,-0.35 -0.05,-0.55 -0.39,-0.20 -4.09,-1.67 -4.37,-1.79 -0.28,-0.11 -0.38,-0.24 -0.41,0.06 -0.02,0.30 -0.07,2.73 -0.07,2.73 0.00,0.00 -0.06,0.17 0.27,0.35 0.32,0.18 0.64,0.58 0.90,0.84 0.26,0.26 3.70,2.98 3.87,3.07 0.00,0.00 -1.72,3.02 -1.94,5.38 -0.22,2.36 0.04,5.63 3.27,4.58 0.87,-0.25 4.49,-1.69 5.30,-4.21 0.26,-0.93 1.01,-2.61 -0.21,-4.31 -0.70,-1.00 -3.53,-2.69 -3.53,-2.69 0.00,0.00 2.17,-3.00 2.38,-3.37 0.21,-0.37 1.00,-2.69 1.09,-3.25 0.09,-0.56 0.13,-0.84 -0.29,-0.32 -0.42,0.52 -4.63,6.05 -4.63,6.05 z M 308.19,32.87 c -1.20,0.99 -3.72,2.29 -4.43,2.36 -0.71,0.07 -2.59,-0.28 -1.77,-2.20 0.28,-0.62 2.16,-3.84 2.16,-3.84 0.70,0.39 5.24,2.70 4.04,3.69 z M 294.28,13.85 c 0.17,-0.04 3.05,-0.49 6.41,-3.05 1.82,-1.38 2.92,-3.74 2.92,-3.74 0.00,0.00 0.91,0.76 1.03,0.91 0.28,0.34 0.43,0.60 0.56,0.23 0.48,-1.33 -0.20,-2.13 -0.84,-2.54 0.00,0.00 0.67,-2.07 -0.56,-4.14 -0.21,-0.35 -1.43,-1.46 -2.85,0.74 -0.55,0.84 -0.96,2.85 -0.18,3.42 0.79,0.58 1.94,1.04 1.94,1.04 -3.66,4.49 -6.16,5.34 -8.30,6.60 -0.55,0.32 -0.44,0.61 -0.12,0.52 z M 302.00,4.46 c -0.47,-0.20 -0.72,-0.50 -0.50,-0.80 0.73,-1.02 1.08,-0.99 1.36,-0.82 0.82,0.77 0.70,2.02 0.67,2.31 0.00,0.00 -1.05,-0.49 -1.52,-0.69 z M 357.14,37.28 c -0.24,0.68 -0.34,1.12 -0.32,1.38 0.03,0.26 0.12,1.10 0.12,1.10 -0.25,0.20 -1.33,0.87 -2.40,0.08 0.07,-0.23 0.21,-0.70 0.24,-0.95 0.12,-0.40 -0.13,-0.69 -0.32,-0.28 -0.20,0.41 -0.65,1.79 -0.99,2.10 -0.34,0.31 -0.74,1.45 -3.30,0.29 -0.45,-0.17 -1.23,-0.75 -2.46,0.48 -2.77,2.57 -4.68,2.77 -7.79,3.88 -0.38,0.17 -1.16,0.77 -0.23,0.67 0.94,-0.09 4.87,0.00 7.01,-2.46 0.45,-0.43 0.96,-1.58 2.66,-0.92 0.94,0.36 2.68,1.85 4.58,-1.10 1.12,0.75 2.82,0.45 3.09,-0.38 0.27,-0.82 0.58,-1.64 0.58,-2.20 0.00,-0.56 -0.05,-1.30 -0.05,-1.30 -0.04,-0.44 -0.19,-1.07 -0.44,-0.40 z M 310.96,12.37 c 0.25,-0.16 13.84,-8.02 14.32,-8.31 0.46,-0.29 0.72,-0.41 0.91,-0.85 0.18,-0.44 0.23,-0.52 0.33,-0.82 0.10,-0.32 0.21,-0.67 -0.61,-0.19 -0.53,0.31 -14.04,8.11 -14.59,8.46 -0.55,0.35 -0.74,0.44 -0.83,0.87 -0.09,0.42 -0.13,0.67 -0.16,0.73 -0.10,0.28 -0.17,0.63 0.64,0.10 z M 301.86,14.24 c -0.06,-0.05 -0.15,-0.03 -0.20,0.04 -1.53,2.10 -1.53,2.10 -1.53,2.10 -0.05,0.07 -0.04,0.16 0.03,0.20 2.61,1.91 2.61,1.91 2.61,1.91 0.06,0.05 0.15,0.03 0.20,-0.04 1.32,-1.81 1.32,-1.81 1.32,-1.81 2.54,1.85 2.54,1.85 2.54,1.85 0.06,0.05 0.15,0.03 0.20,-0.04 1.53,-2.10 1.53,-2.10 1.53,-2.10 0.05,-0.07 0.04,-0.16 -0.03,-0.20 -2.61,-1.91 -2.61,-1.91 -2.61,-1.91 -0.06,-0.05 -0.15,-0.03 -0.20,0.04 -1.32,1.81 -1.32,1.81 -1.32,1.81 z" />
     </g>
</svg>
