<?xml version="1.0" encoding="UTF-8"?>
<svg version="1.1" id="Layer_1" x="0px" y="0px" width="578" height="55" viewBox="0 0 578 55"
xml:space="preserve" xmlns="http://www.w3.org/2000/svg" xmlns:svg="http://www.w3.org/2000/svg" xmlns:rdf="http://www.w3.org/1999/02/22-rdf-syntax-ns#"  xmlns:cc="http://creativecommons.org/ns#" xmlns:dc="http://purl.org/dc/elements/1.1/">
     <g>
<path d="M 267.85,15.59 c -1.92,2.63 -1.92,2.63 -1.92,2.63 -0.06,0.08 -0.05,0.20 0.03,0.25 3.27,2.38 3.27,2.38 3.27,2.38 0.08,0.06 0.19,0.04 0.25,-0.05 1.91,-2.63 1.91,-2.63 1.91,-2.63 0.06,-0.08 0.05,-0.20 -0.03,-0.25 -3.27,-2.38 -3.27,-2.38 -3.27,-2.38 -0.08,-0.06 -0.19,-0.04 -0.25,0.05 z M 286.46,38.99 c 0.04,0.45 0.09,0.59 0.38,0.19 0.48,-0.66 1.47,-5.38 0.63,-12.43 -0.13,-0.92 -2.58,-18.43 -2.58,-18.43 0.00,0.00 1.55,1.45 1.80,1.72 0.25,0.26 0.55,0.12 0.41,-0.30 -0.14,-0.42 -3.31,-8.10 -3.42,-8.36 -0.10,-0.27 -0.20,-0.46 -0.33,-0.15 -0.13,0.31 -0.88,2.38 -0.88,2.38 0.20,1.35 1.99,15.82 2.10,16.81 0.12,0.99 1.70,14.17 1.89,18.57 z M 248.25,7.57 c 0.39,-0.41 0.65,-0.83 1.78,-0.80 1.13,0.03 3.82,-0.07 2.82,0.67 -1.01,0.74 -1.69,1.17 -1.69,1.17 -0.65,0.47 -1.23,1.35 -0.07,0.86 1.16,-0.49 2.68,-1.26 3.85,-3.02 0.34,-0.51 0.74,-1.20 -0.84,-1.44 -1.59,-0.24 -4.15,-0.61 -4.98,0.30 -0.83,0.90 -1.09,1.52 -1.33,1.91 -0.34,0.53 0.09,0.77 0.47,0.36 z M 253.47,19.13 c -1.32,1.81 -1.32,1.81 -1.32,1.81 -2.54,-1.85 -2.54,-1.85 -2.54,-1.85 -0.06,-0.05 -0.15,-0.03 -0.20,0.04 -1.53,2.10 -1.53,2.10 -1.53,2.10 -0.05,0.07 -0.04,0.16 0.03,0.21 2.61,1.91 2.61,1.91 2.61,1.91 0.06,0.05 0.15,0.03 0.20,-0.04 1.32,-1.81 1.32,-1.81 1.32,-1.81 2.54,1.85 2.54,1.85 2.54,1.85 0.06,0.05 0.15,0.03 0.20,-0.04 1.53,-2.10 1.53,-2.10 1.53,-2.10 0.05,-0.07 0.04,-0.16 -0.03,-0.20 -2.61,-1.91 -2.61,-1.91 -2.61,-1.91 -0.06,-0.05 -0.15,-0.03 -0.20,0.04 z M 233.49,7.78 c 0.16,0.10 0.34,0.11 0.39,-0.10 0.05,-0.21 0.27,-0.68 0.59,-0.34 0.27,0.28 1.99,1.78 2.88,4.95 0.15,0.42 0.53,0.46 0.61,-0.14 0.21,-1.47 0.32,-4.02 0.43,-4.79 0.16,-1.09 0.65,-3.33 1.96,-2.16 0.30,0.26 0.61,0.61 0.61,0.61 0.28,0.37 0.63,0.79 0.80,0.36 0.26,-0.64 0.46,-1.70 0.18,-2.28 -0.12,-0.26 -1.75,-2.41 -2.85,-0.94 -1.37,1.83 -1.45,4.23 -1.63,6.91 -0.19,-0.56 -1.29,-4.16 -4.78,-6.21 -0.25,-0.15 -0.77,0.13 -0.82,0.98 -0.03,0.49 -0.16,1.69 0.17,2.03 0.33,0.34 1.31,1.01 1.47,1.10 z M 234.51,38.11 c -0.58,0.19 -7.21,2.56 -7.86,2.82 -0.60,0.24 -0.77,0.39 -0.88,0.81 -0.11,0.42 -0.17,0.66 -0.20,0.72 -0.12,0.28 -0.26,0.51 0.63,0.14 0.43,-0.18 6.96,-2.42 7.58,-2.69 0.49,-0.22 0.75,-0.36 0.96,-0.79 0.21,-0.42 0.26,-0.50 0.38,-0.80 0.12,-0.32 0.27,-0.51 -0.60,-0.22 z M 257.87,12.52 c 0.43,-0.18 12.40,-5.25 13.02,-5.52 0.49,-0.22 0.75,-0.36 0.96,-0.79 0.21,-0.42 0.26,-0.50 0.38,-0.80 0.12,-0.32 0.27,-0.51 -0.60,-0.22 -0.58,0.19 -12.65,5.39 -13.30,5.64 -0.60,0.24 -0.77,0.39 -0.88,0.81 -0.11,0.42 -0.17,0.66 -0.20,0.72 -0.12,0.28 -0.26,0.51 0.63,0.15 z M 255.56,43.92 c -0.33,0.87 -1.19,1.48 -1.83,0.31 -0.10,-0.23 -0.54,-1.29 0.26,-3.59 0.16,-0.45 0.36,-1.12 0.36,-1.12 0.18,-0.50 -0.04,-0.78 -0.29,-0.16 -0.25,0.62 -1.31,2.74 -1.15,5.25 0.04,0.58 0.42,1.71 1.29,1.74 0.45,0.00 1.03,-0.33 1.45,-1.75 0.07,-0.32 0.12,-0.58 0.15,-0.70 0.04,-0.19 -0.10,-0.42 -0.24,0.02 z M 281.52,43.48 c -0.33,0.87 -1.19,1.48 -1.83,0.31 -0.10,-0.23 -0.54,-1.29 0.26,-3.59 0.16,-0.45 0.36,-1.11 0.36,-1.11 0.18,-0.51 -0.04,-0.78 -0.29,-0.16 -0.25,0.62 -1.31,2.74 -1.15,5.25 0.04,0.58 0.42,1.71 1.29,1.74 0.45,0.00 1.03,-0.33 1.45,-1.75 0.07,-0.32 0.12,-0.58 0.15,-0.70 0.04,-0.19 -0.10,-0.42 -0.24,0.02 z M 243.35,25.44 c 0.18,-0.50 -0.04,-0.78 -0.29,-0.16 -0.25,0.62 -1.31,2.74 -1.15,5.25 0.04,0.58 0.42,1.71 1.29,1.74 0.45,0.00 1.03,-0.33 1.45,-1.75 0.07,-0.32 0.12,-0.58 0.15,-0.70 0.04,-0.19 -0.10,-0.42 -0.24,0.02 -0.33,0.87 -1.19,1.48 -1.83,0.31 -0.10,-0.23 -0.54,-1.29 0.26,-3.59 0.16,-0.45 0.36,-1.12 0.36,-1.12 z M 224.87,11.98 c 0.43,0.00 0.98,-0.31 1.38,-1.66 0.07,-0.30 0.11,-0.55 0.14,-0.67 0.04,-0.18 -0.09,-0.40 -0.23,0.02 -0.31,0.83 -1.13,1.41 -1.74,0.30 -0.10,-0.22 -0.51,-1.23 0.25,-3.42 0.15,-0.43 0.35,-1.06 0.35,-1.06 0.17,-0.48 -0.03,-0.74 -0.28,-0.15 -0.24,0.59 -1.25,2.61 -1.09,5.00 0.04,0.55 0.40,1.63 1.23,1.65 z M 275.94,7.46 c 0.00,0.00 1.37,1.55 1.62,1.81 0.25,0.26 0.55,0.12 0.41,-0.30 -0.14,-0.42 -2.92,-7.33 -3.02,-7.60 -0.10,-0.27 -0.21,-0.46 -0.33,-0.15 -0.13,0.31 -1.15,2.55 -1.15,2.55 0.03,0.18 0.27,0.73 0.43,1.87 0.17,1.18 2.79,24.24 2.92,25.29 0.13,1.06 0.52,2.92 -0.87,3.30 -1.39,0.38 -2.74,0.51 -4.32,0.22 0.00,0.00 1.33,-2.56 1.11,-4.68 -0.10,-0.73 -0.95,-5.01 -3.55,-3.15 -2.61,1.86 -3.98,6.34 -2.85,8.22 0.00,0.00 -6.72,3.15 -10.06,-1.79 -0.20,-0.35 -0.31,-1.76 -0.31,-2.17 0.00,-0.41 0.00,-0.90 -0.91,-0.05 -0.91,0.85 -5.99,7.07 -14.53,5.59 -1.12,-0.19 -8.21,-2.39 -4.67,-13.15 0.84,-0.45 1.73,-0.89 2.69,-1.34 1.87,-0.88 6.51,-3.43 6.51,-3.43 1.06,-2.86 1.06,-2.86 1.06,-2.86 -2.24,-0.48 -13.95,-1.80 -21.65,0.00 -2.07,0.53 -3.65,1.98 -3.61,4.00 0.00,1.45 0.40,2.20 1.23,2.64 2.03,0.99 3.92,2.50 5.32,3.79 -2.88,2.78 -6.51,8.08 -5.81,16.98 0.13,1.63 0.12,12.17 18.66,11.35 2.86,-0.13 10.12,-2.29 11.48,-2.90 1.36,-0.62 1.32,-0.97 -0.48,-0.88 -1.80,0.09 -12.80,1.54 -17.95,0.31 -1.85,-0.44 -11.64,-1.72 -10.43,-12.80 0.16,-1.43 0.32,-5.55 6.18,-10.41 0.36,0.39 0.60,0.68 0.69,0.81 0.41,0.59 0.59,0.72 0.62,0.10 0.01,-0.31 0.12,-0.99 -0.08,-1.88 1.24,-0.93 2.70,-1.88 4.42,-2.85 -0.53,1.83 -3.07,10.38 2.03,14.20 0.96,0.69 4.59,3.17 12.11,0.10 1.44,-0.60 4.12,-2.03 5.89,-4.24 0.00,0.00 0.93,4.58 6.32,4.77 1.37,0.05 4.05,-0.32 7.20,-1.91 0.00,0.00 2.80,1.05 5.58,0.94 1.30,-0.16 4.32,-0.73 4.69,-6.13 0.03,-0.75 -0.41,-6.94 -0.57,-8.25 -0.16,-1.30 -2.00,-15.90 -2.00,-15.90 z M 230.63,23.59 c -0.15,0.10 -0.68,0.40 -1.40,0.93 -0.24,-0.32 -0.53,-0.65 -0.88,-0.99 -0.79,-0.76 -5.50,-3.74 -5.73,-3.95 -0.23,-0.21 -0.70,-0.46 0.31,-0.80 1.01,-0.34 4.62,-1.68 17.03,-0.49 -0.98,0.46 -8.59,4.81 -9.34,5.30 z M 269.11,33.69 c 0.00,0.00 -1.08,-0.26 -1.67,-1.28 -0.58,-1.03 0.78,-2.42 1.70,-3.02 0.91,-0.60 1.54,0.01 2.07,1.77 0.53,1.75 -1.48,2.29 -2.09,2.54 z M 326.87,7.03 c 0.17,0.10 0.36,0.11 0.41,-0.10 0.05,-0.21 0.29,-0.68 0.62,-0.34 0.28,0.28 2.09,1.78 3.03,4.95 0.16,0.42 0.55,0.46 0.64,-0.14 0.22,-1.47 0.33,-4.02 0.45,-4.79 0.16,-1.09 0.68,-3.32 2.06,-2.16 0.31,0.26 0.64,0.61 0.64,0.61 0.29,0.37 0.66,0.79 0.84,0.36 0.27,-0.64 0.49,-1.70 0.19,-2.28 -0.13,-0.26 -1.84,-2.41 -3.00,-0.93 -1.44,1.83 -1.53,4.23 -1.72,6.91 -0.20,-0.56 -1.35,-4.15 -5.02,-6.21 -0.27,-0.15 -0.81,0.13 -0.86,0.98 -0.03,0.49 -0.17,1.69 0.18,2.03 0.35,0.34 1.37,1.01 1.54,1.10 z M 347.48,14.30 c 0.18,-0.50 -0.04,-0.77 -0.29,-0.16 -0.25,0.61 -1.30,2.73 -1.14,5.22 0.04,0.58 0.42,1.70 1.29,1.73 0.45,0.00 1.03,-0.33 1.44,-1.74 0.07,-0.32 0.12,-0.57 0.15,-0.70 0.04,-0.19 -0.10,-0.42 -0.24,0.02 -0.33,0.86 -1.18,1.47 -1.82,0.31 -0.10,-0.23 -0.53,-1.28 0.26,-3.57 0.16,-0.44 0.36,-1.11 0.36,-1.11 z M 344.72,6.37 c 0.79,0.58 1.94,1.04 1.94,1.04 -3.66,4.48 -10.84,7.67 -12.56,9.01 -0.51,0.39 -0.44,0.61 -0.12,0.53 0.28,-0.08 5.76,-1.61 10.76,-5.90 2.29,-1.97 2.23,-2.11 2.81,-3.31 0.50,0.26 0.84,0.67 1.03,0.91 0.28,0.34 0.43,0.60 0.56,0.23 0.48,-1.33 -0.20,-2.13 -0.84,-2.54 0.00,0.00 0.67,-2.07 -0.56,-4.14 -0.21,-0.35 -1.43,-1.46 -2.85,0.74 -0.55,0.84 -0.96,2.85 -0.18,3.42 z M 345.45,4.34 c 0.73,-1.02 1.08,-0.98 1.36,-0.82 0.82,0.77 0.70,2.02 0.67,2.31 0.00,0.00 -1.05,-0.49 -1.52,-0.69 -0.47,-0.20 -0.72,-0.50 -0.50,-0.80 z M 321.37,20.27 c 0.48,0.00 1.11,-0.35 1.55,-1.87 0.08,-0.34 0.12,-0.62 0.16,-0.75 0.05,-0.21 -0.10,-0.45 -0.26,0.02 -0.36,0.93 -1.27,1.58 -1.96,0.33 -0.11,-0.25 -0.58,-1.38 0.28,-3.86 0.17,-0.48 0.39,-1.20 0.39,-1.20 0.19,-0.54 -0.04,-0.84 -0.31,-0.17 -0.27,0.66 -1.40,2.94 -1.23,5.64 0.04,0.62 0.45,1.83 1.39,1.86 z M 353.05,24.89 c -0.25,-0.28 -0.37,-0.01 -0.46,0.31 -0.09,0.32 -0.36,1.52 -0.54,2.27 0.00,0.00 0.71,1.16 0.97,1.76 0.25,0.59 -0.12,0.92 -0.86,1.01 -2.08,0.25 -3.73,-0.94 -4.30,-1.48 -0.57,-0.55 0.05,-1.52 0.51,-2.68 0.37,-0.93 -0.32,-1.04 -0.84,0.00 -1.76,4.63 -4.23,5.13 -4.88,5.30 -5.86,1.60 -5.36,-3.76 -5.33,-4.64 0.02,-0.88 -0.62,-0.55 -1.34,0.03 -2.47,1.98 -4.45,3.14 -5.52,3.62 -0.92,-1.80 -2.26,-2.93 -2.82,-3.34 -6.34,-4.63 -6.87,4.71 -6.67,5.71 0.97,3.97 7.45,1.56 8.46,1.44 1.02,-0.12 0.68,1.22 0.11,2.02 -1.41,1.97 -3.03,3.38 -4.50,4.57 -6.28,5.13 -9.43,4.72 -10.41,4.69 -6.17,-0.17 -5.60,-6.82 -5.26,-8.24 1.86,-1.57 3.45,-3.28 4.38,-5.04 0.38,-0.96 1.03,-3.16 -0.15,-5.91 -0.62,-1.21 -2.56,-4.60 -2.56,-4.60 0.00,0.00 1.43,0.04 1.57,0.04 0.14,0.00 0.41,-0.14 0.06,-0.54 -0.35,-0.40 -3.36,-3.40 -3.54,-3.65 -0.18,-0.24 -0.35,-0.42 -0.45,-0.06 -0.10,0.36 -0.36,1.88 -0.42,2.20 -0.06,0.31 -0.06,0.63 0.10,0.90 0.16,0.27 0.55,1.20 0.84,1.96 0.29,0.76 3.25,6.47 3.53,6.98 0.27,0.51 0.33,0.88 0.06,1.22 -9.53,10.05 -27.91,16.23 -28.50,16.58 -0.59,0.34 -0.43,0.61 0.56,0.43 1.48,-0.26 9.74,-1.64 12.09,-2.78 1.55,-0.75 6.97,-3.41 11.41,-6.89 -0.12,0.90 -0.24,2.22 -0.17,3.89 0.30,8.08 7.53,6.74 9.43,6.33 5.68,-1.25 12.64,-9.11 13.23,-10.69 0.58,-1.56 0.67,-2.98 0.54,-4.22 1.50,-0.81 4.71,-3.40 4.71,-3.40 0.13,3.45 2.87,4.48 3.72,4.63 3.96,0.60 5.94,-2.70 6.78,-3.78 0.72,1.89 2.45,2.26 3.34,2.43 3.41,0.68 4.08,-1.73 4.25,-2.29 1.07,-3.33 -0.86,-5.81 -1.11,-6.08 z M 324.42,31.57 c -2.03,-0.14 -1.85,-0.92 -1.57,-1.22 0.30,-0.33 2.78,-1.89 4.85,0.89 0.00,0.00 -0.86,0.50 -3.28,0.33 z M 293.48,5.62 c 0.79,0.58 1.94,1.04 1.94,1.04 -3.66,4.49 -6.16,5.34 -8.31,6.60 -0.55,0.32 -0.44,0.61 -0.12,0.53 0.17,-0.04 3.05,-0.49 6.41,-3.05 1.82,-1.38 2.92,-3.74 2.92,-3.74 0.00,0.00 0.91,0.76 1.03,0.91 0.28,0.34 0.43,0.60 0.56,0.23 0.48,-1.33 -0.20,-2.13 -0.84,-2.54 0.00,0.00 0.67,-2.07 -0.56,-4.14 -0.21,-0.35 -1.43,-1.46 -2.85,0.74 -0.55,0.84 -0.96,2.85 -0.17,3.42 z M 294.21,3.59 c 0.73,-1.02 1.08,-0.99 1.36,-0.82 0.82,0.77 0.70,2.02 0.67,2.31 0.00,0.00 -1.05,-0.49 -1.52,-0.69 -0.47,-0.20 -0.72,-0.50 -0.50,-0.80 z M 349.85,37.21 c -0.24,0.68 -0.34,1.12 -0.32,1.38 0.03,0.26 0.12,1.10 0.12,1.10 -0.25,0.20 -1.33,0.87 -2.40,0.08 0.07,-0.23 0.21,-0.70 0.24,-0.95 0.12,-0.40 -0.13,-0.69 -0.32,-0.28 -0.20,0.41 -0.65,1.79 -0.99,2.10 -0.34,0.31 -0.74,1.45 -3.30,0.29 -0.45,-0.17 -1.23,-0.75 -2.46,0.48 -2.77,2.57 -4.68,2.78 -7.79,3.88 -0.38,0.17 -1.16,0.77 -0.23,0.67 0.94,-0.09 4.87,0.00 7.01,-2.46 0.45,-0.43 0.96,-1.58 2.66,-0.92 0.94,0.36 2.68,1.85 4.58,-1.10 1.12,0.75 2.82,0.45 3.09,-0.38 0.27,-0.82 0.58,-1.64 0.58,-2.20 0.00,-0.56 -0.05,-1.30 -0.05,-1.30 -0.04,-0.44 -0.19,-1.07 -0.44,-0.40 z M 293.95,23.91 c 0.00,0.00 1.25,-0.31 1.47,-0.38 0.22,-0.06 0.34,-0.35 -0.05,-0.55 -0.39,-0.20 -4.09,-1.67 -4.37,-1.79 -0.28,-0.11 -0.38,-0.24 -0.41,0.06 -0.02,0.30 -0.07,2.73 -0.07,2.73 0.00,0.00 -0.06,0.17 0.27,0.35 0.32,0.18 0.64,0.58 0.90,0.84 0.26,0.26 3.70,2.98 3.87,3.07 0.00,0.00 -1.72,3.02 -1.94,5.38 -0.22,2.36 0.04,5.63 3.27,4.58 0.87,-0.25 4.49,-1.69 5.30,-4.21 0.26,-0.93 1.01,-2.61 -0.21,-4.31 -0.70,-1.00 -3.53,-2.69 -3.53,-2.69 0.00,0.00 2.17,-3.00 2.38,-3.37 0.21,-0.37 1.00,-2.69 1.09,-3.25 0.09,-0.56 0.13,-0.84 -0.29,-0.32 -0.42,0.52 -4.63,6.05 -4.63,6.05 z M 300.90,32.79 c -1.20,0.99 -3.72,2.29 -4.43,2.36 -0.71,0.07 -2.59,-0.28 -1.77,-2.20 0.28,-0.62 2.16,-3.84 2.16,-3.84 0.70,0.39 5.24,2.70 4.04,3.69 z M 303.67,12.30 c 0.25,-0.16 13.84,-8.02 14.32,-8.31 0.46,-0.29 0.72,-0.41 0.90,-0.85 0.18,-0.44 0.23,-0.52 0.33,-0.82 0.10,-0.32 0.21,-0.67 -0.61,-0.19 -0.53,0.31 -14.04,8.11 -14.59,8.46 -0.55,0.35 -0.74,0.44 -0.83,0.87 -0.09,0.42 -0.13,0.67 -0.16,0.73 -0.10,0.28 -0.17,0.63 0.64,0.10 z M 294.57,14.16 c -0.06,-0.05 -0.15,-0.03 -0.20,0.04 -1.53,2.10 -1.53,2.10 -1.53,2.10 -0.05,0.07 -0.04,0.16 0.03,0.21 2.61,1.91 2.61,1.91 2.61,1.91 0.06,0.05 0.15,0.03 0.20,-0.04 1.32,-1.81 1.32,-1.81 1.32,-1.81 2.54,1.85 2.54,1.85 2.54,1.85 0.06,0.05 0.15,0.03 0.20,-0.04 1.53,-2.10 1.53,-2.10 1.53,-2.10 0.05,-0.07 0.04,-0.16 -0.03,-0.21 -2.61,-1.91 -2.61,-1.91 -2.61,-1.91 -0.06,-0.05 -0.15,-0.03 -0.20,0.04 -1.32,1.81 -1.32,1.81 -1.32,1.81 z" />
     </g>
</svg>
