<?xml version="1.0" encoding="UTF-8"?>
<svg version="1.1" id="Layer_1" x="0px" y="0px" width="578" height="52" viewBox="0 0 578 52"
xml:space="preserve" xmlns="http://www.w3.org/2000/svg" xmlns:svg="http://www.w3.org/2000/svg" xmlns:rdf="http://www.w3.org/1999/02/22-rdf-syntax-ns#"  xmlns:cc="http://creativecommons.org/ns#" xmlns:dc="http://purl.org/dc/elements/1.1/">
     <g>
<path d="M 261.53,41.69 c -1.92,2.63 -1.92,2.63 -1.92,2.63 -0.06,0.08 -0.05,0.20 0.03,0.25 3.27,2.38 3.27,2.38 3.27,2.38 0.08,0.06 0.19,0.04 0.25,-0.05 1.91,-2.63 1.91,-2.63 1.91,-2.63 0.06,-0.08 0.05,-0.20 -0.03,-0.26 -3.27,-2.38 -3.27,-2.38 -3.27,-2.38 -0.08,-0.06 -0.19,-0.04 -0.25,0.05 z M 299.11,42.49 c -0.02,0.46 0.18,0.63 0.38,0.18 0.15,-0.34 0.96,-2.13 0.52,-7.63 1.15,-0.08 2.22,-0.09 3.02,0.03 0.43,-0.53 1.45,-2.81 1.45,-2.81 -0.48,-0.05 -2.34,-0.07 -4.79,-0.16 -0.16,-1.20 -0.36,-2.51 -0.63,-3.98 -0.15,-0.92 -3.26,-19.56 -3.26,-19.56 0.00,0.00 1.59,1.41 1.84,1.67 0.26,0.26 0.55,0.11 0.40,-0.31 -0.15,-0.42 -3.52,-8.01 -3.63,-8.27 -0.11,-0.26 -0.22,-0.45 -0.34,-0.14 -0.12,0.31 -0.82,2.40 -0.82,2.40 0.24,1.34 2.39,15.77 2.53,16.75 0.08,0.55 1.04,5.93 1.90,11.34 -3.54,-0.19 -7.76,-0.56 -10.87,-1.36 0.00,0.00 0.89,-2.77 0.46,-6.30 -0.41,-3.34 -2.91,-15.48 -2.91,-15.48 0.00,0.00 1.59,1.41 1.84,1.67 0.26,0.26 0.55,0.11 0.40,-0.31 -0.15,-0.42 -3.52,-8.01 -3.63,-8.27 -0.11,-0.26 -0.22,-0.45 -0.34,-0.14 -0.12,0.31 -1.08,2.58 -1.08,2.58 0.03,0.18 0.28,0.73 0.48,1.86 0.19,1.08 3.74,19.82 3.84,22.55 -0.04,0.18 -0.51,0.20 -0.71,0.24 -1.29,0.40 -7.12,0.46 -8.46,1.88 -0.30,0.41 -0.63,1.63 -0.74,2.00 -0.12,0.36 0.49,0.33 1.16,0.21 0.66,-0.12 3.83,-0.79 12.49,1.44 -1.19,0.61 -7.34,3.74 -12.47,4.80 -1.94,0.40 -6.19,0.48 -8.38,-2.05 -0.49,-0.56 -1.82,-2.71 -0.46,-5.91 0.01,-0.02 0.02,-0.04 0.03,-0.06 2.93,-1.45 5.33,-2.65 5.65,-2.84 0.00,0.00 1.55,-2.67 1.12,-2.87 -10.23,-3.00 -16.76,-2.24 -19.90,-1.91 -3.14,0.33 -4.44,3.06 -4.55,3.99 -0.14,1.13 0.20,2.04 0.76,2.81 0.71,0.97 3.68,3.30 4.26,3.87 -0.66,0.30 -1.09,0.50 -1.19,0.55 -5.38,2.38 -11.28,9.81 -12.24,10.96 -2.34,2.77 -5.85,3.52 -7.36,1.22 -1.22,-1.86 -0.11,-6.78 0.64,-8.80 0.08,-0.21 0.13,-0.40 0.18,-0.58 0.36,-0.31 0.68,-0.64 0.96,-0.99 0.36,-0.46 1.70,-2.86 0.92,-5.26 -0.31,-0.94 -1.75,-3.38 -2.04,-3.87 -0.29,-0.49 -0.53,-0.56 -0.69,-0.07 -0.16,0.49 -0.78,2.93 -0.78,2.93 0.48,0.69 2.61,3.67 2.00,4.23 -0.62,0.56 -6.16,4.81 -18.71,4.98 -1.41,0.02 -7.90,-0.45 -7.33,-5.63 0.07,-0.64 0.54,-2.46 1.21,-3.83 0.69,-0.08 1.52,-0.75 2.01,-3.24 0.08,-0.58 0.12,-1.04 0.16,-1.27 0.05,-0.35 -0.19,-0.74 -0.38,0.06 -0.42,1.58 -1.69,2.74 -2.81,0.72 -0.19,-0.40 -0.97,-2.25 0.04,-6.45 0.20,-0.81 0.45,-2.02 0.45,-2.02 0.23,-0.92 -0.13,-1.39 -0.47,-0.26 -0.33,1.13 -1.75,5.02 -1.25,9.49 0.09,0.83 0.58,2.28 1.47,2.80 -1.20,2.03 -3.57,6.97 -0.35,10.77 0.34,0.42 3.58,4.11 16.79,0.89 2.26,-0.52 5.27,-1.53 7.54,-3.02 -0.06,0.16 -0.12,0.33 -0.18,0.51 -0.57,1.67 -0.83,3.79 -0.86,5.05 -0.10,5.38 2.91,6.81 4.26,6.93 4.58,0.40 7.69,-5.48 10.33,-8.38 2.64,-2.91 6.93,-4.79 8.61,-5.64 0.21,-0.11 0.62,-0.31 1.17,-0.58 0.47,0.51 0.82,0.92 0.94,1.08 0.40,0.53 0.84,-0.44 0.69,-1.70 -0.01,-0.06 -0.03,-0.11 -0.04,-0.17 2.15,-1.06 5.16,-2.54 7.89,-3.90 -0.06,0.18 -0.11,0.36 -0.16,0.58 -0.30,1.43 -0.72,4.30 0.11,6.52 1.15,3.10 4.18,3.54 5.55,3.67 2.04,0.19 5.55,-0.17 11.76,-2.80 1.42,-0.59 7.19,-3.43 9.24,-3.89 1.01,-0.23 2.70,-0.54 4.44,-0.75 0.46,3.05 0.83,5.79 0.91,7.27 z M 257.88,33.40 c -0.65,-0.71 -1.54,-1.40 -2.27,-2.08 -1.48,-1.39 -2.79,-2.66 -3.04,-2.97 -0.66,-0.82 0.38,-1.25 1.09,-1.39 6.60,-1.22 15.35,0.36 16.50,0.76 0.00,0.00 -7.68,3.56 -12.28,5.68 z M 242.24,39.92 c -0.02,0.46 0.18,0.63 0.38,0.18 0.20,-0.45 1.58,-3.51 -0.43,-14.54 -0.15,-0.92 -2.90,-15.41 -2.90,-15.41 0.00,0.00 1.59,1.41 1.84,1.67 0.26,0.26 0.55,0.11 0.40,-0.31 -0.15,-0.42 -3.52,-8.01 -3.63,-8.27 -0.11,-0.26 -0.22,-0.45 -0.34,-0.14 -0.12,0.31 -0.82,2.40 -0.82,2.40 0.24,1.34 2.39,15.77 2.53,16.75 0.14,0.98 2.71,13.14 2.96,17.66 z M 212.82,15.28 c 0.66,-0.37 4.49,-1.85 5.12,-5.65 0.05,-0.50 -0.05,-0.87 -0.17,-1.12 0.05,0.01 0.11,0.05 0.17,0.11 0.27,0.27 1.99,1.69 2.88,4.71 0.15,0.40 0.53,0.44 0.61,-0.13 0.21,-1.40 0.32,-3.82 0.43,-4.56 0.16,-1.03 0.65,-3.16 1.96,-2.06 0.30,0.25 0.61,0.58 0.61,0.58 0.28,0.35 0.63,0.75 0.80,0.35 0.26,-0.61 0.46,-1.62 0.18,-2.17 -0.12,-0.24 -1.75,-2.30 -2.85,-0.89 -1.37,1.74 -1.46,4.03 -1.64,6.58 -0.19,-0.53 -1.29,-3.95 -4.78,-5.91 -0.25,-0.14 -0.77,0.13 -0.82,0.93 -0.03,0.47 -0.16,1.61 0.17,1.93 0.32,0.31 2.68,1.14 1.40,2.49 -0.57,0.61 -3.45,3.59 -4.06,4.31 -0.62,0.72 -0.68,0.85 -0.01,0.49 z M 267.16,8.96 c -4.57,4.95 -8.94,8.70 -11.51,10.00 -0.66,0.33 -0.56,0.68 -0.18,0.60 0.20,-0.04 1.70,-0.27 5.82,-2.95 3.47,-2.25 6.90,-7.21 6.90,-7.21 0.00,0.00 1.00,0.95 1.14,1.13 0.30,0.42 0.45,0.72 0.63,0.31 0.65,-1.51 -0.08,-2.48 -0.80,-3.01 0.00,0.00 0.93,-2.35 -0.36,-4.85 -0.22,-0.42 -1.56,-1.79 -3.36,0.65 -0.70,0.93 -1.32,3.24 -0.45,3.96 0.87,0.73 2.17,1.35 2.17,1.35 z M 265.98,5.30 c 0.92,-1.13 1.33,-1.07 1.63,-0.85 0.90,0.95 0.67,2.40 0.61,2.73 0.00,0.00 -1.19,-0.65 -1.72,-0.92 -0.53,-0.27 -0.80,-0.63 -0.52,-0.96 z M 270.68,20.16 c -0.68,0.50 -1.31,1.11 0.35,0.43 0.88,-0.36 2.96,-1.60 3.77,-2.29 2.53,-2.14 3.91,-4.48 3.91,-4.48 0.00,0.00 0.79,0.74 0.89,0.89 0.23,0.33 0.36,0.57 0.49,0.24 0.51,-1.18 -0.06,-1.95 -0.63,-2.36 0.00,0.00 0.73,-1.84 -0.28,-3.80 -0.17,-0.33 -1.22,-1.41 -2.64,0.51 -0.55,0.73 -1.03,2.54 -0.35,3.10 0.68,0.57 1.70,1.06 1.70,1.06 -2.67,2.89 -5.24,5.25 -7.22,6.70 z M 277.38,11.35 c -0.42,-0.21 -0.63,-0.50 -0.41,-0.76 0.72,-0.89 1.04,-0.84 1.28,-0.67 0.71,0.74 0.52,1.88 0.48,2.14 0.00,0.00 -0.93,-0.51 -1.35,-0.72 z M 221.85,27.38 c -0.06,-0.05 -0.15,-0.03 -0.20,0.04 -1.53,2.10 -1.53,2.10 -1.53,2.10 -0.05,0.07 -0.04,0.16 0.03,0.20 2.61,1.91 2.61,1.91 2.61,1.91 0.06,0.05 0.15,0.03 0.20,-0.04 1.32,-1.81 1.32,-1.81 1.32,-1.81 2.54,1.85 2.54,1.85 2.54,1.85 0.06,0.05 0.15,0.03 0.20,-0.04 1.53,-2.10 1.53,-2.10 1.53,-2.10 0.05,-0.07 0.04,-0.16 -0.03,-0.20 -2.61,-1.91 -2.61,-1.91 -2.61,-1.91 -0.06,-0.05 -0.15,-0.03 -0.20,0.04 -1.32,1.81 -1.32,1.81 -1.32,1.81 z M 229.76,43.85 c -0.55,0.28 -12.64,5.01 -13.20,5.33 -0.57,0.32 -0.77,0.40 -0.88,0.81 -0.11,0.41 -0.17,0.66 -0.20,0.72 -0.12,0.28 -0.21,0.62 0.63,0.14 0.26,-0.15 12.45,-4.93 12.92,-5.20 0.47,-0.27 0.75,-0.36 0.96,-0.79 0.21,-0.43 0.26,-0.50 0.38,-0.80 0.12,-0.32 0.25,-0.65 -0.60,-0.23 z M 244.17,17.86 c 0.25,-0.17 15.85,-8.42 16.29,-8.74 0.44,-0.31 0.71,-0.43 0.88,-0.87 0.17,-0.44 0.21,-0.52 0.30,-0.83 0.09,-0.33 0.19,-0.68 -0.62,-0.17 -0.52,0.33 -16.02,8.52 -16.56,8.89 -0.54,0.37 -0.73,0.47 -0.80,0.89 -0.08,0.42 -0.11,0.67 -0.13,0.74 -0.09,0.28 -0.15,0.64 0.64,0.08 z M 255.70,46.23 c -0.31,0.83 -1.13,1.41 -1.74,0.30 -0.10,-0.22 -0.51,-1.22 0.25,-3.42 0.15,-0.43 0.35,-1.06 0.35,-1.06 0.17,-0.48 -0.03,-0.74 -0.27,-0.15 -0.24,0.59 -1.25,2.61 -1.09,5.00 0.04,0.55 0.40,1.63 1.23,1.66 0.43,0.00 0.98,-0.31 1.38,-1.66 0.07,-0.31 0.11,-0.55 0.14,-0.67 0.04,-0.18 -0.09,-0.40 -0.23,0.02 z M 247.97,9.71 c 0.43,0.00 0.98,-0.31 1.38,-1.66 0.07,-0.31 0.11,-0.55 0.14,-0.67 0.04,-0.18 -0.09,-0.40 -0.23,0.02 -0.31,0.83 -1.13,1.41 -1.74,0.30 -0.10,-0.22 -0.51,-1.22 0.25,-3.42 0.15,-0.43 0.35,-1.06 0.35,-1.06 0.17,-0.48 -0.03,-0.74 -0.28,-0.16 -0.24,0.59 -1.25,2.61 -1.09,5.00 0.04,0.55 0.40,1.63 1.23,1.66 z M 221.95,17.21 c 0.18,-0.54 -0.09,-0.82 -0.34,-0.15 -0.25,0.67 -1.35,2.97 -1.01,5.60 0.08,0.61 0.59,1.77 1.60,1.74 0.52,-0.03 1.17,-0.41 1.57,-1.93 0.06,-0.34 0.10,-0.62 0.13,-0.75 0.04,-0.20 -0.14,-0.43 -0.28,0.04 -0.33,0.94 -1.28,1.63 -2.09,0.45 -0.13,-0.24 -0.70,-1.32 0.08,-3.80 0.16,-0.48 0.35,-1.20 0.35,-1.20 z M 232.70,23.14 c 0.59,-0.04 1.32,-0.57 1.74,-2.72 0.07,-0.49 0.10,-0.87 0.13,-1.06 0.04,-0.29 -0.16,-0.62 -0.32,0.05 -0.36,1.33 -1.42,2.30 -2.35,0.60 -0.16,-0.34 -0.81,-1.89 0.03,-5.40 0.17,-0.68 0.38,-1.70 0.38,-1.70 0.19,-0.77 -0.11,-1.16 -0.39,-0.22 -0.28,0.94 -1.47,4.21 -1.05,7.95 0.10,0.86 0.69,2.53 1.83,2.51 z M 293.36,44.80 c -0.44,0.48 -2.46,2.34 -4.60,2.44 -1.67,-0.11 -1.91,-1.52 -1.48,-2.20 0.43,-0.68 2.07,-2.29 2.35,-2.70 0.29,-0.41 0.53,-1.04 0.53,-1.04 0.15,-0.45 0.23,-0.75 -0.24,-0.77 -0.47,-0.02 -2.11,-0.32 -2.80,0.75 -0.11,0.24 -0.57,1.03 -0.64,1.19 -0.07,0.17 0.00,0.35 0.12,0.22 0.12,-0.13 0.08,-0.80 2.18,-0.77 0.30,0.00 0.41,0.08 0.29,0.24 -0.12,0.16 -2.01,1.79 -2.49,3.96 -0.60,3.16 2.44,2.58 3.07,2.33 0.38,-0.15 2.32,-1.03 3.82,-3.31 0.21,-0.33 0.32,-0.81 -0.12,-0.33 z M 335.30,20.27 c 0.48,0.00 1.11,-0.35 1.55,-1.87 0.08,-0.34 0.13,-0.62 0.16,-0.75 0.05,-0.21 -0.10,-0.45 -0.26,0.02 -0.35,0.93 -1.27,1.58 -1.96,0.33 -0.11,-0.25 -0.58,-1.38 0.28,-3.86 0.17,-0.48 0.39,-1.20 0.39,-1.20 0.19,-0.54 -0.04,-0.84 -0.31,-0.17 -0.27,0.66 -1.40,2.94 -1.23,5.63 0.04,0.62 0.45,1.83 1.39,1.87 z M 358.65,6.37 c 0.79,0.58 1.93,1.04 1.93,1.04 -3.66,4.49 -10.84,7.67 -12.55,9.01 -0.51,0.39 -0.44,0.61 -0.12,0.53 0.29,-0.08 5.76,-1.61 10.76,-5.90 2.29,-1.97 2.23,-2.11 2.82,-3.30 0.50,0.26 0.84,0.67 1.03,0.91 0.28,0.34 0.43,0.60 0.56,0.23 0.48,-1.33 -0.20,-2.13 -0.84,-2.54 0.00,0.00 0.67,-2.07 -0.56,-4.14 -0.21,-0.35 -1.43,-1.46 -2.85,0.74 -0.55,0.84 -0.96,2.85 -0.17,3.42 z M 359.38,4.34 c 0.73,-1.02 1.08,-0.99 1.36,-0.82 0.83,0.77 0.70,2.03 0.67,2.31 0.00,0.00 -1.05,-0.49 -1.52,-0.70 -0.47,-0.20 -0.72,-0.50 -0.50,-0.80 z M 361.41,14.30 c 0.18,-0.50 -0.04,-0.77 -0.29,-0.16 -0.25,0.61 -1.30,2.73 -1.14,5.22 0.04,0.58 0.42,1.70 1.29,1.73 0.45,0.00 1.03,-0.33 1.44,-1.73 0.07,-0.32 0.12,-0.57 0.15,-0.70 0.04,-0.19 -0.10,-0.42 -0.24,0.02 -0.33,0.86 -1.18,1.47 -1.82,0.31 -0.10,-0.23 -0.53,-1.28 0.26,-3.57 0.16,-0.44 0.36,-1.11 0.36,-1.11 z M 317.60,12.30 c 0.25,-0.16 13.84,-8.02 14.32,-8.31 0.46,-0.29 0.72,-0.41 0.91,-0.85 0.18,-0.44 0.23,-0.52 0.33,-0.82 0.10,-0.32 0.21,-0.67 -0.61,-0.19 -0.53,0.31 -14.04,8.11 -14.59,8.46 -0.55,0.35 -0.74,0.44 -0.83,0.87 -0.09,0.42 -0.13,0.67 -0.16,0.73 -0.10,0.28 -0.17,0.63 0.64,0.10 z M 340.80,7.03 c 0.17,0.09 0.36,0.11 0.41,-0.10 0.05,-0.21 0.29,-0.68 0.62,-0.34 0.28,0.28 2.09,1.78 3.03,4.95 0.16,0.42 0.55,0.46 0.64,-0.14 0.22,-1.47 0.34,-4.02 0.45,-4.79 0.16,-1.09 0.68,-3.32 2.06,-2.16 0.31,0.26 0.64,0.61 0.64,0.61 0.29,0.37 0.66,0.79 0.84,0.36 0.27,-0.64 0.49,-1.70 0.19,-2.28 -0.13,-0.25 -1.83,-2.41 -3.00,-0.93 -1.44,1.83 -1.53,4.23 -1.72,6.91 -0.20,-0.56 -1.35,-4.15 -5.02,-6.21 -0.27,-0.15 -0.81,0.13 -0.86,0.98 -0.03,0.49 -0.17,1.69 0.18,2.03 0.35,0.34 1.37,1.00 1.54,1.10 z M 366.99,24.89 c -0.25,-0.28 -0.38,-0.01 -0.46,0.31 -0.09,0.32 -0.36,1.52 -0.53,2.27 0.00,0.00 0.71,1.16 0.97,1.75 0.25,0.59 -0.12,0.92 -0.86,1.01 -2.08,0.25 -3.73,-0.94 -4.30,-1.48 -0.57,-0.55 0.05,-1.52 0.51,-2.68 0.37,-0.93 -0.32,-1.04 -0.84,0.00 -1.76,4.63 -4.23,5.12 -4.88,5.30 -5.86,1.60 -5.36,-3.76 -5.34,-4.64 0.02,-0.88 -0.62,-0.55 -1.34,0.03 -2.47,1.98 -4.45,3.14 -5.52,3.62 -0.92,-1.80 -2.26,-2.93 -2.82,-3.34 -6.34,-4.62 -6.86,4.71 -6.67,5.71 0.97,3.97 7.44,1.56 8.46,1.44 1.01,-0.12 0.68,1.22 0.11,2.02 -1.41,1.97 -3.03,3.38 -4.50,4.58 -6.28,5.13 -9.43,4.72 -10.41,4.69 -6.17,-0.17 -5.60,-6.82 -5.26,-8.24 1.86,-1.57 3.45,-3.28 4.38,-5.04 0.38,-0.97 1.03,-3.16 -0.15,-5.91 -0.62,-1.21 -2.56,-4.60 -2.56,-4.60 0.00,0.00 1.43,0.04 1.57,0.04 0.14,0.00 0.41,-0.14 0.06,-0.54 -0.35,-0.40 -3.36,-3.40 -3.54,-3.65 -0.18,-0.24 -0.35,-0.41 -0.45,-0.06 -0.10,0.35 -0.36,1.88 -0.42,2.20 -0.06,0.31 -0.06,0.63 0.10,0.90 0.15,0.27 0.55,1.20 0.84,1.96 0.29,0.76 3.26,6.47 3.53,6.98 0.27,0.51 0.33,0.88 0.06,1.22 -9.53,10.05 -27.91,16.23 -28.50,16.57 -0.59,0.34 -0.43,0.61 0.56,0.43 1.48,-0.26 9.74,-1.64 12.09,-2.77 1.55,-0.75 6.98,-3.41 11.41,-6.89 -0.12,0.90 -0.24,2.22 -0.18,3.89 0.30,8.08 7.53,6.74 9.43,6.33 5.68,-1.25 12.64,-9.11 13.23,-10.68 0.58,-1.56 0.67,-2.98 0.54,-4.22 1.50,-0.81 4.71,-3.40 4.71,-3.40 0.13,3.45 2.88,4.48 3.72,4.63 3.96,0.60 5.94,-2.71 6.78,-3.78 0.72,1.89 2.45,2.26 3.34,2.43 3.41,0.68 4.08,-1.74 4.26,-2.29 1.07,-3.33 -0.86,-5.81 -1.11,-6.08 z M 338.35,31.57 c -2.03,-0.14 -1.85,-0.92 -1.57,-1.23 0.30,-0.33 2.78,-1.89 4.85,0.89 0.00,0.00 -0.86,0.50 -3.28,0.33 z M 363.78,37.21 c -0.24,0.68 -0.34,1.12 -0.32,1.38 0.03,0.26 0.12,1.10 0.12,1.10 -0.25,0.20 -1.33,0.87 -2.40,0.08 0.07,-0.23 0.21,-0.70 0.24,-0.95 0.12,-0.40 -0.13,-0.69 -0.32,-0.28 -0.20,0.41 -0.65,1.79 -0.99,2.10 -0.34,0.31 -0.73,1.45 -3.30,0.29 -0.45,-0.17 -1.23,-0.75 -2.46,0.48 -2.77,2.57 -4.68,2.78 -7.79,3.88 -0.38,0.17 -1.16,0.76 -0.23,0.67 0.94,-0.09 4.87,0.00 7.01,-2.46 0.45,-0.43 0.96,-1.58 2.66,-0.92 0.94,0.36 2.68,1.85 4.58,-1.10 1.12,0.75 2.82,0.45 3.09,-0.37 0.27,-0.82 0.58,-1.64 0.58,-2.20 0.00,-0.56 -0.05,-1.30 -0.05,-1.30 -0.04,-0.44 -0.19,-1.07 -0.44,-0.40 z M 308.50,14.16 c -0.06,-0.05 -0.15,-0.03 -0.20,0.04 -1.53,2.10 -1.53,2.10 -1.53,2.10 -0.05,0.07 -0.04,0.16 0.03,0.20 2.61,1.91 2.61,1.91 2.61,1.91 0.06,0.05 0.15,0.03 0.20,-0.04 1.32,-1.81 1.32,-1.81 1.32,-1.81 2.54,1.85 2.54,1.85 2.54,1.85 0.06,0.05 0.15,0.03 0.20,-0.04 1.53,-2.10 1.53,-2.10 1.53,-2.10 0.05,-0.07 0.04,-0.16 -0.03,-0.20 -2.61,-1.91 -2.61,-1.91 -2.61,-1.91 -0.06,-0.05 -0.15,-0.03 -0.20,0.04 -1.32,1.81 -1.32,1.81 -1.32,1.81 z M 307.88,23.91 c 0.00,0.00 1.25,-0.31 1.47,-0.38 0.22,-0.06 0.34,-0.34 -0.05,-0.55 -0.39,-0.20 -4.09,-1.67 -4.37,-1.79 -0.28,-0.11 -0.38,-0.24 -0.41,0.06 -0.02,0.30 -0.07,2.73 -0.07,2.73 0.00,0.00 -0.06,0.17 0.27,0.35 0.32,0.18 0.64,0.58 0.90,0.84 0.26,0.26 3.70,2.98 3.87,3.07 0.00,0.00 -1.72,3.02 -1.94,5.38 -0.22,2.36 0.04,5.63 3.27,4.58 0.87,-0.25 4.49,-1.69 5.30,-4.21 0.26,-0.93 1.01,-2.61 -0.21,-4.31 -0.70,-1.00 -3.53,-2.69 -3.53,-2.69 0.00,0.00 2.17,-3.00 2.38,-3.37 0.21,-0.37 1.00,-2.69 1.09,-3.25 0.09,-0.56 0.13,-0.84 -0.29,-0.32 -0.42,0.52 -4.63,6.05 -4.63,6.05 z M 314.83,32.79 c -1.20,0.99 -3.72,2.29 -4.43,2.36 -0.71,0.07 -2.59,-0.28 -1.77,-2.20 0.28,-0.62 2.16,-3.84 2.16,-3.84 0.70,0.39 5.24,2.70 4.04,3.69 z M 300.92,13.78 c 0.17,-0.04 3.05,-0.49 6.41,-3.05 1.82,-1.38 2.92,-3.74 2.92,-3.74 0.00,0.00 0.91,0.76 1.03,0.91 0.28,0.34 0.43,0.60 0.56,0.23 0.48,-1.33 -0.20,-2.13 -0.84,-2.54 0.00,0.00 0.67,-2.07 -0.56,-4.14 -0.21,-0.35 -1.43,-1.46 -2.85,0.74 -0.55,0.84 -0.96,2.85 -0.17,3.42 0.79,0.58 1.93,1.04 1.93,1.04 -3.66,4.49 -6.16,5.34 -8.30,6.60 -0.55,0.32 -0.44,0.61 -0.12,0.52 z M 308.64,4.39 c -0.47,-0.20 -0.72,-0.50 -0.50,-0.80 0.73,-1.02 1.08,-0.99 1.36,-0.82 0.83,0.77 0.70,2.02 0.67,2.31 0.00,0.00 -1.05,-0.49 -1.52,-0.69 z" />
     </g>
</svg>
