<?xml version="1.0" encoding="UTF-8"?>
<svg version="1.1" id="Layer_1" x="0px" y="0px" width="578" height="50" viewBox="0 0 578 50"
xml:space="preserve" xmlns="http://www.w3.org/2000/svg" xmlns:svg="http://www.w3.org/2000/svg" xmlns:rdf="http://www.w3.org/1999/02/22-rdf-syntax-ns#"  xmlns:cc="http://creativecommons.org/ns#" xmlns:dc="http://purl.org/dc/elements/1.1/">
     <g>
<path d="M 263.41,13.80 c 0.15,0.08 0.31,0.09 0.36,-0.09 0.04,-0.18 0.25,-0.60 0.54,-0.30 0.25,0.25 1.83,1.56 2.66,4.35 0.14,0.37 0.49,0.40 0.56,-0.12 0.19,-1.29 0.29,-3.52 0.40,-4.20 0.14,-0.95 0.60,-2.92 1.81,-1.90 0.27,0.23 0.56,0.54 0.56,0.54 0.26,0.32 0.58,0.69 0.73,0.32 0.24,-0.56 0.43,-1.49 0.17,-2.00 -0.11,-0.22 -1.61,-2.12 -2.63,-0.82 -1.26,1.60 -1.34,3.71 -1.51,6.06 -0.18,-0.49 -1.18,-3.64 -4.41,-5.45 -0.23,-0.13 -0.71,0.12 -0.75,0.86 -0.03,0.43 -0.15,1.48 0.15,1.78 0.30,0.30 1.20,0.88 1.35,0.96 z M 262.36,27.60 c 0.27,-0.17 12.14,-5.64 12.62,-5.95 0.48,-0.30 0.76,-0.42 0.96,-0.88 0.20,-0.46 0.25,-0.54 0.36,-0.86 0.11,-0.34 0.23,-0.70 -0.64,-0.21 -0.56,0.32 -12.33,5.73 -12.91,6.10 -0.58,0.36 -0.79,0.45 -0.89,0.90 -0.10,0.44 -0.15,0.70 -0.17,0.77 -0.11,0.30 -0.19,0.66 0.67,0.12 z M 258.20,41.37 c -0.55,0.28 -10.23,3.88 -10.80,4.20 -0.57,0.32 -0.77,0.40 -0.88,0.81 -0.11,0.42 -0.17,0.66 -0.20,0.72 -0.12,0.28 -0.21,0.62 0.63,0.14 0.26,-0.15 10.05,-3.80 10.52,-4.07 0.47,-0.27 0.75,-0.36 0.96,-0.79 0.21,-0.42 0.26,-0.50 0.38,-0.80 0.12,-0.32 0.25,-0.65 -0.60,-0.22 z M 272.39,27.11 c 0.17,-0.48 -0.03,-0.74 -0.27,-0.15 -0.24,0.59 -1.25,2.61 -1.09,5.00 0.04,0.55 0.40,1.63 1.23,1.65 0.43,0.00 0.99,-0.31 1.38,-1.66 0.07,-0.30 0.11,-0.55 0.14,-0.67 0.04,-0.18 -0.09,-0.40 -0.23,0.02 -0.31,0.83 -1.13,1.41 -1.74,0.30 -0.10,-0.22 -0.51,-1.22 0.25,-3.42 0.15,-0.43 0.34,-1.06 0.34,-1.06 z M 264.60,8.13 c 0.43,0.00 0.99,-0.31 1.38,-1.66 0.07,-0.30 0.11,-0.55 0.14,-0.67 0.04,-0.18 -0.09,-0.40 -0.23,0.02 -0.31,0.83 -1.13,1.41 -1.74,0.30 -0.10,-0.22 -0.51,-1.22 0.25,-3.42 0.15,-0.43 0.34,-1.06 0.34,-1.06 0.17,-0.48 -0.03,-0.74 -0.27,-0.15 -0.24,0.59 -1.25,2.61 -1.09,5.00 0.04,0.55 0.40,1.63 1.23,1.65 z M 291.08,42.38 c -0.04,0.46 0.17,0.64 0.38,0.19 0.21,-0.45 1.67,-3.47 -0.06,-14.54 -0.13,-0.92 -2.76,-19.64 -2.76,-19.64 0.00,0.00 1.55,1.46 1.80,1.72 0.25,0.26 0.55,0.12 0.41,-0.30 -0.14,-0.42 -3.31,-8.10 -3.42,-8.36 -0.10,-0.27 -0.20,-0.46 -0.33,-0.15 -0.13,0.31 -0.88,2.38 -0.88,2.38 0.20,1.35 1.99,15.82 2.10,16.81 0.12,0.99 2.63,17.36 2.76,21.89 z M 246.84,22.43 c 0.52,0.75 1.56,1.40 1.56,1.40 -0.47,0.30 -1.00,0.47 -1.12,0.98 -0.12,0.51 -0.14,0.82 -0.15,1.00 0.00,0.18 -0.03,0.32 0.26,0.23 0.29,-0.10 0.42,-0.16 0.42,-0.16 0.82,-0.41 3.93,-2.25 6.06,-2.86 0.07,-0.02 0.17,-0.73 0.22,-1.12 0.05,-0.39 -0.35,-0.33 -0.96,-0.16 -0.62,0.17 -2.85,0.95 -4.10,-0.01 -1.08,-0.83 -1.23,-1.19 -0.88,-1.42 0.36,-0.24 1.36,-0.98 2.07,-0.17 0.38,0.43 0.67,0.42 0.81,0.11 0.14,-0.30 0.61,-1.11 0.44,-1.42 -0.17,-0.31 -0.90,-1.36 -2.38,-0.55 -1.48,0.81 -2.86,3.26 -2.24,4.16 z M 281.88,33.00 c 0.00,0.00 -1.50,-5.57 -2.29,-11.80 -0.93,-6.22 -1.78,-12.65 -1.78,-12.65 0.00,0.00 1.55,1.45 1.80,1.72 0.25,0.26 0.55,0.12 0.41,-0.30 -0.14,-0.42 -3.32,-8.09 -3.42,-8.36 -0.10,-0.27 -0.20,-0.46 -0.33,-0.15 -0.13,0.31 -0.88,2.38 -0.88,2.38 0.14,0.95 2.23,17.01 3.74,25.78 0.21,1.21 0.96,4.42 0.96,4.42 -1.42,0.95 -11.29,6.46 -17.13,2.96 -1.42,-0.79 -3.96,-2.15 -4.69,-9.90 -0.30,-2.48 0.10,-10.06 -2.41,-20.69 -0.44,-1.87 -0.97,-3.56 -1.16,-3.97 -0.19,-0.40 -0.28,-0.13 -0.36,0.03 -0.08,0.16 -0.84,2.50 -0.84,2.50 0.48,1.96 2.32,9.65 2.56,15.69 0.05,1.34 0.26,10.78 2.22,15.44 4.83,11.51 21.56,1.23 22.58,0.74 1.11,1.64 2.01,2.87 3.40,3.48 0.60,0.27 2.19,0.96 3.30,-0.04 1.31,-1.18 1.48,-4.52 0.54,-6.20 -1.56,-2.77 -4.89,-1.70 -6.21,-1.10 z M 286.45,37.65 c -2.26,-0.23 -2.95,-2.05 -2.95,-2.05 0.39,-0.02 2.53,-0.22 3.54,1.31 0.15,0.31 0.08,0.73 -0.59,0.75 z M 223.89,34.07 c -0.55,0.28 -6.76,2.93 -7.32,3.24 -0.57,0.32 -0.77,0.39 -0.88,0.81 -0.11,0.42 -0.17,0.66 -0.20,0.72 -0.12,0.27 -0.21,0.62 0.63,0.14 0.26,-0.15 6.57,-2.85 7.04,-3.11 0.47,-0.27 0.75,-0.36 0.96,-0.79 0.21,-0.42 0.26,-0.50 0.38,-0.80 0.12,-0.32 0.25,-0.65 -0.60,-0.22 z M 250.29,40.36 c 3.63,0.18 4.08,-2.46 4.28,-3.43 0.40,-4.44 -2.51,-7.30 -2.83,-7.62 -0.32,-0.32 -0.41,-0.26 -0.49,0.08 -0.08,0.34 -0.32,2.97 -0.32,2.97 0.00,0.00 1.60,1.55 2.22,2.80 0.33,0.68 0.15,0.92 -0.26,1.28 -1.72,1.19 -3.38,0.82 -4.58,0.11 -2.56,-1.51 -3.65,-7.02 -3.94,-9.20 -1.16,-8.75 -3.94,-12.76 -4.51,-13.71 -0.57,-0.95 -0.70,0.53 -0.77,1.30 -0.07,0.77 0.26,2.38 0.26,2.38 0.00,0.00 2.31,7.02 2.73,8.67 1.85,5.17 -0.44,6.18 -1.96,7.66 -1.52,1.47 -8.03,7.14 -12.02,6.04 -3.58,-0.99 -1.07,-7.34 -0.88,-8.66 0.02,-0.11 0.02,-0.20 0.03,-0.29 1.22,-0.67 2.58,-1.70 3.04,-3.09 0.26,-0.88 0.98,-2.47 -0.16,-4.10 -0.66,-0.96 -3.33,-2.59 -3.33,-2.59 0.00,0.00 2.09,-2.84 2.29,-3.19 0.20,-0.35 0.98,-2.55 1.07,-3.09 0.09,-0.54 0.13,-0.80 -0.27,-0.31 -0.40,0.49 -4.46,5.72 -4.46,5.72 -2.90,-2.10 -2.90,-2.10 -2.90,-2.10 0.00,0.00 1.19,-0.29 1.40,-0.35 0.21,-0.06 0.33,-0.33 -0.04,-0.52 -0.37,-0.20 -3.87,-1.63 -4.14,-1.74 -0.27,-0.11 -0.36,-0.23 -0.39,0.05 -0.03,0.28 -0.09,2.60 -0.09,2.60 0.00,0.00 -0.05,0.16 0.25,0.34 0.31,0.18 0.60,0.55 0.85,0.81 0.25,0.25 3.50,2.86 3.66,2.95 0.00,0.00 -1.66,2.86 -1.89,5.11 -0.23,2.25 -0.01,5.35 3.08,4.38 0.21,-0.06 0.58,-0.19 1.04,-0.38 -0.28,1.01 -0.91,3.93 -1.03,4.77 -1.50,7.43 4.41,7.47 7.48,6.12 2.79,-1.23 8.61,-6.20 9.38,-7.05 0.78,-0.84 1.04,-2.41 1.30,-3.31 0.00,0.00 0.95,2.94 1.35,4.01 1.52,4.15 4.65,4.55 5.54,4.59 z M 224.85,28.70 c -0.67,0.06 -2.46,-0.28 -1.67,-2.11 0.27,-0.59 2.09,-3.64 2.09,-3.64 0.67,0.37 4.97,2.61 3.82,3.54 -1.15,0.93 -3.56,2.15 -4.24,2.21 z M 233.71,12.53 c 0.24,-0.17 13.28,-7.40 13.72,-7.72 0.44,-0.32 0.70,-0.44 0.87,-0.88 0.16,-0.44 0.21,-0.52 0.29,-0.83 0.09,-0.33 0.18,-0.68 -0.62,-0.16 -0.52,0.33 -13.45,7.50 -13.98,7.88 -0.53,0.38 -0.72,0.47 -0.79,0.90 -0.07,0.43 -0.10,0.67 -0.12,0.74 -0.09,0.29 -0.14,0.64 0.64,0.08 z M 222.28,9.75 c 0.06,0.05 0.15,0.03 0.20,-0.04 1.32,-1.81 1.32,-1.81 1.32,-1.81 2.54,1.85 2.54,1.85 2.54,1.85 0.06,0.05 0.15,0.03 0.20,-0.04 1.53,-2.10 1.53,-2.10 1.53,-2.10 0.05,-0.07 0.04,-0.16 -0.03,-0.20 -2.61,-1.91 -2.61,-1.91 -2.61,-1.91 -0.06,-0.05 -0.15,-0.03 -0.20,0.04 -1.32,1.81 -1.32,1.81 -1.32,1.81 -2.54,-1.85 -2.54,-1.85 -2.54,-1.85 -0.06,-0.05 -0.15,-0.03 -0.20,0.04 -1.53,2.10 -1.53,2.10 -1.53,2.10 -0.05,0.07 -0.04,0.16 0.03,0.20 z M 235.85,22.75 c 0.15,-0.49 -0.06,-0.74 -0.28,-0.15 -0.22,0.60 -1.15,2.65 -0.92,5.04 0.06,0.55 0.46,1.61 1.29,1.61 0.43,-0.02 0.97,-0.35 1.32,-1.71 0.06,-0.31 0.09,-0.55 0.12,-0.67 0.04,-0.18 -0.11,-0.40 -0.23,0.03 -0.29,0.84 -1.08,1.44 -1.73,0.36 -0.11,-0.22 -0.55,-1.21 0.13,-3.43 0.14,-0.43 0.31,-1.07 0.31,-1.07 z M 353.02,14.30 c 0.18,-0.50 -0.04,-0.77 -0.29,-0.16 -0.25,0.61 -1.30,2.73 -1.14,5.22 0.04,0.58 0.42,1.70 1.29,1.73 0.45,0.00 1.03,-0.33 1.44,-1.74 0.07,-0.32 0.12,-0.57 0.15,-0.70 0.04,-0.19 -0.10,-0.42 -0.24,0.02 -0.33,0.86 -1.18,1.47 -1.82,0.31 -0.10,-0.23 -0.54,-1.28 0.26,-3.57 0.16,-0.45 0.36,-1.11 0.36,-1.11 z M 332.41,7.03 c 0.17,0.09 0.36,0.11 0.41,-0.10 0.05,-0.21 0.29,-0.68 0.62,-0.34 0.28,0.28 2.09,1.78 3.03,4.95 0.16,0.42 0.55,0.46 0.64,-0.14 0.22,-1.47 0.33,-4.02 0.45,-4.79 0.17,-1.09 0.68,-3.33 2.06,-2.16 0.31,0.26 0.64,0.61 0.64,0.61 0.29,0.37 0.66,0.79 0.84,0.36 0.27,-0.64 0.49,-1.70 0.19,-2.28 -0.13,-0.26 -1.83,-2.41 -3.00,-0.93 -1.44,1.83 -1.53,4.23 -1.72,6.91 -0.20,-0.56 -1.35,-4.16 -5.02,-6.21 -0.27,-0.15 -0.81,0.13 -0.86,0.98 -0.03,0.49 -0.17,1.69 0.18,2.03 0.35,0.34 1.37,1.01 1.54,1.10 z M 350.26,6.37 c 0.79,0.58 1.94,1.04 1.94,1.04 -3.66,4.48 -10.84,7.67 -12.56,9.01 -0.51,0.39 -0.44,0.61 -0.12,0.53 0.28,-0.08 5.76,-1.61 10.76,-5.90 2.29,-1.97 2.23,-2.11 2.81,-3.31 0.50,0.26 0.84,0.67 1.03,0.91 0.28,0.34 0.43,0.60 0.56,0.23 0.48,-1.33 -0.20,-2.13 -0.84,-2.54 0.00,0.00 0.67,-2.07 -0.56,-4.14 -0.21,-0.35 -1.43,-1.46 -2.85,0.74 -0.55,0.84 -0.96,2.85 -0.18,3.42 z M 350.99,4.34 c 0.73,-1.02 1.08,-0.98 1.36,-0.82 0.83,0.77 0.70,2.03 0.67,2.31 0.00,0.00 -1.05,-0.49 -1.52,-0.70 -0.47,-0.20 -0.72,-0.50 -0.50,-0.80 z M 326.91,20.28 c 0.48,0.00 1.11,-0.35 1.55,-1.88 0.08,-0.34 0.13,-0.62 0.16,-0.75 0.05,-0.21 -0.10,-0.45 -0.26,0.02 -0.35,0.93 -1.28,1.58 -1.96,0.33 -0.11,-0.25 -0.58,-1.38 0.28,-3.86 0.17,-0.48 0.39,-1.20 0.39,-1.20 0.19,-0.54 -0.04,-0.84 -0.31,-0.17 -0.27,0.66 -1.40,2.94 -1.23,5.64 0.04,0.62 0.45,1.83 1.39,1.87 z M 292.53,13.78 c 0.17,-0.04 3.05,-0.49 6.41,-3.05 1.82,-1.38 2.92,-3.74 2.92,-3.74 0.00,0.00 0.91,0.76 1.03,0.91 0.28,0.34 0.43,0.60 0.56,0.23 0.48,-1.33 -0.20,-2.13 -0.84,-2.54 0.00,0.00 0.67,-2.07 -0.56,-4.14 -0.21,-0.35 -1.43,-1.46 -2.85,0.74 -0.55,0.84 -0.96,2.85 -0.18,3.42 0.79,0.58 1.94,1.04 1.94,1.04 -3.66,4.48 -6.16,5.34 -8.30,6.59 -0.55,0.32 -0.44,0.61 -0.12,0.53 z M 300.25,4.39 c -0.47,-0.20 -0.72,-0.50 -0.50,-0.80 0.73,-1.02 1.08,-0.98 1.36,-0.82 0.83,0.77 0.70,2.03 0.67,2.31 0.00,0.00 -1.05,-0.49 -1.52,-0.70 z M 300.12,14.16 c -0.06,-0.05 -0.15,-0.03 -0.20,0.04 -1.53,2.10 -1.53,2.10 -1.53,2.10 -0.05,0.07 -0.04,0.16 0.03,0.21 2.61,1.91 2.61,1.91 2.61,1.91 0.06,0.05 0.15,0.03 0.20,-0.04 1.32,-1.81 1.32,-1.81 1.32,-1.81 2.54,1.85 2.54,1.85 2.54,1.85 0.06,0.05 0.15,0.03 0.20,-0.04 1.53,-2.10 1.53,-2.10 1.53,-2.10 0.05,-0.07 0.04,-0.16 -0.03,-0.20 -2.61,-1.91 -2.61,-1.91 -2.61,-1.91 -0.06,-0.05 -0.15,-0.03 -0.20,0.04 -1.32,1.81 -1.32,1.81 -1.32,1.81 z M 355.39,37.21 c -0.24,0.68 -0.34,1.12 -0.32,1.38 0.03,0.26 0.12,1.10 0.12,1.10 -0.25,0.20 -1.33,0.87 -2.40,0.08 0.07,-0.23 0.21,-0.70 0.24,-0.95 0.12,-0.40 -0.13,-0.69 -0.32,-0.28 -0.20,0.41 -0.65,1.79 -0.99,2.10 -0.34,0.31 -0.73,1.45 -3.30,0.29 -0.45,-0.17 -1.23,-0.75 -2.46,0.48 -2.77,2.57 -4.68,2.78 -7.79,3.88 -0.38,0.17 -1.16,0.77 -0.23,0.67 0.94,-0.09 4.87,0.00 7.01,-2.46 0.45,-0.43 0.96,-1.58 2.66,-0.92 0.94,0.36 2.68,1.85 4.58,-1.10 1.12,0.75 2.82,0.45 3.09,-0.38 0.27,-0.82 0.58,-1.64 0.58,-2.20 0.00,-0.56 -0.05,-1.30 -0.05,-1.30 -0.04,-0.44 -0.19,-1.07 -0.44,-0.40 z M 309.21,12.30 c 0.25,-0.16 13.84,-8.02 14.32,-8.31 0.46,-0.29 0.72,-0.41 0.91,-0.85 0.18,-0.44 0.23,-0.51 0.33,-0.82 0.10,-0.32 0.21,-0.67 -0.61,-0.19 -0.53,0.31 -14.04,8.11 -14.59,8.46 -0.55,0.35 -0.74,0.44 -0.83,0.86 -0.09,0.42 -0.13,0.67 -0.16,0.73 -0.10,0.28 -0.17,0.63 0.64,0.10 z M 299.49,23.91 c 0.00,0.00 1.25,-0.31 1.47,-0.38 0.22,-0.06 0.34,-0.35 -0.05,-0.55 -0.39,-0.20 -4.09,-1.67 -4.37,-1.79 -0.28,-0.11 -0.38,-0.24 -0.41,0.06 -0.02,0.30 -0.07,2.73 -0.07,2.73 0.00,0.00 -0.06,0.17 0.27,0.35 0.32,0.18 0.64,0.58 0.90,0.84 0.26,0.26 3.70,2.98 3.87,3.07 0.00,0.00 -1.72,3.02 -1.94,5.38 -0.22,2.36 0.04,5.63 3.27,4.57 0.87,-0.25 4.49,-1.69 5.30,-4.21 0.26,-0.93 1.01,-2.61 -0.21,-4.31 -0.70,-1.00 -3.53,-2.69 -3.53,-2.69 0.00,0.00 2.17,-3.00 2.38,-3.37 0.21,-0.37 1.00,-2.69 1.09,-3.26 0.09,-0.56 0.13,-0.84 -0.29,-0.32 -0.42,0.52 -4.63,6.05 -4.63,6.05 z M 306.45,32.79 c -1.20,0.99 -3.72,2.29 -4.43,2.36 -0.71,0.07 -2.59,-0.28 -1.77,-2.20 0.28,-0.62 2.16,-3.84 2.16,-3.84 0.70,0.39 5.24,2.70 4.04,3.69 z M 358.60,24.89 c -0.25,-0.27 -0.37,-0.01 -0.46,0.31 -0.09,0.32 -0.36,1.52 -0.54,2.27 0.00,0.00 0.71,1.16 0.97,1.75 0.25,0.59 -0.12,0.92 -0.86,1.01 -2.08,0.25 -3.73,-0.94 -4.30,-1.48 -0.57,-0.55 0.05,-1.52 0.51,-2.68 0.37,-0.93 -0.32,-1.04 -0.84,0.00 -1.76,4.63 -4.23,5.12 -4.88,5.30 -5.86,1.60 -5.36,-3.76 -5.33,-4.64 0.02,-0.88 -0.62,-0.55 -1.34,0.03 -2.47,1.98 -4.45,3.14 -5.52,3.62 -0.92,-1.80 -2.26,-2.93 -2.82,-3.34 -6.34,-4.63 -6.87,4.71 -6.67,5.71 0.97,3.97 7.44,1.56 8.46,1.44 1.02,-0.12 0.68,1.22 0.11,2.02 -1.41,1.97 -3.03,3.38 -4.50,4.58 -6.28,5.13 -9.43,4.72 -10.40,4.69 -6.17,-0.17 -5.60,-6.82 -5.26,-8.24 1.86,-1.57 3.45,-3.28 4.38,-5.04 0.38,-0.96 1.03,-3.16 -0.15,-5.91 -0.62,-1.21 -2.56,-4.60 -2.56,-4.60 0.00,0.00 1.43,0.04 1.57,0.04 0.14,0.00 0.41,-0.14 0.06,-0.55 -0.35,-0.40 -3.36,-3.40 -3.54,-3.65 -0.18,-0.24 -0.35,-0.41 -0.45,-0.06 -0.10,0.36 -0.36,1.88 -0.42,2.20 -0.06,0.31 -0.06,0.63 0.10,0.90 0.15,0.27 0.55,1.20 0.84,1.96 0.29,0.76 3.26,6.47 3.53,6.98 0.27,0.51 0.33,0.88 0.06,1.22 -9.53,10.05 -27.91,16.23 -28.50,16.57 -0.59,0.34 -0.43,0.61 0.56,0.43 1.48,-0.26 9.74,-1.64 12.09,-2.77 1.55,-0.75 6.98,-3.41 11.41,-6.89 -0.12,0.90 -0.24,2.22 -0.18,3.89 0.30,8.08 7.53,6.74 9.43,6.33 5.68,-1.25 12.64,-9.11 13.23,-10.69 0.58,-1.56 0.67,-2.98 0.54,-4.22 1.50,-0.81 4.71,-3.40 4.71,-3.40 0.13,3.45 2.87,4.48 3.72,4.63 3.96,0.60 5.94,-2.71 6.78,-3.78 0.72,1.89 2.45,2.25 3.34,2.43 3.41,0.68 4.08,-1.74 4.26,-2.29 1.07,-3.33 -0.86,-5.81 -1.11,-6.08 z M 329.96,31.57 c -2.03,-0.14 -1.85,-0.92 -1.57,-1.22 0.30,-0.33 2.78,-1.89 4.85,0.89 0.00,0.00 -0.86,0.50 -3.28,0.33 z" />
     </g>
</svg>
