<?xml version="1.0" encoding="UTF-8"?>
<svg version="1.1" id="Layer_1" x="0px" y="0px" width="578" height="50" viewBox="0 0 578 50"
xml:space="preserve" xmlns="http://www.w3.org/2000/svg" xmlns:svg="http://www.w3.org/2000/svg" xmlns:rdf="http://www.w3.org/1999/02/22-rdf-syntax-ns#"  xmlns:cc="http://creativecommons.org/ns#" xmlns:dc="http://purl.org/dc/elements/1.1/">
     <g>
<path d="M 242.96,17.67 c 0.67,-0.35 4.54,-1.74 5.27,-5.52 0.06,-0.50 -0.03,-0.87 -0.14,-1.12 0.05,0.01 0.11,0.05 0.17,0.11 0.26,0.28 1.94,1.74 2.76,4.79 0.14,0.40 0.51,0.45 0.61,-0.11 0.24,-1.39 0.42,-3.81 0.55,-4.54 0.18,-1.03 0.73,-3.15 2.01,-2.01 0.29,0.26 0.60,0.60 0.60,0.60 0.27,0.36 0.61,0.77 0.79,0.37 0.27,-0.60 0.51,-1.61 0.24,-2.16 -0.12,-0.24 -1.69,-2.34 -2.83,-0.96 -1.41,1.70 -1.56,3.99 -1.81,6.53 -0.18,-0.54 -1.18,-3.99 -4.62,-6.03 -0.25,-0.15 -0.77,0.11 -0.84,0.91 -0.04,0.47 -0.21,1.60 0.12,1.94 0.31,0.32 2.65,1.21 1.33,2.53 -0.59,0.59 -3.54,3.50 -4.17,4.21 -0.64,0.71 -0.70,0.84 -0.03,0.49 z M 274.29,16.14 c -1.32,1.81 -1.32,1.81 -1.32,1.81 -2.54,-1.85 -2.54,-1.85 -2.54,-1.85 -0.06,-0.05 -0.15,-0.03 -0.20,0.04 -1.53,2.10 -1.53,2.10 -1.53,2.10 -0.05,0.07 -0.04,0.16 0.03,0.20 2.61,1.91 2.61,1.91 2.61,1.91 0.06,0.05 0.15,0.03 0.20,-0.04 1.32,-1.81 1.32,-1.81 1.32,-1.81 2.54,1.85 2.54,1.85 2.54,1.85 0.06,0.05 0.15,0.03 0.20,-0.04 1.53,-2.10 1.53,-2.10 1.53,-2.10 0.05,-0.07 0.04,-0.16 -0.03,-0.20 -2.61,-1.91 -2.61,-1.91 -2.61,-1.91 -0.06,-0.05 -0.15,-0.03 -0.20,0.04 z M 263.52,23.32 c 0.19,-0.55 -0.04,-0.85 -0.31,-0.18 -0.27,0.67 -1.42,2.98 -1.24,5.70 0.04,0.63 0.46,1.85 1.41,1.89 0.49,0.00 1.12,-0.36 1.57,-1.90 0.08,-0.35 0.13,-0.63 0.16,-0.76 0.05,-0.21 -0.11,-0.45 -0.26,0.02 -0.36,0.94 -1.29,1.60 -1.99,0.34 -0.11,-0.25 -0.58,-1.40 0.28,-3.90 0.17,-0.49 0.39,-1.21 0.39,-1.21 z M 279.49,37.18 c 0.19,-0.55 -0.04,-0.85 -0.31,-0.18 -0.27,0.67 -1.42,2.98 -1.25,5.70 0.04,0.63 0.46,1.86 1.41,1.89 0.49,0.00 1.12,-0.36 1.57,-1.90 0.08,-0.35 0.13,-0.63 0.16,-0.76 0.05,-0.21 -0.11,-0.46 -0.26,0.02 -0.36,0.94 -1.29,1.60 -1.99,0.34 -0.11,-0.25 -0.58,-1.40 0.28,-3.90 0.17,-0.49 0.39,-1.21 0.39,-1.21 z M 232.94,15.18 c 0.56,-0.03 1.25,-0.44 1.67,-2.06 0.07,-0.37 0.11,-0.66 0.14,-0.80 0.04,-0.22 -0.15,-0.46 -0.30,0.04 -0.35,1.00 -1.37,1.74 -2.24,0.48 -0.14,-0.25 -0.75,-1.41 0.09,-4.06 0.17,-0.51 0.38,-1.28 0.38,-1.28 0.19,-0.58 -0.09,-0.87 -0.37,-0.16 -0.27,0.71 -1.44,3.17 -1.08,5.98 0.08,0.65 0.63,1.89 1.71,1.86 z M 244.09,33.96 c 0.56,-0.03 1.25,-0.44 1.67,-2.06 0.07,-0.37 0.11,-0.66 0.14,-0.80 0.04,-0.22 -0.15,-0.47 -0.30,0.04 -0.35,1.00 -1.37,1.74 -2.24,0.48 -0.14,-0.25 -0.75,-1.41 0.09,-4.06 0.17,-0.51 0.38,-1.28 0.38,-1.28 0.19,-0.58 -0.09,-0.87 -0.37,-0.16 -0.27,0.71 -1.44,3.17 -1.08,5.98 0.08,0.65 0.63,1.89 1.71,1.86 z M 253.23,32.17 c -0.20,-0.41 -1.03,-2.31 0.06,-6.63 0.22,-0.84 0.49,-2.08 0.49,-2.08 0.24,-0.94 -0.14,-1.43 -0.50,-0.27 -0.36,1.16 -1.89,5.17 -1.36,9.76 0.12,1.06 0.88,3.10 2.34,3.07 0.75,-0.05 1.69,-0.70 2.23,-3.35 0.09,-0.60 0.13,-1.07 0.17,-1.31 0.05,-0.36 -0.21,-0.76 -0.40,0.06 -0.46,1.63 -1.83,2.83 -3.02,0.75 z M 231.32,24.15 c 0.16,0.09 0.33,0.10 0.37,-0.09 0.05,-0.19 0.26,-0.63 0.56,-0.31 0.22,0.22 2.01,1.80 2.56,3.95 0.45,1.87 -4.15,5.65 -4.39,5.82 -0.43,0.31 -0.29,0.51 -0.09,0.40 0.20,-0.11 0.40,-0.14 2.76,-1.70 1.90,-1.26 2.30,-2.71 2.46,-3.83 0.02,-0.05 0.04,-0.11 0.05,-0.19 0.20,-1.36 0.30,-3.72 0.41,-4.43 0.15,-1.01 0.62,-3.08 1.88,-2.00 0.28,0.24 0.59,0.57 0.59,0.57 0.27,0.34 0.60,0.73 0.76,0.34 0.25,-0.59 0.44,-1.58 0.17,-2.11 -0.12,-0.24 -1.67,-2.23 -2.73,-0.86 -1.31,1.69 -1.39,3.92 -1.57,6.40 -0.19,-0.52 -1.23,-3.85 -4.58,-5.75 -0.24,-0.14 -0.74,0.13 -0.78,0.91 -0.03,0.46 -0.16,1.57 0.16,1.88 0.32,0.31 1.25,0.93 1.41,1.02 z M 261.63,10.24 c 0.66,0.63 0.94,1.88 0.98,2.24 0.04,0.37 0.19,0.35 0.30,0.12 0.11,-0.22 0.21,-1.02 0.26,-1.98 7.94,0.55 13.82,-4.15 14.16,-4.39 0.58,-0.41 0.38,0.26 0.32,0.94 -0.06,0.67 -0.26,2.00 -0.30,2.47 -0.04,0.47 0.19,0.18 0.30,-0.26 0.11,-0.45 0.56,-2.20 0.75,-4.02 0.19,-1.82 -1.11,-0.98 -1.64,-0.65 -8.33,5.63 -14.54,3.53 -14.87,3.37 -0.34,-0.16 -0.70,-0.29 -0.60,0.18 0.09,0.47 0.13,1.73 0.34,1.98 z M 276.95,23.83 c -0.29,-0.31 -2.22,-2.55 -4.79,-0.25 -1.19,1.07 -2.32,3.87 -1.67,5.37 0.54,1.15 1.88,2.01 4.16,1.86 0.65,-0.04 2.82,-0.21 3.41,0.61 0.34,0.46 0.67,1.04 -0.76,2.52 -1.43,1.47 -11.23,10.01 -27.53,10.34 -1.65,0.00 -3.63,-0.07 -4.55,-0.23 -0.92,-0.16 -9.44,-1.42 -16.20,-5.54 -0.76,-0.36 -1.15,-0.30 -0.43,0.46 0.73,0.76 6.07,5.17 10.89,6.96 0.56,0.21 3.66,0.89 7.56,1.22 2.57,0.17 14.55,0.89 26.70,-7.46 3.89,-2.67 5.08,-5.13 5.08,-5.13 0.42,-0.82 2.07,-6.52 -1.86,-10.73 z M 272.79,27.53 c -1.00,-0.50 -0.44,-1.15 0.19,-1.48 0.63,-0.33 2.34,-0.75 3.72,1.69 0.00,0.00 -2.91,0.29 -3.91,-0.21 z M 314.32,20.28 c 0.48,0.00 1.11,-0.35 1.55,-1.88 0.08,-0.34 0.13,-0.62 0.16,-0.75 0.05,-0.21 -0.10,-0.45 -0.26,0.02 -0.35,0.93 -1.27,1.58 -1.96,0.33 -0.11,-0.25 -0.58,-1.38 0.28,-3.86 0.17,-0.48 0.39,-1.20 0.39,-1.20 0.19,-0.54 -0.04,-0.84 -0.31,-0.17 -0.27,0.66 -1.40,2.94 -1.23,5.64 0.04,0.62 0.45,1.83 1.39,1.87 z M 337.68,6.37 c 0.79,0.58 1.93,1.04 1.93,1.04 -3.66,4.48 -10.84,7.67 -12.55,9.01 -0.51,0.39 -0.44,0.61 -0.12,0.53 0.29,-0.08 5.76,-1.61 10.77,-5.90 2.29,-1.97 2.23,-2.11 2.81,-3.31 0.50,0.26 0.84,0.67 1.03,0.91 0.28,0.34 0.43,0.60 0.56,0.23 0.48,-1.33 -0.20,-2.13 -0.84,-2.54 0.00,0.00 0.67,-2.07 -0.56,-4.14 -0.21,-0.35 -1.43,-1.46 -2.85,0.74 -0.55,0.84 -0.96,2.85 -0.17,3.42 z M 338.41,4.34 c 0.73,-1.02 1.08,-0.98 1.36,-0.82 0.82,0.77 0.70,2.03 0.67,2.31 0.00,0.00 -1.05,-0.49 -1.52,-0.70 -0.47,-0.20 -0.72,-0.50 -0.50,-0.80 z M 319.83,7.03 c 0.17,0.09 0.36,0.11 0.41,-0.10 0.05,-0.21 0.28,-0.68 0.62,-0.34 0.28,0.28 2.09,1.78 3.03,4.95 0.16,0.42 0.55,0.46 0.64,-0.14 0.22,-1.47 0.34,-4.02 0.45,-4.79 0.16,-1.09 0.68,-3.33 2.06,-2.16 0.31,0.26 0.64,0.61 0.64,0.61 0.29,0.37 0.66,0.79 0.84,0.36 0.27,-0.64 0.49,-1.70 0.19,-2.28 -0.13,-0.26 -1.84,-2.41 -3.00,-0.93 -1.44,1.83 -1.53,4.23 -1.72,6.91 -0.20,-0.56 -1.35,-4.16 -5.02,-6.21 -0.27,-0.15 -0.81,0.13 -0.86,0.98 -0.03,0.49 -0.17,1.69 0.18,2.03 0.35,0.34 1.37,1.01 1.54,1.10 z M 340.44,14.30 c 0.18,-0.50 -0.04,-0.77 -0.29,-0.16 -0.25,0.61 -1.30,2.73 -1.14,5.22 0.04,0.58 0.42,1.70 1.29,1.73 0.45,0.00 1.03,-0.33 1.44,-1.74 0.07,-0.32 0.12,-0.57 0.15,-0.70 0.04,-0.19 -0.10,-0.42 -0.24,0.02 -0.33,0.86 -1.18,1.47 -1.82,0.31 -0.10,-0.23 -0.53,-1.28 0.26,-3.57 0.16,-0.45 0.36,-1.11 0.36,-1.11 z M 286.91,23.91 c 0.00,0.00 1.25,-0.31 1.47,-0.38 0.22,-0.06 0.34,-0.35 -0.05,-0.55 -0.39,-0.20 -4.09,-1.67 -4.37,-1.79 -0.28,-0.11 -0.38,-0.24 -0.41,0.06 -0.02,0.30 -0.07,2.73 -0.07,2.73 0.00,0.00 -0.06,0.17 0.27,0.35 0.32,0.18 0.64,0.58 0.90,0.84 0.26,0.26 3.70,2.98 3.87,3.07 0.00,0.00 -1.72,3.02 -1.94,5.38 -0.22,2.36 0.04,5.63 3.27,4.57 0.87,-0.25 4.49,-1.69 5.30,-4.21 0.26,-0.93 1.01,-2.61 -0.21,-4.31 -0.70,-1.00 -3.53,-2.69 -3.53,-2.69 0.00,0.00 2.17,-3.00 2.38,-3.37 0.21,-0.37 1.00,-2.69 1.09,-3.26 0.09,-0.56 0.13,-0.84 -0.29,-0.32 -0.42,0.52 -4.63,6.05 -4.63,6.05 z M 293.86,32.79 c -1.20,0.99 -3.72,2.29 -4.43,2.36 -0.71,0.07 -2.59,-0.28 -1.77,-2.20 0.28,-0.62 2.16,-3.84 2.16,-3.84 0.70,0.39 5.24,2.70 4.04,3.69 z M 342.81,37.21 c -0.24,0.68 -0.34,1.12 -0.31,1.38 0.03,0.26 0.11,1.10 0.11,1.10 -0.25,0.20 -1.33,0.87 -2.40,0.08 0.07,-0.23 0.21,-0.70 0.24,-0.95 0.12,-0.40 -0.13,-0.69 -0.32,-0.28 -0.20,0.41 -0.65,1.79 -0.99,2.10 -0.34,0.31 -0.73,1.45 -3.30,0.29 -0.45,-0.17 -1.23,-0.75 -2.46,0.48 -2.77,2.57 -4.68,2.78 -7.79,3.88 -0.38,0.17 -1.16,0.76 -0.23,0.67 0.94,-0.09 4.87,0.00 7.01,-2.46 0.45,-0.43 0.96,-1.58 2.66,-0.92 0.94,0.36 2.68,1.85 4.58,-1.10 1.12,0.75 2.82,0.45 3.09,-0.38 0.27,-0.82 0.58,-1.64 0.58,-2.20 0.00,-0.56 -0.05,-1.30 -0.05,-1.30 -0.04,-0.44 -0.19,-1.07 -0.44,-0.40 z M 296.63,12.30 c 0.25,-0.16 13.84,-8.02 14.32,-8.31 0.46,-0.29 0.72,-0.41 0.91,-0.85 0.18,-0.44 0.23,-0.51 0.33,-0.82 0.11,-0.32 0.21,-0.67 -0.61,-0.19 -0.53,0.31 -14.04,8.11 -14.59,8.46 -0.55,0.35 -0.74,0.44 -0.83,0.86 -0.09,0.42 -0.13,0.67 -0.16,0.73 -0.10,0.28 -0.17,0.63 0.64,0.10 z M 346.01,24.89 c -0.25,-0.28 -0.37,-0.01 -0.46,0.31 -0.09,0.32 -0.36,1.52 -0.54,2.27 0.00,0.00 0.71,1.16 0.97,1.75 0.25,0.59 -0.12,0.92 -0.86,1.01 -2.08,0.25 -3.73,-0.94 -4.30,-1.48 -0.57,-0.55 0.05,-1.52 0.51,-2.68 0.37,-0.93 -0.32,-1.04 -0.84,0.00 -1.76,4.63 -4.23,5.12 -4.88,5.30 -5.86,1.60 -5.36,-3.76 -5.34,-4.64 0.02,-0.88 -0.62,-0.55 -1.34,0.03 -2.47,1.98 -4.45,3.14 -5.52,3.62 -0.92,-1.80 -2.26,-2.93 -2.82,-3.34 -6.34,-4.63 -6.87,4.71 -6.67,5.71 0.97,3.97 7.45,1.56 8.46,1.44 1.02,-0.12 0.68,1.22 0.11,2.02 -1.41,1.97 -3.03,3.38 -4.50,4.58 -6.28,5.13 -9.44,4.72 -10.41,4.69 -6.17,-0.17 -5.60,-6.82 -5.26,-8.24 1.86,-1.57 3.45,-3.28 4.38,-5.04 0.38,-0.96 1.03,-3.16 -0.15,-5.91 -0.62,-1.21 -2.56,-4.60 -2.56,-4.60 0.00,0.00 1.43,0.04 1.57,0.04 0.14,0.00 0.41,-0.14 0.06,-0.55 -0.35,-0.40 -3.36,-3.40 -3.54,-3.65 -0.18,-0.24 -0.35,-0.41 -0.45,-0.06 -0.10,0.36 -0.36,1.88 -0.42,2.20 -0.06,0.31 -0.06,0.63 0.10,0.90 0.15,0.27 0.55,1.20 0.84,1.96 0.29,0.76 3.26,6.47 3.53,6.98 0.27,0.51 0.33,0.88 0.06,1.22 -9.53,10.05 -27.91,16.23 -28.50,16.58 -0.59,0.34 -0.43,0.61 0.56,0.43 1.48,-0.26 9.74,-1.64 12.09,-2.77 1.55,-0.75 6.97,-3.41 11.41,-6.89 -0.12,0.90 -0.24,2.22 -0.17,3.89 0.30,8.08 7.53,6.74 9.43,6.33 5.68,-1.25 12.64,-9.11 13.23,-10.69 0.58,-1.56 0.67,-2.98 0.54,-4.22 1.50,-0.81 4.71,-3.40 4.71,-3.40 0.13,3.45 2.88,4.48 3.72,4.63 3.96,0.60 5.94,-2.71 6.78,-3.78 0.72,1.89 2.45,2.25 3.34,2.43 3.41,0.68 4.08,-1.74 4.26,-2.29 1.07,-3.33 -0.86,-5.81 -1.11,-6.08 z M 317.38,31.57 c -2.02,-0.14 -1.85,-0.92 -1.57,-1.23 0.30,-0.33 2.78,-1.89 4.85,0.89 0.00,0.00 -0.86,0.50 -3.28,0.34 z M 279.95,13.78 c 0.17,-0.04 3.05,-0.49 6.41,-3.05 1.82,-1.38 2.92,-3.74 2.92,-3.74 0.00,0.00 0.91,0.76 1.03,0.91 0.28,0.34 0.43,0.60 0.56,0.23 0.48,-1.33 -0.20,-2.13 -0.84,-2.54 0.00,0.00 0.67,-2.07 -0.56,-4.14 -0.21,-0.35 -1.43,-1.46 -2.85,0.74 -0.55,0.84 -0.96,2.85 -0.17,3.42 0.79,0.58 1.94,1.04 1.94,1.04 -3.66,4.48 -6.16,5.34 -8.30,6.59 -0.55,0.32 -0.44,0.61 -0.12,0.53 z M 287.67,4.39 c -0.47,-0.20 -0.72,-0.50 -0.50,-0.80 0.73,-1.02 1.08,-0.98 1.36,-0.82 0.82,0.77 0.70,2.03 0.67,2.31 0.00,0.00 -1.05,-0.49 -1.52,-0.70 z M 287.53,14.16 c -0.06,-0.05 -0.15,-0.03 -0.20,0.04 -1.53,2.10 -1.53,2.10 -1.53,2.10 -0.05,0.07 -0.04,0.16 0.03,0.21 2.61,1.91 2.61,1.91 2.61,1.91 0.06,0.05 0.15,0.03 0.20,-0.04 1.32,-1.81 1.32,-1.81 1.32,-1.81 2.54,1.85 2.54,1.85 2.54,1.85 0.06,0.05 0.15,0.03 0.20,-0.04 1.53,-2.10 1.53,-2.10 1.53,-2.10 0.05,-0.07 0.04,-0.16 -0.03,-0.20 -2.61,-1.91 -2.61,-1.91 -2.61,-1.91 -0.06,-0.05 -0.15,-0.03 -0.20,0.04 -1.32,1.81 -1.32,1.81 -1.32,1.81 z" />
     </g>
</svg>
