<?xml version="1.0" encoding="UTF-8"?>
<svg version="1.1" id="Layer_1" x="0px" y="0px" width="578" height="54" viewBox="0 0 578 54"
xml:space="preserve" xmlns="http://www.w3.org/2000/svg" xmlns:svg="http://www.w3.org/2000/svg" xmlns:rdf="http://www.w3.org/1999/02/22-rdf-syntax-ns#"  xmlns:cc="http://creativecommons.org/ns#" xmlns:dc="http://purl.org/dc/elements/1.1/">
     <g>
<path d="M 282.51,12.48 c -1.92,2.63 -1.92,2.63 -1.92,2.63 -0.06,0.08 -0.05,0.20 0.03,0.25 3.27,2.38 3.27,2.38 3.27,2.38 0.08,0.06 0.19,0.04 0.25,-0.05 1.91,-2.63 1.91,-2.63 1.91,-2.63 0.06,-0.08 0.05,-0.20 -0.03,-0.26 -3.27,-2.38 -3.27,-2.38 -3.27,-2.38 -0.08,-0.06 -0.19,-0.04 -0.25,0.05 z M 307.07,46.17 c 0.21,-0.44 1.67,-3.46 -0.06,-14.54 -0.13,-0.92 -2.76,-19.64 -2.76,-19.64 0.00,0.00 1.55,1.46 1.80,1.72 0.25,0.26 0.55,0.12 0.41,-0.30 -0.14,-0.42 -3.32,-8.09 -3.42,-8.36 -0.10,-0.27 -0.20,-0.46 -0.33,-0.15 -0.13,0.31 -0.88,2.38 -0.88,2.38 0.20,1.35 1.99,15.82 2.10,16.81 0.12,0.99 2.63,17.36 2.76,21.89 -0.04,0.46 0.17,0.64 0.38,0.19 z M 277.03,40.91 c -0.04,0.46 0.17,0.64 0.38,0.19 0.21,-0.44 1.67,-3.46 -0.06,-14.54 -0.13,-0.92 -2.26,-14.31 -2.26,-14.31 0.00,0.00 1.55,1.46 1.80,1.72 0.25,0.26 0.55,0.12 0.41,-0.30 -0.14,-0.42 -3.31,-8.10 -3.42,-8.36 -0.10,-0.27 -0.20,-0.46 -0.33,-0.15 -0.13,0.31 -0.88,2.38 -0.88,2.38 0.20,1.35 1.49,10.49 1.61,11.48 0.12,0.99 2.63,17.36 2.76,21.89 z M 295.99,12.19 c 0.00,0.00 1.20,0.84 1.45,1.10 0.25,0.26 0.55,0.12 0.41,-0.30 -0.14,-0.42 -3.08,-7.68 -3.19,-7.95 -0.10,-0.27 -0.21,-0.46 -0.33,-0.15 -0.13,0.31 -1.15,2.55 -1.15,2.55 0.03,0.18 0.27,0.73 0.43,1.87 0.17,1.18 0.42,2.86 0.69,4.72 0.00,0.00 4.26,27.14 3.88,27.72 -0.48,0.76 -3.98,3.04 -6.30,1.76 -1.91,-1.05 -2.30,-2.47 -2.54,-3.76 -0.24,-1.29 -1.46,-14.57 -5.86,-20.23 -0.30,-0.44 -0.54,0.04 -0.63,0.28 -0.09,0.25 -0.53,1.61 0.09,3.04 0.62,1.43 3.92,9.72 4.05,13.82 0.09,0.90 0.35,1.47 -0.59,2.51 -0.95,1.03 -6.29,5.61 -9.68,6.86 -0.97,0.35 -5.94,2.70 -6.40,-1.58 -0.11,-1.06 -0.07,-2.02 -0.07,-3.04 0.00,-0.23 -0.05,-0.44 -0.13,-0.62 1.03,-0.97 1.89,-1.97 2.49,-3.00 0.38,-0.88 1.03,-2.88 -0.15,-5.39 -0.62,-1.10 -2.56,-4.20 -2.56,-4.20 0.00,0.00 1.43,0.04 1.57,0.04 0.14,0.00 0.41,-0.13 0.06,-0.50 -0.35,-0.37 -3.36,-3.11 -3.54,-3.33 -0.18,-0.22 -0.35,-0.38 -0.45,-0.05 -0.10,0.32 -0.36,1.72 -0.42,2.01 -0.06,0.29 -0.06,0.57 0.10,0.82 0.15,0.25 0.55,1.09 0.84,1.78 0.29,0.69 3.26,5.91 3.53,6.37 0.27,0.46 0.33,0.81 0.06,1.11 -9.53,9.17 -27.91,14.81 -28.50,15.12 -0.59,0.31 -0.43,0.55 0.56,0.40 1.48,-0.24 9.74,-1.50 12.09,-2.53 1.79,-0.79 8.73,-3.90 13.37,-7.80 -0.07,2.03 -0.81,7.46 3.54,8.13 0.70,0.11 4.03,0.22 9.68,-4.20 1.05,-0.82 4.25,-3.61 4.69,-4.82 0.11,-0.62 0.55,-1.45 0.55,-1.45 0.00,0.00 0.97,5.89 3.37,7.04 2.38,1.14 4.57,0.94 6.82,-1.19 0.85,-0.80 2.15,-2.27 1.85,-5.96 -0.09,-1.12 -3.65,-26.99 -3.65,-26.99 z M 285.55,6.76 c -0.07,-0.63 -0.22,-0.88 -0.46,-0.32 -0.24,0.56 -0.30,0.73 -0.28,0.98 0.02,0.25 0.14,1.05 0.06,1.25 -0.08,0.21 -1.20,0.90 -1.65,0.40 -0.15,-0.20 -0.06,-0.96 -0.08,-1.34 -0.01,-0.37 -0.06,-0.80 -0.35,-0.27 -0.28,0.52 -0.24,0.70 -0.23,1.04 0.01,0.34 0.12,0.77 -0.16,1.08 -0.29,0.31 -1.58,1.18 -2.17,0.12 -0.09,-0.22 -0.03,-0.59 0.01,-0.88 0.04,-0.29 -0.22,-0.60 -0.37,-0.15 -0.14,0.45 -0.41,1.31 -0.23,1.92 0.18,0.61 1.29,1.93 3.03,-0.15 0.43,0.22 1.78,0.72 2.70,-1.38 0.34,-1.00 0.18,-2.30 0.18,-2.30 z M 243.87,49.72 c 1.53,-2.10 1.53,-2.10 1.53,-2.10 0.05,-0.07 0.04,-0.16 -0.03,-0.20 -2.61,-1.91 -2.61,-1.91 -2.61,-1.91 -0.06,-0.05 -0.15,-0.03 -0.20,0.04 -1.32,1.81 -1.32,1.81 -1.32,1.81 -2.54,-1.85 -2.54,-1.85 -2.54,-1.85 -0.06,-0.05 -0.15,-0.03 -0.20,0.04 -1.53,2.10 -1.53,2.10 -1.53,2.10 -0.05,0.07 -0.04,0.16 0.03,0.21 2.61,1.91 2.61,1.91 2.61,1.91 0.06,0.05 0.15,0.03 0.20,-0.04 1.32,-1.81 1.32,-1.81 1.32,-1.81 2.54,1.85 2.54,1.85 2.54,1.85 0.06,0.05 0.15,0.03 0.20,-0.04 z M 219.56,28.98 c -1.32,1.81 -1.32,1.81 -1.32,1.81 -2.54,-1.85 -2.54,-1.85 -2.54,-1.85 -0.06,-0.05 -0.15,-0.03 -0.20,0.04 -1.53,2.10 -1.53,2.10 -1.53,2.10 -0.05,0.07 -0.04,0.16 0.03,0.20 2.61,1.91 2.61,1.91 2.61,1.91 0.06,0.05 0.15,0.03 0.20,-0.04 1.32,-1.81 1.32,-1.81 1.32,-1.81 2.54,1.85 2.54,1.85 2.54,1.85 0.06,0.05 0.15,0.03 0.20,-0.04 1.53,-2.10 1.53,-2.10 1.53,-2.10 0.05,-0.07 0.04,-0.16 -0.03,-0.20 -2.62,-1.91 -2.62,-1.91 -2.62,-1.91 -0.06,-0.05 -0.15,-0.03 -0.20,0.04 z M 241.06,9.40 c 0.16,0.08 0.32,0.08 0.34,-0.12 0.03,-0.20 0.19,-0.68 0.50,-0.37 0.26,0.25 1.93,1.57 2.99,4.57 0.17,0.39 0.51,0.41 0.54,-0.17 0.07,-1.43 -0.03,-3.89 0.01,-4.64 0.06,-1.06 0.33,-3.25 1.60,-2.22 0.29,0.23 0.60,0.55 0.60,0.55 0.28,0.33 0.63,0.71 0.75,0.29 0.18,-0.64 0.29,-1.67 -0.01,-2.21 -0.13,-0.24 -1.76,-2.20 -2.65,-0.70 -1.09,1.86 -0.98,4.18 -0.94,6.77 -0.22,-0.53 -1.48,-3.91 -4.79,-5.64 -0.24,-0.13 -0.68,0.19 -0.66,1.00 0.01,0.48 -0.02,1.64 0.31,1.94 0.32,0.30 1.26,0.88 1.41,0.95 z M 212.73,11.12 c 0.14,0.08 0.30,0.09 0.34,-0.08 0.04,-0.17 0.24,-0.57 0.52,-0.28 0.23,0.24 1.75,1.49 2.53,4.14 0.14,0.35 0.46,0.39 0.54,-0.11 0.18,-1.23 0.28,-3.35 0.38,-4.00 0.14,-0.91 0.57,-2.78 1.72,-1.81 0.26,0.22 0.54,0.51 0.54,0.51 0.24,0.31 0.55,0.66 0.70,0.30 0.23,-0.54 0.41,-1.42 0.16,-1.90 -0.11,-0.21 -1.53,-2.02 -2.50,-0.78 -1.20,1.53 -1.28,3.53 -1.44,5.77 -0.17,-0.47 -1.13,-3.47 -4.20,-5.19 -0.22,-0.12 -0.68,0.11 -0.72,0.82 -0.03,0.41 -0.14,1.41 0.15,1.70 0.29,0.28 1.15,0.84 1.29,0.92 z M 227.54,45.38 c -0.61,0.28 -12.22,5.85 -12.84,6.15 -0.59,0.28 -0.74,0.44 -0.83,0.87 -0.09,0.42 -0.13,0.67 -0.16,0.73 -0.10,0.28 -0.17,0.53 0.64,0.10 0.27,-0.14 12.08,-5.74 12.57,-6.00 0.48,-0.25 0.72,-0.41 0.91,-0.85 0.18,-0.44 0.23,-0.51 0.33,-0.82 0.10,-0.32 0.25,-0.58 -0.61,-0.19 z M 266.78,48.02 c -0.55,0.28 -6.95,2.70 -7.52,3.02 -0.57,0.32 -0.77,0.40 -0.88,0.81 -0.11,0.42 -0.17,0.66 -0.20,0.72 -0.12,0.28 -0.21,0.62 0.63,0.15 0.26,-0.15 6.77,-2.62 7.24,-2.89 0.47,-0.27 0.75,-0.36 0.96,-0.79 0.21,-0.43 0.26,-0.50 0.38,-0.80 0.12,-0.32 0.25,-0.65 -0.60,-0.23 z M 277.76,5.92 c 0.26,-0.15 8.97,-3.42 9.44,-3.69 0.47,-0.27 0.75,-0.36 0.96,-0.79 0.21,-0.43 0.26,-0.50 0.38,-0.80 0.12,-0.32 0.25,-0.65 -0.60,-0.22 -0.55,0.28 -9.15,3.50 -9.72,3.82 -0.57,0.32 -0.77,0.39 -0.88,0.81 -0.11,0.42 -0.17,0.66 -0.20,0.72 -0.12,0.28 -0.21,0.62 0.63,0.14 z M 239.63,21.08 c -0.10,0.47 -0.15,0.73 -0.18,0.83 -0.09,0.32 -0.22,0.65 0.72,0.12 0.29,-0.17 22.64,-12.29 23.15,-12.62 0.51,-0.33 0.81,-0.46 1.02,-0.95 0.21,-0.49 0.26,-0.58 0.37,-0.92 0.12,-0.36 0.26,-0.70 -0.69,-0.21 -0.63,0.33 -22.80,12.44 -23.45,12.79 -0.64,0.35 -0.83,0.50 -0.93,0.97 z M 267.88,14.74 c 0.50,0.00 1.14,-0.36 1.60,-1.93 0.08,-0.35 0.13,-0.64 0.16,-0.77 0.05,-0.21 -0.11,-0.46 -0.27,0.02 -0.36,0.96 -1.31,1.63 -2.02,0.34 -0.11,-0.25 -0.59,-1.42 0.28,-3.96 0.18,-0.49 0.40,-1.23 0.40,-1.23 0.20,-0.56 -0.04,-0.86 -0.32,-0.18 -0.28,0.68 -1.44,3.03 -1.26,5.79 0.04,0.64 0.47,1.88 1.43,1.92 z M 246.30,26.59 c 0.20,-0.56 -0.04,-0.86 -0.32,-0.18 -0.28,0.68 -1.44,3.02 -1.26,5.79 0.04,0.64 0.47,1.88 1.43,1.92 0.50,0.00 1.14,-0.36 1.60,-1.93 0.08,-0.35 0.13,-0.64 0.16,-0.77 0.05,-0.21 -0.11,-0.46 -0.27,0.02 -0.36,0.96 -1.31,1.63 -2.02,0.34 -0.11,-0.26 -0.59,-1.42 0.28,-3.96 0.18,-0.49 0.40,-1.23 0.40,-1.23 z M 259.09,18.76 c 0.15,-0.75 -0.19,-1.11 -0.42,-0.18 -0.23,0.92 -1.27,4.15 -0.59,7.70 0.16,0.82 0.88,2.37 2.07,2.26 0.61,-0.08 1.34,-0.65 1.64,-2.75 0.04,-0.47 0.05,-0.84 0.07,-1.03 0.02,-0.28 -0.21,-0.58 -0.33,0.07 -0.29,1.30 -1.34,2.31 -2.42,0.76 -0.18,-0.31 -0.96,-1.75 -0.31,-5.18 0.14,-0.67 0.29,-1.66 0.29,-1.66 z M 217.59,17.92 c 0.16,-0.57 -0.09,-0.86 -0.32,-0.16 -0.23,0.70 -1.24,3.11 -0.91,5.86 0.08,0.64 0.56,1.86 1.50,1.84 0.48,-0.03 1.09,-0.43 1.45,-2.01 0.06,-0.36 0.09,-0.64 0.11,-0.79 0.04,-0.21 -0.13,-0.46 -0.26,0.04 -0.30,0.98 -1.18,1.70 -1.95,0.45 -0.13,-0.25 -0.66,-1.38 0.05,-3.98 0.14,-0.50 0.32,-1.25 0.32,-1.25 z M 205.06,29.24 c 0.76,0.00 1.75,-0.65 2.44,-3.41 0.12,-0.62 0.19,-1.13 0.24,-1.37 0.07,-0.37 -0.17,-0.82 -0.41,0.04 -0.55,1.69 -2.00,2.88 -3.09,0.62 -0.18,-0.45 -0.92,-2.50 0.41,-7.00 0.27,-0.87 0.61,-2.17 0.61,-2.17 0.30,-0.98 -0.07,-1.52 -0.49,-0.32 -0.42,1.20 -2.19,5.35 -1.90,10.23 0.07,1.13 0.73,3.32 2.20,3.38 z M 229.03,25.11 c 0.64,0.00 1.47,-0.54 2.05,-2.87 0.10,-0.52 0.16,-0.95 0.20,-1.15 0.06,-0.31 -0.14,-0.69 -0.35,0.03 -0.46,1.42 -1.68,2.42 -2.60,0.52 -0.15,-0.38 -0.77,-2.10 0.35,-5.89 0.23,-0.73 0.51,-1.83 0.51,-1.83 0.25,-0.83 -0.06,-1.28 -0.41,-0.27 -0.36,1.01 -1.84,4.50 -1.60,8.61 0.06,0.95 0.61,2.80 1.85,2.84 z M 347.66,9.44 c 0.17,0.09 0.36,0.11 0.41,-0.10 0.05,-0.21 0.29,-0.68 0.62,-0.34 0.28,0.28 2.09,1.78 3.03,4.95 0.16,0.42 0.55,0.46 0.64,-0.14 0.22,-1.47 0.34,-4.02 0.45,-4.79 0.16,-1.08 0.68,-3.32 2.06,-2.16 0.31,0.26 0.64,0.61 0.64,0.61 0.29,0.37 0.66,0.79 0.84,0.36 0.27,-0.64 0.49,-1.70 0.19,-2.28 -0.13,-0.25 -1.84,-2.41 -3.00,-0.93 -1.44,1.83 -1.53,4.23 -1.72,6.91 -0.20,-0.56 -1.35,-4.16 -5.02,-6.21 -0.27,-0.15 -0.81,0.13 -0.86,0.98 -0.03,0.49 -0.17,1.69 0.18,2.03 0.35,0.34 1.37,1.00 1.54,1.10 z M 342.15,22.69 c 0.48,0.00 1.11,-0.35 1.55,-1.87 0.08,-0.34 0.13,-0.62 0.16,-0.75 0.05,-0.21 -0.10,-0.45 -0.26,0.02 -0.35,0.93 -1.27,1.58 -1.96,0.33 -0.11,-0.25 -0.58,-1.38 0.28,-3.86 0.17,-0.48 0.39,-1.20 0.39,-1.20 0.19,-0.54 -0.04,-0.84 -0.31,-0.17 -0.27,0.66 -1.40,2.94 -1.23,5.63 0.04,0.62 0.45,1.83 1.39,1.87 z M 368.26,16.71 c 0.18,-0.50 -0.04,-0.77 -0.29,-0.16 -0.25,0.61 -1.30,2.73 -1.14,5.22 0.04,0.58 0.42,1.70 1.29,1.73 0.45,0.00 1.03,-0.33 1.44,-1.73 0.07,-0.32 0.12,-0.57 0.15,-0.70 0.04,-0.19 -0.10,-0.42 -0.24,0.02 -0.33,0.86 -1.18,1.47 -1.82,0.31 -0.10,-0.23 -0.53,-1.28 0.26,-3.57 0.16,-0.44 0.36,-1.11 0.36,-1.11 z M 365.50,8.78 c 0.79,0.58 1.93,1.04 1.93,1.04 -3.66,4.49 -10.84,7.67 -12.55,9.01 -0.51,0.39 -0.44,0.61 -0.12,0.53 0.29,-0.08 5.76,-1.61 10.76,-5.90 2.29,-1.97 2.23,-2.11 2.82,-3.31 0.50,0.26 0.84,0.67 1.03,0.91 0.28,0.34 0.43,0.60 0.56,0.23 0.48,-1.33 -0.20,-2.13 -0.84,-2.54 0.00,0.00 0.67,-2.07 -0.56,-4.14 -0.21,-0.35 -1.43,-1.46 -2.85,0.74 -0.55,0.84 -0.96,2.85 -0.17,3.42 z M 366.23,6.75 c 0.73,-1.02 1.08,-0.99 1.36,-0.82 0.82,0.77 0.70,2.02 0.67,2.31 0.00,0.00 -1.05,-0.49 -1.52,-0.69 -0.47,-0.20 -0.72,-0.50 -0.50,-0.80 z M 324.46,14.71 c 0.25,-0.16 13.84,-8.02 14.32,-8.32 0.46,-0.29 0.72,-0.41 0.91,-0.85 0.18,-0.44 0.23,-0.51 0.33,-0.82 0.10,-0.32 0.21,-0.67 -0.61,-0.19 -0.53,0.31 -14.04,8.11 -14.59,8.46 -0.55,0.35 -0.74,0.44 -0.83,0.87 -0.09,0.42 -0.13,0.67 -0.16,0.73 -0.10,0.28 -0.17,0.63 0.64,0.11 z M 315.36,16.58 c -0.06,-0.05 -0.15,-0.03 -0.20,0.04 -1.53,2.10 -1.53,2.10 -1.53,2.10 -0.05,0.07 -0.04,0.16 0.03,0.20 2.61,1.91 2.61,1.91 2.61,1.91 0.06,0.05 0.15,0.03 0.20,-0.04 1.32,-1.81 1.32,-1.81 1.32,-1.81 2.54,1.85 2.54,1.85 2.54,1.85 0.06,0.05 0.15,0.03 0.20,-0.04 1.53,-2.10 1.53,-2.10 1.53,-2.10 0.05,-0.07 0.04,-0.16 -0.03,-0.20 -2.61,-1.91 -2.61,-1.91 -2.61,-1.91 -0.06,-0.05 -0.15,-0.03 -0.20,0.04 -1.32,1.81 -1.32,1.81 -1.32,1.81 z M 307.78,16.19 c 0.17,-0.04 3.05,-0.49 6.41,-3.05 1.82,-1.38 2.92,-3.74 2.92,-3.74 0.00,0.00 0.91,0.76 1.03,0.91 0.28,0.34 0.43,0.60 0.56,0.23 0.48,-1.33 -0.20,-2.13 -0.84,-2.54 0.00,0.00 0.67,-2.07 -0.56,-4.14 -0.21,-0.35 -1.43,-1.46 -2.85,0.74 -0.55,0.84 -0.96,2.85 -0.17,3.42 0.79,0.58 1.93,1.04 1.93,1.04 -3.66,4.48 -6.16,5.34 -8.30,6.60 -0.55,0.32 -0.44,0.61 -0.12,0.52 z M 315.49,6.80 c -0.47,-0.20 -0.72,-0.50 -0.50,-0.80 0.73,-1.02 1.08,-0.99 1.36,-0.82 0.82,0.77 0.70,2.03 0.67,2.31 0.00,0.00 -1.05,-0.49 -1.52,-0.69 z M 373.84,27.31 c -0.25,-0.28 -0.37,-0.01 -0.46,0.31 -0.09,0.32 -0.36,1.52 -0.53,2.27 0.00,0.00 0.71,1.16 0.97,1.75 0.25,0.59 -0.12,0.92 -0.86,1.01 -2.08,0.25 -3.73,-0.94 -4.30,-1.48 -0.57,-0.55 0.05,-1.52 0.51,-2.68 0.37,-0.93 -0.32,-1.04 -0.84,0.00 -1.76,4.63 -4.23,5.13 -4.88,5.30 -5.86,1.60 -5.36,-3.76 -5.34,-4.64 0.02,-0.88 -0.62,-0.55 -1.34,0.03 -2.47,1.98 -4.45,3.14 -5.52,3.62 -0.92,-1.80 -2.26,-2.93 -2.82,-3.34 -6.34,-4.63 -6.86,4.71 -6.67,5.71 0.97,3.97 7.44,1.56 8.46,1.44 1.02,-0.12 0.68,1.22 0.11,2.02 -1.41,1.97 -3.03,3.38 -4.50,4.58 -6.28,5.13 -9.44,4.72 -10.41,4.69 -6.17,-0.17 -5.60,-6.82 -5.26,-8.24 1.86,-1.57 3.45,-3.28 4.38,-5.04 0.38,-0.96 1.03,-3.16 -0.15,-5.90 -0.62,-1.21 -2.56,-4.60 -2.56,-4.60 0.00,0.00 1.43,0.04 1.57,0.04 0.14,0.00 0.41,-0.14 0.06,-0.54 -0.35,-0.40 -3.36,-3.41 -3.54,-3.65 -0.18,-0.24 -0.35,-0.42 -0.45,-0.06 -0.10,0.35 -0.36,1.88 -0.42,2.20 -0.06,0.31 -0.06,0.63 0.10,0.90 0.15,0.27 0.55,1.20 0.84,1.96 0.29,0.76 3.26,6.47 3.53,6.98 0.27,0.51 0.33,0.88 0.06,1.22 -9.53,10.05 -27.91,16.23 -28.50,16.57 -0.59,0.34 -0.43,0.61 0.56,0.43 1.48,-0.26 9.74,-1.64 12.09,-2.77 1.55,-0.75 6.98,-3.41 11.41,-6.89 -0.12,0.90 -0.24,2.22 -0.18,3.89 0.30,8.08 7.53,6.74 9.43,6.33 5.68,-1.25 12.64,-9.11 13.23,-10.69 0.58,-1.56 0.67,-2.98 0.54,-4.22 1.50,-0.81 4.71,-3.40 4.71,-3.40 0.13,3.45 2.88,4.48 3.72,4.63 3.96,0.60 5.94,-2.71 6.78,-3.78 0.72,1.89 2.45,2.25 3.34,2.43 3.41,0.68 4.08,-1.74 4.26,-2.29 1.07,-3.33 -0.86,-5.81 -1.11,-6.08 z M 345.21,33.98 c -2.03,-0.14 -1.85,-0.92 -1.57,-1.23 0.30,-0.33 2.78,-1.89 4.85,0.89 0.00,0.00 -0.86,0.50 -3.28,0.33 z M 370.64,39.62 c -0.24,0.68 -0.34,1.12 -0.31,1.38 0.03,0.26 0.11,1.10 0.11,1.10 -0.25,0.20 -1.33,0.87 -2.40,0.08 0.07,-0.23 0.21,-0.70 0.24,-0.95 0.12,-0.40 -0.13,-0.69 -0.32,-0.28 -0.20,0.41 -0.65,1.79 -0.99,2.10 -0.34,0.31 -0.73,1.45 -3.30,0.29 -0.45,-0.17 -1.23,-0.75 -2.46,0.48 -2.77,2.57 -4.68,2.77 -7.79,3.88 -0.38,0.17 -1.16,0.77 -0.23,0.67 0.94,-0.09 4.87,0.00 7.01,-2.46 0.45,-0.44 0.96,-1.58 2.66,-0.92 0.94,0.36 2.68,1.85 4.58,-1.10 1.12,0.75 2.82,0.45 3.09,-0.38 0.27,-0.82 0.58,-1.64 0.58,-2.20 0.00,-0.56 -0.05,-1.30 -0.05,-1.30 -0.04,-0.44 -0.19,-1.07 -0.44,-0.40 z M 314.74,26.32 c 0.00,0.00 1.25,-0.31 1.47,-0.38 0.22,-0.06 0.34,-0.35 -0.05,-0.55 -0.39,-0.20 -4.09,-1.67 -4.37,-1.79 -0.28,-0.11 -0.38,-0.24 -0.41,0.06 -0.02,0.30 -0.07,2.73 -0.07,2.73 0.00,0.00 -0.06,0.17 0.27,0.35 0.32,0.18 0.64,0.58 0.90,0.84 0.26,0.27 3.70,2.98 3.87,3.07 0.00,0.00 -1.72,3.02 -1.94,5.38 -0.22,2.36 0.04,5.63 3.27,4.57 0.87,-0.25 4.49,-1.69 5.30,-4.21 0.26,-0.93 1.01,-2.61 -0.21,-4.31 -0.70,-1.00 -3.53,-2.69 -3.53,-2.69 0.00,0.00 2.17,-3.00 2.38,-3.37 0.21,-0.37 1.00,-2.69 1.09,-3.26 0.09,-0.56 0.13,-0.84 -0.29,-0.32 -0.42,0.52 -4.63,6.05 -4.63,6.05 z M 321.69,35.21 c -1.20,0.99 -3.72,2.29 -4.43,2.36 -0.71,0.07 -2.59,-0.28 -1.77,-2.20 0.28,-0.62 2.16,-3.84 2.16,-3.84 0.70,0.39 5.24,2.70 4.04,3.69 z M 229.44,30.23 c -0.32,-0.46 -0.56,-0.52 -0.70,-0.04 -0.14,0.48 -0.65,2.91 -0.65,2.91 0.52,0.66 2.83,3.47 2.23,4.06 -0.60,0.58 -6.01,5.01 -18.73,5.77 -1.43,0.09 -8.04,-0.07 -7.71,-5.18 0.05,-0.77 0.60,-3.22 1.44,-4.60 0.23,-0.53 -0.34,-0.86 -0.68,-0.27 -0.34,0.59 -4.60,7.08 -0.36,11.49 0.36,0.40 3.83,3.87 17.08,0.08 3.14,-0.86 7.69,-2.68 9.67,-5.33 0.35,-0.47 1.58,-2.89 0.68,-5.21 -0.36,-0.91 -1.94,-3.23 -2.26,-3.70 z M 238.33,42.49 c 4.85,4.16 17.00,0.86 18.41,-2.81 0.23,-0.60 1.45,-5.61 -2.91,-8.77 -0.34,-0.28 -0.47,-0.19 -0.56,0.30 -0.09,0.49 -0.27,2.33 -0.27,2.33 0.30,0.34 2.32,2.54 2.58,3.21 0.26,0.67 0.67,1.34 -0.98,2.21 -1.65,0.88 -9.52,4.11 -14.12,1.32 -0.82,-0.54 -3.23,-1.45 -3.73,-9.31 -0.17,-1.98 -1.42,-19.21 -2.84,-23.93 -0.30,-0.89 -0.50,-0.77 -0.66,-0.41 -0.16,0.36 -0.89,1.83 -0.68,2.92 0.21,1.10 2.06,11.71 2.30,17.68 0.30,3.83 0.33,12.51 3.46,15.25 z" />
     </g>
</svg>
