<?xml version="1.0" encoding="UTF-8"?>
<svg version="1.1" id="Layer_1" x="0px" y="0px" width="578" height="52" viewBox="0 0 578 52"
xml:space="preserve" xmlns="http://www.w3.org/2000/svg" xmlns:svg="http://www.w3.org/2000/svg" xmlns:rdf="http://www.w3.org/1999/02/22-rdf-syntax-ns#"  xmlns:cc="http://creativecommons.org/ns#" xmlns:dc="http://purl.org/dc/elements/1.1/">
     <g>
<path d="M 293.39,42.40 c 0.21,-0.44 1.67,-3.46 -0.06,-14.54 -0.13,-0.92 -2.76,-19.64 -2.76,-19.64 0.00,0.00 1.55,1.46 1.80,1.72 0.25,0.26 0.55,0.12 0.41,-0.30 -0.14,-0.42 -3.32,-8.10 -3.42,-8.36 -0.10,-0.27 -0.20,-0.46 -0.33,-0.15 -0.13,0.31 -0.88,2.38 -0.88,2.38 0.20,1.35 1.99,15.83 2.10,16.81 0.12,0.99 2.63,17.36 2.76,21.89 -0.04,0.46 0.17,0.64 0.38,0.19 z M 228.13,12.77 c 0.66,-0.37 4.49,-1.85 5.12,-5.65 0.05,-0.50 -0.05,-0.87 -0.17,-1.12 0.05,0.01 0.11,0.05 0.17,0.11 0.27,0.27 1.99,1.69 2.88,4.71 0.16,0.40 0.53,0.44 0.61,-0.13 0.21,-1.40 0.32,-3.82 0.43,-4.56 0.16,-1.03 0.65,-3.16 1.96,-2.06 0.30,0.25 0.61,0.58 0.61,0.58 0.28,0.35 0.63,0.75 0.80,0.35 0.26,-0.61 0.46,-1.62 0.18,-2.17 -0.12,-0.24 -1.75,-2.29 -2.85,-0.89 -1.37,1.74 -1.46,4.03 -1.64,6.58 -0.19,-0.53 -1.29,-3.95 -4.78,-5.91 -0.25,-0.14 -0.77,0.13 -0.82,0.93 -0.03,0.47 -0.16,1.61 0.17,1.93 0.32,0.31 2.68,1.14 1.40,2.49 -0.57,0.61 -3.45,3.59 -4.06,4.31 -0.62,0.72 -0.68,0.85 -0.01,0.49 z M 264.77,13.61 c 0.15,-0.04 2.73,-0.96 5.47,-3.51 2.02,-1.89 2.72,-3.87 2.72,-3.87 0.00,0.00 0.78,0.70 0.88,0.84 0.23,0.31 0.36,0.54 0.48,0.23 0.47,-1.16 -0.10,-1.89 -0.66,-2.28 0.00,0.00 0.66,-1.81 -0.36,-3.68 -0.17,-0.31 -1.22,-1.34 -2.55,0.56 -0.52,0.72 -0.95,2.49 -0.27,3.02 0.68,0.54 1.68,0.99 1.68,0.99 -1.63,2.41 -5.41,5.92 -7.28,7.25 -0.46,0.33 -0.41,0.53 -0.12,0.46 z M 271.62,3.87 c -0.41,-0.19 -0.62,-0.47 -0.42,-0.72 0.68,-0.88 0.99,-0.84 1.23,-0.68 0.70,0.71 0.55,1.82 0.51,2.07 0.00,0.00 -0.91,-0.47 -1.33,-0.67 z M 276.40,14.84 c 0.11,0.21 0.14,0.46 -0.23,0.61 -0.37,0.16 -2.08,0.52 -2.39,-1.29 -0.32,-1.81 -0.34,-2.34 -0.50,-2.65 -0.16,-0.31 -0.31,-0.34 -0.43,-0.04 -0.12,0.31 -0.20,0.94 -0.21,1.04 -0.02,0.10 -0.02,0.18 0.05,0.29 0.07,0.11 0.75,2.14 0.44,2.70 -0.31,0.56 -1.83,1.56 -2.63,0.51 -0.38,-0.74 -0.15,-2.60 -0.15,-3.03 0.00,-0.44 -0.14,-0.59 -0.33,-0.23 -0.19,0.35 -0.29,0.59 -0.28,0.90 0.01,0.32 0.06,1.67 0.03,2.10 -0.03,0.43 0.00,1.81 0.82,2.21 0.82,0.39 2.01,0.03 2.91,-1.68 0.70,1.02 1.76,1.02 2.33,0.81 0.48,-0.18 1.02,-0.90 1.18,-1.91 0.16,-1.01 -0.10,-1.69 -0.42,-2.26 -0.42,-0.70 -0.70,-1.87 -0.70,-1.87 -0.15,-0.42 -0.26,-0.85 -0.45,-0.27 -0.19,0.58 -0.33,1.02 -0.08,1.68 0.25,0.66 0.93,2.16 1.04,2.37 z M 270.29,38.22 c -1.21,1.66 -1.28,3.85 -1.44,6.29 -0.17,-0.51 -1.14,-3.78 -4.22,-5.66 -0.22,-0.14 -0.68,0.12 -0.72,0.89 -0.03,0.45 -0.14,1.54 0.15,1.85 0.29,0.31 1.15,0.92 1.29,1.00 0.15,0.09 0.30,0.10 0.34,-0.09 0.04,-0.19 0.24,-0.62 0.52,-0.31 0.24,0.26 1.75,1.62 2.54,4.51 0.14,0.38 0.46,0.42 0.54,-0.12 0.18,-1.33 0.28,-3.65 0.38,-4.36 0.14,-0.99 0.57,-3.03 1.73,-1.97 0.26,0.24 0.54,0.56 0.54,0.56 0.25,0.33 0.55,0.72 0.70,0.33 0.23,-0.58 0.41,-1.55 0.16,-2.07 -0.11,-0.23 -1.54,-2.20 -2.51,-0.85 z M 231.79,42.67 c -0.55,0.28 -9.75,3.80 -10.32,4.11 -0.57,0.32 -0.77,0.40 -0.88,0.81 -0.11,0.42 -0.17,0.66 -0.20,0.72 -0.12,0.28 -0.21,0.62 0.63,0.14 0.26,-0.15 9.57,-3.72 10.04,-3.99 0.47,-0.27 0.75,-0.36 0.96,-0.79 0.21,-0.42 0.26,-0.50 0.38,-0.80 0.13,-0.32 0.25,-0.65 -0.60,-0.22 z M 252.81,17.29 c -0.27,0.67 -1.42,2.98 -1.24,5.70 0.04,0.63 0.46,1.85 1.40,1.88 0.49,0.00 1.12,-0.36 1.57,-1.89 0.08,-0.35 0.13,-0.63 0.16,-0.76 0.05,-0.21 -0.11,-0.45 -0.26,0.02 -0.36,0.94 -1.29,1.60 -1.98,0.34 -0.11,-0.25 -0.58,-1.40 0.28,-3.90 0.17,-0.49 0.39,-1.21 0.39,-1.21 0.19,-0.55 -0.04,-0.84 -0.31,-0.18 z M 286.62,41.12 c -0.36,0.94 -1.29,1.60 -1.99,0.34 -0.11,-0.25 -0.58,-1.39 0.28,-3.90 0.17,-0.48 0.39,-1.21 0.39,-1.21 0.19,-0.55 -0.04,-0.85 -0.31,-0.18 -0.27,0.67 -1.42,2.98 -1.24,5.70 0.04,0.63 0.46,1.85 1.40,1.89 0.49,0.00 1.12,-0.36 1.57,-1.90 0.08,-0.35 0.13,-0.63 0.16,-0.76 0.05,-0.21 -0.11,-0.45 -0.26,0.02 z M 230.83,15.93 c 0.25,-1.00 -0.15,-1.51 -0.51,-0.29 -0.36,1.22 -1.91,5.46 -1.36,10.32 0.13,1.12 0.90,3.28 2.38,3.26 0.76,-0.05 1.71,-0.74 2.25,-3.53 0.09,-0.63 0.13,-1.13 0.17,-1.38 0.05,-0.38 -0.21,-0.81 -0.41,0.06 -0.46,1.72 -1.84,2.98 -3.06,0.78 -0.20,-0.44 -1.05,-2.45 0.04,-7.01 0.22,-0.88 0.49,-2.20 0.49,-2.20 z M 250.29,14.85 c 0.68,0.05 1.61,-0.44 2.44,-2.86 0.15,-0.55 0.26,-0.99 0.32,-1.20 0.09,-0.33 -0.09,-0.74 -0.37,0.00 -0.62,1.47 -2.01,2.42 -2.81,0.31 -0.12,-0.41 -0.63,-2.30 0.90,-6.22 0.31,-0.76 0.71,-1.90 0.71,-1.90 0.34,-0.85 0.06,-1.36 -0.41,-0.32 -0.47,1.04 -2.37,4.61 -2.48,8.99 -0.03,1.01 0.39,3.02 1.71,3.19 z M 359.63,25.39 c -0.25,-0.28 -0.37,-0.01 -0.46,0.31 -0.09,0.32 -0.36,1.52 -0.53,2.27 0.00,0.00 0.71,1.16 0.97,1.76 0.25,0.59 -0.12,0.92 -0.86,1.01 -2.08,0.25 -3.73,-0.94 -4.30,-1.48 -0.57,-0.55 0.05,-1.52 0.51,-2.68 0.37,-0.93 -0.32,-1.04 -0.84,0.00 -1.76,4.63 -4.23,5.12 -4.88,5.30 -5.86,1.60 -5.36,-3.76 -5.34,-4.64 0.02,-0.88 -0.62,-0.55 -1.34,0.03 -2.47,1.98 -4.45,3.14 -5.52,3.62 -0.92,-1.80 -2.26,-2.93 -2.82,-3.33 -6.34,-4.63 -6.86,4.71 -6.67,5.71 0.97,3.97 7.44,1.56 8.46,1.44 1.01,-0.12 0.68,1.22 0.11,2.02 -1.41,1.97 -3.03,3.38 -4.50,4.58 -6.28,5.13 -9.43,4.72 -10.41,4.69 -6.17,-0.17 -5.60,-6.82 -5.26,-8.24 1.86,-1.57 3.45,-3.28 4.38,-5.04 0.38,-0.96 1.03,-3.16 -0.15,-5.91 -0.62,-1.21 -2.56,-4.61 -2.56,-4.61 0.00,0.00 1.43,0.04 1.57,0.04 0.14,0.00 0.41,-0.14 0.06,-0.54 -0.35,-0.40 -3.36,-3.41 -3.54,-3.65 -0.18,-0.24 -0.35,-0.42 -0.45,-0.06 -0.10,0.35 -0.36,1.88 -0.42,2.20 -0.06,0.31 -0.06,0.63 0.10,0.90 0.15,0.27 0.55,1.20 0.84,1.96 0.29,0.76 3.26,6.47 3.53,6.98 0.27,0.51 0.33,0.88 0.06,1.22 -9.53,10.05 -27.91,16.23 -28.50,16.58 -0.59,0.34 -0.43,0.61 0.56,0.43 1.48,-0.26 9.74,-1.64 12.09,-2.77 1.55,-0.75 6.97,-3.41 11.41,-6.89 -0.12,0.90 -0.24,2.22 -0.18,3.89 0.30,8.08 7.53,6.74 9.43,6.33 5.68,-1.25 12.64,-9.11 13.23,-10.69 0.58,-1.56 0.67,-2.98 0.54,-4.22 1.50,-0.81 4.71,-3.40 4.71,-3.40 0.13,3.45 2.88,4.48 3.72,4.63 3.96,0.60 5.94,-2.70 6.78,-3.78 0.72,1.89 2.45,2.26 3.34,2.43 3.41,0.68 4.08,-1.73 4.26,-2.29 1.07,-3.33 -0.86,-5.81 -1.11,-6.08 z M 330.99,32.07 c -2.03,-0.14 -1.85,-0.92 -1.57,-1.22 0.30,-0.33 2.78,-1.89 4.85,0.89 0.00,0.00 -0.86,0.50 -3.28,0.33 z M 244.00,29.16 c 0.38,-0.96 1.03,-3.16 -0.15,-5.90 -0.62,-1.21 -2.56,-4.61 -2.56,-4.61 0.00,0.00 1.43,0.04 1.57,0.04 0.14,0.00 0.41,-0.14 0.06,-0.54 -0.35,-0.40 -3.36,-3.41 -3.54,-3.65 -0.18,-0.24 -0.35,-0.41 -0.45,-0.06 -0.10,0.35 -0.36,1.88 -0.42,2.20 -0.06,0.31 -0.06,0.63 0.10,0.90 0.15,0.27 0.55,1.20 0.84,1.96 0.29,0.76 3.25,6.47 3.53,6.98 0.27,0.51 0.33,0.88 0.06,1.22 -9.53,10.05 -27.60,15.03 -28.19,15.37 -0.59,0.34 -0.43,0.61 0.56,0.43 1.48,-0.26 11.31,-1.98 13.66,-3.12 2.35,-1.13 11.72,-5.12 14.94,-11.22 z M 300.52,24.41 c 0.00,0.00 1.25,-0.31 1.47,-0.38 0.22,-0.06 0.34,-0.35 -0.05,-0.55 -0.39,-0.20 -4.09,-1.67 -4.37,-1.79 -0.28,-0.11 -0.38,-0.24 -0.41,0.06 -0.02,0.30 -0.07,2.73 -0.07,2.73 0.00,0.00 -0.06,0.17 0.27,0.35 0.32,0.18 0.64,0.58 0.90,0.84 0.26,0.26 3.70,2.98 3.87,3.07 0.00,0.00 -1.72,3.02 -1.94,5.38 -0.22,2.36 0.04,5.63 3.27,4.57 0.87,-0.25 4.49,-1.69 5.30,-4.21 0.26,-0.93 1.01,-2.61 -0.21,-4.31 -0.70,-1.00 -3.53,-2.69 -3.53,-2.69 0.00,0.00 2.17,-3.00 2.38,-3.37 0.21,-0.37 1.00,-2.69 1.09,-3.26 0.09,-0.56 0.13,-0.85 -0.29,-0.32 -0.42,0.52 -4.63,6.05 -4.63,6.05 z M 307.47,33.29 c -1.20,0.99 -3.72,2.29 -4.43,2.36 -0.71,0.07 -2.59,-0.28 -1.77,-2.20 0.28,-0.62 2.16,-3.84 2.16,-3.84 0.70,0.39 5.24,2.70 4.04,3.69 z M 301.14,14.66 c -0.06,-0.05 -0.15,-0.03 -0.20,0.04 -1.53,2.10 -1.53,2.10 -1.53,2.10 -0.05,0.07 -0.04,0.16 0.03,0.20 2.61,1.91 2.61,1.91 2.61,1.91 0.06,0.05 0.15,0.03 0.20,-0.04 1.32,-1.81 1.32,-1.81 1.32,-1.81 2.54,1.85 2.54,1.85 2.54,1.85 0.06,0.05 0.15,0.03 0.20,-0.04 1.53,-2.10 1.53,-2.10 1.53,-2.10 0.05,-0.07 0.04,-0.16 -0.03,-0.20 -2.61,-1.91 -2.61,-1.91 -2.61,-1.91 -0.06,-0.05 -0.15,-0.03 -0.20,0.04 -1.32,1.81 -1.32,1.81 -1.32,1.81 z M 332.12,8.60 c 0.17,0.10 0.36,0.11 0.41,-0.10 0.05,-0.21 0.29,-0.68 0.62,-0.34 0.28,0.28 2.09,1.78 3.03,4.95 0.16,0.42 0.55,0.46 0.64,-0.14 0.22,-1.47 0.34,-4.02 0.45,-4.79 0.16,-1.09 0.68,-3.33 2.06,-2.16 0.31,0.26 0.64,0.61 0.64,0.61 0.29,0.37 0.66,0.79 0.84,0.36 0.27,-0.64 0.49,-1.70 0.19,-2.28 -0.13,-0.25 -1.84,-2.41 -3.00,-0.93 -1.44,1.83 -1.53,4.23 -1.72,6.91 -0.20,-0.56 -1.35,-4.15 -5.02,-6.21 -0.27,-0.15 -0.81,0.13 -0.86,0.98 -0.03,0.49 -0.17,1.69 0.18,2.03 0.35,0.34 1.37,1.01 1.54,1.10 z M 310.25,12.80 c 0.25,-0.16 13.84,-8.02 14.32,-8.32 0.46,-0.28 0.72,-0.41 0.91,-0.85 0.18,-0.44 0.23,-0.51 0.33,-0.82 0.10,-0.32 0.21,-0.67 -0.61,-0.19 -0.53,0.31 -14.04,8.11 -14.59,8.46 -0.55,0.35 -0.74,0.44 -0.83,0.87 -0.09,0.42 -0.13,0.67 -0.16,0.73 -0.10,0.28 -0.17,0.63 0.64,0.11 z M 354.05,14.80 c 0.18,-0.50 -0.04,-0.77 -0.29,-0.16 -0.25,0.61 -1.30,2.73 -1.14,5.22 0.04,0.58 0.42,1.70 1.29,1.73 0.45,0.00 1.03,-0.33 1.44,-1.73 0.07,-0.32 0.12,-0.57 0.15,-0.70 0.04,-0.19 -0.10,-0.42 -0.24,0.02 -0.33,0.86 -1.18,1.47 -1.82,0.31 -0.10,-0.23 -0.53,-1.28 0.26,-3.57 0.16,-0.44 0.36,-1.11 0.36,-1.11 z M 327.94,20.77 c 0.48,0.00 1.11,-0.35 1.55,-1.87 0.08,-0.34 0.13,-0.62 0.16,-0.75 0.05,-0.21 -0.10,-0.45 -0.26,0.02 -0.35,0.93 -1.27,1.58 -1.96,0.33 -0.11,-0.25 -0.58,-1.38 0.28,-3.86 0.17,-0.48 0.39,-1.20 0.39,-1.20 0.19,-0.54 -0.04,-0.84 -0.31,-0.17 -0.27,0.66 -1.40,2.94 -1.23,5.63 0.04,0.62 0.45,1.83 1.39,1.87 z M 351.29,6.87 c 0.79,0.58 1.93,1.04 1.93,1.04 -3.66,4.49 -10.84,7.67 -12.55,9.01 -0.51,0.39 -0.44,0.61 -0.12,0.52 0.29,-0.08 5.76,-1.61 10.76,-5.90 2.29,-1.96 2.23,-2.11 2.82,-3.31 0.50,0.26 0.84,0.67 1.03,0.91 0.28,0.34 0.43,0.60 0.56,0.23 0.48,-1.33 -0.20,-2.13 -0.84,-2.54 0.00,0.00 0.67,-2.07 -0.56,-4.14 -0.21,-0.35 -1.43,-1.46 -2.85,0.74 -0.55,0.84 -0.96,2.85 -0.17,3.42 z M 352.02,4.84 c 0.73,-1.02 1.08,-0.99 1.36,-0.82 0.82,0.77 0.70,2.02 0.67,2.31 0.00,0.00 -1.05,-0.49 -1.52,-0.69 -0.47,-0.20 -0.72,-0.50 -0.50,-0.80 z M 293.56,14.28 c 0.17,-0.04 3.05,-0.49 6.41,-3.05 1.82,-1.38 2.92,-3.74 2.92,-3.74 0.00,0.00 0.91,0.76 1.03,0.91 0.28,0.34 0.43,0.60 0.56,0.23 0.48,-1.33 -0.20,-2.13 -0.84,-2.54 0.00,0.00 0.67,-2.07 -0.56,-4.14 -0.21,-0.35 -1.43,-1.46 -2.85,0.74 -0.55,0.84 -0.96,2.85 -0.17,3.42 0.79,0.58 1.93,1.04 1.93,1.04 -3.66,4.48 -6.16,5.34 -8.30,6.59 -0.55,0.32 -0.44,0.61 -0.12,0.53 z M 301.28,4.88 c -0.47,-0.20 -0.72,-0.50 -0.50,-0.80 0.73,-1.02 1.08,-0.99 1.36,-0.82 0.83,0.77 0.70,2.02 0.67,2.31 0.00,0.00 -1.05,-0.49 -1.52,-0.69 z M 356.42,37.71 c -0.24,0.68 -0.34,1.12 -0.31,1.38 0.03,0.26 0.11,1.10 0.11,1.10 -0.25,0.20 -1.33,0.87 -2.40,0.08 0.07,-0.23 0.21,-0.70 0.24,-0.95 0.12,-0.40 -0.13,-0.69 -0.32,-0.28 -0.20,0.41 -0.65,1.79 -0.99,2.10 -0.34,0.31 -0.73,1.45 -3.30,0.29 -0.45,-0.17 -1.23,-0.75 -2.46,0.48 -2.77,2.57 -4.68,2.78 -7.79,3.88 -0.38,0.17 -1.16,0.77 -0.23,0.67 0.94,-0.09 4.87,0.00 7.01,-2.46 0.45,-0.44 0.96,-1.58 2.66,-0.92 0.94,0.36 2.68,1.85 4.58,-1.10 1.12,0.75 2.82,0.45 3.09,-0.38 0.27,-0.82 0.58,-1.64 0.58,-2.20 0.00,-0.56 -0.05,-1.30 -0.05,-1.30 -0.04,-0.44 -0.19,-1.07 -0.44,-0.40 z M 282.59,8.00 c 0.00,0.00 1.19,1.19 1.44,1.46 0.25,0.26 0.55,0.12 0.41,-0.30 -0.14,-0.42 -2.83,-7.61 -2.94,-7.88 -0.10,-0.27 -0.20,-0.46 -0.33,-0.15 -0.13,0.31 -1.15,2.55 -1.15,2.55 0.03,0.18 0.27,0.73 0.43,1.87 0.53,9.25 3.98,22.56 2.76,23.40 -1.39,1.07 -4.50,2.09 -4.50,2.09 0.00,0.00 2.21,-3.74 1.20,-6.01 -2.36,-3.84 -6.95,-2.98 -8.15,-2.41 -2.77,1.34 -5.82,3.96 -8.27,6.36 0.26,-1.96 1.10,-5.32 -2.37,-21.11 -0.07,-0.21 0.02,-0.26 0.15,-0.14 0.38,0.36 1.18,1.01 1.42,1.24 0.33,0.32 1.13,0.44 0.03,-1.41 -0.87,-1.45 -2.79,-5.14 -3.19,-5.92 -0.05,-0.10 -0.10,-0.10 -0.13,-0.02 -0.20,0.47 -0.86,2.05 -0.92,2.20 -0.07,0.17 0.17,0.66 0.35,1.25 0.17,0.59 2.09,9.99 2.47,12.49 0.37,2.43 1.35,6.06 0.98,12.63 -2.07,2.12 -3.47,3.81 -3.47,3.81 -1.96,0.27 -1.96,0.27 -1.96,0.27 -0.33,-0.85 -0.82,-1.80 -1.56,-2.79 -1.68,-2.26 -3.75,-3.35 -6.07,-1.15 -2.31,2.20 -2.36,6.08 0.60,7.30 0.95,0.29 2.58,0.54 4.89,0.11 0.48,-0.10 2.00,-0.26 1.24,0.78 -0.76,1.04 -7.20,7.82 -14.20,7.95 -0.89,0.02 -7.15,-0.54 -5.40,-6.63 0.09,-0.65 0.58,-2.20 0.77,-2.91 0.19,-0.72 -0.44,-1.28 -1.01,0.49 -0.56,1.77 -3.32,8.90 1.26,11.45 0.76,0.42 7.12,2.97 17.47,-5.85 1.98,-1.69 2.57,-4.95 2.57,-4.95 0.03,-0.20 0.05,-0.50 0.04,-0.88 3.41,-0.37 19.07,-2.20 22.89,-4.23 1.32,-0.69 4.49,-2.44 4.59,-7.00 0.05,-2.21 -2.34,-17.98 -2.34,-17.98 z M 250.99,34.61 c -2.23,-0.52 -1.33,-1.32 -0.88,-1.68 0.44,-0.36 2.93,-1.19 4.09,1.64 0.00,0.00 -0.98,0.56 -3.20,0.04 z M 277.51,29.29 c -2.64,2.80 -15.38,4.29 -16.57,4.45 0.00,0.00 5.42,-5.44 9.35,-7.55 2.47,-1.19 5.30,-1.09 6.88,0.36 1.58,1.45 0.99,2.11 0.33,2.74 z" />
     </g>
</svg>
