<?xml version="1.0" encoding="UTF-8"?>
<svg version="1.1" id="Layer_1" x="0px" y="0px" width="578" height="50" viewBox="0 0 578 50"
xml:space="preserve" xmlns="http://www.w3.org/2000/svg" xmlns:svg="http://www.w3.org/2000/svg" xmlns:rdf="http://www.w3.org/1999/02/22-rdf-syntax-ns#"  xmlns:cc="http://creativecommons.org/ns#" xmlns:dc="http://purl.org/dc/elements/1.1/">
     <g>
<path d="M 292.78,42.43 c 0.21,-0.44 1.67,-3.46 -0.06,-14.54 -0.13,-0.92 -2.75,-19.64 -2.75,-19.64 0.00,0.00 1.55,1.46 1.80,1.72 0.25,0.26 0.55,0.12 0.41,-0.30 -0.14,-0.42 -3.32,-8.09 -3.42,-8.36 -0.10,-0.27 -0.20,-0.46 -0.33,-0.15 -0.13,0.31 -0.88,2.38 -0.88,2.38 0.20,1.35 1.99,15.82 2.10,16.81 0.12,0.99 2.63,17.36 2.76,21.89 -0.04,0.46 0.17,0.64 0.38,0.19 z M 274.36,14.12 c -0.06,-0.05 -0.15,-0.03 -0.20,0.04 -1.32,1.81 -1.32,1.81 -1.32,1.81 -2.54,-1.85 -2.54,-1.85 -2.54,-1.85 -0.06,-0.05 -0.15,-0.03 -0.20,0.04 -1.53,2.10 -1.53,2.10 -1.53,2.10 -0.05,0.07 -0.04,0.16 0.03,0.21 2.61,1.91 2.61,1.91 2.61,1.91 0.06,0.05 0.15,0.03 0.20,-0.04 1.32,-1.81 1.32,-1.81 1.32,-1.81 2.54,1.85 2.54,1.85 2.54,1.85 0.06,0.05 0.15,0.03 0.20,-0.04 1.53,-2.10 1.53,-2.10 1.53,-2.10 0.05,-0.07 0.04,-0.16 -0.03,-0.20 z M 253.49,23.10 c 0.33,0.32 1.29,0.93 1.44,1.01 0.16,0.09 0.33,0.09 0.36,-0.12 0.03,-0.21 0.21,-0.70 0.53,-0.37 0.27,0.27 1.97,1.66 3.01,4.78 0.17,0.41 0.52,0.43 0.56,-0.17 0.10,-1.48 0.05,-4.03 0.10,-4.80 0.08,-1.09 0.40,-3.35 1.70,-2.27 0.30,0.25 0.61,0.58 0.61,0.58 0.28,0.35 0.64,0.75 0.77,0.32 0.20,-0.65 0.33,-1.73 0.03,-2.28 -0.13,-0.25 -1.79,-2.31 -2.73,-0.77 -1.17,1.90 -1.10,4.31 -1.10,6.99 -0.22,-0.55 -1.46,-4.07 -4.87,-5.93 -0.25,-0.13 -0.71,0.18 -0.70,1.02 0.00,0.49 -0.05,1.70 0.28,2.02 z M 264.90,38.15 c -1.19,1.73 -1.25,3.99 -1.38,6.51 -0.17,-0.53 -1.17,-3.90 -4.27,-5.81 -0.23,-0.14 -0.68,0.13 -0.71,0.93 -0.02,0.46 -0.13,1.59 0.17,1.91 0.30,0.32 1.16,0.94 1.31,1.02 0.15,0.09 0.30,0.10 0.34,-0.09 0.04,-0.19 0.23,-0.64 0.52,-0.32 0.24,0.26 1.77,1.66 2.59,4.64 0.14,0.39 0.47,0.43 0.54,-0.13 0.17,-1.38 0.24,-3.78 0.34,-4.50 0.13,-1.02 0.54,-3.13 1.71,-2.05 0.26,0.25 0.54,0.57 0.54,0.57 0.25,0.34 0.56,0.74 0.71,0.33 0.22,-0.60 0.39,-1.60 0.14,-2.14 -0.11,-0.24 -1.56,-2.26 -2.53,-0.86 z M 220.79,8.28 c 0.16,0.09 0.34,0.10 0.39,-0.09 0.05,-0.20 0.27,-0.65 0.59,-0.32 0.27,0.27 1.99,1.69 2.88,4.71 0.15,0.40 0.53,0.44 0.61,-0.13 0.21,-1.40 0.32,-3.82 0.43,-4.56 0.16,-1.03 0.65,-3.16 1.96,-2.06 0.30,0.25 0.61,0.58 0.61,0.58 0.28,0.35 0.63,0.75 0.80,0.35 0.26,-0.61 0.46,-1.62 0.18,-2.17 -0.12,-0.24 -1.75,-2.29 -2.85,-0.89 -1.37,1.74 -1.46,4.03 -1.64,6.58 -0.19,-0.53 -1.29,-3.95 -4.78,-5.91 -0.25,-0.14 -0.77,0.13 -0.82,0.93 -0.03,0.47 -0.16,1.61 0.17,1.93 0.33,0.32 1.31,0.96 1.47,1.04 z M 243.57,41.87 c -0.55,0.28 -9.55,3.64 -10.12,3.96 -0.57,0.32 -0.77,0.40 -0.88,0.81 -0.11,0.42 -0.17,0.66 -0.20,0.72 -0.12,0.28 -0.21,0.62 0.63,0.15 0.26,-0.15 9.37,-3.56 9.84,-3.83 0.47,-0.27 0.75,-0.36 0.96,-0.79 0.21,-0.42 0.26,-0.50 0.38,-0.80 0.12,-0.32 0.25,-0.65 -0.60,-0.22 z M 228.78,14.11 c -0.16,0.50 -0.24,0.76 -0.28,0.86 -0.13,0.33 -0.31,0.67 0.75,0.20 0.33,-0.15 25.45,-10.63 26.03,-10.93 0.58,-0.30 0.91,-0.40 1.19,-0.90 0.27,-0.50 0.34,-0.59 0.49,-0.94 0.17,-0.38 0.36,-0.72 -0.71,-0.30 -0.71,0.28 -25.65,10.77 -26.38,11.08 -0.72,0.30 -0.94,0.44 -1.10,0.94 z M 248.69,14.59 c -0.16,0.50 -0.24,0.76 -0.28,0.86 -0.13,0.33 -0.31,0.67 0.75,0.20 0.33,-0.15 25.45,-10.63 26.03,-10.93 0.58,-0.30 0.92,-0.40 1.19,-0.90 0.27,-0.50 0.34,-0.59 0.49,-0.94 0.17,-0.38 0.36,-0.72 -0.71,-0.30 -0.71,0.28 -25.65,10.77 -26.38,11.08 -0.72,0.30 -0.94,0.44 -1.10,0.94 z M 286.15,37.92 c -0.42,-0.08 -1.03,0.12 -1.67,1.37 -0.13,0.29 -0.22,0.52 -0.27,0.63 -0.08,0.17 0.01,0.41 0.23,0.03 0.47,-0.75 1.38,-1.16 1.77,0.05 0.06,0.24 0.27,1.30 -0.90,3.31 -0.23,0.39 -0.54,0.98 -0.54,0.98 -0.26,0.44 -0.11,0.73 0.24,0.21 0.35,-0.53 1.73,-2.32 2.04,-4.69 0.07,-0.55 -0.08,-1.67 -0.89,-1.86 z M 236.80,17.30 c 0.28,-0.88 -0.05,-1.37 -0.44,-0.29 -0.39,1.08 -2.02,4.81 -1.80,9.21 0.05,1.02 0.63,3.00 1.96,3.06 0.69,0.00 1.58,-0.57 2.22,-3.06 0.11,-0.56 0.18,-1.01 0.23,-1.23 0.07,-0.33 -0.14,-0.74 -0.37,0.03 -0.51,1.52 -1.82,2.58 -2.79,0.53 -0.16,-0.41 -0.81,-2.26 0.42,-6.31 0.25,-0.78 0.56,-1.96 0.56,-1.96 z M 327.59,20.28 c 0.48,0.00 1.11,-0.35 1.55,-1.87 0.08,-0.34 0.13,-0.62 0.16,-0.75 0.05,-0.21 -0.10,-0.45 -0.26,0.02 -0.36,0.93 -1.27,1.58 -1.96,0.33 -0.11,-0.25 -0.58,-1.38 0.28,-3.86 0.17,-0.48 0.39,-1.20 0.39,-1.20 0.19,-0.54 -0.04,-0.84 -0.31,-0.17 -0.27,0.66 -1.40,2.95 -1.23,5.64 0.04,0.62 0.45,1.83 1.39,1.87 z M 309.90,12.30 c 0.25,-0.16 13.84,-8.02 14.32,-8.31 0.46,-0.29 0.72,-0.41 0.91,-0.85 0.18,-0.44 0.23,-0.51 0.33,-0.82 0.10,-0.32 0.21,-0.67 -0.61,-0.19 -0.53,0.31 -14.04,8.11 -14.59,8.46 -0.55,0.35 -0.74,0.44 -0.83,0.87 -0.09,0.42 -0.13,0.67 -0.16,0.73 -0.10,0.28 -0.17,0.63 0.64,0.10 z M 353.70,14.30 c 0.18,-0.50 -0.04,-0.77 -0.29,-0.16 -0.25,0.61 -1.30,2.73 -1.14,5.22 0.04,0.58 0.42,1.70 1.29,1.73 0.45,0.00 1.03,-0.33 1.44,-1.73 0.07,-0.32 0.12,-0.57 0.15,-0.70 0.04,-0.19 -0.10,-0.42 -0.24,0.02 -0.33,0.86 -1.18,1.47 -1.82,0.31 -0.10,-0.23 -0.53,-1.28 0.26,-3.57 0.16,-0.44 0.36,-1.11 0.36,-1.11 z M 350.94,6.37 c 0.79,0.58 1.94,1.04 1.94,1.04 -3.66,4.48 -10.84,7.67 -12.56,9.01 -0.51,0.38 -0.44,0.61 -0.12,0.52 0.28,-0.08 5.76,-1.61 10.76,-5.90 2.29,-1.97 2.23,-2.11 2.81,-3.31 0.50,0.26 0.84,0.67 1.03,0.91 0.28,0.34 0.43,0.60 0.56,0.23 0.48,-1.33 -0.20,-2.13 -0.84,-2.54 0.00,0.00 0.67,-2.07 -0.56,-4.14 -0.21,-0.35 -1.43,-1.46 -2.85,0.74 -0.55,0.84 -0.96,2.85 -0.18,3.42 z M 351.67,4.34 c 0.73,-1.02 1.08,-0.99 1.36,-0.82 0.83,0.77 0.70,2.02 0.67,2.31 0.00,0.00 -1.05,-0.49 -1.52,-0.69 -0.47,-0.20 -0.72,-0.50 -0.50,-0.80 z M 333.10,7.03 c 0.17,0.10 0.36,0.11 0.41,-0.10 0.05,-0.21 0.29,-0.68 0.62,-0.34 0.28,0.28 2.09,1.78 3.03,4.95 0.16,0.42 0.55,0.46 0.64,-0.14 0.22,-1.47 0.33,-4.02 0.45,-4.79 0.17,-1.08 0.68,-3.32 2.06,-2.16 0.31,0.27 0.64,0.61 0.64,0.61 0.29,0.37 0.66,0.79 0.84,0.36 0.27,-0.64 0.49,-1.70 0.19,-2.28 -0.13,-0.26 -1.84,-2.41 -3.00,-0.93 -1.44,1.83 -1.53,4.23 -1.72,6.91 -0.20,-0.56 -1.35,-4.16 -5.02,-6.21 -0.27,-0.15 -0.81,0.13 -0.86,0.98 -0.03,0.49 -0.17,1.69 0.18,2.03 0.35,0.34 1.37,1.01 1.54,1.10 z M 300.17,23.91 c 0.00,0.00 1.25,-0.31 1.47,-0.38 0.22,-0.06 0.34,-0.35 -0.05,-0.55 -0.39,-0.20 -4.09,-1.67 -4.37,-1.79 -0.28,-0.11 -0.38,-0.24 -0.41,0.06 -0.02,0.30 -0.07,2.73 -0.07,2.73 0.00,0.00 -0.06,0.17 0.27,0.35 0.32,0.18 0.64,0.58 0.90,0.84 0.26,0.26 3.70,2.98 3.87,3.07 0.00,0.00 -1.72,3.02 -1.94,5.38 -0.22,2.36 0.04,5.63 3.27,4.57 0.87,-0.25 4.49,-1.69 5.30,-4.21 0.26,-0.93 1.01,-2.61 -0.21,-4.31 -0.70,-1.00 -3.53,-2.69 -3.53,-2.69 0.00,0.00 2.17,-3.00 2.38,-3.37 0.21,-0.37 1.00,-2.69 1.09,-3.26 0.09,-0.56 0.13,-0.84 -0.29,-0.32 -0.42,0.52 -4.63,6.05 -4.63,6.05 z M 307.13,32.79 c -1.20,0.99 -3.72,2.29 -4.43,2.36 -0.71,0.07 -2.59,-0.28 -1.77,-2.20 0.28,-0.62 2.16,-3.84 2.16,-3.84 0.70,0.39 5.24,2.70 4.04,3.69 z M 356.08,37.21 c -0.24,0.68 -0.34,1.12 -0.32,1.38 0.03,0.26 0.12,1.09 0.12,1.09 -0.25,0.20 -1.33,0.87 -2.40,0.08 0.07,-0.23 0.21,-0.70 0.24,-0.95 0.12,-0.40 -0.13,-0.69 -0.32,-0.28 -0.20,0.41 -0.65,1.79 -0.99,2.10 -0.34,0.31 -0.74,1.45 -3.30,0.29 -0.45,-0.17 -1.23,-0.75 -2.46,0.48 -2.77,2.57 -4.68,2.77 -7.79,3.88 -0.38,0.17 -1.16,0.76 -0.23,0.67 0.94,-0.09 4.87,0.00 7.01,-2.46 0.45,-0.43 0.96,-1.58 2.66,-0.92 0.94,0.36 2.68,1.85 4.58,-1.10 1.12,0.75 2.82,0.45 3.09,-0.38 0.27,-0.82 0.58,-1.64 0.58,-2.20 0.00,-0.56 -0.05,-1.30 -0.05,-1.30 -0.04,-0.44 -0.19,-1.07 -0.44,-0.40 z M 359.28,24.89 c -0.25,-0.28 -0.37,-0.01 -0.46,0.31 -0.09,0.32 -0.36,1.52 -0.54,2.27 0.00,0.00 0.71,1.16 0.97,1.75 0.25,0.59 -0.12,0.92 -0.86,1.01 -2.08,0.25 -3.73,-0.94 -4.30,-1.48 -0.57,-0.55 0.05,-1.52 0.51,-2.68 0.37,-0.93 -0.32,-1.04 -0.84,0.00 -1.76,4.63 -4.23,5.13 -4.88,5.30 -5.86,1.60 -5.36,-3.76 -5.33,-4.64 0.02,-0.88 -0.62,-0.55 -1.34,0.03 -2.47,1.98 -4.45,3.14 -5.52,3.62 -0.92,-1.80 -2.26,-2.93 -2.82,-3.34 -6.34,-4.63 -6.87,4.71 -6.67,5.71 0.96,3.97 7.44,1.56 8.46,1.44 1.02,-0.12 0.68,1.22 0.11,2.02 -1.41,1.97 -3.03,3.38 -4.50,4.58 -6.28,5.13 -9.43,4.72 -10.41,4.69 -6.17,-0.17 -5.60,-6.82 -5.26,-8.24 1.86,-1.57 3.45,-3.28 4.38,-5.04 0.38,-0.96 1.03,-3.16 -0.15,-5.91 -0.62,-1.21 -2.56,-4.60 -2.56,-4.60 0.00,0.00 1.43,0.04 1.57,0.04 0.14,0.00 0.41,-0.14 0.06,-0.54 -0.35,-0.40 -3.36,-3.41 -3.54,-3.65 -0.18,-0.24 -0.35,-0.41 -0.45,-0.06 -0.10,0.35 -0.36,1.88 -0.42,2.20 -0.06,0.31 -0.06,0.63 0.10,0.90 0.15,0.27 0.55,1.20 0.84,1.96 0.29,0.76 3.25,6.47 3.53,6.98 0.27,0.51 0.33,0.88 0.06,1.22 -9.53,10.05 -27.91,16.23 -28.50,16.58 -0.59,0.34 -0.43,0.61 0.56,0.43 1.48,-0.26 9.74,-1.64 12.09,-2.77 1.55,-0.75 6.97,-3.41 11.41,-6.89 -0.12,0.90 -0.24,2.22 -0.17,3.89 0.30,8.08 7.53,6.74 9.43,6.33 5.68,-1.25 12.64,-9.11 13.23,-10.68 0.58,-1.56 0.67,-2.98 0.54,-4.22 1.50,-0.81 4.71,-3.40 4.71,-3.40 0.13,3.45 2.87,4.48 3.72,4.63 3.96,0.60 5.94,-2.70 6.78,-3.78 0.72,1.89 2.45,2.26 3.34,2.43 3.41,0.68 4.08,-1.73 4.25,-2.29 1.07,-3.33 -0.86,-5.81 -1.11,-6.08 z M 330.65,31.57 c -2.02,-0.14 -1.85,-0.92 -1.57,-1.22 0.30,-0.33 2.78,-1.89 4.85,0.89 0.00,0.00 -0.86,0.50 -3.28,0.33 z M 293.22,13.78 c 0.17,-0.04 3.05,-0.49 6.41,-3.05 1.82,-1.38 2.92,-3.74 2.92,-3.74 0.00,0.00 0.91,0.76 1.03,0.91 0.28,0.34 0.43,0.60 0.56,0.23 0.48,-1.33 -0.20,-2.13 -0.84,-2.54 0.00,0.00 0.67,-2.07 -0.56,-4.14 -0.21,-0.35 -1.43,-1.46 -2.85,0.74 -0.55,0.84 -0.96,2.85 -0.18,3.42 0.79,0.58 1.94,1.04 1.94,1.04 -3.66,4.48 -6.16,5.34 -8.30,6.59 -0.55,0.32 -0.44,0.61 -0.12,0.53 z M 300.93,4.39 c -0.47,-0.20 -0.72,-0.50 -0.50,-0.80 0.73,-1.02 1.08,-0.99 1.36,-0.82 0.82,0.77 0.70,2.02 0.67,2.31 0.00,0.00 -1.05,-0.49 -1.52,-0.69 z M 300.80,14.16 c -0.06,-0.05 -0.15,-0.03 -0.20,0.04 -1.53,2.10 -1.53,2.10 -1.53,2.10 -0.05,0.07 -0.04,0.16 0.03,0.20 2.61,1.91 2.61,1.91 2.61,1.91 0.06,0.05 0.15,0.03 0.20,-0.04 1.32,-1.81 1.32,-1.81 1.32,-1.81 2.54,1.85 2.54,1.85 2.54,1.85 0.06,0.05 0.15,0.03 0.20,-0.04 1.53,-2.10 1.53,-2.10 1.53,-2.10 0.05,-0.07 0.04,-0.16 -0.03,-0.20 -2.61,-1.91 -2.61,-1.91 -2.61,-1.91 -0.06,-0.05 -0.15,-0.03 -0.20,0.04 -1.32,1.81 -1.32,1.81 -1.32,1.81 z M 285.04,23.52 c -0.16,-1.10 -2.41,-15.27 -2.41,-15.27 0.00,0.00 1.55,1.46 1.80,1.72 0.25,0.26 0.55,0.12 0.41,-0.30 -0.14,-0.42 -3.31,-8.09 -3.42,-8.36 -0.10,-0.27 -0.20,-0.46 -0.33,-0.15 -0.13,0.31 -1.15,2.55 -1.15,2.55 0.03,0.18 0.27,0.73 0.43,1.87 0.17,1.18 0.42,2.86 0.69,4.72 0.00,0.00 3.27,19.97 3.32,20.73 0.05,0.76 0.40,1.03 -0.67,1.61 -1.07,0.58 -6.49,3.11 -9.22,-0.86 0.37,-0.27 3.73,-1.93 3.27,-6.73 -0.83,-4.99 -3.27,-4.78 -4.64,-3.89 -1.37,0.89 -3.63,4.20 -1.50,9.35 0.00,0.00 -5.90,3.37 -14.10,3.04 -0.90,-0.04 -7.90,-0.24 -11.57,-4.51 -0.51,0.51 -0.70,1.21 -0.73,1.36 0.00,0.00 -5.45,0.36 -9.20,2.32 -3.70,1.93 -7.19,4.90 -9.67,7.12 -1.68,1.51 -3.08,3.01 -4.62,3.62 -1.19,0.53 -2.89,0.97 -4.42,0.02 -0.79,-0.40 -2.71,-3.10 0.69,-8.88 0.88,-1.50 2.45,-4.11 2.78,-4.65 0.50,-0.46 1.01,-1.34 1.42,-2.94 0.12,-0.62 0.20,-1.12 0.25,-1.37 0.08,-0.37 -0.16,-0.82 -0.41,0.04 -0.57,1.69 -2.02,2.86 -3.10,0.59 -0.17,-0.45 -0.90,-2.51 0.47,-7.00 0.28,-0.87 0.62,-2.17 0.62,-2.17 0.31,-0.98 -0.05,-1.52 -0.49,-0.32 -0.43,1.20 -2.24,5.33 -1.99,10.22 0.05,1.04 0.60,2.99 1.85,3.34 -1.27,1.76 -3.43,5.16 -4.14,8.35 -0.59,2.63 -0.40,7.52 4.03,8.18 0.95,0.11 2.96,0.26 7.62,-3.92 0.67,-0.60 4.17,-3.83 6.27,-5.23 3.27,-2.19 7.86,-4.58 11.52,-4.05 0.14,1.20 0.06,5.75 4.70,6.76 0.55,0.10 1.19,0.05 1.30,-0.88 0.11,-0.93 0.21,-3.18 0.11,-3.78 1.41,0.28 10.29,2.98 21.87,-2.72 0.65,0.96 2.40,5.00 8.48,3.67 0.71,-0.19 4.30,-0.81 4.51,-5.96 0.14,-2.19 -0.47,-6.14 -0.63,-7.24 z M 248.62,36.79 c -2.12,-0.81 -2.26,-2.59 -2.23,-2.92 0.00,0.00 1.51,0.00 2.58,2.44 0.23,0.69 -0.12,0.53 -0.35,0.48 z M 273.44,29.53 c 0.00,0.00 -1.09,-0.52 -1.44,-3.28 -0.14,-1.09 0.41,-1.91 1.01,-2.26 0.60,-0.35 2.09,-0.47 3.34,2.64 0.38,0.94 -2.34,2.66 -2.91,2.91 z" />
     </g>
</svg>
