<?xml version="1.0" encoding="UTF-8"?>
<svg version="1.1" id="Layer_1" x="0px" y="0px" width="578" height="51" viewBox="0 0 578 51"
xml:space="preserve" xmlns="http://www.w3.org/2000/svg" xmlns:svg="http://www.w3.org/2000/svg" xmlns:rdf="http://www.w3.org/1999/02/22-rdf-syntax-ns#"  xmlns:cc="http://creativecommons.org/ns#" xmlns:dc="http://purl.org/dc/elements/1.1/">
     <g>
<path d="M 227.02,29.62 c -1.92,2.63 -1.92,2.63 -1.92,2.63 -0.06,0.08 -0.05,0.20 0.03,0.25 3.27,2.38 3.27,2.38 3.27,2.38 0.08,0.06 0.19,0.04 0.25,-0.05 1.91,-2.63 1.91,-2.63 1.91,-2.63 0.06,-0.08 0.05,-0.20 -0.03,-0.26 -3.27,-2.38 -3.27,-2.38 -3.27,-2.38 -0.08,-0.06 -0.19,-0.04 -0.25,0.05 z M 297.51,38.55 c 0.21,-0.44 1.67,-3.47 -0.06,-14.54 -0.13,-0.92 -1.93,-15.76 -1.93,-15.76 0.00,0.00 1.55,1.46 1.80,1.72 0.25,0.26 0.55,0.12 0.41,-0.30 -0.14,-0.42 -3.31,-8.09 -3.42,-8.36 -0.10,-0.27 -0.20,-0.46 -0.33,-0.15 -0.13,0.31 -0.88,2.38 -0.88,2.38 0.20,1.35 1.16,11.94 1.28,12.93 0.12,0.99 2.63,17.36 2.76,21.89 -0.04,0.46 0.17,0.64 0.38,0.19 z M 289.86,31.74 c 0.28,-0.95 0.68,-2.64 0.42,-5.55 -0.23,-2.38 -2.57,-17.94 -2.57,-17.94 0.00,0.00 1.10,0.73 1.34,0.99 0.25,0.26 0.55,0.12 0.41,-0.30 -0.14,-0.42 -2.86,-7.37 -2.96,-7.64 -0.10,-0.27 -0.20,-0.46 -0.33,-0.15 -0.13,0.31 -1.15,2.55 -1.15,2.55 0.03,0.18 0.27,0.73 0.43,1.87 0.17,1.14 0.40,2.74 0.66,4.52 0.00,0.00 2.56,16.52 2.61,17.55 0.05,1.03 0.36,2.68 -0.27,3.03 -0.63,0.35 -4.22,1.58 -5.82,-0.32 -0.12,-0.16 -0.56,-1.46 -0.62,-1.61 -0.06,-0.15 -0.19,-0.13 -0.33,0.16 -0.15,0.29 -0.84,2.03 -0.59,2.68 0.21,0.54 1.15,3.04 1.45,4.48 0.06,0.29 0.51,1.58 -0.52,2.59 -0.81,0.72 -4.92,4.48 -10.31,5.66 -7.13,1.72 -8.38,-3.33 -7.46,-7.49 0.18,-0.99 0.91,-3.71 1.88,-5.98 0.54,-1.37 -0.30,-1.89 -1.01,-0.16 -0.71,1.73 -3.22,8.96 -2.17,12.52 0.57,1.76 2.46,7.46 13.55,2.29 1.08,-0.51 7.92,-3.58 7.59,-10.69 1.16,-0.13 4.96,-0.37 5.76,-3.08 z M 265.99,19.31 c 0.58,0.14 0.90,0.51 1.03,0.72 0.06,0.09 0.16,0.04 0.19,-0.02 0.77,-1.28 0.23,-2.16 -0.89,-2.57 -0.45,-0.17 -0.60,-0.81 1.17,-1.76 1.63,-0.87 14.24,-5.82 14.61,-6.03 0.49,-0.29 0.78,-0.39 1.00,-0.84 0.22,-0.45 0.27,-0.53 0.39,-0.84 0.13,-0.34 0.26,-0.69 -0.63,-0.23 -0.47,0.24 -14.64,5.70 -16.00,6.64 -0.69,0.47 -1.29,1.26 -1.55,2.15 -0.37,1.28 -0.15,2.59 0.69,2.80 z M 260.54,13.87 c -1.00,0.74 -1.68,1.16 -1.68,1.16 -0.65,0.47 -1.22,1.34 -0.07,0.85 1.15,-0.49 2.66,-1.25 3.82,-3.00 0.34,-0.51 0.74,-1.19 -0.84,-1.43 -1.57,-0.23 -4.12,-0.60 -4.94,0.29 -0.82,0.90 -1.08,1.51 -1.32,1.90 -0.34,0.53 0.09,0.77 0.47,0.35 0.38,-0.41 0.65,-0.82 1.76,-0.79 1.12,0.03 3.79,-0.07 2.79,0.66 z M 217.57,13.64 c 0.66,-0.37 4.49,-1.85 5.12,-5.65 0.05,-0.50 -0.05,-0.87 -0.17,-1.12 0.05,0.01 0.11,0.05 0.17,0.11 0.27,0.27 1.99,1.69 2.88,4.71 0.15,0.40 0.53,0.44 0.61,-0.13 0.21,-1.40 0.32,-3.82 0.43,-4.56 0.16,-1.03 0.65,-3.16 1.96,-2.06 0.30,0.25 0.61,0.58 0.61,0.58 0.28,0.35 0.63,0.75 0.80,0.34 0.26,-0.61 0.46,-1.62 0.18,-2.17 -0.12,-0.24 -1.75,-2.30 -2.85,-0.89 -1.37,1.74 -1.46,4.03 -1.64,6.58 -0.19,-0.53 -1.29,-3.95 -4.78,-5.91 -0.25,-0.14 -0.77,0.13 -0.82,0.93 -0.03,0.47 -0.16,1.61 0.17,1.93 0.32,0.31 2.68,1.14 1.40,2.49 -0.57,0.61 -3.45,3.59 -4.06,4.31 -0.62,0.72 -0.68,0.85 -0.01,0.49 z M 277.13,21.99 c 0.83,0.39 2.03,0.03 2.94,-1.69 0.70,1.02 1.77,1.03 2.35,0.82 0.49,-0.18 1.03,-0.91 1.19,-1.93 0.16,-1.01 -0.10,-1.71 -0.42,-2.28 -0.42,-0.70 -0.70,-1.89 -0.70,-1.89 -0.15,-0.42 -0.26,-0.86 -0.45,-0.27 -0.19,0.58 -0.33,1.03 -0.07,1.70 0.25,0.67 0.94,2.18 1.05,2.40 0.11,0.22 0.14,0.46 -0.24,0.62 -0.38,0.16 -2.10,0.53 -2.41,-1.31 -0.32,-1.83 -0.35,-2.37 -0.51,-2.68 -0.16,-0.31 -0.31,-0.35 -0.43,-0.04 -0.12,0.31 -0.20,0.95 -0.22,1.05 -0.02,0.10 -0.02,0.18 0.05,0.29 0.07,0.11 0.75,2.16 0.44,2.72 -0.31,0.56 -1.85,1.58 -2.66,0.52 -0.39,-0.74 -0.15,-2.62 -0.15,-3.06 0.00,-0.44 -0.14,-0.59 -0.33,-0.24 -0.19,0.36 -0.29,0.59 -0.28,0.91 0.01,0.32 0.06,1.69 0.03,2.12 -0.03,0.43 0.00,1.83 0.83,2.23 z M 240.37,12.76 c 0.31,-0.14 23.73,-10.02 24.26,-10.31 0.54,-0.28 0.85,-0.38 1.11,-0.85 0.25,-0.47 0.31,-0.55 0.46,-0.88 0.15,-0.35 0.33,-0.67 -0.66,-0.28 -0.66,0.26 -23.91,10.16 -24.59,10.44 -0.67,0.29 -0.88,0.41 -1.02,0.88 -0.14,0.46 -0.22,0.71 -0.25,0.81 -0.12,0.31 -0.29,0.63 0.70,0.19 z M 272.53,33.35 c 0.17,-0.48 -0.03,-0.74 -0.27,-0.15 -0.24,0.59 -1.25,2.61 -1.09,5.00 0.04,0.55 0.40,1.63 1.23,1.65 0.43,0.00 0.99,-0.31 1.38,-1.66 0.07,-0.30 0.11,-0.55 0.14,-0.67 0.04,-0.18 -0.09,-0.40 -0.23,0.02 -0.31,0.83 -1.13,1.41 -1.74,0.30 -0.10,-0.22 -0.51,-1.22 0.25,-3.42 0.15,-0.43 0.34,-1.06 0.34,-1.06 z M 275.57,8.17 c 0.43,0.00 0.98,-0.31 1.38,-1.66 0.07,-0.30 0.11,-0.55 0.14,-0.67 0.04,-0.18 -0.09,-0.40 -0.23,0.02 -0.31,0.83 -1.13,1.41 -1.74,0.30 -0.10,-0.22 -0.51,-1.22 0.24,-3.42 0.15,-0.43 0.35,-1.06 0.35,-1.06 0.17,-0.48 -0.03,-0.74 -0.28,-0.15 -0.24,0.59 -1.25,2.61 -1.09,5.00 0.04,0.55 0.40,1.63 1.23,1.66 z M 256.61,45.11 c -0.31,0.83 -1.13,1.41 -1.74,0.30 -0.10,-0.22 -0.51,-1.22 0.25,-3.42 0.15,-0.43 0.34,-1.06 0.34,-1.06 0.17,-0.48 -0.03,-0.74 -0.27,-0.15 -0.24,0.59 -1.25,2.61 -1.09,5.00 0.04,0.55 0.40,1.63 1.23,1.66 0.43,0.00 0.99,-0.31 1.38,-1.66 0.07,-0.30 0.11,-0.55 0.14,-0.67 0.04,-0.18 -0.09,-0.40 -0.23,0.02 z M 246.76,45.72 c -0.31,0.83 -1.13,1.41 -1.74,0.30 -0.10,-0.22 -0.51,-1.22 0.25,-3.42 0.15,-0.43 0.35,-1.06 0.35,-1.06 0.17,-0.48 -0.03,-0.74 -0.28,-0.15 -0.24,0.59 -1.25,2.61 -1.09,5.00 0.04,0.55 0.40,1.63 1.23,1.65 0.43,0.00 0.98,-0.31 1.38,-1.66 0.07,-0.30 0.11,-0.55 0.14,-0.67 0.04,-0.18 -0.09,-0.40 -0.23,0.02 z M 226.74,23.27 c 0.07,-0.30 0.11,-0.55 0.14,-0.67 0.04,-0.18 -0.09,-0.40 -0.23,0.02 -0.31,0.83 -1.13,1.41 -1.74,0.30 -0.10,-0.22 -0.51,-1.23 0.25,-3.42 0.15,-0.43 0.35,-1.06 0.35,-1.06 0.17,-0.48 -0.03,-0.74 -0.28,-0.15 -0.24,0.59 -1.25,2.61 -1.09,5.00 0.04,0.55 0.40,1.63 1.23,1.65 0.43,0.00 0.98,-0.31 1.38,-1.66 z M 224.27,35.33 c 0.17,-0.48 -0.03,-0.74 -0.27,-0.16 -0.24,0.59 -1.25,2.61 -1.09,5.00 0.04,0.55 0.40,1.63 1.23,1.66 0.43,0.00 0.98,-0.31 1.38,-1.66 0.07,-0.31 0.11,-0.55 0.14,-0.67 0.04,-0.18 -0.09,-0.40 -0.23,0.02 -0.31,0.83 -1.13,1.41 -1.74,0.30 -0.10,-0.22 -0.51,-1.22 0.25,-3.42 0.15,-0.43 0.35,-1.06 0.35,-1.06 z M 292.23,41.01 c -0.44,0.96 -1.52,1.60 -2.27,0.27 -0.12,-0.26 -0.61,-1.47 0.46,-4.02 0.21,-0.50 0.49,-1.24 0.49,-1.24 0.24,-0.56 -0.01,-0.88 -0.35,-0.20 -0.34,0.68 -1.72,3.02 -1.63,5.84 0.02,0.65 0.45,1.94 1.52,2.01 0.56,0.02 1.29,-0.32 1.85,-1.89 0.10,-0.36 0.17,-0.64 0.21,-0.78 0.06,-0.21 -0.10,-0.47 -0.30,0.01 z M 237.53,10.06 c 0.59,-0.04 1.33,-0.47 1.77,-2.18 0.07,-0.39 0.11,-0.70 0.14,-0.85 0.05,-0.23 -0.16,-0.49 -0.32,0.04 -0.37,1.06 -1.45,1.84 -2.37,0.51 -0.15,-0.27 -0.79,-1.49 0.09,-4.29 0.18,-0.54 0.40,-1.35 0.40,-1.35 0.20,-0.61 -0.10,-0.93 -0.39,-0.17 -0.29,0.75 -1.52,3.36 -1.14,6.33 0.09,0.69 0.67,2.00 1.81,1.97 z M 233.49,25.96 c 0.71,0.02 1.65,-0.51 2.37,-2.89 0.13,-0.54 0.21,-0.97 0.27,-1.19 0.08,-0.32 -0.13,-0.71 -0.38,0.02 -0.56,1.46 -1.94,2.45 -2.90,0.44 -0.15,-0.40 -0.78,-2.21 0.59,-6.08 0.27,-0.75 0.63,-1.87 0.63,-1.87 0.31,-0.85 -0.02,-1.32 -0.45,-0.29 -0.43,1.03 -2.20,4.59 -2.07,8.85 0.03,0.98 0.58,2.91 1.95,3.00 z M 314.40,12.30 c 0.25,-0.16 13.84,-8.02 14.32,-8.31 0.46,-0.29 0.72,-0.41 0.91,-0.85 0.18,-0.44 0.23,-0.52 0.33,-0.82 0.10,-0.32 0.21,-0.67 -0.61,-0.19 -0.53,0.31 -14.04,8.11 -14.59,8.46 -0.55,0.35 -0.74,0.44 -0.83,0.86 -0.09,0.42 -0.13,0.67 -0.16,0.73 -0.10,0.28 -0.17,0.63 0.64,0.10 z M 332.09,20.28 c 0.48,0.00 1.11,-0.35 1.55,-1.88 0.08,-0.34 0.13,-0.62 0.16,-0.75 0.05,-0.21 -0.10,-0.45 -0.26,0.02 -0.35,0.93 -1.27,1.58 -1.96,0.33 -0.11,-0.25 -0.58,-1.38 0.28,-3.86 0.17,-0.48 0.39,-1.20 0.39,-1.20 0.19,-0.54 -0.04,-0.84 -0.31,-0.17 -0.27,0.66 -1.40,2.95 -1.23,5.64 0.04,0.62 0.45,1.83 1.39,1.87 z M 358.20,14.30 c 0.18,-0.50 -0.04,-0.77 -0.29,-0.16 -0.25,0.61 -1.30,2.73 -1.14,5.22 0.04,0.58 0.42,1.70 1.29,1.73 0.45,0.00 1.03,-0.33 1.44,-1.74 0.07,-0.32 0.12,-0.57 0.15,-0.70 0.04,-0.19 -0.10,-0.42 -0.24,0.02 -0.33,0.86 -1.18,1.47 -1.82,0.31 -0.10,-0.23 -0.53,-1.28 0.26,-3.57 0.16,-0.45 0.36,-1.11 0.36,-1.11 z M 360.58,37.21 c -0.24,0.68 -0.34,1.12 -0.31,1.38 0.03,0.26 0.11,1.10 0.11,1.10 -0.25,0.20 -1.33,0.87 -2.40,0.08 0.07,-0.23 0.21,-0.70 0.24,-0.95 0.12,-0.40 -0.13,-0.69 -0.32,-0.28 -0.20,0.41 -0.65,1.79 -0.99,2.10 -0.34,0.31 -0.73,1.45 -3.30,0.29 -0.45,-0.17 -1.23,-0.75 -2.46,0.48 -2.77,2.57 -4.68,2.78 -7.79,3.88 -0.38,0.17 -1.16,0.76 -0.23,0.67 0.94,-0.09 4.87,0.00 7.01,-2.46 0.45,-0.43 0.96,-1.58 2.66,-0.92 0.94,0.36 2.68,1.85 4.58,-1.10 1.12,0.75 2.82,0.45 3.09,-0.38 0.27,-0.82 0.58,-1.64 0.58,-2.20 0.00,-0.56 -0.05,-1.30 -0.05,-1.30 -0.04,-0.44 -0.19,-1.07 -0.44,-0.40 z M 337.60,7.03 c 0.17,0.09 0.36,0.11 0.41,-0.10 0.05,-0.21 0.29,-0.68 0.62,-0.34 0.28,0.28 2.09,1.78 3.03,4.95 0.16,0.42 0.55,0.46 0.64,-0.14 0.22,-1.47 0.34,-4.02 0.45,-4.79 0.16,-1.09 0.68,-3.33 2.06,-2.16 0.31,0.26 0.64,0.61 0.64,0.61 0.29,0.37 0.66,0.79 0.84,0.36 0.27,-0.64 0.49,-1.70 0.19,-2.28 -0.13,-0.26 -1.84,-2.41 -3.00,-0.93 -1.44,1.83 -1.53,4.23 -1.72,6.91 -0.20,-0.56 -1.35,-4.16 -5.02,-6.21 -0.27,-0.15 -0.81,0.13 -0.86,0.98 -0.03,0.49 -0.17,1.69 0.18,2.03 0.35,0.34 1.37,1.01 1.54,1.10 z M 363.78,24.89 c -0.25,-0.28 -0.37,-0.01 -0.46,0.31 -0.09,0.32 -0.36,1.52 -0.53,2.27 0.00,0.00 0.71,1.16 0.97,1.75 0.25,0.59 -0.12,0.92 -0.86,1.01 -2.08,0.25 -3.73,-0.94 -4.30,-1.49 -0.57,-0.55 0.05,-1.52 0.51,-2.68 0.37,-0.93 -0.32,-1.04 -0.84,0.00 -1.76,4.63 -4.23,5.12 -4.88,5.30 -5.86,1.60 -5.36,-3.76 -5.34,-4.64 0.02,-0.88 -0.62,-0.55 -1.34,0.03 -2.47,1.98 -4.45,3.14 -5.52,3.62 -0.92,-1.80 -2.26,-2.93 -2.82,-3.34 -6.34,-4.63 -6.86,4.71 -6.67,5.71 0.97,3.97 7.44,1.56 8.46,1.44 1.02,-0.12 0.68,1.22 0.11,2.02 -1.41,1.97 -3.03,3.38 -4.50,4.57 -6.28,5.13 -9.44,4.72 -10.41,4.69 -6.17,-0.17 -5.60,-6.82 -5.26,-8.24 1.86,-1.57 3.45,-3.28 4.38,-5.04 0.38,-0.96 1.03,-3.15 -0.15,-5.91 -0.62,-1.21 -2.56,-4.60 -2.56,-4.60 0.00,0.00 1.43,0.04 1.57,0.04 0.14,0.00 0.41,-0.14 0.06,-0.55 -0.35,-0.40 -3.36,-3.40 -3.54,-3.65 -0.18,-0.24 -0.35,-0.41 -0.45,-0.06 -0.10,0.36 -0.36,1.88 -0.42,2.20 -0.06,0.31 -0.06,0.63 0.10,0.90 0.15,0.27 0.55,1.20 0.84,1.96 0.29,0.76 3.26,6.47 3.53,6.98 0.27,0.51 0.33,0.88 0.06,1.22 -9.53,10.05 -27.91,16.23 -28.50,16.57 -0.59,0.34 -0.43,0.61 0.56,0.43 1.48,-0.26 9.74,-1.64 12.09,-2.77 1.55,-0.75 6.98,-3.41 11.41,-6.89 -0.12,0.90 -0.24,2.22 -0.18,3.89 0.30,8.08 7.53,6.74 9.43,6.33 5.68,-1.25 12.64,-9.11 13.23,-10.69 0.58,-1.56 0.67,-2.98 0.54,-4.22 1.50,-0.81 4.71,-3.40 4.71,-3.40 0.13,3.45 2.88,4.48 3.72,4.63 3.96,0.60 5.94,-2.71 6.78,-3.78 0.72,1.89 2.45,2.25 3.34,2.43 3.41,0.68 4.08,-1.74 4.26,-2.29 1.07,-3.33 -0.86,-5.81 -1.11,-6.08 z M 335.15,31.57 c -2.03,-0.14 -1.85,-0.92 -1.57,-1.23 0.30,-0.33 2.78,-1.89 4.85,0.89 0.00,0.00 -0.86,0.50 -3.28,0.33 z M 355.44,6.37 c 0.79,0.58 1.93,1.04 1.93,1.04 -3.66,4.48 -10.84,7.67 -12.55,9.01 -0.51,0.39 -0.44,0.61 -0.12,0.53 0.29,-0.08 5.76,-1.61 10.76,-5.90 2.29,-1.97 2.23,-2.11 2.82,-3.31 0.50,0.26 0.84,0.67 1.03,0.91 0.28,0.34 0.43,0.60 0.56,0.23 0.48,-1.33 -0.20,-2.13 -0.84,-2.54 0.00,0.00 0.67,-2.07 -0.56,-4.14 -0.21,-0.35 -1.43,-1.46 -2.85,0.74 -0.55,0.84 -0.96,2.85 -0.17,3.42 z M 356.17,4.34 c 0.73,-1.02 1.08,-0.98 1.36,-0.82 0.82,0.77 0.70,2.03 0.67,2.31 0.00,0.00 -1.05,-0.49 -1.52,-0.70 -0.47,-0.20 -0.72,-0.50 -0.50,-0.80 z M 304.67,23.91 c 0.00,0.00 1.25,-0.31 1.47,-0.38 0.22,-0.06 0.34,-0.35 -0.05,-0.55 -0.39,-0.20 -4.09,-1.68 -4.37,-1.79 -0.28,-0.11 -0.38,-0.24 -0.41,0.06 -0.02,0.30 -0.07,2.73 -0.07,2.73 0.00,0.00 -0.06,0.17 0.27,0.35 0.32,0.18 0.64,0.58 0.90,0.84 0.26,0.26 3.70,2.98 3.87,3.07 0.00,0.00 -1.72,3.02 -1.94,5.38 -0.22,2.36 0.04,5.63 3.27,4.58 0.87,-0.25 4.49,-1.69 5.30,-4.21 0.26,-0.93 1.01,-2.61 -0.21,-4.31 -0.70,-1.00 -3.53,-2.69 -3.53,-2.69 0.00,0.00 2.17,-3.00 2.38,-3.37 0.21,-0.37 1.00,-2.69 1.09,-3.26 0.09,-0.56 0.13,-0.84 -0.29,-0.32 -0.42,0.52 -4.63,6.05 -4.63,6.05 z M 311.63,32.79 c -1.20,0.99 -3.72,2.29 -4.43,2.36 -0.71,0.07 -2.59,-0.28 -1.77,-2.20 0.28,-0.62 2.16,-3.84 2.16,-3.84 0.70,0.39 5.24,2.70 4.04,3.69 z M 297.84,13.25 c -0.55,0.32 -0.44,0.61 -0.12,0.53 0.17,-0.04 3.05,-0.49 6.41,-3.05 1.82,-1.38 2.92,-3.74 2.92,-3.74 0.00,0.00 0.91,0.76 1.03,0.91 0.28,0.34 0.43,0.60 0.56,0.23 0.48,-1.33 -0.20,-2.13 -0.84,-2.54 0.00,0.00 0.67,-2.07 -0.56,-4.14 -0.21,-0.35 -1.43,-1.46 -2.85,0.74 -0.55,0.84 -0.96,2.85 -0.17,3.42 0.79,0.58 1.93,1.04 1.93,1.04 -3.66,4.48 -6.16,5.34 -8.30,6.59 z M 305.43,4.39 c -0.47,-0.20 -0.72,-0.50 -0.50,-0.80 0.73,-1.02 1.08,-0.98 1.36,-0.82 0.83,0.77 0.70,2.03 0.67,2.31 0.00,0.00 -1.05,-0.49 -1.52,-0.70 z M 305.30,14.16 c -0.06,-0.05 -0.15,-0.03 -0.20,0.04 -1.53,2.10 -1.53,2.10 -1.53,2.10 -0.05,0.07 -0.04,0.16 0.03,0.21 2.61,1.91 2.61,1.91 2.61,1.91 0.06,0.05 0.15,0.03 0.20,-0.04 1.32,-1.81 1.32,-1.81 1.32,-1.81 2.54,1.85 2.54,1.85 2.54,1.85 0.06,0.05 0.15,0.03 0.20,-0.04 1.53,-2.10 1.53,-2.10 1.53,-2.10 0.05,-0.07 0.04,-0.16 -0.03,-0.20 -2.62,-1.91 -2.62,-1.91 -2.62,-1.91 -0.06,-0.05 -0.15,-0.03 -0.20,0.04 -1.32,1.81 -1.32,1.81 -1.32,1.81 z M 244.85,29.76 c 0.42,-0.75 2.23,-7.34 -2.13,-12.63 -0.48,-0.58 -0.52,-0.35 -0.67,-0.11 -0.15,0.23 -0.49,1.28 -0.49,1.28 0.29,0.48 3.89,4.73 3.03,11.18 -0.12,0.64 0.10,0.57 0.26,0.29 z M 256.56,31.34 c 0.53,-0.22 11.34,-3.59 20.51,-1.24 0.40,-0.68 1.23,-1.89 1.41,-2.22 0.18,-0.33 0.33,-0.48 -0.13,-0.57 -0.46,-0.09 -8.43,-1.78 -11.55,-2.97 -0.90,-0.31 -7.33,-2.86 -7.94,-3.23 -0.62,-0.37 -2.00,-0.51 -3.01,-0.22 -1.01,0.29 -2.47,0.85 -2.69,0.96 -0.21,0.11 -0.32,0.20 -0.42,0.42 -0.10,0.22 -0.85,2.00 -0.85,2.00 7.03,0.76 7.03,0.76 7.03,0.76 0.00,0.00 0.12,-0.37 0.63,-0.20 1.19,0.37 4.80,2.00 5.19,2.09 0.00,0.00 -10.98,2.02 -11.54,2.19 -0.56,0.17 -1.65,0.26 -2.71,1.42 -1.06,1.16 -3.43,3.37 -5.84,3.27 -1.02,-0.10 -3.92,-0.53 -5.50,-4.66 -0.13,-0.38 -0.32,-0.66 -0.47,-0.38 -0.15,0.28 -0.75,1.75 -0.46,2.79 0.29,1.03 1.89,5.51 1.97,6.13 0.21,1.67 -1.90,2.91 -1.92,2.93 0.00,-0.01 0.00,-0.01 0.00,-0.01 -2.28,1.53 -6.81,3.93 -12.86,4.66 -1.31,0.16 -6.79,0.60 -9.13,-3.80 -0.39,-0.72 -2.15,-4.31 1.05,-10.24 0.06,-0.09 0.10,-0.18 0.12,-0.27 0.58,-0.31 1.23,-1.12 1.80,-2.95 0.15,-0.59 0.25,-1.06 0.31,-1.29 0.09,-0.35 -0.11,-0.79 -0.39,0.01 -0.62,1.58 -2.04,2.63 -2.94,0.41 -0.14,-0.44 -0.72,-2.44 0.79,-6.65 0.30,-0.82 0.69,-2.04 0.69,-2.04 0.34,-0.92 0.03,-1.45 -0.44,-0.33 -0.47,1.12 -2.37,4.97 -2.38,9.64 0.00,1.06 0.47,3.13 1.80,3.33 -0.89,1.32 -6.60,12.44 2.04,16.42 1.94,0.90 7.10,2.81 17.73,-3.08 0.18,-0.10 2.75,-1.48 3.91,-3.29 0.38,-0.60 0.58,-1.40 0.74,-2.14 0.28,-1.27 0.45,-2.52 0.45,-2.52 0.36,0.18 5.85,2.02 8.15,-3.33 0.18,-0.42 0.73,1.67 1.04,2.33 0.31,0.65 1.58,3.34 4.60,3.69 0.51,0.05 2.71,0.22 3.00,-4.05 0.04,-0.71 -0.16,-2.24 -1.78,-3.76 z M 255.76,35.85 c -1.89,-0.37 -2.88,-1.29 -3.38,-1.96 -0.20,-0.26 -0.65,-0.86 -0.29,-1.27 0.16,-0.19 0.44,-0.24 0.90,-0.02 2.48,1.21 2.89,2.20 3.19,2.83 0.30,0.64 -0.04,0.49 -0.41,0.41 z" />
     </g>
</svg>
