<?xml version="1.0" encoding="UTF-8"?>
<svg version="1.1" id="Layer_1" x="0px" y="0px" width="578" height="51" viewBox="0 0 578 51"
xml:space="preserve" xmlns="http://www.w3.org/2000/svg" xmlns:svg="http://www.w3.org/2000/svg" xmlns:rdf="http://www.w3.org/1999/02/22-rdf-syntax-ns#"  xmlns:cc="http://creativecommons.org/ns#" xmlns:dc="http://purl.org/dc/elements/1.1/">
     <g>
<path d="M 296.87,42.43 c 0.16,-0.34 1.03,-2.15 0.70,-7.81 1.77,-0.22 3.71,-0.24 5.78,0.08 1.09,-3.13 1.09,-3.13 1.09,-3.13 -0.93,0.02 -3.68,0.15 -7.13,0.01 -0.12,-1.12 -0.29,-2.35 -0.50,-3.69 -0.13,-0.92 -2.75,-17.53 -2.75,-17.53 0.00,0.00 1.55,1.46 1.80,1.72 0.25,0.26 0.55,0.12 0.41,-0.30 -0.14,-0.42 -3.32,-8.09 -3.42,-8.36 -0.10,-0.27 -0.20,-0.46 -0.33,-0.15 -0.13,0.31 -0.88,2.38 -0.88,2.38 0.20,1.35 1.99,13.71 2.10,14.70 0.07,0.54 0.86,5.78 1.58,11.13 -2.66,-0.18 -5.59,-0.54 -8.35,-1.22 0.30,-1.02 0.94,-1.98 0.71,-4.06 -0.23,-2.08 -2.54,-15.83 -2.54,-15.83 0.00,0.00 1.55,1.46 1.80,1.72 0.25,0.26 0.55,0.12 0.41,-0.30 -0.14,-0.42 -3.31,-8.09 -3.42,-8.36 -0.10,-0.27 -0.20,-0.46 -0.33,-0.15 -0.13,0.31 -1.15,2.55 -1.15,2.55 0.03,0.18 0.27,0.74 0.43,1.87 0.15,1.03 3.44,19.63 3.36,21.02 -0.04,0.29 -8.05,1.02 -8.49,1.73 -0.36,0.55 -0.82,1.77 -0.95,2.05 -0.13,0.28 0.18,0.31 0.41,0.28 3.66,-0.40 11.56,1.32 12.58,1.48 0.05,0.01 0.08,0.01 0.10,0.01 0.33,0.00 -8.77,4.55 -12.95,5.14 -2.27,0.32 -8.29,1.43 -10.49,-4.65 -0.40,-1.12 -1.71,-8.68 -2.61,-10.99 -1.74,-4.50 -5.12,-11.02 -5.38,-9.77 -0.26,1.25 -0.56,2.41 -0.10,3.47 0.46,1.06 4.98,10.73 5.45,13.53 0.23,1.25 -0.20,2.05 -0.73,2.67 -0.53,0.63 -5.00,6.77 -10.76,9.14 -1.34,0.55 -6.27,2.28 -5.45,-3.63 0.18,-1.32 0.08,-2.00 -0.09,-2.25 1.58,-0.76 3.28,-1.82 4.87,-3.32 0.95,-0.90 1.34,-3.12 0.79,-5.03 -0.54,-1.91 -1.23,-3.58 -2.97,-5.21 -0.34,-0.33 -0.44,-0.39 -0.56,0.00 -0.12,0.39 -0.30,1.43 -0.37,1.73 -0.07,0.30 -0.11,0.82 0.31,1.24 0.42,0.42 1.93,2.18 2.33,3.44 0.20,0.59 0.40,1.01 -0.20,1.50 -0.59,0.50 -5.45,4.46 -11.10,4.52 -0.90,0.01 -5.68,0.09 -7.68,-4.09 -0.81,-2.00 -1.12,-4.16 -1.43,-5.72 -0.31,-1.56 -1.43,-9.35 -5.52,-14.61 -0.31,-0.37 -0.35,-0.13 -0.40,0.26 -0.04,0.40 -0.26,2.49 -0.26,2.49 0.42,0.75 4.11,9.57 4.38,12.61 0.09,1.01 0.55,2.86 -1.80,5.46 -0.69,0.76 -5.62,5.58 -9.35,6.91 -0.92,0.33 -3.36,1.20 -4.83,-1.01 -0.19,-0.28 -0.99,-1.63 -0.79,-3.49 0.15,-1.35 0.69,-3.38 2.08,-6.50 0.29,-0.68 0.00,-1.10 -0.46,-0.20 -0.46,0.90 -5.08,9.73 -0.81,13.71 0.66,0.61 3.80,2.54 9.72,-2.20 0.97,-0.78 5.81,-4.40 6.69,-7.63 0.18,-0.66 0.48,-1.34 0.48,-1.34 0.28,0.92 1.69,9.93 11.35,8.28 0.95,-0.16 2.83,-0.56 5.01,-1.52 -0.02,0.07 -0.04,0.14 -0.06,0.22 -0.16,0.92 -1.98,9.11 4.19,9.01 1.16,-0.02 5.31,-1.48 9.11,-5.34 1.00,-1.02 4.06,-3.56 4.75,-7.10 0.00,0.00 1.09,8.06 8.05,8.88 2.05,0.24 8.68,-0.46 15.51,-4.69 1.03,-0.64 3.94,-2.38 7.96,-3.22 0.39,3.07 0.69,5.83 0.73,7.32 -0.04,0.46 0.17,0.64 0.38,0.19 z M 241.61,42.25 c -0.06,-0.05 -0.15,-0.03 -0.20,0.04 -1.32,1.81 -1.32,1.81 -1.32,1.81 -2.54,-1.85 -2.54,-1.85 -2.54,-1.85 -0.06,-0.05 -0.15,-0.03 -0.20,0.04 -1.53,2.10 -1.53,2.10 -1.53,2.10 -0.05,0.07 -0.04,0.16 0.03,0.20 2.61,1.91 2.61,1.91 2.61,1.91 0.06,0.05 0.15,0.03 0.20,-0.04 1.32,-1.81 1.32,-1.81 1.32,-1.81 2.54,1.85 2.54,1.85 2.54,1.85 0.06,0.05 0.15,0.03 0.20,-0.04 1.53,-2.10 1.53,-2.10 1.53,-2.10 0.05,-0.07 0.04,-0.16 -0.03,-0.21 z M 263.61,7.71 c 0.35,0.30 1.37,0.86 1.54,0.94 0.17,0.08 0.35,0.08 0.38,-0.12 0.04,-0.20 0.22,-0.67 0.56,-0.36 0.29,0.25 2.10,1.55 3.21,4.49 0.18,0.39 0.56,0.40 0.60,-0.17 0.11,-1.41 0.04,-3.83 0.10,-4.58 0.08,-1.04 0.42,-3.20 1.81,-2.19 0.31,0.23 0.65,0.54 0.65,0.54 0.30,0.33 0.68,0.70 0.82,0.29 0.21,-0.63 0.35,-1.65 0.03,-2.17 -0.14,-0.23 -1.90,-2.17 -2.91,-0.68 -1.24,1.83 -1.16,4.12 -1.16,6.67 -0.23,-0.52 -1.56,-3.85 -5.19,-5.55 -0.26,-0.12 -0.76,0.18 -0.75,0.99 0.00,0.47 -0.05,1.62 0.30,1.91 z M 232.74,8.61 c 0.34,0.29 1.32,0.83 1.48,0.90 0.16,0.08 0.33,0.08 0.37,-0.12 0.03,-0.19 0.22,-0.64 0.54,-0.35 0.27,0.24 2.02,1.49 3.08,4.32 0.18,0.37 0.53,0.38 0.58,-0.17 0.10,-1.35 0.04,-3.68 0.10,-4.39 0.08,-1.00 0.41,-3.08 1.74,-2.11 0.30,0.22 0.63,0.52 0.63,0.52 0.29,0.32 0.65,0.68 0.79,0.28 0.20,-0.60 0.33,-1.58 0.03,-2.09 -0.14,-0.22 -1.83,-2.08 -2.79,-0.66 -1.19,1.76 -1.12,3.96 -1.12,6.41 -0.22,-0.50 -1.50,-3.70 -4.99,-5.34 -0.25,-0.12 -0.73,0.18 -0.72,0.95 0.00,0.45 -0.05,1.55 0.29,1.84 z M 266.08,43.17 c -0.55,0.28 -12.64,5.01 -13.20,5.33 -0.57,0.32 -0.77,0.40 -0.88,0.81 -0.11,0.41 -0.17,0.66 -0.20,0.72 -0.12,0.27 -0.21,0.62 0.63,0.14 0.26,-0.15 12.45,-4.93 12.92,-5.20 0.47,-0.27 0.75,-0.36 0.96,-0.79 0.21,-0.43 0.26,-0.50 0.38,-0.80 0.12,-0.32 0.25,-0.65 -0.60,-0.22 z M 266.05,21.87 c -0.09,0.50 -0.13,0.78 -0.15,0.86 -0.11,0.33 -0.17,0.75 0.75,0.10 0.29,-0.20 13.96,-7.15 14.48,-7.51 0.51,-0.36 0.83,-0.50 1.03,-1.03 0.20,-0.52 0.25,-0.61 0.35,-0.97 0.11,-0.38 0.22,-0.79 -0.72,-0.19 -0.61,0.38 -14.16,7.26 -14.79,7.70 -0.63,0.43 -0.85,0.55 -0.94,1.05 z M 229.82,39.97 c -0.54,0.29 -8.92,5.06 -9.52,5.42 -0.55,0.34 -0.69,0.52 -0.73,0.95 -0.04,0.43 -0.06,0.68 -0.08,0.75 -0.07,0.29 -0.17,0.55 0.64,0.04 0.40,-0.25 8.70,-4.88 9.26,-5.25 0.45,-0.30 0.67,-0.48 0.81,-0.94 0.13,-0.45 0.17,-0.54 0.24,-0.85 0.07,-0.33 0.18,-0.55 -0.63,-0.12 z M 273.36,23.22 c 0.18,-0.51 -0.04,-0.79 -0.29,-0.17 -0.26,0.63 -1.33,2.78 -1.16,5.32 0.04,0.59 0.43,1.73 1.31,1.76 0.46,0.00 1.05,-0.33 1.47,-1.77 0.07,-0.32 0.12,-0.58 0.15,-0.71 0.04,-0.19 -0.10,-0.43 -0.25,0.02 -0.33,0.88 -1.20,1.49 -1.85,0.32 -0.11,-0.23 -0.54,-1.30 0.26,-3.64 0.16,-0.45 0.37,-1.13 0.37,-1.13 z M 252.37,14.60 c 0.57,0.00 1.30,-0.41 1.82,-2.19 0.09,-0.40 0.15,-0.72 0.18,-0.88 0.06,-0.24 -0.12,-0.53 -0.31,0.02 -0.41,1.09 -1.49,1.85 -2.29,0.39 -0.13,-0.29 -0.67,-1.61 0.32,-4.51 0.20,-0.56 0.45,-1.40 0.45,-1.40 0.22,-0.63 -0.04,-0.98 -0.36,-0.21 -0.32,0.77 -1.64,3.44 -1.44,6.59 0.05,0.73 0.53,2.14 1.62,2.18 z M 240.23,25.65 c -0.15,-0.28 -0.81,-1.55 -0.05,-4.52 0.15,-0.58 0.34,-1.43 0.34,-1.43 0.17,-0.65 -0.13,-0.97 -0.38,-0.17 -0.25,0.80 -1.35,3.57 -0.88,6.68 0.11,0.72 0.71,2.09 1.80,2.04 0.56,-0.05 1.26,-0.52 1.63,-2.33 0.06,-0.41 0.09,-0.73 0.11,-0.89 0.04,-0.24 -0.17,-0.51 -0.30,0.05 -0.32,1.12 -1.33,1.97 -2.25,0.58 z M 220.13,12.65 c 0.53,-0.03 1.21,-0.42 1.61,-1.98 0.07,-0.35 0.10,-0.63 0.13,-0.77 0.04,-0.21 -0.14,-0.45 -0.29,0.04 -0.34,0.96 -1.32,1.67 -2.15,0.46 -0.14,-0.24 -0.72,-1.35 0.09,-3.90 0.16,-0.49 0.36,-1.23 0.36,-1.23 0.18,-0.56 -0.09,-0.84 -0.35,-0.16 -0.26,0.68 -1.38,3.05 -1.04,5.75 0.08,0.62 0.60,1.82 1.64,1.79 z M 221.13,26.17 c 0.08,0.62 0.60,1.82 1.64,1.79 0.53,-0.03 1.21,-0.42 1.61,-1.98 0.07,-0.35 0.10,-0.63 0.13,-0.77 0.04,-0.21 -0.14,-0.45 -0.29,0.04 -0.34,0.96 -1.32,1.67 -2.15,0.46 -0.14,-0.24 -0.72,-1.35 0.09,-3.90 0.16,-0.49 0.36,-1.23 0.36,-1.23 0.18,-0.56 -0.09,-0.84 -0.35,-0.16 -0.26,0.68 -1.38,3.05 -1.04,5.75 z M 214.38,27.25 c 0.71,0.02 1.65,-0.58 2.40,-3.31 0.14,-0.62 0.23,-1.12 0.28,-1.36 0.08,-0.37 -0.12,-0.82 -0.38,0.02 -0.58,1.67 -1.97,2.80 -2.89,0.50 -0.15,-0.46 -0.75,-2.54 0.67,-6.98 0.28,-0.86 0.65,-2.15 0.65,-2.15 0.32,-0.97 0.00,-1.52 -0.44,-0.33 -0.44,1.19 -2.26,5.26 -2.19,10.15 0.02,1.13 0.53,3.35 1.90,3.46 z M 333.44,20.27 c 0.48,0.00 1.11,-0.35 1.55,-1.87 0.08,-0.34 0.13,-0.62 0.16,-0.75 0.05,-0.21 -0.10,-0.45 -0.26,0.02 -0.35,0.93 -1.27,1.58 -1.96,0.33 -0.11,-0.25 -0.58,-1.38 0.28,-3.86 0.17,-0.48 0.39,-1.20 0.39,-1.20 0.19,-0.54 -0.04,-0.84 -0.31,-0.17 -0.27,0.66 -1.40,2.95 -1.23,5.64 0.04,0.62 0.45,1.83 1.39,1.86 z M 338.95,7.03 c 0.17,0.10 0.36,0.11 0.41,-0.10 0.05,-0.21 0.29,-0.68 0.62,-0.34 0.28,0.28 2.09,1.78 3.03,4.95 0.16,0.42 0.55,0.46 0.64,-0.14 0.22,-1.47 0.33,-4.02 0.45,-4.79 0.17,-1.09 0.68,-3.33 2.06,-2.16 0.31,0.26 0.64,0.61 0.64,0.61 0.29,0.37 0.66,0.79 0.84,0.36 0.27,-0.64 0.49,-1.70 0.19,-2.28 -0.13,-0.26 -1.83,-2.41 -3.00,-0.93 -1.44,1.83 -1.53,4.23 -1.72,6.91 -0.20,-0.56 -1.35,-4.16 -5.02,-6.21 -0.27,-0.15 -0.81,0.13 -0.86,0.98 -0.03,0.49 -0.17,1.69 0.18,2.03 0.35,0.34 1.37,1.01 1.54,1.10 z M 356.80,6.37 c 0.79,0.58 1.93,1.04 1.93,1.04 -3.66,4.48 -10.84,7.67 -12.56,9.01 -0.51,0.39 -0.44,0.61 -0.12,0.53 0.28,-0.08 5.76,-1.61 10.76,-5.90 2.29,-1.97 2.23,-2.11 2.81,-3.31 0.50,0.26 0.84,0.67 1.03,0.91 0.28,0.34 0.43,0.60 0.56,0.23 0.48,-1.33 -0.20,-2.13 -0.84,-2.54 0.00,0.00 0.67,-2.07 -0.56,-4.14 -0.21,-0.35 -1.43,-1.46 -2.85,0.74 -0.55,0.84 -0.96,2.85 -0.17,3.42 z M 357.52,4.34 c 0.73,-1.02 1.08,-0.98 1.36,-0.82 0.83,0.77 0.70,2.03 0.67,2.31 0.00,0.00 -1.05,-0.49 -1.52,-0.70 -0.47,-0.20 -0.72,-0.50 -0.50,-0.80 z M 315.75,12.30 c 0.25,-0.16 13.84,-8.02 14.32,-8.31 0.46,-0.29 0.72,-0.41 0.91,-0.85 0.18,-0.44 0.23,-0.52 0.33,-0.82 0.10,-0.32 0.21,-0.67 -0.61,-0.19 -0.53,0.31 -14.04,8.11 -14.59,8.46 -0.55,0.35 -0.74,0.44 -0.83,0.87 -0.09,0.42 -0.13,0.67 -0.16,0.73 -0.10,0.28 -0.17,0.63 0.64,0.10 z M 359.55,14.30 c 0.18,-0.50 -0.04,-0.77 -0.29,-0.16 -0.25,0.61 -1.30,2.73 -1.14,5.22 0.04,0.58 0.42,1.70 1.29,1.73 0.45,0.00 1.03,-0.33 1.44,-1.74 0.07,-0.32 0.12,-0.57 0.15,-0.70 0.04,-0.19 -0.10,-0.42 -0.24,0.02 -0.33,0.86 -1.18,1.47 -1.82,0.31 -0.10,-0.23 -0.53,-1.28 0.26,-3.57 0.16,-0.45 0.36,-1.11 0.36,-1.11 z M 306.03,23.91 c 0.00,0.00 1.25,-0.31 1.47,-0.38 0.22,-0.06 0.34,-0.35 -0.05,-0.55 -0.39,-0.20 -4.09,-1.67 -4.37,-1.79 -0.28,-0.11 -0.38,-0.24 -0.41,0.06 -0.02,0.30 -0.07,2.73 -0.07,2.73 0.00,0.00 -0.06,0.17 0.27,0.35 0.32,0.18 0.64,0.58 0.90,0.84 0.26,0.26 3.70,2.98 3.87,3.07 0.00,0.00 -1.72,3.02 -1.94,5.38 -0.22,2.36 0.04,5.63 3.27,4.57 0.87,-0.25 4.49,-1.69 5.30,-4.21 0.26,-0.93 1.01,-2.61 -0.21,-4.31 -0.70,-1.00 -3.53,-2.69 -3.53,-2.69 0.00,0.00 2.17,-3.00 2.38,-3.37 0.21,-0.37 1.00,-2.69 1.09,-3.26 0.09,-0.56 0.13,-0.84 -0.29,-0.32 -0.42,0.52 -4.63,6.05 -4.63,6.05 z M 312.98,32.79 c -1.20,0.99 -3.72,2.29 -4.43,2.36 -0.71,0.07 -2.59,-0.28 -1.77,-2.20 0.28,-0.62 2.16,-3.84 2.16,-3.84 0.70,0.39 5.24,2.70 4.04,3.69 z M 306.65,14.16 c -0.06,-0.05 -0.15,-0.03 -0.20,0.04 -1.53,2.10 -1.53,2.10 -1.53,2.10 -0.05,0.07 -0.04,0.16 0.03,0.21 2.61,1.91 2.61,1.91 2.61,1.91 0.06,0.05 0.15,0.03 0.20,-0.04 1.32,-1.81 1.32,-1.81 1.32,-1.81 2.54,1.85 2.54,1.85 2.54,1.85 0.06,0.05 0.15,0.03 0.20,-0.04 1.53,-2.10 1.53,-2.10 1.53,-2.10 0.05,-0.07 0.04,-0.16 -0.03,-0.20 -2.61,-1.91 -2.61,-1.91 -2.61,-1.91 -0.06,-0.05 -0.15,-0.03 -0.20,0.04 -1.32,1.81 -1.32,1.81 -1.32,1.81 z M 299.07,13.78 c 0.17,-0.04 3.05,-0.49 6.41,-3.05 1.82,-1.38 2.92,-3.74 2.92,-3.74 0.00,0.00 0.91,0.76 1.03,0.91 0.28,0.34 0.43,0.60 0.56,0.23 0.48,-1.33 -0.20,-2.13 -0.84,-2.54 0.00,0.00 0.67,-2.07 -0.56,-4.14 -0.21,-0.35 -1.43,-1.46 -2.85,0.74 -0.55,0.84 -0.96,2.85 -0.18,3.42 0.79,0.58 1.94,1.04 1.94,1.04 -3.66,4.48 -6.16,5.34 -8.30,6.59 -0.55,0.32 -0.44,0.61 -0.12,0.53 z M 306.79,4.39 c -0.47,-0.20 -0.72,-0.50 -0.50,-0.80 0.73,-1.02 1.08,-0.98 1.36,-0.82 0.83,0.77 0.70,2.02 0.67,2.31 0.00,0.00 -1.05,-0.49 -1.52,-0.70 z M 361.93,37.21 c -0.24,0.68 -0.34,1.12 -0.32,1.38 0.03,0.26 0.12,1.10 0.12,1.10 -0.25,0.20 -1.33,0.87 -2.40,0.08 0.07,-0.23 0.21,-0.70 0.24,-0.95 0.12,-0.40 -0.13,-0.69 -0.32,-0.28 -0.20,0.41 -0.65,1.79 -0.99,2.10 -0.34,0.31 -0.73,1.45 -3.30,0.29 -0.45,-0.17 -1.23,-0.75 -2.46,0.48 -2.77,2.57 -4.68,2.77 -7.79,3.88 -0.38,0.17 -1.16,0.77 -0.23,0.67 0.94,-0.09 4.87,0.00 7.01,-2.46 0.45,-0.43 0.96,-1.58 2.66,-0.92 0.94,0.36 2.68,1.85 4.58,-1.10 1.12,0.75 2.82,0.45 3.09,-0.38 0.27,-0.82 0.58,-1.64 0.58,-2.20 0.00,-0.56 -0.05,-1.30 -0.05,-1.30 -0.04,-0.44 -0.19,-1.07 -0.44,-0.40 z M 365.13,24.89 c -0.25,-0.28 -0.38,-0.01 -0.46,0.31 -0.09,0.32 -0.36,1.52 -0.54,2.27 0.00,0.00 0.71,1.16 0.97,1.75 0.25,0.59 -0.12,0.92 -0.86,1.01 -2.08,0.25 -3.73,-0.94 -4.30,-1.48 -0.57,-0.55 0.05,-1.52 0.51,-2.68 0.37,-0.93 -0.32,-1.04 -0.84,0.00 -1.76,4.63 -4.23,5.12 -4.88,5.30 -5.86,1.60 -5.36,-3.76 -5.33,-4.64 0.02,-0.88 -0.62,-0.55 -1.34,0.03 -2.47,1.98 -4.45,3.14 -5.52,3.62 -0.92,-1.80 -2.26,-2.93 -2.82,-3.33 -6.34,-4.63 -6.87,4.71 -6.67,5.71 0.97,3.97 7.44,1.56 8.46,1.44 1.02,-0.12 0.68,1.22 0.11,2.02 -1.41,1.97 -3.03,3.38 -4.50,4.58 -6.28,5.13 -9.43,4.72 -10.41,4.69 -6.17,-0.17 -5.60,-6.82 -5.26,-8.24 1.86,-1.57 3.45,-3.28 4.38,-5.04 0.38,-0.96 1.03,-3.16 -0.15,-5.91 -0.62,-1.21 -2.56,-4.60 -2.56,-4.60 0.00,0.00 1.43,0.04 1.57,0.04 0.14,0.00 0.41,-0.14 0.06,-0.55 -0.35,-0.40 -3.36,-3.40 -3.54,-3.65 -0.18,-0.24 -0.35,-0.41 -0.45,-0.06 -0.10,0.36 -0.36,1.88 -0.42,2.20 -0.06,0.31 -0.06,0.63 0.10,0.90 0.15,0.27 0.55,1.20 0.84,1.96 0.29,0.76 3.26,6.47 3.53,6.98 0.27,0.51 0.33,0.88 0.06,1.22 -9.53,10.05 -27.91,16.23 -28.50,16.57 -0.59,0.34 -0.43,0.61 0.56,0.43 1.48,-0.26 9.74,-1.64 12.09,-2.77 1.55,-0.75 6.98,-3.41 11.41,-6.89 -0.12,0.90 -0.24,2.22 -0.18,3.89 0.30,8.08 7.53,6.74 9.43,6.33 5.68,-1.25 12.64,-9.11 13.23,-10.68 0.58,-1.56 0.67,-2.98 0.54,-4.22 1.50,-0.81 4.71,-3.40 4.71,-3.40 0.13,3.45 2.87,4.48 3.72,4.63 3.96,0.60 5.94,-2.71 6.78,-3.78 0.72,1.89 2.45,2.26 3.34,2.43 3.41,0.68 4.08,-1.74 4.26,-2.29 1.07,-3.33 -0.86,-5.81 -1.11,-6.08 z M 336.50,31.57 c -2.03,-0.14 -1.85,-0.92 -1.57,-1.22 0.30,-0.33 2.78,-1.89 4.85,0.89 0.00,0.00 -0.86,0.50 -3.28,0.33 z M 292.35,44.36 c -0.41,0.43 -2.25,2.14 -4.21,2.23 -1.52,-0.11 -1.74,-1.39 -1.35,-2.01 0.39,-0.62 1.89,-2.09 2.15,-2.47 0.26,-0.38 0.49,-0.96 0.49,-0.96 0.14,-0.41 0.21,-0.68 -0.22,-0.70 -0.43,-0.02 -1.93,-0.30 -2.56,0.69 -0.11,0.22 -0.53,0.94 -0.59,1.09 -0.06,0.15 0.00,0.32 0.11,0.21 0.11,-0.12 0.07,-0.74 2.00,-0.71 0.28,0.00 0.38,0.08 0.26,0.22 -0.11,0.14 -1.84,1.63 -2.28,3.62 -0.54,2.89 2.23,2.36 2.81,2.13 0.35,-0.14 2.12,-0.94 3.50,-3.02 0.19,-0.30 0.30,-0.74 -0.11,-0.30 z" />
     </g>
</svg>
