<?xml version="1.0" encoding="UTF-8"?>
<svg version="1.1" id="Layer_1" x="0px" y="0px" width="578" height="53" viewBox="0 0 578 53"
xml:space="preserve" xmlns="http://www.w3.org/2000/svg" xmlns:svg="http://www.w3.org/2000/svg" xmlns:rdf="http://www.w3.org/1999/02/22-rdf-syntax-ns#"  xmlns:cc="http://creativecommons.org/ns#" xmlns:dc="http://purl.org/dc/elements/1.1/">
     <g>
<path d="M 284.74,47.00 c -1.92,2.63 -1.92,2.63 -1.92,2.63 -0.06,0.08 -0.05,0.20 0.03,0.25 3.27,2.38 3.27,2.38 3.27,2.38 0.08,0.06 0.19,0.04 0.25,-0.05 1.91,-2.63 1.91,-2.63 1.91,-2.63 0.06,-0.08 0.05,-0.20 -0.03,-0.25 -3.27,-2.38 -3.27,-2.38 -3.27,-2.38 -0.08,-0.06 -0.19,-0.04 -0.25,0.05 z M 302.99,44.77 c 0.21,-0.44 1.67,-3.46 -0.06,-14.54 -0.13,-0.92 -2.76,-19.64 -2.76,-19.64 0.00,0.00 1.55,1.46 1.80,1.72 0.25,0.26 0.55,0.12 0.41,-0.30 -0.14,-0.42 -3.32,-8.09 -3.42,-8.36 -0.10,-0.27 -0.20,-0.46 -0.33,-0.15 -0.13,0.31 -0.88,2.38 -0.88,2.38 0.20,1.35 1.99,15.82 2.10,16.81 0.12,0.99 2.63,17.36 2.76,21.89 -0.04,0.46 0.17,0.64 0.38,0.19 z M 288.74,29.97 c 0.24,0.76 0.48,1.35 0.71,1.71 3.19,4.83 5.95,2.75 6.43,2.08 0.73,-1.03 1.68,-4.13 -0.15,-6.06 -1.54,-1.62 -4.44,-1.23 -5.83,-0.94 -0.36,-1.16 -0.71,-2.61 -0.99,-4.40 -0.29,-1.83 -1.86,-12.23 -1.68,-11.90 0.00,0.00 1.62,1.57 1.86,1.84 0.25,0.26 0.55,0.12 0.41,-0.30 -0.14,-0.42 -3.31,-8.09 -3.42,-8.36 -0.10,-0.27 -0.21,-0.46 -0.33,-0.15 -0.13,0.31 -1.15,2.55 -1.15,2.55 0.03,0.18 0.27,0.73 0.43,1.87 0.13,0.90 0.31,2.11 0.51,3.46 0.00,0.00 1.15,9.85 2.51,15.96 -2.47,0.95 -8.18,3.54 -12.66,7.98 -0.56,0.61 -2.57,3.63 -2.11,3.67 0.46,0.03 13.67,1.60 13.67,1.60 -1.48,0.56 -11.94,6.88 -18.85,4.84 -1.85,-0.55 -5.06,-1.50 -6.01,-9.50 -0.23,-1.92 -1.16,-12.47 -1.48,-15.41 -0.33,-2.94 -1.95,-13.23 -2.31,-14.59 -0.36,-1.35 -0.69,-1.29 -0.99,-0.59 -0.30,0.69 -0.83,2.09 -0.83,2.09 3.44,15.91 3.27,26.12 3.69,29.99 0.66,6.07 1.85,10.30 8.27,11.55 3.24,0.63 7.24,0.79 19.23,-5.94 1.61,-0.91 8.67,-2.46 10.82,-2.07 1.19,-2.82 1.19,-2.82 1.19,-2.82 -1.67,0.00 -16.95,-0.78 -22.09,-1.90 0.49,-0.69 6.43,-4.78 11.13,-6.25 z M 292.30,29.50 c 2.26,0.39 3.73,2.08 2.38,2.20 -1.35,0.12 -2.71,-0.77 -3.17,-1.36 -0.12,-0.16 -0.30,-0.43 -0.52,-0.85 0.47,-0.05 0.91,-0.05 1.31,0.01 z M 264.36,23.65 c 0.54,0.09 0.85,0.40 0.99,0.58 0.06,0.08 0.15,0.02 0.17,-0.03 0.61,-1.21 0.06,-1.97 -0.99,-2.27 -0.42,-0.12 -0.60,-0.70 0.93,-1.68 1.41,-0.91 15.41,-7.99 15.72,-8.21 0.42,-0.30 0.68,-0.41 0.85,-0.83 0.16,-0.42 0.21,-0.50 0.29,-0.79 0.09,-0.31 0.18,-0.65 -0.59,-0.16 -0.41,0.25 -15.77,7.91 -16.95,8.86 -0.59,0.48 -1.08,1.24 -1.25,2.06 -0.25,1.19 0.05,2.36 0.82,2.49 z M 217.96,13.89 c 0.54,0.09 0.85,0.40 0.99,0.58 0.06,0.08 0.15,0.02 0.17,-0.03 0.61,-1.21 0.06,-1.97 -0.99,-2.27 -0.42,-0.12 -0.60,-0.70 0.94,-1.68 1.41,-0.91 15.41,-7.99 15.72,-8.21 0.42,-0.30 0.68,-0.41 0.85,-0.83 0.16,-0.42 0.21,-0.50 0.29,-0.79 0.09,-0.31 0.18,-0.65 -0.59,-0.16 -0.41,0.26 -15.77,7.91 -16.95,8.86 -0.59,0.48 -1.08,1.24 -1.25,2.06 -0.25,1.19 0.05,2.36 0.82,2.49 z M 280.29,17.07 c -0.63,0.82 -1.21,2.85 -0.45,3.50 0.76,0.66 1.91,1.22 1.91,1.22 -4.12,4.32 -9.69,8.25 -11.99,9.37 -0.59,0.29 -0.50,0.59 -0.16,0.53 0.17,-0.03 3.16,-0.88 6.85,-3.20 3.10,-1.95 6.21,-6.29 6.21,-6.29 0.00,0.00 0.88,0.85 0.99,1.02 0.26,0.37 0.39,0.65 0.55,0.29 0.60,-1.33 -0.04,-2.20 -0.67,-2.68 0.00,0.00 0.85,-2.07 -0.25,-4.30 -0.19,-0.37 -1.35,-1.61 -2.99,0.53 z M 282.72,20.24 c 0.00,0.00 -1.04,-0.59 -1.51,-0.84 -0.47,-0.24 -0.70,-0.57 -0.45,-0.86 0.83,-0.99 1.19,-0.93 1.46,-0.73 0.79,0.85 0.56,2.14 0.50,2.43 z M 215.53,28.54 c 2.61,1.91 2.61,1.91 2.61,1.91 0.06,0.05 0.15,0.03 0.20,-0.04 1.32,-1.81 1.32,-1.81 1.32,-1.81 2.54,1.85 2.54,1.85 2.54,1.85 0.06,0.05 0.15,0.03 0.20,-0.04 1.53,-2.10 1.53,-2.10 1.53,-2.10 0.05,-0.07 0.04,-0.16 -0.03,-0.20 -2.61,-1.91 -2.61,-1.91 -2.61,-1.91 -0.06,-0.05 -0.15,-0.03 -0.20,0.04 -1.32,1.81 -1.32,1.81 -1.32,1.81 -2.54,-1.85 -2.54,-1.85 -2.54,-1.85 -0.06,-0.05 -0.15,-0.03 -0.20,0.04 -1.53,2.10 -1.53,2.10 -1.53,2.10 -0.05,0.07 -0.04,0.16 0.03,0.21 z M 207.05,11.22 c 0.16,0.09 0.34,0.10 0.39,-0.09 0.05,-0.19 0.27,-0.65 0.59,-0.32 0.27,0.27 1.99,1.69 2.88,4.71 0.15,0.40 0.53,0.44 0.61,-0.13 0.21,-1.40 0.32,-3.82 0.43,-4.56 0.16,-1.03 0.65,-3.16 1.96,-2.06 0.30,0.25 0.61,0.58 0.61,0.58 0.28,0.35 0.63,0.75 0.80,0.35 0.26,-0.61 0.46,-1.62 0.18,-2.17 -0.12,-0.24 -1.75,-2.30 -2.85,-0.89 -1.37,1.74 -1.46,4.03 -1.64,6.58 -0.19,-0.53 -1.29,-3.95 -4.78,-5.91 -0.25,-0.14 -0.77,0.13 -0.82,0.93 -0.03,0.47 -0.16,1.61 0.17,1.93 0.33,0.32 1.31,0.96 1.47,1.05 z M 227.63,46.22 c -0.58,0.19 -9.77,4.09 -10.42,4.35 -0.60,0.24 -0.77,0.39 -0.88,0.81 -0.11,0.41 -0.17,0.66 -0.20,0.72 -0.12,0.28 -0.26,0.51 0.63,0.14 0.43,-0.18 9.52,-3.95 10.14,-4.22 0.49,-0.22 0.75,-0.36 0.96,-0.79 0.21,-0.43 0.26,-0.50 0.38,-0.80 0.12,-0.32 0.27,-0.51 -0.60,-0.23 z M 257.72,48.72 c -0.34,0.89 -1.21,1.51 -1.87,0.32 -0.11,-0.24 -0.55,-1.31 0.26,-3.67 0.16,-0.46 0.37,-1.14 0.37,-1.14 0.18,-0.52 -0.04,-0.80 -0.30,-0.17 -0.26,0.63 -1.34,2.81 -1.17,5.37 0.04,0.59 0.43,1.75 1.32,1.78 0.46,0.00 1.06,-0.34 1.48,-1.79 0.07,-0.33 0.12,-0.59 0.15,-0.72 0.05,-0.20 -0.10,-0.43 -0.25,0.02 z M 298.91,47.43 c -0.34,0.89 -1.21,1.51 -1.87,0.32 -0.11,-0.24 -0.55,-1.31 0.26,-3.67 0.16,-0.46 0.37,-1.14 0.37,-1.14 0.18,-0.52 -0.04,-0.80 -0.30,-0.17 -0.26,0.63 -1.34,2.81 -1.17,5.37 0.04,0.59 0.43,1.75 1.32,1.78 0.46,0.00 1.06,-0.34 1.48,-1.79 0.07,-0.33 0.12,-0.59 0.15,-0.72 0.05,-0.20 -0.10,-0.43 -0.25,0.02 z M 243.36,34.06 c 0.18,-0.52 -0.04,-0.80 -0.30,-0.17 -0.26,0.63 -1.34,2.81 -1.17,5.37 0.04,0.59 0.43,1.75 1.32,1.78 0.46,0.00 1.06,-0.34 1.48,-1.79 0.07,-0.33 0.12,-0.59 0.15,-0.72 0.05,-0.20 -0.10,-0.43 -0.25,0.02 -0.34,0.89 -1.21,1.51 -1.87,0.32 -0.11,-0.24 -0.55,-1.31 0.26,-3.67 0.16,-0.46 0.37,-1.14 0.37,-1.14 z M 250.39,23.69 c 0.04,0.59 0.43,1.75 1.32,1.78 0.46,0.00 1.06,-0.34 1.48,-1.79 0.07,-0.33 0.12,-0.59 0.15,-0.72 0.05,-0.20 -0.10,-0.43 -0.25,0.02 -0.34,0.89 -1.21,1.51 -1.87,0.32 -0.11,-0.24 -0.55,-1.31 0.26,-3.67 0.16,-0.46 0.37,-1.14 0.37,-1.14 0.18,-0.52 -0.04,-0.80 -0.30,-0.17 -0.26,0.63 -1.34,2.81 -1.17,5.37 z M 225.51,16.86 c 0.17,-0.48 -0.03,-0.74 -0.27,-0.15 -0.24,0.59 -1.25,2.61 -1.09,5.00 0.04,0.55 0.40,1.63 1.23,1.65 0.43,0.00 0.98,-0.31 1.38,-1.66 0.07,-0.30 0.11,-0.55 0.14,-0.67 0.04,-0.18 -0.09,-0.40 -0.23,0.02 -0.31,0.83 -1.13,1.41 -1.74,0.30 -0.10,-0.22 -0.51,-1.22 0.25,-3.42 0.15,-0.43 0.35,-1.06 0.35,-1.06 z M 269.68,14.03 c 0.55,-0.03 1.25,-0.48 1.65,-2.26 0.06,-0.40 0.10,-0.72 0.13,-0.88 0.04,-0.24 -0.15,-0.51 -0.30,0.04 -0.34,1.10 -1.35,1.91 -2.22,0.51 -0.14,-0.28 -0.75,-1.56 0.06,-4.47 0.16,-0.57 0.37,-1.41 0.37,-1.41 0.18,-0.64 -0.10,-0.96 -0.37,-0.18 -0.27,0.78 -1.41,3.49 -1.04,6.58 0.09,0.72 0.64,2.09 1.71,2.06 z M 319.85,14.64 c 0.25,-0.16 13.84,-8.02 14.32,-8.31 0.46,-0.29 0.72,-0.41 0.91,-0.85 0.18,-0.44 0.23,-0.51 0.33,-0.82 0.10,-0.32 0.21,-0.67 -0.61,-0.19 -0.53,0.31 -14.04,8.11 -14.59,8.46 -0.55,0.35 -0.74,0.44 -0.83,0.87 -0.09,0.42 -0.13,0.67 -0.16,0.73 -0.10,0.28 -0.17,0.63 0.64,0.10 z M 363.65,16.64 c 0.18,-0.50 -0.04,-0.77 -0.29,-0.16 -0.25,0.61 -1.30,2.73 -1.14,5.22 0.04,0.58 0.42,1.70 1.29,1.73 0.45,0.00 1.03,-0.33 1.44,-1.73 0.07,-0.32 0.12,-0.57 0.15,-0.70 0.04,-0.19 -0.10,-0.42 -0.24,0.02 -0.33,0.86 -1.18,1.47 -1.82,0.31 -0.10,-0.23 -0.53,-1.28 0.26,-3.57 0.16,-0.44 0.36,-1.11 0.36,-1.11 z M 337.54,22.61 c 0.48,0.00 1.11,-0.35 1.55,-1.87 0.08,-0.34 0.13,-0.62 0.16,-0.75 0.05,-0.21 -0.10,-0.45 -0.26,0.02 -0.35,0.93 -1.27,1.58 -1.96,0.33 -0.11,-0.25 -0.58,-1.38 0.28,-3.86 0.17,-0.48 0.39,-1.20 0.39,-1.20 0.19,-0.54 -0.04,-0.84 -0.31,-0.17 -0.27,0.66 -1.40,2.94 -1.23,5.64 0.04,0.62 0.45,1.83 1.39,1.87 z M 343.04,9.36 c 0.17,0.09 0.36,0.11 0.41,-0.10 0.05,-0.21 0.29,-0.68 0.62,-0.34 0.28,0.28 2.09,1.78 3.03,4.95 0.16,0.42 0.55,0.46 0.64,-0.14 0.22,-1.47 0.34,-4.02 0.45,-4.79 0.16,-1.09 0.68,-3.32 2.06,-2.16 0.31,0.26 0.64,0.61 0.64,0.61 0.29,0.37 0.66,0.79 0.84,0.36 0.27,-0.64 0.49,-1.70 0.19,-2.28 -0.13,-0.26 -1.84,-2.41 -3.00,-0.93 -1.44,1.83 -1.53,4.23 -1.72,6.91 -0.20,-0.56 -1.35,-4.16 -5.02,-6.21 -0.27,-0.15 -0.81,0.13 -0.86,0.98 -0.03,0.49 -0.17,1.69 0.18,2.03 0.35,0.34 1.37,1.01 1.54,1.10 z M 360.89,8.71 c 0.79,0.58 1.93,1.04 1.93,1.04 -3.66,4.48 -10.84,7.67 -12.55,9.01 -0.51,0.39 -0.44,0.61 -0.12,0.53 0.29,-0.08 5.76,-1.61 10.76,-5.90 2.29,-1.97 2.23,-2.11 2.82,-3.31 0.50,0.26 0.84,0.67 1.03,0.91 0.28,0.34 0.43,0.60 0.56,0.23 0.48,-1.33 -0.20,-2.13 -0.84,-2.54 0.00,0.00 0.67,-2.07 -0.56,-4.14 -0.21,-0.35 -1.43,-1.46 -2.85,0.74 -0.55,0.84 -0.96,2.85 -0.17,3.42 z M 361.62,6.68 c 0.73,-1.02 1.08,-0.99 1.36,-0.82 0.83,0.77 0.70,2.02 0.67,2.31 0.00,0.00 -1.05,-0.49 -1.52,-0.69 -0.47,-0.20 -0.72,-0.50 -0.50,-0.80 z M 366.02,39.55 c -0.25,0.68 -0.34,1.12 -0.32,1.38 0.03,0.26 0.12,1.09 0.12,1.09 -0.25,0.20 -1.33,0.87 -2.40,0.08 0.07,-0.23 0.21,-0.70 0.24,-0.95 0.12,-0.40 -0.13,-0.69 -0.32,-0.28 -0.20,0.41 -0.65,1.79 -0.99,2.10 -0.34,0.31 -0.73,1.45 -3.30,0.29 -0.45,-0.17 -1.23,-0.75 -2.46,0.48 -2.77,2.57 -4.68,2.77 -7.79,3.88 -0.38,0.17 -1.16,0.76 -0.23,0.67 0.94,-0.09 4.87,0.00 7.01,-2.46 0.45,-0.43 0.96,-1.58 2.66,-0.92 0.94,0.36 2.68,1.85 4.58,-1.10 1.12,0.75 2.82,0.45 3.09,-0.38 0.27,-0.82 0.58,-1.64 0.58,-2.20 0.00,-0.56 -0.05,-1.30 -0.05,-1.30 -0.04,-0.44 -0.19,-1.07 -0.44,-0.40 z M 369.23,27.23 c -0.25,-0.28 -0.38,-0.01 -0.46,0.31 -0.09,0.32 -0.36,1.52 -0.53,2.27 0.00,0.00 0.71,1.16 0.97,1.75 0.25,0.59 -0.12,0.92 -0.86,1.01 -2.08,0.25 -3.73,-0.94 -4.30,-1.48 -0.57,-0.55 0.05,-1.52 0.51,-2.68 0.37,-0.93 -0.32,-1.04 -0.84,0.00 -1.76,4.63 -4.23,5.13 -4.88,5.30 -5.86,1.60 -5.36,-3.76 -5.34,-4.64 0.02,-0.88 -0.62,-0.55 -1.34,0.03 -2.47,1.98 -4.45,3.14 -5.52,3.62 -0.92,-1.80 -2.26,-2.93 -2.82,-3.34 -6.34,-4.63 -6.86,4.71 -6.67,5.71 0.97,3.97 7.44,1.56 8.46,1.44 1.01,-0.12 0.68,1.22 0.11,2.02 -1.41,1.97 -3.03,3.38 -4.50,4.58 -6.28,5.13 -9.43,4.72 -10.41,4.69 -6.17,-0.17 -5.60,-6.82 -5.26,-8.24 1.86,-1.57 3.45,-3.28 4.38,-5.04 0.38,-0.96 1.03,-3.16 -0.15,-5.91 -0.62,-1.21 -2.56,-4.60 -2.56,-4.60 0.00,0.00 1.43,0.04 1.57,0.04 0.14,0.00 0.41,-0.14 0.06,-0.54 -0.35,-0.40 -3.36,-3.41 -3.54,-3.65 -0.18,-0.24 -0.35,-0.41 -0.45,-0.06 -0.10,0.36 -0.36,1.88 -0.42,2.20 -0.06,0.31 -0.06,0.63 0.10,0.90 0.15,0.27 0.55,1.20 0.84,1.96 0.29,0.76 3.26,6.47 3.53,6.98 0.27,0.51 0.33,0.88 0.06,1.22 -9.53,10.05 -27.91,16.23 -28.50,16.58 -0.59,0.34 -0.43,0.61 0.56,0.43 1.48,-0.26 9.74,-1.64 12.09,-2.77 1.55,-0.75 6.97,-3.41 11.41,-6.89 -0.12,0.90 -0.24,2.22 -0.18,3.89 0.30,8.08 7.53,6.74 9.43,6.33 5.68,-1.25 12.64,-9.11 13.23,-10.68 0.58,-1.56 0.67,-2.98 0.54,-4.22 1.50,-0.81 4.71,-3.40 4.71,-3.40 0.13,3.45 2.88,4.48 3.72,4.63 3.96,0.60 5.94,-2.70 6.78,-3.78 0.72,1.89 2.45,2.26 3.34,2.43 3.41,0.68 4.08,-1.73 4.26,-2.29 1.07,-3.33 -0.86,-5.81 -1.11,-6.08 z M 340.59,33.91 c -2.03,-0.14 -1.85,-0.92 -1.57,-1.22 0.30,-0.33 2.78,-1.89 4.85,0.89 0.00,0.00 -0.86,0.50 -3.28,0.33 z M 310.12,26.25 c 0.00,0.00 1.25,-0.31 1.47,-0.38 0.22,-0.06 0.34,-0.35 -0.05,-0.55 -0.39,-0.20 -4.09,-1.67 -4.37,-1.79 -0.28,-0.11 -0.38,-0.24 -0.41,0.06 -0.02,0.30 -0.07,2.73 -0.07,2.73 0.00,0.00 -0.06,0.17 0.27,0.35 0.32,0.18 0.64,0.58 0.90,0.84 0.26,0.26 3.70,2.98 3.87,3.07 0.00,0.00 -1.72,3.02 -1.94,5.38 -0.22,2.36 0.04,5.63 3.27,4.58 0.87,-0.25 4.49,-1.69 5.30,-4.21 0.26,-0.93 1.01,-2.61 -0.21,-4.31 -0.70,-1.00 -3.53,-2.69 -3.53,-2.69 0.00,0.00 2.17,-3.00 2.38,-3.37 0.21,-0.37 1.00,-2.69 1.09,-3.26 0.09,-0.56 0.13,-0.84 -0.29,-0.32 -0.42,0.52 -4.63,6.05 -4.63,6.05 z M 317.08,35.13 c -1.20,0.99 -3.72,2.29 -4.43,2.36 -0.71,0.07 -2.59,-0.28 -1.77,-2.20 0.28,-0.62 2.16,-3.84 2.16,-3.84 0.70,0.39 5.24,2.70 4.04,3.69 z M 310.75,16.50 c -0.06,-0.05 -0.15,-0.03 -0.20,0.04 -1.53,2.10 -1.53,2.10 -1.53,2.10 -0.05,0.07 -0.04,0.16 0.03,0.20 2.61,1.91 2.61,1.91 2.61,1.91 0.06,0.05 0.15,0.03 0.20,-0.04 1.32,-1.81 1.32,-1.81 1.32,-1.81 2.54,1.85 2.54,1.85 2.54,1.85 0.06,0.05 0.15,0.03 0.20,-0.04 1.53,-2.10 1.53,-2.10 1.53,-2.10 0.05,-0.07 0.04,-0.16 -0.03,-0.20 -2.61,-1.91 -2.61,-1.91 -2.61,-1.91 -0.06,-0.05 -0.15,-0.03 -0.20,0.04 -1.32,1.81 -1.32,1.81 -1.32,1.81 z M 303.17,16.12 c 0.17,-0.04 3.05,-0.49 6.41,-3.05 1.82,-1.38 2.92,-3.74 2.92,-3.74 0.00,0.00 0.91,0.76 1.03,0.91 0.28,0.34 0.43,0.60 0.56,0.23 0.48,-1.33 -0.20,-2.13 -0.84,-2.54 0.00,0.00 0.67,-2.07 -0.56,-4.14 -0.21,-0.35 -1.43,-1.46 -2.85,0.74 -0.55,0.84 -0.96,2.85 -0.17,3.42 0.79,0.58 1.93,1.04 1.93,1.04 -3.66,4.48 -6.16,5.34 -8.30,6.59 -0.55,0.32 -0.44,0.61 -0.12,0.53 z M 310.88,6.72 c -0.47,-0.20 -0.72,-0.50 -0.50,-0.80 0.73,-1.02 1.08,-0.99 1.36,-0.82 0.82,0.77 0.70,2.02 0.67,2.31 0.00,0.00 -1.05,-0.49 -1.52,-0.69 z M 242.61,10.00 c 0.17,0.09 0.35,0.11 0.40,-0.10 0.05,-0.21 0.28,-0.68 0.61,-0.34 0.24,0.24 2.17,1.94 2.76,4.27 0.49,2.02 -4.48,6.10 -4.74,6.29 -0.47,0.33 -0.32,0.55 -0.10,0.43 0.22,-0.12 0.43,-0.15 2.98,-1.83 2.06,-1.36 2.49,-2.93 2.66,-4.14 0.02,-0.06 0.04,-0.13 0.05,-0.21 0.21,-1.47 0.33,-4.02 0.44,-4.79 0.16,-1.09 0.67,-3.33 2.03,-2.16 0.31,0.26 0.63,0.61 0.63,0.61 0.29,0.37 0.65,0.79 0.83,0.36 0.27,-0.64 0.48,-1.70 0.19,-2.28 -0.13,-0.26 -1.81,-2.41 -2.95,-0.93 -1.42,1.83 -1.51,4.23 -1.69,6.91 -0.20,-0.56 -1.33,-4.15 -4.95,-6.21 -0.26,-0.15 -0.80,0.13 -0.85,0.98 -0.03,0.49 -0.17,1.69 0.17,2.03 0.34,0.34 1.35,1.01 1.52,1.10 z M 255.20,32.87 c -1.32,-0.89 -5.07,-1.98 -6.83,-2.74 -1.72,-0.66 -4.96,-2.70 -4.96,-2.70 0.00,0.00 1.19,-0.21 1.54,-0.28 0.35,-0.07 0.48,-0.38 0.02,-0.64 -0.47,-0.26 -4.25,-1.56 -4.67,-1.68 -0.41,-0.12 -0.47,-0.15 -0.48,0.19 -0.02,0.35 0.20,2.93 0.20,2.93 0.40,0.41 2.25,2.44 5.91,4.11 0.70,0.32 8.38,3.12 10.26,5.04 0.63,0.83 0.73,1.12 0.10,1.55 -0.63,0.43 -13.97,8.69 -16.90,9.97 -0.60,0.26 -6.46,2.82 -5.12,-5.28 0.05,-0.31 0.01,-0.56 -0.08,-0.69 1.45,-1.01 2.95,-2.99 2.87,-6.78 -0.05,-2.86 -1.67,-11.09 -1.67,-11.09 -2.53,-11.54 -2.53,-11.54 -2.53,-11.54 0.00,0.00 1.55,1.46 1.80,1.72 0.25,0.26 0.55,0.12 0.41,-0.30 -0.14,-0.42 -3.31,-8.09 -3.42,-8.36 -0.10,-0.27 -0.20,-0.46 -0.33,-0.15 -0.13,0.31 -1.15,2.55 -1.15,2.55 0.03,0.18 0.27,0.73 0.43,1.87 0.13,0.90 4.76,22.88 5.02,24.60 0.26,1.72 0.40,3.10 -1.06,3.96 -1.45,0.86 -7.72,3.83 -10.49,-2.57 -0.61,-1.41 -2.19,-2.99 -4.75,-0.53 -3.37,3.23 -4.62,7.85 -5.21,9.17 -0.59,1.32 -2.39,3.77 -4.95,0.99 -2.99,-3.24 -2.45,-8.15 -2.34,-8.94 0.03,-0.20 0.02,-0.41 -0.02,-0.60 0.03,0.00 0.07,0.02 0.10,0.02 0.76,0.01 1.76,-0.69 2.53,-3.83 0.14,-0.71 0.22,-1.28 0.28,-1.56 0.08,-0.42 -0.14,-0.94 -0.41,0.04 -0.60,1.92 -2.08,3.24 -3.11,0.63 -0.16,-0.52 -0.85,-2.88 0.61,-7.99 0.29,-0.99 0.67,-2.47 0.67,-2.47 0.33,-1.12 -0.02,-1.74 -0.48,-0.37 -0.46,1.36 -2.34,6.06 -2.19,11.64 0.03,1.09 0.46,3.04 1.47,3.70 -0.03,0.10 -0.07,0.22 -0.10,0.37 -0.27,1.38 -1.19,10.90 4.26,13.46 1.61,0.76 3.38,0.33 4.96,-4.80 0.33,-1.08 2.03,-4.95 4.30,-6.61 0.27,-0.19 1.16,-0.94 1.92,-0.94 0.45,0.00 0.97,0.28 1.66,1.45 1.30,2.21 3.16,5.02 8.53,4.26 0.36,-0.05 1.05,-0.22 1.83,-0.64 -0.05,0.12 -0.10,0.27 -0.15,0.45 -0.36,1.39 -1.54,6.95 1.09,8.42 1.39,0.77 3.43,1.32 9.80,-2.51 1.96,-1.18 10.39,-6.47 11.62,-7.46 1.22,-0.99 2.31,-3.30 1.91,-5.05 -0.33,-1.45 -0.65,-2.57 -2.71,-3.96 z" />
     </g>
</svg>
