<?xml version="1.0" encoding="UTF-8"?>
<svg version="1.1" id="Layer_1" x="0px" y="0px" width="578" height="50" viewBox="0 0 578 50"
xml:space="preserve" xmlns="http://www.w3.org/2000/svg" xmlns:svg="http://www.w3.org/2000/svg" xmlns:rdf="http://www.w3.org/1999/02/22-rdf-syntax-ns#"  xmlns:cc="http://creativecommons.org/ns#" xmlns:dc="http://purl.org/dc/elements/1.1/">
     <g>
<path d="M 296.25,42.43 c 0.21,-0.44 1.67,-3.47 -0.06,-14.54 -0.13,-0.92 -2.75,-19.64 -2.75,-19.64 0.00,0.00 1.55,1.45 1.80,1.72 0.25,0.26 0.55,0.12 0.41,-0.30 -0.14,-0.42 -3.31,-8.09 -3.42,-8.36 -0.10,-0.27 -0.20,-0.46 -0.33,-0.15 -0.13,0.31 -0.88,2.38 -0.88,2.38 0.20,1.35 1.99,15.82 2.10,16.81 0.12,0.99 2.63,17.36 2.76,21.89 -0.04,0.46 0.17,0.64 0.38,0.19 z M 244.13,14.80 c 0.47,-0.50 0.79,-1.01 2.15,-0.97 1.36,0.04 4.63,-0.09 3.41,0.81 -1.22,0.90 -2.05,1.42 -2.05,1.42 -0.79,0.57 -1.49,1.63 -0.09,1.04 1.40,-0.59 3.25,-1.53 4.67,-3.66 0.41,-0.62 0.90,-1.45 -1.02,-1.74 -1.92,-0.29 -5.03,-0.74 -6.03,0.36 -1.01,1.09 -1.32,1.85 -1.62,2.32 -0.41,0.65 0.11,0.93 0.57,0.43 z M 250.62,25.77 c 0.06,0.05 0.15,0.03 0.20,-0.04 1.53,-2.10 1.53,-2.10 1.53,-2.10 0.05,-0.07 0.04,-0.16 -0.03,-0.21 -2.61,-1.91 -2.61,-1.91 -2.61,-1.91 -0.06,-0.05 -0.15,-0.03 -0.20,0.04 -1.53,2.10 -1.53,2.10 -1.53,2.10 -0.05,0.07 -0.04,0.16 0.03,0.20 z M 247.80,25.21 c -1.53,2.10 -1.53,2.10 -1.53,2.10 -0.05,0.07 -0.04,0.16 0.03,0.21 2.61,1.91 2.61,1.91 2.61,1.91 0.06,0.05 0.15,0.03 0.20,-0.04 1.32,-1.81 1.32,-1.81 1.32,-1.81 2.54,1.85 2.54,1.85 2.54,1.85 0.06,0.05 0.15,0.03 0.20,-0.04 1.53,-2.10 1.53,-2.10 1.53,-2.10 0.05,-0.07 0.04,-0.16 -0.03,-0.21 -2.61,-1.91 -2.61,-1.91 -2.61,-1.91 -0.06,-0.05 -0.15,-0.03 -0.20,0.04 -1.32,1.81 -1.32,1.81 -1.32,1.81 -2.54,-1.85 -2.54,-1.85 -2.54,-1.85 -0.06,-0.05 -0.15,-0.03 -0.20,0.04 z M 230.55,7.85 c 0.16,0.09 0.34,0.10 0.39,-0.09 0.05,-0.20 0.27,-0.65 0.59,-0.32 0.27,0.27 1.99,1.69 2.88,4.71 0.15,0.40 0.53,0.44 0.61,-0.13 0.21,-1.39 0.32,-3.82 0.43,-4.55 0.16,-1.03 0.65,-3.16 1.96,-2.06 0.30,0.25 0.61,0.58 0.61,0.58 0.28,0.35 0.63,0.75 0.80,0.35 0.26,-0.61 0.46,-1.62 0.18,-2.17 -0.12,-0.24 -1.75,-2.29 -2.85,-0.89 -1.37,1.74 -1.46,4.03 -1.64,6.58 -0.19,-0.53 -1.29,-3.95 -4.78,-5.91 -0.25,-0.14 -0.77,0.13 -0.82,0.93 -0.03,0.47 -0.16,1.61 0.17,1.93 0.33,0.32 1.31,0.96 1.47,1.05 z M 256.74,7.13 c 0.16,0.09 0.34,0.10 0.39,-0.09 0.05,-0.20 0.27,-0.65 0.59,-0.32 0.27,0.27 1.99,1.69 2.88,4.71 0.15,0.40 0.52,0.44 0.61,-0.13 0.21,-1.40 0.32,-3.82 0.43,-4.56 0.16,-1.03 0.65,-3.16 1.96,-2.06 0.30,0.25 0.61,0.58 0.61,0.58 0.28,0.35 0.63,0.75 0.80,0.35 0.26,-0.61 0.46,-1.62 0.18,-2.17 -0.13,-0.24 -1.75,-2.29 -2.85,-0.89 -1.37,1.74 -1.46,4.03 -1.64,6.58 -0.19,-0.53 -1.29,-3.95 -4.78,-5.91 -0.25,-0.14 -0.77,0.13 -0.82,0.93 -0.03,0.47 -0.16,1.61 0.17,1.93 0.33,0.32 1.31,0.96 1.47,1.04 z M 238.35,43.29 c -0.58,0.19 -7.21,2.56 -7.86,2.82 -0.60,0.24 -0.77,0.40 -0.88,0.81 -0.11,0.41 -0.17,0.66 -0.20,0.72 -0.12,0.28 -0.26,0.51 0.63,0.14 0.43,-0.18 6.96,-2.42 7.58,-2.69 0.49,-0.22 0.75,-0.36 0.96,-0.79 0.21,-0.42 0.26,-0.50 0.38,-0.80 0.12,-0.32 0.27,-0.51 -0.60,-0.23 z M 255.04,19.43 c 0.31,-0.14 23.84,-10.13 24.38,-10.41 0.54,-0.29 0.86,-0.38 1.11,-0.86 0.25,-0.47 0.32,-0.56 0.46,-0.89 0.15,-0.35 0.33,-0.68 -0.67,-0.28 -0.66,0.27 -24.03,10.26 -24.71,10.55 -0.68,0.29 -0.88,0.42 -1.03,0.88 -0.14,0.47 -0.22,0.71 -0.25,0.81 -0.12,0.32 -0.29,0.64 0.71,0.19 z M 254.21,45.42 c -0.31,0.79 -1.13,1.34 -1.74,0.28 -0.10,-0.21 -0.51,-1.16 0.25,-3.25 0.15,-0.41 0.35,-1.01 0.35,-1.01 0.17,-0.46 -0.03,-0.71 -0.27,-0.15 -0.24,0.56 -1.25,2.48 -1.09,4.75 0.04,0.52 0.40,1.55 1.23,1.57 0.43,0.00 0.98,-0.30 1.38,-1.58 0.07,-0.29 0.11,-0.52 0.14,-0.64 0.04,-0.17 -0.09,-0.38 -0.23,0.02 z M 266.37,18.47 c 0.17,-0.46 -0.03,-0.71 -0.27,-0.15 -0.24,0.56 -1.25,2.48 -1.09,4.75 0.04,0.52 0.40,1.54 1.23,1.57 0.43,0.00 0.99,-0.30 1.38,-1.58 0.07,-0.29 0.11,-0.52 0.14,-0.64 0.04,-0.17 -0.09,-0.38 -0.23,0.02 -0.31,0.79 -1.13,1.33 -1.74,0.28 -0.10,-0.21 -0.51,-1.16 0.25,-3.25 0.15,-0.41 0.34,-1.01 0.34,-1.01 z M 292.47,42.20 c -0.31,0.79 -1.13,1.33 -1.74,0.28 -0.10,-0.21 -0.51,-1.16 0.25,-3.25 0.15,-0.41 0.34,-1.01 0.34,-1.01 0.17,-0.46 -0.03,-0.71 -0.28,-0.15 -0.24,0.56 -1.24,2.48 -1.09,4.75 0.04,0.52 0.40,1.55 1.23,1.57 0.43,0.00 0.98,-0.30 1.38,-1.58 0.07,-0.29 0.11,-0.52 0.14,-0.64 0.04,-0.17 -0.09,-0.38 -0.23,0.02 z M 245.99,9.17 c 0.43,0.00 0.98,-0.31 1.38,-1.66 0.07,-0.30 0.11,-0.55 0.14,-0.67 0.04,-0.18 -0.09,-0.40 -0.23,0.02 -0.31,0.83 -1.13,1.41 -1.74,0.30 -0.10,-0.22 -0.51,-1.23 0.25,-3.42 0.15,-0.43 0.35,-1.06 0.35,-1.06 0.17,-0.48 -0.03,-0.74 -0.28,-0.15 -0.24,0.59 -1.25,2.61 -1.09,5.00 0.04,0.55 0.40,1.63 1.23,1.65 z M 278.19,14.44 c 0.26,-0.85 -0.02,-1.32 -0.39,-0.28 -0.37,1.03 -1.88,4.59 -1.76,8.83 0.03,0.98 0.51,2.90 1.70,2.97 0.61,0.01 1.42,-0.52 2.04,-2.90 0.11,-0.54 0.18,-0.97 0.23,-1.18 0.07,-0.32 -0.12,-0.71 -0.33,0.03 -0.48,1.46 -1.67,2.45 -2.50,0.47 -0.13,-0.39 -0.68,-2.19 0.49,-6.06 0.23,-0.75 0.53,-1.87 0.53,-1.87 z M 236.30,17.98 c 0.26,-0.85 -0.02,-1.32 -0.39,-0.28 -0.37,1.03 -1.88,4.59 -1.76,8.83 0.03,0.98 0.51,2.90 1.70,2.97 0.61,0.01 1.42,-0.52 2.04,-2.90 0.11,-0.54 0.18,-0.97 0.23,-1.18 0.07,-0.32 -0.12,-0.71 -0.33,0.03 -0.48,1.46 -1.67,2.45 -2.50,0.47 -0.13,-0.39 -0.68,-2.19 0.49,-6.06 0.23,-0.75 0.54,-1.87 0.54,-1.87 z M 226.53,25.53 c 0.52,-0.03 1.17,-0.41 1.57,-1.93 0.06,-0.34 0.10,-0.61 0.13,-0.75 0.04,-0.20 -0.14,-0.43 -0.28,0.04 -0.33,0.94 -1.28,1.63 -2.09,0.45 -0.13,-0.24 -0.70,-1.32 0.08,-3.80 0.16,-0.48 0.35,-1.20 0.35,-1.20 0.18,-0.54 -0.09,-0.82 -0.34,-0.15 -0.25,0.67 -1.35,2.97 -1.01,5.60 0.08,0.61 0.59,1.77 1.60,1.74 z M 221.85,12.44 c 0.52,-0.03 1.17,-0.41 1.57,-1.93 0.06,-0.34 0.10,-0.62 0.13,-0.75 0.04,-0.21 -0.14,-0.43 -0.28,0.04 -0.33,0.94 -1.28,1.63 -2.09,0.45 -0.13,-0.24 -0.70,-1.32 0.08,-3.80 0.16,-0.48 0.35,-1.20 0.35,-1.20 0.18,-0.54 -0.09,-0.82 -0.34,-0.15 -0.25,0.67 -1.35,2.97 -1.01,5.60 0.08,0.61 0.59,1.77 1.60,1.74 z M 313.63,12.30 c 0.25,-0.16 13.84,-8.02 14.32,-8.31 0.46,-0.29 0.72,-0.41 0.90,-0.85 0.18,-0.44 0.23,-0.52 0.33,-0.82 0.11,-0.32 0.21,-0.67 -0.61,-0.19 -0.53,0.31 -14.04,8.11 -14.59,8.46 -0.55,0.35 -0.74,0.44 -0.83,0.87 -0.09,0.42 -0.13,0.67 -0.16,0.73 -0.10,0.28 -0.17,0.63 0.64,0.10 z M 357.44,14.30 c 0.18,-0.50 -0.04,-0.77 -0.29,-0.16 -0.25,0.61 -1.30,2.73 -1.14,5.22 0.04,0.58 0.42,1.70 1.29,1.73 0.45,0.00 1.03,-0.33 1.44,-1.74 0.07,-0.32 0.12,-0.57 0.15,-0.70 0.04,-0.19 -0.10,-0.42 -0.24,0.02 -0.33,0.86 -1.18,1.47 -1.82,0.31 -0.10,-0.23 -0.53,-1.28 0.26,-3.57 0.16,-0.45 0.36,-1.11 0.36,-1.11 z M 331.32,20.27 c 0.49,0.00 1.11,-0.35 1.55,-1.87 0.08,-0.34 0.13,-0.62 0.16,-0.75 0.05,-0.21 -0.10,-0.45 -0.26,0.02 -0.35,0.93 -1.27,1.58 -1.96,0.33 -0.11,-0.25 -0.58,-1.38 0.28,-3.86 0.17,-0.48 0.39,-1.20 0.39,-1.20 0.19,-0.54 -0.04,-0.84 -0.31,-0.17 -0.27,0.66 -1.40,2.94 -1.23,5.64 0.04,0.62 0.45,1.83 1.39,1.86 z M 336.83,7.03 c 0.17,0.10 0.36,0.11 0.41,-0.10 0.05,-0.21 0.28,-0.68 0.62,-0.34 0.28,0.28 2.09,1.78 3.03,4.95 0.16,0.42 0.55,0.46 0.64,-0.14 0.22,-1.47 0.34,-4.02 0.45,-4.79 0.16,-1.09 0.68,-3.33 2.06,-2.16 0.31,0.26 0.64,0.61 0.64,0.61 0.29,0.37 0.66,0.79 0.84,0.36 0.27,-0.64 0.49,-1.70 0.19,-2.28 -0.13,-0.26 -1.84,-2.41 -3.00,-0.93 -1.44,1.83 -1.53,4.23 -1.72,6.91 -0.20,-0.56 -1.35,-4.15 -5.02,-6.21 -0.27,-0.15 -0.81,0.13 -0.86,0.98 -0.03,0.49 -0.17,1.69 0.18,2.03 0.35,0.34 1.37,1.01 1.54,1.10 z M 354.68,6.37 c 0.79,0.58 1.94,1.04 1.94,1.04 -3.66,4.48 -10.85,7.67 -12.56,9.01 -0.51,0.39 -0.44,0.61 -0.12,0.53 0.28,-0.08 5.76,-1.61 10.76,-5.90 2.29,-1.97 2.23,-2.11 2.81,-3.31 0.50,0.26 0.84,0.67 1.03,0.91 0.28,0.34 0.43,0.60 0.56,0.23 0.48,-1.33 -0.20,-2.13 -0.84,-2.54 0.00,0.00 0.67,-2.07 -0.56,-4.14 -0.21,-0.35 -1.43,-1.46 -2.85,0.74 -0.55,0.84 -0.96,2.85 -0.17,3.42 z M 355.41,4.34 c 0.73,-1.02 1.08,-0.98 1.36,-0.82 0.82,0.77 0.70,2.03 0.67,2.31 0.00,0.00 -1.05,-0.49 -1.52,-0.70 -0.47,-0.20 -0.72,-0.50 -0.50,-0.80 z M 363.01,24.89 c -0.25,-0.28 -0.37,-0.01 -0.46,0.31 -0.09,0.32 -0.36,1.52 -0.54,2.27 0.00,0.00 0.71,1.16 0.97,1.75 0.25,0.59 -0.12,0.92 -0.86,1.01 -2.08,0.25 -3.73,-0.94 -4.30,-1.48 -0.57,-0.55 0.05,-1.52 0.51,-2.68 0.37,-0.93 -0.32,-1.04 -0.84,0.00 -1.76,4.63 -4.23,5.12 -4.88,5.30 -5.86,1.60 -5.36,-3.76 -5.34,-4.64 0.02,-0.88 -0.62,-0.55 -1.34,0.03 -2.47,1.98 -4.45,3.14 -5.52,3.62 -0.92,-1.80 -2.26,-2.93 -2.82,-3.34 -6.34,-4.63 -6.87,4.71 -6.67,5.71 0.97,3.97 7.45,1.56 8.46,1.44 1.02,-0.12 0.68,1.22 0.11,2.02 -1.41,1.97 -3.03,3.38 -4.50,4.57 -6.28,5.13 -9.44,4.72 -10.41,4.69 -6.17,-0.17 -5.60,-6.82 -5.26,-8.24 1.86,-1.57 3.45,-3.28 4.38,-5.04 0.38,-0.96 1.03,-3.16 -0.15,-5.91 -0.62,-1.21 -2.56,-4.60 -2.56,-4.60 0.00,0.00 1.43,0.04 1.57,0.04 0.14,0.00 0.41,-0.14 0.06,-0.55 -0.35,-0.40 -3.36,-3.40 -3.54,-3.65 -0.18,-0.24 -0.35,-0.42 -0.45,-0.06 -0.10,0.36 -0.36,1.88 -0.42,2.20 -0.06,0.31 -0.06,0.63 0.10,0.90 0.15,0.27 0.55,1.20 0.84,1.96 0.29,0.76 3.25,6.47 3.53,6.98 0.27,0.51 0.33,0.88 0.06,1.22 -9.53,10.05 -27.91,16.23 -28.50,16.57 -0.59,0.34 -0.43,0.61 0.56,0.43 1.48,-0.26 9.74,-1.64 12.09,-2.77 1.55,-0.75 6.98,-3.41 11.41,-6.89 -0.12,0.90 -0.24,2.22 -0.17,3.89 0.30,8.08 7.53,6.74 9.43,6.33 5.68,-1.25 12.64,-9.11 13.23,-10.69 0.58,-1.56 0.67,-2.98 0.54,-4.22 1.50,-0.81 4.71,-3.40 4.71,-3.40 0.13,3.45 2.87,4.48 3.72,4.63 3.96,0.60 5.94,-2.71 6.78,-3.78 0.72,1.89 2.45,2.25 3.34,2.43 3.41,0.68 4.08,-1.74 4.26,-2.29 1.07,-3.33 -0.86,-5.81 -1.11,-6.08 z M 334.38,31.57 c -2.03,-0.14 -1.85,-0.92 -1.57,-1.23 0.30,-0.33 2.78,-1.89 4.85,0.89 0.00,0.00 -0.86,0.50 -3.28,0.34 z M 359.81,37.21 c -0.24,0.68 -0.34,1.12 -0.31,1.38 0.03,0.26 0.12,1.10 0.12,1.10 -0.25,0.20 -1.33,0.87 -2.40,0.08 0.07,-0.23 0.21,-0.70 0.24,-0.95 0.12,-0.40 -0.13,-0.69 -0.32,-0.28 -0.20,0.41 -0.65,1.79 -0.99,2.10 -0.34,0.31 -0.73,1.45 -3.30,0.29 -0.45,-0.17 -1.23,-0.75 -2.46,0.48 -2.77,2.57 -4.68,2.78 -7.79,3.88 -0.38,0.17 -1.16,0.76 -0.23,0.67 0.94,-0.09 4.87,0.00 7.01,-2.46 0.45,-0.43 0.96,-1.58 2.66,-0.92 0.94,0.36 2.68,1.85 4.58,-1.10 1.12,0.75 2.82,0.45 3.09,-0.38 0.27,-0.82 0.58,-1.64 0.58,-2.20 0.00,-0.56 -0.05,-1.30 -0.05,-1.30 -0.04,-0.44 -0.19,-1.07 -0.44,-0.40 z M 296.95,13.78 c 0.17,-0.04 3.05,-0.49 6.41,-3.05 1.82,-1.38 2.92,-3.74 2.92,-3.74 0.00,0.00 0.91,0.76 1.03,0.91 0.28,0.34 0.43,0.60 0.56,0.23 0.48,-1.33 -0.20,-2.13 -0.84,-2.54 0.00,0.00 0.67,-2.07 -0.56,-4.14 -0.21,-0.35 -1.43,-1.46 -2.85,0.74 -0.55,0.84 -0.96,2.85 -0.17,3.42 0.79,0.58 1.94,1.04 1.94,1.04 -3.66,4.49 -6.16,5.34 -8.30,6.60 -0.55,0.32 -0.44,0.61 -0.12,0.53 z M 304.67,4.39 c -0.47,-0.20 -0.72,-0.50 -0.50,-0.80 0.73,-1.02 1.08,-0.98 1.36,-0.82 0.82,0.77 0.70,2.02 0.67,2.31 0.00,0.00 -1.05,-0.49 -1.52,-0.70 z M 304.53,14.16 c -0.06,-0.05 -0.15,-0.03 -0.20,0.04 -1.53,2.10 -1.53,2.10 -1.53,2.10 -0.05,0.07 -0.04,0.16 0.03,0.21 2.61,1.91 2.61,1.91 2.61,1.91 0.06,0.05 0.15,0.03 0.20,-0.04 1.32,-1.81 1.32,-1.81 1.32,-1.81 2.54,1.85 2.54,1.85 2.54,1.85 0.06,0.05 0.15,0.03 0.20,-0.04 1.53,-2.10 1.53,-2.10 1.53,-2.10 0.05,-0.07 0.04,-0.16 -0.03,-0.21 -2.61,-1.91 -2.61,-1.91 -2.61,-1.91 -0.06,-0.05 -0.15,-0.03 -0.20,0.04 -1.32,1.81 -1.32,1.81 -1.32,1.81 z M 303.91,23.91 c 0.00,0.00 1.25,-0.31 1.47,-0.38 0.22,-0.06 0.34,-0.35 -0.05,-0.55 -0.39,-0.20 -4.09,-1.67 -4.37,-1.79 -0.28,-0.11 -0.38,-0.24 -0.41,0.06 -0.02,0.30 -0.07,2.73 -0.07,2.73 0.00,0.00 -0.06,0.17 0.27,0.35 0.32,0.18 0.64,0.58 0.90,0.84 0.26,0.26 3.70,2.98 3.87,3.07 0.00,0.00 -1.72,3.02 -1.94,5.38 -0.22,2.36 0.04,5.63 3.27,4.57 0.87,-0.25 4.49,-1.69 5.30,-4.21 0.26,-0.93 1.01,-2.61 -0.21,-4.31 -0.70,-1.00 -3.53,-2.69 -3.53,-2.69 0.00,0.00 2.17,-3.00 2.38,-3.37 0.21,-0.37 1.01,-2.69 1.09,-3.26 0.09,-0.56 0.13,-0.84 -0.29,-0.32 -0.42,0.52 -4.63,6.05 -4.63,6.05 z M 310.86,32.79 c -1.20,0.99 -3.72,2.29 -4.43,2.36 -0.71,0.07 -2.59,-0.28 -1.77,-2.20 0.28,-0.62 2.16,-3.84 2.16,-3.84 0.70,0.39 5.24,2.70 4.04,3.69 z M 274.14,44.44 c -0.37,0.40 -2.05,1.95 -3.84,2.03 -1.39,-0.10 -1.59,-1.27 -1.23,-1.84 0.36,-0.57 1.72,-1.91 1.96,-2.26 0.24,-0.35 0.45,-0.87 0.45,-0.87 0.13,-0.38 0.19,-0.62 -0.20,-0.64 -0.39,-0.02 -1.76,-0.27 -2.34,0.63 -0.10,0.20 -0.48,0.86 -0.53,0.99 -0.06,0.14 0.00,0.29 0.10,0.19 0.10,-0.11 0.07,-0.67 1.82,-0.64 0.25,0.00 0.34,0.07 0.24,0.20 -0.10,0.13 -1.68,1.49 -2.08,3.30 -0.50,2.64 2.04,2.16 2.57,1.94 0.32,-0.13 1.93,-0.86 3.19,-2.76 0.18,-0.27 0.27,-0.67 -0.10,-0.28 z M 285.57,8.25 c 0.00,0.00 1.55,1.45 1.80,1.72 0.25,0.26 0.55,0.12 0.41,-0.30 -0.14,-0.42 -3.32,-8.09 -3.42,-8.36 -0.10,-0.27 -0.20,-0.46 -0.33,-0.15 -0.13,0.31 -1.15,2.55 -1.15,2.55 0.03,0.18 0.14,0.76 0.43,1.87 0.40,1.48 3.25,27.79 3.33,29.14 0.08,1.34 0.35,1.77 -0.48,2.32 -0.83,0.55 -5.97,3.34 -8.05,0.26 -0.36,-0.60 -0.70,-1.69 -0.70,-2.95 1.30,-0.12 3.12,-0.09 5.86,0.28 0.24,-0.43 1.41,-3.10 1.41,-3.10 -1.71,-0.05 -7.85,0.33 -19.99,-3.67 -0.41,-0.14 -0.95,-0.13 -1.36,-0.09 -0.41,0.04 -3.42,0.56 -4.72,1.42 -0.19,0.14 -0.51,0.35 -0.65,0.64 -0.14,0.28 -0.64,1.81 -0.68,2.01 -0.04,0.20 0.02,0.26 0.15,0.26 0.13,0.00 6.83,-0.42 6.83,-0.42 0.06,-0.20 0.29,-0.41 0.78,-0.24 0.49,0.17 5.85,1.55 6.89,1.86 -1.12,0.44 -12.50,7.08 -15.38,1.30 0.04,-0.47 0.09,-1.99 -0.49,-0.94 -0.58,1.05 -1.43,3.31 -3.13,3.53 -0.62,0.08 -2.42,0.07 -2.96,-1.63 0.11,-0.25 0.56,-1.50 0.59,-1.71 0.03,-0.21 0.09,-0.99 -0.49,-0.31 -0.57,0.68 -1.96,3.11 -4.80,4.07 -0.41,0.13 -2.16,0.32 -4.11,-1.73 -0.62,-0.65 -2.51,-2.13 -6.14,-1.52 -0.71,0.12 -4.35,0.97 -10.37,6.24 -0.87,0.76 -4.60,3.96 -5.30,4.47 -0.70,0.51 -4.12,2.76 -5.82,0.40 -0.57,-0.80 -1.36,-3.49 0.58,-7.14 0.51,-0.99 2.22,-3.87 3.23,-5.19 0.24,-0.31 0.38,-0.58 0.45,-0.80 0.54,-0.42 1.10,-1.32 1.55,-3.05 0.12,-0.62 0.20,-1.12 0.25,-1.37 0.08,-0.37 -0.16,-0.82 -0.41,0.04 -0.56,1.69 -2.02,2.87 -3.10,0.59 -0.17,-0.45 -0.90,-2.51 0.46,-7.00 0.27,-0.87 0.62,-2.17 0.62,-2.17 0.31,-0.98 -0.05,-1.52 -0.49,-0.32 -0.43,1.20 -2.23,5.34 -1.98,10.22 0.06,1.05 0.61,3.02 1.87,3.35 -0.01,0.02 -0.03,0.03 -0.04,0.05 -1.14,1.47 -5.70,7.13 -4.53,12.21 0.26,1.12 1.50,5.14 6.34,3.81 2.88,-0.80 7.63,-6.16 8.80,-7.02 0.92,-0.68 7.29,-6.11 11.51,-3.85 1.20,0.64 2.77,1.96 3.37,2.42 0.59,0.46 3.65,2.16 6.75,-2.51 0.54,2.80 2.66,3.09 4.08,2.68 1.82,-0.54 2.72,-3.35 2.72,-3.35 0.30,0.49 1.34,4.13 7.33,2.74 3.51,-0.81 10.21,-4.32 11.57,-4.78 0.58,-0.20 1.22,-0.44 2.21,-0.60 -0.16,1.23 -1.26,5.74 1.94,7.05 0.96,0.39 6.45,0.90 8.69,-2.85 0.37,-0.66 1.23,-2.92 0.81,-6.84 -0.09,-1.38 -2.56,-23.54 -2.56,-23.54 z" />
     </g>
</svg>
