<?xml version="1.0" encoding="UTF-8"?>
<svg version="1.1" id="Layer_1" x="0px" y="0px" width="578" height="50" viewBox="0 0 578 50"
xml:space="preserve" xmlns="http://www.w3.org/2000/svg" xmlns:svg="http://www.w3.org/2000/svg" xmlns:rdf="http://www.w3.org/1999/02/22-rdf-syntax-ns#"  xmlns:cc="http://creativecommons.org/ns#" xmlns:dc="http://purl.org/dc/elements/1.1/">
     <g>
<path d="M 229.25,19.81 c -1.92,2.63 -1.92,2.63 -1.92,2.63 -0.06,0.08 -0.05,0.20 0.03,0.25 3.27,2.38 3.27,2.38 3.27,2.38 0.08,0.06 0.19,0.04 0.25,-0.05 1.91,-2.63 1.91,-2.63 1.91,-2.63 0.06,-0.08 0.05,-0.20 -0.03,-0.25 -3.27,-2.38 -3.27,-2.38 -3.27,-2.38 -0.08,-0.06 -0.19,-0.04 -0.25,0.05 z M 309.80,42.24 c -0.04,0.46 0.17,0.64 0.38,0.19 0.21,-0.44 1.67,-3.46 -0.06,-14.54 -0.13,-0.92 -2.75,-19.64 -2.75,-19.64 0.00,0.00 1.55,1.46 1.80,1.72 0.25,0.26 0.55,0.12 0.41,-0.30 -0.14,-0.42 -3.32,-8.09 -3.42,-8.36 -0.10,-0.27 -0.20,-0.46 -0.33,-0.15 -0.13,0.31 -0.88,2.38 -0.88,2.38 0.20,1.35 1.99,15.82 2.10,16.81 0.12,0.99 2.63,17.36 2.76,21.89 z M 275.78,15.77 c -0.96,1.04 -1.25,1.76 -1.54,2.21 -0.39,0.62 0.10,0.89 0.55,0.41 0.45,-0.48 0.75,-0.96 2.05,-0.92 1.30,0.04 4.42,-0.09 3.25,0.77 -1.16,0.86 -1.95,1.35 -1.95,1.35 -0.76,0.54 -1.42,1.56 -0.09,0.99 1.33,-0.56 3.10,-1.45 4.45,-3.49 0.39,-0.59 0.86,-1.39 -0.98,-1.66 -1.83,-0.27 -4.79,-0.70 -5.75,0.34 z M 266.72,21.71 c -1.32,1.81 -1.32,1.81 -1.32,1.81 -2.54,-1.85 -2.54,-1.85 -2.54,-1.85 -0.06,-0.05 -0.15,-0.03 -0.20,0.04 -1.53,2.10 -1.53,2.10 -1.53,2.10 -0.05,0.07 -0.04,0.16 0.03,0.20 2.61,1.91 2.61,1.91 2.61,1.91 0.06,0.05 0.15,0.03 0.20,-0.04 1.32,-1.81 1.32,-1.81 1.32,-1.81 2.54,1.85 2.54,1.85 2.54,1.85 0.06,0.05 0.15,0.03 0.20,-0.04 1.53,-2.10 1.53,-2.10 1.53,-2.10 0.05,-0.07 0.04,-0.16 -0.03,-0.20 -2.61,-1.91 -2.61,-1.91 -2.61,-1.91 -0.06,-0.05 -0.15,-0.03 -0.20,0.04 z M 208.37,24.79 c 2.61,1.91 2.61,1.91 2.61,1.91 0.06,0.05 0.15,0.03 0.20,-0.04 1.32,-1.81 1.32,-1.81 1.32,-1.81 2.54,1.85 2.54,1.85 2.54,1.85 0.06,0.05 0.15,0.03 0.20,-0.04 1.53,-2.10 1.53,-2.10 1.53,-2.10 0.05,-0.07 0.04,-0.16 -0.03,-0.20 -2.62,-1.91 -2.62,-1.91 -2.62,-1.91 -0.06,-0.05 -0.15,-0.03 -0.20,0.04 -1.32,1.81 -1.32,1.81 -1.32,1.81 -2.54,-1.85 -2.54,-1.85 -2.54,-1.85 -0.06,-0.05 -0.15,-0.03 -0.20,0.04 -1.53,2.10 -1.53,2.10 -1.53,2.10 -0.05,0.07 -0.04,0.16 0.03,0.21 z M 250.87,7.16 c 0.16,0.09 0.34,0.10 0.39,-0.09 0.05,-0.19 0.27,-0.65 0.59,-0.32 0.27,0.27 1.99,1.69 2.88,4.71 0.15,0.40 0.53,0.44 0.61,-0.13 0.21,-1.40 0.32,-3.82 0.43,-4.56 0.16,-1.03 0.65,-3.16 1.96,-2.06 0.30,0.25 0.61,0.58 0.61,0.58 0.28,0.35 0.63,0.75 0.80,0.35 0.26,-0.61 0.46,-1.62 0.18,-2.17 -0.12,-0.24 -1.74,-2.29 -2.85,-0.89 -1.37,1.74 -1.46,4.03 -1.64,6.58 -0.19,-0.53 -1.29,-3.95 -4.78,-5.91 -0.25,-0.14 -0.77,0.13 -0.82,0.93 -0.03,0.47 -0.16,1.61 0.17,1.93 0.33,0.32 1.31,0.96 1.47,1.05 z M 222.35,41.84 c -0.61,0.28 -12.22,5.85 -12.84,6.15 -0.59,0.28 -0.74,0.44 -0.83,0.87 -0.09,0.42 -0.13,0.67 -0.16,0.73 -0.10,0.28 -0.17,0.53 0.64,0.10 0.27,-0.14 12.07,-5.74 12.57,-6.00 0.48,-0.25 0.72,-0.41 0.91,-0.85 0.18,-0.44 0.23,-0.52 0.33,-0.82 0.10,-0.32 0.25,-0.58 -0.61,-0.19 z M 250.64,16.76 c -0.16,0.54 -0.25,0.84 -0.29,0.95 -0.14,0.37 -0.33,0.74 0.83,0.21 0.36,-0.17 27.73,-12.04 28.36,-12.38 0.63,-0.34 1.00,-0.45 1.29,-1.01 0.29,-0.55 0.36,-0.65 0.52,-1.04 0.17,-0.41 0.38,-0.79 -0.78,-0.32 -0.77,0.32 -27.94,12.20 -28.73,12.55 -0.79,0.34 -1.03,0.50 -1.19,1.04 z M 218.44,17.00 c 0.36,-0.17 27.73,-12.04 28.36,-12.38 0.63,-0.34 1.00,-0.45 1.29,-1.01 0.29,-0.55 0.36,-0.65 0.52,-1.04 0.18,-0.41 0.38,-0.79 -0.78,-0.32 -0.77,0.32 -27.94,12.20 -28.73,12.55 -0.79,0.34 -1.03,0.50 -1.19,1.04 -0.16,0.54 -0.25,0.83 -0.29,0.95 -0.14,0.37 -0.33,0.74 0.83,0.21 z M 265.86,42.46 c -0.37,-0.14 -0.94,-0.05 -1.70,0.97 -0.16,0.24 -0.27,0.43 -0.33,0.52 -0.10,0.14 -0.05,0.37 0.20,0.06 0.53,-0.60 1.41,-0.83 1.57,0.30 0.01,0.22 0.04,1.20 -1.30,2.83 -0.27,0.31 -0.63,0.79 -0.63,0.79 -0.30,0.35 -0.21,0.64 0.18,0.22 0.39,-0.42 1.89,-1.82 2.52,-3.90 0.15,-0.48 0.18,-1.51 -0.52,-1.80 z M 296.98,41.96 c -0.37,-0.14 -0.94,-0.05 -1.70,0.97 -0.16,0.24 -0.27,0.43 -0.33,0.52 -0.09,0.14 -0.05,0.37 0.20,0.06 0.53,-0.60 1.41,-0.83 1.57,0.30 0.01,0.22 0.04,1.20 -1.30,2.83 -0.27,0.31 -0.63,0.79 -0.63,0.79 -0.30,0.35 -0.21,0.64 0.18,0.22 0.39,-0.42 1.89,-1.82 2.52,-3.90 0.14,-0.48 0.18,-1.51 -0.52,-1.80 z M 288.38,10.52 c 0.46,0.00 1.06,-0.34 1.48,-1.78 0.07,-0.33 0.12,-0.59 0.15,-0.72 0.05,-0.20 -0.10,-0.43 -0.25,0.02 -0.34,0.89 -1.21,1.51 -1.87,0.32 -0.11,-0.24 -0.55,-1.31 0.26,-3.67 0.16,-0.46 0.37,-1.14 0.37,-1.14 0.18,-0.52 -0.04,-0.80 -0.30,-0.17 -0.26,0.63 -1.34,2.80 -1.17,5.36 0.04,0.59 0.43,1.74 1.32,1.78 z M 246.20,45.28 c -0.34,0.89 -1.21,1.51 -1.87,0.32 -0.11,-0.24 -0.55,-1.31 0.26,-3.67 0.16,-0.46 0.37,-1.14 0.37,-1.14 0.18,-0.51 -0.04,-0.80 -0.29,-0.17 -0.26,0.63 -1.34,2.80 -1.17,5.36 0.04,0.59 0.43,1.74 1.32,1.78 0.46,0.00 1.06,-0.34 1.48,-1.78 0.07,-0.33 0.12,-0.59 0.15,-0.72 0.05,-0.20 -0.10,-0.43 -0.25,0.02 z M 241.71,9.78 c 0.34,-0.83 0.05,-1.31 -0.42,-0.31 -0.47,1.01 -2.38,4.45 -2.46,8.68 -0.02,0.98 0.43,2.92 1.77,3.07 0.70,0.05 1.64,-0.43 2.46,-2.76 0.15,-0.53 0.26,-0.95 0.32,-1.16 0.09,-0.32 -0.09,-0.72 -0.38,0.00 -0.62,1.42 -2.02,2.34 -2.86,0.30 -0.13,-0.40 -0.66,-2.22 0.87,-6.00 0.31,-0.73 0.71,-1.83 0.71,-1.83 z M 213.69,15.50 c 0.70,0.05 1.64,-0.43 2.46,-2.76 0.15,-0.53 0.26,-0.96 0.32,-1.16 0.09,-0.32 -0.09,-0.71 -0.38,0.00 -0.62,1.42 -2.03,2.33 -2.86,0.30 -0.13,-0.40 -0.66,-2.22 0.87,-6.00 0.31,-0.73 0.71,-1.83 0.71,-1.83 0.34,-0.83 0.05,-1.31 -0.42,-0.31 -0.47,1.01 -2.38,4.45 -2.46,8.68 -0.02,0.98 0.43,2.92 1.77,3.07 z M 376.94,24.89 c -0.25,-0.28 -0.37,-0.01 -0.46,0.31 -0.09,0.32 -0.36,1.52 -0.54,2.27 0.00,0.00 0.71,1.16 0.97,1.75 0.25,0.59 -0.12,0.92 -0.86,1.01 -2.08,0.25 -3.73,-0.94 -4.30,-1.48 -0.57,-0.55 0.05,-1.52 0.51,-2.68 0.37,-0.93 -0.32,-1.04 -0.84,0.00 -1.76,4.63 -4.23,5.12 -4.88,5.30 -5.86,1.60 -5.36,-3.76 -5.34,-4.64 0.02,-0.88 -0.62,-0.55 -1.34,0.03 -2.47,1.98 -4.45,3.14 -5.52,3.62 -0.92,-1.80 -2.26,-2.93 -2.82,-3.34 -6.34,-4.63 -6.87,4.71 -6.67,5.71 0.97,3.97 7.45,1.56 8.46,1.44 1.02,-0.12 0.68,1.22 0.11,2.02 -1.41,1.97 -3.03,3.38 -4.50,4.58 -6.28,5.13 -9.44,4.72 -10.41,4.69 -6.17,-0.17 -5.60,-6.82 -5.26,-8.24 1.86,-1.57 3.45,-3.28 4.38,-5.04 0.38,-0.96 1.03,-3.16 -0.15,-5.91 -0.62,-1.21 -2.56,-4.60 -2.56,-4.60 0.00,0.00 1.43,0.04 1.57,0.04 0.14,0.00 0.41,-0.14 0.06,-0.54 -0.35,-0.40 -3.36,-3.41 -3.54,-3.65 -0.18,-0.24 -0.35,-0.41 -0.45,-0.06 -0.10,0.36 -0.36,1.88 -0.42,2.20 -0.06,0.31 -0.06,0.63 0.10,0.90 0.15,0.27 0.55,1.20 0.84,1.96 0.29,0.76 3.26,6.47 3.53,6.98 0.27,0.51 0.33,0.88 0.06,1.22 -9.53,10.05 -27.91,16.23 -28.50,16.57 -0.59,0.34 -0.43,0.61 0.56,0.43 1.48,-0.26 9.74,-1.64 12.09,-2.77 1.55,-0.75 6.97,-3.41 11.41,-6.89 -0.12,0.90 -0.24,2.22 -0.17,3.89 0.30,8.08 7.53,6.74 9.43,6.33 5.68,-1.25 12.64,-9.11 13.23,-10.68 0.58,-1.56 0.67,-2.98 0.54,-4.22 1.50,-0.81 4.71,-3.40 4.71,-3.40 0.13,3.45 2.88,4.48 3.72,4.63 3.96,0.60 5.94,-2.70 6.78,-3.78 0.72,1.89 2.45,2.26 3.34,2.43 3.41,0.68 4.08,-1.73 4.26,-2.29 1.07,-3.33 -0.86,-5.81 -1.11,-6.08 z M 348.31,31.57 c -2.02,-0.14 -1.85,-0.92 -1.57,-1.22 0.30,-0.33 2.78,-1.89 4.85,0.89 0.00,0.00 -0.86,0.50 -3.28,0.33 z M 317.84,23.91 c 0.00,0.00 1.25,-0.31 1.47,-0.38 0.22,-0.06 0.34,-0.34 -0.05,-0.55 -0.39,-0.20 -4.09,-1.67 -4.37,-1.79 -0.28,-0.11 -0.38,-0.24 -0.41,0.06 -0.02,0.30 -0.07,2.73 -0.07,2.73 0.00,0.00 -0.06,0.17 0.26,0.35 0.32,0.18 0.64,0.58 0.90,0.84 0.26,0.26 3.70,2.98 3.87,3.07 0.00,0.00 -1.72,3.02 -1.94,5.38 -0.22,2.36 0.04,5.63 3.27,4.57 0.87,-0.25 4.49,-1.69 5.30,-4.21 0.26,-0.93 1.01,-2.61 -0.21,-4.31 -0.70,-1.00 -3.53,-2.69 -3.53,-2.69 0.00,0.00 2.17,-3.00 2.38,-3.37 0.21,-0.37 1.00,-2.69 1.09,-3.26 0.09,-0.56 0.13,-0.84 -0.29,-0.32 -0.42,0.52 -4.63,6.05 -4.63,6.05 z M 324.79,32.79 c -1.20,0.99 -3.72,2.29 -4.43,2.36 -0.71,0.07 -2.59,-0.28 -1.77,-2.20 0.28,-0.62 2.16,-3.84 2.16,-3.84 0.70,0.39 5.24,2.70 4.04,3.69 z M 318.46,14.16 c -0.06,-0.05 -0.15,-0.03 -0.20,0.04 -1.53,2.10 -1.53,2.10 -1.53,2.10 -0.05,0.07 -0.04,0.16 0.03,0.20 2.61,1.91 2.61,1.91 2.61,1.91 0.06,0.05 0.15,0.03 0.20,-0.04 1.32,-1.81 1.32,-1.81 1.32,-1.81 2.54,1.85 2.54,1.85 2.54,1.85 0.06,0.05 0.15,0.03 0.20,-0.04 1.53,-2.10 1.53,-2.10 1.53,-2.10 0.05,-0.07 0.04,-0.16 -0.03,-0.20 -2.61,-1.91 -2.61,-1.91 -2.61,-1.91 -0.06,-0.05 -0.15,-0.03 -0.20,0.04 -1.32,1.81 -1.32,1.81 -1.32,1.81 z M 350.76,7.03 c 0.17,0.09 0.36,0.11 0.41,-0.10 0.05,-0.21 0.28,-0.68 0.62,-0.34 0.28,0.28 2.09,1.78 3.03,4.95 0.16,0.42 0.55,0.46 0.64,-0.14 0.22,-1.47 0.34,-4.02 0.45,-4.79 0.16,-1.09 0.68,-3.32 2.06,-2.16 0.31,0.26 0.64,0.61 0.64,0.61 0.29,0.37 0.66,0.79 0.84,0.36 0.27,-0.64 0.49,-1.70 0.19,-2.28 -0.13,-0.26 -1.84,-2.41 -3.00,-0.93 -1.44,1.83 -1.53,4.23 -1.72,6.91 -0.20,-0.56 -1.35,-4.16 -5.02,-6.21 -0.27,-0.15 -0.81,0.13 -0.86,0.98 -0.03,0.49 -0.17,1.69 0.18,2.03 0.35,0.34 1.37,1.01 1.54,1.10 z M 327.56,12.30 c 0.25,-0.16 13.84,-8.02 14.32,-8.31 0.46,-0.29 0.72,-0.41 0.91,-0.85 0.18,-0.44 0.23,-0.51 0.33,-0.82 0.10,-0.32 0.21,-0.67 -0.61,-0.19 -0.53,0.31 -14.04,8.11 -14.59,8.46 -0.55,0.35 -0.74,0.44 -0.83,0.87 -0.09,0.42 -0.13,0.67 -0.16,0.73 -0.10,0.28 -0.17,0.63 0.64,0.10 z M 371.37,14.30 c 0.18,-0.50 -0.04,-0.77 -0.29,-0.16 -0.25,0.61 -1.30,2.73 -1.14,5.22 0.04,0.58 0.42,1.70 1.29,1.73 0.45,0.00 1.03,-0.33 1.44,-1.73 0.07,-0.32 0.12,-0.57 0.15,-0.70 0.04,-0.19 -0.10,-0.42 -0.24,0.02 -0.33,0.86 -1.18,1.47 -1.82,0.31 -0.10,-0.23 -0.53,-1.28 0.26,-3.57 0.16,-0.45 0.36,-1.11 0.36,-1.11 z M 345.25,20.28 c 0.48,0.00 1.11,-0.35 1.55,-1.88 0.08,-0.34 0.13,-0.62 0.16,-0.75 0.05,-0.21 -0.10,-0.45 -0.26,0.02 -0.35,0.93 -1.27,1.58 -1.96,0.33 -0.11,-0.25 -0.58,-1.38 0.28,-3.86 0.17,-0.48 0.39,-1.20 0.39,-1.20 0.19,-0.54 -0.04,-0.84 -0.31,-0.17 -0.27,0.66 -1.40,2.94 -1.23,5.64 0.04,0.62 0.45,1.83 1.39,1.87 z M 368.61,6.37 c 0.79,0.58 1.93,1.04 1.93,1.04 -3.66,4.48 -10.84,7.67 -12.55,9.01 -0.51,0.39 -0.44,0.61 -0.12,0.53 0.29,-0.08 5.76,-1.61 10.77,-5.90 2.29,-1.97 2.23,-2.11 2.81,-3.31 0.50,0.26 0.84,0.67 1.03,0.91 0.28,0.34 0.43,0.60 0.56,0.23 0.48,-1.33 -0.20,-2.13 -0.84,-2.54 0.00,0.00 0.67,-2.07 -0.56,-4.14 -0.21,-0.35 -1.43,-1.46 -2.85,0.74 -0.55,0.84 -0.96,2.85 -0.17,3.42 z M 369.34,4.34 c 0.73,-1.02 1.08,-0.99 1.36,-0.82 0.82,0.77 0.70,2.02 0.67,2.31 0.00,0.00 -1.05,-0.49 -1.52,-0.70 -0.47,-0.20 -0.72,-0.50 -0.50,-0.80 z M 310.88,13.78 c 0.17,-0.04 3.05,-0.49 6.41,-3.05 1.82,-1.38 2.92,-3.74 2.92,-3.74 0.00,0.00 0.91,0.76 1.03,0.91 0.28,0.34 0.43,0.60 0.56,0.23 0.48,-1.33 -0.20,-2.13 -0.84,-2.54 0.00,0.00 0.67,-2.07 -0.56,-4.14 -0.21,-0.35 -1.43,-1.46 -2.85,0.74 -0.55,0.84 -0.96,2.85 -0.17,3.42 0.79,0.58 1.93,1.04 1.93,1.04 -3.66,4.48 -6.16,5.34 -8.30,6.59 -0.55,0.32 -0.44,0.61 -0.12,0.53 z M 318.60,4.39 c -0.47,-0.20 -0.72,-0.50 -0.50,-0.80 0.73,-1.02 1.08,-0.99 1.36,-0.82 0.82,0.77 0.70,2.03 0.67,2.31 0.00,0.00 -1.05,-0.49 -1.52,-0.69 z M 288.90,17.38 c -0.55,0.84 -0.96,2.85 -0.17,3.42 0.79,0.58 1.93,1.04 1.93,1.04 -3.66,4.49 -6.16,5.34 -8.30,6.60 -0.55,0.32 -0.44,0.61 -0.12,0.53 0.17,-0.05 3.05,-0.49 6.41,-3.05 1.82,-1.38 2.92,-3.74 2.92,-3.74 0.00,0.00 0.91,0.76 1.03,0.91 0.28,0.34 0.43,0.60 0.56,0.23 0.48,-1.33 -0.20,-2.13 -0.85,-2.54 0.00,0.00 0.67,-2.07 -0.56,-4.14 -0.21,-0.35 -1.43,-1.46 -2.85,0.74 z M 290.81,17.95 c 0.82,0.77 0.70,2.03 0.67,2.31 0.00,0.00 -1.05,-0.49 -1.52,-0.69 -0.47,-0.20 -0.72,-0.50 -0.50,-0.80 0.73,-1.02 1.08,-0.99 1.36,-0.82 z M 373.74,37.21 c -0.24,0.68 -0.34,1.12 -0.31,1.38 0.03,0.26 0.11,1.09 0.11,1.09 -0.25,0.20 -1.33,0.87 -2.40,0.08 0.07,-0.23 0.21,-0.70 0.24,-0.95 0.12,-0.40 -0.13,-0.69 -0.32,-0.28 -0.19,0.41 -0.65,1.79 -0.99,2.10 -0.34,0.31 -0.73,1.45 -3.30,0.29 -0.45,-0.17 -1.23,-0.75 -2.46,0.48 -2.77,2.57 -4.68,2.77 -7.79,3.88 -0.38,0.17 -1.16,0.76 -0.23,0.67 0.94,-0.09 4.87,0.00 7.01,-2.46 0.45,-0.43 0.96,-1.58 2.66,-0.92 0.94,0.36 2.68,1.85 4.58,-1.10 1.12,0.75 2.82,0.45 3.09,-0.38 0.27,-0.82 0.58,-1.64 0.58,-2.20 0.00,-0.56 -0.05,-1.30 -0.05,-1.30 -0.04,-0.44 -0.19,-1.07 -0.44,-0.40 z M 198.83,19.69 c -0.46,0.34 -0.31,0.56 -0.10,0.44 0.21,-0.12 0.43,-0.15 2.95,-1.88 2.03,-1.39 2.46,-3.00 2.63,-4.24 0.02,-0.06 0.04,-0.13 0.05,-0.21 0.21,-1.50 0.33,-4.12 0.44,-4.91 0.16,-1.11 0.66,-3.41 2.00,-2.22 0.30,0.27 0.63,0.63 0.63,0.63 0.29,0.38 0.64,0.81 0.82,0.37 0.26,-0.66 0.47,-1.75 0.19,-2.34 -0.13,-0.26 -1.79,-2.47 -2.92,-0.96 -1.40,1.87 -1.49,4.34 -1.67,7.08 -0.20,-0.57 -1.32,-4.26 -4.89,-6.37 -0.26,-0.15 -0.79,0.14 -0.84,1.00 -0.03,0.51 -0.17,1.73 0.17,2.08 0.34,0.35 1.34,1.03 1.50,1.13 0.17,0.10 0.35,0.11 0.40,-0.10 0.05,-0.21 0.28,-0.70 0.60,-0.35 0.23,0.25 2.14,1.99 2.73,4.38 0.49,2.07 -4.42,6.25 -4.68,6.45 z M 304.55,34.29 c -0.75,-0.15 -2.42,-0.17 -4.58,0.45 -0.16,-0.49 -0.27,-1.04 -0.40,-1.62 -2.21,-9.79 -3.67,-24.86 -3.67,-24.86 0.00,0.00 1.55,1.46 1.80,1.72 0.25,0.26 0.55,0.12 0.41,-0.30 -0.14,-0.42 -3.32,-8.09 -3.42,-8.36 -0.10,-0.27 -0.21,-0.46 -0.33,-0.15 -0.13,0.31 -1.15,2.55 -1.15,2.55 0.03,0.18 0.27,0.73 0.43,1.87 0.17,1.18 2.73,23.22 4.20,29.83 0.01,0.03 0.02,0.06 0.03,0.10 -0.17,0.08 -0.35,0.15 -0.53,0.24 -1.05,0.50 -8.86,5.34 -16.58,-1.61 0.03,-0.11 0.06,-0.21 0.09,-0.32 0.13,-0.59 -0.23,-1.19 -1.06,-0.03 -0.09,0.12 -0.19,0.30 -0.31,0.51 -0.26,0.41 -0.60,1.03 -1.34,1.70 -0.69,0.63 -7.79,6.83 -10.53,-1.62 0.23,-1.02 0.00,-1.85 -0.59,-0.96 -0.59,0.89 -4.19,6.83 -10.00,5.21 -0.79,-0.23 -3.53,-1.72 -3.30,-4.55 0.00,-0.02 0.00,-0.03 0.00,-0.04 1.43,-0.07 3.47,-0.05 6.19,0.28 0.26,-0.40 1.52,-2.86 1.52,-2.86 -1.56,-0.18 -7.06,0.09 -19.76,-5.06 -0.46,-0.24 -0.82,-0.33 -1.38,-0.28 -0.56,0.05 -3.06,0.51 -5.17,1.48 -0.27,0.13 -0.22,0.16 -0.33,0.31 -0.11,0.16 -0.84,1.97 -0.95,2.20 -0.11,0.23 0.12,0.37 0.51,0.36 0.39,-0.01 5.93,-0.29 5.93,-0.29 0.00,0.00 0.19,-0.02 0.23,-0.21 0.04,-0.18 0.23,-0.30 0.66,-0.15 0.43,0.16 6.10,2.03 7.69,2.62 -1.09,0.46 -13.70,7.06 -15.74,-0.40 0.09,-0.61 0.10,-1.91 -0.59,-0.92 -0.70,0.99 -2.86,5.77 -8.50,5.53 -0.61,-0.04 -3.76,-0.22 -7.00,-5.42 -0.61,-0.98 -2.15,-1.52 -3.97,-0.11 -1.82,1.41 -3.38,2.49 -5.56,7.95 -0.51,1.29 -1.45,4.18 -4.05,3.83 -0.76,-0.11 -4.76,-2.17 -3.93,-11.42 0.07,-0.76 -0.23,-1.06 -0.40,-0.36 -0.17,0.69 -2.21,8.29 2.28,13.56 2.44,2.87 4.58,0.97 5.41,-0.40 0.56,-0.92 2.96,-7.99 6.47,-10.10 0.85,-0.51 1.78,-1.16 2.97,0.43 1.19,1.58 3.10,4.98 8.02,5.15 4.92,0.17 7.51,-4.72 7.51,-4.72 0.16,0.32 1.72,4.84 8.14,3.40 3.04,-0.68 10.71,-4.10 11.66,-4.24 0.25,-0.04 0.62,-0.08 1.11,-0.13 -0.18,1.43 -1.03,7.27 5.41,7.83 1.02,0.09 5.28,0.17 8.45,-4.98 -0.10,1.42 3.79,8.88 11.65,1.98 0.09,-0.08 0.19,-0.16 0.22,-0.18 0.09,1.27 0.83,4.15 3.44,5.92 1.35,0.76 1.82,0.79 2.44,0.83 0.63,0.03 1.29,-0.56 1.35,-1.88 0.04,-0.89 0.25,-2.05 0.13,-3.14 1.67,0.29 5.73,0.74 10.99,-1.58 0.33,-0.14 1.05,-0.44 1.94,-0.74 0.71,1.60 1.96,3.42 4.24,4.39 1.58,0.67 2.95,0.69 3.70,-1.69 0.35,-1.12 1.72,-5.77 -2.11,-6.56 z M 283.36,42.02 c -1.35,-0.54 -3.03,-1.65 -3.09,-4.55 0.25,0.01 0.56,0.28 0.84,0.47 2.07,1.41 4.07,4.81 2.25,4.08 z M 305.07,39.83 c -0.67,-0.10 -2.35,-0.65 -3.72,-2.42 0.88,-0.18 1.71,-0.27 2.29,-0.15 2.13,0.56 2.47,2.74 1.43,2.57 z" />
     </g>
</svg>
