<?xml version="1.0" encoding="UTF-8"?>
<svg version="1.1" id="Layer_1" x="0px" y="0px" width="578" height="50" viewBox="0 0 578 50"
xml:space="preserve" xmlns="http://www.w3.org/2000/svg" xmlns:svg="http://www.w3.org/2000/svg" xmlns:rdf="http://www.w3.org/1999/02/22-rdf-syntax-ns#"  xmlns:cc="http://creativecommons.org/ns#" xmlns:dc="http://purl.org/dc/elements/1.1/">
     <g>
<path d="M 242.68,19.79 c -1.92,2.63 -1.92,2.63 -1.92,2.63 -0.06,0.08 -0.05,0.20 0.03,0.25 3.27,2.38 3.27,2.38 3.27,2.38 0.08,0.06 0.19,0.04 0.25,-0.05 1.91,-2.63 1.91,-2.63 1.91,-2.63 0.06,-0.08 0.05,-0.20 -0.03,-0.25 -3.27,-2.38 -3.27,-2.38 -3.27,-2.38 -0.08,-0.06 -0.19,-0.04 -0.25,0.05 z M 291.06,42.92 c -0.04,0.46 0.17,0.63 0.38,0.19 0.21,-0.44 1.67,-3.46 -0.06,-14.54 -0.13,-0.92 -2.63,-18.08 -2.63,-18.08 0.00,0.00 1.55,1.46 1.80,1.72 0.25,0.26 0.55,0.12 0.41,-0.30 -0.14,-0.42 -3.32,-8.10 -3.42,-8.36 -0.10,-0.27 -0.20,-0.46 -0.33,-0.15 -0.13,0.31 -0.88,2.38 -0.88,2.38 0.20,1.35 1.99,15.82 2.10,16.81 0.12,0.99 2.49,15.80 2.63,20.33 z M 238.41,16.32 c -0.03,0.42 0.00,1.80 0.81,2.18 0.81,0.39 1.99,0.03 2.88,-1.66 0.69,1.00 1.74,1.01 2.30,0.80 0.48,-0.17 1.01,-0.89 1.17,-1.89 0.16,-0.99 -0.10,-1.67 -0.41,-2.24 -0.41,-0.69 -0.69,-1.85 -0.69,-1.85 -0.15,-0.41 -0.26,-0.84 -0.44,-0.27 -0.18,0.57 -0.32,1.01 -0.07,1.67 0.25,0.65 0.92,2.14 1.03,2.35 0.11,0.21 0.14,0.45 -0.23,0.61 -0.37,0.16 -2.05,0.52 -2.36,-1.28 -0.31,-1.79 -0.34,-2.32 -0.50,-2.62 -0.16,-0.30 -0.30,-0.34 -0.42,-0.04 -0.12,0.30 -0.19,0.93 -0.21,1.03 -0.02,0.10 -0.02,0.17 0.05,0.28 0.07,0.11 0.74,2.12 0.43,2.67 -0.30,0.55 -1.81,1.55 -2.60,0.51 -0.38,-0.73 -0.15,-2.57 -0.15,-3.00 0.00,-0.43 -0.14,-0.58 -0.32,-0.23 -0.18,0.35 -0.29,0.58 -0.28,0.89 0.01,0.31 0.06,1.66 0.03,2.08 z M 260.41,27.88 c 0.81,0.39 1.99,0.03 2.88,-1.66 0.69,1.00 1.74,1.01 2.30,0.80 0.48,-0.18 1.01,-0.89 1.17,-1.89 0.16,-0.99 -0.10,-1.67 -0.41,-2.24 -0.41,-0.69 -0.69,-1.85 -0.69,-1.85 -0.15,-0.41 -0.26,-0.84 -0.44,-0.27 -0.18,0.57 -0.32,1.01 -0.07,1.67 0.25,0.65 0.92,2.14 1.03,2.35 0.11,0.21 0.14,0.45 -0.23,0.61 -0.37,0.16 -2.05,0.52 -2.36,-1.28 -0.31,-1.79 -0.34,-2.32 -0.50,-2.62 -0.16,-0.30 -0.30,-0.34 -0.42,-0.04 -0.12,0.30 -0.19,0.93 -0.21,1.03 -0.02,0.10 -0.02,0.17 0.05,0.28 0.07,0.11 0.74,2.12 0.43,2.67 -0.30,0.55 -1.81,1.55 -2.61,0.51 -0.38,-0.73 -0.15,-2.57 -0.15,-3.00 0.00,-0.43 -0.14,-0.58 -0.32,-0.23 -0.18,0.35 -0.29,0.58 -0.28,0.89 0.01,0.31 0.06,1.66 0.03,2.08 -0.03,0.42 0.00,1.79 0.81,2.18 z M 251.23,8.94 c 0.16,0.09 0.34,0.10 0.39,-0.09 0.05,-0.19 0.27,-0.65 0.59,-0.32 0.27,0.27 1.99,1.69 2.88,4.71 0.15,0.40 0.52,0.44 0.61,-0.13 0.21,-1.40 0.32,-3.82 0.43,-4.56 0.16,-1.03 0.65,-3.16 1.96,-2.06 0.30,0.25 0.61,0.58 0.61,0.58 0.28,0.35 0.63,0.75 0.80,0.35 0.26,-0.61 0.46,-1.62 0.18,-2.17 -0.13,-0.24 -1.75,-2.29 -2.85,-0.89 -1.37,1.74 -1.46,4.03 -1.64,6.58 -0.19,-0.53 -1.29,-3.95 -4.78,-5.91 -0.25,-0.14 -0.77,0.13 -0.82,0.93 -0.03,0.47 -0.16,1.61 0.17,1.93 0.33,0.32 1.31,0.96 1.47,1.05 z M 242.91,44.39 c -0.55,0.28 -7.69,3.16 -8.25,3.48 -0.57,0.32 -0.77,0.40 -0.88,0.81 -0.11,0.41 -0.17,0.66 -0.20,0.72 -0.12,0.28 -0.21,0.62 0.63,0.14 0.26,-0.15 7.50,-3.08 7.97,-3.35 0.47,-0.27 0.75,-0.36 0.96,-0.79 0.21,-0.42 0.26,-0.50 0.38,-0.80 0.12,-0.32 0.25,-0.65 -0.60,-0.23 z M 250.27,21.27 c -0.10,0.47 -0.15,0.73 -0.18,0.83 -0.09,0.32 -0.22,0.66 0.72,0.12 0.29,-0.17 22.64,-12.29 23.15,-12.62 0.51,-0.33 0.81,-0.46 1.02,-0.95 0.21,-0.49 0.26,-0.58 0.37,-0.92 0.12,-0.36 0.26,-0.70 -0.69,-0.21 -0.63,0.33 -22.80,12.44 -23.45,12.79 -0.64,0.35 -0.83,0.50 -0.93,0.97 z M 285.21,41.77 c -0.41,-0.14 -1.03,-0.03 -1.85,1.11 -0.17,0.27 -0.29,0.48 -0.35,0.59 -0.10,0.16 -0.04,0.41 0.23,0.06 0.57,-0.68 1.53,-0.95 1.74,0.30 0.02,0.24 0.08,1.33 -1.36,3.15 -0.28,0.35 -0.68,0.89 -0.68,0.89 -0.32,0.40 -0.21,0.71 0.21,0.24 0.42,-0.48 2.04,-2.06 2.68,-4.36 0.15,-0.53 0.16,-1.67 -0.62,-1.97 z M 274.58,22.54 c -0.16,-0.28 -0.82,-1.55 0.10,-4.47 0.19,-0.57 0.41,-1.41 0.41,-1.41 0.21,-0.64 -0.10,-0.96 -0.40,-0.18 -0.30,0.78 -1.59,3.50 -1.19,6.59 0.09,0.71 0.69,2.08 1.88,2.05 0.61,-0.04 1.38,-0.49 1.85,-2.27 0.07,-0.40 0.12,-0.72 0.15,-0.88 0.05,-0.24 -0.16,-0.51 -0.33,0.04 -0.39,1.10 -1.51,1.92 -2.47,0.53 z M 232.10,25.16 c 0.21,-0.64 -0.10,-0.96 -0.40,-0.18 -0.30,0.78 -1.59,3.50 -1.19,6.59 0.09,0.71 0.69,2.08 1.88,2.05 0.61,-0.04 1.38,-0.49 1.85,-2.27 0.07,-0.40 0.12,-0.72 0.15,-0.88 0.05,-0.24 -0.16,-0.51 -0.33,0.04 -0.39,1.10 -1.51,1.92 -2.47,0.53 -0.16,-0.28 -0.82,-1.55 0.10,-4.47 0.19,-0.57 0.41,-1.41 0.41,-1.41 z M 221.30,30.94 c 0.70,0.02 1.63,-0.59 2.35,-3.33 0.13,-0.62 0.22,-1.12 0.27,-1.36 0.08,-0.37 -0.13,-0.82 -0.38,0.03 -0.56,1.68 -1.93,2.82 -2.86,0.52 -0.15,-0.45 -0.76,-2.53 0.61,-6.98 0.28,-0.86 0.63,-2.15 0.63,-2.15 0.31,-0.97 -0.01,-1.52 -0.44,-0.33 -0.43,1.19 -2.19,5.28 -2.09,10.17 0.03,1.13 0.56,3.34 1.91,3.44 z M 308.09,12.30 c 0.25,-0.16 13.84,-8.02 14.32,-8.31 0.46,-0.29 0.72,-0.41 0.90,-0.85 0.18,-0.44 0.23,-0.51 0.33,-0.82 0.10,-0.32 0.21,-0.67 -0.61,-0.19 -0.53,0.31 -14.04,8.11 -14.59,8.46 -0.55,0.35 -0.74,0.44 -0.83,0.87 -0.09,0.42 -0.13,0.67 -0.16,0.73 -0.10,0.28 -0.17,0.63 0.64,0.10 z M 331.29,7.03 c 0.17,0.09 0.36,0.11 0.41,-0.10 0.05,-0.21 0.29,-0.68 0.62,-0.34 0.28,0.28 2.09,1.78 3.03,4.95 0.16,0.42 0.55,0.46 0.64,-0.14 0.22,-1.47 0.33,-4.02 0.45,-4.79 0.16,-1.09 0.68,-3.32 2.06,-2.16 0.31,0.26 0.64,0.61 0.64,0.61 0.29,0.37 0.66,0.79 0.84,0.36 0.27,-0.64 0.49,-1.70 0.19,-2.28 -0.13,-0.26 -1.84,-2.41 -3.00,-0.93 -1.44,1.83 -1.53,4.23 -1.72,6.91 -0.20,-0.56 -1.35,-4.16 -5.02,-6.21 -0.27,-0.15 -0.81,0.13 -0.86,0.98 -0.03,0.49 -0.17,1.69 0.18,2.03 0.35,0.34 1.37,1.01 1.54,1.10 z M 325.79,20.28 c 0.48,0.00 1.11,-0.35 1.55,-1.88 0.08,-0.34 0.12,-0.62 0.16,-0.75 0.05,-0.21 -0.10,-0.45 -0.26,0.02 -0.36,0.93 -1.28,1.58 -1.96,0.33 -0.11,-0.25 -0.58,-1.38 0.28,-3.86 0.17,-0.48 0.39,-1.20 0.39,-1.20 0.19,-0.54 -0.04,-0.84 -0.31,-0.17 -0.27,0.66 -1.40,2.94 -1.23,5.64 0.04,0.62 0.45,1.83 1.39,1.87 z M 351.90,14.30 c 0.18,-0.50 -0.04,-0.77 -0.29,-0.16 -0.25,0.61 -1.30,2.73 -1.14,5.22 0.04,0.58 0.42,1.70 1.29,1.73 0.45,0.00 1.03,-0.33 1.44,-1.73 0.07,-0.32 0.12,-0.57 0.15,-0.70 0.04,-0.19 -0.10,-0.42 -0.24,0.02 -0.33,0.86 -1.18,1.47 -1.82,0.31 -0.10,-0.23 -0.53,-1.28 0.26,-3.57 0.16,-0.45 0.36,-1.11 0.36,-1.11 z M 349.14,6.37 c 0.79,0.58 1.94,1.04 1.94,1.04 -3.66,4.48 -10.84,7.67 -12.56,9.01 -0.51,0.39 -0.44,0.61 -0.12,0.53 0.28,-0.08 5.76,-1.61 10.76,-5.90 2.29,-1.97 2.23,-2.11 2.81,-3.31 0.50,0.26 0.84,0.67 1.03,0.91 0.28,0.34 0.43,0.60 0.56,0.23 0.48,-1.33 -0.20,-2.13 -0.84,-2.54 0.00,0.00 0.67,-2.07 -0.56,-4.14 -0.21,-0.35 -1.43,-1.46 -2.85,0.74 -0.55,0.84 -0.96,2.85 -0.17,3.42 z M 349.87,4.34 c 0.73,-1.02 1.08,-0.99 1.36,-0.82 0.82,0.77 0.70,2.03 0.67,2.31 0.00,0.00 -1.05,-0.49 -1.52,-0.69 -0.47,-0.20 -0.72,-0.50 -0.50,-0.80 z M 298.37,23.91 c 0.00,0.00 1.25,-0.31 1.47,-0.38 0.22,-0.06 0.34,-0.34 -0.05,-0.55 -0.39,-0.20 -4.09,-1.67 -4.37,-1.79 -0.28,-0.11 -0.38,-0.24 -0.41,0.06 -0.02,0.30 -0.07,2.73 -0.07,2.73 0.00,0.00 -0.06,0.17 0.27,0.35 0.32,0.18 0.64,0.58 0.90,0.84 0.26,0.26 3.70,2.97 3.87,3.07 0.00,0.00 -1.72,3.02 -1.94,5.38 -0.22,2.36 0.04,5.63 3.27,4.57 0.87,-0.25 4.49,-1.69 5.30,-4.21 0.26,-0.93 1.01,-2.61 -0.21,-4.31 -0.70,-1.00 -3.53,-2.69 -3.53,-2.69 0.00,0.00 2.17,-3.00 2.38,-3.37 0.21,-0.37 1.00,-2.69 1.09,-3.26 0.09,-0.56 0.13,-0.84 -0.29,-0.32 -0.42,0.52 -4.63,6.05 -4.63,6.05 z M 305.32,32.79 c -1.20,0.99 -3.72,2.29 -4.43,2.36 -0.71,0.07 -2.59,-0.28 -1.77,-2.21 0.28,-0.62 2.16,-3.84 2.16,-3.84 0.70,0.39 5.24,2.70 4.04,3.69 z M 357.48,24.89 c -0.25,-0.28 -0.37,-0.01 -0.46,0.31 -0.09,0.32 -0.36,1.52 -0.54,2.27 0.00,0.00 0.71,1.16 0.97,1.75 0.25,0.59 -0.12,0.92 -0.86,1.01 -2.08,0.25 -3.73,-0.94 -4.30,-1.48 -0.57,-0.55 0.05,-1.52 0.51,-2.68 0.37,-0.93 -0.32,-1.04 -0.84,0.00 -1.76,4.63 -4.23,5.12 -4.88,5.30 -5.86,1.60 -5.36,-3.76 -5.33,-4.64 0.02,-0.88 -0.62,-0.55 -1.34,0.03 -2.47,1.98 -4.45,3.14 -5.52,3.62 -0.92,-1.80 -2.26,-2.93 -2.82,-3.34 -6.34,-4.63 -6.87,4.71 -6.67,5.71 0.97,3.97 7.45,1.56 8.46,1.44 1.02,-0.12 0.68,1.22 0.11,2.02 -1.41,1.97 -3.03,3.38 -4.50,4.58 -6.28,5.12 -9.43,4.72 -10.41,4.69 -6.17,-0.17 -5.60,-6.82 -5.26,-8.24 1.86,-1.57 3.45,-3.28 4.38,-5.04 0.38,-0.96 1.03,-3.16 -0.15,-5.91 -0.62,-1.21 -2.56,-4.60 -2.56,-4.60 0.00,0.00 1.43,0.04 1.57,0.04 0.14,0.00 0.41,-0.14 0.06,-0.54 -0.35,-0.40 -3.36,-3.41 -3.54,-3.65 -0.18,-0.24 -0.35,-0.41 -0.45,-0.06 -0.10,0.36 -0.36,1.88 -0.42,2.20 -0.06,0.31 -0.06,0.63 0.10,0.90 0.16,0.27 0.55,1.20 0.84,1.96 0.29,0.76 3.25,6.47 3.53,6.98 0.27,0.51 0.33,0.88 0.06,1.22 -9.53,10.05 -27.91,16.23 -28.50,16.58 -0.59,0.34 -0.43,0.61 0.56,0.43 1.48,-0.26 9.74,-1.64 12.09,-2.77 1.55,-0.75 6.98,-3.41 11.41,-6.89 -0.12,0.90 -0.24,2.22 -0.18,3.89 0.30,8.08 7.53,6.74 9.43,6.33 5.68,-1.25 12.64,-9.11 13.23,-10.69 0.58,-1.56 0.67,-2.98 0.54,-4.22 1.50,-0.81 4.71,-3.40 4.71,-3.40 0.13,3.45 2.87,4.48 3.72,4.63 3.95,0.60 5.94,-2.71 6.78,-3.78 0.72,1.89 2.45,2.26 3.34,2.43 3.41,0.68 4.08,-1.73 4.25,-2.29 1.07,-3.33 -0.86,-5.81 -1.11,-6.08 z M 328.84,31.57 c -2.03,-0.14 -1.85,-0.92 -1.57,-1.22 0.30,-0.33 2.78,-1.89 4.85,0.89 0.00,0.00 -0.86,0.50 -3.28,0.33 z M 291.41,13.78 c 0.17,-0.04 3.05,-0.49 6.41,-3.05 1.82,-1.38 2.92,-3.74 2.92,-3.74 0.00,0.00 0.91,0.76 1.03,0.91 0.28,0.34 0.43,0.60 0.56,0.23 0.48,-1.33 -0.20,-2.13 -0.84,-2.54 0.00,0.00 0.67,-2.07 -0.56,-4.14 -0.21,-0.35 -1.43,-1.46 -2.85,0.74 -0.55,0.84 -0.96,2.85 -0.17,3.42 0.79,0.58 1.94,1.04 1.94,1.04 -3.66,4.48 -6.16,5.34 -8.30,6.59 -0.55,0.32 -0.44,0.61 -0.12,0.53 z M 299.13,4.39 c -0.47,-0.20 -0.72,-0.50 -0.50,-0.80 0.73,-1.02 1.08,-0.98 1.36,-0.82 0.82,0.77 0.70,2.03 0.67,2.31 0.00,0.00 -1.05,-0.49 -1.52,-0.70 z M 354.27,37.21 c -0.24,0.68 -0.34,1.12 -0.32,1.38 0.03,0.26 0.12,1.10 0.12,1.10 -0.25,0.20 -1.33,0.87 -2.40,0.08 0.07,-0.23 0.21,-0.70 0.24,-0.95 0.12,-0.40 -0.13,-0.69 -0.32,-0.28 -0.20,0.41 -0.65,1.79 -0.99,2.10 -0.34,0.31 -0.74,1.45 -3.30,0.29 -0.45,-0.17 -1.23,-0.75 -2.46,0.48 -2.77,2.57 -4.68,2.78 -7.79,3.88 -0.38,0.17 -1.16,0.77 -0.23,0.67 0.94,-0.09 4.87,0.00 7.01,-2.46 0.45,-0.43 0.96,-1.58 2.66,-0.92 0.94,0.36 2.68,1.85 4.58,-1.10 1.12,0.75 2.82,0.45 3.09,-0.38 0.27,-0.82 0.58,-1.64 0.58,-2.20 0.00,-0.56 -0.05,-1.30 -0.05,-1.30 -0.04,-0.44 -0.19,-1.07 -0.44,-0.40 z M 298.99,14.16 c -0.06,-0.05 -0.15,-0.03 -0.20,0.04 -1.53,2.10 -1.53,2.10 -1.53,2.10 -0.05,0.07 -0.04,0.16 0.03,0.20 2.61,1.91 2.61,1.91 2.61,1.91 0.06,0.05 0.15,0.03 0.20,-0.04 1.32,-1.81 1.32,-1.81 1.32,-1.81 2.54,1.85 2.54,1.85 2.54,1.85 0.06,0.05 0.15,0.03 0.20,-0.04 1.53,-2.10 1.53,-2.10 1.53,-2.10 0.05,-0.07 0.04,-0.16 -0.03,-0.20 -2.61,-1.91 -2.61,-1.91 -2.61,-1.91 -0.06,-0.05 -0.15,-0.03 -0.20,0.04 -1.32,1.81 -1.32,1.81 -1.32,1.81 z M 225.91,9.68 c 0.17,0.09 0.35,0.11 0.40,-0.10 0.05,-0.21 0.28,-0.68 0.61,-0.34 0.24,0.24 2.17,1.94 2.76,4.27 0.49,2.02 -4.48,6.10 -4.74,6.29 -0.47,0.33 -0.32,0.55 -0.10,0.43 0.22,-0.12 0.43,-0.15 2.98,-1.83 2.06,-1.36 2.49,-2.93 2.66,-4.14 0.02,-0.06 0.04,-0.13 0.05,-0.21 0.21,-1.47 0.33,-4.02 0.44,-4.79 0.16,-1.09 0.67,-3.33 2.03,-2.16 0.31,0.26 0.63,0.61 0.63,0.61 0.29,0.37 0.65,0.79 0.83,0.36 0.27,-0.64 0.48,-1.70 0.19,-2.28 -0.13,-0.26 -1.81,-2.41 -2.95,-0.93 -1.42,1.83 -1.51,4.23 -1.70,6.91 -0.20,-0.56 -1.33,-4.16 -4.95,-6.21 -0.26,-0.15 -0.80,0.13 -0.85,0.98 -0.03,0.49 -0.17,1.69 0.17,2.03 0.34,0.34 1.35,1.01 1.52,1.10 z M 281.11,10.49 c 0.00,0.00 1.05,0.67 1.30,0.93 0.25,0.26 0.55,0.12 0.41,-0.30 -0.14,-0.42 -2.82,-7.31 -2.92,-7.58 -0.10,-0.27 -0.20,-0.46 -0.33,-0.15 -0.13,0.31 -0.98,2.57 -0.98,2.57 0.03,0.18 0.33,0.73 0.50,1.86 0.16,1.09 0.15,2.61 0.40,4.30 0.00,0.00 1.83,13.01 1.97,13.91 0.13,0.90 1.23,7.66 1.23,8.56 0.00,0.90 0.59,2.16 -3.56,3.54 0.22,-0.68 1.28,-3.72 0.81,-4.77 -2.53,-4.88 -7.13,-3.99 -8.54,-3.43 -0.88,0.35 -4.25,1.21 -9.94,10.12 0.00,0.00 -2.82,-0.86 -3.87,-3.83 -0.07,-0.73 -0.07,-2.09 -0.66,-1.30 -0.59,0.79 -1.45,3.89 -3.89,5.10 -0.57,0.35 -5.17,1.72 -7.06,-1.72 0.84,-0.86 2.51,-2.00 2.44,-5.61 -0.29,-4.80 -3.48,-5.94 -4.53,-4.64 -1.06,1.30 -2.55,4.07 -2.18,6.25 0.22,1.01 1.01,3.06 1.01,3.06 -0.84,0.62 -10.56,5.74 -18.39,3.10 -0.86,-0.37 -5.70,-2.00 -3.30,-9.02 0.20,-0.42 -0.26,-1.10 -0.68,-0.18 -0.42,0.92 -3.94,8.80 3.04,12.14 0.86,0.40 6.72,3.12 20.55,-3.67 0.85,1.20 3.69,5.18 8.33,3.61 1.14,-0.35 2.97,-1.32 4.13,-4.10 0.73,0.98 1.77,2.46 3.80,3.43 -0.26,0.51 -0.86,1.91 -1.01,2.23 -0.17,0.35 0.05,0.48 0.22,0.25 0.14,-0.18 1.23,-1.57 1.66,-2.11 1.37,0.49 3.12,0.76 5.40,0.60 0.94,-0.07 9.09,-1.14 13.66,-2.99 0.97,-0.46 3.46,-1.70 3.96,-6.57 0.16,-1.75 -2.95,-23.59 -2.95,-23.59 z M 244.46,36.34 c 0.00,0.00 -1.14,-2.20 -1.32,-2.75 -0.18,-0.55 -0.45,-1.57 0.67,-2.57 1.69,-1.51 3.31,2.45 3.42,2.80 0.11,0.36 -0.06,0.44 -0.24,0.64 -0.18,0.20 -2.01,1.60 -2.53,1.88 z M 277.99,36.79 c -5.65,3.92 -13.94,3.71 -15.12,3.56 0.00,0.00 3.94,-6.42 8.22,-7.90 1.09,-0.32 4.09,-0.60 6.96,3.10 0.56,0.79 0.24,1.01 -0.06,1.24 z" />
     </g>
</svg>
