<?xml version="1.0" encoding="UTF-8"?>
<svg version="1.1" id="Layer_1" x="0px" y="0px" width="578" height="50" viewBox="0 0 578 50"
xml:space="preserve" xmlns="http://www.w3.org/2000/svg" xmlns:svg="http://www.w3.org/2000/svg" xmlns:rdf="http://www.w3.org/1999/02/22-rdf-syntax-ns#"  xmlns:cc="http://creativecommons.org/ns#" xmlns:dc="http://purl.org/dc/elements/1.1/">
     <g>
<path d="M 284.59,41.21 c -1.92,2.63 -1.92,2.63 -1.92,2.63 -0.06,0.08 -0.05,0.20 0.03,0.25 3.27,2.38 3.27,2.38 3.27,2.38 0.08,0.06 0.19,0.04 0.25,-0.05 1.91,-2.63 1.91,-2.63 1.91,-2.63 0.06,-0.08 0.05,-0.20 -0.03,-0.25 -3.27,-2.38 -3.27,-2.38 -3.27,-2.38 -0.08,-0.06 -0.19,-0.04 -0.25,0.05 z M 264.97,10.84 c -0.70,0.71 -1.50,2.59 -0.85,3.30 0.65,0.72 1.68,1.40 1.68,1.40 -4.09,4.18 -8.81,6.77 -11.14,7.56 -0.60,0.21 -0.55,0.51 -0.22,0.49 0.17,-0.01 3.62,-0.57 7.24,-2.71 3.35,-1.98 4.94,-4.84 4.94,-4.84 0.00,0.00 0.74,0.92 0.83,1.10 0.20,0.39 0.30,0.67 0.50,0.34 0.73,-1.20 0.23,-2.11 -0.32,-2.65 0.00,0.00 1.07,-1.88 0.27,-4.15 -0.13,-0.38 -1.11,-1.71 -2.93,0.15 z M 266.91,14.17 c 0.00,0.00 -0.93,-0.69 -1.35,-0.98 -0.42,-0.29 -0.60,-0.63 -0.33,-0.88 0.91,-0.85 1.25,-0.75 1.49,-0.53 0.65,0.91 0.28,2.12 0.19,2.39 z M 274.52,14.49 c -0.63,0.77 -1.24,2.73 -0.52,3.37 0.72,0.65 1.81,1.22 1.81,1.22 -4.07,4.08 -7.78,6.27 -10.02,7.30 -0.58,0.26 -0.50,0.56 -0.17,0.51 0.17,-0.03 3.07,-0.78 6.68,-2.93 3.04,-1.81 4.37,-4.46 4.37,-4.46 0.00,0.00 0.83,0.84 0.93,1.01 0.24,0.37 0.36,0.63 0.53,0.29 0.61,-1.27 0.02,-2.13 -0.58,-2.60 0.00,0.00 0.87,-1.98 -0.14,-4.16 -0.17,-0.36 -1.27,-1.59 -2.90,0.45 z M 276.35,15.24 c 0.74,0.84 0.49,2.08 0.43,2.36 0.00,0.00 -0.99,-0.59 -1.44,-0.84 -0.45,-0.25 -0.66,-0.57 -0.42,-0.84 0.82,-0.94 1.17,-0.87 1.43,-0.67 z M 222.35,23.21 c 2.61,1.91 2.61,1.91 2.61,1.91 0.06,0.05 0.15,0.03 0.20,-0.04 1.32,-1.81 1.32,-1.81 1.32,-1.81 2.54,1.85 2.54,1.85 2.54,1.85 0.06,0.05 0.15,0.03 0.20,-0.04 1.53,-2.10 1.53,-2.10 1.53,-2.10 0.05,-0.07 0.04,-0.16 -0.03,-0.20 -2.61,-1.91 -2.61,-1.91 -2.61,-1.91 -0.06,-0.05 -0.15,-0.03 -0.20,0.04 -1.32,1.81 -1.32,1.81 -1.32,1.81 -2.54,-1.85 -2.54,-1.85 -2.54,-1.85 -0.06,-0.05 -0.15,-0.03 -0.20,0.04 -1.53,2.10 -1.53,2.10 -1.53,2.10 -0.05,0.07 -0.04,0.16 0.03,0.20 z M 239.76,7.65 c 0.13,0.07 0.28,0.08 0.32,-0.07 0.04,-0.16 0.22,-0.52 0.48,-0.26 0.22,0.22 1.61,1.37 2.33,3.81 0.12,0.32 0.42,0.36 0.49,-0.10 0.17,-1.13 0.26,-3.09 0.35,-3.69 0.13,-0.84 0.53,-2.56 1.59,-1.67 0.24,0.20 0.50,0.47 0.50,0.47 0.23,0.28 0.51,0.61 0.65,0.28 0.21,-0.49 0.38,-1.31 0.15,-1.75 -0.10,-0.20 -1.41,-1.86 -2.31,-0.72 -1.11,1.41 -1.18,3.26 -1.33,5.32 -0.16,-0.43 -1.04,-3.20 -3.87,-4.78 -0.21,-0.11 -0.62,0.10 -0.66,0.75 -0.02,0.38 -0.13,1.30 0.14,1.56 0.27,0.26 1.06,0.77 1.19,0.85 z M 233.89,42.77 c -0.55,0.28 -8.14,3.03 -8.71,3.35 -0.57,0.32 -0.77,0.40 -0.88,0.81 -0.11,0.41 -0.17,0.66 -0.20,0.72 -0.12,0.28 -0.21,0.62 0.63,0.14 0.26,-0.15 7.96,-2.96 8.42,-3.22 0.47,-0.27 0.75,-0.36 0.96,-0.79 0.21,-0.42 0.26,-0.50 0.38,-0.80 0.13,-0.32 0.25,-0.65 -0.60,-0.22 z M 235.63,19.59 c 0.33,-0.16 29.83,-13.43 30.42,-13.76 0.58,-0.33 0.93,-0.45 1.19,-0.98 0.26,-0.53 0.33,-0.62 0.47,-0.99 0.16,-0.39 0.34,-0.76 -0.74,-0.28 -0.72,0.32 -30.03,13.58 -30.77,13.92 -0.73,0.34 -0.96,0.49 -1.10,1.01 -0.14,0.52 -0.21,0.79 -0.25,0.90 -0.12,0.35 -0.29,0.71 0.78,0.18 z M 249.53,15.68 c 0.17,-0.58 -0.03,-0.90 -0.27,-0.19 -0.24,0.71 -1.25,3.16 -1.09,6.04 0.04,0.67 0.40,1.96 1.23,2.00 0.43,0.00 0.98,-0.38 1.38,-2.01 0.07,-0.37 0.11,-0.66 0.14,-0.81 0.04,-0.22 -0.09,-0.48 -0.23,0.02 -0.31,1.00 -1.13,1.70 -1.74,0.36 -0.10,-0.27 -0.51,-1.48 0.25,-4.13 0.15,-0.51 0.35,-1.28 0.35,-1.28 z M 273.55,10.46 c 0.43,0.00 0.98,-0.38 1.38,-2.01 0.07,-0.37 0.11,-0.66 0.14,-0.81 0.04,-0.22 -0.09,-0.48 -0.23,0.02 -0.31,1.00 -1.13,1.70 -1.74,0.36 -0.10,-0.27 -0.51,-1.48 0.24,-4.13 0.15,-0.51 0.35,-1.28 0.35,-1.28 0.17,-0.58 -0.03,-0.90 -0.28,-0.19 -0.24,0.71 -1.25,3.16 -1.09,6.04 0.04,0.67 0.40,1.96 1.23,2.00 z M 252.59,44.82 c -0.30,1.07 -1.20,1.85 -1.98,0.49 -0.13,-0.27 -0.68,-1.51 0.04,-4.34 0.14,-0.55 0.32,-1.36 0.32,-1.36 0.16,-0.62 -0.09,-0.94 -0.33,-0.18 -0.23,0.76 -1.24,3.38 -0.90,6.39 0.08,0.69 0.58,2.03 1.54,2.01 0.49,-0.03 1.11,-0.46 1.47,-2.19 0.06,-0.39 0.09,-0.70 0.11,-0.86 0.04,-0.23 -0.13,-0.50 -0.26,0.04 z M 215.36,21.94 c 0.18,-0.60 -0.09,-0.91 -0.35,-0.17 -0.26,0.74 -1.37,3.29 -1.02,6.20 0.08,0.67 0.61,1.96 1.65,1.94 0.54,-0.03 1.21,-0.45 1.61,-2.13 0.06,-0.38 0.10,-0.68 0.13,-0.83 0.04,-0.23 -0.14,-0.48 -0.29,0.04 -0.34,1.03 -1.31,1.80 -2.15,0.49 -0.14,-0.26 -0.72,-1.46 0.07,-4.20 0.16,-0.53 0.36,-1.32 0.36,-1.32 z M 230.11,16.41 c 0.72,0.03 1.67,-0.52 2.45,-3.08 0.14,-0.58 0.23,-1.05 0.29,-1.27 0.09,-0.35 -0.12,-0.77 -0.39,0.02 -0.60,1.56 -2.01,2.61 -2.93,0.43 -0.14,-0.43 -0.74,-2.39 0.72,-6.54 0.29,-0.81 0.67,-2.01 0.67,-2.01 0.33,-0.91 0.01,-1.43 -0.44,-0.32 -0.45,1.11 -2.31,4.91 -2.28,9.51 0.01,1.06 0.52,3.15 1.90,3.27 z M 335.23,7.03 c 0.17,0.09 0.36,0.11 0.41,-0.10 0.05,-0.21 0.29,-0.68 0.62,-0.34 0.28,0.28 2.09,1.78 3.03,4.95 0.16,0.42 0.55,0.46 0.64,-0.14 0.22,-1.47 0.33,-4.02 0.45,-4.79 0.17,-1.09 0.68,-3.33 2.06,-2.16 0.31,0.26 0.64,0.61 0.64,0.61 0.29,0.37 0.66,0.79 0.84,0.36 0.27,-0.64 0.49,-1.70 0.19,-2.28 -0.13,-0.26 -1.83,-2.41 -3.00,-0.93 -1.44,1.83 -1.53,4.23 -1.72,6.91 -0.20,-0.56 -1.35,-4.16 -5.02,-6.21 -0.27,-0.15 -0.81,0.13 -0.86,0.98 -0.03,0.49 -0.17,1.69 0.18,2.03 0.35,0.34 1.37,1.01 1.54,1.10 z M 329.72,20.28 c 0.48,0.00 1.11,-0.35 1.55,-1.88 0.08,-0.34 0.13,-0.62 0.16,-0.75 0.05,-0.21 -0.10,-0.45 -0.26,0.02 -0.35,0.93 -1.28,1.58 -1.96,0.33 -0.11,-0.25 -0.58,-1.38 0.28,-3.86 0.17,-0.48 0.39,-1.20 0.39,-1.20 0.19,-0.54 -0.04,-0.84 -0.31,-0.17 -0.27,0.66 -1.40,2.94 -1.23,5.64 0.04,0.62 0.45,1.83 1.39,1.87 z M 361.41,24.89 c -0.25,-0.28 -0.37,-0.01 -0.46,0.31 -0.09,0.32 -0.36,1.52 -0.54,2.27 0.00,0.00 0.71,1.16 0.97,1.75 0.25,0.59 -0.12,0.92 -0.86,1.01 -2.08,0.25 -3.73,-0.94 -4.30,-1.48 -0.57,-0.55 0.05,-1.52 0.51,-2.68 0.37,-0.93 -0.32,-1.04 -0.84,0.00 -1.76,4.63 -4.23,5.12 -4.88,5.30 -5.86,1.60 -5.36,-3.76 -5.33,-4.64 0.02,-0.88 -0.62,-0.55 -1.34,0.03 -2.47,1.98 -4.45,3.14 -5.52,3.62 -0.92,-1.80 -2.26,-2.93 -2.82,-3.34 -6.34,-4.63 -6.87,4.71 -6.67,5.71 0.97,3.97 7.44,1.56 8.46,1.44 1.02,-0.12 0.68,1.22 0.11,2.02 -1.41,1.97 -3.03,3.38 -4.50,4.58 -6.28,5.13 -9.43,4.72 -10.41,4.69 -6.17,-0.17 -5.60,-6.82 -5.26,-8.24 1.86,-1.57 3.45,-3.28 4.38,-5.04 0.38,-0.96 1.03,-3.16 -0.15,-5.91 -0.62,-1.21 -2.56,-4.60 -2.56,-4.60 0.00,0.00 1.43,0.04 1.57,0.04 0.14,0.00 0.41,-0.14 0.06,-0.55 -0.35,-0.40 -3.36,-3.40 -3.54,-3.65 -0.18,-0.24 -0.35,-0.41 -0.45,-0.06 -0.10,0.36 -0.36,1.88 -0.42,2.20 -0.06,0.31 -0.06,0.63 0.10,0.90 0.15,0.27 0.55,1.20 0.84,1.96 0.29,0.76 3.26,6.47 3.53,6.98 0.27,0.51 0.33,0.88 0.06,1.22 -9.53,10.05 -27.91,16.23 -28.50,16.58 -0.59,0.34 -0.43,0.61 0.56,0.43 1.48,-0.26 9.74,-1.64 12.09,-2.77 1.55,-0.75 6.97,-3.41 11.41,-6.89 -0.12,0.90 -0.24,2.22 -0.18,3.89 0.30,8.08 7.53,6.74 9.43,6.33 5.68,-1.25 12.64,-9.11 13.23,-10.68 0.58,-1.56 0.67,-2.98 0.54,-4.22 1.50,-0.81 4.71,-3.40 4.71,-3.40 0.13,3.45 2.87,4.48 3.72,4.63 3.96,0.60 5.94,-2.71 6.78,-3.78 0.72,1.89 2.45,2.26 3.34,2.43 3.41,0.68 4.08,-1.74 4.26,-2.29 1.07,-3.33 -0.86,-5.81 -1.11,-6.08 z M 332.78,31.57 c -2.03,-0.14 -1.85,-0.92 -1.57,-1.22 0.30,-0.33 2.78,-1.89 4.85,0.89 0.00,0.00 -0.86,0.50 -3.28,0.33 z M 353.08,6.37 c 0.79,0.58 1.94,1.04 1.94,1.04 -3.66,4.48 -10.84,7.67 -12.56,9.01 -0.51,0.39 -0.44,0.61 -0.12,0.53 0.28,-0.08 5.76,-1.61 10.76,-5.90 2.29,-1.97 2.23,-2.11 2.81,-3.31 0.50,0.26 0.84,0.67 1.03,0.91 0.28,0.34 0.43,0.60 0.56,0.23 0.48,-1.33 -0.20,-2.13 -0.84,-2.54 0.00,0.00 0.67,-2.07 -0.56,-4.14 -0.21,-0.35 -1.43,-1.46 -2.85,0.74 -0.55,0.84 -0.96,2.85 -0.18,3.42 z M 353.81,4.34 c 0.73,-1.02 1.08,-0.98 1.36,-0.82 0.83,0.77 0.70,2.03 0.67,2.31 0.00,0.00 -1.05,-0.49 -1.52,-0.70 -0.47,-0.20 -0.72,-0.50 -0.50,-0.80 z M 355.83,14.30 c 0.18,-0.50 -0.04,-0.77 -0.29,-0.16 -0.25,0.61 -1.30,2.73 -1.14,5.22 0.04,0.58 0.42,1.70 1.29,1.73 0.45,0.00 1.03,-0.33 1.44,-1.74 0.07,-0.32 0.12,-0.57 0.15,-0.70 0.04,-0.19 -0.10,-0.42 -0.24,0.02 -0.33,0.86 -1.18,1.47 -1.82,0.31 -0.10,-0.23 -0.54,-1.28 0.26,-3.57 0.16,-0.45 0.36,-1.11 0.36,-1.11 z M 312.03,12.30 c 0.25,-0.16 13.84,-8.02 14.32,-8.31 0.46,-0.29 0.72,-0.41 0.91,-0.85 0.18,-0.44 0.23,-0.52 0.33,-0.82 0.10,-0.32 0.21,-0.67 -0.61,-0.19 -0.53,0.31 -14.04,8.11 -14.59,8.46 -0.55,0.35 -0.74,0.44 -0.83,0.86 -0.09,0.42 -0.13,0.67 -0.16,0.73 -0.10,0.28 -0.17,0.63 0.64,0.10 z M 295.35,13.78 c 0.17,-0.04 3.05,-0.49 6.41,-3.05 1.82,-1.38 2.92,-3.74 2.92,-3.74 0.00,0.00 0.91,0.76 1.03,0.91 0.28,0.34 0.43,0.60 0.56,0.23 0.48,-1.33 -0.20,-2.13 -0.84,-2.54 0.00,0.00 0.67,-2.07 -0.56,-4.14 -0.21,-0.35 -1.43,-1.46 -2.85,0.74 -0.55,0.84 -0.96,2.85 -0.18,3.42 0.79,0.58 1.94,1.04 1.94,1.04 -3.66,4.48 -6.16,5.34 -8.30,6.59 -0.55,0.32 -0.44,0.61 -0.12,0.53 z M 303.07,4.39 c -0.47,-0.20 -0.72,-0.50 -0.50,-0.80 0.73,-1.02 1.08,-0.98 1.36,-0.82 0.83,0.77 0.70,2.03 0.67,2.31 0.00,0.00 -1.05,-0.49 -1.52,-0.70 z M 302.93,14.16 c -0.06,-0.05 -0.15,-0.03 -0.20,0.04 -1.53,2.10 -1.53,2.10 -1.53,2.10 -0.05,0.07 -0.04,0.16 0.03,0.21 2.61,1.91 2.61,1.91 2.61,1.91 0.06,0.05 0.15,0.03 0.20,-0.04 1.32,-1.81 1.32,-1.81 1.32,-1.81 2.54,1.85 2.54,1.85 2.54,1.85 0.06,0.05 0.15,0.03 0.20,-0.04 1.53,-2.10 1.53,-2.10 1.53,-2.10 0.05,-0.07 0.04,-0.16 -0.03,-0.20 -2.61,-1.91 -2.61,-1.91 -2.61,-1.91 -0.06,-0.05 -0.15,-0.03 -0.20,0.04 -1.32,1.81 -1.32,1.81 -1.32,1.81 z M 358.21,37.21 c -0.24,0.68 -0.34,1.12 -0.32,1.38 0.03,0.26 0.12,1.10 0.12,1.10 -0.25,0.20 -1.33,0.87 -2.40,0.08 0.07,-0.23 0.21,-0.70 0.24,-0.95 0.12,-0.40 -0.13,-0.69 -0.32,-0.28 -0.20,0.41 -0.65,1.79 -0.99,2.10 -0.34,0.31 -0.73,1.45 -3.30,0.29 -0.45,-0.17 -1.23,-0.75 -2.46,0.48 -2.77,2.57 -4.68,2.77 -7.79,3.88 -0.38,0.17 -1.16,0.77 -0.23,0.67 0.94,-0.09 4.87,0.00 7.01,-2.46 0.45,-0.43 0.96,-1.58 2.66,-0.92 0.94,0.36 2.68,1.85 4.58,-1.10 1.12,0.75 2.82,0.45 3.09,-0.38 0.27,-0.82 0.58,-1.64 0.58,-2.20 0.00,-0.56 -0.05,-1.30 -0.05,-1.30 -0.04,-0.44 -0.19,-1.07 -0.44,-0.40 z M 302.31,23.91 c 0.00,0.00 1.25,-0.31 1.47,-0.38 0.22,-0.06 0.34,-0.35 -0.05,-0.55 -0.39,-0.20 -4.09,-1.67 -4.37,-1.79 -0.28,-0.11 -0.38,-0.24 -0.41,0.06 -0.02,0.30 -0.07,2.73 -0.07,2.73 0.00,0.00 -0.06,0.17 0.27,0.35 0.32,0.18 0.64,0.58 0.90,0.84 0.26,0.26 3.70,2.98 3.87,3.07 0.00,0.00 -1.72,3.02 -1.94,5.38 -0.22,2.36 0.04,5.63 3.27,4.57 0.87,-0.25 4.49,-1.69 5.30,-4.21 0.26,-0.93 1.01,-2.61 -0.21,-4.31 -0.70,-1.00 -3.53,-2.69 -3.53,-2.69 0.00,0.00 2.17,-3.00 2.38,-3.37 0.21,-0.37 1.00,-2.69 1.09,-3.26 0.09,-0.56 0.13,-0.84 -0.29,-0.32 -0.42,0.52 -4.63,6.05 -4.63,6.05 z M 309.26,32.79 c -1.20,0.99 -3.72,2.29 -4.43,2.36 -0.71,0.07 -2.59,-0.28 -1.77,-2.20 0.28,-0.62 2.16,-3.84 2.16,-3.84 0.70,0.39 5.24,2.70 4.04,3.69 z M 214.78,9.02 c 0.05,-0.21 0.28,-0.68 0.61,-0.34 0.24,0.24 2.17,1.94 2.76,4.27 0.49,2.02 -4.48,6.10 -4.74,6.29 -0.47,0.33 -0.32,0.55 -0.10,0.43 0.22,-0.12 0.43,-0.15 2.98,-1.83 2.06,-1.36 2.49,-2.93 2.66,-4.14 0.02,-0.06 0.04,-0.12 0.05,-0.21 0.21,-1.47 0.33,-4.02 0.44,-4.79 0.16,-1.09 0.67,-3.32 2.03,-2.16 0.31,0.26 0.63,0.61 0.63,0.61 0.29,0.37 0.65,0.79 0.83,0.36 0.27,-0.64 0.48,-1.70 0.19,-2.28 -0.13,-0.26 -1.81,-2.41 -2.95,-0.94 -1.42,1.83 -1.51,4.23 -1.70,6.91 -0.20,-0.56 -1.33,-4.16 -4.95,-6.21 -0.26,-0.15 -0.80,0.13 -0.85,0.98 -0.03,0.49 -0.17,1.69 0.17,2.03 0.34,0.34 1.35,1.01 1.52,1.10 0.17,0.09 0.35,0.11 0.40,-0.10 z M 292.84,40.45 c 0.11,-0.24 0.59,-1.20 0.73,-3.74 0.02,-0.36 0.03,-0.75 0.03,-1.18 1.37,-0.06 2.84,0.02 4.41,0.34 0.37,-0.53 1.41,-2.73 1.41,-2.73 -0.47,-0.06 -2.99,-0.28 -5.94,-0.61 -0.10,-1.35 -0.27,-2.91 -0.51,-4.68 -0.08,-0.59 -2.26,-18.94 -2.26,-18.94 0.00,0.00 1.55,1.43 1.80,1.69 0.25,0.26 0.55,0.12 0.41,-0.30 -0.14,-0.42 -3.31,-7.96 -3.42,-8.22 -0.10,-0.26 -0.20,-0.45 -0.33,-0.15 -0.13,0.30 -0.93,2.45 -0.93,2.45 0.02,0.13 0.28,1.14 0.33,1.51 0.31,2.33 2.12,16.94 3.15,26.42 -3.71,-0.46 -7.57,-1.08 -8.62,-1.75 0.62,-1.12 1.36,-2.44 0.84,-6.21 -0.20,-1.78 -2.13,-15.71 -2.13,-15.71 0.00,0.00 1.36,1.28 1.61,1.54 0.25,0.26 0.55,0.12 0.41,-0.30 -0.14,-0.42 -2.93,-7.56 -3.03,-7.82 -0.10,-0.26 -0.20,-0.45 -0.33,-0.15 -0.13,0.30 -1.15,2.51 -1.15,2.51 0.03,0.18 0.27,0.72 0.43,1.84 0.17,1.11 0.40,2.69 0.66,4.43 0.00,0.00 1.89,16.38 1.89,17.08 0.00,0.70 0.01,1.05 -0.17,1.08 -1.49,0.54 -7.80,0.50 -8.66,1.13 -0.62,0.39 -1.24,2.02 -1.36,2.41 -0.06,0.20 0.02,0.56 0.44,0.41 3.22,-1.10 13.83,1.87 13.83,1.87 -0.71,0.41 -10.40,5.83 -16.41,1.22 -0.56,-0.52 -1.58,-1.78 -2.00,-3.15 -0.18,-0.56 -0.32,-0.62 -0.56,-0.30 -0.24,0.33 -1.95,2.74 -2.91,3.40 -0.43,0.30 -5.34,4.14 -10.20,-0.35 -0.09,-0.10 -0.25,-0.27 -0.46,-0.49 2.37,-1.29 4.47,-2.44 5.44,-2.97 0.25,-0.72 0.62,-2.63 0.62,-2.63 -0.49,-0.32 -7.85,-4.15 -16.74,-0.42 -0.37,0.15 -0.86,0.62 -1.11,1.32 -0.25,0.69 -0.59,1.72 -0.73,2.11 -0.13,0.39 0.13,0.40 0.37,0.22 0.10,-0.08 2.25,-1.55 3.94,-0.68 1.39,0.71 2.70,1.68 3.86,2.66 -2.38,1.28 -5.08,2.65 -7.53,3.26 -1.01,0.25 -6.71,1.70 -9.77,-2.38 -0.47,-0.63 -2.16,-3.72 -2.49,-4.20 -0.34,-0.48 -1.40,-2.03 -3.80,0.09 -2.40,2.11 -3.81,6.34 -4.18,7.57 -0.37,1.23 -1.94,5.90 -4.60,3.81 -1.01,-0.84 -2.88,-2.40 -3.50,-8.87 -0.04,-0.81 -0.40,-1.12 -0.57,0.00 -0.18,1.12 -0.57,10.58 4.93,12.41 0.56,0.18 2.79,0.34 3.87,-3.39 0.28,-0.96 1.70,-7.04 4.47,-8.71 0.91,-0.55 1.87,-1.21 2.27,-0.44 0.40,0.77 3.12,11.06 14.99,6.66 1.37,-0.51 4.33,-2.05 7.81,-4.08 1.00,0.98 1.76,1.80 2.17,2.14 1.17,0.99 4.07,3.81 8.87,1.65 0.84,-0.37 2.71,-1.52 3.74,-2.77 0.00,0.00 -0.77,5.81 3.32,6.86 0.42,0.11 1.34,0.53 2.16,-3.83 0.70,0.22 6.05,1.17 12.39,-1.80 0.72,-0.33 3.70,-2.35 8.08,-2.94 0.23,2.29 0.38,3.96 0.38,4.59 -0.04,0.45 0.17,0.62 0.38,0.19 z M 252.03,33.18 c -0.84,-0.83 -1.81,-1.75 -2.75,-2.55 1.77,-0.08 3.86,0.03 6.26,0.47 -0.50,0.26 -1.80,1.09 -3.51,2.09 z M 269.22,40.89 c -1.81,-0.84 -2.02,-3.96 -2.01,-4.44 0.00,0.00 1.36,1.09 2.50,3.74 0.25,0.63 -0.11,0.89 -0.49,0.70 z" />
     </g>
</svg>
