<?xml version="1.0" encoding="UTF-8"?>
<svg version="1.1" id="Layer_1" x="0px" y="0px" width="578" height="53" viewBox="0 0 578 53"
xml:space="preserve" xmlns="http://www.w3.org/2000/svg" xmlns:svg="http://www.w3.org/2000/svg" xmlns:rdf="http://www.w3.org/1999/02/22-rdf-syntax-ns#"  xmlns:cc="http://creativecommons.org/ns#" xmlns:dc="http://purl.org/dc/elements/1.1/">
     <g>
<path d="M 217.09,24.68 c -1.92,2.63 -1.92,2.63 -1.92,2.63 -0.06,0.08 -0.05,0.20 0.03,0.25 3.27,2.38 3.27,2.38 3.27,2.38 0.08,0.06 0.19,0.04 0.25,-0.05 1.91,-2.63 1.91,-2.63 1.91,-2.63 0.06,-0.08 0.05,-0.20 -0.03,-0.26 -3.27,-2.38 -3.27,-2.38 -3.27,-2.38 -0.08,-0.06 -0.19,-0.04 -0.25,0.05 z M 257.36,14.38 c -1.92,2.63 -1.92,2.63 -1.92,2.63 -0.06,0.08 -0.05,0.20 0.03,0.25 3.27,2.38 3.27,2.38 3.27,2.38 0.08,0.06 0.19,0.04 0.25,-0.05 1.91,-2.63 1.91,-2.63 1.91,-2.63 0.06,-0.08 0.05,-0.20 -0.03,-0.25 -3.27,-2.38 -3.27,-2.38 -3.27,-2.38 -0.08,-0.06 -0.19,-0.04 -0.25,0.05 z M 280.93,23.43 c -1.92,2.63 -1.92,2.63 -1.92,2.63 -0.06,0.08 -0.05,0.20 0.03,0.25 3.27,2.38 3.27,2.38 3.27,2.38 0.08,0.06 0.19,0.04 0.25,-0.05 1.91,-2.63 1.91,-2.63 1.91,-2.63 0.06,-0.08 0.05,-0.20 -0.03,-0.25 -3.27,-2.38 -3.27,-2.38 -3.27,-2.38 -0.08,-0.06 -0.19,-0.04 -0.25,0.05 z M 306.91,32.32 c 0.39,3.09 0.69,5.88 0.73,7.37 -0.04,0.46 0.17,0.63 0.38,0.19 0.11,-0.24 0.59,-1.22 0.73,-3.80 0.11,-1.94 -0.05,-4.91 -0.60,-9.01 -0.08,-0.60 -2.90,-18.30 -2.90,-18.30 0.00,0.00 1.55,1.46 1.80,1.72 0.25,0.26 0.55,0.12 0.41,-0.30 -0.14,-0.42 -3.32,-8.09 -3.42,-8.36 -0.10,-0.27 -0.20,-0.46 -0.33,-0.15 -0.13,0.31 -0.93,2.49 -0.93,2.49 0.02,0.14 0.28,1.15 0.33,1.54 0.44,3.37 3.00,20.32 3.79,26.61 z M 304.92,34.37 c -0.30,-1.53 -1.70,-2.05 -2.30,-2.26 -0.91,-0.31 -1.83,-0.21 -2.97,0.12 -0.45,0.13 -0.92,0.35 -1.40,0.60 -0.78,-2.09 -1.25,-4.52 -1.51,-6.31 -0.22,-1.50 -2.75,-17.74 -2.75,-17.74 0.00,0.00 1.55,1.46 1.80,1.72 0.25,0.26 0.55,0.12 0.41,-0.30 -0.14,-0.42 -3.32,-8.09 -3.42,-8.36 -0.10,-0.27 -0.21,-0.46 -0.33,-0.15 -0.13,0.31 -1.15,2.55 -1.15,2.55 0.03,0.18 0.27,0.74 0.43,1.87 0.15,1.04 0.36,2.47 0.59,4.07 0.00,0.00 2.98,18.85 3.38,20.79 0.14,0.67 0.31,1.80 0.65,3.06 -0.79,0.53 -1.51,1.03 -2.07,1.26 -1.30,0.55 -8.29,3.93 -9.79,-1.92 0.02,-0.53 0.18,-1.78 -0.70,-0.64 -0.88,1.14 -2.46,5.13 -7.26,4.99 -1.12,-0.04 -4.27,-0.48 -5.54,-6.27 -0.29,-1.54 -1.28,-11.35 -1.28,-11.35 0.00,0.00 -1.34,-14.48 -2.99,-18.11 -0.24,-0.55 -0.31,-0.26 -0.53,0.11 -0.22,0.37 -1.14,1.78 -0.77,3.01 0.37,1.23 2.56,10.54 3.12,20.57 0.13,1.68 0.13,13.83 7.09,15.25 1.39,0.26 5.81,-0.23 7.66,-4.49 2.94,5.74 8.75,2.97 10.20,2.31 0.77,-0.35 2.15,-1.41 3.73,-2.28 0.76,1.63 1.91,3.14 3.73,3.83 0.36,0.15 1.96,0.53 2.73,-0.84 0.61,-1.07 1.55,-3.54 1.24,-5.09 z M 302.92,37.09 c -1.37,0.27 -2.46,-0.44 -3.33,-1.65 0.69,-0.20 1.39,-0.30 2.06,-0.23 1.10,0.09 2.26,1.68 1.27,1.87 z M 231.78,17.83 c 0.15,-0.04 2.77,-0.92 5.93,-3.13 2.67,-1.86 5.24,-5.85 5.24,-5.85 0.00,0.00 0.81,0.72 0.92,0.86 0.24,0.32 0.38,0.56 0.50,0.23 0.47,-1.20 -0.13,-1.95 -0.71,-2.35 0.00,0.00 0.67,-1.88 -0.41,-3.80 -0.18,-0.32 -1.27,-1.37 -2.63,0.60 -0.53,0.75 -0.95,2.58 -0.25,3.13 0.70,0.55 1.74,1.00 1.74,1.00 -3.46,4.01 -8.24,7.74 -10.23,8.83 -0.51,0.28 -0.42,0.55 -0.12,0.48 z M 241.54,6.42 c -0.42,-0.20 -0.64,-0.48 -0.44,-0.74 0.69,-0.92 1.02,-0.87 1.26,-0.71 0.73,0.72 0.59,1.87 0.55,2.13 0.00,0.00 -0.95,-0.48 -1.38,-0.68 z M 287.82,15.97 c -0.42,0.69 -0.70,2.32 -0.05,2.76 0.65,0.44 1.82,0.90 1.82,0.90 -0.48,1.58 -3.19,3.66 -4.54,4.57 -0.72,0.49 -0.87,0.81 0.27,0.44 3.63,-1.18 4.90,-4.75 4.90,-4.75 0.00,0.00 0.64,0.45 0.74,0.57 0.23,0.27 0.36,0.47 0.45,0.17 0.35,-1.08 -0.22,-1.71 -0.75,-2.03 0.00,0.00 0.49,-1.69 -0.56,-3.32 -0.18,-0.27 -1.19,-1.14 -2.28,0.67 z M 289.97,18.23 c 0.00,0.00 -0.86,-0.37 -1.25,-0.52 -0.38,-0.15 -0.59,-0.38 -0.43,-0.63 0.56,-0.84 0.85,-0.82 1.07,-0.70 0.68,0.60 0.62,1.61 0.60,1.85 z M 242.46,14.12 c -1.53,2.10 -1.53,2.10 -1.53,2.10 -0.05,0.07 -0.04,0.16 0.03,0.21 2.61,1.91 2.61,1.91 2.61,1.91 0.06,0.05 0.15,0.03 0.20,-0.04 1.32,-1.81 1.32,-1.81 1.32,-1.81 2.54,1.85 2.54,1.85 2.54,1.85 0.06,0.05 0.15,0.03 0.20,-0.04 1.53,-2.10 1.53,-2.10 1.53,-2.10 0.05,-0.07 0.04,-0.16 -0.03,-0.21 -2.62,-1.91 -2.62,-1.91 -2.62,-1.91 -0.06,-0.05 -0.15,-0.03 -0.20,0.04 -1.32,1.81 -1.32,1.81 -1.32,1.81 -2.54,-1.85 -2.54,-1.85 -2.54,-1.85 -0.06,-0.05 -0.15,-0.03 -0.20,0.04 z M 253.50,7.93 c 0.16,0.08 0.32,0.07 0.35,-0.13 0.03,-0.20 0.19,-0.67 0.51,-0.37 0.27,0.24 2.00,1.52 3.10,4.45 0.18,0.38 0.53,0.39 0.55,-0.18 0.06,-1.41 -0.06,-3.83 -0.02,-4.57 0.05,-1.04 0.31,-3.21 1.62,-2.21 0.30,0.23 0.62,0.53 0.62,0.53 0.29,0.32 0.65,0.69 0.77,0.28 0.18,-0.63 0.28,-1.65 -0.03,-2.17 -0.14,-0.23 -1.83,-2.14 -2.72,-0.64 -1.11,1.85 -0.97,4.13 -0.91,6.69 -0.23,-0.52 -1.55,-3.83 -4.97,-5.48 -0.25,-0.12 -0.70,0.19 -0.67,1.00 0.02,0.47 0.00,1.62 0.33,1.91 0.34,0.29 1.30,0.84 1.46,0.92 z M 267.55,39.74 c -0.55,0.28 -12.64,5.01 -13.20,5.33 -0.57,0.32 -0.77,0.39 -0.88,0.81 -0.11,0.42 -0.17,0.66 -0.20,0.72 -0.12,0.28 -0.21,0.62 0.63,0.14 0.26,-0.15 12.45,-4.93 12.92,-5.20 0.47,-0.27 0.75,-0.36 0.96,-0.79 0.21,-0.42 0.26,-0.50 0.38,-0.80 0.12,-0.32 0.25,-0.65 -0.60,-0.22 z M 272.66,15.79 c 0.29,-0.17 15.29,-8.01 15.79,-8.34 0.51,-0.33 0.81,-0.46 1.02,-0.95 0.21,-0.49 0.26,-0.58 0.37,-0.92 0.12,-0.36 0.26,-0.70 -0.69,-0.21 -0.63,0.33 -15.45,8.16 -16.10,8.51 -0.64,0.35 -0.83,0.50 -0.93,0.97 -0.10,0.47 -0.15,0.73 -0.18,0.83 -0.09,0.32 -0.22,0.66 0.72,0.12 z M 275.43,45.72 c -0.31,0.83 -1.13,1.41 -1.74,0.30 -0.10,-0.22 -0.51,-1.22 0.24,-3.42 0.15,-0.43 0.35,-1.06 0.35,-1.06 0.17,-0.48 -0.03,-0.74 -0.28,-0.15 -0.24,0.59 -1.25,2.61 -1.09,5.00 0.04,0.55 0.40,1.63 1.23,1.66 0.43,0.00 0.98,-0.31 1.38,-1.66 0.07,-0.31 0.11,-0.55 0.14,-0.67 0.04,-0.18 -0.09,-0.40 -0.23,0.02 z M 295.31,45.72 c -0.32,0.83 -1.13,1.41 -1.74,0.30 -0.10,-0.22 -0.51,-1.22 0.24,-3.42 0.15,-0.43 0.35,-1.06 0.35,-1.06 0.17,-0.48 -0.03,-0.74 -0.28,-0.15 -0.24,0.59 -1.25,2.61 -1.09,5.00 0.04,0.55 0.40,1.63 1.23,1.66 0.43,0.00 0.98,-0.31 1.38,-1.66 0.07,-0.31 0.11,-0.55 0.14,-0.67 0.04,-0.18 -0.09,-0.40 -0.23,0.02 z M 275.95,8.52 c 0.43,0.00 0.98,-0.31 1.38,-1.66 0.07,-0.30 0.11,-0.55 0.14,-0.67 0.04,-0.18 -0.09,-0.40 -0.23,0.02 -0.32,0.83 -1.13,1.41 -1.74,0.30 -0.10,-0.22 -0.51,-1.22 0.24,-3.42 0.15,-0.43 0.35,-1.06 0.35,-1.06 0.17,-0.48 -0.03,-0.74 -0.28,-0.15 -0.24,0.59 -1.25,2.61 -1.09,5.00 0.04,0.55 0.40,1.63 1.23,1.66 z M 208.84,11.05 c 0.43,0.00 0.98,-0.31 1.38,-1.66 0.07,-0.31 0.11,-0.55 0.14,-0.67 0.04,-0.18 -0.09,-0.40 -0.23,0.02 -0.31,0.83 -1.13,1.41 -1.74,0.30 -0.10,-0.22 -0.51,-1.22 0.25,-3.42 0.15,-0.43 0.35,-1.06 0.35,-1.06 0.17,-0.48 -0.03,-0.74 -0.28,-0.15 -0.24,0.59 -1.25,2.61 -1.09,5.00 0.04,0.55 0.40,1.63 1.23,1.66 z M 215.18,45.97 c -0.31,0.83 -1.13,1.41 -1.74,0.30 -0.10,-0.22 -0.51,-1.22 0.25,-3.42 0.15,-0.43 0.35,-1.06 0.35,-1.06 0.17,-0.48 -0.03,-0.74 -0.28,-0.15 -0.24,0.59 -1.25,2.61 -1.09,5.00 0.04,0.55 0.40,1.63 1.23,1.65 0.43,0.00 0.98,-0.31 1.38,-1.66 0.07,-0.30 0.11,-0.55 0.14,-0.67 0.04,-0.18 -0.09,-0.40 -0.23,0.02 z M 206.11,18.69 c 0.36,-0.19 21.72,-11.50 22.34,-11.88 0.24,-0.15 0.45,-0.26 0.62,-0.38 -0.42,0.97 -1.33,3.15 -1.17,5.66 0.04,0.66 0.48,1.95 1.48,1.98 0.51,0.00 1.18,-0.38 1.65,-1.99 0.08,-0.36 0.13,-0.66 0.17,-0.80 0.05,-0.22 -0.11,-0.48 -0.28,0.02 -0.38,0.99 -1.36,1.68 -2.09,0.36 -0.12,-0.26 -0.61,-1.47 0.29,-4.10 0.18,-0.51 0.90,-2.54 1.04,-2.95 0.15,-0.43 0.34,-0.83 -0.82,-0.27 -0.77,0.37 -21.93,11.67 -22.71,12.07 -0.78,0.40 -1.02,0.57 -1.15,1.14 -0.13,0.56 -0.20,0.87 -0.24,0.98 -0.12,0.38 -0.29,0.78 0.86,0.16 z M 274.99,20.29 c 0.17,-0.64 -0.09,-0.96 -0.34,-0.18 -0.25,0.78 -1.32,3.49 -0.95,6.58 0.08,0.71 0.61,2.09 1.61,2.07 0.52,-0.03 1.17,-0.47 1.55,-2.26 0.06,-0.40 0.09,-0.72 0.12,-0.88 0.04,-0.24 -0.14,-0.51 -0.28,0.04 -0.32,1.10 -1.27,1.91 -2.09,0.50 -0.14,-0.28 -0.71,-1.56 0.04,-4.47 0.15,-0.56 0.34,-1.41 0.34,-1.41 z M 210.68,20.44 c 0.16,-0.64 -0.09,-0.96 -0.33,-0.18 -0.24,0.78 -1.26,3.48 -0.91,6.58 0.08,0.72 0.59,2.09 1.56,2.07 0.50,-0.03 1.13,-0.47 1.49,-2.25 0.06,-0.40 0.09,-0.72 0.11,-0.88 0.04,-0.24 -0.14,-0.51 -0.27,0.04 -0.31,1.10 -1.22,1.90 -2.01,0.50 -0.13,-0.28 -0.69,-1.56 0.03,-4.47 0.15,-0.56 0.32,-1.40 0.32,-1.40 z M 247.64,45.46 c -0.31,1.10 -1.22,1.90 -2.01,0.50 -0.13,-0.28 -0.69,-1.56 0.03,-4.47 0.15,-0.56 0.32,-1.40 0.32,-1.40 0.16,-0.64 -0.09,-0.96 -0.33,-0.18 -0.24,0.78 -1.26,3.48 -0.91,6.58 0.08,0.71 0.59,2.09 1.56,2.07 0.50,-0.03 1.13,-0.47 1.49,-2.25 0.06,-0.40 0.09,-0.72 0.11,-0.88 0.04,-0.24 -0.14,-0.51 -0.27,0.04 z M 368.21,14.30 c 0.18,-0.50 -0.04,-0.77 -0.29,-0.16 -0.25,0.61 -1.30,2.73 -1.14,5.22 0.04,0.58 0.42,1.70 1.29,1.73 0.45,0.00 1.03,-0.33 1.44,-1.73 0.07,-0.32 0.12,-0.57 0.15,-0.70 0.04,-0.19 -0.10,-0.42 -0.24,0.02 -0.33,0.86 -1.18,1.47 -1.82,0.31 -0.10,-0.23 -0.53,-1.28 0.26,-3.57 0.16,-0.44 0.36,-1.11 0.36,-1.11 z M 342.10,20.28 c 0.48,0.00 1.11,-0.35 1.55,-1.87 0.08,-0.34 0.13,-0.62 0.16,-0.75 0.05,-0.21 -0.10,-0.45 -0.26,0.02 -0.35,0.93 -1.27,1.58 -1.96,0.33 -0.11,-0.25 -0.58,-1.38 0.28,-3.86 0.17,-0.48 0.39,-1.20 0.39,-1.20 0.19,-0.54 -0.04,-0.84 -0.31,-0.17 -0.27,0.66 -1.40,2.94 -1.23,5.63 0.04,0.62 0.45,1.83 1.39,1.87 z M 324.41,12.30 c 0.25,-0.16 13.84,-8.02 14.32,-8.31 0.46,-0.29 0.72,-0.41 0.91,-0.85 0.18,-0.44 0.23,-0.51 0.33,-0.82 0.10,-0.32 0.21,-0.67 -0.61,-0.19 -0.53,0.31 -14.04,8.11 -14.59,8.46 -0.55,0.35 -0.74,0.44 -0.83,0.87 -0.09,0.42 -0.13,0.67 -0.16,0.73 -0.10,0.28 -0.17,0.63 0.64,0.10 z M 373.79,24.89 c -0.25,-0.28 -0.38,-0.01 -0.46,0.31 -0.09,0.32 -0.36,1.52 -0.53,2.27 0.00,0.00 0.71,1.16 0.97,1.75 0.25,0.59 -0.12,0.92 -0.86,1.01 -2.08,0.25 -3.73,-0.94 -4.30,-1.48 -0.57,-0.55 0.05,-1.52 0.51,-2.68 0.37,-0.93 -0.32,-1.04 -0.84,0.00 -1.76,4.63 -4.23,5.13 -4.88,5.30 -5.86,1.60 -5.36,-3.76 -5.34,-4.64 0.02,-0.88 -0.62,-0.55 -1.34,0.03 -2.47,1.98 -4.45,3.14 -5.52,3.62 -0.92,-1.80 -2.26,-2.93 -2.82,-3.34 -6.34,-4.63 -6.86,4.71 -6.67,5.71 0.97,3.97 7.44,1.56 8.46,1.44 1.01,-0.12 0.68,1.22 0.11,2.02 -1.41,1.97 -3.03,3.38 -4.50,4.57 -6.28,5.13 -9.43,4.72 -10.41,4.69 -6.17,-0.17 -5.60,-6.82 -5.26,-8.24 1.86,-1.57 3.45,-3.28 4.38,-5.04 0.38,-0.96 1.03,-3.16 -0.15,-5.91 -0.62,-1.21 -2.56,-4.61 -2.56,-4.61 0.00,0.00 1.43,0.04 1.57,0.04 0.14,0.00 0.41,-0.14 0.06,-0.54 -0.35,-0.40 -3.36,-3.41 -3.54,-3.65 -0.18,-0.24 -0.35,-0.41 -0.45,-0.06 -0.10,0.36 -0.36,1.88 -0.42,2.20 -0.06,0.31 -0.06,0.63 0.10,0.90 0.15,0.27 0.55,1.20 0.84,1.96 0.29,0.76 3.26,6.47 3.53,6.98 0.27,0.51 0.33,0.88 0.06,1.22 -9.53,10.05 -27.91,16.23 -28.50,16.57 -0.59,0.34 -0.43,0.61 0.56,0.43 1.48,-0.26 9.74,-1.64 12.09,-2.77 1.55,-0.75 6.97,-3.41 11.41,-6.89 -0.12,0.90 -0.24,2.22 -0.18,3.89 0.30,8.08 7.53,6.74 9.43,6.33 5.68,-1.25 12.64,-9.11 13.23,-10.69 0.58,-1.56 0.67,-2.98 0.54,-4.22 1.50,-0.81 4.71,-3.40 4.71,-3.40 0.13,3.45 2.88,4.48 3.72,4.63 3.96,0.60 5.94,-2.70 6.78,-3.78 0.72,1.89 2.45,2.26 3.34,2.43 3.41,0.68 4.08,-1.73 4.26,-2.29 1.07,-3.33 -0.86,-5.81 -1.11,-6.08 z M 345.15,31.57 c -2.03,-0.14 -1.85,-0.92 -1.57,-1.22 0.30,-0.33 2.78,-1.89 4.85,0.89 0.00,0.00 -0.86,0.50 -3.28,0.33 z M 365.45,6.37 c 0.79,0.58 1.93,1.04 1.93,1.04 -3.66,4.48 -10.84,7.67 -12.55,9.01 -0.51,0.38 -0.44,0.61 -0.12,0.52 0.29,-0.08 5.76,-1.61 10.76,-5.90 2.29,-1.97 2.23,-2.11 2.82,-3.31 0.50,0.26 0.84,0.67 1.03,0.91 0.28,0.34 0.43,0.60 0.56,0.23 0.48,-1.33 -0.20,-2.13 -0.84,-2.54 0.00,0.00 0.67,-2.07 -0.56,-4.14 -0.21,-0.35 -1.43,-1.46 -2.85,0.74 -0.55,0.84 -0.96,2.85 -0.17,3.42 z M 366.18,4.34 c 0.73,-1.02 1.08,-0.99 1.36,-0.82 0.83,0.77 0.70,2.03 0.67,2.31 0.00,0.00 -1.05,-0.49 -1.52,-0.69 -0.47,-0.20 -0.72,-0.50 -0.50,-0.80 z M 347.60,7.03 c 0.17,0.09 0.36,0.11 0.41,-0.10 0.05,-0.21 0.29,-0.68 0.62,-0.34 0.28,0.28 2.09,1.78 3.03,4.95 0.16,0.42 0.55,0.46 0.64,-0.14 0.22,-1.47 0.34,-4.02 0.45,-4.79 0.16,-1.09 0.68,-3.32 2.06,-2.16 0.31,0.26 0.64,0.61 0.64,0.61 0.29,0.37 0.66,0.79 0.84,0.36 0.27,-0.64 0.49,-1.70 0.19,-2.28 -0.13,-0.26 -1.83,-2.41 -3.00,-0.93 -1.44,1.83 -1.53,4.23 -1.72,6.91 -0.20,-0.56 -1.35,-4.16 -5.02,-6.21 -0.27,-0.15 -0.81,0.13 -0.86,0.98 -0.03,0.49 -0.17,1.69 0.18,2.03 0.35,0.34 1.37,1.01 1.54,1.10 z M 370.58,37.21 c -0.24,0.68 -0.34,1.12 -0.32,1.38 0.03,0.26 0.12,1.09 0.12,1.09 -0.25,0.20 -1.33,0.87 -2.40,0.08 0.07,-0.23 0.21,-0.70 0.24,-0.95 0.12,-0.40 -0.13,-0.69 -0.32,-0.28 -0.20,0.41 -0.65,1.79 -0.99,2.10 -0.34,0.31 -0.73,1.45 -3.30,0.29 -0.45,-0.17 -1.23,-0.75 -2.46,0.48 -2.77,2.57 -4.68,2.78 -7.79,3.88 -0.38,0.17 -1.16,0.76 -0.23,0.67 0.94,-0.09 4.87,0.00 7.01,-2.46 0.45,-0.43 0.96,-1.58 2.66,-0.92 0.94,0.36 2.68,1.85 4.58,-1.10 1.12,0.75 2.82,0.45 3.09,-0.38 0.27,-0.82 0.58,-1.64 0.58,-2.20 0.00,-0.56 -0.05,-1.30 -0.05,-1.30 -0.04,-0.44 -0.19,-1.07 -0.44,-0.40 z M 315.31,14.16 c -0.06,-0.05 -0.15,-0.03 -0.20,0.04 -1.53,2.10 -1.53,2.10 -1.53,2.10 -0.05,0.07 -0.04,0.16 0.03,0.20 2.61,1.91 2.61,1.91 2.61,1.91 0.06,0.05 0.15,0.03 0.20,-0.04 1.32,-1.81 1.32,-1.81 1.32,-1.81 2.54,1.85 2.54,1.85 2.54,1.85 0.06,0.05 0.15,0.03 0.20,-0.04 1.53,-2.10 1.53,-2.10 1.53,-2.10 0.05,-0.07 0.04,-0.16 -0.03,-0.20 -2.61,-1.91 -2.61,-1.91 -2.61,-1.91 -0.06,-0.05 -0.15,-0.03 -0.20,0.04 -1.32,1.81 -1.32,1.81 -1.32,1.81 z M 307.72,13.78 c 0.17,-0.04 3.05,-0.49 6.41,-3.05 1.82,-1.38 2.92,-3.74 2.92,-3.74 0.00,0.00 0.91,0.76 1.03,0.91 0.28,0.34 0.43,0.60 0.56,0.23 0.48,-1.33 -0.20,-2.13 -0.84,-2.54 0.00,0.00 0.67,-2.07 -0.56,-4.14 -0.21,-0.35 -1.43,-1.46 -2.85,0.74 -0.55,0.84 -0.96,2.85 -0.17,3.42 0.79,0.58 1.93,1.04 1.93,1.04 -3.66,4.48 -6.16,5.34 -8.30,6.59 -0.55,0.32 -0.44,0.61 -0.12,0.53 z M 315.44,4.39 c -0.47,-0.20 -0.72,-0.50 -0.50,-0.80 0.73,-1.02 1.08,-0.99 1.36,-0.82 0.82,0.77 0.70,2.02 0.67,2.31 0.00,0.00 -1.05,-0.49 -1.52,-0.69 z M 314.68,23.91 c 0.00,0.00 1.25,-0.31 1.47,-0.38 0.22,-0.06 0.34,-0.35 -0.05,-0.55 -0.39,-0.20 -4.09,-1.67 -4.37,-1.79 -0.28,-0.11 -0.38,-0.24 -0.41,0.06 -0.02,0.30 -0.07,2.73 -0.07,2.73 0.00,0.00 -0.06,0.17 0.27,0.35 0.32,0.18 0.64,0.58 0.90,0.84 0.26,0.26 3.70,2.98 3.87,3.07 0.00,0.00 -1.72,3.02 -1.94,5.38 -0.22,2.36 0.04,5.63 3.27,4.58 0.87,-0.25 4.49,-1.69 5.30,-4.21 0.26,-0.93 1.01,-2.61 -0.21,-4.31 -0.70,-1.00 -3.53,-2.69 -3.53,-2.69 0.00,0.00 2.17,-3.00 2.38,-3.37 0.21,-0.37 1.00,-2.69 1.09,-3.26 0.09,-0.56 0.13,-0.84 -0.29,-0.32 -0.42,0.52 -4.63,6.05 -4.63,6.05 z M 321.64,32.79 c -1.20,0.99 -3.72,2.29 -4.43,2.36 -0.71,0.07 -2.59,-0.28 -1.77,-2.20 0.28,-0.62 2.16,-3.84 2.16,-3.84 0.70,0.39 5.24,2.70 4.04,3.69 z M 245.42,34.39 c 0.00,0.00 2.63,4.82 8.42,4.46 1.17,-0.08 9.99,-1.10 10.74,-6.65 0.11,-0.79 1.25,-5.14 -4.51,-9.54 -0.49,-0.38 -2.58,-1.09 -4.09,1.02 -1.51,2.11 -1.54,5.01 -0.23,5.95 1.30,0.94 3.60,0.78 4.82,0.57 1.23,-0.21 2.14,0.26 2.50,0.63 0.36,0.37 0.76,0.89 -0.16,1.59 -0.91,0.70 -10.53,7.20 -15.59,0.52 0.00,0.00 2.95,-1.85 2.87,-5.97 -0.02,-0.99 -1.11,-7.68 -4.85,-5.14 -1.96,1.33 -2.03,5.50 -2.01,6.15 0.03,0.65 0.94,3.68 0.94,3.68 -0.31,0.26 -1.05,1.01 -3.81,2.00 -0.35,-0.69 -0.83,-1.41 -1.48,-2.11 -2.00,-1.98 -3.61,-2.95 -5.69,-0.67 -2.08,2.29 -1.76,6.15 0.83,6.88 0.93,0.23 2.53,0.04 4.71,-0.51 0.45,-0.12 1.86,0.09 1.19,1.16 -0.67,1.07 -6.33,8.32 -13.01,8.84 -0.84,0.07 -7.81,-0.38 -5.53,-9.19 1.34,-0.82 2.79,-1.83 4.36,-3.08 0.52,-0.42 3.51,-2.52 3.64,-6.26 0.12,-3.37 -0.61,-3.93 -1.13,-5.07 -0.75,-1.63 -1.52,-3.28 -1.52,-3.28 0.60,0.23 0.99,0.32 1.20,0.41 0.21,0.09 0.57,-0.14 0.22,-0.58 -0.35,-0.43 -2.63,-3.04 -2.70,-3.21 -0.07,-0.17 -0.17,-0.30 -0.24,-0.54 -0.07,-0.23 -0.22,-0.19 -0.31,0.02 -0.09,0.20 -0.58,2.14 -0.61,2.32 -0.03,0.18 0.49,1.91 0.82,2.70 0.85,2.25 2.45,5.40 2.72,5.91 0.27,0.51 0.74,1.55 0.35,2.13 -0.55,0.81 -5.11,5.72 -12.96,8.05 -1.23,0.37 -6.44,1.68 -9.41,-2.20 -0.49,-0.64 -2.77,-3.84 -0.65,-10.11 0.21,-0.50 -0.09,-1.04 -0.59,-0.10 -0.50,0.93 -4.60,13.16 4.58,15.69 1.59,0.44 5.23,1.17 11.29,-2.24 -0.45,1.96 -1.51,9.13 2.92,11.33 0.75,0.37 6.17,2.97 15.75,-7.05 1.74,-1.82 2.16,-5.00 2.16,-5.00 0.02,-0.29 0.03,-0.83 -0.07,-1.51 1.18,-0.50 4.02,-1.91 4.09,-1.98 z M 259.82,27.27 c -0.60,0.10 -2.61,0.23 -3.26,-0.57 -0.65,-0.81 0.54,-1.44 1.49,-1.33 2.45,0.29 3.18,1.96 3.18,1.96 -0.34,-0.24 -0.81,-0.16 -1.41,-0.05 z M 245.71,24.74 c 1.51,-1.04 3.08,2.09 3.21,2.50 0.13,0.42 0.03,0.73 -0.34,1.12 -0.37,0.39 -1.86,1.66 -2.72,2.26 0.00,0.00 -0.82,-1.81 -1.21,-2.88 -0.39,-1.07 -0.44,-1.95 1.07,-3.00 z M 235.05,34.84 c -2.16,-0.38 -1.37,-1.40 -0.97,-1.78 0.40,-0.38 2.75,-1.14 4.03,1.56 0.00,0.00 -0.90,0.60 -3.06,0.22 z" />
     </g>
</svg>
