<?xml version="1.0" encoding="UTF-8"?>
<svg version="1.1" id="Layer_1" x="0px" y="0px" width="578" height="50" viewBox="0 0 578 50"
xml:space="preserve" xmlns="http://www.w3.org/2000/svg" xmlns:svg="http://www.w3.org/2000/svg" xmlns:rdf="http://www.w3.org/1999/02/22-rdf-syntax-ns#"  xmlns:cc="http://creativecommons.org/ns#" xmlns:dc="http://purl.org/dc/elements/1.1/">
     <g>
<path d="M 223.08,27.70 c -1.92,2.63 -1.92,2.63 -1.92,2.63 -0.06,0.08 -0.05,0.20 0.03,0.25 3.27,2.38 3.27,2.38 3.27,2.38 0.08,0.06 0.19,0.04 0.25,-0.05 1.91,-2.63 1.91,-2.63 1.91,-2.63 0.06,-0.08 0.05,-0.20 -0.03,-0.25 -3.27,-2.38 -3.27,-2.38 -3.27,-2.38 -0.08,-0.06 -0.19,-0.04 -0.25,0.05 z M 239.94,37.23 c -1.92,2.63 -1.92,2.63 -1.92,2.63 -0.06,0.08 -0.05,0.20 0.03,0.25 3.27,2.38 3.27,2.38 3.27,2.38 0.08,0.06 0.19,0.04 0.25,-0.05 1.91,-2.63 1.91,-2.63 1.91,-2.63 0.06,-0.08 0.05,-0.20 -0.03,-0.25 -3.27,-2.38 -3.27,-2.38 -3.27,-2.38 -0.08,-0.06 -0.19,-0.04 -0.25,0.05 z M 263.20,18.80 c -1.92,2.63 -1.92,2.63 -1.92,2.63 -0.06,0.08 -0.05,0.20 0.03,0.25 3.27,2.38 3.27,2.38 3.27,2.38 0.08,0.06 0.19,0.04 0.25,-0.05 1.91,-2.63 1.91,-2.63 1.91,-2.63 0.06,-0.08 0.05,-0.20 -0.03,-0.25 -3.27,-2.38 -3.27,-2.38 -3.27,-2.38 -0.08,-0.06 -0.19,-0.04 -0.25,0.05 z M 297.70,39.56 c -0.04,0.46 0.17,0.64 0.38,0.19 0.11,-0.24 0.59,-1.22 0.73,-3.80 0.11,-1.94 -0.04,-4.91 -0.60,-9.01 -0.08,-0.60 -2.49,-18.16 -2.49,-18.16 0.00,0.00 1.55,1.46 1.80,1.72 0.25,0.26 0.55,0.12 0.41,-0.30 -0.14,-0.42 -3.32,-8.09 -3.42,-8.36 -0.10,-0.27 -0.20,-0.46 -0.33,-0.15 -0.13,0.31 -1.08,2.64 -1.08,2.64 0.02,0.14 0.28,1.16 0.33,1.54 0.44,3.37 2.74,20.04 3.53,26.33 0.39,3.10 0.69,5.88 0.73,7.37 z M 276.51,19.75 c 0.80,0.38 1.96,0.03 2.84,-1.63 0.68,0.99 1.71,0.99 2.27,0.79 0.47,-0.17 1.00,-0.88 1.15,-1.86 0.15,-0.98 -0.10,-1.65 -0.41,-2.20 -0.41,-0.68 -0.68,-1.82 -0.68,-1.82 -0.15,-0.41 -0.25,-0.83 -0.43,-0.26 -0.18,0.56 -0.32,1.00 -0.07,1.64 0.24,0.64 0.91,2.10 1.02,2.31 0.11,0.21 0.14,0.44 -0.23,0.60 -0.36,0.15 -2.02,0.51 -2.33,-1.26 -0.31,-1.77 -0.34,-2.29 -0.49,-2.59 -0.15,-0.30 -0.30,-0.34 -0.42,-0.04 -0.12,0.30 -0.19,0.92 -0.21,1.02 -0.02,0.10 -0.02,0.17 0.05,0.28 0.06,0.11 0.73,2.09 0.43,2.63 -0.30,0.54 -1.79,1.52 -2.57,0.50 -0.37,-0.72 -0.15,-2.53 -0.15,-2.96 0.00,-0.43 -0.14,-0.57 -0.32,-0.23 -0.18,0.34 -0.28,0.57 -0.27,0.88 0.01,0.31 0.06,1.63 0.03,2.05 -0.03,0.42 0.00,1.77 0.80,2.15 z M 279.60,26.30 c 0.06,0.05 0.15,0.03 0.20,-0.04 1.32,-1.81 1.32,-1.81 1.32,-1.81 2.54,1.85 2.54,1.85 2.54,1.85 0.06,0.05 0.15,0.03 0.20,-0.04 1.53,-2.10 1.53,-2.10 1.53,-2.10 0.05,-0.07 0.04,-0.16 -0.03,-0.21 -2.61,-1.91 -2.61,-1.91 -2.61,-1.91 -0.06,-0.05 -0.15,-0.03 -0.20,0.04 -1.32,1.81 -1.32,1.81 -1.32,1.81 -2.54,-1.85 -2.54,-1.85 -2.54,-1.85 -0.06,-0.05 -0.15,-0.03 -0.20,0.04 -1.53,2.10 -1.53,2.10 -1.53,2.10 -0.05,0.07 -0.04,0.16 0.03,0.20 z M 236.60,44.62 c -0.55,0.28 -8.51,3.38 -9.08,3.69 -0.57,0.32 -0.77,0.39 -0.88,0.81 -0.11,0.41 -0.17,0.66 -0.20,0.72 -0.12,0.28 -0.21,0.62 0.63,0.14 0.26,-0.15 8.33,-3.30 8.80,-3.56 0.47,-0.27 0.75,-0.36 0.96,-0.79 0.21,-0.42 0.26,-0.50 0.38,-0.80 0.12,-0.32 0.25,-0.65 -0.60,-0.23 z M 248.16,16.48 c 0.31,-0.17 24.39,-12.27 24.94,-12.61 0.55,-0.34 0.88,-0.46 1.11,-0.98 0.23,-0.51 0.29,-0.61 0.42,-0.97 0.14,-0.38 0.30,-0.73 -0.72,-0.24 -0.68,0.33 -24.57,12.43 -25.27,12.78 -0.69,0.35 -0.90,0.50 -1.02,1.00 -0.12,0.50 -0.18,0.77 -0.21,0.87 -0.11,0.34 -0.26,0.69 0.76,0.15 z M 264.54,15.71 c -0.12,0.50 -0.18,0.77 -0.21,0.87 -0.11,0.34 -0.26,0.69 0.76,0.15 0.32,-0.17 15.65,-8.04 16.20,-8.38 0.55,-0.34 0.88,-0.46 1.11,-0.98 0.23,-0.51 0.29,-0.61 0.42,-0.97 0.14,-0.38 0.30,-0.74 -0.72,-0.24 -0.68,0.33 -15.83,8.19 -16.53,8.54 -0.69,0.35 -0.90,0.50 -1.02,1.00 z M 266.46,44.84 c -0.35,0.92 -1.26,1.56 -1.94,0.33 -0.11,-0.25 -0.57,-1.36 0.27,-3.81 0.17,-0.47 0.38,-1.18 0.38,-1.18 0.19,-0.53 -0.04,-0.83 -0.31,-0.17 -0.27,0.66 -1.39,2.91 -1.22,5.57 0.04,0.61 0.45,1.81 1.37,1.84 0.48,0.00 1.10,-0.35 1.53,-1.85 0.08,-0.34 0.12,-0.61 0.16,-0.75 0.05,-0.20 -0.10,-0.44 -0.26,0.02 z M 292.99,43.52 c -0.35,0.92 -1.26,1.56 -1.94,0.33 -0.11,-0.24 -0.57,-1.36 0.27,-3.81 0.17,-0.47 0.38,-1.18 0.38,-1.18 0.19,-0.53 -0.04,-0.83 -0.31,-0.17 -0.27,0.65 -1.39,2.91 -1.22,5.57 0.04,0.61 0.45,1.81 1.37,1.84 0.48,0.00 1.10,-0.35 1.54,-1.85 0.08,-0.34 0.12,-0.61 0.16,-0.75 0.05,-0.20 -0.10,-0.44 -0.26,0.02 z M 251.34,9.38 c 0.47,0.00 1.08,-0.34 1.51,-1.82 0.08,-0.33 0.12,-0.60 0.15,-0.73 0.05,-0.20 -0.10,-0.44 -0.25,0.02 -0.34,0.91 -1.24,1.54 -1.91,0.32 -0.11,-0.24 -0.56,-1.34 0.27,-3.75 0.17,-0.47 0.38,-1.16 0.38,-1.16 0.19,-0.53 -0.04,-0.81 -0.30,-0.17 -0.26,0.64 -1.36,2.86 -1.20,5.48 0.04,0.60 0.44,1.78 1.35,1.81 z M 253.47,20.35 c 0.18,-0.64 -0.10,-0.96 -0.35,-0.18 -0.25,0.78 -1.35,3.49 -0.98,6.58 0.09,0.71 0.62,2.09 1.65,2.07 0.53,-0.03 1.20,-0.48 1.58,-2.26 0.06,-0.40 0.10,-0.72 0.12,-0.88 0.04,-0.24 -0.14,-0.51 -0.29,0.04 -0.33,1.10 -1.30,1.91 -2.13,0.51 -0.14,-0.28 -0.72,-1.56 0.05,-4.47 0.16,-0.56 0.35,-1.41 0.35,-1.41 z M 219.06,40.30 c 0.53,-0.03 1.20,-0.46 1.59,-2.17 0.06,-0.38 0.10,-0.69 0.13,-0.84 0.04,-0.23 -0.14,-0.49 -0.29,0.04 -0.33,1.05 -1.30,1.83 -2.14,0.49 -0.14,-0.27 -0.72,-1.49 0.06,-4.28 0.16,-0.54 0.35,-1.35 0.35,-1.35 0.18,-0.61 -0.09,-0.92 -0.35,-0.17 -0.26,0.75 -1.36,3.34 -1.00,6.30 0.08,0.68 0.61,2.00 1.64,1.97 z M 213.58,28.32 c 0.72,-0.04 1.61,-0.69 2.12,-3.32 0.08,-0.59 0.13,-1.07 0.16,-1.30 0.05,-0.35 -0.20,-0.76 -0.38,0.06 -0.43,1.62 -1.73,2.81 -2.87,0.73 -0.19,-0.41 -0.99,-2.30 0.04,-6.59 0.21,-0.83 0.46,-2.07 0.46,-2.07 0.23,-0.94 -0.14,-1.42 -0.48,-0.27 -0.34,1.15 -1.79,5.14 -1.28,9.71 0.12,1.06 0.85,3.09 2.24,3.06 z M 359.73,14.30 c 0.18,-0.50 -0.04,-0.77 -0.29,-0.16 -0.25,0.61 -1.30,2.73 -1.14,5.22 0.04,0.58 0.42,1.70 1.29,1.73 0.45,0.00 1.03,-0.33 1.44,-1.74 0.07,-0.32 0.12,-0.57 0.15,-0.70 0.04,-0.19 -0.10,-0.42 -0.24,0.02 -0.33,0.86 -1.18,1.47 -1.82,0.31 -0.10,-0.23 -0.53,-1.28 0.26,-3.57 0.16,-0.44 0.36,-1.11 0.36,-1.11 z M 339.12,7.03 c 0.17,0.10 0.36,0.11 0.41,-0.10 0.05,-0.21 0.28,-0.68 0.62,-0.34 0.28,0.28 2.09,1.78 3.03,4.95 0.16,0.42 0.55,0.46 0.64,-0.14 0.22,-1.47 0.34,-4.02 0.45,-4.79 0.16,-1.09 0.68,-3.33 2.06,-2.16 0.31,0.26 0.64,0.61 0.64,0.61 0.29,0.37 0.66,0.79 0.84,0.36 0.27,-0.64 0.49,-1.70 0.19,-2.28 -0.13,-0.26 -1.84,-2.41 -3.00,-0.93 -1.44,1.83 -1.53,4.23 -1.72,6.91 -0.20,-0.56 -1.35,-4.15 -5.02,-6.21 -0.27,-0.15 -0.81,0.13 -0.86,0.98 -0.03,0.49 -0.17,1.69 0.18,2.03 0.35,0.34 1.37,1.01 1.54,1.10 z M 315.93,12.30 c 0.25,-0.16 13.84,-8.02 14.32,-8.31 0.46,-0.29 0.72,-0.41 0.91,-0.85 0.18,-0.44 0.23,-0.52 0.33,-0.82 0.11,-0.32 0.21,-0.67 -0.61,-0.19 -0.53,0.31 -14.04,8.11 -14.59,8.46 -0.55,0.35 -0.74,0.44 -0.83,0.87 -0.09,0.42 -0.13,0.67 -0.16,0.73 -0.10,0.28 -0.17,0.63 0.64,0.10 z M 333.62,20.27 c 0.48,0.00 1.11,-0.35 1.55,-1.87 0.08,-0.34 0.13,-0.62 0.16,-0.75 0.05,-0.21 -0.10,-0.45 -0.26,0.02 -0.35,0.93 -1.27,1.58 -1.96,0.33 -0.11,-0.25 -0.58,-1.38 0.28,-3.86 0.17,-0.48 0.39,-1.20 0.39,-1.20 0.19,-0.54 -0.04,-0.84 -0.31,-0.17 -0.27,0.66 -1.40,2.94 -1.23,5.64 0.04,0.62 0.45,1.83 1.39,1.86 z M 306.20,23.91 c 0.00,0.00 1.25,-0.31 1.47,-0.38 0.22,-0.06 0.34,-0.35 -0.05,-0.55 -0.39,-0.20 -4.09,-1.67 -4.37,-1.79 -0.28,-0.11 -0.38,-0.24 -0.41,0.06 -0.02,0.30 -0.07,2.73 -0.07,2.73 0.00,0.00 -0.06,0.17 0.26,0.35 0.32,0.18 0.64,0.58 0.90,0.84 0.26,0.26 3.70,2.98 3.87,3.07 0.00,0.00 -1.72,3.02 -1.94,5.38 -0.22,2.36 0.04,5.63 3.27,4.57 0.87,-0.25 4.49,-1.69 5.30,-4.21 0.26,-0.93 1.01,-2.61 -0.21,-4.31 -0.70,-1.00 -3.53,-2.69 -3.53,-2.69 0.00,0.00 2.17,-3.00 2.38,-3.37 0.21,-0.37 1.00,-2.69 1.09,-3.26 0.09,-0.56 0.13,-0.84 -0.29,-0.32 -0.42,0.52 -4.63,6.05 -4.63,6.05 z M 313.16,32.79 c -1.20,0.99 -3.72,2.29 -4.43,2.36 -0.71,0.07 -2.59,-0.28 -1.77,-2.21 0.28,-0.62 2.16,-3.84 2.16,-3.84 0.70,0.39 5.24,2.70 4.04,3.69 z M 356.97,6.37 c 0.79,0.58 1.93,1.04 1.93,1.04 -3.66,4.49 -10.84,7.67 -12.55,9.01 -0.51,0.39 -0.44,0.61 -0.12,0.53 0.29,-0.08 5.76,-1.61 10.77,-5.90 2.29,-1.97 2.23,-2.11 2.81,-3.31 0.50,0.26 0.84,0.67 1.03,0.91 0.28,0.34 0.43,0.60 0.56,0.23 0.48,-1.33 -0.20,-2.13 -0.84,-2.54 0.00,0.00 0.67,-2.07 -0.56,-4.14 -0.21,-0.35 -1.43,-1.46 -2.85,0.74 -0.55,0.84 -0.96,2.85 -0.17,3.42 z M 357.70,4.34 c 0.73,-1.02 1.08,-0.98 1.36,-0.82 0.82,0.77 0.70,2.02 0.67,2.31 0.00,0.00 -1.05,-0.49 -1.52,-0.69 -0.47,-0.20 -0.72,-0.50 -0.50,-0.80 z M 365.31,24.89 c -0.25,-0.28 -0.37,-0.01 -0.46,0.31 -0.09,0.32 -0.36,1.52 -0.54,2.27 0.00,0.00 0.71,1.16 0.97,1.75 0.25,0.59 -0.12,0.92 -0.86,1.01 -2.08,0.25 -3.73,-0.94 -4.30,-1.48 -0.57,-0.55 0.05,-1.52 0.51,-2.68 0.37,-0.93 -0.32,-1.04 -0.84,0.00 -1.76,4.63 -4.23,5.12 -4.88,5.30 -5.86,1.60 -5.36,-3.76 -5.34,-4.64 0.02,-0.88 -0.62,-0.55 -1.34,0.03 -2.47,1.98 -4.45,3.14 -5.52,3.62 -0.92,-1.80 -2.26,-2.93 -2.82,-3.34 -6.34,-4.63 -6.87,4.71 -6.68,5.71 0.97,3.97 7.45,1.56 8.46,1.44 1.02,-0.12 0.68,1.22 0.11,2.02 -1.41,1.97 -3.03,3.38 -4.50,4.58 -6.28,5.12 -9.44,4.72 -10.41,4.69 -6.17,-0.17 -5.60,-6.82 -5.26,-8.24 1.86,-1.57 3.45,-3.28 4.38,-5.04 0.38,-0.96 1.03,-3.16 -0.15,-5.91 -0.62,-1.21 -2.56,-4.60 -2.56,-4.60 0.00,0.00 1.43,0.04 1.57,0.04 0.14,0.00 0.41,-0.14 0.06,-0.54 -0.35,-0.40 -3.36,-3.40 -3.54,-3.65 -0.18,-0.24 -0.35,-0.42 -0.45,-0.06 -0.10,0.36 -0.36,1.88 -0.42,2.20 -0.06,0.31 -0.06,0.63 0.10,0.90 0.15,0.27 0.55,1.20 0.84,1.96 0.29,0.76 3.26,6.47 3.53,6.98 0.27,0.51 0.33,0.88 0.06,1.22 -9.53,10.05 -27.91,16.23 -28.50,16.58 -0.59,0.34 -0.43,0.61 0.56,0.43 1.48,-0.26 9.74,-1.64 12.09,-2.77 1.55,-0.75 6.98,-3.41 11.41,-6.89 -0.12,0.90 -0.24,2.22 -0.17,3.89 0.30,8.08 7.53,6.74 9.43,6.33 5.68,-1.25 12.64,-9.11 13.23,-10.69 0.58,-1.56 0.67,-2.98 0.54,-4.22 1.50,-0.81 4.71,-3.40 4.71,-3.40 0.13,3.45 2.88,4.48 3.72,4.63 3.96,0.60 5.94,-2.71 6.78,-3.78 0.72,1.89 2.45,2.26 3.34,2.43 3.41,0.68 4.08,-1.73 4.26,-2.29 1.07,-3.33 -0.86,-5.81 -1.11,-6.08 z M 336.67,31.57 c -2.03,-0.14 -1.85,-0.92 -1.57,-1.22 0.30,-0.33 2.78,-1.89 4.85,0.89 0.00,0.00 -0.86,0.50 -3.28,0.33 z M 306.82,14.16 c -0.06,-0.05 -0.15,-0.03 -0.20,0.04 -1.53,2.10 -1.53,2.10 -1.53,2.10 -0.05,0.07 -0.04,0.16 0.03,0.20 2.61,1.91 2.61,1.91 2.61,1.91 0.06,0.05 0.15,0.03 0.20,-0.04 1.32,-1.81 1.32,-1.81 1.32,-1.81 2.54,1.85 2.54,1.85 2.54,1.85 0.06,0.05 0.15,0.03 0.20,-0.04 1.53,-2.10 1.53,-2.10 1.53,-2.10 0.05,-0.07 0.04,-0.16 -0.03,-0.21 -2.61,-1.91 -2.61,-1.91 -2.61,-1.91 -0.06,-0.05 -0.15,-0.03 -0.20,0.04 -1.32,1.81 -1.32,1.81 -1.32,1.81 z M 299.24,13.78 c 0.17,-0.05 3.05,-0.49 6.41,-3.05 1.82,-1.38 2.92,-3.74 2.92,-3.74 0.00,0.00 0.91,0.76 1.03,0.91 0.28,0.34 0.43,0.60 0.56,0.23 0.48,-1.33 -0.20,-2.13 -0.84,-2.54 0.00,0.00 0.67,-2.07 -0.56,-4.14 -0.21,-0.35 -1.43,-1.46 -2.85,0.74 -0.55,0.84 -0.96,2.85 -0.17,3.42 0.79,0.58 1.93,1.04 1.93,1.04 -3.66,4.49 -6.16,5.34 -8.30,6.60 -0.55,0.32 -0.44,0.61 -0.12,0.53 z M 306.96,4.39 c -0.47,-0.20 -0.72,-0.50 -0.50,-0.80 0.73,-1.02 1.08,-0.99 1.36,-0.82 0.82,0.77 0.70,2.02 0.67,2.31 0.00,0.00 -1.05,-0.49 -1.52,-0.69 z M 362.10,37.21 c -0.24,0.68 -0.34,1.12 -0.31,1.38 0.03,0.26 0.11,1.10 0.11,1.10 -0.25,0.20 -1.33,0.87 -2.40,0.08 0.07,-0.23 0.21,-0.70 0.24,-0.95 0.12,-0.40 -0.13,-0.69 -0.32,-0.28 -0.20,0.41 -0.65,1.79 -0.99,2.10 -0.34,0.31 -0.73,1.45 -3.30,0.29 -0.45,-0.17 -1.23,-0.75 -2.46,0.48 -2.77,2.57 -4.68,2.78 -7.79,3.88 -0.38,0.17 -1.16,0.77 -0.23,0.67 0.94,-0.09 4.87,0.00 7.01,-2.46 0.45,-0.43 0.96,-1.58 2.66,-0.92 0.94,0.36 2.68,1.85 4.58,-1.10 1.12,0.75 2.82,0.45 3.09,-0.38 0.27,-0.82 0.58,-1.64 0.58,-2.20 0.00,-0.56 -0.05,-1.30 -0.05,-1.30 -0.04,-0.44 -0.19,-1.07 -0.44,-0.40 z M 220.15,9.00 c 0.17,0.09 0.36,0.09 0.40,-0.11 0.04,-0.21 0.25,-0.69 0.60,-0.36 0.25,0.23 2.25,1.86 2.93,4.16 0.57,2.00 -4.24,6.28 -4.49,6.47 -0.45,0.35 -0.29,0.56 -0.08,0.44 0.21,-0.13 0.43,-0.17 2.91,-1.95 2.00,-1.44 2.37,-3.03 2.50,-4.24 0.02,-0.06 0.04,-0.13 0.04,-0.21 0.16,-1.47 0.17,-4.03 0.25,-4.80 0.12,-1.09 0.54,-3.35 1.94,-2.24 0.32,0.25 0.66,0.59 0.66,0.59 0.30,0.36 0.68,0.76 0.84,0.33 0.24,-0.65 0.41,-1.72 0.10,-2.28 -0.14,-0.25 -1.90,-2.34 -2.99,-0.82 -1.34,1.88 -1.34,4.29 -1.42,6.97 -0.22,-0.55 -1.49,-4.10 -5.19,-6.01 -0.27,-0.14 -0.79,0.17 -0.81,1.01 -0.01,0.49 -0.10,1.70 0.25,2.02 0.36,0.33 1.39,0.95 1.56,1.04 z M 234.93,13.87 c 0.70,0.55 1.74,1.00 1.74,1.00 -3.46,4.01 -8.24,7.74 -10.23,8.83 -0.51,0.28 -0.42,0.55 -0.12,0.48 0.15,-0.04 2.77,-0.92 5.93,-3.13 2.67,-1.86 5.24,-5.85 5.24,-5.85 0.00,0.00 0.81,0.72 0.92,0.86 0.24,0.32 0.38,0.56 0.50,0.23 0.47,-1.20 -0.13,-1.95 -0.71,-2.35 0.00,0.00 0.67,-1.88 -0.41,-3.81 -0.18,-0.32 -1.27,-1.37 -2.63,0.60 -0.53,0.75 -0.95,2.58 -0.25,3.13 z M 235.65,12.03 c 0.69,-0.92 1.02,-0.87 1.26,-0.71 0.73,0.72 0.59,1.87 0.55,2.13 0.00,0.00 -0.95,-0.48 -1.38,-0.67 -0.42,-0.20 -0.64,-0.48 -0.44,-0.74 z M 290.95,31.91 c -0.23,-3.00 -3.78,-24.02 -3.78,-24.02 0.00,0.00 1.55,1.46 1.80,1.72 0.25,0.26 0.55,0.12 0.41,-0.30 -0.14,-0.42 -3.15,-7.21 -3.25,-7.47 -0.10,-0.27 -0.20,-0.46 -0.33,-0.15 -0.13,0.31 -1.15,2.55 -1.15,2.55 0.03,0.18 0.27,0.73 0.43,1.87 0.17,1.18 0.42,2.86 0.69,4.72 0.00,0.00 0.77,4.09 1.55,8.91 0.10,0.63 2.73,14.08 2.01,15.46 -0.16,0.27 -2.16,1.39 -4.02,1.21 -0.39,-0.04 -3.05,-0.54 -3.24,-3.02 0.11,-0.66 0.32,-2.49 -0.50,-1.29 -0.81,1.20 -4.92,8.63 -12.02,3.73 0.00,0.00 -0.36,-0.31 -0.79,-0.68 2.27,-1.38 4.38,-2.61 4.72,-2.57 0.00,0.00 0.42,-1.21 0.64,-2.29 -6.80,-4.66 -15.40,-0.70 -16.26,-0.13 -0.86,0.57 -1.14,2.40 -1.28,2.88 -0.13,0.48 0.35,0.46 0.78,0.26 0.73,-0.38 2.04,-1.00 2.94,-0.52 1.25,0.70 2.54,1.58 3.69,2.43 -4.86,2.47 -10.52,3.87 -14.56,1.92 -3.10,-1.55 -3.63,-9.04 -3.80,-10.39 -0.14,-1.19 -1.12,-17.19 -3.82,-23.68 -0.46,-1.12 -0.75,0.57 -0.99,1.80 -0.24,1.23 -0.15,1.03 0.09,1.96 1.76,5.54 3.25,20.45 3.37,22.48 0.45,7.93 3.02,10.00 3.43,10.36 5.00,4.42 13.42,-0.15 14.89,-0.81 0.39,-0.17 1.78,-1.03 3.44,-2.05 0.77,0.61 1.35,1.09 1.62,1.28 1.63,1.17 7.63,6.18 13.09,-1.89 0.59,1.16 1.75,3.09 3.99,3.34 1.09,0.12 6.77,-0.12 6.19,-7.60 z M 266.87,33.57 c -0.98,-0.77 -2.15,-1.59 -3.35,-2.25 3.49,-0.50 6.02,0.11 6.22,0.22 -0.86,0.69 -1.83,1.38 -2.86,2.04 z M 235.49,35.80 c 0.29,-2.35 -0.13,-3.98 -0.13,-3.98 0.88,-0.02 4.41,-0.22 4.96,-4.18 0.16,-1.13 0.32,-2.65 -1.51,-5.54 -0.50,-0.66 -0.52,-0.48 -0.64,-0.04 -0.12,0.44 -0.50,2.13 -0.50,2.13 0.36,0.78 1.20,2.43 1.33,2.71 0.14,0.28 0.06,0.48 -0.14,0.70 -0.20,0.22 -2.05,1.69 -4.58,0.84 0.00,0.00 -1.12,-1.67 -1.31,-1.95 -0.20,-0.28 -0.44,-0.44 -0.54,-0.08 -0.10,0.36 -0.24,2.51 -0.24,2.51 0.79,1.35 2.40,4.19 2.40,5.16 0.00,0.97 0.09,1.52 -1.10,2.71 -1.19,1.19 -7.44,7.16 -14.06,6.91 -0.68,-0.03 -7.04,-0.46 -7.46,-6.45 -0.04,-0.92 0.09,-3.32 0.75,-5.72 0.18,-0.70 -0.07,-1.58 -0.59,-0.53 -0.53,1.06 -3.56,11.21 2.64,14.63 0.74,0.41 6.78,3.00 14.94,-2.68 1.02,-0.71 5.54,-3.65 5.79,-7.13 z" />
     </g>
</svg>
