<?xml version="1.0" encoding="UTF-8"?>
<svg version="1.1" id="Layer_1" x="0px" y="0px" width="578" height="53" viewBox="0 0 578 53"
xml:space="preserve" xmlns="http://www.w3.org/2000/svg" xmlns:svg="http://www.w3.org/2000/svg" xmlns:rdf="http://www.w3.org/1999/02/22-rdf-syntax-ns#"  xmlns:cc="http://creativecommons.org/ns#" xmlns:dc="http://purl.org/dc/elements/1.1/">
     <g>
<path d="M 297.24,45.77 c -0.04,0.46 0.17,0.63 0.38,0.19 0.11,-0.24 0.59,-1.22 0.73,-3.80 0.11,-1.94 -0.05,-4.91 -0.60,-9.01 -0.08,-0.60 -2.95,-21.37 -2.95,-21.37 0.00,0.00 1.55,1.46 1.80,1.72 0.25,0.26 0.55,0.12 0.41,-0.30 -0.14,-0.42 -3.31,-8.09 -3.42,-8.36 -0.10,-0.27 -0.20,-0.46 -0.33,-0.15 -0.13,0.31 -1.08,2.64 -1.08,2.64 0.02,0.14 0.28,1.16 0.33,1.54 0.44,3.36 3.20,23.25 3.99,29.54 0.39,3.09 0.69,5.88 0.73,7.37 z M 243.41,12.52 c 0.58,0.09 0.91,0.43 1.06,0.62 0.06,0.08 0.16,0.02 0.18,-0.03 0.66,-1.30 0.06,-2.11 -1.06,-2.43 -0.45,-0.13 -0.64,-0.74 1.00,-1.80 1.51,-0.97 13.13,-6.21 13.47,-6.44 0.45,-0.32 0.73,-0.44 0.91,-0.89 0.18,-0.45 0.22,-0.53 0.31,-0.85 0.10,-0.34 0.20,-0.69 -0.63,-0.17 -0.44,0.27 -13.52,6.12 -14.78,7.14 -0.63,0.51 -1.16,1.32 -1.34,2.20 -0.27,1.27 0.05,2.53 0.88,2.66 z M 276.55,26.43 c 0.83,0.39 2.02,0.03 2.93,-1.69 0.70,1.02 1.77,1.02 2.34,0.81 0.49,-0.18 1.03,-0.91 1.19,-1.92 0.16,-1.01 -0.10,-1.71 -0.42,-2.28 -0.42,-0.70 -0.70,-1.88 -0.70,-1.88 -0.15,-0.42 -0.26,-0.85 -0.45,-0.27 -0.19,0.58 -0.33,1.03 -0.08,1.70 0.25,0.67 0.94,2.17 1.05,2.39 0.11,0.22 0.14,0.46 -0.23,0.62 -0.37,0.16 -2.09,0.52 -2.41,-1.30 -0.32,-1.83 -0.35,-2.36 -0.51,-2.67 -0.16,-0.31 -0.31,-0.35 -0.43,-0.04 -0.12,0.31 -0.20,0.95 -0.22,1.05 -0.02,0.10 -0.02,0.18 0.05,0.29 0.07,0.11 0.75,2.16 0.44,2.72 -0.31,0.56 -1.85,1.57 -2.65,0.52 -0.38,-0.74 -0.15,-2.61 -0.15,-3.06 0.00,-0.44 -0.14,-0.59 -0.33,-0.23 -0.19,0.36 -0.29,0.59 -0.28,0.91 0.01,0.32 0.06,1.69 0.03,2.12 -0.03,0.43 0.00,1.83 0.82,2.22 z M 225.22,17.25 c -1.53,2.10 -1.53,2.10 -1.53,2.10 -0.05,0.07 -0.04,0.16 0.03,0.20 2.61,1.91 2.61,1.91 2.61,1.91 0.06,0.05 0.15,0.03 0.20,-0.04 1.32,-1.81 1.32,-1.81 1.32,-1.81 2.54,1.85 2.54,1.85 2.54,1.85 0.06,0.05 0.15,0.03 0.20,-0.04 1.53,-2.10 1.53,-2.10 1.53,-2.10 0.05,-0.07 0.04,-0.16 -0.03,-0.20 -2.61,-1.91 -2.61,-1.91 -2.61,-1.91 -0.06,-0.05 -0.15,-0.03 -0.20,0.04 -1.32,1.81 -1.32,1.81 -1.32,1.81 -2.54,-1.85 -2.54,-1.85 -2.54,-1.85 -0.06,-0.05 -0.15,-0.03 -0.20,0.04 z M 220.36,10.33 c 0.16,0.07 0.32,0.07 0.34,-0.13 0.02,-0.20 0.18,-0.67 0.50,-0.38 0.27,0.24 1.95,1.51 3.06,4.43 0.18,0.38 0.52,0.39 0.54,-0.18 0.04,-1.41 -0.10,-3.83 -0.07,-4.57 0.04,-1.04 0.26,-3.21 1.55,-2.22 0.29,0.22 0.61,0.53 0.61,0.53 0.29,0.32 0.64,0.69 0.75,0.27 0.17,-0.63 0.25,-1.65 -0.06,-2.17 -0.14,-0.23 -1.80,-2.13 -2.65,-0.63 -1.05,1.85 -0.90,4.13 -0.81,6.69 -0.23,-0.51 -1.55,-3.82 -4.89,-5.45 -0.24,-0.12 -0.68,0.20 -0.64,1.00 0.02,0.47 0.02,1.61 0.35,1.91 0.33,0.29 1.27,0.83 1.42,0.91 z M 239.89,44.09 c 0.18,-0.44 0.23,-0.52 0.33,-0.82 0.10,-0.32 0.25,-0.58 -0.61,-0.19 -0.61,0.28 -10.96,5.27 -11.58,5.57 -0.59,0.28 -0.74,0.44 -0.83,0.87 -0.09,0.42 -0.13,0.67 -0.16,0.73 -0.10,0.28 -0.17,0.53 0.64,0.11 0.27,-0.14 10.81,-5.16 11.31,-5.42 0.48,-0.25 0.72,-0.41 0.91,-0.85 z M 271.13,17.55 c 0.26,-0.15 10.79,-4.09 11.26,-4.36 0.47,-0.27 0.75,-0.36 0.96,-0.79 0.21,-0.42 0.26,-0.50 0.38,-0.80 0.13,-0.32 0.25,-0.65 -0.60,-0.22 -0.55,0.28 -10.97,4.17 -11.54,4.48 -0.57,0.32 -0.77,0.39 -0.88,0.81 -0.11,0.42 -0.17,0.66 -0.20,0.72 -0.12,0.28 -0.21,0.62 0.63,0.14 z M 262.06,28.38 c 0.51,0.00 1.17,-0.37 1.64,-1.98 0.08,-0.36 0.13,-0.65 0.17,-0.80 0.05,-0.22 -0.11,-0.48 -0.28,0.02 -0.37,0.98 -1.35,1.67 -2.07,0.35 -0.12,-0.26 -0.61,-1.46 0.29,-4.07 0.18,-0.51 0.41,-1.26 0.41,-1.26 0.20,-0.57 -0.04,-0.88 -0.33,-0.18 -0.29,0.70 -1.48,3.11 -1.30,5.95 0.04,0.66 0.48,1.94 1.47,1.97 z M 276.78,11.04 c 0.44,0.00 1.00,-0.32 1.40,-1.69 0.07,-0.31 0.11,-0.56 0.14,-0.68 0.04,-0.19 -0.09,-0.41 -0.24,0.02 -0.32,0.84 -1.15,1.42 -1.77,0.30 -0.10,-0.22 -0.52,-1.24 0.25,-3.47 0.15,-0.43 0.35,-1.08 0.35,-1.08 0.17,-0.49 -0.03,-0.75 -0.28,-0.16 -0.24,0.60 -1.26,2.65 -1.11,5.07 0.04,0.56 0.41,1.65 1.25,1.68 z M 290.65,42.80 c -0.41,-0.13 -1.05,-0.01 -1.85,1.17 -0.16,0.27 -0.28,0.50 -0.34,0.60 -0.10,0.16 -0.04,0.41 0.23,0.06 0.56,-0.70 1.53,-1.00 1.77,0.26 0.03,0.24 0.11,1.34 -1.31,3.22 -0.28,0.36 -0.67,0.92 -0.67,0.92 -0.31,0.41 -0.20,0.73 0.22,0.24 0.42,-0.49 2.02,-2.13 2.63,-4.48 0.14,-0.54 0.12,-1.69 -0.67,-1.98 z M 256.42,44.65 c -0.41,-0.13 -1.05,-0.01 -1.85,1.17 -0.16,0.27 -0.28,0.50 -0.35,0.60 -0.10,0.16 -0.04,0.41 0.23,0.06 0.56,-0.70 1.53,-1.00 1.77,0.26 0.03,0.24 0.11,1.34 -1.31,3.22 -0.28,0.36 -0.67,0.92 -0.67,0.92 -0.31,0.41 -0.20,0.73 0.22,0.24 0.42,-0.49 2.02,-2.13 2.63,-4.48 0.14,-0.54 0.12,-1.69 -0.67,-1.98 z M 221.73,30.25 c 0.15,-0.57 -0.10,-0.85 -0.33,-0.15 -0.22,0.69 -1.20,3.10 -0.82,5.83 0.09,0.63 0.60,1.83 1.56,1.79 0.49,-0.04 1.10,-0.44 1.44,-2.03 0.05,-0.36 0.08,-0.64 0.10,-0.78 0.03,-0.21 -0.14,-0.45 -0.26,0.04 -0.29,0.97 -1.18,1.71 -1.97,0.49 -0.13,-0.24 -0.69,-1.36 -0.01,-3.95 0.14,-0.50 0.30,-1.25 0.30,-1.25 z M 245.10,31.10 c 0.21,-0.64 -0.10,-0.96 -0.40,-0.18 -0.30,0.78 -1.59,3.50 -1.19,6.59 0.09,0.71 0.69,2.08 1.88,2.05 0.61,-0.04 1.38,-0.49 1.85,-2.28 0.08,-0.40 0.12,-0.72 0.15,-0.88 0.05,-0.24 -0.16,-0.51 -0.33,0.04 -0.39,1.10 -1.51,1.92 -2.47,0.53 -0.16,-0.28 -0.82,-1.55 0.10,-4.47 0.19,-0.57 0.41,-1.41 0.41,-1.41 z M 212.87,27.92 c 0.76,0.00 1.75,-0.61 2.47,-3.29 0.12,-0.61 0.21,-1.09 0.26,-1.33 0.08,-0.36 -0.16,-0.79 -0.41,0.04 -0.57,1.64 -2.03,2.78 -3.10,0.57 -0.17,-0.44 -0.89,-2.44 0.48,-6.80 0.28,-0.84 0.63,-2.11 0.63,-2.11 0.31,-0.95 -0.05,-1.48 -0.49,-0.31 -0.43,1.17 -2.25,5.18 -2.01,9.93 0.06,1.10 0.69,3.24 2.17,3.31 z M 315.53,13.45 c 0.25,-0.16 13.84,-8.02 14.32,-8.31 0.46,-0.29 0.72,-0.41 0.90,-0.85 0.18,-0.44 0.23,-0.52 0.33,-0.82 0.11,-0.32 0.21,-0.67 -0.61,-0.19 -0.53,0.31 -14.04,8.11 -14.59,8.46 -0.55,0.35 -0.74,0.44 -0.83,0.87 -0.09,0.42 -0.13,0.67 -0.16,0.73 -0.10,0.28 -0.17,0.63 0.64,0.10 z M 333.22,21.42 c 0.49,0.00 1.11,-0.35 1.55,-1.87 0.08,-0.34 0.13,-0.62 0.16,-0.75 0.05,-0.21 -0.10,-0.45 -0.26,0.02 -0.35,0.93 -1.27,1.58 -1.96,0.33 -0.11,-0.25 -0.58,-1.38 0.28,-3.86 0.17,-0.48 0.39,-1.20 0.39,-1.20 0.19,-0.54 -0.04,-0.84 -0.31,-0.17 -0.27,0.66 -1.40,2.94 -1.23,5.63 0.04,0.62 0.45,1.83 1.39,1.87 z M 338.73,8.17 c 0.17,0.10 0.36,0.11 0.41,-0.10 0.05,-0.21 0.28,-0.68 0.62,-0.34 0.28,0.28 2.09,1.78 3.03,4.95 0.16,0.42 0.55,0.46 0.64,-0.14 0.22,-1.47 0.34,-4.02 0.45,-4.79 0.16,-1.09 0.68,-3.32 2.06,-2.16 0.31,0.26 0.64,0.61 0.64,0.61 0.29,0.37 0.66,0.79 0.84,0.36 0.27,-0.64 0.49,-1.71 0.19,-2.28 -0.13,-0.25 -1.84,-2.41 -3.00,-0.93 -1.44,1.83 -1.53,4.23 -1.72,6.91 -0.20,-0.56 -1.35,-4.15 -5.03,-6.21 -0.27,-0.15 -0.81,0.13 -0.86,0.98 -0.03,0.49 -0.17,1.69 0.18,2.03 0.35,0.34 1.37,1.01 1.54,1.10 z M 356.57,7.52 c 0.79,0.58 1.94,1.04 1.94,1.04 -3.66,4.49 -10.85,7.67 -12.56,9.01 -0.51,0.39 -0.44,0.61 -0.12,0.53 0.28,-0.08 5.76,-1.61 10.76,-5.90 2.29,-1.97 2.23,-2.11 2.81,-3.30 0.50,0.26 0.84,0.67 1.03,0.91 0.28,0.34 0.43,0.60 0.56,0.23 0.48,-1.33 -0.20,-2.13 -0.84,-2.54 0.00,0.00 0.67,-2.07 -0.56,-4.14 -0.21,-0.35 -1.43,-1.46 -2.85,0.74 -0.55,0.84 -0.96,2.85 -0.17,3.42 z M 357.30,5.49 c 0.73,-1.02 1.08,-0.99 1.36,-0.82 0.82,0.77 0.70,2.02 0.67,2.31 0.00,0.00 -1.05,-0.49 -1.52,-0.69 -0.47,-0.20 -0.72,-0.50 -0.50,-0.80 z M 359.33,15.45 c 0.18,-0.50 -0.04,-0.77 -0.29,-0.16 -0.25,0.61 -1.30,2.73 -1.14,5.22 0.04,0.58 0.42,1.70 1.29,1.73 0.45,0.00 1.03,-0.33 1.44,-1.74 0.07,-0.32 0.12,-0.57 0.15,-0.70 0.04,-0.19 -0.10,-0.42 -0.24,0.02 -0.33,0.86 -1.18,1.47 -1.82,0.31 -0.10,-0.23 -0.53,-1.28 0.26,-3.57 0.16,-0.44 0.36,-1.11 0.36,-1.11 z M 364.91,26.04 c -0.25,-0.28 -0.37,-0.01 -0.46,0.31 -0.09,0.32 -0.36,1.52 -0.54,2.27 0.00,0.00 0.71,1.16 0.97,1.76 0.25,0.59 -0.12,0.92 -0.86,1.01 -2.08,0.25 -3.73,-0.94 -4.30,-1.48 -0.57,-0.55 0.05,-1.52 0.51,-2.68 0.37,-0.93 -0.32,-1.04 -0.84,0.00 -1.76,4.63 -4.23,5.12 -4.88,5.30 -5.86,1.60 -5.36,-3.76 -5.34,-4.64 0.02,-0.88 -0.62,-0.55 -1.34,0.03 -2.47,1.98 -4.45,3.14 -5.52,3.62 -0.92,-1.80 -2.26,-2.93 -2.82,-3.34 -6.34,-4.62 -6.87,4.71 -6.67,5.71 0.97,3.97 7.45,1.56 8.46,1.44 1.02,-0.12 0.68,1.22 0.11,2.02 -1.41,1.97 -3.03,3.38 -4.50,4.57 -6.28,5.13 -9.44,4.72 -10.41,4.69 -6.17,-0.17 -5.60,-6.82 -5.26,-8.24 1.86,-1.57 3.45,-3.28 4.38,-5.04 0.38,-0.96 1.03,-3.16 -0.15,-5.91 -0.62,-1.21 -2.56,-4.60 -2.56,-4.60 0.00,0.00 1.43,0.04 1.57,0.04 0.14,0.00 0.41,-0.14 0.06,-0.54 -0.35,-0.40 -3.36,-3.40 -3.54,-3.65 -0.18,-0.24 -0.35,-0.42 -0.45,-0.06 -0.10,0.36 -0.36,1.88 -0.42,2.20 -0.06,0.31 -0.06,0.63 0.10,0.90 0.15,0.27 0.55,1.20 0.84,1.96 0.29,0.76 3.25,6.47 3.53,6.98 0.27,0.51 0.33,0.88 0.06,1.22 -9.53,10.05 -27.91,16.23 -28.50,16.57 -0.59,0.34 -0.43,0.61 0.56,0.43 1.48,-0.26 9.74,-1.64 12.09,-2.77 1.55,-0.75 6.97,-3.41 11.41,-6.89 -0.12,0.90 -0.24,2.22 -0.17,3.89 0.30,8.08 7.53,6.74 9.43,6.33 5.68,-1.25 12.64,-9.11 13.23,-10.69 0.58,-1.56 0.67,-2.98 0.54,-4.22 1.50,-0.81 4.71,-3.40 4.71,-3.40 0.13,3.45 2.87,4.48 3.72,4.63 3.96,0.60 5.94,-2.71 6.78,-3.78 0.72,1.89 2.45,2.25 3.34,2.43 3.41,0.68 4.08,-1.73 4.26,-2.29 1.07,-3.33 -0.86,-5.81 -1.11,-6.08 z M 336.28,32.72 c -2.03,-0.14 -1.85,-0.92 -1.57,-1.22 0.30,-0.33 2.78,-1.89 4.85,0.89 0.00,0.00 -0.86,0.50 -3.28,0.33 z M 298.85,14.93 c 0.17,-0.04 3.05,-0.49 6.41,-3.05 1.82,-1.38 2.92,-3.74 2.92,-3.74 0.00,0.00 0.91,0.76 1.03,0.91 0.28,0.34 0.43,0.60 0.56,0.23 0.48,-1.33 -0.20,-2.13 -0.84,-2.54 0.00,0.00 0.67,-2.07 -0.56,-4.14 -0.21,-0.35 -1.43,-1.46 -2.85,0.74 -0.55,0.84 -0.96,2.85 -0.17,3.42 0.79,0.58 1.94,1.04 1.94,1.04 -3.66,4.49 -6.16,5.34 -8.30,6.60 -0.55,0.32 -0.44,0.61 -0.12,0.52 z M 306.56,5.53 c -0.47,-0.20 -0.72,-0.50 -0.50,-0.80 0.73,-1.02 1.08,-0.99 1.36,-0.82 0.82,0.77 0.70,2.02 0.67,2.31 0.00,0.00 -1.05,-0.49 -1.52,-0.69 z M 361.70,38.36 c -0.24,0.68 -0.34,1.12 -0.31,1.38 0.03,0.26 0.12,1.10 0.12,1.10 -0.25,0.20 -1.33,0.87 -2.40,0.08 0.07,-0.23 0.21,-0.70 0.24,-0.95 0.12,-0.40 -0.13,-0.69 -0.32,-0.28 -0.20,0.41 -0.65,1.79 -0.99,2.10 -0.34,0.31 -0.73,1.45 -3.30,0.29 -0.45,-0.17 -1.23,-0.75 -2.46,0.48 -2.77,2.57 -4.68,2.78 -7.79,3.88 -0.38,0.17 -1.16,0.77 -0.23,0.67 0.94,-0.09 4.87,0.00 7.01,-2.46 0.45,-0.43 0.96,-1.58 2.66,-0.92 0.94,0.36 2.68,1.85 4.58,-1.10 1.12,0.75 2.82,0.45 3.09,-0.38 0.27,-0.82 0.58,-1.64 0.58,-2.20 0.00,-0.56 -0.05,-1.30 -0.05,-1.30 -0.04,-0.44 -0.19,-1.07 -0.44,-0.40 z M 305.80,25.06 c 0.00,0.00 1.25,-0.31 1.47,-0.38 0.22,-0.06 0.34,-0.35 -0.05,-0.55 -0.39,-0.20 -4.09,-1.67 -4.37,-1.79 -0.28,-0.11 -0.38,-0.24 -0.41,0.06 -0.02,0.30 -0.07,2.73 -0.07,2.73 0.00,0.00 -0.06,0.17 0.27,0.35 0.32,0.18 0.64,0.57 0.90,0.84 0.26,0.26 3.70,2.98 3.87,3.07 0.00,0.00 -1.72,3.02 -1.94,5.38 -0.22,2.36 0.04,5.63 3.27,4.57 0.87,-0.25 4.49,-1.69 5.30,-4.21 0.26,-0.93 1.01,-2.61 -0.21,-4.31 -0.70,-1.00 -3.53,-2.69 -3.53,-2.69 0.00,0.00 2.17,-3.00 2.38,-3.37 0.21,-0.37 1.01,-2.69 1.09,-3.26 0.09,-0.56 0.13,-0.84 -0.29,-0.32 -0.42,0.52 -4.63,6.05 -4.63,6.05 z M 312.76,33.94 c -1.20,0.99 -3.72,2.29 -4.43,2.36 -0.71,0.07 -2.59,-0.28 -1.77,-2.20 0.28,-0.62 2.16,-3.84 2.16,-3.84 0.70,0.39 5.24,2.70 4.04,3.69 z M 306.43,15.31 c -0.06,-0.05 -0.15,-0.03 -0.20,0.04 -1.53,2.10 -1.53,2.10 -1.53,2.10 -0.05,0.07 -0.04,0.16 0.03,0.20 2.61,1.91 2.61,1.91 2.61,1.91 0.06,0.05 0.15,0.03 0.20,-0.04 1.32,-1.81 1.32,-1.81 1.32,-1.81 2.54,1.85 2.54,1.85 2.54,1.85 0.06,0.05 0.15,0.03 0.20,-0.04 1.53,-2.10 1.53,-2.10 1.53,-2.10 0.05,-0.07 0.04,-0.16 -0.03,-0.21 -2.61,-1.91 -2.61,-1.91 -2.61,-1.91 -0.06,-0.05 -0.15,-0.03 -0.20,0.04 -1.32,1.81 -1.32,1.81 -1.32,1.81 z M 290.34,32.82 c 0.00,-1.73 -3.39,-21.88 -3.39,-21.88 0.00,0.00 1.55,1.46 1.80,1.72 0.25,0.26 0.55,0.12 0.41,-0.30 -0.14,-0.42 -3.06,-7.26 -3.16,-7.53 -0.10,-0.27 -0.20,-0.46 -0.33,-0.15 -0.13,0.31 -1.15,2.55 -1.15,2.55 0.03,0.18 0.27,0.73 0.43,1.87 0.17,1.18 0.42,2.86 0.69,4.71 0.00,0.00 2.97,18.06 3.08,19.79 0.11,1.73 0.32,3.29 -0.11,3.72 -0.42,0.42 -5.06,2.76 -4.78,2.34 0.28,-0.43 2.09,-3.61 1.45,-6.19 -0.35,-1.20 -2.97,-5.13 -9.13,-2.79 -2.10,1.06 -4.47,3.35 -6.51,5.61 0.34,-2.29 0.72,-7.34 -0.65,-14.05 -0.37,-2.10 -2.18,-11.95 -2.18,-11.95 0.00,0.00 1.55,1.46 1.80,1.72 0.25,0.26 0.55,0.12 0.41,-0.30 -0.14,-0.42 -2.91,-6.60 -3.01,-6.86 -0.10,-0.27 -0.20,-0.46 -0.33,-0.15 -0.13,0.31 -1.15,2.55 -1.15,2.55 0.03,0.18 0.27,0.73 0.43,1.87 0.17,1.18 0.42,2.86 0.69,4.71 0.30,1.68 2.53,15.45 2.67,17.23 0.13,1.58 0.16,5.22 0.09,6.65 -2.07,2.45 -3.55,4.55 -3.55,4.55 0.00,0.00 -6.33,0.21 -7.57,-9.17 -0.42,-3.04 -2.05,-20.59 -3.61,-26.36 -0.25,-1.06 -0.60,-1.20 -0.81,-0.50 -0.21,0.71 -0.74,3.33 -0.74,3.33 0.25,1.95 2.69,17.76 2.80,19.32 0.05,0.75 0.53,2.99 -0.05,5.76 -0.13,-1.54 -0.59,-3.37 -1.83,-5.00 -2.21,-2.91 -6.51,-6.47 -7.47,-7.41 -0.71,-0.70 -4.56,-4.25 -6.56,-6.87 -0.90,-1.20 -1.95,-2.81 -1.95,-2.81 0.65,0.25 1.44,0.48 1.87,0.63 0.43,0.15 0.94,0.02 0.30,-0.59 -0.64,-0.60 -5.54,-4.25 -5.92,-4.68 -0.38,-0.43 -0.43,-0.36 -0.46,-0.03 -0.03,0.33 -0.04,2.09 -0.02,2.63 0.01,0.55 0.13,0.74 0.37,0.91 0.24,0.17 0.62,0.44 0.88,0.84 0.26,0.41 4.79,7.20 8.81,10.75 0.52,0.54 7.80,5.98 10.48,11.25 0.48,0.94 0.70,1.84 0.78,2.73 -0.99,2.36 -2.90,4.88 -6.44,7.11 -1.34,0.92 -8.99,5.06 -9.66,5.48 -0.67,0.43 -0.39,0.64 0.53,0.43 0.92,-0.21 10.44,-1.77 14.44,-6.97 1.63,-1.98 3.25,-6.26 3.25,-6.26 0.46,2.12 1.77,10.26 13.59,8.77 1.31,-0.14 10.90,-1.24 16.91,-4.46 0.96,-0.57 3.89,-2.26 3.57,-8.24 z M 266.90,42.40 c 0.00,0.00 3.03,-5.33 7.08,-7.95 1.02,-0.64 5.54,-3.10 9.68,1.54 0.33,0.52 0.26,0.73 -0.05,1.04 -5.61,5.40 -15.74,5.40 -16.71,5.37 z M 236.85,28.92 c -3.45,-7.58 -7.35,-4.53 -8.34,-3.28 -1.24,1.58 -2.52,6.14 0.54,6.58 3.06,0.44 6.65,-0.56 7.80,2.05 0.14,0.31 0.14,1.56 -3.06,3.91 -1.01,0.75 -9.10,7.21 -15.99,5.79 -1.41,-0.29 -7.86,-2.36 -4.85,-12.74 0.27,-0.91 0.07,-1.65 -0.63,-0.43 -0.69,1.22 -3.36,9.79 0.53,13.83 8.12,8.44 22.17,-4.45 22.17,-4.45 0.73,-0.76 5.14,-4.00 1.83,-11.28 z M 232.35,29.49 c -0.91,0.10 -1.42,0.29 -2.48,-0.26 -0.82,-0.43 -0.43,-1.60 0.35,-1.83 2.24,-0.64 4.17,2.23 4.17,2.23 -0.16,-0.09 -1.13,-0.23 -2.05,-0.13 z" />
     </g>
</svg>
