<?xml version="1.0" encoding="UTF-8"?>
<svg version="1.1" id="Layer_1" x="0px" y="0px" width="578" height="51" viewBox="0 0 578 51"
xml:space="preserve" xmlns="http://www.w3.org/2000/svg" xmlns:svg="http://www.w3.org/2000/svg" xmlns:rdf="http://www.w3.org/1999/02/22-rdf-syntax-ns#"  xmlns:cc="http://creativecommons.org/ns#" xmlns:dc="http://purl.org/dc/elements/1.1/">
     <g>
<path d="M 298.69,34.87 c 0.39,3.10 0.69,5.88 0.73,7.37 -0.04,0.46 0.17,0.64 0.38,0.19 0.11,-0.24 0.59,-1.22 0.73,-3.80 0.11,-1.94 -0.05,-4.91 -0.60,-9.01 -0.08,-0.60 -2.95,-21.37 -2.95,-21.37 0.00,0.00 1.55,1.45 1.80,1.72 0.25,0.26 0.55,0.12 0.41,-0.30 -0.14,-0.42 -3.32,-8.09 -3.42,-8.36 -0.10,-0.27 -0.20,-0.46 -0.33,-0.15 -0.13,0.31 -1.08,2.64 -1.08,2.64 0.02,0.14 0.28,1.15 0.33,1.54 0.44,3.37 3.20,23.25 3.99,29.54 z M 288.65,7.41 c 0.00,0.00 1.55,1.46 1.80,1.72 0.25,0.26 0.55,0.12 0.41,-0.30 -0.14,-0.42 -2.99,-7.23 -3.09,-7.50 -0.10,-0.27 -0.20,-0.46 -0.33,-0.15 -0.13,0.31 -1.15,2.55 -1.15,2.55 0.03,0.18 0.27,0.73 0.43,1.87 0.17,1.15 0.41,2.78 0.67,4.58 0.00,0.00 3.51,19.71 3.65,22.35 0.10,0.99 0.40,2.00 -0.26,2.40 -0.79,0.54 -5.98,2.95 -7.49,-2.18 0.24,-0.75 0.26,-2.32 -0.62,-1.11 -0.87,1.21 -2.24,5.39 -8.75,5.94 -0.66,0.07 -8.06,0.65 -5.58,-7.24 2.64,-1.33 4.80,-2.44 5.16,-2.62 0.92,-0.48 1.09,-0.69 1.09,-0.69 0.24,-0.55 0.73,-2.07 0.81,-2.40 0.08,-0.32 -0.13,-0.25 -0.29,-0.36 -0.16,-0.10 -10.96,-2.94 -20.46,-1.88 -0.76,0.08 -2.41,0.69 -3.30,3.30 -0.26,1.25 -0.03,2.74 0.53,3.20 0.36,0.30 2.87,2.06 4.95,4.05 -0.18,0.08 -0.30,0.14 -0.36,0.17 -0.81,0.35 -7.76,3.38 -11.13,7.11 -2.93,3.23 -6.50,7.75 -10.08,7.35 -0.95,-0.11 -5.18,-1.40 -0.13,-12.19 2.19,-0.67 4.83,-0.75 7.52,0.91 0.00,0.00 0.16,-1.29 0.16,-1.91 0.00,-0.63 0.46,-1.45 -1.78,-2.48 -2.24,-1.02 -4.85,-2.38 -5.64,-4.85 -0.46,-1.39 -1.04,-5.40 -1.04,-5.40 0.00,0.00 1.35,1.07 1.50,1.17 0.15,0.10 0.36,-0.07 0.18,-0.48 -0.18,-0.41 -2.88,-4.98 -3.00,-5.17 -0.12,-0.19 -0.30,-0.36 -0.41,-0.08 -0.11,0.28 -0.70,2.32 -0.70,2.32 0.00,0.00 1.54,9.69 3.35,12.54 -1.50,0.64 -7.64,3.84 -11.04,7.84 -1.21,1.43 -6.48,6.67 -9.73,5.31 -0.93,-0.39 -3.91,-3.31 1.32,-11.19 0.48,-0.73 0.63,-0.96 0.82,-1.30 0.73,-0.13 1.59,-0.91 2.09,-3.51 0.09,-0.63 0.13,-1.13 0.17,-1.38 0.05,-0.38 -0.21,-0.81 -0.41,0.06 -0.46,1.72 -1.84,2.98 -3.06,0.78 -0.20,-0.44 -1.05,-2.45 0.04,-7.01 0.22,-0.89 0.49,-2.20 0.49,-2.20 0.25,-1.00 -0.15,-1.51 -0.51,-0.29 -0.36,1.22 -1.91,5.46 -1.36,10.32 0.10,0.89 0.61,2.43 1.55,3.02 -1.75,2.54 -8.34,13.52 0.53,15.31 1.40,0.28 4.43,-0.25 8.08,-4.26 1.89,-2.07 4.22,-4.26 5.78,-5.35 0.62,-0.44 1.87,-1.38 3.51,-2.13 -0.03,0.06 -0.06,0.13 -0.09,0.19 -1.25,2.84 -5.02,12.99 2.86,13.95 1.54,0.19 4.50,-0.58 7.96,-5.02 1.27,-1.62 5.54,-6.69 13.33,-9.50 0.22,-0.09 0.62,-0.27 1.15,-0.52 0.28,0.38 0.51,0.75 0.68,1.11 0.14,0.42 0.56,0.17 0.64,-0.42 0.03,-0.21 0.05,-0.67 -0.08,-1.29 2.00,-0.97 4.84,-2.38 7.40,-3.68 -0.50,1.74 -2.13,7.96 3.01,9.67 0.81,0.22 8.49,1.56 11.73,-4.75 0.51,1.08 1.58,3.83 5.74,3.32 0.79,-0.15 4.51,-0.24 4.71,-5.83 0.02,-2.42 -0.81,-7.52 -1.01,-8.95 z M 258.93,31.96 c -0.35,-0.54 -0.81,-1.10 -1.40,-1.67 -0.52,-0.51 -4.38,-3.51 -4.54,-3.64 -0.16,-0.13 -0.39,-0.37 0.15,-0.62 0.54,-0.24 6.24,-1.92 17.03,0.57 -0.76,0.39 -7.48,3.59 -11.24,5.36 z M 252.41,7.30 c 0.42,-0.45 0.71,-0.91 1.95,-0.88 1.23,0.03 4.19,-0.08 3.09,0.73 -1.10,0.81 -1.85,1.28 -1.85,1.28 -0.72,0.52 -1.35,1.48 -0.08,0.94 1.27,-0.54 2.94,-1.38 4.22,-3.32 0.37,-0.56 0.81,-1.31 -0.93,-1.58 -1.74,-0.26 -4.55,-0.67 -5.46,0.32 -0.91,0.99 -1.19,1.67 -1.46,2.10 -0.37,0.58 0.10,0.84 0.52,0.39 z M 275.84,17.10 c 0.79,0.38 1.94,0.03 2.81,-1.62 0.68,0.98 1.70,0.98 2.25,0.78 0.47,-0.17 0.99,-0.87 1.14,-1.84 0.15,-0.97 -0.10,-1.64 -0.41,-2.19 -0.40,-0.67 -0.67,-1.81 -0.67,-1.81 -0.14,-0.41 -0.25,-0.82 -0.43,-0.26 -0.18,0.56 -0.31,0.99 -0.07,1.63 0.24,0.64 0.90,2.09 1.01,2.29 0.11,0.21 0.14,0.44 -0.23,0.59 -0.36,0.15 -2.01,0.50 -2.31,-1.25 -0.31,-1.75 -0.33,-2.27 -0.49,-2.56 -0.15,-0.30 -0.30,-0.33 -0.41,-0.04 -0.12,0.30 -0.19,0.91 -0.21,1.01 -0.02,0.10 -0.02,0.17 0.04,0.28 0.06,0.11 0.72,2.07 0.42,2.61 -0.30,0.54 -1.77,1.51 -2.55,0.49 -0.37,-0.71 -0.14,-2.51 -0.14,-2.93 0.00,-0.42 -0.13,-0.57 -0.32,-0.23 -0.18,0.34 -0.28,0.57 -0.27,0.87 0.01,0.31 0.05,1.62 0.03,2.03 -0.03,0.41 0.00,1.75 0.79,2.13 z M 283.37,20.56 c -1.32,1.81 -1.32,1.81 -1.32,1.81 -2.54,-1.85 -2.54,-1.85 -2.54,-1.85 -0.06,-0.05 -0.15,-0.03 -0.20,0.04 -1.53,2.10 -1.53,2.10 -1.53,2.10 -0.05,0.07 -0.04,0.16 0.03,0.20 2.61,1.91 2.61,1.91 2.61,1.91 0.06,0.05 0.15,0.03 0.20,-0.04 1.32,-1.81 1.32,-1.81 1.32,-1.81 2.54,1.85 2.54,1.85 2.54,1.85 0.06,0.05 0.15,0.03 0.20,-0.04 1.53,-2.10 1.53,-2.10 1.53,-2.10 0.05,-0.07 0.04,-0.16 -0.03,-0.21 -2.61,-1.91 -2.61,-1.91 -2.61,-1.91 -0.06,-0.05 -0.15,-0.03 -0.20,0.04 z M 240.06,38.45 c -1.32,1.81 -1.32,1.81 -1.32,1.81 -2.54,-1.85 -2.54,-1.85 -2.54,-1.85 -0.06,-0.04 -0.15,-0.03 -0.20,0.04 -1.53,2.10 -1.53,2.10 -1.53,2.10 -0.05,0.07 -0.04,0.16 0.03,0.21 2.61,1.91 2.61,1.91 2.61,1.91 0.06,0.05 0.15,0.03 0.20,-0.04 1.32,-1.81 1.32,-1.81 1.32,-1.81 2.54,1.85 2.54,1.85 2.54,1.85 0.06,0.05 0.15,0.03 0.20,-0.04 1.53,-2.10 1.53,-2.10 1.53,-2.10 0.05,-0.07 0.04,-0.16 -0.03,-0.21 -2.61,-1.91 -2.61,-1.91 -2.61,-1.91 -0.06,-0.04 -0.15,-0.03 -0.20,0.04 z M 238.10,6.98 c 0.33,0.25 1.25,0.71 1.41,0.77 0.15,0.06 0.31,0.05 0.33,-0.13 0.02,-0.18 0.15,-0.62 0.47,-0.36 0.27,0.21 1.94,1.30 3.09,3.93 0.19,0.34 0.51,0.34 0.52,-0.19 0.00,-1.29 -0.20,-3.51 -0.20,-4.19 0.01,-0.96 0.17,-2.95 1.45,-2.10 0.29,0.19 0.61,0.46 0.61,0.46 0.29,0.28 0.64,0.60 0.74,0.22 0.15,-0.58 0.20,-1.53 -0.11,-1.99 -0.14,-0.21 -1.80,-1.88 -2.59,-0.47 -0.97,1.74 -0.76,3.83 -0.60,6.17 -0.23,-0.46 -1.61,-3.44 -4.89,-4.80 -0.24,-0.10 -0.65,0.21 -0.59,0.94 0.03,0.43 0.06,1.48 0.39,1.73 z M 216.20,9.11 c 0.33,0.25 1.26,0.71 1.41,0.77 0.15,0.06 0.31,0.05 0.33,-0.13 0.02,-0.18 0.15,-0.62 0.47,-0.36 0.27,0.21 1.94,1.30 3.09,3.93 0.18,0.34 0.51,0.34 0.52,-0.19 0.00,-1.29 -0.20,-3.51 -0.20,-4.19 0.01,-0.96 0.17,-2.95 1.45,-2.10 0.29,0.19 0.61,0.46 0.61,0.46 0.29,0.28 0.64,0.60 0.74,0.22 0.15,-0.58 0.20,-1.53 -0.11,-1.99 -0.14,-0.21 -1.80,-1.88 -2.59,-0.47 -0.97,1.74 -0.76,3.83 -0.60,6.17 -0.23,-0.46 -1.61,-3.44 -4.89,-4.80 -0.24,-0.10 -0.65,0.21 -0.59,0.94 0.03,0.43 0.06,1.48 0.39,1.73 z M 256.27,42.98 c -0.55,0.28 -8.41,3.47 -8.98,3.79 -0.57,0.32 -0.77,0.40 -0.88,0.81 -0.11,0.41 -0.17,0.66 -0.20,0.72 -0.12,0.28 -0.21,0.62 0.63,0.14 0.26,-0.15 8.23,-3.39 8.70,-3.66 0.47,-0.27 0.75,-0.36 0.96,-0.79 0.21,-0.42 0.26,-0.50 0.38,-0.80 0.12,-0.32 0.25,-0.65 -0.60,-0.22 z M 229.56,46.06 c -0.58,0.19 -7.21,2.56 -7.86,2.82 -0.60,0.24 -0.77,0.40 -0.88,0.81 -0.11,0.41 -0.17,0.66 -0.20,0.72 -0.12,0.28 -0.26,0.51 0.63,0.14 0.43,-0.18 6.96,-2.42 7.58,-2.69 0.49,-0.22 0.75,-0.36 0.96,-0.79 0.21,-0.42 0.26,-0.50 0.38,-0.80 0.12,-0.32 0.27,-0.51 -0.60,-0.22 z M 257.78,16.03 c -0.12,0.47 -0.18,0.72 -0.21,0.82 -0.11,0.32 -0.25,0.64 0.71,0.15 0.30,-0.15 23.18,-11.22 23.71,-11.53 0.52,-0.31 0.83,-0.42 1.06,-0.90 0.23,-0.48 0.28,-0.57 0.41,-0.90 0.13,-0.36 0.30,-0.69 -0.68,-0.24 -0.65,0.30 -23.36,11.36 -24.02,11.69 -0.66,0.32 -0.86,0.46 -0.98,0.93 z M 284.53,43.43 c -0.31,0.83 -1.13,1.41 -1.74,0.30 -0.10,-0.22 -0.51,-1.22 0.25,-3.42 0.15,-0.43 0.35,-1.06 0.35,-1.06 0.17,-0.48 -0.03,-0.74 -0.28,-0.16 -0.24,0.59 -1.25,2.61 -1.09,5.00 0.04,0.55 0.40,1.63 1.23,1.66 0.43,0.00 0.99,-0.31 1.38,-1.66 0.07,-0.31 0.11,-0.55 0.14,-0.67 0.04,-0.18 -0.09,-0.40 -0.23,0.02 z M 296.78,41.15 c -0.31,0.83 -1.13,1.41 -1.74,0.30 -0.10,-0.22 -0.51,-1.23 0.24,-3.42 0.15,-0.43 0.35,-1.06 0.35,-1.06 0.17,-0.48 -0.03,-0.74 -0.28,-0.15 -0.24,0.59 -1.25,2.61 -1.09,5.00 0.04,0.55 0.40,1.63 1.23,1.65 0.43,0.00 0.98,-0.31 1.38,-1.66 0.07,-0.30 0.11,-0.55 0.14,-0.67 0.04,-0.18 -0.09,-0.40 -0.23,0.02 z M 224.29,26.64 c 0.04,0.62 0.46,1.83 1.42,1.86 0.50,0.00 1.14,-0.35 1.59,-1.87 0.08,-0.34 0.13,-0.62 0.16,-0.75 0.05,-0.21 -0.11,-0.45 -0.27,0.02 -0.36,0.93 -1.30,1.58 -2.01,0.33 -0.11,-0.25 -0.59,-1.38 0.28,-3.84 0.18,-0.48 0.40,-1.19 0.40,-1.19 0.20,-0.54 -0.04,-0.83 -0.32,-0.17 -0.28,0.66 -1.44,2.93 -1.26,5.61 z M 231.43,12.60 c 0.50,0.00 1.15,-0.36 1.60,-1.93 0.08,-0.36 0.13,-0.64 0.16,-0.78 0.05,-0.21 -0.11,-0.46 -0.27,0.02 -0.37,0.96 -1.31,1.63 -2.03,0.34 -0.12,-0.26 -0.60,-1.42 0.29,-3.98 0.18,-0.50 0.40,-1.23 0.40,-1.23 0.20,-0.56 -0.04,-0.86 -0.32,-0.18 -0.28,0.68 -1.45,3.04 -1.27,5.82 0.04,0.64 0.47,1.89 1.43,1.93 z M 244.68,25.43 c 0.61,-0.04 1.38,-0.61 1.81,-2.91 0.07,-0.52 0.11,-0.94 0.14,-1.14 0.04,-0.31 -0.17,-0.66 -0.33,0.05 -0.37,1.42 -1.48,2.46 -2.46,0.64 -0.16,-0.36 -0.85,-2.02 0.02,-5.78 0.18,-0.73 0.39,-1.82 0.39,-1.82 0.20,-0.82 -0.12,-1.25 -0.41,-0.24 -0.29,1.01 -1.53,4.50 -1.08,8.51 0.10,0.93 0.73,2.71 1.92,2.69 z M 334.88,20.27 c 0.48,0.00 1.11,-0.35 1.55,-1.87 0.08,-0.34 0.13,-0.62 0.16,-0.75 0.05,-0.21 -0.10,-0.45 -0.26,0.02 -0.35,0.93 -1.27,1.58 -1.96,0.33 -0.11,-0.25 -0.58,-1.38 0.28,-3.86 0.17,-0.48 0.39,-1.20 0.39,-1.20 0.19,-0.54 -0.04,-0.84 -0.31,-0.17 -0.27,0.66 -1.40,2.94 -1.23,5.64 0.04,0.62 0.45,1.83 1.39,1.86 z M 358.23,6.37 c 0.79,0.58 1.93,1.04 1.93,1.04 -3.66,4.48 -10.84,7.67 -12.55,9.01 -0.51,0.39 -0.44,0.61 -0.12,0.53 0.29,-0.08 5.76,-1.61 10.77,-5.90 2.29,-1.97 2.23,-2.11 2.81,-3.31 0.50,0.26 0.84,0.67 1.03,0.91 0.28,0.34 0.43,0.60 0.56,0.23 0.48,-1.33 -0.20,-2.13 -0.84,-2.54 0.00,0.00 0.67,-2.07 -0.56,-4.14 -0.21,-0.35 -1.43,-1.46 -2.85,0.74 -0.55,0.84 -0.96,2.85 -0.17,3.42 z M 358.96,4.34 c 0.73,-1.02 1.08,-0.98 1.36,-0.82 0.82,0.77 0.70,2.03 0.67,2.31 0.00,0.00 -1.05,-0.49 -1.52,-0.70 -0.47,-0.20 -0.72,-0.50 -0.50,-0.80 z M 317.19,12.30 c 0.25,-0.16 13.84,-8.02 14.32,-8.31 0.46,-0.29 0.72,-0.41 0.91,-0.85 0.18,-0.44 0.23,-0.52 0.33,-0.82 0.11,-0.32 0.21,-0.67 -0.61,-0.19 -0.53,0.31 -14.04,8.11 -14.59,8.46 -0.55,0.35 -0.74,0.44 -0.83,0.87 -0.09,0.42 -0.13,0.67 -0.16,0.73 -0.10,0.28 -0.17,0.63 0.64,0.10 z M 360.99,14.30 c 0.18,-0.50 -0.04,-0.77 -0.29,-0.16 -0.25,0.61 -1.30,2.73 -1.14,5.22 0.04,0.58 0.42,1.70 1.29,1.73 0.45,0.00 1.03,-0.33 1.44,-1.74 0.07,-0.32 0.12,-0.57 0.15,-0.70 0.04,-0.19 -0.10,-0.42 -0.24,0.02 -0.33,0.86 -1.18,1.47 -1.82,0.31 -0.10,-0.23 -0.53,-1.28 0.26,-3.57 0.16,-0.45 0.36,-1.11 0.36,-1.11 z M 340.39,7.03 c 0.17,0.10 0.36,0.11 0.41,-0.10 0.05,-0.21 0.28,-0.68 0.62,-0.34 0.28,0.28 2.09,1.78 3.03,4.95 0.16,0.42 0.55,0.46 0.64,-0.14 0.22,-1.47 0.34,-4.02 0.45,-4.79 0.16,-1.09 0.68,-3.33 2.06,-2.16 0.31,0.26 0.64,0.61 0.64,0.61 0.29,0.37 0.66,0.79 0.84,0.36 0.27,-0.64 0.49,-1.70 0.19,-2.28 -0.13,-0.26 -1.84,-2.41 -3.00,-0.93 -1.44,1.83 -1.53,4.23 -1.72,6.91 -0.20,-0.56 -1.35,-4.16 -5.02,-6.21 -0.27,-0.15 -0.81,0.13 -0.86,0.98 -0.03,0.49 -0.17,1.69 0.18,2.03 0.35,0.34 1.37,1.01 1.54,1.10 z M 308.09,14.16 c -0.06,-0.05 -0.15,-0.03 -0.20,0.04 -1.53,2.10 -1.53,2.10 -1.53,2.10 -0.05,0.07 -0.04,0.16 0.03,0.21 2.61,1.91 2.61,1.91 2.61,1.91 0.06,0.05 0.15,0.03 0.20,-0.04 1.32,-1.81 1.32,-1.81 1.32,-1.81 2.54,1.85 2.54,1.85 2.54,1.85 0.06,0.05 0.15,0.03 0.20,-0.04 1.53,-2.10 1.53,-2.10 1.53,-2.10 0.05,-0.07 0.04,-0.16 -0.03,-0.21 -2.61,-1.91 -2.61,-1.91 -2.61,-1.91 -0.06,-0.05 -0.15,-0.03 -0.20,0.04 -1.32,1.81 -1.32,1.81 -1.32,1.81 z M 363.37,37.21 c -0.24,0.68 -0.34,1.12 -0.31,1.38 0.03,0.26 0.11,1.10 0.11,1.10 -0.25,0.20 -1.33,0.87 -2.40,0.08 0.07,-0.23 0.21,-0.70 0.24,-0.95 0.12,-0.40 -0.13,-0.69 -0.32,-0.28 -0.20,0.41 -0.65,1.79 -0.99,2.10 -0.34,0.31 -0.73,1.45 -3.30,0.29 -0.45,-0.17 -1.23,-0.75 -2.46,0.48 -2.77,2.57 -4.68,2.77 -7.79,3.88 -0.38,0.17 -1.16,0.77 -0.23,0.67 0.94,-0.09 4.87,0.00 7.01,-2.46 0.45,-0.43 0.96,-1.58 2.66,-0.92 0.94,0.36 2.68,1.85 4.58,-1.10 1.12,0.75 2.82,0.45 3.09,-0.37 0.27,-0.82 0.58,-1.64 0.58,-2.20 0.00,-0.56 -0.05,-1.30 -0.05,-1.30 -0.04,-0.44 -0.19,-1.07 -0.44,-0.40 z M 366.57,24.89 c -0.25,-0.28 -0.37,-0.01 -0.46,0.31 -0.09,0.32 -0.36,1.52 -0.54,2.27 0.00,0.00 0.71,1.16 0.97,1.75 0.25,0.59 -0.12,0.92 -0.86,1.01 -2.08,0.25 -3.73,-0.94 -4.30,-1.48 -0.57,-0.55 0.05,-1.52 0.51,-2.68 0.37,-0.93 -0.32,-1.04 -0.84,0.00 -1.76,4.63 -4.23,5.12 -4.88,5.30 -5.86,1.60 -5.36,-3.76 -5.34,-4.64 0.02,-0.88 -0.62,-0.55 -1.34,0.03 -2.47,1.98 -4.45,3.14 -5.52,3.62 -0.92,-1.80 -2.26,-2.93 -2.82,-3.34 -6.34,-4.63 -6.87,4.71 -6.67,5.71 0.97,3.97 7.45,1.56 8.46,1.44 1.02,-0.12 0.68,1.22 0.11,2.02 -1.41,1.97 -3.03,3.38 -4.50,4.58 -6.28,5.12 -9.44,4.72 -10.41,4.69 -6.17,-0.17 -5.60,-6.83 -5.26,-8.24 1.86,-1.57 3.45,-3.28 4.38,-5.04 0.38,-0.96 1.03,-3.16 -0.15,-5.91 -0.62,-1.21 -2.56,-4.60 -2.56,-4.60 0.00,0.00 1.43,0.04 1.57,0.04 0.14,0.00 0.41,-0.14 0.06,-0.55 -0.35,-0.40 -3.36,-3.40 -3.54,-3.65 -0.18,-0.24 -0.35,-0.42 -0.45,-0.06 -0.10,0.36 -0.36,1.88 -0.42,2.20 -0.06,0.31 -0.06,0.63 0.10,0.90 0.15,0.27 0.55,1.20 0.84,1.96 0.29,0.76 3.26,6.47 3.53,6.98 0.27,0.51 0.33,0.88 0.06,1.22 -9.53,10.05 -27.91,16.23 -28.50,16.58 -0.59,0.34 -0.43,0.61 0.56,0.43 1.48,-0.26 9.74,-1.64 12.09,-2.77 1.55,-0.75 6.97,-3.41 11.41,-6.89 -0.12,0.90 -0.24,2.22 -0.17,3.89 0.30,8.08 7.53,6.74 9.43,6.33 5.68,-1.25 12.64,-9.11 13.23,-10.68 0.58,-1.56 0.67,-2.98 0.54,-4.22 1.50,-0.81 4.71,-3.40 4.71,-3.40 0.13,3.45 2.88,4.48 3.72,4.63 3.96,0.60 5.94,-2.71 6.78,-3.78 0.72,1.89 2.45,2.26 3.34,2.43 3.41,0.68 4.08,-1.73 4.25,-2.29 1.07,-3.33 -0.86,-5.81 -1.11,-6.08 z M 337.94,31.57 c -2.02,-0.14 -1.85,-0.92 -1.57,-1.22 0.30,-0.33 2.78,-1.89 4.85,0.89 0.00,0.00 -0.86,0.50 -3.28,0.33 z M 307.46,23.91 c 0.00,0.00 1.25,-0.31 1.47,-0.38 0.22,-0.06 0.34,-0.35 -0.05,-0.55 -0.39,-0.20 -4.09,-1.67 -4.37,-1.79 -0.28,-0.11 -0.38,-0.24 -0.41,0.06 -0.02,0.30 -0.07,2.73 -0.07,2.73 0.00,0.00 -0.06,0.17 0.26,0.35 0.32,0.18 0.64,0.58 0.90,0.84 0.26,0.26 3.70,2.98 3.87,3.07 0.00,0.00 -1.72,3.02 -1.94,5.38 -0.22,2.36 0.04,5.63 3.27,4.57 0.87,-0.25 4.49,-1.69 5.30,-4.21 0.26,-0.93 1.01,-2.61 -0.21,-4.31 -0.70,-1.00 -3.53,-2.69 -3.53,-2.69 0.00,0.00 2.17,-3.00 2.38,-3.37 0.21,-0.37 1.00,-2.69 1.09,-3.26 0.09,-0.56 0.13,-0.84 -0.29,-0.32 -0.42,0.52 -4.63,6.05 -4.63,6.05 z M 314.42,32.79 c -1.20,0.99 -3.72,2.29 -4.43,2.36 -0.71,0.07 -2.59,-0.28 -1.77,-2.20 0.28,-0.62 2.16,-3.84 2.16,-3.84 0.70,0.39 5.24,2.70 4.04,3.69 z M 300.51,13.78 c 0.17,-0.04 3.05,-0.49 6.41,-3.05 1.82,-1.38 2.92,-3.74 2.92,-3.74 0.00,0.00 0.91,0.76 1.03,0.91 0.28,0.34 0.43,0.60 0.56,0.23 0.48,-1.33 -0.20,-2.13 -0.84,-2.54 0.00,0.00 0.67,-2.07 -0.56,-4.14 -0.21,-0.35 -1.43,-1.46 -2.85,0.74 -0.55,0.84 -0.96,2.85 -0.17,3.42 0.79,0.58 1.93,1.04 1.93,1.04 -3.66,4.49 -6.16,5.34 -8.30,6.60 -0.55,0.32 -0.44,0.61 -0.12,0.53 z M 308.22,4.39 c -0.47,-0.20 -0.72,-0.50 -0.50,-0.80 0.73,-1.02 1.08,-0.98 1.36,-0.82 0.82,0.77 0.70,2.02 0.67,2.31 0.00,0.00 -1.05,-0.49 -1.52,-0.70 z M 267.14,44.21 c -0.44,0.48 -2.46,2.34 -4.60,2.44 -1.67,-0.12 -1.91,-1.52 -1.48,-2.20 0.43,-0.68 2.06,-2.29 2.35,-2.70 0.29,-0.41 0.53,-1.04 0.53,-1.04 0.15,-0.45 0.22,-0.75 -0.24,-0.77 -0.47,-0.02 -2.11,-0.33 -2.80,0.75 -0.11,0.24 -0.57,1.03 -0.64,1.19 -0.07,0.17 0.00,0.35 0.12,0.22 0.12,-0.13 0.08,-0.80 2.18,-0.77 0.30,0.00 0.41,0.08 0.29,0.24 -0.12,0.16 -2.01,1.79 -2.49,3.96 -0.60,3.16 2.44,2.58 3.07,2.33 0.38,-0.15 2.32,-1.03 3.82,-3.31 0.21,-0.33 0.32,-0.81 -0.12,-0.33 z" />
     </g>
</svg>
