<?xml version="1.0" encoding="UTF-8"?>
<svg version="1.1" id="Layer_1" x="0px" y="0px" width="578" height="55" viewBox="0 0 578 55"
xml:space="preserve" xmlns="http://www.w3.org/2000/svg" xmlns:svg="http://www.w3.org/2000/svg" xmlns:rdf="http://www.w3.org/1999/02/22-rdf-syntax-ns#"  xmlns:cc="http://creativecommons.org/ns#" xmlns:dc="http://purl.org/dc/elements/1.1/">
     <g>
<path d="M 287.32,39.90 c 0.39,3.09 0.69,5.88 0.73,7.37 -0.04,0.46 0.17,0.63 0.38,0.19 0.11,-0.24 0.59,-1.22 0.73,-3.80 0.11,-1.94 -0.04,-4.91 -0.60,-9.01 -0.08,-0.60 -2.95,-21.37 -2.95,-21.37 0.00,0.00 1.55,1.46 1.80,1.72 0.25,0.26 0.55,0.12 0.41,-0.30 -0.14,-0.42 -3.31,-8.09 -3.42,-8.36 -0.10,-0.27 -0.21,-0.46 -0.33,-0.15 -0.13,0.31 -1.08,2.64 -1.08,2.64 0.02,0.14 0.28,1.16 0.33,1.54 0.44,3.36 3.20,23.25 3.99,29.54 z M 285.54,39.79 c -0.16,-0.66 -0.88,-2.42 -3.41,-2.64 -1.37,-0.11 -2.45,0.26 -3.57,0.79 -0.22,-0.50 -0.42,-1.04 -0.58,-1.61 -1.06,-4.04 -3.65,-23.06 -3.65,-23.06 0.00,0.00 1.38,1.24 1.63,1.50 0.25,0.26 0.55,0.12 0.41,-0.30 -0.14,-0.42 -3.15,-7.88 -3.25,-8.14 -0.10,-0.27 -0.20,-0.46 -0.33,-0.15 -0.13,0.31 -1.15,2.55 -1.15,2.55 0.03,0.18 0.27,0.73 0.43,1.87 0.15,0.99 0.34,2.34 0.56,3.85 0.00,0.00 1.56,16.19 4.02,24.46 -0.18,0.09 -0.37,0.19 -0.56,0.28 -1.11,0.54 -7.22,4.40 -12.39,0.56 -0.53,-0.39 -1.69,-1.45 -2.64,-6.12 -0.35,-1.85 -2.97,-18.90 -3.26,-20.59 -0.29,-1.69 -1.21,-6.05 -1.45,-6.71 -0.24,-0.66 -0.33,-0.59 -0.55,0.07 -0.22,0.66 -0.31,2.11 -0.42,2.77 -0.11,0.66 -0.11,1.39 0.04,2.33 0.15,0.95 3.90,24.51 4.07,26.26 0.17,1.75 0.49,4.65 -0.07,5.12 -0.56,0.46 -4.36,2.41 -6.73,0.20 -0.56,-0.53 -1.58,-2.61 -2.57,-8.98 -0.40,-2.44 -2.84,-20.20 -3.17,-22.24 -0.33,-2.05 -1.13,-4.64 -1.30,-5.02 -0.16,-0.38 -0.38,-0.46 -0.50,-0.04 -0.11,0.42 -0.83,1.70 -0.36,4.91 0.47,3.21 2.94,18.63 3.14,20.35 0.20,1.72 0.99,5.87 -0.20,7.10 -0.88,0.91 -6.67,5.68 -13.76,6.67 -2.18,0.26 -12.78,0.71 -7.99,-12.04 0.06,-0.17 0.10,-0.36 0.12,-0.53 0.75,-0.08 1.66,-0.81 2.19,-3.53 0.08,-0.63 0.13,-1.13 0.17,-1.38 0.05,-0.38 -0.21,-0.81 -0.41,0.06 -0.46,1.72 -1.84,2.98 -3.06,0.78 -0.20,-0.44 -1.05,-2.45 0.04,-7.01 0.22,-0.88 0.49,-2.20 0.49,-2.20 0.25,-1.00 -0.15,-1.51 -0.51,-0.29 -0.36,1.22 -1.91,5.46 -1.36,10.32 0.11,1.01 0.75,2.83 1.93,3.19 -0.05,0.09 -0.11,0.20 -0.18,0.33 -0.76,1.52 -5.70,10.07 1.29,14.06 1.85,1.05 5.64,2.57 14.02,-0.83 1.89,-0.77 7.49,-3.53 8.35,-7.13 0.00,0.00 1.09,5.12 3.17,6.93 1.79,1.57 6.35,1.74 7.99,-1.19 0.51,-0.92 0.86,-2.21 0.89,-4.42 0.00,0.00 2.81,4.33 7.79,3.89 1.82,-0.16 4.62,-1.17 7.85,-2.85 0.21,-0.11 0.48,-0.26 0.80,-0.44 0.30,0.68 0.61,1.22 0.94,1.58 0.45,0.52 2.10,3.03 5.31,2.37 0.44,-0.09 2.85,-0.94 1.71,-5.71 z M 283.68,42.43 c -0.78,0.08 -2.13,-0.35 -3.05,-1.22 -0.16,-0.16 -0.37,-0.39 -0.59,-0.69 1.13,-0.27 2.38,-0.21 3.51,0.71 0.36,0.38 0.91,1.12 0.13,1.20 z M 252.52,3.00 c 0.36,-0.39 0.62,-0.79 1.68,-0.76 1.07,0.03 3.62,-0.07 2.66,0.63 -0.95,0.70 -1.60,1.11 -1.60,1.11 -0.62,0.44 -1.16,1.28 -0.07,0.81 1.09,-0.46 2.54,-1.19 3.64,-2.86 0.32,-0.49 0.70,-1.14 -0.80,-1.36 -1.50,-0.22 -3.93,-0.58 -4.71,0.28 -0.79,0.86 -1.03,1.44 -1.26,1.81 -0.32,0.50 0.08,0.73 0.45,0.34 z M 248.40,48.07 c -0.55,0.28 -10.53,4.11 -11.10,4.43 -0.57,0.32 -0.77,0.39 -0.88,0.81 -0.11,0.42 -0.17,0.66 -0.20,0.72 -0.12,0.28 -0.21,0.62 0.63,0.15 0.26,-0.15 10.34,-4.03 10.81,-4.30 0.47,-0.27 0.75,-0.36 0.96,-0.79 0.21,-0.42 0.26,-0.50 0.38,-0.80 0.12,-0.32 0.25,-0.65 -0.60,-0.23 z M 276.07,49.49 c -0.33,0.87 -1.19,1.48 -1.83,0.31 -0.10,-0.23 -0.54,-1.29 0.26,-3.59 0.16,-0.45 0.36,-1.12 0.36,-1.12 0.18,-0.50 -0.04,-0.78 -0.29,-0.16 -0.25,0.62 -1.31,2.74 -1.15,5.25 0.04,0.58 0.42,1.71 1.29,1.74 0.45,0.00 1.03,-0.33 1.45,-1.75 0.07,-0.32 0.12,-0.58 0.15,-0.70 0.04,-0.19 -0.10,-0.42 -0.24,0.02 z M 265.08,14.83 c 0.48,0.00 1.11,-0.35 1.55,-1.87 0.08,-0.34 0.13,-0.62 0.16,-0.75 0.05,-0.21 -0.10,-0.45 -0.26,0.02 -0.35,0.93 -1.27,1.58 -1.96,0.33 -0.11,-0.25 -0.58,-1.38 0.28,-3.85 0.17,-0.48 0.39,-1.20 0.39,-1.20 0.19,-0.54 -0.04,-0.84 -0.31,-0.17 -0.27,0.66 -1.40,2.94 -1.23,5.63 0.04,0.62 0.45,1.83 1.39,1.86 z M 295.04,27.62 c 0.00,0.00 1.25,-0.31 1.47,-0.38 0.22,-0.06 0.34,-0.34 -0.05,-0.55 -0.39,-0.20 -4.09,-1.67 -4.37,-1.79 -0.28,-0.11 -0.38,-0.24 -0.41,0.06 -0.02,0.30 -0.07,2.73 -0.07,2.73 0.00,0.00 -0.06,0.17 0.26,0.35 0.32,0.18 0.64,0.58 0.90,0.84 0.26,0.26 3.70,2.98 3.87,3.07 0.00,0.00 -1.72,3.02 -1.94,5.38 -0.22,2.36 0.04,5.63 3.27,4.57 0.87,-0.25 4.49,-1.69 5.30,-4.21 0.26,-0.93 1.01,-2.61 -0.21,-4.31 -0.70,-1.00 -3.53,-2.69 -3.53,-2.69 0.00,0.00 2.17,-3.00 2.38,-3.37 0.21,-0.37 1.00,-2.69 1.09,-3.26 0.09,-0.56 0.13,-0.84 -0.29,-0.32 -0.42,0.52 -4.63,6.05 -4.63,6.05 z M 301.99,36.50 c -1.20,0.99 -3.72,2.29 -4.43,2.36 -0.71,0.07 -2.59,-0.28 -1.77,-2.21 0.28,-0.62 2.16,-3.84 2.16,-3.84 0.70,0.39 5.24,2.70 4.04,3.69 z M 348.56,18.01 c 0.18,-0.50 -0.04,-0.77 -0.29,-0.16 -0.25,0.61 -1.30,2.73 -1.14,5.22 0.04,0.58 0.42,1.70 1.29,1.73 0.45,0.00 1.03,-0.33 1.44,-1.73 0.07,-0.32 0.12,-0.57 0.15,-0.70 0.04,-0.19 -0.10,-0.42 -0.24,0.02 -0.33,0.86 -1.18,1.47 -1.82,0.31 -0.10,-0.23 -0.53,-1.28 0.26,-3.57 0.16,-0.45 0.36,-1.11 0.36,-1.11 z M 304.76,16.01 c 0.25,-0.16 13.84,-8.02 14.32,-8.31 0.46,-0.29 0.72,-0.41 0.91,-0.85 0.18,-0.44 0.23,-0.51 0.33,-0.82 0.11,-0.32 0.21,-0.67 -0.61,-0.19 -0.53,0.31 -14.04,8.11 -14.59,8.46 -0.55,0.35 -0.74,0.44 -0.83,0.87 -0.09,0.42 -0.13,0.67 -0.16,0.73 -0.10,0.28 -0.17,0.63 0.64,0.10 z M 322.45,23.98 c 0.48,0.00 1.11,-0.35 1.55,-1.88 0.08,-0.34 0.13,-0.62 0.16,-0.75 0.05,-0.21 -0.10,-0.45 -0.26,0.02 -0.35,0.93 -1.27,1.58 -1.96,0.33 -0.11,-0.25 -0.58,-1.38 0.28,-3.86 0.17,-0.48 0.39,-1.20 0.39,-1.20 0.19,-0.54 -0.04,-0.84 -0.31,-0.17 -0.27,0.66 -1.40,2.94 -1.23,5.64 0.04,0.62 0.45,1.83 1.39,1.87 z M 327.96,10.74 c 0.17,0.09 0.36,0.11 0.41,-0.10 0.05,-0.21 0.28,-0.68 0.62,-0.34 0.28,0.28 2.09,1.78 3.03,4.95 0.16,0.42 0.55,0.46 0.64,-0.14 0.22,-1.47 0.34,-4.02 0.45,-4.79 0.16,-1.09 0.68,-3.32 2.06,-2.16 0.31,0.26 0.64,0.61 0.64,0.61 0.29,0.37 0.66,0.79 0.84,0.36 0.27,-0.64 0.49,-1.70 0.19,-2.28 -0.13,-0.26 -1.84,-2.41 -3.00,-0.93 -1.44,1.83 -1.53,4.23 -1.72,6.91 -0.20,-0.56 -1.35,-4.16 -5.02,-6.21 -0.27,-0.15 -0.81,0.13 -0.86,0.98 -0.03,0.49 -0.17,1.69 0.18,2.03 0.35,0.34 1.37,1.01 1.54,1.10 z M 345.80,10.08 c 0.79,0.58 1.94,1.04 1.94,1.04 -3.66,4.48 -10.85,7.67 -12.56,9.01 -0.51,0.39 -0.44,0.61 -0.12,0.53 0.28,-0.08 5.76,-1.61 10.76,-5.90 2.29,-1.97 2.23,-2.11 2.81,-3.31 0.50,0.26 0.84,0.67 1.03,0.91 0.28,0.34 0.43,0.60 0.56,0.23 0.48,-1.33 -0.20,-2.13 -0.84,-2.54 0.00,0.00 0.67,-2.07 -0.56,-4.14 -0.21,-0.35 -1.43,-1.46 -2.85,0.74 -0.55,0.84 -0.96,2.85 -0.17,3.42 z M 346.53,8.05 c 0.73,-1.02 1.08,-0.99 1.36,-0.82 0.82,0.77 0.70,2.03 0.67,2.31 0.00,0.00 -1.05,-0.49 -1.52,-0.70 -0.47,-0.20 -0.72,-0.50 -0.50,-0.80 z M 354.14,28.60 c -0.25,-0.27 -0.37,-0.01 -0.46,0.31 -0.09,0.32 -0.36,1.52 -0.54,2.27 0.00,0.00 0.71,1.16 0.97,1.75 0.25,0.59 -0.12,0.92 -0.86,1.01 -2.08,0.25 -3.73,-0.94 -4.30,-1.48 -0.57,-0.55 0.05,-1.52 0.51,-2.68 0.37,-0.93 -0.32,-1.04 -0.84,0.00 -1.76,4.63 -4.23,5.12 -4.88,5.30 -5.86,1.60 -5.36,-3.76 -5.34,-4.64 0.02,-0.88 -0.62,-0.55 -1.34,0.03 -2.47,1.98 -4.45,3.14 -5.52,3.62 -0.92,-1.80 -2.26,-2.93 -2.82,-3.34 -6.34,-4.63 -6.87,4.71 -6.67,5.71 0.97,3.97 7.45,1.56 8.46,1.44 1.02,-0.12 0.68,1.22 0.11,2.02 -1.41,1.97 -3.03,3.38 -4.50,4.58 -6.28,5.12 -9.44,4.72 -10.41,4.69 -6.17,-0.17 -5.60,-6.82 -5.26,-8.24 1.86,-1.57 3.45,-3.28 4.38,-5.04 0.38,-0.96 1.03,-3.16 -0.15,-5.91 -0.62,-1.21 -2.56,-4.60 -2.56,-4.60 0.00,0.00 1.43,0.04 1.57,0.04 0.14,0.00 0.41,-0.14 0.06,-0.54 -0.35,-0.40 -3.36,-3.41 -3.54,-3.65 -0.18,-0.24 -0.35,-0.41 -0.45,-0.06 -0.10,0.36 -0.36,1.88 -0.42,2.20 -0.06,0.31 -0.06,0.63 0.10,0.90 0.15,0.27 0.55,1.20 0.84,1.96 0.29,0.76 3.25,6.47 3.53,6.98 0.27,0.51 0.33,0.88 0.06,1.22 -9.53,10.05 -27.91,16.23 -28.50,16.58 -0.59,0.34 -0.43,0.61 0.56,0.43 1.48,-0.26 9.74,-1.64 12.09,-2.77 1.55,-0.75 6.97,-3.41 11.41,-6.89 -0.12,0.90 -0.24,2.22 -0.17,3.89 0.30,8.08 7.53,6.74 9.43,6.33 5.68,-1.25 12.64,-9.11 13.23,-10.69 0.58,-1.56 0.67,-2.98 0.54,-4.22 1.50,-0.81 4.71,-3.40 4.71,-3.40 0.13,3.45 2.88,4.48 3.72,4.63 3.96,0.60 5.94,-2.71 6.78,-3.78 0.72,1.89 2.45,2.26 3.34,2.43 3.41,0.68 4.08,-1.73 4.26,-2.29 1.07,-3.33 -0.86,-5.81 -1.11,-6.08 z M 325.51,35.28 c -2.02,-0.14 -1.85,-0.92 -1.57,-1.22 0.30,-0.33 2.78,-1.89 4.85,0.89 0.00,0.00 -0.86,0.50 -3.28,0.33 z M 350.94,40.92 c -0.24,0.68 -0.34,1.12 -0.31,1.38 0.03,0.26 0.12,1.10 0.12,1.10 -0.25,0.20 -1.33,0.87 -2.40,0.08 0.07,-0.23 0.21,-0.70 0.24,-0.95 0.12,-0.40 -0.13,-0.69 -0.32,-0.28 -0.20,0.41 -0.65,1.79 -0.99,2.10 -0.34,0.31 -0.73,1.45 -3.30,0.29 -0.45,-0.17 -1.24,-0.75 -2.46,0.48 -2.77,2.57 -4.68,2.78 -7.79,3.88 -0.38,0.17 -1.16,0.77 -0.23,0.67 0.94,-0.09 4.87,0.00 7.01,-2.46 0.45,-0.43 0.96,-1.58 2.66,-0.92 0.94,0.36 2.68,1.85 4.58,-1.10 1.12,0.75 2.82,0.45 3.09,-0.38 0.27,-0.82 0.58,-1.64 0.58,-2.20 0.00,-0.56 -0.05,-1.30 -0.05,-1.30 -0.04,-0.44 -0.19,-1.07 -0.44,-0.40 z M 295.66,17.87 c -0.06,-0.05 -0.15,-0.03 -0.20,0.04 -1.53,2.10 -1.53,2.10 -1.53,2.10 -0.05,0.07 -0.04,0.16 0.03,0.20 2.61,1.91 2.61,1.91 2.61,1.91 0.06,0.05 0.15,0.03 0.20,-0.04 1.32,-1.81 1.32,-1.81 1.32,-1.81 2.54,1.85 2.54,1.85 2.54,1.85 0.06,0.05 0.15,0.03 0.20,-0.04 1.53,-2.10 1.53,-2.10 1.53,-2.10 0.05,-0.07 0.04,-0.16 -0.03,-0.20 -2.61,-1.91 -2.61,-1.91 -2.61,-1.91 -0.06,-0.05 -0.15,-0.03 -0.20,0.04 -1.32,1.81 -1.32,1.81 -1.32,1.81 z M 288.08,17.49 c 0.17,-0.04 3.05,-0.49 6.41,-3.05 1.82,-1.38 2.92,-3.74 2.92,-3.74 0.00,0.00 0.91,0.76 1.03,0.91 0.28,0.34 0.43,0.60 0.56,0.23 0.48,-1.33 -0.20,-2.13 -0.84,-2.54 0.00,0.00 0.67,-2.07 -0.56,-4.14 -0.21,-0.35 -1.43,-1.46 -2.85,0.74 -0.55,0.84 -0.96,2.85 -0.17,3.42 0.79,0.58 1.93,1.04 1.93,1.04 -3.66,4.48 -6.16,5.34 -8.30,6.59 -0.55,0.32 -0.44,0.61 -0.12,0.53 z M 295.80,8.09 c -0.47,-0.20 -0.72,-0.50 -0.50,-0.80 0.73,-1.02 1.08,-0.98 1.36,-0.82 0.82,0.77 0.70,2.03 0.67,2.31 0.00,0.00 -1.05,-0.49 -1.52,-0.70 z M 231.52,12.17 c 0.17,0.10 0.35,0.11 0.40,-0.10 0.05,-0.21 0.28,-0.68 0.61,-0.34 0.24,0.24 2.17,1.94 2.76,4.27 0.49,2.02 -4.48,6.10 -4.74,6.29 -0.47,0.33 -0.32,0.55 -0.10,0.43 0.22,-0.12 0.43,-0.15 2.98,-1.83 2.06,-1.36 2.49,-2.93 2.66,-4.14 0.02,-0.06 0.04,-0.13 0.05,-0.21 0.21,-1.47 0.33,-4.02 0.44,-4.79 0.16,-1.09 0.67,-3.33 2.03,-2.16 0.31,0.26 0.63,0.61 0.63,0.61 0.29,0.37 0.65,0.79 0.82,0.36 0.27,-0.64 0.48,-1.70 0.19,-2.28 -0.13,-0.25 -1.81,-2.41 -2.95,-0.93 -1.42,1.83 -1.51,4.23 -1.70,6.91 -0.20,-0.56 -1.33,-4.16 -4.95,-6.21 -0.26,-0.15 -0.80,0.13 -0.85,0.98 -0.03,0.49 -0.17,1.69 0.17,2.03 0.34,0.34 1.35,1.01 1.52,1.10 z M 262.25,30.79 c 5.90,-2.43 8.00,-7.23 8.00,-7.23 0.00,0.00 0.81,0.72 0.92,0.86 0.24,0.32 0.38,0.56 0.50,0.23 0.47,-1.20 -0.13,-1.95 -0.71,-2.35 0.00,0.00 0.67,-1.88 -0.41,-3.81 -0.18,-0.32 -1.27,-1.37 -2.63,0.60 -0.52,0.75 -0.95,2.58 -0.25,3.13 0.70,0.55 1.74,1.00 1.74,1.00 -2.04,3.16 -5.14,5.76 -7.06,7.08 -0.48,0.33 -0.40,0.60 -0.12,0.48 z M 268.84,21.14 c -0.43,-0.20 -0.64,-0.48 -0.44,-0.74 0.69,-0.92 1.02,-0.87 1.26,-0.71 0.73,0.72 0.59,1.87 0.55,2.13 0.00,0.00 -0.95,-0.48 -1.38,-0.68 z M 237.05,27.59 c 1.10,-1.26 1.82,-1.10 2.34,-1.04 0.52,0.06 0.56,-0.24 0.64,-0.68 0.08,-0.44 0.66,-2.20 -0.40,-2.32 -1.11,-0.13 -2.10,0.24 -3.16,2.54 -1.06,2.30 -2.06,5.54 -0.06,5.62 1.05,0.04 2.07,0.03 2.70,0.09 0.59,0.06 0.81,0.57 0.52,0.99 -0.60,0.88 -2.68,1.54 -4.20,1.44 -1.32,-0.08 -2.15,0.05 -1.60,0.50 0.54,0.44 1.64,0.82 3.22,0.96 1.10,0.09 2.55,-0.27 3.04,-1.16 1.06,-1.93 1.72,-5.43 -0.26,-5.48 -2.50,-0.06 -3.88,-0.20 -2.78,-1.46 z" />
     </g>
</svg>
