<?xml version="1.0" encoding="UTF-8"?>
<svg version="1.1" id="Layer_1" x="0px" y="0px" width="578" height="56" viewBox="0 0 578 56"
xml:space="preserve" xmlns="http://www.w3.org/2000/svg" xmlns:svg="http://www.w3.org/2000/svg" xmlns:rdf="http://www.w3.org/1999/02/22-rdf-syntax-ns#"  xmlns:cc="http://creativecommons.org/ns#" xmlns:dc="http://purl.org/dc/elements/1.1/">
     <g>
<path d="M 287.90,33.06 c -0.06,-0.60 -2.03,-21.48 -2.03,-21.48 0.00,0.00 1.48,1.52 1.72,1.80 0.24,0.27 0.55,0.15 0.42,-0.28 -0.12,-0.43 -2.96,-8.23 -3.06,-8.50 -0.09,-0.27 -0.18,-0.47 -0.33,-0.17 -0.14,0.30 -1.19,2.59 -1.19,2.59 0.02,0.14 0.23,1.17 0.27,1.55 0.30,3.38 2.19,23.37 2.71,29.68 0.26,3.11 0.44,5.90 0.42,7.40 -0.06,0.46 0.14,0.64 0.37,0.21 0.13,-0.23 0.64,-1.20 0.90,-3.77 0.19,-1.93 0.17,-4.91 -0.21,-9.03 z M 280.37,30.02 c -2.43,-19.67 -2.43,-19.67 -2.43,-19.67 0.00,0.00 1.49,1.52 1.72,1.79 0.24,0.27 0.54,0.15 0.42,-0.28 -0.12,-0.43 -2.62,-7.33 -2.71,-7.60 -0.09,-0.27 -0.19,-0.47 -0.33,-0.17 -0.14,0.30 -1.26,2.50 -1.26,2.50 0.02,0.18 0.23,0.75 0.35,1.88 0.11,1.11 0.27,2.67 0.45,4.40 0.16,1.65 2.40,20.48 2.40,21.40 0.00,0.92 0.10,1.36 -0.35,1.79 -0.45,0.42 -3.51,2.27 -6.32,1.82 -0.68,-0.11 -2.26,-0.39 -3.56,-1.91 1.44,-1.20 2.97,-2.76 3.23,-3.92 0.30,-1.35 0.96,-2.81 -0.92,-6.37 -0.73,-0.99 -1.20,-1.61 -2.64,-1.29 -1.44,0.32 -2.32,1.28 -2.80,3.30 -0.35,1.46 -0.87,4.01 0.21,7.20 -0.11,0.06 -0.21,0.12 -0.32,0.17 -0.88,0.49 -9.90,4.76 -15.97,2.56 -1.61,-0.64 -5.41,-1.74 -6.38,-8.01 -0.20,-1.41 -1.28,-15.29 -1.28,-15.29 0.00,0.00 -0.81,-7.57 -0.88,-8.05 -0.07,-0.48 -0.20,-1.06 -0.66,-0.20 -0.46,0.86 -0.81,2.86 -0.75,3.98 0.07,1.12 1.36,18.95 1.40,20.31 0.03,1.35 0.23,11.32 1.19,12.84 -0.69,0.07 -6.04,1.09 -9.90,3.56 -1.39,0.86 -7.42,4.46 -8.55,4.82 -0.90,0.29 -3.24,0.93 -4.57,-0.63 -0.32,-0.38 -1.36,-1.76 0.12,-5.35 0.71,-1.63 1.88,-3.59 3.69,-5.57 0.19,-0.17 0.28,-0.38 0.30,-0.56 0.28,0.22 0.61,0.35 0.98,0.34 0.76,-0.04 1.71,-0.74 2.25,-3.53 0.08,-0.63 0.13,-1.13 0.17,-1.38 0.05,-0.38 -0.21,-0.81 -0.41,0.06 -0.46,1.72 -1.84,2.98 -3.06,0.78 -0.20,-0.44 -1.05,-2.45 0.04,-7.01 0.22,-0.89 0.49,-2.20 0.49,-2.20 0.25,-1.00 -0.15,-1.51 -0.51,-0.29 -0.36,1.22 -1.91,5.46 -1.36,10.32 0.08,0.69 0.40,1.77 0.98,2.49 -0.13,0.04 -0.29,0.13 -0.47,0.32 -0.58,0.63 -2.14,2.53 -3.22,4.47 -1.07,1.93 -1.43,3.99 -1.55,5.31 -0.25,2.92 1.35,6.34 5.26,5.73 3.10,-0.50 9.01,-4.82 10.76,-5.71 1.75,-0.89 9.87,-5.35 15.97,-0.30 0.26,-0.82 0.53,-2.90 0.40,-3.53 0.00,0.00 -4.22,-2.47 -4.82,-2.90 -0.59,-0.43 -2.84,-1.91 -2.80,-7.19 0.00,0.00 2.24,6.12 10.20,6.27 1.65,0.03 7.03,-0.13 13.83,-3.86 0.15,-0.08 0.33,-0.19 0.54,-0.33 0.27,0.48 0.58,0.96 0.94,1.46 0.46,0.68 3.10,4.11 8.81,1.64 0.79,-0.34 3.09,-1.12 3.44,-3.82 0.16,-1.11 0.46,-4.37 0.21,-6.60 z M 267.55,33.85 c -0.17,-0.44 -0.31,-0.93 -0.43,-1.47 -0.45,-1.57 -0.85,-3.18 -0.40,-3.65 0.45,-0.47 1.12,-1.21 2.04,-1.02 0.91,0.19 1.04,0.89 1.50,1.82 0.47,0.93 0.81,1.44 0.53,1.72 -0.20,0.20 -1.47,1.39 -3.23,2.59 z M 246.51,24.29 c 0.67,0.15 1.04,0.56 1.20,0.80 0.07,0.10 0.18,0.04 0.22,-0.03 0.86,-1.48 0.21,-2.48 -1.08,-2.93 -0.52,-0.18 -0.71,-0.92 1.29,-2.05 1.84,-1.05 23.24,-10.19 23.66,-10.45 0.55,-0.34 0.89,-0.47 1.12,-0.99 0.24,-0.52 0.30,-0.62 0.42,-0.98 0.14,-0.39 0.28,-0.80 -0.73,-0.25 -0.53,0.29 -23.70,10.06 -25.24,11.18 -0.78,0.56 -1.45,1.48 -1.72,2.50 -0.39,1.48 -0.10,2.98 0.86,3.19 z M 227.90,14.00 c 0.67,0.15 1.04,0.56 1.20,0.80 0.07,0.10 0.18,0.04 0.22,-0.03 0.85,-1.48 0.21,-2.48 -1.08,-2.93 -0.52,-0.18 -0.71,-0.92 1.29,-2.05 1.84,-1.05 15.04,-6.77 15.45,-7.02 0.55,-0.34 0.89,-0.47 1.12,-0.99 0.24,-0.52 0.30,-0.62 0.42,-0.98 0.14,-0.39 0.28,-0.80 -0.73,-0.25 -0.53,0.29 -15.49,6.64 -17.03,7.75 -0.78,0.56 -1.45,1.48 -1.72,2.50 -0.39,1.48 -0.10,2.98 0.86,3.19 z M 269.36,18.35 c -1.32,1.81 -1.32,1.81 -1.32,1.81 -2.54,-1.85 -2.54,-1.85 -2.54,-1.85 -0.06,-0.05 -0.15,-0.03 -0.20,0.04 -1.53,2.10 -1.53,2.10 -1.53,2.10 -0.05,0.07 -0.04,0.16 0.03,0.20 2.61,1.91 2.61,1.91 2.61,1.91 0.06,0.05 0.15,0.03 0.20,-0.04 1.32,-1.81 1.32,-1.81 1.32,-1.81 2.54,1.85 2.54,1.85 2.54,1.85 0.06,0.05 0.15,0.03 0.20,-0.04 1.53,-2.10 1.53,-2.10 1.53,-2.10 0.05,-0.07 0.04,-0.16 -0.03,-0.20 -2.61,-1.91 -2.61,-1.91 -2.61,-1.91 -0.06,-0.05 -0.15,-0.03 -0.20,0.04 z M 237.20,20.68 c -0.12,-0.24 -1.75,-2.30 -2.85,-0.89 -1.37,1.74 -1.46,4.03 -1.64,6.58 -0.19,-0.53 -1.29,-3.95 -4.78,-5.91 -0.25,-0.14 -0.77,0.13 -0.82,0.93 -0.03,0.47 -0.16,1.61 0.17,1.93 0.33,0.32 1.31,0.96 1.47,1.05 0.16,0.09 0.34,0.10 0.39,-0.09 0.05,-0.19 0.27,-0.65 0.59,-0.32 0.27,0.27 1.99,1.69 2.88,4.71 0.15,0.40 0.53,0.44 0.61,-0.13 0.21,-1.40 0.32,-3.82 0.43,-4.56 0.16,-1.03 0.65,-3.16 1.96,-2.06 0.30,0.25 0.61,0.58 0.61,0.58 0.28,0.35 0.63,0.75 0.80,0.34 0.26,-0.61 0.46,-1.62 0.18,-2.17 z M 257.18,25.86 c -1.37,1.74 -1.46,4.03 -1.64,6.58 -0.19,-0.53 -1.29,-3.95 -4.78,-5.91 -0.25,-0.14 -0.77,0.13 -0.82,0.93 -0.03,0.47 -0.16,1.61 0.17,1.93 0.33,0.32 1.31,0.96 1.47,1.05 0.16,0.09 0.34,0.10 0.39,-0.09 0.05,-0.19 0.27,-0.65 0.59,-0.32 0.27,0.27 1.99,1.69 2.88,4.71 0.15,0.40 0.53,0.44 0.61,-0.13 0.21,-1.40 0.32,-3.82 0.43,-4.56 0.16,-1.03 0.65,-3.16 1.96,-2.06 0.30,0.25 0.61,0.58 0.61,0.58 0.28,0.35 0.63,0.75 0.80,0.35 0.26,-0.61 0.46,-1.62 0.18,-2.17 -0.12,-0.24 -1.75,-2.29 -2.85,-0.89 z M 245.54,49.48 c -0.55,0.28 -9.76,3.43 -10.33,3.75 -0.57,0.32 -0.77,0.40 -0.88,0.81 -0.11,0.41 -0.17,0.66 -0.20,0.72 -0.12,0.28 -0.21,0.62 0.63,0.14 0.26,-0.15 9.58,-3.35 10.05,-3.62 0.47,-0.27 0.75,-0.36 0.96,-0.79 0.21,-0.42 0.26,-0.50 0.38,-0.80 0.13,-0.32 0.25,-0.65 -0.60,-0.23 z M 282.39,43.05 c -0.42,-0.11 -1.03,0.05 -1.76,1.26 -0.14,0.28 -0.25,0.50 -0.31,0.61 -0.09,0.17 -0.01,0.41 0.23,0.04 0.52,-0.72 1.45,-1.07 1.76,0.16 0.04,0.24 0.18,1.31 -1.11,3.25 -0.26,0.37 -0.60,0.94 -0.60,0.94 -0.29,0.42 -0.16,0.73 0.23,0.22 0.38,-0.51 1.87,-2.21 2.33,-4.56 0.11,-0.54 0.03,-1.67 -0.77,-1.91 z M 263.81,44.68 c -0.40,-0.15 -1.03,-0.04 -1.86,1.09 -0.17,0.26 -0.29,0.48 -0.36,0.58 -0.10,0.16 -0.05,0.41 0.22,0.06 0.58,-0.67 1.54,-0.94 1.74,0.31 0.02,0.24 0.06,1.33 -1.40,3.13 -0.29,0.35 -0.69,0.88 -0.69,0.88 -0.32,0.39 -0.22,0.71 0.21,0.24 0.43,-0.47 2.06,-2.03 2.73,-4.33 0.15,-0.53 0.18,-1.67 -0.60,-1.98 z M 253.14,11.86 c 0.43,0.00 0.98,-0.31 1.38,-1.66 0.07,-0.31 0.11,-0.55 0.14,-0.67 0.04,-0.18 -0.09,-0.40 -0.23,0.02 -0.31,0.83 -1.13,1.41 -1.74,0.30 -0.10,-0.22 -0.51,-1.22 0.25,-3.42 0.15,-0.43 0.35,-1.06 0.35,-1.06 0.17,-0.48 -0.03,-0.74 -0.28,-0.15 -0.24,0.59 -1.25,2.61 -1.09,5.00 0.04,0.55 0.40,1.63 1.23,1.66 z M 234.75,32.01 c 0.21,-0.64 -0.10,-0.96 -0.40,-0.18 -0.30,0.78 -1.59,3.50 -1.19,6.59 0.09,0.71 0.69,2.08 1.88,2.05 0.61,-0.04 1.38,-0.49 1.85,-2.28 0.07,-0.40 0.12,-0.72 0.15,-0.88 0.05,-0.24 -0.16,-0.51 -0.33,0.04 -0.39,1.10 -1.51,1.92 -2.47,0.53 -0.16,-0.28 -0.82,-1.55 0.10,-4.47 0.19,-0.57 0.41,-1.41 0.41,-1.41 z M 350.91,17.89 c 0.18,-0.50 -0.04,-0.77 -0.29,-0.16 -0.25,0.61 -1.30,2.73 -1.14,5.22 0.04,0.58 0.42,1.70 1.29,1.73 0.45,0.00 1.03,-0.33 1.44,-1.73 0.07,-0.32 0.12,-0.57 0.15,-0.70 0.04,-0.19 -0.10,-0.42 -0.24,0.02 -0.33,0.86 -1.18,1.47 -1.82,0.31 -0.10,-0.23 -0.53,-1.28 0.26,-3.57 0.16,-0.44 0.36,-1.11 0.36,-1.11 z M 330.31,10.62 c 0.17,0.10 0.36,0.11 0.41,-0.10 0.05,-0.21 0.29,-0.68 0.62,-0.34 0.28,0.28 2.09,1.78 3.03,4.95 0.16,0.42 0.55,0.46 0.64,-0.14 0.22,-1.47 0.34,-4.02 0.45,-4.79 0.16,-1.09 0.68,-3.32 2.06,-2.16 0.31,0.26 0.64,0.61 0.64,0.61 0.29,0.37 0.66,0.79 0.84,0.36 0.27,-0.64 0.49,-1.70 0.19,-2.28 -0.13,-0.25 -1.84,-2.41 -3.00,-0.93 -1.44,1.83 -1.53,4.23 -1.72,6.91 -0.20,-0.56 -1.35,-4.15 -5.02,-6.21 -0.27,-0.15 -0.81,0.13 -0.86,0.98 -0.03,0.49 -0.17,1.69 0.18,2.03 0.35,0.34 1.37,1.01 1.54,1.10 z M 348.15,9.96 c 0.79,0.58 1.93,1.04 1.93,1.04 -3.66,4.49 -10.84,7.67 -12.55,9.01 -0.51,0.39 -0.44,0.61 -0.12,0.53 0.29,-0.08 5.76,-1.61 10.76,-5.90 2.29,-1.97 2.23,-2.11 2.82,-3.30 0.50,0.26 0.84,0.67 1.03,0.91 0.28,0.34 0.43,0.60 0.56,0.23 0.48,-1.33 -0.20,-2.13 -0.84,-2.54 0.00,0.00 0.67,-2.07 -0.56,-4.14 -0.21,-0.35 -1.43,-1.46 -2.85,0.74 -0.55,0.84 -0.96,2.85 -0.17,3.42 z M 348.88,7.93 c 0.73,-1.02 1.08,-0.99 1.36,-0.82 0.82,0.77 0.70,2.03 0.67,2.31 0.00,0.00 -1.05,-0.49 -1.52,-0.69 -0.47,-0.20 -0.72,-0.50 -0.50,-0.80 z M 356.49,28.49 c -0.25,-0.28 -0.38,-0.01 -0.46,0.31 -0.09,0.32 -0.36,1.52 -0.53,2.27 0.00,0.00 0.71,1.16 0.97,1.75 0.25,0.59 -0.12,0.92 -0.86,1.01 -2.08,0.25 -3.73,-0.94 -4.30,-1.48 -0.57,-0.55 0.05,-1.52 0.51,-2.68 0.37,-0.93 -0.32,-1.04 -0.84,0.00 -1.76,4.63 -4.23,5.12 -4.88,5.30 -5.86,1.60 -5.36,-3.76 -5.34,-4.64 0.02,-0.88 -0.62,-0.55 -1.34,0.03 -2.47,1.98 -4.45,3.14 -5.52,3.62 -0.92,-1.80 -2.26,-2.93 -2.82,-3.34 -6.34,-4.63 -6.86,4.71 -6.67,5.71 0.97,3.97 7.44,1.56 8.46,1.44 1.01,-0.12 0.68,1.22 0.11,2.02 -1.41,1.97 -3.03,3.38 -4.50,4.58 -6.28,5.12 -9.43,4.72 -10.41,4.69 -6.17,-0.17 -5.60,-6.82 -5.26,-8.24 1.86,-1.57 3.45,-3.28 4.38,-5.04 0.38,-0.96 1.03,-3.16 -0.15,-5.91 -0.62,-1.21 -2.56,-4.60 -2.56,-4.60 0.00,0.00 1.43,0.04 1.57,0.04 0.14,0.00 0.41,-0.14 0.06,-0.54 -0.35,-0.40 -3.36,-3.40 -3.54,-3.65 -0.18,-0.24 -0.35,-0.41 -0.45,-0.06 -0.10,0.35 -0.36,1.88 -0.42,2.20 -0.06,0.31 -0.06,0.63 0.10,0.90 0.15,0.27 0.55,1.20 0.84,1.96 0.29,0.76 3.26,6.47 3.53,6.98 0.27,0.51 0.33,0.88 0.06,1.22 -9.53,10.05 -27.91,16.23 -28.50,16.57 -0.59,0.34 -0.43,0.61 0.56,0.43 1.48,-0.26 9.74,-1.64 12.09,-2.77 1.55,-0.75 6.98,-3.41 11.41,-6.89 -0.12,0.90 -0.24,2.22 -0.18,3.89 0.30,8.08 7.53,6.74 9.43,6.33 5.68,-1.25 12.64,-9.11 13.23,-10.69 0.58,-1.56 0.67,-2.98 0.54,-4.22 1.50,-0.81 4.71,-3.40 4.71,-3.40 0.13,3.45 2.88,4.48 3.72,4.63 3.96,0.60 5.94,-2.71 6.78,-3.78 0.72,1.89 2.45,2.25 3.34,2.43 3.41,0.68 4.08,-1.73 4.26,-2.29 1.07,-3.33 -0.86,-5.81 -1.11,-6.08 z M 327.85,35.16 c -2.03,-0.14 -1.85,-0.92 -1.57,-1.22 0.30,-0.33 2.78,-1.89 4.85,0.89 0.00,0.00 -0.86,0.50 -3.28,0.33 z M 324.80,23.87 c 0.48,0.00 1.11,-0.35 1.55,-1.87 0.08,-0.34 0.13,-0.62 0.16,-0.75 0.05,-0.21 -0.10,-0.45 -0.26,0.02 -0.35,0.93 -1.27,1.58 -1.96,0.33 -0.11,-0.25 -0.58,-1.38 0.28,-3.86 0.17,-0.48 0.39,-1.20 0.39,-1.20 0.19,-0.54 -0.04,-0.84 -0.31,-0.17 -0.27,0.66 -1.40,2.94 -1.23,5.63 0.04,0.62 0.45,1.83 1.39,1.87 z M 307.11,15.89 c 0.25,-0.16 13.84,-8.02 14.32,-8.31 0.46,-0.29 0.72,-0.41 0.91,-0.85 0.18,-0.44 0.23,-0.52 0.33,-0.82 0.10,-0.32 0.21,-0.67 -0.61,-0.19 -0.53,0.31 -14.04,8.11 -14.59,8.46 -0.55,0.35 -0.74,0.44 -0.83,0.87 -0.09,0.42 -0.13,0.67 -0.16,0.73 -0.10,0.28 -0.17,0.63 0.64,0.10 z M 298.01,17.76 c -0.06,-0.05 -0.15,-0.03 -0.20,0.04 -1.53,2.10 -1.53,2.10 -1.53,2.10 -0.05,0.07 -0.04,0.16 0.03,0.20 2.61,1.91 2.61,1.91 2.61,1.91 0.06,0.05 0.15,0.03 0.20,-0.04 1.32,-1.81 1.32,-1.81 1.32,-1.81 2.54,1.85 2.54,1.85 2.54,1.85 0.06,0.05 0.15,0.03 0.20,-0.04 1.53,-2.10 1.53,-2.10 1.53,-2.10 0.05,-0.07 0.04,-0.16 -0.03,-0.20 -2.61,-1.91 -2.61,-1.91 -2.61,-1.91 -0.06,-0.05 -0.15,-0.03 -0.20,0.04 -1.32,1.81 -1.32,1.81 -1.32,1.81 z M 290.43,17.37 c 0.17,-0.04 3.05,-0.49 6.41,-3.05 1.82,-1.38 2.92,-3.74 2.92,-3.74 0.00,0.00 0.91,0.76 1.03,0.91 0.28,0.34 0.43,0.60 0.56,0.23 0.48,-1.33 -0.20,-2.13 -0.84,-2.54 0.00,0.00 0.67,-2.07 -0.56,-4.14 -0.21,-0.35 -1.43,-1.46 -2.85,0.74 -0.55,0.84 -0.96,2.85 -0.17,3.42 0.79,0.58 1.93,1.04 1.93,1.04 -3.66,4.49 -6.16,5.34 -8.30,6.60 -0.55,0.32 -0.44,0.61 -0.12,0.53 z M 298.14,7.98 c -0.47,-0.20 -0.72,-0.50 -0.50,-0.80 0.73,-1.02 1.08,-0.99 1.36,-0.82 0.83,0.77 0.70,2.02 0.67,2.31 0.00,0.00 -1.05,-0.49 -1.52,-0.69 z M 353.28,40.80 c -0.24,0.68 -0.34,1.12 -0.32,1.38 0.03,0.26 0.12,1.10 0.12,1.10 -0.25,0.20 -1.33,0.87 -2.40,0.08 0.07,-0.23 0.21,-0.70 0.24,-0.95 0.12,-0.40 -0.13,-0.69 -0.32,-0.28 -0.20,0.41 -0.65,1.79 -0.99,2.10 -0.34,0.31 -0.73,1.45 -3.30,0.29 -0.45,-0.17 -1.23,-0.75 -2.46,0.48 -2.77,2.57 -4.68,2.78 -7.79,3.88 -0.38,0.17 -1.16,0.77 -0.23,0.67 0.94,-0.09 4.87,0.00 7.01,-2.46 0.45,-0.43 0.96,-1.58 2.66,-0.92 0.94,0.36 2.68,1.85 4.58,-1.10 1.12,0.75 2.82,0.45 3.09,-0.38 0.27,-0.82 0.58,-1.64 0.58,-2.20 0.00,-0.56 -0.05,-1.30 -0.05,-1.30 -0.04,-0.44 -0.19,-1.07 -0.44,-0.40 z M 297.38,27.50 c 0.00,0.00 1.25,-0.31 1.47,-0.38 0.22,-0.06 0.34,-0.35 -0.05,-0.55 -0.39,-0.20 -4.09,-1.67 -4.37,-1.79 -0.28,-0.11 -0.38,-0.24 -0.41,0.06 -0.02,0.30 -0.07,2.73 -0.07,2.73 0.00,0.00 -0.06,0.17 0.27,0.35 0.32,0.18 0.64,0.58 0.90,0.84 0.26,0.26 3.70,2.98 3.87,3.07 0.00,0.00 -1.72,3.02 -1.94,5.38 -0.22,2.36 0.04,5.63 3.27,4.57 0.87,-0.25 4.49,-1.69 5.30,-4.21 0.26,-0.93 1.01,-2.61 -0.21,-4.31 -0.70,-1.00 -3.53,-2.69 -3.53,-2.69 0.00,0.00 2.17,-3.00 2.38,-3.37 0.21,-0.37 1.00,-2.69 1.09,-3.25 0.09,-0.56 0.13,-0.84 -0.29,-0.32 -0.42,0.52 -4.63,6.05 -4.63,6.05 z M 304.34,36.39 c -1.20,0.99 -3.72,2.29 -4.43,2.36 -0.71,0.07 -2.59,-0.28 -1.77,-2.20 0.28,-0.62 2.16,-3.84 2.16,-3.84 0.70,0.39 5.24,2.70 4.04,3.69 z" />
     </g>
</svg>
