<?xml version="1.0" encoding="UTF-8"?>
<svg version="1.1" id="Layer_1" x="0px" y="0px" width="578" height="50" viewBox="0 0 578 50"
xml:space="preserve" xmlns="http://www.w3.org/2000/svg" xmlns:svg="http://www.w3.org/2000/svg" xmlns:rdf="http://www.w3.org/1999/02/22-rdf-syntax-ns#"  xmlns:cc="http://creativecommons.org/ns#" xmlns:dc="http://purl.org/dc/elements/1.1/">
     <g>
<path d="M 293.34,43.49 c 0.11,-0.24 0.59,-1.22 0.73,-3.80 0.04,-0.67 0.04,-1.48 0.01,-2.41 1.94,-0.30 3.95,-0.31 5.85,0.23 0.53,-0.79 1.54,-3.26 1.54,-3.26 -0.73,0.02 -3.97,-0.18 -7.63,-0.46 -0.09,-0.96 -0.22,-2.00 -0.37,-3.12 -0.08,-0.60 -2.95,-21.37 -2.95,-21.37 0.00,0.00 1.55,1.45 1.80,1.72 0.25,0.26 0.55,0.12 0.41,-0.30 -0.14,-0.42 -3.31,-8.10 -3.42,-8.36 -0.10,-0.27 -0.20,-0.46 -0.33,-0.15 -0.13,0.31 -1.08,2.64 -1.08,2.64 0.02,0.14 0.28,1.15 0.33,1.54 0.40,3.03 2.67,19.42 3.69,27.26 -4.38,-0.36 -8.84,-0.80 -10.00,-1.11 0.39,-0.63 1.02,-2.68 0.71,-4.88 -0.31,-2.20 -3.15,-18.35 -3.15,-18.35 0.00,0.00 1.55,1.45 1.80,1.72 0.25,0.26 0.55,0.12 0.41,-0.30 -0.14,-0.42 -3.31,-8.09 -3.42,-8.36 -0.10,-0.27 -0.20,-0.46 -0.33,-0.15 -0.13,0.31 -1.15,2.55 -1.15,2.55 0.03,0.18 0.27,0.73 0.43,1.87 0.17,1.18 1.64,9.93 2.55,15.51 0.00,0.00 1.44,7.58 1.14,8.81 -0.11,0.30 -6.38,0.75 -8.15,1.12 -0.45,0.16 -0.61,0.25 -0.89,0.62 -0.27,0.36 -0.89,1.55 -1.05,2.07 -0.16,0.52 0.21,0.73 0.50,0.57 0.30,-0.16 1.76,-1.34 15.49,1.47 -1.22,0.66 -12.81,6.47 -20.20,6.30 -1.45,-0.03 -9.34,-0.07 -10.59,-9.77 -0.19,-1.49 -1.75,-15.31 -1.98,-17.59 -0.23,-2.28 -1.39,-10.17 -2.31,-12.84 -0.30,-1.02 -0.50,-0.79 -0.79,-0.30 -0.30,0.49 -0.36,1.22 -0.56,1.75 -0.20,0.53 -0.13,0.82 0.00,1.42 0.13,0.59 1.97,11.77 2.72,17.49 0.22,2.24 1.36,12.58 2.29,15.75 0.75,2.29 3.30,8.23 13.07,7.08 1.85,-0.13 7.73,-1.31 16.10,-5.41 1.29,-0.63 4.34,-2.23 7.86,-3.07 0.29,2.40 0.49,4.48 0.53,5.69 -0.04,0.46 0.17,0.63 0.38,0.19 z M 226.41,16.49 c 0.62,0.12 0.97,0.49 1.12,0.71 0.07,0.09 0.17,0.03 0.20,-0.03 0.75,-1.38 0.14,-2.28 -1.06,-2.67 -0.48,-0.15 -0.67,-0.83 1.14,-1.91 1.67,-1.00 18.11,-8.67 18.48,-8.91 0.50,-0.33 0.80,-0.45 1.01,-0.93 0.21,-0.48 0.26,-0.57 0.37,-0.91 0.12,-0.36 0.24,-0.74 -0.68,-0.21 -0.48,0.28 -18.53,8.56 -19.92,9.62 -0.70,0.53 -1.30,1.39 -1.52,2.33 -0.33,1.37 -0.03,2.74 0.86,2.91 z M 237.97,16.75 c 0.88,0.42 2.17,0.03 3.14,-1.81 0.75,1.09 1.90,1.10 2.51,0.87 0.52,-0.19 1.10,-0.98 1.27,-2.06 0.17,-1.08 -0.11,-1.83 -0.45,-2.44 -0.45,-0.75 -0.75,-2.02 -0.75,-2.02 -0.16,-0.45 -0.28,-0.91 -0.48,-0.29 -0.20,0.62 -0.35,1.10 -0.08,1.82 0.27,0.71 1.00,2.33 1.12,2.56 0.12,0.23 0.15,0.49 -0.25,0.66 -0.40,0.17 -2.24,0.56 -2.58,-1.40 -0.34,-1.96 -0.37,-2.53 -0.54,-2.86 -0.17,-0.33 -0.33,-0.37 -0.46,-0.04 -0.13,0.33 -0.21,1.01 -0.23,1.13 -0.02,0.11 -0.02,0.19 0.05,0.31 0.07,0.12 0.80,2.31 0.47,2.91 -0.33,0.60 -1.98,1.69 -2.84,0.55 -0.41,-0.79 -0.16,-2.80 -0.16,-3.27 0.00,-0.47 -0.15,-0.63 -0.35,-0.25 -0.20,0.38 -0.31,0.63 -0.30,0.97 0.01,0.34 0.06,1.81 0.03,2.27 -0.03,0.46 0.00,1.96 0.88,2.38 z M 241.80,22.36 c 0.06,0.05 0.15,0.03 0.20,-0.04 1.32,-1.81 1.32,-1.81 1.32,-1.81 2.54,1.85 2.54,1.85 2.54,1.85 0.06,0.05 0.15,0.03 0.20,-0.04 1.53,-2.10 1.53,-2.10 1.53,-2.10 0.05,-0.07 0.04,-0.16 -0.03,-0.21 -2.61,-1.91 -2.61,-1.91 -2.61,-1.91 -0.06,-0.05 -0.15,-0.03 -0.20,0.04 -1.32,1.81 -1.32,1.81 -1.32,1.81 -2.54,-1.85 -2.54,-1.85 -2.54,-1.85 -0.06,-0.05 -0.15,-0.03 -0.20,0.04 -1.53,2.10 -1.53,2.10 -1.53,2.10 -0.05,0.07 -0.04,0.16 0.03,0.21 z M 228.53,23.34 c -1.32,1.81 -1.32,1.81 -1.32,1.81 -2.54,-1.85 -2.54,-1.85 -2.54,-1.85 -0.06,-0.05 -0.15,-0.03 -0.20,0.04 -1.53,2.10 -1.53,2.10 -1.53,2.10 -0.05,0.07 -0.04,0.16 0.03,0.20 2.61,1.91 2.61,1.91 2.61,1.91 0.06,0.05 0.15,0.03 0.20,-0.04 1.32,-1.81 1.32,-1.81 1.32,-1.81 2.54,1.85 2.54,1.85 2.54,1.85 0.06,0.05 0.15,0.03 0.20,-0.04 1.53,-2.10 1.53,-2.10 1.53,-2.10 0.05,-0.07 0.04,-0.16 -0.03,-0.21 -2.62,-1.91 -2.62,-1.91 -2.62,-1.91 -0.06,-0.05 -0.15,-0.03 -0.20,0.04 z M 216.79,8.74 c 0.16,0.09 0.34,0.10 0.39,-0.09 0.05,-0.19 0.27,-0.65 0.59,-0.32 0.27,0.27 1.99,1.69 2.88,4.71 0.15,0.40 0.53,0.44 0.61,-0.13 0.21,-1.40 0.32,-3.82 0.43,-4.56 0.16,-1.03 0.65,-3.16 1.96,-2.06 0.30,0.25 0.61,0.58 0.61,0.58 0.28,0.35 0.63,0.75 0.80,0.35 0.26,-0.61 0.46,-1.62 0.18,-2.17 -0.12,-0.24 -1.75,-2.29 -2.85,-0.89 -1.37,1.74 -1.46,4.03 -1.64,6.58 -0.19,-0.53 -1.29,-3.95 -4.78,-5.91 -0.25,-0.14 -0.77,0.13 -0.82,0.93 -0.03,0.47 -0.16,1.61 0.17,1.93 0.33,0.32 1.31,0.96 1.47,1.05 z M 259.57,26.67 c 0.31,-0.21 14.75,-7.24 15.30,-7.62 0.55,-0.37 0.88,-0.51 1.09,-1.06 0.22,-0.54 0.27,-0.64 0.38,-1.01 0.12,-0.40 0.24,-0.82 -0.75,-0.22 -0.64,0.39 -14.96,7.36 -15.63,7.80 -0.66,0.44 -0.90,0.56 -1.00,1.08 -0.10,0.52 -0.15,0.82 -0.18,0.90 -0.12,0.35 -0.20,0.78 0.78,0.11 z M 236.08,44.02 c -0.58,0.19 -10.15,3.43 -10.80,3.69 -0.60,0.24 -0.77,0.40 -0.88,0.81 -0.11,0.42 -0.17,0.66 -0.20,0.72 -0.12,0.28 -0.26,0.51 0.63,0.14 0.43,-0.18 9.90,-3.29 10.52,-3.56 0.49,-0.22 0.75,-0.36 0.96,-0.79 0.21,-0.42 0.26,-0.50 0.38,-0.80 0.12,-0.32 0.27,-0.51 -0.60,-0.22 z M 264.99,29.63 c 0.20,-0.57 -0.04,-0.88 -0.33,-0.18 -0.28,0.70 -1.47,3.09 -1.29,5.92 0.04,0.65 0.48,1.93 1.46,1.96 0.51,0.00 1.17,-0.37 1.63,-1.97 0.08,-0.36 0.13,-0.65 0.17,-0.79 0.05,-0.22 -0.11,-0.47 -0.27,0.02 -0.37,0.98 -1.34,1.66 -2.06,0.35 -0.12,-0.26 -0.61,-1.45 0.29,-4.05 0.18,-0.51 0.41,-1.26 0.41,-1.26 z M 253.01,44.57 c -0.37,0.98 -1.34,1.66 -2.06,0.35 -0.12,-0.26 -0.61,-1.45 0.29,-4.05 0.18,-0.51 0.41,-1.26 0.41,-1.26 0.20,-0.57 -0.04,-0.88 -0.33,-0.18 -0.28,0.70 -1.47,3.09 -1.29,5.92 0.04,0.65 0.48,1.93 1.46,1.96 0.51,0.00 1.17,-0.37 1.63,-1.97 0.08,-0.36 0.13,-0.65 0.17,-0.79 0.05,-0.22 -0.11,-0.47 -0.27,0.02 z M 290.11,45.71 c -0.37,0.98 -1.34,1.66 -2.06,0.35 -0.12,-0.26 -0.61,-1.45 0.29,-4.05 0.18,-0.50 0.41,-1.26 0.41,-1.26 0.20,-0.57 -0.04,-0.88 -0.33,-0.18 -0.28,0.70 -1.47,3.09 -1.29,5.92 0.04,0.65 0.47,1.93 1.46,1.96 0.51,0.00 1.16,-0.37 1.63,-1.97 0.08,-0.36 0.13,-0.65 0.17,-0.79 0.05,-0.22 -0.11,-0.47 -0.27,0.02 z M 214.55,30.92 c 0.70,-0.04 1.57,-0.68 2.07,-3.25 0.08,-0.58 0.12,-1.04 0.16,-1.27 0.05,-0.35 -0.19,-0.74 -0.38,0.06 -0.42,1.58 -1.70,2.74 -2.81,0.72 -0.19,-0.40 -0.97,-2.25 0.04,-6.45 0.20,-0.81 0.45,-2.03 0.45,-2.03 0.23,-0.92 -0.13,-1.39 -0.47,-0.27 -0.33,1.13 -1.75,5.02 -1.25,9.49 0.12,1.03 0.83,3.02 2.19,3.00 z M 312.84,12.30 c 0.25,-0.16 13.84,-8.02 14.32,-8.31 0.46,-0.29 0.72,-0.41 0.90,-0.85 0.18,-0.44 0.23,-0.51 0.33,-0.82 0.11,-0.32 0.21,-0.67 -0.61,-0.19 -0.53,0.31 -14.04,8.11 -14.59,8.46 -0.55,0.35 -0.74,0.44 -0.83,0.87 -0.09,0.42 -0.13,0.67 -0.15,0.73 -0.10,0.28 -0.17,0.63 0.64,0.10 z M 353.88,6.37 c 0.79,0.58 1.94,1.04 1.94,1.04 -3.66,4.48 -10.85,7.67 -12.56,9.01 -0.51,0.38 -0.44,0.61 -0.12,0.52 0.28,-0.08 5.76,-1.61 10.76,-5.90 2.29,-1.97 2.23,-2.11 2.81,-3.31 0.50,0.26 0.84,0.67 1.03,0.91 0.28,0.34 0.43,0.60 0.56,0.23 0.48,-1.33 -0.20,-2.13 -0.84,-2.54 0.00,0.00 0.67,-2.07 -0.56,-4.14 -0.21,-0.35 -1.43,-1.46 -2.85,0.74 -0.55,0.84 -0.96,2.85 -0.17,3.42 z M 354.61,4.34 c 0.73,-1.02 1.08,-0.99 1.36,-0.82 0.82,0.77 0.70,2.02 0.67,2.31 0.00,0.00 -1.05,-0.49 -1.52,-0.69 -0.47,-0.20 -0.72,-0.50 -0.50,-0.80 z M 336.04,7.03 c 0.17,0.10 0.36,0.11 0.41,-0.10 0.05,-0.21 0.28,-0.68 0.62,-0.34 0.28,0.28 2.09,1.78 3.03,4.95 0.16,0.42 0.55,0.46 0.64,-0.14 0.22,-1.47 0.34,-4.02 0.45,-4.79 0.16,-1.08 0.68,-3.32 2.06,-2.16 0.31,0.27 0.64,0.61 0.64,0.61 0.29,0.37 0.66,0.79 0.84,0.36 0.27,-0.64 0.49,-1.70 0.19,-2.28 -0.13,-0.26 -1.84,-2.41 -3.00,-0.93 -1.44,1.83 -1.53,4.23 -1.72,6.91 -0.20,-0.56 -1.35,-4.16 -5.03,-6.21 -0.27,-0.15 -0.81,0.13 -0.86,0.98 -0.03,0.49 -0.17,1.69 0.18,2.03 0.35,0.34 1.37,1.01 1.54,1.10 z M 330.53,20.28 c 0.49,0.00 1.11,-0.35 1.55,-1.87 0.08,-0.34 0.13,-0.62 0.16,-0.75 0.05,-0.21 -0.10,-0.45 -0.26,0.02 -0.35,0.93 -1.27,1.58 -1.96,0.33 -0.11,-0.25 -0.58,-1.38 0.28,-3.86 0.17,-0.48 0.39,-1.20 0.39,-1.20 0.19,-0.54 -0.04,-0.84 -0.31,-0.17 -0.27,0.66 -1.40,2.95 -1.23,5.64 0.04,0.62 0.45,1.83 1.39,1.87 z M 356.64,14.30 c 0.18,-0.50 -0.04,-0.77 -0.29,-0.16 -0.25,0.61 -1.30,2.73 -1.14,5.22 0.04,0.58 0.42,1.70 1.29,1.73 0.45,0.00 1.03,-0.33 1.44,-1.73 0.07,-0.32 0.12,-0.57 0.15,-0.70 0.04,-0.19 -0.10,-0.42 -0.24,0.02 -0.33,0.86 -1.18,1.47 -1.82,0.31 -0.10,-0.23 -0.53,-1.28 0.26,-3.57 0.16,-0.44 0.36,-1.11 0.36,-1.11 z M 303.12,23.91 c 0.00,0.00 1.25,-0.31 1.47,-0.38 0.22,-0.06 0.34,-0.35 -0.05,-0.55 -0.39,-0.20 -4.09,-1.67 -4.37,-1.79 -0.28,-0.11 -0.38,-0.24 -0.41,0.06 -0.02,0.30 -0.07,2.73 -0.07,2.73 0.00,0.00 -0.06,0.17 0.27,0.35 0.32,0.18 0.64,0.58 0.90,0.84 0.26,0.26 3.70,2.98 3.87,3.07 0.00,0.00 -1.72,3.02 -1.94,5.38 -0.22,2.36 0.04,5.63 3.27,4.57 0.87,-0.25 4.49,-1.69 5.30,-4.21 0.26,-0.93 1.01,-2.61 -0.21,-4.31 -0.70,-1.00 -3.53,-2.69 -3.53,-2.69 0.00,0.00 2.17,-3.00 2.38,-3.37 0.21,-0.37 1.01,-2.69 1.09,-3.26 0.09,-0.56 0.13,-0.84 -0.29,-0.32 -0.42,0.52 -4.63,6.05 -4.63,6.05 z M 310.07,32.79 c -1.20,0.99 -3.72,2.29 -4.43,2.36 -0.71,0.07 -2.59,-0.28 -1.77,-2.20 0.28,-0.62 2.16,-3.84 2.16,-3.84 0.70,0.39 5.24,2.70 4.04,3.69 z M 359.02,37.21 c -0.24,0.68 -0.34,1.12 -0.31,1.38 0.03,0.26 0.12,1.09 0.12,1.09 -0.25,0.20 -1.33,0.87 -2.40,0.08 0.07,-0.23 0.21,-0.70 0.24,-0.95 0.12,-0.40 -0.13,-0.69 -0.32,-0.28 -0.20,0.41 -0.65,1.79 -0.99,2.10 -0.34,0.31 -0.73,1.45 -3.30,0.29 -0.45,-0.17 -1.23,-0.75 -2.46,0.48 -2.77,2.57 -4.68,2.77 -7.79,3.88 -0.38,0.17 -1.16,0.76 -0.23,0.67 0.94,-0.09 4.87,0.00 7.01,-2.46 0.45,-0.43 0.96,-1.58 2.66,-0.92 0.94,0.36 2.68,1.85 4.58,-1.10 1.12,0.75 2.82,0.45 3.09,-0.38 0.27,-0.82 0.58,-1.64 0.58,-2.20 0.00,-0.56 -0.05,-1.30 -0.05,-1.30 -0.04,-0.44 -0.19,-1.07 -0.44,-0.40 z M 362.22,24.89 c -0.25,-0.28 -0.37,-0.01 -0.46,0.31 -0.09,0.32 -0.36,1.52 -0.54,2.27 0.00,0.00 0.71,1.16 0.97,1.75 0.25,0.59 -0.12,0.92 -0.86,1.01 -2.08,0.25 -3.73,-0.94 -4.30,-1.48 -0.57,-0.55 0.05,-1.52 0.51,-2.68 0.37,-0.93 -0.32,-1.04 -0.84,0.00 -1.76,4.63 -4.23,5.13 -4.88,5.30 -5.86,1.60 -5.36,-3.76 -5.34,-4.64 0.02,-0.88 -0.62,-0.55 -1.34,0.03 -2.47,1.98 -4.45,3.14 -5.52,3.62 -0.92,-1.80 -2.26,-2.93 -2.82,-3.34 -6.34,-4.63 -6.87,4.71 -6.67,5.71 0.97,3.97 7.45,1.56 8.46,1.44 1.02,-0.12 0.68,1.22 0.11,2.02 -1.41,1.97 -3.03,3.38 -4.50,4.58 -6.28,5.13 -9.44,4.72 -10.41,4.69 -6.17,-0.17 -5.60,-6.82 -5.26,-8.24 1.86,-1.57 3.45,-3.28 4.38,-5.04 0.38,-0.96 1.03,-3.16 -0.15,-5.91 -0.62,-1.21 -2.56,-4.60 -2.56,-4.60 0.00,0.00 1.43,0.04 1.57,0.04 0.14,0.00 0.41,-0.14 0.06,-0.54 -0.35,-0.40 -3.36,-3.41 -3.54,-3.65 -0.18,-0.24 -0.35,-0.41 -0.45,-0.06 -0.10,0.35 -0.36,1.88 -0.42,2.20 -0.06,0.31 -0.06,0.63 0.10,0.90 0.15,0.27 0.55,1.20 0.84,1.96 0.29,0.76 3.25,6.47 3.53,6.98 0.27,0.51 0.33,0.88 0.06,1.22 -9.53,10.05 -27.91,16.23 -28.50,16.58 -0.59,0.34 -0.43,0.61 0.56,0.43 1.48,-0.26 9.74,-1.64 12.09,-2.77 1.55,-0.75 6.98,-3.41 11.41,-6.89 -0.12,0.90 -0.24,2.22 -0.17,3.89 0.30,8.08 7.53,6.74 9.43,6.33 5.68,-1.25 12.64,-9.11 13.23,-10.68 0.58,-1.56 0.67,-2.98 0.54,-4.22 1.50,-0.81 4.71,-3.40 4.71,-3.40 0.13,3.45 2.87,4.48 3.72,4.63 3.96,0.60 5.94,-2.70 6.78,-3.78 0.72,1.89 2.45,2.26 3.34,2.43 3.41,0.68 4.08,-1.73 4.25,-2.29 1.07,-3.33 -0.86,-5.81 -1.11,-6.08 z M 333.59,31.57 c -2.02,-0.14 -1.85,-0.92 -1.57,-1.22 0.30,-0.33 2.78,-1.89 4.85,0.89 0.00,0.00 -0.86,0.50 -3.28,0.33 z M 296.16,13.78 c 0.17,-0.04 3.05,-0.49 6.41,-3.05 1.82,-1.38 2.92,-3.74 2.92,-3.74 0.00,0.00 0.91,0.76 1.03,0.91 0.28,0.34 0.43,0.60 0.56,0.23 0.48,-1.33 -0.20,-2.13 -0.84,-2.54 0.00,0.00 0.67,-2.07 -0.56,-4.14 -0.21,-0.35 -1.43,-1.46 -2.85,0.74 -0.55,0.84 -0.96,2.85 -0.17,3.42 0.79,0.58 1.94,1.04 1.94,1.04 -3.66,4.48 -6.16,5.34 -8.30,6.59 -0.55,0.32 -0.44,0.61 -0.12,0.53 z M 303.88,4.39 c -0.47,-0.20 -0.72,-0.50 -0.50,-0.80 0.73,-1.02 1.08,-0.99 1.36,-0.82 0.82,0.77 0.70,2.02 0.67,2.31 0.00,0.00 -1.05,-0.49 -1.52,-0.69 z M 303.74,14.16 c -0.06,-0.05 -0.15,-0.03 -0.20,0.04 -1.53,2.10 -1.53,2.10 -1.53,2.10 -0.05,0.07 -0.04,0.16 0.03,0.20 2.61,1.91 2.61,1.91 2.61,1.91 0.06,0.05 0.15,0.03 0.20,-0.04 1.32,-1.81 1.32,-1.81 1.32,-1.81 2.54,1.85 2.54,1.85 2.54,1.85 0.06,0.05 0.15,0.03 0.20,-0.04 1.53,-2.10 1.53,-2.10 1.53,-2.10 0.05,-0.07 0.04,-0.16 -0.03,-0.20 -2.61,-1.91 -2.61,-1.91 -2.61,-1.91 -0.06,-0.05 -0.15,-0.03 -0.20,0.04 -1.32,1.81 -1.32,1.81 -1.32,1.81 z M 261.82,7.14 c 0.17,0.10 0.35,0.11 0.40,-0.10 0.05,-0.21 0.28,-0.68 0.61,-0.34 0.24,0.24 2.17,1.94 2.76,4.27 0.49,2.02 -4.48,6.10 -4.74,6.29 -0.47,0.33 -0.32,0.55 -0.10,0.43 0.22,-0.12 0.43,-0.15 2.98,-1.83 2.06,-1.36 2.49,-2.93 2.66,-4.14 0.02,-0.06 0.04,-0.13 0.05,-0.21 0.21,-1.47 0.33,-4.02 0.44,-4.79 0.16,-1.08 0.67,-3.32 2.03,-2.16 0.31,0.27 0.63,0.61 0.63,0.61 0.29,0.37 0.65,0.79 0.83,0.36 0.27,-0.64 0.48,-1.70 0.19,-2.28 -0.13,-0.25 -1.81,-2.41 -2.95,-0.93 -1.42,1.83 -1.51,4.23 -1.69,6.91 -0.20,-0.56 -1.33,-4.16 -4.95,-6.21 -0.26,-0.15 -0.80,0.13 -0.85,0.98 -0.03,0.49 -0.17,1.69 0.17,2.03 0.34,0.34 1.35,1.01 1.52,1.10 z M 241.05,25.67 c -0.49,0.42 -2.81,3.82 -0.70,6.58 0.34,0.44 1.98,1.12 4.24,0.65 0.69,-0.14 3.10,-0.32 3.76,1.58 0.16,0.45 0.27,0.57 -0.17,0.99 -0.44,0.42 -5.97,3.90 -11.29,2.49 -0.76,-0.20 -3.59,-1.20 -5.21,-5.19 -0.23,-0.57 -0.74,-1.75 -2.24,-1.20 -1.50,0.55 -3.99,1.58 -5.78,5.00 -0.30,0.57 -2.09,5.65 -2.40,6.27 -0.32,0.61 -1.64,2.82 -3.70,1.26 -0.84,-0.63 -4.25,-3.30 -3.49,-9.86 0.07,-0.57 -0.19,-1.12 -0.46,-0.38 -0.27,0.74 -1.95,11.27 5.21,13.65 0.49,0.16 2.09,0.30 2.87,-1.90 0.23,-0.66 2.10,-7.38 5.22,-9.72 0.31,-0.23 1.69,-1.06 2.51,-1.25 0.53,-0.12 1.06,0.00 1.39,0.74 0.72,1.58 2.53,7.00 10.32,5.87 1.14,-0.17 8.35,-1.30 8.59,-5.61 0.24,-4.33 -1.41,-7.28 -1.97,-8.09 -1.83,-2.70 -4.43,-3.83 -6.68,-1.87 z M 244.57,29.91 c -0.62,0.15 -1.43,0.48 -2.51,0.04 -1.10,-0.45 -0.62,-1.48 0.19,-1.94 0.93,-0.53 2.95,-0.17 4.18,2.00 0.00,0.00 -1.08,-0.30 -1.86,-0.11 z" />
     </g>
</svg>
