<?xml version="1.0" encoding="UTF-8"?>
<svg version="1.1" id="Layer_1" x="0px" y="0px" width="578" height="56" viewBox="0 0 578 56"
xml:space="preserve" xmlns="http://www.w3.org/2000/svg" xmlns:svg="http://www.w3.org/2000/svg" xmlns:rdf="http://www.w3.org/1999/02/22-rdf-syntax-ns#"  xmlns:cc="http://creativecommons.org/ns#" xmlns:dc="http://purl.org/dc/elements/1.1/">
     <g>
<path d="M 232.77,21.03 c -1.92,2.63 -1.92,2.63 -1.92,2.63 -0.06,0.08 -0.05,0.20 0.03,0.25 3.27,2.38 3.27,2.38 3.27,2.38 0.08,0.06 0.19,0.04 0.25,-0.05 1.91,-2.63 1.91,-2.63 1.91,-2.63 0.06,-0.08 0.05,-0.20 -0.03,-0.26 -3.27,-2.38 -3.27,-2.38 -3.27,-2.38 -0.08,-0.06 -0.19,-0.04 -0.25,0.05 z M 246.16,46.09 c -0.02,0.46 0.18,0.63 0.38,0.18 0.20,-0.45 2.39,-4.43 -0.19,-17.23 -0.15,-0.92 -3.02,-14.97 -3.02,-14.97 0.00,0.00 1.59,1.41 1.85,1.67 0.26,0.26 0.55,0.11 0.40,-0.31 -0.15,-0.42 -3.55,-7.99 -3.66,-8.26 -0.11,-0.26 -0.22,-0.45 -0.34,-0.14 -0.12,0.31 -0.81,2.41 -0.81,2.41 0.24,1.34 2.00,11.17 2.15,12.16 0.15,0.98 3.91,17.73 3.24,24.51 z M 288.97,13.73 c 0.00,0.00 1.50,1.44 1.74,1.70 0.24,0.26 0.55,0.13 0.42,-0.27 -0.13,-0.41 -3.06,-7.82 -3.15,-8.07 -0.09,-0.26 -0.19,-0.45 -0.33,-0.16 -0.14,0.29 -1.08,2.33 -1.08,2.33 0.09,0.76 1.60,11.55 2.53,20.03 0.15,1.32 1.24,8.69 0.93,10.25 -0.08,0.39 -0.34,1.01 -0.88,1.81 0.12,-1.47 0.01,-4.00 -1.36,-7.16 -2.34,-5.40 -13.38,-12.61 -16.67,-17.83 -0.03,-0.06 -0.03,-0.12 -0.03,-0.12 0.00,0.00 1.35,0.34 1.58,0.39 0.36,0.09 0.90,0.08 0.54,-0.25 -0.36,-0.33 -5.31,-3.66 -5.81,-4.05 -0.50,-0.39 -0.71,-0.67 -0.72,-0.28 -0.01,0.39 0.01,2.62 0.02,2.86 0.01,0.24 0.02,0.37 0.32,0.60 0.30,0.23 1.41,1.51 2.35,2.67 5.22,6.04 11.17,11.20 11.97,11.89 0.80,0.69 6.96,6.38 7.06,11.42 0.01,0.33 0.00,0.59 -0.02,0.85 -2.06,2.44 -6.38,5.85 -14.76,8.85 -1.14,0.53 -0.68,0.88 0.11,0.78 0.80,-0.10 11.28,-1.06 15.82,-7.92 1.54,-2.59 2.36,-5.35 1.68,-10.97 -0.21,-1.77 -2.26,-19.34 -2.26,-19.34 z M 247.59,18.60 c 0.26,-0.18 10.91,-5.49 11.38,-5.82 0.47,-0.33 0.75,-0.45 0.93,-0.92 0.18,-0.47 0.23,-0.55 0.32,-0.88 0.10,-0.34 0.20,-0.71 -0.65,-0.18 -0.55,0.34 -11.09,5.59 -11.66,5.98 -0.57,0.39 -0.77,0.49 -0.85,0.94 -0.08,0.45 -0.12,0.71 -0.14,0.78 -0.10,0.30 -0.16,0.67 0.68,0.09 z M 234.31,49.18 c -0.54,0.30 -10.53,3.11 -11.08,3.45 -0.55,0.34 -0.75,0.43 -0.85,0.85 -0.10,0.42 -0.15,0.66 -0.17,0.73 -0.10,0.28 -0.18,0.63 0.64,0.12 0.25,-0.16 10.35,-3.02 10.81,-3.31 0.46,-0.29 0.73,-0.39 0.92,-0.83 0.19,-0.43 0.24,-0.51 0.34,-0.81 0.11,-0.32 0.22,-0.66 -0.61,-0.20 z M 257.85,8.43 c 0.29,-0.17 11.41,-5.54 11.93,-5.86 0.52,-0.32 0.83,-0.43 1.05,-0.92 0.22,-0.49 0.28,-0.57 0.40,-0.91 0.13,-0.36 0.26,-0.74 -0.68,-0.23 -0.61,0.33 -11.61,5.64 -12.24,6.01 -0.63,0.38 -0.85,0.47 -0.97,0.94 -0.11,0.47 -0.17,0.74 -0.20,0.82 -0.12,0.31 -0.21,0.70 0.71,0.14 z M 260.79,49.01 c -0.34,0.90 -1.24,1.54 -1.91,0.32 -0.11,-0.24 -0.56,-1.34 0.27,-3.74 0.17,-0.47 0.38,-1.16 0.38,-1.16 0.19,-0.53 -0.04,-0.81 -0.30,-0.17 -0.26,0.64 -1.36,2.86 -1.20,5.47 0.04,0.60 0.44,1.78 1.35,1.81 0.47,0.00 1.08,-0.34 1.51,-1.82 0.07,-0.33 0.12,-0.60 0.15,-0.73 0.05,-0.20 -0.10,-0.44 -0.25,0.02 z M 252.02,25.82 c 0.20,-0.55 -0.04,-0.85 -0.33,-0.18 -0.29,0.67 -1.49,2.98 -1.31,5.71 0.04,0.63 0.48,1.86 1.48,1.89 0.52,0.00 1.18,-0.36 1.66,-1.90 0.08,-0.35 0.13,-0.63 0.17,-0.76 0.05,-0.21 -0.11,-0.46 -0.28,0.02 -0.38,0.94 -1.36,1.60 -2.09,0.34 -0.12,-0.25 -0.61,-1.40 0.30,-3.91 0.18,-0.49 0.41,-1.21 0.41,-1.21 z M 250.36,11.54 c 0.45,-0.03 1.01,-0.40 1.33,-1.86 0.05,-0.33 0.08,-0.59 0.10,-0.71 0.03,-0.20 -0.13,-0.41 -0.24,0.04 -0.27,0.90 -1.09,1.56 -1.81,0.44 -0.12,-0.22 -0.63,-1.25 0.00,-3.62 0.13,-0.46 0.28,-1.14 0.28,-1.14 0.14,-0.52 -0.09,-0.78 -0.30,-0.14 -0.21,0.64 -1.12,2.85 -0.77,5.35 0.08,0.58 0.55,1.68 1.42,1.65 z M 275.25,44.96 c 0.07,-0.47 0.11,-0.84 0.14,-1.02 0.04,-0.28 -0.16,-0.60 -0.32,0.05 -0.36,1.27 -1.44,2.21 -2.38,0.58 -0.16,-0.33 -0.81,-1.81 0.05,-5.19 0.17,-0.66 0.39,-1.63 0.39,-1.63 0.19,-0.74 -0.11,-1.12 -0.39,-0.21 -0.28,0.91 -1.50,4.05 -1.08,7.64 0.10,0.83 0.69,2.43 1.85,2.40 0.59,-0.04 1.34,-0.55 1.76,-2.62 z M 234.80,17.44 c 0.54,-0.03 1.22,-0.46 1.62,-2.17 0.06,-0.39 0.10,-0.69 0.13,-0.84 0.04,-0.23 -0.14,-0.49 -0.29,0.04 -0.34,1.05 -1.33,1.83 -2.17,0.49 -0.14,-0.27 -0.73,-1.49 0.07,-4.29 0.16,-0.54 0.36,-1.35 0.36,-1.35 0.18,-0.61 -0.09,-0.92 -0.36,-0.17 -0.26,0.75 -1.39,3.35 -1.02,6.31 0.08,0.69 0.62,2.00 1.67,1.98 z M 223.47,28.38 c 0.27,-0.99 -0.11,-1.52 -0.50,-0.30 -0.39,1.21 -2.05,5.41 -1.63,10.28 0.10,1.13 0.81,3.30 2.29,3.32 0.76,-0.03 1.73,-0.69 2.35,-3.47 0.10,-0.63 0.16,-1.13 0.21,-1.38 0.06,-0.37 -0.19,-0.81 -0.41,0.05 -0.51,1.71 -1.92,2.93 -3.08,0.70 -0.19,-0.44 -0.98,-2.48 0.22,-7.01 0.24,-0.88 0.55,-2.19 0.55,-2.19 z M 216.93,11.42 c 0.33,0.28 1.29,0.81 1.45,0.88 0.16,0.07 0.33,0.07 0.36,-0.11 0.03,-0.19 0.19,-0.60 0.53,-0.35 1.53,1.17 2.31,2.28 2.73,3.09 1.03,1.76 -0.18,3.30 -0.68,4.00 -0.57,0.81 -3.02,2.93 -3.61,3.79 -0.59,0.86 1.30,-0.33 3.56,-2.36 2.27,-2.02 1.65,-7.88 1.67,-8.77 0.07,-0.98 0.39,-3.01 1.69,-2.07 0.30,0.22 0.62,0.51 0.62,0.51 0.29,0.31 0.64,0.66 0.77,0.27 0.20,-0.59 0.32,-1.55 0.02,-2.05 -0.13,-0.22 -1.80,-2.03 -2.74,-0.63 -1.16,1.73 -1.08,3.88 -1.07,6.28 -0.22,-0.49 -1.48,-3.62 -4.90,-5.21 -0.25,-0.11 -0.71,0.17 -0.70,0.93 0.01,0.44 -0.04,1.52 0.29,1.80 z M 264.41,10.65 c -0.14,0.42 -0.19,0.67 -0.21,0.83 -0.02,0.15 -0.05,0.27 0.20,0.21 0.25,-0.06 0.37,-0.09 0.37,-0.09 0.72,-0.28 3.49,-1.55 5.33,-1.89 0.06,-0.01 0.20,-0.60 0.28,-0.92 0.08,-0.32 -0.26,-0.31 -0.80,-0.22 -0.53,0.09 -2.47,0.56 -3.44,-0.36 -0.84,-0.79 -0.93,-1.10 -0.61,-1.27 0.32,-0.17 1.22,-0.71 1.75,0.03 0.28,0.39 0.53,0.41 0.67,0.17 0.14,-0.24 0.61,-0.88 0.49,-1.16 -0.12,-0.28 -0.64,-1.22 -1.95,-0.67 -1.31,0.56 -2.68,2.50 -2.24,3.30 0.38,0.68 1.19,1.31 1.19,1.31 -0.42,0.21 -0.88,0.31 -1.02,0.73 z M 261.50,18.94 c -0.90,0.66 -1.50,1.04 -1.50,1.04 -0.58,0.42 -1.10,1.20 -0.07,0.77 1.03,-0.44 2.39,-1.12 3.43,-2.69 0.30,-0.46 0.66,-1.07 -0.75,-1.28 -1.41,-0.21 -3.70,-0.54 -4.43,0.26 -0.74,0.81 -0.97,1.36 -1.19,1.70 -0.30,0.48 0.08,0.69 0.42,0.32 0.34,-0.37 0.58,-0.74 1.58,-0.71 1.00,0.03 3.40,-0.07 2.51,0.59 z M 274.73,11.34 c 0.34,0.23 1.31,0.63 1.47,0.68 0.16,0.05 0.32,0.04 0.33,-0.15 0.01,-0.18 0.13,-0.62 0.47,-0.38 0.28,0.19 2.03,1.17 3.32,3.69 0.20,0.33 0.54,0.30 0.52,-0.21 -0.05,-1.27 -0.35,-3.43 -0.37,-4.09 -0.03,-0.94 0.06,-2.90 1.39,-2.14 0.30,0.17 0.64,0.41 0.64,0.41 0.30,0.26 0.68,0.56 0.76,0.17 0.13,-0.58 0.14,-1.51 -0.19,-1.94 -0.15,-0.19 -1.92,-1.74 -2.66,-0.32 -0.92,1.76 -0.62,3.79 -0.37,6.07 -0.26,-0.44 -1.78,-3.28 -5.19,-4.44 -0.25,-0.08 -0.66,0.24 -0.57,0.96 0.05,0.42 0.12,1.45 0.47,1.68 z M 277.25,31.30 c 0.19,-0.46 0.19,-0.84 -0.48,-0.44 -0.67,0.40 -7.96,3.99 -9.04,4.22 -1.07,0.23 -2.84,0.92 -5.34,-0.84 -2.94,-2.04 -3.89,-4.35 -4.08,-4.92 -0.19,-0.57 -0.21,-1.20 0.76,-1.91 0.97,-0.71 6.28,-3.61 11.14,-2.65 1.32,0.40 1.68,0.17 0.86,-0.59 -0.82,-0.76 -4.58,-1.87 -6.47,-1.57 -1.89,0.29 -4.43,0.76 -5.97,2.84 -1.53,2.08 -2.58,5.02 -1.03,8.07 0.99,1.55 2.67,3.57 4.10,4.18 -0.87,0.44 -7.91,4.35 -9.18,5.19 -3.32,2.19 -6.30,6.60 -7.59,7.33 -1.85,1.19 -7.26,2.92 -6.27,-3.73 0.33,-1.52 1.42,-4.39 1.58,-4.82 0.04,-0.09 0.05,-0.24 0.03,-0.39 0.03,-0.07 0.07,-0.14 0.10,-0.21 0.48,-1.13 0.69,-2.63 0.29,-4.62 -1.97,-7.56 -5.54,-7.51 -7.24,-6.85 -0.40,0.16 -1.17,0.81 -1.39,1.09 -1.02,1.35 -2.53,4.29 -0.42,6.30 1.62,1.31 4.52,0.68 5.05,0.66 0.96,-0.04 2.19,-0.09 2.84,1.49 0.13,0.41 -0.34,0.92 -1.42,1.54 -1.08,0.62 -13.64,7.48 -21.43,5.28 -1.32,-0.40 -6.12,-1.47 -5.94,-7.11 0.04,-0.91 0.58,-2.73 0.87,-3.73 0.19,0.09 0.39,0.14 0.60,0.14 0.76,-0.03 1.73,-0.69 2.35,-3.47 0.10,-0.63 0.16,-1.13 0.21,-1.38 0.06,-0.37 -0.19,-0.81 -0.41,0.05 -0.51,1.71 -1.92,2.93 -3.08,0.70 -0.19,-0.44 -0.98,-2.48 0.22,-7.01 0.24,-0.88 0.55,-2.19 0.55,-2.19 0.27,-0.99 -0.11,-1.52 -0.50,-0.30 -0.39,1.21 -2.05,5.41 -1.63,10.28 0.07,0.76 0.42,2.00 1.09,2.73 -0.84,1.81 -4.17,8.82 1.61,13.04 1.16,0.81 5.23,3.47 14.90,0.58 6.15,-2.02 9.36,-3.66 11.08,-5.04 -1.04,3.15 -2.23,9.05 2.18,10.56 1.47,0.37 4.46,1.02 8.28,-4.09 0.32,-0.47 1.91,-2.61 4.88,-4.75 1.88,-1.36 4.44,-2.52 7.23,-3.89 2.94,-1.45 14.85,-6.80 15.01,-7.06 0.17,-0.26 0.88,-2.24 1.07,-2.70 z M 235.85,34.54 c -0.48,0.15 -1.36,0.45 -2.71,0.00 -1.20,-0.41 -0.69,-1.63 0.13,-1.94 0.37,-0.14 1.92,-0.72 3.84,1.76 0.00,0.00 -0.78,0.03 -1.26,0.17 z M 299.90,47.84 c -0.04,0.46 0.17,0.63 0.38,0.19 0.11,-0.24 0.59,-1.22 0.73,-3.80 0.11,-1.94 -0.05,-4.91 -0.60,-9.01 -0.08,-0.60 -2.95,-21.37 -2.95,-21.37 0.00,0.00 1.55,1.46 1.80,1.72 0.25,0.26 0.55,0.12 0.41,-0.30 -0.14,-0.42 -3.32,-8.09 -3.42,-8.36 -0.10,-0.27 -0.20,-0.46 -0.33,-0.15 -0.13,0.31 -1.08,2.64 -1.08,2.64 0.02,0.14 0.28,1.15 0.33,1.54 0.44,3.37 3.20,23.25 3.99,29.54 0.39,3.09 0.69,5.88 0.73,7.37 z M 361.47,19.89 c 0.18,-0.50 -0.04,-0.77 -0.29,-0.16 -0.25,0.61 -1.30,2.73 -1.14,5.22 0.04,0.58 0.42,1.70 1.29,1.73 0.45,0.00 1.03,-0.33 1.44,-1.74 0.07,-0.32 0.12,-0.57 0.15,-0.70 0.04,-0.19 -0.10,-0.42 -0.24,0.02 -0.33,0.86 -1.18,1.47 -1.82,0.31 -0.10,-0.23 -0.53,-1.28 0.26,-3.57 0.16,-0.44 0.36,-1.11 0.36,-1.11 z M 340.86,12.62 c 0.17,0.09 0.36,0.11 0.41,-0.10 0.05,-0.21 0.28,-0.68 0.62,-0.34 0.28,0.28 2.09,1.78 3.03,4.95 0.16,0.42 0.55,0.46 0.64,-0.14 0.22,-1.47 0.34,-4.02 0.45,-4.79 0.16,-1.09 0.68,-3.32 2.06,-2.16 0.31,0.26 0.64,0.61 0.64,0.61 0.29,0.37 0.66,0.79 0.84,0.36 0.27,-0.64 0.49,-1.71 0.19,-2.28 -0.13,-0.25 -1.84,-2.41 -3.00,-0.93 -1.44,1.83 -1.53,4.23 -1.72,6.91 -0.20,-0.56 -1.35,-4.15 -5.02,-6.21 -0.27,-0.15 -0.81,0.13 -0.86,0.98 -0.03,0.49 -0.17,1.69 0.18,2.03 0.35,0.34 1.37,1.00 1.54,1.10 z M 367.04,30.49 c -0.25,-0.28 -0.37,-0.01 -0.46,0.31 -0.09,0.32 -0.36,1.52 -0.53,2.27 0.00,0.00 0.71,1.16 0.97,1.75 0.25,0.59 -0.12,0.92 -0.86,1.01 -2.08,0.25 -3.73,-0.94 -4.30,-1.48 -0.57,-0.55 0.05,-1.52 0.51,-2.68 0.37,-0.93 -0.32,-1.04 -0.84,0.00 -1.76,4.63 -4.23,5.12 -4.88,5.30 -5.86,1.60 -5.36,-3.76 -5.34,-4.64 0.02,-0.88 -0.62,-0.55 -1.34,0.03 -2.47,1.98 -4.45,3.14 -5.52,3.62 -0.92,-1.80 -2.26,-2.93 -2.82,-3.34 -6.34,-4.62 -6.87,4.71 -6.67,5.71 0.97,3.97 7.45,1.56 8.46,1.44 1.02,-0.12 0.68,1.22 0.11,2.02 -1.41,1.97 -3.03,3.38 -4.50,4.58 -6.28,5.13 -9.44,4.72 -10.41,4.69 -6.17,-0.17 -5.60,-6.82 -5.26,-8.24 1.86,-1.57 3.45,-3.28 4.38,-5.04 0.38,-0.97 1.03,-3.16 -0.15,-5.91 -0.62,-1.21 -2.56,-4.60 -2.56,-4.60 0.00,0.00 1.43,0.04 1.57,0.04 0.14,0.00 0.41,-0.14 0.06,-0.54 -0.35,-0.40 -3.36,-3.40 -3.54,-3.65 -0.18,-0.24 -0.35,-0.41 -0.45,-0.06 -0.10,0.36 -0.36,1.88 -0.42,2.20 -0.06,0.31 -0.06,0.63 0.10,0.90 0.15,0.27 0.55,1.20 0.84,1.96 0.29,0.76 3.26,6.47 3.53,6.98 0.27,0.51 0.33,0.88 0.06,1.22 -9.53,10.05 -27.91,16.23 -28.50,16.57 -0.59,0.34 -0.43,0.61 0.56,0.43 1.48,-0.26 9.74,-1.64 12.09,-2.77 1.55,-0.75 6.97,-3.41 11.41,-6.89 -0.12,0.90 -0.24,2.22 -0.18,3.89 0.30,8.08 7.53,6.74 9.43,6.33 5.68,-1.25 12.64,-9.11 13.23,-10.68 0.58,-1.56 0.67,-2.98 0.54,-4.22 1.50,-0.81 4.71,-3.40 4.71,-3.40 0.13,3.45 2.88,4.48 3.72,4.63 3.96,0.60 5.94,-2.71 6.78,-3.78 0.72,1.89 2.45,2.26 3.34,2.43 3.41,0.68 4.08,-1.74 4.26,-2.29 1.07,-3.33 -0.86,-5.81 -1.11,-6.08 z M 338.41,37.16 c -2.03,-0.14 -1.85,-0.92 -1.57,-1.22 0.30,-0.33 2.78,-1.89 4.85,0.89 0.00,0.00 -0.86,0.50 -3.28,0.33 z M 300.98,19.37 c 0.17,-0.04 3.05,-0.49 6.41,-3.05 1.82,-1.38 2.92,-3.74 2.92,-3.74 0.00,0.00 0.91,0.76 1.03,0.91 0.28,0.34 0.43,0.60 0.56,0.23 0.48,-1.33 -0.20,-2.13 -0.84,-2.54 0.00,0.00 0.67,-2.07 -0.56,-4.14 -0.21,-0.35 -1.43,-1.46 -2.85,0.74 -0.55,0.84 -0.96,2.85 -0.17,3.42 0.79,0.58 1.93,1.04 1.93,1.04 -3.66,4.49 -6.16,5.34 -8.30,6.60 -0.55,0.32 -0.44,0.61 -0.12,0.52 z M 308.70,9.98 c -0.47,-0.20 -0.72,-0.50 -0.50,-0.80 0.73,-1.02 1.08,-0.99 1.36,-0.82 0.82,0.77 0.70,2.03 0.67,2.31 0.00,0.00 -1.05,-0.49 -1.52,-0.69 z M 358.71,11.96 c 0.79,0.58 1.93,1.04 1.93,1.04 -3.66,4.49 -10.84,7.67 -12.55,9.01 -0.51,0.39 -0.44,0.61 -0.12,0.53 0.29,-0.08 5.76,-1.61 10.76,-5.90 2.29,-1.97 2.23,-2.11 2.82,-3.30 0.50,0.26 0.84,0.67 1.03,0.91 0.28,0.34 0.43,0.60 0.56,0.23 0.48,-1.33 -0.20,-2.13 -0.84,-2.54 0.00,0.00 0.67,-2.07 -0.56,-4.14 -0.21,-0.35 -1.43,-1.46 -2.85,0.74 -0.55,0.84 -0.96,2.85 -0.17,3.42 z M 359.44,9.93 c 0.73,-1.02 1.08,-0.99 1.36,-0.82 0.82,0.77 0.70,2.02 0.67,2.31 0.00,0.00 -1.05,-0.49 -1.52,-0.69 -0.47,-0.20 -0.72,-0.50 -0.50,-0.80 z M 335.35,25.87 c 0.48,0.00 1.11,-0.35 1.55,-1.87 0.08,-0.34 0.13,-0.62 0.16,-0.75 0.05,-0.21 -0.10,-0.45 -0.26,0.02 -0.35,0.93 -1.27,1.58 -1.96,0.33 -0.11,-0.25 -0.58,-1.38 0.28,-3.86 0.17,-0.48 0.39,-1.20 0.39,-1.20 0.19,-0.54 -0.04,-0.84 -0.31,-0.17 -0.27,0.66 -1.40,2.94 -1.23,5.63 0.04,0.62 0.45,1.83 1.39,1.87 z M 307.94,29.50 c 0.00,0.00 1.25,-0.31 1.47,-0.38 0.22,-0.06 0.34,-0.34 -0.05,-0.55 -0.39,-0.20 -4.09,-1.67 -4.37,-1.79 -0.28,-0.11 -0.38,-0.24 -0.41,0.06 -0.02,0.30 -0.07,2.73 -0.07,2.73 0.00,0.00 -0.06,0.17 0.27,0.35 0.32,0.18 0.64,0.58 0.90,0.84 0.26,0.26 3.70,2.98 3.87,3.07 0.00,0.00 -1.72,3.02 -1.94,5.38 -0.22,2.36 0.04,5.63 3.27,4.58 0.87,-0.25 4.49,-1.69 5.30,-4.21 0.26,-0.93 1.01,-2.61 -0.21,-4.31 -0.70,-1.00 -3.53,-2.69 -3.53,-2.69 0.00,0.00 2.17,-3.00 2.38,-3.37 0.21,-0.37 1.00,-2.69 1.09,-3.25 0.09,-0.56 0.13,-0.84 -0.29,-0.32 -0.42,0.52 -4.63,6.05 -4.63,6.05 z M 314.89,38.39 c -1.20,0.99 -3.72,2.29 -4.43,2.36 -0.71,0.07 -2.59,-0.28 -1.77,-2.20 0.28,-0.62 2.16,-3.84 2.16,-3.84 0.70,0.39 5.24,2.70 4.04,3.69 z M 308.56,19.76 c -0.06,-0.05 -0.15,-0.03 -0.20,0.04 -1.53,2.10 -1.53,2.10 -1.53,2.10 -0.05,0.07 -0.04,0.16 0.03,0.20 2.61,1.91 2.61,1.91 2.61,1.91 0.06,0.05 0.15,0.03 0.20,-0.04 1.32,-1.81 1.32,-1.81 1.32,-1.81 2.54,1.85 2.54,1.85 2.54,1.85 0.06,0.05 0.15,0.03 0.20,-0.04 1.53,-2.10 1.53,-2.10 1.53,-2.10 0.05,-0.07 0.04,-0.16 -0.03,-0.20 -2.61,-1.91 -2.61,-1.91 -2.61,-1.91 -0.06,-0.05 -0.15,-0.03 -0.20,0.04 -1.32,1.81 -1.32,1.81 -1.32,1.81 z M 363.84,42.80 c -0.24,0.68 -0.34,1.12 -0.31,1.38 0.03,0.26 0.11,1.10 0.11,1.10 -0.25,0.20 -1.33,0.87 -2.40,0.08 0.07,-0.23 0.21,-0.70 0.24,-0.95 0.12,-0.40 -0.13,-0.69 -0.32,-0.28 -0.20,0.41 -0.65,1.79 -0.99,2.10 -0.34,0.31 -0.73,1.45 -3.30,0.29 -0.45,-0.17 -1.23,-0.75 -2.46,0.48 -2.77,2.57 -4.68,2.77 -7.79,3.88 -0.38,0.17 -1.16,0.76 -0.23,0.67 0.94,-0.09 4.87,0.00 7.01,-2.46 0.45,-0.43 0.96,-1.58 2.66,-0.92 0.94,0.36 2.68,1.85 4.58,-1.10 1.12,0.75 2.82,0.45 3.09,-0.38 0.27,-0.82 0.58,-1.64 0.58,-2.20 0.00,-0.56 -0.05,-1.30 -0.05,-1.30 -0.04,-0.44 -0.19,-1.07 -0.44,-0.40 z M 317.66,17.89 c 0.25,-0.16 13.84,-8.02 14.32,-8.31 0.46,-0.29 0.72,-0.41 0.91,-0.85 0.18,-0.44 0.23,-0.52 0.33,-0.82 0.10,-0.32 0.21,-0.67 -0.61,-0.19 -0.53,0.31 -14.04,8.11 -14.59,8.46 -0.55,0.35 -0.74,0.44 -0.83,0.87 -0.09,0.42 -0.13,0.67 -0.16,0.73 -0.10,0.28 -0.17,0.63 0.64,0.10 z" />
     </g>
</svg>
