<?xml version="1.0" encoding="UTF-8"?>
<svg version="1.1" id="Layer_1" x="0px" y="0px" width="578" height="50" viewBox="0 0 578 50"
xml:space="preserve" xmlns="http://www.w3.org/2000/svg" xmlns:svg="http://www.w3.org/2000/svg" xmlns:rdf="http://www.w3.org/1999/02/22-rdf-syntax-ns#"  xmlns:cc="http://creativecommons.org/ns#" xmlns:dc="http://purl.org/dc/elements/1.1/">
     <g>
<path d="M 228.99,21.08 c -1.92,2.63 -1.92,2.63 -1.92,2.63 -0.06,0.08 -0.05,0.20 0.03,0.25 3.27,2.38 3.27,2.38 3.27,2.38 0.08,0.06 0.19,0.04 0.25,-0.05 1.91,-2.63 1.91,-2.63 1.91,-2.63 0.06,-0.08 0.05,-0.20 -0.03,-0.25 -3.27,-2.38 -3.27,-2.38 -3.27,-2.38 -0.08,-0.06 -0.19,-0.04 -0.25,0.05 z M 295.32,34.87 c 0.39,3.09 0.69,5.88 0.73,7.37 -0.04,0.46 0.17,0.64 0.38,0.19 0.11,-0.24 0.59,-1.22 0.73,-3.80 0.11,-1.94 -0.05,-4.92 -0.60,-9.01 -0.08,-0.60 -2.95,-21.37 -2.95,-21.37 0.00,0.00 1.55,1.46 1.80,1.72 0.25,0.26 0.55,0.12 0.41,-0.30 -0.14,-0.42 -3.31,-8.09 -3.42,-8.36 -0.10,-0.27 -0.20,-0.46 -0.33,-0.15 -0.13,0.31 -1.08,2.64 -1.08,2.64 0.02,0.14 0.28,1.16 0.33,1.54 0.44,3.37 3.20,23.25 3.99,29.54 z M 255.39,6.34 c 0.15,0.07 0.31,0.07 0.34,-0.10 0.03,-0.18 0.21,-0.59 0.51,-0.32 0.25,0.23 1.86,1.41 2.81,4.05 0.16,0.35 0.49,0.36 0.54,-0.15 0.11,-1.25 0.09,-3.42 0.15,-4.08 0.09,-0.93 0.42,-2.85 1.64,-1.94 0.28,0.21 0.58,0.49 0.58,0.49 0.27,0.30 0.60,0.64 0.73,0.27 0.20,-0.56 0.33,-1.47 0.05,-1.94 -0.12,-0.21 -1.67,-1.96 -2.59,-0.65 -1.13,1.62 -1.09,3.67 -1.13,5.95 -0.20,-0.47 -1.35,-3.46 -4.56,-5.03 -0.23,-0.11 -0.68,0.15 -0.68,0.87 0.00,0.42 -0.06,1.44 0.25,1.71 0.31,0.27 1.21,0.79 1.36,0.86 z M 221.67,36.54 c -0.08,0.42 -0.11,0.67 -0.14,0.74 -0.09,0.28 -0.15,0.63 0.64,0.09 0.25,-0.17 15.81,-8.72 16.25,-9.03 0.44,-0.31 0.71,-0.43 0.88,-0.87 0.17,-0.44 0.22,-0.52 0.30,-0.83 0.10,-0.33 0.19,-0.67 -0.62,-0.17 -0.52,0.32 -15.98,8.81 -16.52,9.18 -0.54,0.37 -0.73,0.46 -0.81,0.89 z M 238.89,42.49 c -0.08,0.42 -0.11,0.67 -0.14,0.74 -0.09,0.28 -0.15,0.63 0.64,0.09 0.25,-0.17 8.35,-4.10 8.79,-4.41 0.44,-0.31 0.71,-0.43 0.88,-0.87 0.17,-0.44 0.22,-0.52 0.30,-0.83 0.10,-0.33 0.19,-0.67 -0.62,-0.17 -0.52,0.32 -8.53,4.20 -9.06,4.57 -0.54,0.37 -0.73,0.46 -0.81,0.89 z M 264.94,18.97 c -0.08,0.45 -0.12,0.71 -0.14,0.78 -0.10,0.30 -0.16,0.68 0.68,0.09 0.26,-0.18 12.70,-6.41 13.17,-6.73 0.47,-0.33 0.75,-0.45 0.94,-0.92 0.18,-0.47 0.23,-0.55 0.32,-0.88 0.10,-0.35 0.20,-0.71 -0.65,-0.18 -0.55,0.34 -12.89,6.51 -13.46,6.90 -0.57,0.39 -0.77,0.49 -0.86,0.94 z M 253.78,17.48 c 0.31,-0.21 22.92,-12.24 23.48,-12.63 0.56,-0.39 0.90,-0.54 1.11,-1.10 0.22,-0.56 0.27,-0.66 0.38,-1.04 0.12,-0.41 0.24,-0.85 -0.78,-0.21 -0.66,0.41 -23.14,12.36 -23.82,12.83 -0.68,0.46 -0.92,0.58 -1.02,1.12 -0.10,0.53 -0.14,0.84 -0.17,0.93 -0.11,0.36 -0.19,0.80 0.81,0.11 z M 286.46,43.22 c -0.32,0.85 -1.16,1.44 -1.79,0.30 -0.10,-0.23 -0.53,-1.26 0.25,-3.51 0.16,-0.44 0.35,-1.09 0.35,-1.09 0.17,-0.49 -0.03,-0.76 -0.28,-0.16 -0.25,0.60 -1.28,2.68 -1.12,5.13 0.04,0.56 0.41,1.67 1.26,1.70 0.44,0.00 1.01,-0.32 1.41,-1.71 0.07,-0.31 0.11,-0.56 0.14,-0.69 0.04,-0.19 -0.09,-0.41 -0.24,0.02 z M 241.54,8.21 c 0.43,0.00 0.98,-0.31 1.38,-1.66 0.07,-0.30 0.11,-0.55 0.14,-0.67 0.04,-0.18 -0.09,-0.40 -0.23,0.02 -0.31,0.83 -1.13,1.40 -1.74,0.30 -0.10,-0.22 -0.51,-1.22 0.25,-3.42 0.15,-0.43 0.35,-1.06 0.35,-1.06 0.17,-0.48 -0.03,-0.74 -0.28,-0.15 -0.24,0.59 -1.25,2.61 -1.09,5.00 0.04,0.55 0.40,1.63 1.23,1.66 z M 236.65,19.69 c -0.10,-0.22 -0.51,-1.22 0.25,-3.42 0.15,-0.43 0.35,-1.06 0.35,-1.06 0.17,-0.48 -0.03,-0.74 -0.28,-0.15 -0.24,0.59 -1.25,2.61 -1.09,5.00 0.04,0.55 0.40,1.63 1.23,1.66 0.43,0.00 0.98,-0.31 1.38,-1.66 0.07,-0.30 0.11,-0.55 0.14,-0.67 0.04,-0.18 -0.09,-0.40 -0.23,0.02 -0.31,0.83 -1.13,1.40 -1.74,0.30 z M 222.86,23.82 c 0.17,-0.48 -0.03,-0.74 -0.28,-0.15 -0.24,0.59 -1.25,2.61 -1.09,5.00 0.04,0.55 0.40,1.63 1.23,1.65 0.43,0.00 0.98,-0.31 1.38,-1.66 0.07,-0.30 0.11,-0.55 0.14,-0.67 0.04,-0.18 -0.09,-0.40 -0.23,0.02 -0.31,0.83 -1.13,1.41 -1.74,0.30 -0.10,-0.22 -0.51,-1.22 0.25,-3.42 0.15,-0.43 0.35,-1.06 0.35,-1.06 z M 257.14,21.13 c 0.17,-0.57 -0.09,-0.87 -0.33,-0.16 -0.24,0.71 -1.27,3.15 -0.94,5.94 0.08,0.64 0.57,1.88 1.54,1.86 0.50,-0.03 1.12,-0.43 1.49,-2.04 0.06,-0.36 0.09,-0.65 0.12,-0.79 0.04,-0.22 -0.13,-0.46 -0.27,0.04 -0.31,0.99 -1.22,1.72 -2.00,0.46 -0.13,-0.25 -0.68,-1.40 0.06,-4.03 0.15,-0.51 0.33,-1.27 0.33,-1.27 z M 277.12,17.49 c 0.17,-0.57 -0.09,-0.87 -0.33,-0.16 -0.24,0.71 -1.27,3.15 -0.93,5.94 0.08,0.64 0.57,1.88 1.54,1.86 0.50,-0.03 1.12,-0.43 1.49,-2.04 0.06,-0.36 0.09,-0.65 0.12,-0.79 0.04,-0.22 -0.13,-0.46 -0.27,0.04 -0.31,0.99 -1.22,1.72 -2.00,0.46 -0.13,-0.25 -0.67,-1.40 0.06,-4.03 0.15,-0.51 0.33,-1.27 0.33,-1.27 z M 270.43,44.47 c -0.40,0.96 -1.38,1.60 -2.03,0.27 -0.11,-0.26 -0.54,-1.46 0.44,-4.01 0.20,-0.49 0.45,-1.23 0.45,-1.23 0.22,-0.56 0.00,-0.87 -0.31,-0.19 -0.31,0.68 -1.56,3.01 -1.50,5.82 0.02,0.65 0.39,1.93 1.35,2.00 0.50,0.02 1.16,-0.32 1.68,-1.89 0.09,-0.35 0.15,-0.64 0.19,-0.78 0.06,-0.21 -0.09,-0.47 -0.27,0.01 z M 361.09,24.89 c -0.25,-0.28 -0.37,-0.01 -0.46,0.31 -0.09,0.32 -0.36,1.52 -0.54,2.27 0.00,0.00 0.71,1.16 0.97,1.76 0.25,0.59 -0.12,0.92 -0.86,1.01 -2.08,0.25 -3.73,-0.94 -4.30,-1.48 -0.57,-0.55 0.05,-1.52 0.51,-2.68 0.37,-0.93 -0.32,-1.04 -0.84,0.00 -1.76,4.63 -4.23,5.13 -4.88,5.30 -5.86,1.60 -5.36,-3.76 -5.34,-4.64 0.02,-0.88 -0.62,-0.55 -1.34,0.03 -2.47,1.98 -4.45,3.14 -5.52,3.62 -0.92,-1.80 -2.26,-2.93 -2.82,-3.33 -6.34,-4.63 -6.87,4.71 -6.67,5.71 0.97,3.97 7.45,1.56 8.46,1.44 1.02,-0.12 0.68,1.22 0.11,2.02 -1.41,1.97 -3.03,3.38 -4.50,4.57 -6.28,5.13 -9.44,4.72 -10.41,4.69 -6.17,-0.17 -5.60,-6.82 -5.26,-8.24 1.86,-1.57 3.45,-3.28 4.38,-5.04 0.38,-0.96 1.03,-3.16 -0.15,-5.91 -0.62,-1.21 -2.56,-4.61 -2.56,-4.61 0.00,0.00 1.43,0.04 1.57,0.04 0.14,0.00 0.41,-0.14 0.06,-0.54 -0.35,-0.40 -3.36,-3.41 -3.54,-3.65 -0.18,-0.24 -0.35,-0.42 -0.45,-0.06 -0.10,0.35 -0.36,1.88 -0.42,2.20 -0.06,0.31 -0.06,0.63 0.10,0.90 0.15,0.27 0.55,1.20 0.84,1.96 0.29,0.76 3.25,6.47 3.53,6.98 0.27,0.51 0.33,0.88 0.06,1.22 -9.53,10.05 -27.91,16.23 -28.50,16.58 -0.59,0.34 -0.43,0.61 0.56,0.43 1.48,-0.26 9.74,-1.64 12.09,-2.78 1.55,-0.75 6.97,-3.41 11.41,-6.89 -0.12,0.90 -0.24,2.22 -0.17,3.89 0.30,8.08 7.53,6.74 9.43,6.33 5.68,-1.25 12.64,-9.11 13.23,-10.69 0.58,-1.56 0.67,-2.98 0.54,-4.22 1.50,-0.81 4.71,-3.40 4.71,-3.40 0.13,3.45 2.88,4.48 3.72,4.63 3.96,0.60 5.94,-2.70 6.78,-3.78 0.72,1.89 2.45,2.26 3.34,2.43 3.41,0.68 4.08,-1.73 4.26,-2.29 1.07,-3.33 -0.86,-5.81 -1.11,-6.08 z M 332.45,31.57 c -2.02,-0.14 -1.85,-0.92 -1.57,-1.22 0.30,-0.33 2.78,-1.89 4.85,0.89 0.00,0.00 -0.86,0.50 -3.28,0.33 z M 246.17,18.68 c -0.35,-0.40 -3.36,-3.40 -3.54,-3.65 -0.18,-0.24 -0.35,-0.42 -0.45,-0.06 -0.10,0.36 -0.36,1.88 -0.42,2.20 -0.06,0.31 -0.06,0.63 0.10,0.90 0.15,0.27 0.55,1.20 0.84,1.96 0.29,0.76 3.25,6.47 3.53,6.98 0.27,0.51 0.33,0.88 0.06,1.22 -9.53,10.05 -24.44,15.19 -25.03,15.53 -0.59,0.34 -0.43,0.61 0.56,0.43 1.48,-0.26 7.05,-1.18 9.49,-2.17 2.42,-0.98 12.74,-6.23 15.95,-12.33 0.38,-0.96 1.03,-3.16 -0.15,-5.91 -0.62,-1.21 -2.56,-4.60 -2.56,-4.60 0.00,0.00 1.43,0.04 1.57,0.04 0.14,0.00 0.41,-0.14 0.06,-0.54 z M 301.98,23.91 c 0.00,0.00 1.25,-0.31 1.47,-0.38 0.22,-0.06 0.34,-0.35 -0.05,-0.55 -0.39,-0.20 -4.09,-1.67 -4.37,-1.79 -0.28,-0.11 -0.38,-0.24 -0.41,0.06 -0.02,0.30 -0.07,2.73 -0.07,2.73 0.00,0.00 -0.06,0.17 0.27,0.35 0.32,0.18 0.64,0.58 0.90,0.84 0.26,0.26 3.70,2.98 3.87,3.07 0.00,0.00 -1.72,3.02 -1.94,5.38 -0.22,2.36 0.04,5.63 3.27,4.57 0.87,-0.25 4.49,-1.69 5.30,-4.21 0.26,-0.93 1.01,-2.61 -0.21,-4.31 -0.70,-1.00 -3.53,-2.69 -3.53,-2.69 0.00,0.00 2.17,-3.00 2.38,-3.37 0.21,-0.37 1.00,-2.69 1.09,-3.26 0.09,-0.56 0.13,-0.84 -0.29,-0.32 -0.42,0.52 -4.63,6.05 -4.63,6.05 z M 308.94,32.79 c -1.20,0.99 -3.72,2.29 -4.43,2.36 -0.71,0.07 -2.59,-0.28 -1.77,-2.20 0.28,-0.62 2.16,-3.84 2.16,-3.84 0.70,0.39 5.24,2.70 4.04,3.69 z M 302.61,14.16 c -0.06,-0.05 -0.15,-0.03 -0.20,0.04 -1.53,2.10 -1.53,2.10 -1.53,2.10 -0.05,0.07 -0.04,0.16 0.03,0.20 2.61,1.91 2.61,1.91 2.61,1.91 0.06,0.05 0.15,0.03 0.20,-0.04 1.32,-1.81 1.32,-1.81 1.32,-1.81 2.54,1.85 2.54,1.85 2.54,1.85 0.06,0.05 0.15,0.03 0.20,-0.04 1.53,-2.10 1.53,-2.10 1.53,-2.10 0.05,-0.07 0.04,-0.16 -0.03,-0.20 -2.61,-1.91 -2.61,-1.91 -2.61,-1.91 -0.06,-0.05 -0.15,-0.03 -0.20,0.04 -1.32,1.81 -1.32,1.81 -1.32,1.81 z M 334.90,7.03 c 0.17,0.10 0.36,0.11 0.41,-0.10 0.05,-0.21 0.28,-0.68 0.62,-0.34 0.28,0.28 2.09,1.78 3.03,4.95 0.16,0.42 0.55,0.46 0.64,-0.14 0.22,-1.47 0.34,-4.02 0.45,-4.79 0.16,-1.08 0.68,-3.32 2.06,-2.16 0.31,0.26 0.64,0.61 0.64,0.61 0.29,0.37 0.66,0.79 0.84,0.36 0.27,-0.64 0.49,-1.70 0.19,-2.28 -0.13,-0.25 -1.84,-2.41 -3.00,-0.93 -1.44,1.83 -1.53,4.23 -1.72,6.91 -0.20,-0.56 -1.35,-4.16 -5.03,-6.21 -0.27,-0.15 -0.81,0.13 -0.86,0.98 -0.03,0.49 -0.17,1.69 0.18,2.03 0.35,0.34 1.37,1.00 1.54,1.10 z M 311.71,12.30 c 0.25,-0.16 13.84,-8.02 14.32,-8.32 0.46,-0.29 0.72,-0.41 0.91,-0.85 0.18,-0.44 0.23,-0.52 0.33,-0.82 0.11,-0.32 0.21,-0.67 -0.61,-0.19 -0.53,0.31 -14.04,8.11 -14.59,8.46 -0.55,0.35 -0.74,0.44 -0.83,0.87 -0.09,0.42 -0.13,0.67 -0.16,0.73 -0.10,0.28 -0.17,0.63 0.64,0.11 z M 355.51,14.30 c 0.18,-0.50 -0.04,-0.77 -0.29,-0.16 -0.25,0.61 -1.30,2.73 -1.14,5.22 0.04,0.58 0.42,1.70 1.29,1.73 0.45,0.00 1.03,-0.33 1.44,-1.73 0.07,-0.32 0.12,-0.57 0.15,-0.70 0.04,-0.19 -0.10,-0.42 -0.24,0.02 -0.33,0.86 -1.18,1.47 -1.82,0.31 -0.10,-0.23 -0.53,-1.28 0.26,-3.57 0.16,-0.44 0.36,-1.11 0.36,-1.11 z M 329.40,20.27 c 0.48,0.00 1.11,-0.35 1.55,-1.87 0.08,-0.34 0.13,-0.62 0.16,-0.75 0.05,-0.21 -0.10,-0.45 -0.26,0.02 -0.35,0.93 -1.27,1.58 -1.96,0.33 -0.11,-0.25 -0.58,-1.38 0.28,-3.86 0.17,-0.48 0.39,-1.20 0.39,-1.20 0.19,-0.54 -0.04,-0.84 -0.31,-0.17 -0.27,0.66 -1.40,2.94 -1.23,5.63 0.04,0.62 0.45,1.83 1.39,1.87 z M 352.75,6.37 c 0.79,0.58 1.94,1.04 1.94,1.04 -3.66,4.49 -10.85,7.67 -12.56,9.01 -0.51,0.39 -0.44,0.61 -0.12,0.53 0.28,-0.08 5.76,-1.61 10.76,-5.90 2.29,-1.97 2.23,-2.11 2.81,-3.31 0.50,0.26 0.84,0.67 1.03,0.91 0.28,0.34 0.43,0.60 0.56,0.23 0.48,-1.33 -0.20,-2.13 -0.84,-2.54 0.00,0.00 0.67,-2.07 -0.56,-4.14 -0.21,-0.35 -1.43,-1.46 -2.85,0.74 -0.55,0.84 -0.96,2.85 -0.17,3.42 z M 353.48,4.34 c 0.73,-1.02 1.08,-0.99 1.36,-0.82 0.82,0.77 0.70,2.02 0.67,2.31 0.00,0.00 -1.05,-0.49 -1.52,-0.69 -0.47,-0.20 -0.72,-0.50 -0.50,-0.80 z M 301.51,5.62 c 0.79,0.58 1.94,1.04 1.94,1.04 -3.66,4.48 -6.16,5.34 -8.30,6.60 -0.55,0.32 -0.44,0.61 -0.12,0.52 0.17,-0.04 3.05,-0.49 6.41,-3.05 1.82,-1.38 2.92,-3.74 2.92,-3.74 0.00,0.00 0.91,0.76 1.03,0.91 0.28,0.34 0.43,0.60 0.56,0.23 0.48,-1.33 -0.20,-2.13 -0.84,-2.54 0.00,0.00 0.67,-2.07 -0.56,-4.14 -0.21,-0.35 -1.43,-1.46 -2.85,0.74 -0.55,0.84 -0.96,2.85 -0.17,3.42 z M 302.24,3.59 c 0.73,-1.02 1.08,-0.99 1.36,-0.82 0.82,0.77 0.70,2.03 0.67,2.31 0.00,0.00 -1.05,-0.49 -1.52,-0.69 -0.47,-0.20 -0.72,-0.50 -0.50,-0.80 z M 357.88,37.21 c -0.24,0.68 -0.34,1.12 -0.31,1.38 0.03,0.26 0.12,1.10 0.12,1.10 -0.25,0.20 -1.33,0.87 -2.40,0.08 0.07,-0.23 0.21,-0.70 0.24,-0.95 0.12,-0.40 -0.13,-0.69 -0.32,-0.28 -0.20,0.41 -0.65,1.79 -0.99,2.10 -0.34,0.31 -0.73,1.45 -3.30,0.29 -0.45,-0.17 -1.24,-0.75 -2.46,0.48 -2.77,2.57 -4.68,2.77 -7.79,3.88 -0.38,0.17 -1.16,0.77 -0.23,0.67 0.94,-0.09 4.87,0.00 7.01,-2.46 0.45,-0.43 0.96,-1.58 2.66,-0.92 0.94,0.36 2.68,1.85 4.58,-1.10 1.12,0.75 2.82,0.45 3.09,-0.38 0.27,-0.82 0.58,-1.64 0.58,-2.20 0.00,-0.56 -0.05,-1.30 -0.05,-1.30 -0.04,-0.44 -0.19,-1.07 -0.44,-0.40 z M 249.71,44.14 c -7.31,1.94 -18.77,2.82 -23.93,1.58 -1.85,-0.45 -11.66,-1.68 -10.62,-13.58 0.14,-1.54 0.24,-5.95 6.02,-11.24 0.36,0.41 0.61,0.72 0.70,0.86 0.42,0.63 0.60,0.77 0.62,0.10 0.01,-0.33 0.11,-1.06 -0.11,-2.01 2.07,-1.70 4.73,-3.48 8.19,-5.27 1.86,-0.97 6.46,-3.77 6.46,-3.77 1.01,-3.08 1.01,-3.08 1.01,-3.08 -2.25,-0.49 -13.97,-1.74 -21.65,0.30 -2.06,0.59 -3.62,2.17 -3.55,4.34 0.02,1.56 0.43,2.35 1.27,2.81 2.05,1.03 3.96,2.62 5.38,3.99 -2.83,3.02 -6.39,8.75 -5.56,18.28 0.15,1.74 0.29,12.73 18.84,12.16 3.30,-0.10 9.48,-0.82 17.06,-4.60 1.36,-0.68 1.60,-1.32 -0.15,-0.86 z M 214.63,12.61 c -0.23,-0.22 -0.70,-0.48 0.30,-0.85 1.00,-0.37 4.59,-1.85 17.02,-0.76 -0.97,0.51 -8.52,5.23 -9.26,5.76 -0.15,0.11 -0.67,0.43 -1.38,1.01 -0.25,-0.34 -0.54,-0.69 -0.89,-1.04 -0.80,-0.80 -5.55,-3.90 -5.79,-4.11 z M 294.09,37.81 c 0.18,-0.66 0.73,-3.57 -0.78,-4.69 -0.42,-0.31 -2.22,-1.43 -5.05,-0.56 -0.11,0.02 -0.34,0.11 -0.63,0.23 -1.11,-2.13 -4.56,-25.54 -4.56,-25.54 0.00,0.00 1.55,1.46 1.80,1.72 0.25,0.26 0.55,0.12 0.41,-0.30 -0.14,-0.42 -3.00,-7.10 -3.10,-7.36 -0.10,-0.27 -0.20,-0.46 -0.33,-0.15 -0.13,0.31 -1.15,2.55 -1.15,2.55 0.03,0.18 0.27,0.73 0.43,1.87 0.17,1.18 1.91,16.01 3.69,24.44 0.28,1.33 0.58,2.59 0.89,3.72 -0.36,0.20 -0.71,0.40 -0.98,0.59 -1.06,0.73 -6.69,4.67 -11.84,1.17 -0.09,-0.05 -0.30,-0.23 -0.58,-0.48 2.17,-1.19 4.05,-2.17 5.07,-2.45 0.00,0.00 0.53,-1.50 0.67,-2.14 0.14,-0.64 0.06,-1.17 -0.67,-1.53 -0.72,-0.36 -9.57,-3.67 -16.75,0.75 -0.34,0.83 -0.54,1.86 -0.74,2.42 -0.20,0.56 -0.01,0.72 0.40,0.53 0.19,-0.09 2.15,-0.99 3.00,-0.65 1.07,0.43 2.61,1.22 3.58,2.08 0.20,0.17 0.42,0.38 0.67,0.60 -0.42,0.24 -0.79,0.45 -1.08,0.61 -1.78,0.99 -6.77,3.27 -10.20,1.82 -0.96,-0.33 -4.25,-1.71 -4.86,-7.51 -0.31,-2.02 -1.01,-10.47 -1.32,-13.02 -0.31,-2.55 -1.06,-10.08 -2.95,-15.09 -0.31,-0.84 -0.55,-0.02 -0.63,0.19 -0.08,0.21 -0.88,1.82 -0.63,2.62 0.24,0.80 2.28,8.10 2.63,13.20 0.13,2.55 1.41,15.58 2.33,18.00 0.92,2.42 3.83,6.29 9.94,5.10 2.07,-0.40 5.54,-2.23 8.85,-4.04 1.30,1.15 2.63,2.27 3.38,2.65 1.36,0.70 5.54,2.97 12.52,-2.33 0.14,-0.09 0.49,-0.33 0.97,-0.59 0.27,0.72 0.53,1.34 0.81,1.80 0.84,1.34 2.35,2.33 3.64,2.51 0.44,0.07 2.33,0.26 3.16,-2.71 z M 267.07,30.47 c 1.99,-0.21 4.30,-0.13 6.77,0.56 -0.42,0.23 -1.99,1.13 -3.63,2.06 -1.13,-1.03 -2.36,-2.11 -3.13,-2.63 z M 292.38,37.24 c -1.11,0.50 -2.83,-0.49 -3.65,-1.79 0.56,-0.08 1.16,-0.08 1.78,0.05 0.92,0.15 3.15,1.17 1.87,1.74 z" />
     </g>
</svg>
