<?xml version="1.0" encoding="UTF-8"?>
<svg version="1.1" id="Layer_1" x="0px" y="0px" width="578" height="50" viewBox="0 0 578 50"
xml:space="preserve" xmlns="http://www.w3.org/2000/svg" xmlns:svg="http://www.w3.org/2000/svg" xmlns:rdf="http://www.w3.org/1999/02/22-rdf-syntax-ns#"  xmlns:cc="http://creativecommons.org/ns#" xmlns:dc="http://purl.org/dc/elements/1.1/">
     <g>
<path d="M 271.39,11.21 c -1.92,2.63 -1.92,2.63 -1.92,2.63 -0.06,0.08 -0.05,0.20 0.03,0.25 3.27,2.38 3.27,2.38 3.27,2.38 0.08,0.06 0.19,0.04 0.25,-0.05 1.91,-2.63 1.91,-2.63 1.91,-2.63 0.06,-0.08 0.05,-0.20 -0.03,-0.26 -3.27,-2.38 -3.27,-2.38 -3.27,-2.38 -0.08,-0.06 -0.19,-0.04 -0.25,0.05 z M 250.97,30.90 c 0.48,-0.24 0.73,-0.40 0.92,-0.83 0.19,-0.43 0.24,-0.51 0.34,-0.82 0.11,-0.32 0.25,-0.52 -0.61,-0.19 -0.57,0.22 -8.42,3.60 -9.06,3.89 -0.59,0.27 -0.75,0.43 -0.84,0.86 -0.09,0.42 -0.14,0.66 -0.17,0.73 -0.10,0.28 -0.24,0.52 0.64,0.11 0.42,-0.20 8.18,-3.45 8.78,-3.75 z M 251.93,31.97 c -0.57,0.22 -8.42,3.60 -9.06,3.89 -0.59,0.27 -0.75,0.43 -0.84,0.85 -0.09,0.42 -0.14,0.66 -0.17,0.73 -0.10,0.28 -0.23,0.52 0.64,0.11 0.42,-0.20 8.18,-3.45 8.78,-3.75 0.48,-0.24 0.73,-0.40 0.92,-0.83 0.19,-0.43 0.24,-0.51 0.34,-0.82 0.11,-0.32 0.25,-0.52 -0.61,-0.19 z M 261.52,9.14 c 0.43,0.00 0.99,-0.31 1.38,-1.66 0.07,-0.31 0.11,-0.55 0.14,-0.67 0.04,-0.18 -0.09,-0.40 -0.23,0.02 -0.31,0.83 -1.13,1.41 -1.74,0.30 -0.10,-0.22 -0.51,-1.22 0.25,-3.42 0.15,-0.43 0.35,-1.06 0.35,-1.06 0.17,-0.48 -0.03,-0.74 -0.28,-0.16 -0.24,0.59 -1.25,2.61 -1.09,5.00 0.04,0.55 0.40,1.63 1.23,1.66 z M 265.00,17.43 c 0.21,-0.64 -0.10,-0.96 -0.40,-0.18 -0.30,0.78 -1.59,3.50 -1.19,6.59 0.09,0.71 0.69,2.08 1.88,2.05 0.61,-0.04 1.38,-0.49 1.85,-2.27 0.08,-0.40 0.12,-0.72 0.15,-0.88 0.05,-0.24 -0.16,-0.51 -0.33,0.04 -0.39,1.10 -1.51,1.92 -2.47,0.53 -0.16,-0.28 -0.82,-1.55 0.10,-4.47 0.19,-0.57 0.41,-1.41 0.41,-1.41 z M 292.87,12.30 c 0.25,-0.16 13.84,-8.02 14.32,-8.31 0.46,-0.29 0.72,-0.41 0.90,-0.85 0.18,-0.44 0.23,-0.52 0.33,-0.82 0.11,-0.32 0.21,-0.67 -0.61,-0.19 -0.53,0.31 -14.04,8.11 -14.59,8.46 -0.55,0.35 -0.74,0.44 -0.83,0.87 -0.09,0.42 -0.13,0.67 -0.15,0.73 -0.10,0.28 -0.17,0.63 0.64,0.10 z M 333.92,6.37 c 0.79,0.58 1.94,1.04 1.94,1.04 -3.66,4.49 -10.85,7.67 -12.56,9.01 -0.51,0.39 -0.44,0.61 -0.12,0.53 0.28,-0.08 5.76,-1.61 10.76,-5.90 2.29,-1.97 2.23,-2.11 2.81,-3.31 0.50,0.26 0.84,0.67 1.03,0.91 0.28,0.34 0.43,0.60 0.56,0.23 0.48,-1.33 -0.20,-2.13 -0.84,-2.54 0.00,0.00 0.67,-2.07 -0.56,-4.14 -0.21,-0.35 -1.43,-1.46 -2.85,0.74 -0.55,0.84 -0.96,2.85 -0.17,3.42 z M 334.65,4.34 c 0.73,-1.02 1.08,-0.99 1.36,-0.82 0.82,0.77 0.70,2.03 0.67,2.31 0.00,0.00 -1.05,-0.49 -1.52,-0.70 -0.47,-0.20 -0.72,-0.50 -0.50,-0.80 z M 336.68,14.30 c 0.18,-0.50 -0.04,-0.77 -0.29,-0.16 -0.25,0.61 -1.30,2.73 -1.14,5.22 0.04,0.58 0.42,1.70 1.29,1.73 0.45,0.00 1.03,-0.33 1.44,-1.74 0.07,-0.32 0.12,-0.57 0.15,-0.70 0.04,-0.19 -0.10,-0.42 -0.24,0.02 -0.33,0.86 -1.18,1.47 -1.82,0.31 -0.10,-0.23 -0.53,-1.28 0.26,-3.57 0.16,-0.44 0.36,-1.11 0.36,-1.11 z M 310.57,20.27 c 0.49,0.00 1.11,-0.35 1.55,-1.87 0.08,-0.34 0.13,-0.62 0.16,-0.75 0.05,-0.21 -0.10,-0.45 -0.26,0.02 -0.36,0.93 -1.28,1.58 -1.96,0.33 -0.11,-0.25 -0.58,-1.38 0.28,-3.86 0.17,-0.48 0.39,-1.20 0.39,-1.20 0.19,-0.54 -0.04,-0.84 -0.31,-0.17 -0.27,0.66 -1.40,2.94 -1.23,5.64 0.04,0.62 0.45,1.83 1.39,1.86 z M 316.07,7.03 c 0.17,0.10 0.36,0.11 0.41,-0.10 0.05,-0.21 0.28,-0.68 0.62,-0.34 0.28,0.28 2.09,1.78 3.03,4.95 0.16,0.42 0.55,0.46 0.64,-0.14 0.22,-1.47 0.34,-4.02 0.45,-4.79 0.16,-1.09 0.68,-3.33 2.06,-2.16 0.31,0.26 0.64,0.61 0.64,0.61 0.29,0.37 0.66,0.79 0.84,0.36 0.27,-0.64 0.49,-1.70 0.19,-2.28 -0.13,-0.25 -1.84,-2.41 -3.00,-0.93 -1.44,1.83 -1.53,4.23 -1.72,6.91 -0.20,-0.56 -1.35,-4.15 -5.02,-6.21 -0.27,-0.15 -0.81,0.13 -0.86,0.98 -0.03,0.49 -0.17,1.69 0.18,2.03 0.35,0.34 1.37,1.01 1.54,1.10 z M 283.15,23.91 c 0.00,0.00 1.25,-0.31 1.47,-0.38 0.22,-0.06 0.34,-0.35 -0.05,-0.55 -0.39,-0.20 -4.09,-1.67 -4.37,-1.79 -0.28,-0.11 -0.38,-0.24 -0.41,0.06 -0.02,0.30 -0.07,2.73 -0.07,2.73 0.00,0.00 -0.06,0.17 0.27,0.35 0.32,0.18 0.64,0.58 0.90,0.84 0.26,0.26 3.70,2.97 3.87,3.07 0.00,0.00 -1.72,3.02 -1.94,5.38 -0.22,2.36 0.04,5.63 3.27,4.57 0.87,-0.25 4.49,-1.69 5.30,-4.21 0.26,-0.93 1.01,-2.61 -0.21,-4.31 -0.70,-1.00 -3.53,-2.69 -3.53,-2.69 0.00,0.00 2.17,-3.00 2.38,-3.37 0.21,-0.37 1.00,-2.69 1.09,-3.26 0.09,-0.56 0.13,-0.84 -0.29,-0.32 -0.42,0.52 -4.63,6.05 -4.63,6.05 z M 290.10,32.79 c -1.20,0.99 -3.72,2.29 -4.43,2.36 -0.71,0.07 -2.59,-0.28 -1.77,-2.20 0.28,-0.62 2.16,-3.84 2.16,-3.84 0.70,0.39 5.25,2.70 4.05,3.69 z M 339.05,37.21 c -0.24,0.68 -0.34,1.12 -0.31,1.38 0.03,0.26 0.12,1.10 0.12,1.10 -0.25,0.20 -1.33,0.87 -2.40,0.08 0.07,-0.23 0.21,-0.70 0.24,-0.95 0.12,-0.40 -0.13,-0.69 -0.32,-0.28 -0.20,0.41 -0.65,1.79 -0.99,2.10 -0.34,0.31 -0.73,1.45 -3.30,0.29 -0.45,-0.17 -1.23,-0.75 -2.46,0.48 -2.77,2.57 -4.68,2.78 -7.79,3.88 -0.38,0.17 -1.16,0.76 -0.23,0.67 0.94,-0.09 4.87,0.00 7.01,-2.46 0.45,-0.43 0.96,-1.58 2.66,-0.92 0.94,0.36 2.68,1.85 4.58,-1.10 1.12,0.75 2.82,0.45 3.09,-0.37 0.27,-0.82 0.58,-1.64 0.58,-2.20 0.00,-0.56 -0.05,-1.30 -0.05,-1.30 -0.04,-0.44 -0.19,-1.07 -0.44,-0.40 z M 342.25,24.89 c -0.25,-0.27 -0.37,-0.01 -0.46,0.31 -0.09,0.32 -0.36,1.52 -0.54,2.27 0.00,0.00 0.71,1.16 0.97,1.75 0.25,0.59 -0.12,0.92 -0.86,1.01 -2.08,0.25 -3.73,-0.94 -4.30,-1.49 -0.57,-0.55 0.05,-1.52 0.51,-2.68 0.37,-0.93 -0.32,-1.04 -0.84,0.00 -1.76,4.63 -4.23,5.12 -4.88,5.30 -5.86,1.60 -5.36,-3.76 -5.34,-4.64 0.02,-0.88 -0.62,-0.55 -1.34,0.03 -2.47,1.98 -4.45,3.14 -5.52,3.62 -0.92,-1.80 -2.26,-2.93 -2.82,-3.34 -6.34,-4.62 -6.87,4.71 -6.67,5.71 0.97,3.97 7.45,1.56 8.46,1.44 1.02,-0.12 0.68,1.22 0.11,2.02 -1.41,1.97 -3.03,3.38 -4.50,4.58 -6.28,5.13 -9.44,4.72 -10.40,4.69 -6.17,-0.17 -5.60,-6.82 -5.26,-8.24 1.86,-1.57 3.45,-3.28 4.38,-5.04 0.38,-0.96 1.03,-3.15 -0.15,-5.91 -0.62,-1.21 -2.56,-4.60 -2.56,-4.60 0.00,0.00 1.43,0.04 1.57,0.04 0.14,0.00 0.41,-0.14 0.06,-0.54 -0.35,-0.40 -3.36,-3.40 -3.54,-3.65 -0.18,-0.24 -0.35,-0.42 -0.45,-0.06 -0.10,0.36 -0.36,1.88 -0.42,2.20 -0.06,0.31 -0.06,0.63 0.10,0.90 0.16,0.27 0.55,1.20 0.84,1.96 0.29,0.76 3.25,6.47 3.53,6.98 0.27,0.51 0.33,0.89 0.06,1.22 -9.53,10.05 -27.91,16.23 -28.50,16.57 -0.59,0.34 -0.43,0.61 0.56,0.43 1.48,-0.26 9.74,-1.64 12.09,-2.77 1.55,-0.75 6.97,-3.41 11.41,-6.89 -0.12,0.90 -0.24,2.22 -0.17,3.89 0.30,8.08 7.53,6.74 9.43,6.33 5.68,-1.25 12.64,-9.11 13.23,-10.68 0.58,-1.56 0.67,-2.98 0.54,-4.22 1.50,-0.81 4.71,-3.40 4.71,-3.40 0.13,3.45 2.87,4.48 3.72,4.63 3.96,0.60 5.94,-2.71 6.78,-3.78 0.72,1.89 2.45,2.26 3.34,2.43 3.41,0.68 4.08,-1.74 4.25,-2.29 1.07,-3.33 -0.86,-5.81 -1.11,-6.08 z M 313.62,31.57 c -2.03,-0.14 -1.85,-0.92 -1.57,-1.23 0.30,-0.33 2.78,-1.89 4.85,0.89 0.00,0.00 -0.86,0.50 -3.28,0.33 z M 276.19,13.78 c 0.17,-0.05 3.05,-0.49 6.41,-3.05 1.82,-1.38 2.92,-3.74 2.92,-3.74 0.00,0.00 0.91,0.76 1.03,0.91 0.28,0.34 0.43,0.60 0.56,0.23 0.48,-1.33 -0.20,-2.13 -0.84,-2.54 0.00,0.00 0.67,-2.07 -0.56,-4.14 -0.21,-0.35 -1.43,-1.46 -2.85,0.74 -0.55,0.84 -0.96,2.85 -0.17,3.42 0.79,0.58 1.93,1.04 1.93,1.04 -3.66,4.49 -6.16,5.34 -8.30,6.60 -0.55,0.32 -0.44,0.61 -0.12,0.53 z M 283.91,4.39 c -0.47,-0.20 -0.72,-0.50 -0.50,-0.80 0.73,-1.02 1.08,-0.99 1.36,-0.82 0.82,0.77 0.70,2.02 0.67,2.31 0.00,0.00 -1.05,-0.49 -1.52,-0.70 z M 283.77,14.16 c -0.06,-0.05 -0.15,-0.03 -0.20,0.04 -1.53,2.10 -1.53,2.10 -1.53,2.10 -0.05,0.07 -0.04,0.16 0.03,0.20 2.61,1.91 2.61,1.91 2.61,1.91 0.06,0.05 0.15,0.03 0.20,-0.04 1.32,-1.81 1.32,-1.81 1.32,-1.81 2.54,1.85 2.54,1.85 2.54,1.85 0.06,0.05 0.15,0.03 0.20,-0.04 1.53,-2.10 1.53,-2.10 1.53,-2.10 0.05,-0.07 0.04,-0.16 -0.03,-0.21 -2.62,-1.91 -2.62,-1.91 -2.62,-1.91 -0.06,-0.05 -0.15,-0.03 -0.20,0.04 -1.32,1.81 -1.32,1.81 -1.32,1.81 z M 269.63,5.68 c 0.70,0.55 1.74,1.00 1.74,1.00 -3.46,4.01 -8.24,7.74 -10.23,8.83 -0.51,0.28 -0.42,0.55 -0.12,0.48 0.15,-0.04 2.77,-0.92 5.94,-3.13 2.67,-1.86 5.24,-5.85 5.24,-5.85 0.00,0.00 0.81,0.72 0.92,0.86 0.24,0.32 0.38,0.56 0.50,0.23 0.47,-1.20 -0.13,-1.95 -0.71,-2.35 0.00,0.00 0.67,-1.88 -0.41,-3.81 -0.18,-0.32 -1.27,-1.37 -2.63,0.60 -0.53,0.75 -0.95,2.58 -0.25,3.13 z M 270.35,3.84 c 0.69,-0.92 1.02,-0.87 1.26,-0.71 0.73,0.72 0.59,1.87 0.55,2.13 0.00,0.00 -0.95,-0.48 -1.38,-0.68 -0.42,-0.20 -0.64,-0.48 -0.44,-0.74 z M 273.94,34.16 c 1.19,-0.49 3.16,-1.24 3.72,-4.22 0.21,-1.49 0.45,-3.36 -1.68,-6.98 -0.09,-0.16 0.19,-0.04 0.39,0.05 0.21,0.09 0.53,0.20 0.67,0.25 0.14,0.05 0.57,-0.05 0.35,-0.36 -0.22,-0.31 -3.19,-4.19 -3.29,-4.31 -0.09,-0.13 -0.12,-0.05 -0.21,0.08 -0.09,0.13 -0.57,1.61 -0.68,2.01 -0.11,0.40 0.00,0.96 0.20,1.49 0.20,0.53 2.77,6.35 2.90,6.71 0.13,0.36 0.35,0.61 0.02,0.89 -0.32,0.27 -2.11,1.49 -3.11,1.84 -1.89,-4.79 -5.20,-4.05 -6.17,-3.32 -0.72,0.54 -2.45,2.14 -2.34,4.75 0.10,0.77 0.58,2.29 3.21,2.47 0.72,0.05 1.90,0.11 3.14,-0.25 2.25,-0.65 2.20,0.16 1.67,1.01 -3.74,6.48 -26.88,12.77 -26.88,12.77 -0.49,0.26 -1.00,0.61 -0.93,0.82 0.07,0.21 0.21,0.19 0.60,0.08 0.39,-0.11 10.15,-1.01 10.61,-1.27 0.46,-0.26 11.76,-3.69 16.45,-8.84 0.47,-0.52 1.88,-2.38 1.37,-5.67 z M 267.03,32.39 c -0.88,-0.26 0.09,-1.29 0.78,-1.48 0.44,-0.12 1.57,-0.45 3.22,1.24 0.00,0.00 -1.76,0.70 -4.00,0.23 z M 259.92,32.99 c 0.20,-0.98 1.94,-7.12 -3.17,-9.11 -1.58,-0.62 -4.55,-1.28 -8.91,-0.86 -0.94,0.06 -5.22,0.30 -8.63,0.36 0.72,-0.85 1.58,-1.69 2.60,-2.48 0.46,0.45 0.82,0.82 0.91,0.95 0.24,0.41 0.53,0.35 0.59,0.00 0.04,-0.20 0.26,-0.93 -0.04,-1.98 0.32,-0.20 0.64,-0.40 0.99,-0.59 1.08,-0.60 13.13,-7.36 13.13,-7.36 0.46,-1.19 0.53,-1.48 0.69,-1.98 0.16,-0.49 0.13,-0.69 -0.40,-0.86 -0.53,-0.16 -14.40,-2.20 -20.33,0.13 -0.98,0.38 -1.50,0.81 -1.95,1.79 -0.45,0.98 -1.20,3.16 -0.21,4.41 0.99,1.25 3.51,2.75 4.00,3.12 0.17,0.13 0.60,0.51 1.11,0.97 -1.06,1.06 -2.13,2.34 -3.05,3.89 -0.79,-0.01 -1.44,-0.03 -1.88,-0.09 -0.54,-0.03 -1.04,-0.07 -0.39,0.51 0.23,0.21 0.64,0.63 1.47,1.06 -0.19,0.40 -0.38,0.82 -0.54,1.25 -0.24,0.66 -4.30,11.00 0.66,17.16 0.81,1.01 6.00,6.08 14.54,1.34 1.25,-0.69 7.47,-5.22 8.80,-11.64 z M 236.55,13.47 c -0.27,-0.22 -0.84,-0.63 0.03,-1.12 0.86,-0.49 3.67,-1.71 16.26,-0.67 -0.35,0.22 -6.03,3.32 -6.93,3.81 -0.41,0.22 -1.94,0.97 -3.74,2.39 -0.21,-0.26 -0.45,-0.52 -0.74,-0.79 -0.57,-0.55 -4.60,-3.39 -4.87,-3.61 z M 235.51,33.25 c 0.03,-0.61 0.02,-4.12 2.26,-7.85 1.65,0.51 4.27,0.86 8.47,0.56 0.73,-0.05 7.87,-0.49 10.55,1.57 0.88,0.66 3.23,2.21 2.07,5.46 -0.22,0.62 -3.89,8.96 -12.03,10.05 -1.40,0.19 -11.86,1.49 -11.32,-9.79 z" />
     </g>
</svg>
