<?xml version="1.0" encoding="UTF-8"?>
<svg version="1.1" id="Layer_1" x="0px" y="0px" width="578" height="55" viewBox="0 0 578 55"
xml:space="preserve" xmlns="http://www.w3.org/2000/svg" xmlns:svg="http://www.w3.org/2000/svg" xmlns:rdf="http://www.w3.org/1999/02/22-rdf-syntax-ns#"  xmlns:cc="http://creativecommons.org/ns#" xmlns:dc="http://purl.org/dc/elements/1.1/">
     <g>
<path d="M 240.03,27.42 c -1.92,2.63 -1.92,2.63 -1.92,2.63 -0.06,0.08 -0.05,0.20 0.03,0.25 3.27,2.38 3.27,2.38 3.27,2.38 0.08,0.06 0.19,0.04 0.25,-0.05 1.91,-2.63 1.91,-2.63 1.91,-2.63 0.06,-0.08 0.05,-0.20 -0.03,-0.25 -3.27,-2.38 -3.27,-2.38 -3.27,-2.38 -0.08,-0.06 -0.19,-0.04 -0.25,0.05 z M 270.16,41.00 c -1.92,2.63 -1.92,2.63 -1.92,2.63 -0.06,0.08 -0.05,0.20 0.03,0.25 3.27,2.38 3.27,2.38 3.27,2.38 0.08,0.06 0.19,0.04 0.25,-0.05 1.91,-2.63 1.91,-2.63 1.91,-2.63 0.06,-0.08 0.05,-0.20 -0.03,-0.25 -3.27,-2.38 -3.27,-2.38 -3.27,-2.38 -0.08,-0.06 -0.19,-0.04 -0.25,0.05 z M 281.61,41.69 c 0.12,-0.24 0.60,-1.22 0.77,-3.80 0.06,-0.88 0.06,-1.98 0.00,-3.30 2.28,0.08 4.21,0.29 4.21,0.29 0.43,-1.09 1.06,-3.17 1.06,-3.17 -0.26,0.00 -2.42,-0.02 -5.50,-0.28 -0.08,-0.80 -0.17,-1.65 -0.29,-2.56 -0.08,-0.60 -2.76,-21.39 -2.76,-21.39 0.00,0.00 1.54,1.47 1.78,1.73 0.25,0.27 0.55,0.13 0.41,-0.30 -0.14,-0.43 -3.24,-8.12 -3.34,-8.39 -0.10,-0.27 -0.20,-0.46 -0.33,-0.15 -0.13,0.31 -1.10,2.63 -1.10,2.63 0.02,0.14 0.27,1.16 0.32,1.54 0.36,2.96 2.40,18.66 3.38,26.71 -3.65,-0.39 -8.15,-1.10 -12.31,-2.41 0.00,0.00 1.42,-1.48 1.29,-3.56 -0.13,-2.08 -2.72,-18.66 -2.72,-18.66 0.00,0.00 1.54,1.47 1.78,1.73 0.25,0.26 0.55,0.13 0.41,-0.30 -0.14,-0.43 -2.97,-7.33 -3.07,-7.59 -0.10,-0.27 -0.20,-0.46 -0.33,-0.16 -0.13,0.31 -1.17,2.54 -1.17,2.54 0.03,0.18 0.26,0.74 0.42,1.87 0.15,1.08 0.36,2.60 0.59,4.28 0.00,0.00 2.27,14.39 2.39,15.63 0.12,1.24 0.08,2.03 -0.05,2.19 -0.42,0.46 -6.92,0.51 -8.63,1.14 -0.21,0.10 -0.34,0.23 -0.57,0.65 -0.23,0.42 -0.63,1.53 -0.80,1.84 -0.16,0.31 0.16,0.46 0.39,0.39 3.09,-0.77 10.72,1.30 14.21,2.46 -1.28,0.36 -10.11,4.07 -14.61,3.09 -0.40,-0.09 -2.49,-0.32 -3.65,-2.98 -0.09,-0.21 -0.67,-1.55 -0.82,-1.90 -0.18,-0.40 -0.54,-0.50 -0.71,-0.15 -0.33,0.66 -0.74,2.44 -0.74,2.44 0.61,1.29 2.31,4.64 2.67,7.64 0.03,0.31 0.12,0.71 -0.36,1.19 -0.48,0.48 -4.36,4.35 -13.53,6.01 -1.10,0.20 -8.29,1.68 -11.40,-3.76 -0.37,-0.64 -1.65,-4.49 0.59,-9.59 0.04,-0.09 0.07,-0.18 0.08,-0.26 0.08,0.01 0.15,0.02 0.23,0.02 0.76,-0.05 1.71,-0.74 2.25,-3.53 0.08,-0.63 0.13,-1.13 0.17,-1.38 0.05,-0.38 -0.21,-0.81 -0.41,0.06 -0.46,1.72 -1.84,2.98 -3.06,0.78 -0.20,-0.44 -1.05,-2.45 0.04,-7.01 0.22,-0.88 0.49,-2.20 0.49,-2.20 0.25,-1.00 -0.15,-1.51 -0.51,-0.29 -0.36,1.22 -1.91,5.46 -1.36,10.32 0.10,0.87 0.58,2.34 1.47,2.96 -0.07,0.10 -0.14,0.22 -0.20,0.38 -0.44,1.12 -5.07,10.91 2.06,15.43 0.92,0.50 5.83,3.95 16.59,-0.98 1.85,-0.85 5.29,-2.98 5.95,-3.57 0.66,-0.59 1.75,-1.12 2.31,-6.63 1.09,0.23 4.65,0.56 7.19,-0.23 2.54,-0.79 11.81,-4.09 15.18,-4.46 0.80,-0.09 1.72,-0.12 2.64,-0.12 0.34,2.92 0.59,5.51 0.62,6.93 -0.04,0.46 0.16,0.64 0.38,0.19 z M 229.14,13.97 c 0.66,-0.37 4.49,-1.86 5.12,-5.65 0.05,-0.50 -0.05,-0.87 -0.17,-1.12 0.05,0.01 0.11,0.05 0.17,0.11 0.27,0.27 1.99,1.69 2.88,4.71 0.15,0.40 0.53,0.44 0.61,-0.13 0.21,-1.40 0.32,-3.82 0.43,-4.56 0.16,-1.03 0.65,-3.16 1.96,-2.06 0.30,0.25 0.61,0.58 0.61,0.58 0.28,0.35 0.63,0.75 0.80,0.35 0.26,-0.61 0.46,-1.62 0.18,-2.17 -0.12,-0.24 -1.75,-2.29 -2.85,-0.89 -1.37,1.74 -1.46,4.03 -1.64,6.58 -0.19,-0.53 -1.29,-3.95 -4.78,-5.91 -0.25,-0.14 -0.77,0.13 -0.82,0.93 -0.03,0.47 -0.16,1.61 0.17,1.93 0.32,0.31 2.68,1.14 1.40,2.49 -0.57,0.61 -3.45,3.59 -4.06,4.31 -0.62,0.72 -0.68,0.85 -0.01,0.49 z M 241.71,14.58 c -0.20,0.62 -0.35,1.11 -0.08,1.82 0.27,0.71 1.00,2.33 1.12,2.56 0.12,0.23 0.15,0.49 -0.25,0.66 -0.40,0.17 -2.24,0.56 -2.58,-1.40 -0.34,-1.96 -0.37,-2.53 -0.54,-2.86 -0.17,-0.33 -0.33,-0.37 -0.46,-0.04 -0.13,0.33 -0.21,1.01 -0.23,1.12 -0.02,0.11 -0.02,0.19 0.05,0.31 0.07,0.12 0.80,2.31 0.47,2.91 -0.33,0.60 -1.98,1.69 -2.84,0.55 -0.41,-0.79 -0.16,-2.80 -0.16,-3.27 0.00,-0.47 -0.15,-0.63 -0.35,-0.25 -0.20,0.38 -0.31,0.63 -0.30,0.97 0.01,0.34 0.06,1.81 0.03,2.27 -0.03,0.46 0.00,1.96 0.88,2.38 0.88,0.42 2.17,0.03 3.14,-1.81 0.75,1.09 1.90,1.10 2.51,0.87 0.52,-0.19 1.10,-0.97 1.28,-2.06 0.17,-1.09 -0.11,-1.83 -0.45,-2.44 -0.45,-0.75 -0.75,-2.02 -0.75,-2.02 -0.16,-0.45 -0.28,-0.91 -0.48,-0.29 z M 278.42,46.68 c -0.55,0.28 -9.28,3.54 -9.85,3.86 -0.57,0.32 -0.77,0.40 -0.88,0.81 -0.11,0.41 -0.17,0.66 -0.20,0.72 -0.12,0.28 -0.21,0.62 0.63,0.14 0.26,-0.15 9.10,-3.46 9.57,-3.73 0.47,-0.27 0.75,-0.36 0.96,-0.79 0.21,-0.42 0.26,-0.50 0.38,-0.80 0.13,-0.32 0.25,-0.65 -0.60,-0.22 z M 262.63,47.41 c -0.55,0.28 -10.41,3.91 -10.98,4.23 -0.57,0.32 -0.77,0.39 -0.88,0.81 -0.11,0.42 -0.17,0.66 -0.20,0.72 -0.12,0.28 -0.21,0.62 0.63,0.15 0.26,-0.15 10.23,-3.83 10.69,-4.10 0.47,-0.27 0.75,-0.36 0.96,-0.79 0.21,-0.42 0.26,-0.50 0.38,-0.80 0.12,-0.32 0.25,-0.65 -0.60,-0.22 z M 242.26,40.99 c -0.10,-0.22 -0.51,-1.22 0.25,-3.42 0.15,-0.43 0.35,-1.06 0.35,-1.06 0.17,-0.48 -0.03,-0.74 -0.28,-0.15 -0.24,0.59 -1.25,2.61 -1.09,5.00 0.04,0.55 0.40,1.63 1.23,1.65 0.43,0.00 0.98,-0.31 1.38,-1.66 0.07,-0.30 0.11,-0.55 0.14,-0.67 0.04,-0.18 -0.09,-0.40 -0.23,0.02 -0.31,0.83 -1.13,1.41 -1.74,0.30 z M 249.08,9.94 c 0.43,0.00 0.98,-0.31 1.38,-1.66 0.07,-0.30 0.11,-0.55 0.14,-0.67 0.04,-0.18 -0.09,-0.40 -0.23,0.02 -0.31,0.83 -1.13,1.41 -1.74,0.30 -0.10,-0.22 -0.51,-1.22 0.25,-3.42 0.15,-0.43 0.35,-1.06 0.35,-1.06 0.17,-0.48 -0.03,-0.74 -0.28,-0.15 -0.24,0.59 -1.25,2.61 -1.09,5.00 0.04,0.55 0.40,1.63 1.23,1.65 z M 257.59,15.85 c 0.61,0.00 1.41,-0.53 1.99,-2.86 0.10,-0.53 0.17,-0.95 0.21,-1.16 0.06,-0.32 -0.12,-0.69 -0.33,0.03 -0.46,1.43 -1.64,2.42 -2.49,0.49 -0.14,-0.38 -0.71,-2.13 0.41,-5.93 0.23,-0.74 0.51,-1.84 0.51,-1.84 0.25,-0.83 -0.03,-1.29 -0.39,-0.27 -0.35,1.01 -1.82,4.51 -1.65,8.65 0.04,0.96 0.54,2.83 1.73,2.89 z M 249.43,23.84 c 0.09,0.72 0.64,2.09 1.70,2.06 0.55,-0.03 1.24,-0.48 1.65,-2.26 0.06,-0.40 0.10,-0.72 0.13,-0.88 0.04,-0.24 -0.15,-0.51 -0.30,0.04 -0.34,1.10 -1.35,1.91 -2.21,0.51 -0.14,-0.28 -0.75,-1.56 0.06,-4.47 0.16,-0.56 0.36,-1.41 0.36,-1.41 0.18,-0.64 -0.10,-0.96 -0.36,-0.18 -0.26,0.78 -1.40,3.49 -1.03,6.58 z M 324.06,8.03 c 0.17,0.09 0.36,0.11 0.41,-0.10 0.05,-0.21 0.29,-0.68 0.62,-0.34 0.28,0.28 2.09,1.78 3.03,4.95 0.16,0.42 0.55,0.46 0.64,-0.14 0.22,-1.47 0.33,-4.02 0.45,-4.79 0.17,-1.09 0.68,-3.32 2.06,-2.16 0.31,0.26 0.64,0.61 0.64,0.61 0.29,0.37 0.66,0.79 0.84,0.36 0.27,-0.64 0.49,-1.70 0.19,-2.28 -0.13,-0.26 -1.83,-2.41 -3.00,-0.93 -1.44,1.83 -1.53,4.23 -1.72,6.91 -0.20,-0.56 -1.35,-4.16 -5.02,-6.21 -0.27,-0.15 -0.81,0.13 -0.86,0.98 -0.03,0.49 -0.17,1.69 0.18,2.03 0.35,0.34 1.37,1.01 1.54,1.10 z M 300.86,13.30 c 0.25,-0.16 13.84,-8.02 14.32,-8.31 0.46,-0.29 0.72,-0.41 0.91,-0.85 0.18,-0.44 0.23,-0.51 0.33,-0.82 0.10,-0.32 0.21,-0.67 -0.61,-0.19 -0.53,0.31 -14.04,8.11 -14.59,8.46 -0.55,0.35 -0.74,0.44 -0.83,0.87 -0.09,0.42 -0.13,0.67 -0.16,0.73 -0.10,0.28 -0.17,0.63 0.64,0.10 z M 341.90,7.37 c 0.79,0.58 1.94,1.04 1.94,1.04 -3.66,4.48 -10.84,7.67 -12.56,9.01 -0.51,0.39 -0.44,0.61 -0.12,0.53 0.28,-0.08 5.76,-1.61 10.76,-5.90 2.29,-1.97 2.23,-2.11 2.81,-3.31 0.50,0.26 0.84,0.67 1.03,0.91 0.28,0.34 0.43,0.60 0.56,0.23 0.48,-1.33 -0.20,-2.13 -0.84,-2.54 0.00,0.00 0.67,-2.07 -0.56,-4.14 -0.21,-0.35 -1.43,-1.46 -2.85,0.74 -0.55,0.84 -0.96,2.85 -0.18,3.42 z M 342.63,5.34 c 0.73,-1.02 1.08,-0.99 1.36,-0.82 0.83,0.77 0.70,2.02 0.67,2.31 0.00,0.00 -1.05,-0.49 -1.52,-0.69 -0.47,-0.20 -0.72,-0.50 -0.50,-0.80 z M 344.66,15.30 c 0.18,-0.50 -0.04,-0.77 -0.29,-0.16 -0.25,0.61 -1.30,2.73 -1.14,5.22 0.04,0.58 0.42,1.70 1.29,1.73 0.45,0.00 1.03,-0.33 1.44,-1.73 0.07,-0.32 0.12,-0.57 0.15,-0.70 0.04,-0.19 -0.10,-0.42 -0.24,0.02 -0.33,0.86 -1.18,1.47 -1.82,0.31 -0.10,-0.23 -0.54,-1.28 0.26,-3.57 0.16,-0.45 0.36,-1.11 0.36,-1.11 z M 318.55,21.28 c 0.48,0.00 1.11,-0.35 1.55,-1.88 0.08,-0.34 0.13,-0.62 0.16,-0.75 0.05,-0.21 -0.10,-0.45 -0.26,0.02 -0.36,0.93 -1.28,1.58 -1.96,0.33 -0.11,-0.25 -0.58,-1.38 0.28,-3.86 0.17,-0.48 0.39,-1.20 0.39,-1.20 0.19,-0.54 -0.04,-0.84 -0.31,-0.17 -0.27,0.66 -1.40,2.94 -1.23,5.64 0.04,0.62 0.45,1.83 1.39,1.87 z M 291.13,24.91 c 0.00,0.00 1.25,-0.31 1.47,-0.38 0.22,-0.06 0.34,-0.34 -0.05,-0.55 -0.39,-0.20 -4.09,-1.67 -4.37,-1.79 -0.28,-0.11 -0.38,-0.24 -0.41,0.06 -0.02,0.30 -0.07,2.73 -0.07,2.73 0.00,0.00 -0.06,0.17 0.27,0.35 0.32,0.18 0.64,0.58 0.90,0.84 0.26,0.26 3.70,2.98 3.87,3.07 0.00,0.00 -1.72,3.02 -1.94,5.38 -0.22,2.36 0.04,5.63 3.27,4.58 0.87,-0.25 4.49,-1.69 5.30,-4.21 0.26,-0.93 1.01,-2.61 -0.21,-4.31 -0.70,-1.00 -3.53,-2.69 -3.53,-2.69 0.00,0.00 2.17,-3.00 2.38,-3.37 0.21,-0.37 1.00,-2.69 1.09,-3.26 0.09,-0.56 0.13,-0.84 -0.29,-0.32 -0.42,0.52 -4.63,6.05 -4.63,6.05 z M 298.09,33.80 c -1.20,0.99 -3.72,2.29 -4.43,2.36 -0.71,0.07 -2.59,-0.28 -1.77,-2.20 0.28,-0.62 2.16,-3.84 2.16,-3.84 0.70,0.39 5.24,2.70 4.04,3.69 z M 350.24,25.90 c -0.25,-0.28 -0.37,-0.01 -0.46,0.31 -0.09,0.32 -0.36,1.52 -0.54,2.27 0.00,0.00 0.71,1.16 0.97,1.75 0.25,0.59 -0.12,0.92 -0.86,1.01 -2.08,0.25 -3.73,-0.94 -4.30,-1.48 -0.57,-0.55 0.05,-1.52 0.51,-2.68 0.37,-0.93 -0.32,-1.04 -0.84,0.00 -1.76,4.63 -4.23,5.12 -4.88,5.30 -5.86,1.60 -5.36,-3.76 -5.33,-4.64 0.02,-0.88 -0.62,-0.55 -1.34,0.03 -2.47,1.98 -4.45,3.14 -5.52,3.62 -0.92,-1.80 -2.26,-2.93 -2.82,-3.34 -6.34,-4.63 -6.87,4.71 -6.67,5.71 0.96,3.97 7.44,1.56 8.46,1.44 1.02,-0.12 0.68,1.22 0.11,2.02 -1.41,1.97 -3.03,3.38 -4.50,4.58 -6.28,5.13 -9.43,4.72 -10.41,4.69 -6.17,-0.17 -5.60,-6.82 -5.26,-8.24 1.86,-1.57 3.45,-3.28 4.38,-5.04 0.38,-0.97 1.03,-3.16 -0.15,-5.91 -0.62,-1.21 -2.56,-4.60 -2.56,-4.60 0.00,0.00 1.43,0.04 1.57,0.04 0.14,0.00 0.41,-0.14 0.06,-0.54 -0.35,-0.40 -3.36,-3.41 -3.54,-3.65 -0.18,-0.24 -0.35,-0.41 -0.45,-0.06 -0.10,0.36 -0.36,1.88 -0.42,2.20 -0.06,0.31 -0.06,0.63 0.10,0.90 0.15,0.27 0.55,1.20 0.84,1.96 0.29,0.76 3.25,6.47 3.53,6.98 0.27,0.51 0.33,0.88 0.06,1.22 -9.53,10.05 -27.91,16.23 -28.50,16.58 -0.59,0.34 -0.43,0.61 0.56,0.43 1.48,-0.26 9.74,-1.64 12.09,-2.77 1.55,-0.75 6.97,-3.41 11.41,-6.89 -0.12,0.90 -0.24,2.22 -0.18,3.89 0.30,8.08 7.53,6.74 9.43,6.33 5.68,-1.25 12.64,-9.11 13.23,-10.68 0.58,-1.56 0.67,-2.98 0.54,-4.22 1.50,-0.81 4.71,-3.40 4.71,-3.40 0.13,3.45 2.87,4.48 3.72,4.63 3.96,0.60 5.94,-2.70 6.78,-3.78 0.72,1.89 2.45,2.26 3.34,2.43 3.41,0.68 4.08,-1.73 4.25,-2.29 1.07,-3.33 -0.86,-5.81 -1.11,-6.08 z M 321.61,32.57 c -2.03,-0.14 -1.85,-0.92 -1.57,-1.22 0.30,-0.33 2.78,-1.89 4.85,0.89 0.00,0.00 -0.86,0.50 -3.28,0.33 z M 347.04,38.21 c -0.24,0.68 -0.34,1.12 -0.32,1.38 0.03,0.26 0.12,1.09 0.12,1.09 -0.25,0.20 -1.33,0.87 -2.40,0.08 0.07,-0.23 0.21,-0.70 0.24,-0.95 0.12,-0.40 -0.13,-0.69 -0.32,-0.28 -0.20,0.41 -0.65,1.79 -0.99,2.10 -0.34,0.31 -0.74,1.45 -3.30,0.29 -0.45,-0.17 -1.23,-0.75 -2.46,0.48 -2.77,2.57 -4.68,2.77 -7.79,3.88 -0.38,0.17 -1.16,0.76 -0.23,0.67 0.94,-0.09 4.87,0.00 7.01,-2.46 0.45,-0.43 0.96,-1.58 2.66,-0.92 0.94,0.36 2.68,1.85 4.58,-1.10 1.12,0.75 2.82,0.45 3.09,-0.38 0.27,-0.82 0.58,-1.64 0.58,-2.20 0.00,-0.56 -0.05,-1.30 -0.05,-1.30 -0.04,-0.44 -0.19,-1.07 -0.44,-0.40 z M 291.76,15.17 c -0.06,-0.05 -0.15,-0.03 -0.20,0.04 -1.53,2.10 -1.53,2.10 -1.53,2.10 -0.05,0.07 -0.04,0.16 0.03,0.20 2.61,1.91 2.61,1.91 2.61,1.91 0.06,0.05 0.15,0.03 0.20,-0.04 1.32,-1.81 1.32,-1.81 1.32,-1.81 2.54,1.85 2.54,1.85 2.54,1.85 0.06,0.05 0.15,0.03 0.20,-0.04 1.53,-2.10 1.53,-2.10 1.53,-2.10 0.05,-0.07 0.04,-0.16 -0.03,-0.20 -2.61,-1.91 -2.61,-1.91 -2.61,-1.91 -0.06,-0.05 -0.15,-0.03 -0.20,0.04 -1.32,1.81 -1.32,1.81 -1.32,1.81 z M 284.18,14.78 c 0.17,-0.04 3.05,-0.49 6.41,-3.05 1.82,-1.38 2.92,-3.74 2.92,-3.74 0.00,0.00 0.91,0.76 1.03,0.91 0.28,0.34 0.43,0.60 0.56,0.23 0.48,-1.33 -0.20,-2.13 -0.84,-2.54 0.00,0.00 0.67,-2.07 -0.56,-4.14 -0.21,-0.35 -1.43,-1.46 -2.85,0.74 -0.55,0.84 -0.96,2.85 -0.18,3.42 0.79,0.58 1.94,1.04 1.94,1.04 -3.66,4.48 -6.16,5.34 -8.30,6.59 -0.55,0.32 -0.44,0.61 -0.12,0.53 z M 291.89,5.39 c -0.47,-0.20 -0.72,-0.50 -0.50,-0.80 0.73,-1.02 1.08,-0.98 1.36,-0.82 0.83,0.77 0.70,2.03 0.67,2.31 0.00,0.00 -1.05,-0.49 -1.52,-0.70 z" />
     </g>
</svg>
