<?xml version="1.0" encoding="UTF-8"?>
<svg version="1.1" id="Layer_1" x="0px" y="0px" width="578" height="51" viewBox="0 0 578 51"
xml:space="preserve" xmlns="http://www.w3.org/2000/svg" xmlns:svg="http://www.w3.org/2000/svg" xmlns:rdf="http://www.w3.org/1999/02/22-rdf-syntax-ns#"  xmlns:cc="http://creativecommons.org/ns#" xmlns:dc="http://purl.org/dc/elements/1.1/">
     <g>
<path d="M 292.79,33.69 c 0.39,3.09 0.69,5.88 0.73,7.37 -0.04,0.46 0.17,0.63 0.38,0.19 0.11,-0.24 0.59,-1.22 0.73,-3.80 0.11,-1.94 -0.04,-4.92 -0.60,-9.01 -0.08,-0.60 -3.00,-18.58 -3.00,-18.58 0.00,0.00 1.55,1.46 1.80,1.72 0.25,0.26 0.55,0.12 0.41,-0.30 -0.14,-0.42 -3.32,-8.10 -3.42,-8.36 -0.10,-0.27 -0.20,-0.46 -0.33,-0.15 -0.13,0.31 -1.08,2.64 -1.08,2.64 0.02,0.14 0.28,1.15 0.33,1.54 0.44,3.37 3.25,20.47 4.04,26.75 z M 290.23,33.31 c -1.06,-0.50 -2.62,-0.79 -4.54,0.12 -0.04,0.02 -0.12,0.08 -0.25,0.16 -0.06,-0.17 -0.11,-0.33 -0.16,-0.50 -1.17,-4.06 -4.07,-23.17 -4.07,-23.17 0.00,0.00 1.41,1.38 1.66,1.64 0.25,0.26 0.55,0.12 0.41,-0.30 -0.14,-0.42 -3.32,-8.09 -3.42,-8.36 -0.10,-0.27 -0.21,-0.46 -0.33,-0.15 -0.13,0.31 -1.15,2.55 -1.15,2.55 0.03,0.18 0.27,0.73 0.43,1.87 0.16,1.11 0.39,2.66 0.64,4.39 0.00,0.00 3.08,18.97 3.30,20.38 0.08,0.51 0.25,1.65 0.66,3.00 -2.57,1.63 -6.80,3.96 -10.06,3.70 -1.11,-0.09 -5.28,-1.05 -6.40,-4.60 -0.44,-1.39 -1.65,-5.74 -1.78,-6.80 -0.13,-1.06 -1.67,-9.31 -4.99,-13.38 -0.31,-0.35 -0.55,-0.09 -0.75,0.27 -0.20,0.35 -0.48,1.56 -0.07,2.53 0.42,0.97 4.06,9.03 4.95,15.14 0.00,0.40 -0.07,0.69 -0.50,1.15 -0.43,0.46 -3.53,4.03 -5.94,5.64 -1.40,0.94 -5.93,3.86 -8.35,3.37 -1.28,-0.26 -4.26,-2.87 -1.98,-8.48 0.16,-0.50 -0.27,-0.94 -0.99,0.59 -0.86,1.82 -2.47,9.71 2.44,10.96 1.24,0.32 5.85,0.01 12.28,-5.97 0.85,-0.80 2.68,-2.74 2.96,-3.65 0.28,-0.90 0.48,-1.78 0.48,-1.78 0.32,0.82 1.15,5.89 6.09,7.80 0.55,0.21 3.91,1.55 9.58,-1.37 0.62,-0.32 2.44,-1.48 4.14,-2.48 0.51,0.91 1.15,1.79 1.99,2.51 2.14,1.84 4.68,1.45 5.23,-0.59 1.31,-4.83 -0.53,-5.75 -1.52,-6.22 z M 290.41,37.96 c -0.35,0.08 -2.37,0.01 -3.25,-1.14 -0.07,-0.09 -0.19,-0.26 -0.34,-0.49 0.37,-0.18 0.67,-0.29 0.85,-0.32 1.11,-0.15 2.74,0.38 3.04,1.09 0.15,0.31 0.05,0.78 -0.30,0.86 z M 261.27,12.09 c 0.45,-0.17 0.96,-0.85 1.11,-1.79 0.15,-0.94 -0.10,-1.59 -0.39,-2.13 -0.39,-0.66 -0.66,-1.76 -0.66,-1.76 -0.14,-0.39 -0.24,-0.80 -0.42,-0.25 -0.17,0.54 -0.31,0.96 -0.07,1.58 0.24,0.62 0.88,2.03 0.98,2.23 0.11,0.20 0.13,0.43 -0.22,0.58 -0.35,0.15 -1.95,0.49 -2.25,-1.22 -0.30,-1.71 -0.32,-2.20 -0.47,-2.49 -0.15,-0.29 -0.29,-0.32 -0.40,-0.03 -0.11,0.29 -0.18,0.88 -0.20,0.98 -0.02,0.10 -0.02,0.17 0.04,0.27 0.06,0.11 0.70,2.01 0.41,2.54 -0.29,0.52 -1.72,1.47 -2.48,0.48 -0.36,-0.69 -0.14,-2.44 -0.14,-2.85 0.00,-0.41 -0.13,-0.55 -0.31,-0.22 -0.17,0.33 -0.27,0.55 -0.26,0.85 0.01,0.30 0.05,1.58 0.03,1.98 -0.03,0.40 0.00,1.71 0.77,2.07 0.77,0.37 1.89,0.03 2.74,-1.57 0.66,0.95 1.65,0.96 2.19,0.76 z M 241.84,6.61 c -0.03,0.40 0.00,1.71 0.77,2.07 0.77,0.37 1.89,0.03 2.74,-1.57 0.66,0.95 1.65,0.96 2.19,0.76 0.46,-0.17 0.96,-0.85 1.11,-1.79 0.15,-0.94 -0.10,-1.59 -0.39,-2.13 -0.39,-0.66 -0.66,-1.76 -0.66,-1.76 -0.14,-0.39 -0.25,-0.80 -0.42,-0.25 -0.18,0.54 -0.31,0.96 -0.07,1.58 0.24,0.62 0.87,2.03 0.98,2.23 0.11,0.20 0.13,0.43 -0.22,0.58 -0.35,0.15 -1.95,0.49 -2.25,-1.22 -0.30,-1.71 -0.32,-2.21 -0.47,-2.49 -0.15,-0.29 -0.29,-0.32 -0.40,-0.04 -0.11,0.29 -0.18,0.88 -0.20,0.98 -0.02,0.10 -0.02,0.17 0.04,0.27 0.06,0.10 0.70,2.01 0.41,2.54 -0.29,0.52 -1.72,1.47 -2.48,0.48 -0.36,-0.69 -0.14,-2.44 -0.14,-2.85 0.00,-0.41 -0.13,-0.55 -0.31,-0.22 -0.17,0.33 -0.27,0.55 -0.26,0.85 0.01,0.30 0.05,1.57 0.03,1.98 z M 247.87,9.35 c -1.53,2.10 -1.53,2.10 -1.53,2.10 -0.05,0.07 -0.04,0.16 0.03,0.20 2.61,1.91 2.61,1.91 2.61,1.91 0.06,0.05 0.15,0.03 0.20,-0.04 1.53,-2.10 1.53,-2.10 1.53,-2.10 0.05,-0.07 0.04,-0.16 -0.03,-0.20 -2.62,-1.91 -2.62,-1.91 -2.62,-1.91 -0.06,-0.05 -0.15,-0.03 -0.20,0.04 z M 250.42,14.23 c -1.32,1.81 -1.32,1.81 -1.32,1.81 -2.54,-1.85 -2.54,-1.85 -2.54,-1.85 -0.06,-0.05 -0.15,-0.03 -0.20,0.04 -1.53,2.10 -1.53,2.10 -1.53,2.10 -0.05,0.07 -0.04,0.16 0.03,0.20 2.61,1.91 2.61,1.91 2.61,1.91 0.06,0.05 0.15,0.03 0.20,-0.04 1.32,-1.81 1.32,-1.81 1.32,-1.81 2.54,1.85 2.54,1.85 2.54,1.85 0.06,0.05 0.15,0.03 0.20,-0.04 1.53,-2.10 1.53,-2.10 1.53,-2.10 0.05,-0.07 0.04,-0.16 -0.03,-0.20 -2.61,-1.91 -2.61,-1.91 -2.61,-1.91 -0.06,-0.05 -0.15,-0.03 -0.20,0.04 z M 229.14,7.81 c 0.16,0.07 0.32,0.07 0.35,-0.11 0.03,-0.18 0.21,-0.59 0.52,-0.32 0.26,0.23 1.93,1.39 2.92,4.03 0.17,0.35 0.51,0.36 0.56,-0.15 0.11,-1.26 0.08,-3.42 0.14,-4.09 0.09,-0.93 0.42,-2.86 1.69,-1.95 0.29,0.21 0.60,0.48 0.60,0.48 0.28,0.30 0.62,0.63 0.75,0.26 0.20,-0.56 0.34,-1.47 0.05,-1.94 -0.13,-0.21 -1.74,-1.94 -2.68,-0.62 -1.17,1.63 -1.12,3.67 -1.14,5.96 -0.21,-0.47 -1.41,-3.45 -4.74,-4.99 -0.24,-0.11 -0.70,0.16 -0.70,0.88 0.00,0.42 -0.06,1.44 0.26,1.71 0.32,0.27 1.26,0.78 1.41,0.85 z M 251.38,30.62 c 0.21,-0.42 0.26,-0.50 0.38,-0.80 0.12,-0.32 0.25,-0.65 -0.60,-0.22 -0.55,0.28 -6.74,2.96 -7.31,3.27 -0.57,0.32 -0.77,0.40 -0.88,0.81 -0.11,0.42 -0.17,0.66 -0.20,0.72 -0.12,0.28 -0.21,0.62 0.63,0.14 0.26,-0.15 6.56,-2.88 7.02,-3.14 0.47,-0.27 0.75,-0.36 0.96,-0.79 z M 252.86,6.70 c 0.26,-0.15 9.99,-4.20 10.46,-4.46 0.47,-0.27 0.75,-0.36 0.96,-0.79 0.21,-0.42 0.26,-0.50 0.38,-0.80 0.12,-0.32 0.25,-0.65 -0.60,-0.22 -0.55,0.28 -10.17,4.27 -10.74,4.59 -0.57,0.32 -0.77,0.40 -0.88,0.81 -0.11,0.42 -0.17,0.66 -0.20,0.72 -0.12,0.28 -0.21,0.62 0.63,0.14 z M 242.14,40.41 c -0.55,0.28 -8.95,3.38 -9.52,3.70 -0.57,0.32 -0.77,0.40 -0.88,0.81 -0.11,0.42 -0.17,0.66 -0.20,0.72 -0.12,0.28 -0.21,0.62 0.63,0.14 0.26,-0.15 8.77,-3.30 9.24,-3.57 0.47,-0.27 0.75,-0.36 0.96,-0.79 0.21,-0.42 0.26,-0.50 0.38,-0.80 0.12,-0.31 0.25,-0.65 -0.60,-0.22 z M 266.63,43.88 c -0.33,0.88 -1.20,1.49 -1.85,0.32 -0.11,-0.23 -0.54,-1.30 0.26,-3.64 0.16,-0.45 0.37,-1.13 0.37,-1.13 0.18,-0.51 -0.04,-0.79 -0.29,-0.17 -0.26,0.62 -1.33,2.78 -1.16,5.32 0.04,0.59 0.43,1.73 1.31,1.76 0.46,0.00 1.05,-0.33 1.47,-1.77 0.07,-0.32 0.12,-0.58 0.15,-0.71 0.04,-0.19 -0.10,-0.42 -0.25,0.02 z M 258.64,24.15 c 0.18,-0.51 -0.04,-0.79 -0.29,-0.17 -0.26,0.63 -1.32,2.78 -1.16,5.32 0.04,0.59 0.43,1.73 1.31,1.76 0.46,0.00 1.05,-0.33 1.47,-1.77 0.07,-0.32 0.12,-0.58 0.15,-0.71 0.04,-0.19 -0.10,-0.42 -0.25,0.02 -0.33,0.88 -1.20,1.49 -1.85,0.31 -0.10,-0.23 -0.54,-1.30 0.26,-3.64 0.16,-0.45 0.37,-1.13 0.37,-1.13 z M 272.19,10.96 c 0.43,0.00 0.99,-0.34 1.38,-1.83 0.07,-0.34 0.11,-0.61 0.14,-0.74 0.04,-0.20 -0.09,-0.44 -0.23,0.02 -0.31,0.91 -1.13,1.55 -1.74,0.33 -0.10,-0.24 -0.51,-1.35 0.25,-3.77 0.15,-0.47 0.35,-1.17 0.35,-1.17 0.17,-0.53 -0.03,-0.82 -0.28,-0.17 -0.24,0.65 -1.25,2.88 -1.09,5.51 0.04,0.61 0.40,1.79 1.23,1.82 z M 230.39,18.25 c 0.23,-0.93 -0.14,-1.42 -0.47,-0.27 -0.34,1.15 -1.79,5.12 -1.27,9.67 0.12,1.05 0.84,3.08 2.23,3.05 0.71,-0.04 1.60,-0.69 2.11,-3.31 0.08,-0.59 0.13,-1.06 0.16,-1.29 0.05,-0.35 -0.20,-0.75 -0.38,0.06 -0.43,1.61 -1.73,2.79 -2.86,0.73 -0.19,-0.41 -0.98,-2.30 0.04,-6.57 0.21,-0.83 0.46,-2.06 0.46,-2.06 z M 334.44,7.58 c 0.17,0.09 0.36,0.11 0.41,-0.10 0.05,-0.21 0.28,-0.68 0.62,-0.34 0.28,0.28 2.09,1.78 3.03,4.95 0.16,0.42 0.55,0.46 0.64,-0.14 0.22,-1.47 0.34,-4.02 0.45,-4.79 0.16,-1.09 0.68,-3.32 2.06,-2.16 0.31,0.26 0.64,0.61 0.64,0.61 0.29,0.37 0.66,0.79 0.84,0.36 0.27,-0.64 0.49,-1.70 0.19,-2.28 -0.13,-0.26 -1.84,-2.41 -3.00,-0.93 -1.44,1.83 -1.53,4.23 -1.72,6.91 -0.20,-0.56 -1.35,-4.16 -5.02,-6.21 -0.27,-0.15 -0.81,0.13 -0.86,0.98 -0.03,0.49 -0.17,1.69 0.18,2.03 0.35,0.34 1.37,1.01 1.54,1.10 z M 311.24,12.85 c 0.25,-0.16 13.84,-8.02 14.32,-8.31 0.46,-0.29 0.72,-0.41 0.91,-0.85 0.18,-0.44 0.23,-0.51 0.33,-0.82 0.11,-0.32 0.21,-0.67 -0.61,-0.19 -0.53,0.31 -14.04,8.11 -14.59,8.46 -0.55,0.35 -0.74,0.44 -0.83,0.86 -0.09,0.42 -0.13,0.67 -0.16,0.73 -0.10,0.28 -0.17,0.63 0.64,0.10 z M 328.93,20.82 c 0.48,0.00 1.11,-0.35 1.55,-1.88 0.08,-0.34 0.13,-0.62 0.16,-0.75 0.05,-0.21 -0.10,-0.45 -0.26,0.02 -0.35,0.93 -1.27,1.58 -1.96,0.33 -0.11,-0.25 -0.58,-1.38 0.28,-3.86 0.17,-0.48 0.39,-1.20 0.39,-1.20 0.19,-0.54 -0.04,-0.84 -0.31,-0.17 -0.27,0.66 -1.40,2.94 -1.23,5.64 0.04,0.62 0.45,1.83 1.39,1.87 z M 355.04,14.85 c 0.18,-0.50 -0.04,-0.77 -0.29,-0.16 -0.25,0.61 -1.30,2.73 -1.14,5.22 0.04,0.58 0.42,1.70 1.29,1.73 0.45,0.00 1.03,-0.33 1.44,-1.74 0.07,-0.32 0.12,-0.57 0.15,-0.70 0.04,-0.19 -0.10,-0.42 -0.24,0.02 -0.33,0.86 -1.18,1.47 -1.82,0.31 -0.10,-0.23 -0.53,-1.28 0.26,-3.57 0.16,-0.45 0.36,-1.11 0.36,-1.11 z M 352.28,6.92 c 0.79,0.58 1.93,1.04 1.93,1.04 -3.66,4.48 -10.84,7.67 -12.55,9.01 -0.51,0.39 -0.44,0.61 -0.12,0.53 0.28,-0.08 5.76,-1.61 10.76,-5.90 2.29,-1.97 2.23,-2.11 2.81,-3.31 0.50,0.26 0.84,0.67 1.03,0.91 0.28,0.34 0.43,0.60 0.56,0.23 0.48,-1.33 -0.20,-2.13 -0.85,-2.54 0.00,0.00 0.67,-2.07 -0.56,-4.14 -0.21,-0.35 -1.43,-1.46 -2.85,0.74 -0.55,0.84 -0.96,2.85 -0.17,3.42 z M 353.01,4.89 c 0.73,-1.02 1.08,-0.98 1.36,-0.82 0.82,0.77 0.70,2.03 0.67,2.31 0.00,0.00 -1.05,-0.49 -1.52,-0.70 -0.47,-0.20 -0.72,-0.50 -0.50,-0.80 z M 301.51,24.46 c 0.00,0.00 1.25,-0.31 1.47,-0.38 0.22,-0.06 0.34,-0.34 -0.05,-0.55 -0.39,-0.20 -4.09,-1.67 -4.37,-1.79 -0.28,-0.11 -0.38,-0.24 -0.41,0.06 -0.02,0.30 -0.07,2.73 -0.07,2.73 0.00,0.00 -0.06,0.17 0.26,0.35 0.32,0.18 0.64,0.58 0.90,0.84 0.26,0.26 3.70,2.98 3.87,3.07 0.00,0.00 -1.72,3.02 -1.94,5.38 -0.22,2.36 0.04,5.63 3.27,4.57 0.87,-0.25 4.49,-1.69 5.30,-4.21 0.26,-0.93 1.01,-2.61 -0.21,-4.31 -0.70,-1.00 -3.53,-2.69 -3.53,-2.69 0.00,0.00 2.17,-3.00 2.38,-3.37 0.21,-0.37 1.00,-2.69 1.09,-3.26 0.09,-0.56 0.13,-0.84 -0.29,-0.32 -0.42,0.52 -4.63,6.05 -4.63,6.05 z M 308.47,33.34 c -1.20,0.99 -3.72,2.29 -4.43,2.36 -0.71,0.07 -2.59,-0.28 -1.77,-2.20 0.28,-0.62 2.16,-3.84 2.16,-3.84 0.70,0.39 5.24,2.70 4.04,3.69 z M 360.62,25.44 c -0.25,-0.28 -0.37,-0.01 -0.46,0.31 -0.09,0.32 -0.36,1.52 -0.54,2.27 0.00,0.00 0.71,1.16 0.97,1.75 0.25,0.59 -0.12,0.92 -0.86,1.01 -2.08,0.25 -3.73,-0.94 -4.30,-1.49 -0.57,-0.55 0.05,-1.52 0.51,-2.68 0.37,-0.93 -0.32,-1.04 -0.84,0.00 -1.76,4.63 -4.23,5.12 -4.88,5.30 -5.86,1.60 -5.36,-3.76 -5.34,-4.64 0.02,-0.88 -0.62,-0.55 -1.34,0.03 -2.47,1.98 -4.45,3.14 -5.52,3.62 -0.92,-1.80 -2.26,-2.93 -2.82,-3.34 -6.34,-4.63 -6.87,4.71 -6.67,5.71 0.97,3.97 7.45,1.56 8.46,1.44 1.02,-0.12 0.68,1.22 0.11,2.02 -1.41,1.97 -3.03,3.38 -4.50,4.58 -6.28,5.13 -9.44,4.72 -10.41,4.69 -6.17,-0.17 -5.60,-6.82 -5.26,-8.24 1.86,-1.57 3.45,-3.28 4.38,-5.04 0.38,-0.96 1.03,-3.15 -0.15,-5.91 -0.62,-1.21 -2.56,-4.60 -2.56,-4.60 0.00,0.00 1.43,0.04 1.57,0.04 0.14,0.00 0.41,-0.14 0.06,-0.55 -0.35,-0.40 -3.36,-3.40 -3.54,-3.65 -0.18,-0.24 -0.35,-0.41 -0.45,-0.06 -0.10,0.36 -0.36,1.88 -0.42,2.20 -0.06,0.32 -0.06,0.63 0.10,0.90 0.15,0.27 0.55,1.20 0.84,1.96 0.29,0.76 3.25,6.48 3.53,6.98 0.27,0.51 0.33,0.88 0.06,1.22 -9.53,10.05 -27.91,16.23 -28.50,16.57 -0.59,0.34 -0.43,0.61 0.56,0.43 1.48,-0.26 9.74,-1.64 12.09,-2.77 1.55,-0.75 6.97,-3.41 11.41,-6.89 -0.12,0.90 -0.24,2.22 -0.17,3.89 0.30,8.08 7.53,6.74 9.43,6.33 5.68,-1.25 12.64,-9.11 13.23,-10.68 0.58,-1.56 0.67,-2.98 0.54,-4.22 1.50,-0.81 4.71,-3.40 4.71,-3.40 0.13,3.45 2.88,4.48 3.72,4.63 3.96,0.60 5.94,-2.71 6.78,-3.78 0.72,1.89 2.45,2.26 3.34,2.43 3.41,0.68 4.08,-1.74 4.26,-2.29 1.07,-3.33 -0.86,-5.81 -1.11,-6.08 z M 331.98,32.12 c -2.02,-0.14 -1.85,-0.92 -1.57,-1.22 0.30,-0.33 2.78,-1.89 4.85,0.89 0.00,0.00 -0.86,0.50 -3.28,0.33 z M 294.56,14.33 c 0.17,-0.04 3.05,-0.49 6.41,-3.05 1.82,-1.38 2.92,-3.74 2.92,-3.74 0.00,0.00 0.91,0.76 1.03,0.91 0.28,0.34 0.43,0.60 0.56,0.23 0.48,-1.33 -0.20,-2.13 -0.84,-2.54 0.00,0.00 0.67,-2.07 -0.56,-4.14 -0.21,-0.35 -1.43,-1.46 -2.85,0.74 -0.55,0.84 -0.96,2.85 -0.17,3.42 0.79,0.58 1.93,1.04 1.93,1.04 -3.66,4.48 -6.16,5.34 -8.30,6.59 -0.55,0.32 -0.44,0.61 -0.12,0.53 z M 302.27,4.93 c -0.47,-0.20 -0.72,-0.50 -0.50,-0.80 0.73,-1.02 1.08,-0.98 1.36,-0.82 0.82,0.77 0.70,2.03 0.67,2.31 0.00,0.00 -1.05,-0.49 -1.52,-0.70 z M 302.14,14.71 c -0.06,-0.05 -0.15,-0.03 -0.20,0.04 -1.53,2.10 -1.53,2.10 -1.53,2.10 -0.05,0.07 -0.04,0.16 0.03,0.21 2.61,1.91 2.61,1.91 2.61,1.91 0.06,0.05 0.15,0.03 0.20,-0.04 1.32,-1.81 1.32,-1.81 1.32,-1.81 2.54,1.85 2.54,1.85 2.54,1.85 0.06,0.05 0.15,0.03 0.20,-0.04 1.53,-2.10 1.53,-2.10 1.53,-2.10 0.05,-0.07 0.04,-0.16 -0.03,-0.20 -2.61,-1.91 -2.61,-1.91 -2.61,-1.91 -0.06,-0.05 -0.15,-0.03 -0.20,0.04 -1.32,1.81 -1.32,1.81 -1.32,1.81 z M 357.41,37.76 c -0.24,0.68 -0.34,1.12 -0.31,1.38 0.03,0.26 0.12,1.10 0.12,1.10 -0.25,0.20 -1.33,0.87 -2.40,0.08 0.07,-0.23 0.21,-0.70 0.24,-0.95 0.12,-0.40 -0.13,-0.69 -0.32,-0.28 -0.20,0.41 -0.65,1.79 -0.99,2.10 -0.34,0.31 -0.73,1.45 -3.30,0.29 -0.45,-0.17 -1.24,-0.75 -2.46,0.48 -2.77,2.57 -4.68,2.77 -7.79,3.88 -0.38,0.17 -1.16,0.76 -0.23,0.67 0.94,-0.09 4.87,0.00 7.01,-2.46 0.45,-0.43 0.96,-1.58 2.66,-0.92 0.94,0.36 2.68,1.85 4.58,-1.10 1.12,0.75 2.82,0.45 3.09,-0.38 0.27,-0.82 0.58,-1.64 0.58,-2.20 0.00,-0.56 -0.05,-1.30 -0.05,-1.30 -0.04,-0.44 -0.19,-1.07 -0.44,-0.40 z M 268.29,28.92 c 0.15,-0.05 1.90,-0.76 4.38,-3.06 2.39,-2.21 3.67,-5.46 3.67,-5.46 0.00,0.00 0.87,0.65 0.99,0.79 0.27,0.30 0.42,0.52 0.52,0.19 0.38,-1.24 -0.28,-1.94 -0.89,-2.28 0.00,0.00 0.52,-1.92 -0.71,-3.76 -0.21,-0.31 -1.38,-1.27 -2.57,0.81 -0.47,0.79 -0.75,2.65 0.00,3.14 0.75,0.49 1.82,0.86 1.82,0.86 -2.10,3.66 -5.35,6.91 -7.11,8.30 -0.46,0.36 -0.38,0.58 -0.08,0.49 z M 274.74,18.09 c -0.44,-0.16 -0.68,-0.42 -0.49,-0.71 0.62,-0.97 0.95,-0.95 1.20,-0.81 0.79,0.66 0.73,1.82 0.72,2.08 0.00,0.00 -0.98,-0.40 -1.43,-0.56 z M 240.83,33.74 c 1.87,-3.53 1.06,-5.83 1.06,-5.83 0.45,0.04 3.53,0.44 7.56,-3.35 0.52,-0.49 1.30,-1.08 1.62,-0.76 0.32,0.32 0.82,0.84 0.50,3.26 -0.11,0.80 0.04,1.47 0.47,0.54 0.36,-0.79 0.81,-3.07 0.59,-5.03 -0.04,-0.34 -0.53,-2.79 -1.84,-1.90 -0.29,0.19 -4.84,3.59 -5.88,3.82 -1.04,0.22 -3.78,0.45 -5.01,-2.16 -0.22,-0.39 -0.43,-1.10 -0.69,-0.37 -0.26,0.73 -0.43,2.27 -0.43,2.27 0.35,0.73 1.95,3.87 2.01,4.82 0.06,0.95 0.94,1.87 -2.76,4.51 -3.70,2.64 -10.07,7.62 -23.83,11.42 -0.96,0.40 -0.92,0.74 0.18,0.60 1.10,-0.13 12.10,-1.94 12.10,-1.94 1.85,-0.75 12.15,-5.75 14.34,-9.90 z" />
     </g>
</svg>
