<?xml version="1.0" encoding="UTF-8"?>
<svg version="1.1" id="Layer_1" x="0px" y="0px" width="578" height="50" viewBox="0 0 578 50"
xml:space="preserve" xmlns="http://www.w3.org/2000/svg" xmlns:svg="http://www.w3.org/2000/svg" xmlns:rdf="http://www.w3.org/1999/02/22-rdf-syntax-ns#"  xmlns:cc="http://creativecommons.org/ns#" xmlns:dc="http://purl.org/dc/elements/1.1/">
     <g>
<path d="M 297.71,42.24 c -0.04,0.46 0.17,0.64 0.38,0.19 0.11,-0.24 0.59,-1.22 0.73,-3.80 0.11,-1.94 -0.05,-4.91 -0.60,-9.01 -0.08,-0.60 -2.95,-21.37 -2.95,-21.37 0.00,0.00 1.55,1.46 1.80,1.72 0.25,0.26 0.55,0.12 0.41,-0.30 -0.14,-0.42 -3.31,-8.09 -3.42,-8.36 -0.10,-0.27 -0.20,-0.46 -0.33,-0.15 -0.13,0.31 -1.08,2.64 -1.08,2.64 0.02,0.14 0.28,1.16 0.33,1.54 0.44,3.37 3.20,23.25 3.99,29.54 0.39,3.10 0.69,5.88 0.73,7.37 z M 287.94,7.45 c 0.00,0.00 1.57,1.41 1.82,1.68 0.25,0.26 0.55,0.12 0.41,-0.30 -0.14,-0.42 -3.33,-7.25 -3.43,-7.52 -0.10,-0.27 -0.21,-0.46 -0.33,-0.15 -0.13,0.31 -1.15,2.55 -1.15,2.55 0.03,0.18 0.27,0.73 0.43,1.87 0.17,1.18 3.88,27.79 3.97,28.58 0.09,0.78 0.32,2.44 -1.31,3.03 -1.06,0.39 -2.93,0.51 -4.90,0.12 0.19,-0.23 0.35,-0.47 0.46,-0.70 0.30,-0.89 1.62,-3.10 0.56,-6.30 -0.36,-0.99 -1.48,-2.64 -3.89,-0.99 -2.41,1.65 -3.70,5.68 -3.30,7.33 0.10,0.34 0.31,0.78 0.69,1.25 -0.20,0.07 -0.40,0.13 -0.60,0.20 -0.73,0.32 -6.80,2.64 -7.63,-2.94 0.21,-1.22 0.25,-2.34 -0.57,-1.33 -0.83,1.01 -2.78,5.27 -6.52,5.63 -1.45,0.14 -4.79,0.61 -6.41,-4.43 -0.83,-2.59 -2.35,-25.96 -4.53,-32.79 -0.26,-0.81 -0.46,-0.43 -0.66,-0.10 -0.20,0.33 -0.96,1.62 -0.63,3.04 2.01,7.79 3.33,25.81 3.53,27.72 0.20,1.91 0.59,8.91 6.80,9.87 1.22,0.17 5.18,0.10 7.69,-4.75 0.17,0.40 1.91,5.31 7.13,3.79 0.77,-0.22 2.88,-1.05 4.82,-2.14 0.69,0.32 1.53,0.63 2.54,0.82 1.28,0.23 5.78,0.92 7.16,-1.75 0.50,-1.02 1.39,-3.93 0.99,-7.52 -0.30,-2.18 -3.12,-23.73 -3.12,-23.73 z M 281.04,36.54 c -0.25,-0.11 -0.50,-0.23 -0.75,-0.37 -0.69,-0.30 -2.21,-1.17 -1.31,-2.50 0.62,-0.83 2.46,-2.51 3.38,-1.63 0.92,0.87 1.49,2.11 1.06,2.66 -0.27,0.34 -0.95,1.04 -2.38,1.84 z M 249.41,17.19 c -0.43,0.27 -13.66,6.78 -14.91,7.79 -0.63,0.51 -1.15,1.31 -1.33,2.18 -0.26,1.26 0.05,2.51 0.87,2.64 0.57,0.09 0.90,0.42 1.05,0.62 0.06,0.08 0.15,0.02 0.18,-0.03 0.65,-1.29 0.06,-2.09 -1.05,-2.41 -0.44,-0.13 -0.64,-0.74 0.99,-1.78 1.50,-0.97 13.28,-6.87 13.61,-7.10 0.45,-0.31 0.72,-0.43 0.90,-0.88 0.17,-0.45 0.22,-0.53 0.31,-0.84 0.10,-0.33 0.19,-0.68 -0.63,-0.17 z M 223.01,23.33 c -0.06,-0.05 -0.15,-0.03 -0.20,0.04 -1.53,2.10 -1.53,2.10 -1.53,2.10 -0.05,0.07 -0.04,0.16 0.03,0.20 2.61,1.91 2.61,1.91 2.61,1.91 0.06,0.05 0.15,0.03 0.20,-0.04 1.32,-1.81 1.32,-1.81 1.32,-1.81 2.54,1.85 2.54,1.85 2.54,1.85 0.06,0.05 0.15,0.03 0.20,-0.04 1.53,-2.10 1.53,-2.10 1.53,-2.10 0.05,-0.07 0.04,-0.16 -0.03,-0.21 -2.62,-1.91 -2.62,-1.91 -2.62,-1.91 -0.06,-0.05 -0.15,-0.03 -0.20,0.04 -1.32,1.81 -1.32,1.81 -1.32,1.81 z M 281.96,20.81 c -1.32,1.81 -1.32,1.81 -1.32,1.81 -2.54,-1.85 -2.54,-1.85 -2.54,-1.85 -0.06,-0.05 -0.15,-0.03 -0.20,0.04 -1.53,2.10 -1.53,2.10 -1.53,2.10 -0.05,0.07 -0.04,0.16 0.03,0.21 2.61,1.91 2.61,1.91 2.61,1.91 0.06,0.05 0.15,0.03 0.20,-0.04 1.32,-1.81 1.32,-1.81 1.32,-1.81 2.54,1.85 2.54,1.85 2.54,1.85 0.06,0.05 0.15,0.03 0.20,-0.04 1.53,-2.10 1.53,-2.10 1.53,-2.10 0.05,-0.07 0.04,-0.16 -0.03,-0.20 -2.61,-1.91 -2.61,-1.91 -2.61,-1.91 -0.06,-0.05 -0.15,-0.03 -0.20,0.04 z M 269.58,46.03 c -0.06,-0.05 -0.15,-0.03 -0.20,0.04 -1.32,1.81 -1.32,1.81 -1.32,1.81 -2.54,-1.85 -2.54,-1.85 -2.54,-1.85 -0.06,-0.05 -0.15,-0.03 -0.20,0.04 -1.53,2.10 -1.53,2.10 -1.53,2.10 -0.05,0.07 -0.04,0.16 0.03,0.21 2.61,1.91 2.61,1.91 2.61,1.91 0.06,0.05 0.15,0.03 0.20,-0.04 1.32,-1.81 1.32,-1.81 1.32,-1.81 2.54,1.85 2.54,1.85 2.54,1.85 0.06,0.05 0.15,0.03 0.20,-0.04 1.53,-2.10 1.53,-2.10 1.53,-2.10 0.05,-0.07 0.04,-0.16 -0.03,-0.21 z M 268.99,22.43 c 0.31,0.22 0.65,0.51 0.65,0.51 0.31,0.32 0.69,0.68 0.80,0.25 0.17,-0.63 0.25,-1.66 -0.08,-2.17 -0.15,-0.23 -1.93,-2.09 -2.83,-0.56 -1.11,1.88 -0.92,4.16 -0.80,6.71 -0.25,-0.51 -1.69,-3.78 -5.25,-5.34 -0.26,-0.11 -0.72,0.21 -0.67,1.02 0.03,0.47 0.03,1.61 0.38,1.90 0.35,0.28 1.36,0.81 1.53,0.87 0.17,0.07 0.34,0.07 0.36,-0.13 0.02,-0.20 0.18,-0.68 0.52,-0.39 0.29,0.24 2.10,1.46 3.30,4.36 0.19,0.38 0.55,0.38 0.57,-0.20 0.03,-1.41 -0.14,-3.83 -0.12,-4.57 0.03,-1.04 0.25,-3.21 1.63,-2.26 z M 290.28,42.78 c -0.61,0.28 -9.84,4.40 -10.46,4.70 -0.59,0.28 -0.74,0.44 -0.83,0.86 -0.09,0.42 -0.13,0.67 -0.15,0.73 -0.10,0.28 -0.17,0.53 0.64,0.10 0.27,-0.14 9.69,-4.29 10.18,-4.55 0.48,-0.25 0.72,-0.41 0.90,-0.85 0.18,-0.44 0.23,-0.51 0.33,-0.82 0.10,-0.32 0.25,-0.58 -0.61,-0.19 z M 230.47,43.27 c -0.55,0.28 -9.60,4.56 -10.17,4.88 -0.57,0.32 -0.77,0.40 -0.88,0.81 -0.11,0.41 -0.17,0.66 -0.20,0.72 -0.12,0.28 -0.21,0.62 0.63,0.14 0.26,-0.15 9.42,-4.48 9.89,-4.75 0.47,-0.27 0.75,-0.36 0.96,-0.79 0.21,-0.42 0.26,-0.50 0.38,-0.80 0.12,-0.32 0.25,-0.65 -0.60,-0.22 z M 258.03,17.92 c 0.29,-0.17 22.64,-12.29 23.14,-12.62 0.51,-0.33 0.81,-0.46 1.02,-0.95 0.21,-0.49 0.26,-0.58 0.37,-0.92 0.12,-0.36 0.26,-0.70 -0.69,-0.21 -0.63,0.33 -22.80,12.44 -23.45,12.79 -0.64,0.35 -0.83,0.50 -0.93,0.98 -0.10,0.47 -0.15,0.73 -0.18,0.83 -0.09,0.32 -0.22,0.66 0.72,0.12 z M 281.00,9.35 c 0.18,-0.50 -0.04,-0.78 -0.29,-0.16 -0.25,0.62 -1.31,2.74 -1.15,5.25 0.04,0.58 0.42,1.71 1.29,1.74 0.45,0.00 1.03,-0.33 1.45,-1.75 0.07,-0.32 0.12,-0.58 0.15,-0.70 0.04,-0.19 -0.10,-0.42 -0.24,0.02 -0.33,0.87 -1.19,1.48 -1.83,0.31 -0.10,-0.23 -0.54,-1.29 0.26,-3.59 0.16,-0.45 0.36,-1.11 0.36,-1.11 z M 262.90,9.67 c 0.45,0.00 1.03,-0.33 1.45,-1.75 0.07,-0.32 0.12,-0.58 0.15,-0.70 0.04,-0.19 -0.10,-0.42 -0.24,0.02 -0.33,0.87 -1.19,1.48 -1.83,0.31 -0.10,-0.23 -0.54,-1.29 0.26,-3.59 0.16,-0.45 0.36,-1.11 0.36,-1.11 0.18,-0.50 -0.04,-0.78 -0.29,-0.16 -0.25,0.62 -1.31,2.74 -1.15,5.25 0.04,0.58 0.42,1.71 1.29,1.74 z M 231.98,14.54 c 0.50,0.03 1.18,-0.33 1.77,-2.05 0.11,-0.39 0.18,-0.71 0.22,-0.86 0.07,-0.23 -0.07,-0.53 -0.27,0.01 -0.44,1.05 -1.45,1.73 -2.07,0.24 -0.10,-0.29 -0.49,-1.63 0.60,-4.43 0.22,-0.54 0.50,-1.35 0.50,-1.35 0.24,-0.61 0.03,-0.97 -0.31,-0.22 -0.33,0.74 -1.70,3.29 -1.74,6.41 -0.01,0.72 0.32,2.15 1.29,2.25 z M 249.52,46.13 c -0.43,0.93 -1.44,1.52 -2.06,0.20 -0.10,-0.26 -0.50,-1.45 0.56,-3.91 0.21,-0.48 0.49,-1.19 0.49,-1.19 0.24,-0.54 0.02,-0.86 -0.31,-0.20 -0.33,0.66 -1.67,2.90 -1.68,5.66 0.00,0.64 0.34,1.90 1.31,2.01 0.50,0.03 1.18,-0.28 1.75,-1.80 0.10,-0.34 0.17,-0.62 0.22,-0.76 0.06,-0.21 -0.08,-0.47 -0.27,0.00 z M 242.03,14.20 c 0.61,-0.04 1.38,-0.61 1.81,-2.94 0.07,-0.52 0.11,-0.94 0.13,-1.15 0.04,-0.31 -0.17,-0.67 -0.33,0.05 -0.37,1.43 -1.48,2.48 -2.46,0.65 -0.16,-0.37 -0.85,-2.04 0.02,-5.85 0.18,-0.74 0.39,-1.83 0.39,-1.83 0.20,-0.83 -0.12,-1.26 -0.41,-0.24 -0.29,1.02 -1.53,4.55 -1.08,8.60 0.10,0.94 0.73,2.74 1.92,2.72 z M 211.95,31.13 c 0.76,-0.05 1.71,-0.74 2.25,-3.53 0.09,-0.63 0.13,-1.13 0.17,-1.38 0.05,-0.38 -0.21,-0.81 -0.41,0.06 -0.46,1.72 -1.84,2.98 -3.06,0.78 -0.20,-0.44 -1.05,-2.45 0.04,-7.01 0.22,-0.88 0.49,-2.20 0.49,-2.20 0.25,-1.00 -0.15,-1.51 -0.51,-0.29 -0.36,1.22 -1.91,5.46 -1.36,10.32 0.13,1.12 0.90,3.28 2.38,3.26 z M 333.16,20.28 c 0.48,0.00 1.11,-0.35 1.55,-1.88 0.08,-0.34 0.13,-0.62 0.16,-0.75 0.05,-0.21 -0.10,-0.45 -0.26,0.02 -0.35,0.93 -1.27,1.58 -1.96,0.33 -0.11,-0.25 -0.58,-1.38 0.28,-3.86 0.17,-0.48 0.39,-1.20 0.39,-1.20 0.19,-0.54 -0.04,-0.84 -0.31,-0.17 -0.27,0.66 -1.40,2.94 -1.23,5.64 0.04,0.62 0.45,1.83 1.39,1.87 z M 356.51,6.37 c 0.79,0.58 1.94,1.04 1.94,1.04 -3.66,4.48 -10.85,7.67 -12.56,9.01 -0.51,0.39 -0.44,0.61 -0.12,0.53 0.28,-0.08 5.76,-1.61 10.76,-5.90 2.29,-1.97 2.23,-2.11 2.81,-3.31 0.50,0.26 0.84,0.67 1.03,0.91 0.28,0.34 0.43,0.60 0.56,0.23 0.48,-1.33 -0.20,-2.13 -0.84,-2.54 0.00,0.00 0.67,-2.07 -0.56,-4.14 -0.21,-0.35 -1.43,-1.46 -2.85,0.74 -0.55,0.84 -0.96,2.85 -0.17,3.42 z M 357.24,4.34 c 0.73,-1.02 1.08,-0.98 1.36,-0.82 0.82,0.77 0.70,2.03 0.67,2.31 0.00,0.00 -1.05,-0.49 -1.52,-0.70 -0.47,-0.20 -0.72,-0.50 -0.50,-0.80 z M 359.27,14.30 c 0.18,-0.50 -0.04,-0.77 -0.29,-0.16 -0.25,0.61 -1.30,2.73 -1.14,5.22 0.04,0.58 0.42,1.70 1.29,1.73 0.45,0.00 1.03,-0.33 1.44,-1.74 0.07,-0.32 0.12,-0.57 0.15,-0.70 0.04,-0.19 -0.10,-0.42 -0.24,0.02 -0.33,0.86 -1.18,1.47 -1.82,0.31 -0.10,-0.23 -0.53,-1.28 0.26,-3.57 0.16,-0.45 0.36,-1.11 0.36,-1.11 z M 364.85,24.89 c -0.25,-0.28 -0.37,-0.01 -0.46,0.31 -0.09,0.32 -0.36,1.52 -0.54,2.27 0.00,0.00 0.71,1.16 0.97,1.75 0.25,0.59 -0.12,0.92 -0.86,1.01 -2.08,0.25 -3.73,-0.94 -4.30,-1.48 -0.57,-0.55 0.05,-1.52 0.51,-2.68 0.37,-0.93 -0.32,-1.04 -0.84,0.00 -1.76,4.63 -4.23,5.12 -4.88,5.30 -5.86,1.60 -5.36,-3.76 -5.34,-4.64 0.02,-0.88 -0.62,-0.55 -1.34,0.03 -2.47,1.98 -4.45,3.14 -5.52,3.62 -0.92,-1.80 -2.26,-2.93 -2.82,-3.34 -6.34,-4.63 -6.87,4.71 -6.67,5.71 0.97,3.97 7.45,1.56 8.46,1.44 1.02,-0.12 0.68,1.22 0.11,2.02 -1.41,1.97 -3.03,3.38 -4.50,4.57 -6.28,5.13 -9.44,4.72 -10.41,4.69 -6.17,-0.17 -5.60,-6.82 -5.26,-8.24 1.86,-1.57 3.45,-3.28 4.38,-5.04 0.38,-0.96 1.03,-3.16 -0.15,-5.91 -0.62,-1.21 -2.56,-4.60 -2.56,-4.60 0.00,0.00 1.43,0.04 1.57,0.04 0.14,0.00 0.41,-0.14 0.06,-0.55 -0.35,-0.40 -3.36,-3.40 -3.54,-3.65 -0.18,-0.24 -0.35,-0.41 -0.45,-0.06 -0.10,0.36 -0.36,1.88 -0.42,2.20 -0.06,0.31 -0.06,0.63 0.10,0.90 0.15,0.27 0.55,1.20 0.84,1.96 0.29,0.76 3.25,6.47 3.53,6.98 0.27,0.51 0.33,0.88 0.06,1.22 -9.53,10.05 -27.91,16.23 -28.50,16.57 -0.59,0.34 -0.43,0.61 0.56,0.43 1.48,-0.26 9.74,-1.64 12.09,-2.77 1.55,-0.75 6.97,-3.41 11.41,-6.89 -0.12,0.90 -0.24,2.22 -0.17,3.89 0.30,8.08 7.53,6.74 9.43,6.33 5.68,-1.25 12.64,-9.11 13.23,-10.68 0.58,-1.56 0.67,-2.98 0.54,-4.22 1.50,-0.81 4.71,-3.40 4.71,-3.40 0.13,3.45 2.87,4.48 3.72,4.63 3.96,0.60 5.94,-2.71 6.78,-3.78 0.72,1.89 2.45,2.26 3.34,2.43 3.41,0.68 4.08,-1.74 4.26,-2.29 1.07,-3.33 -0.86,-5.81 -1.11,-6.08 z M 336.22,31.57 c -2.02,-0.14 -1.85,-0.92 -1.57,-1.23 0.30,-0.33 2.78,-1.89 4.85,0.89 0.00,0.00 -0.86,0.50 -3.28,0.33 z M 315.47,12.30 c 0.25,-0.16 13.84,-8.02 14.32,-8.31 0.46,-0.29 0.72,-0.41 0.90,-0.85 0.18,-0.44 0.23,-0.52 0.33,-0.82 0.11,-0.32 0.21,-0.67 -0.61,-0.19 -0.53,0.31 -14.04,8.11 -14.59,8.46 -0.55,0.35 -0.74,0.44 -0.83,0.86 -0.09,0.42 -0.13,0.67 -0.16,0.73 -0.10,0.28 -0.17,0.63 0.64,0.10 z M 338.67,7.03 c 0.17,0.09 0.36,0.11 0.41,-0.10 0.05,-0.21 0.28,-0.68 0.62,-0.34 0.28,0.28 2.09,1.78 3.03,4.95 0.16,0.42 0.55,0.46 0.64,-0.14 0.22,-1.47 0.34,-4.02 0.45,-4.79 0.16,-1.09 0.68,-3.33 2.06,-2.16 0.31,0.26 0.64,0.61 0.64,0.61 0.29,0.37 0.66,0.79 0.84,0.36 0.27,-0.64 0.49,-1.70 0.19,-2.28 -0.13,-0.26 -1.84,-2.41 -3.00,-0.93 -1.44,1.83 -1.53,4.23 -1.72,6.91 -0.20,-0.56 -1.35,-4.16 -5.02,-6.21 -0.27,-0.15 -0.81,0.13 -0.86,0.98 -0.03,0.49 -0.17,1.69 0.18,2.03 0.35,0.34 1.37,1.01 1.54,1.10 z M 298.79,13.78 c 0.17,-0.04 3.05,-0.49 6.41,-3.05 1.82,-1.38 2.92,-3.74 2.92,-3.74 0.00,0.00 0.91,0.76 1.03,0.91 0.28,0.34 0.43,0.60 0.56,0.23 0.48,-1.33 -0.20,-2.13 -0.84,-2.54 0.00,0.00 0.67,-2.07 -0.56,-4.14 -0.21,-0.35 -1.43,-1.46 -2.85,0.74 -0.55,0.84 -0.96,2.85 -0.17,3.42 0.79,0.58 1.94,1.04 1.94,1.04 -3.66,4.48 -6.16,5.34 -8.30,6.59 -0.55,0.32 -0.44,0.61 -0.12,0.53 z M 306.51,4.39 c -0.47,-0.20 -0.72,-0.50 -0.50,-0.80 0.73,-1.02 1.08,-0.98 1.36,-0.82 0.82,0.77 0.70,2.03 0.67,2.31 0.00,0.00 -1.05,-0.49 -1.52,-0.70 z M 361.65,37.21 c -0.24,0.68 -0.34,1.12 -0.31,1.38 0.03,0.26 0.12,1.10 0.12,1.10 -0.25,0.20 -1.33,0.87 -2.40,0.08 0.07,-0.23 0.21,-0.70 0.24,-0.95 0.12,-0.40 -0.13,-0.69 -0.32,-0.28 -0.20,0.41 -0.65,1.79 -0.99,2.10 -0.34,0.31 -0.73,1.45 -3.30,0.29 -0.45,-0.17 -1.24,-0.75 -2.46,0.48 -2.77,2.57 -4.68,2.78 -7.79,3.88 -0.38,0.17 -1.16,0.76 -0.23,0.67 0.94,-0.09 4.87,0.00 7.01,-2.46 0.45,-0.43 0.96,-1.58 2.66,-0.92 0.94,0.36 2.68,1.85 4.58,-1.10 1.12,0.75 2.82,0.45 3.09,-0.37 0.27,-0.82 0.58,-1.64 0.58,-2.20 0.00,-0.56 -0.05,-1.30 -0.05,-1.30 -0.04,-0.44 -0.19,-1.07 -0.44,-0.40 z M 306.37,14.16 c -0.06,-0.05 -0.15,-0.03 -0.20,0.04 -1.53,2.10 -1.53,2.10 -1.53,2.10 -0.05,0.07 -0.04,0.16 0.03,0.21 2.61,1.91 2.61,1.91 2.61,1.91 0.06,0.05 0.15,0.03 0.20,-0.04 1.32,-1.81 1.32,-1.81 1.32,-1.81 2.54,1.85 2.54,1.85 2.54,1.85 0.06,0.05 0.15,0.03 0.20,-0.04 1.53,-2.10 1.53,-2.10 1.53,-2.10 0.05,-0.07 0.04,-0.16 -0.03,-0.20 -2.61,-1.91 -2.61,-1.91 -2.61,-1.91 -0.06,-0.05 -0.15,-0.03 -0.20,0.04 -1.32,1.81 -1.32,1.81 -1.32,1.81 z M 305.75,23.91 c 0.00,0.00 1.25,-0.31 1.47,-0.38 0.22,-0.06 0.34,-0.35 -0.05,-0.55 -0.39,-0.20 -4.09,-1.67 -4.37,-1.79 -0.28,-0.11 -0.38,-0.24 -0.41,0.06 -0.02,0.30 -0.07,2.73 -0.07,2.73 0.00,0.00 -0.06,0.17 0.27,0.35 0.32,0.18 0.64,0.58 0.90,0.84 0.26,0.26 3.70,2.98 3.87,3.07 0.00,0.00 -1.72,3.02 -1.94,5.38 -0.22,2.36 0.04,5.63 3.27,4.57 0.87,-0.25 4.49,-1.69 5.30,-4.21 0.26,-0.93 1.01,-2.61 -0.21,-4.31 -0.70,-1.00 -3.53,-2.69 -3.53,-2.69 0.00,0.00 2.17,-3.00 2.38,-3.37 0.21,-0.37 1.00,-2.69 1.09,-3.26 0.09,-0.56 0.13,-0.84 -0.29,-0.32 -0.42,0.52 -4.63,6.05 -4.63,6.05 z M 312.70,32.79 c -1.20,0.99 -3.72,2.29 -4.43,2.36 -0.71,0.07 -2.59,-0.28 -1.77,-2.20 0.28,-0.62 2.16,-3.84 2.16,-3.84 0.70,0.39 5.24,2.70 4.04,3.69 z M 217.90,8.20 c 0.17,0.10 0.35,0.11 0.40,-0.10 0.05,-0.21 0.28,-0.68 0.61,-0.34 0.24,0.24 2.17,1.94 2.76,4.27 0.49,2.02 -4.48,6.10 -4.74,6.29 -0.47,0.33 -0.32,0.55 -0.10,0.43 0.22,-0.12 0.43,-0.15 2.98,-1.83 2.06,-1.36 2.49,-2.93 2.66,-4.14 0.02,-0.06 0.04,-0.12 0.05,-0.21 0.21,-1.47 0.33,-4.02 0.44,-4.79 0.16,-1.09 0.67,-3.32 2.03,-2.16 0.31,0.26 0.63,0.61 0.63,0.61 0.29,0.37 0.65,0.79 0.83,0.36 0.27,-0.64 0.48,-1.70 0.19,-2.28 -0.13,-0.26 -1.81,-2.41 -2.95,-0.94 -1.42,1.83 -1.51,4.23 -1.70,6.91 -0.20,-0.56 -1.33,-4.16 -4.95,-6.21 -0.26,-0.15 -0.80,0.13 -0.85,0.98 -0.03,0.49 -0.17,1.69 0.17,2.03 0.34,0.34 1.35,1.01 1.52,1.10 z M 248.35,39.02 c 0.62,-0.16 1.22,-0.46 1.24,-1.36 0.02,-0.90 0.03,-3.85 -2.58,-7.05 -0.48,-0.53 -2.10,-1.52 -3.43,0.11 -1.34,1.64 -2.14,3.92 -2.49,4.49 -0.35,0.58 -1.75,3.23 -5.02,3.32 -0.81,0.00 -3.82,0.30 -5.83,-4.40 -1.68,-3.78 -3.96,-2.63 -5.00,-2.05 -1.04,0.58 -3.72,2.26 -6.36,8.10 -0.43,0.99 -1.23,3.48 -2.85,3.39 -0.50,-0.03 -2.47,-0.31 -3.99,-3.68 -0.25,-0.69 -1.20,-3.96 -1.10,-6.29 -0.02,-0.68 -0.19,-1.33 -0.48,-0.48 -0.29,0.85 -0.79,6.91 2.06,11.23 3.01,4.24 5.46,1.27 5.79,0.58 0.33,-0.69 3.22,-7.64 6.27,-9.38 0.48,-0.29 3.16,-1.66 4.01,-0.02 0.58,1.14 2.27,5.00 5.11,5.92 1.53,0.49 4.92,0.43 6.52,-2.26 0.40,-0.70 1.05,-2.07 1.05,-2.07 0.58,0.37 3.04,2.44 7.07,1.89 z M 246.60,35.84 c -1.96,-0.09 -3.22,-0.97 -3.73,-1.36 0.00,0.00 0.18,-0.60 1.08,-1.20 1.06,-0.71 2.42,0.74 2.95,1.54 0.53,0.81 0.09,1.03 -0.30,1.01 z" />
     </g>
</svg>
