<?xml version="1.0" encoding="UTF-8"?>
<svg version="1.1" id="Layer_1" x="0px" y="0px" width="578" height="52" viewBox="0 0 578 52"
xml:space="preserve" xmlns="http://www.w3.org/2000/svg" xmlns:svg="http://www.w3.org/2000/svg" xmlns:rdf="http://www.w3.org/1999/02/22-rdf-syntax-ns#"  xmlns:cc="http://creativecommons.org/ns#" xmlns:dc="http://purl.org/dc/elements/1.1/">
     <g>
<path d="M 223.76,29.08 c -1.92,2.63 -1.92,2.63 -1.92,2.63 -0.06,0.08 -0.05,0.20 0.03,0.25 3.27,2.38 3.27,2.38 3.27,2.38 0.08,0.06 0.19,0.04 0.25,-0.05 1.91,-2.63 1.91,-2.63 1.91,-2.63 0.06,-0.08 0.05,-0.20 -0.03,-0.26 -3.27,-2.38 -3.27,-2.38 -3.27,-2.38 -0.08,-0.06 -0.19,-0.04 -0.25,0.05 z M 267.92,15.72 c -1.92,2.63 -1.92,2.63 -1.92,2.63 -0.06,0.08 -0.05,0.20 0.03,0.25 3.27,2.38 3.27,2.38 3.27,2.38 0.08,0.06 0.19,0.04 0.25,-0.05 1.91,-2.63 1.91,-2.63 1.91,-2.63 0.06,-0.08 0.05,-0.20 -0.03,-0.25 -3.27,-2.38 -3.27,-2.38 -3.27,-2.38 -0.08,-0.06 -0.19,-0.04 -0.25,0.05 z M 301.30,40.66 c -0.04,0.44 0.17,0.60 0.38,0.18 0.11,-0.22 0.59,-1.15 0.73,-3.58 0.11,-1.83 -0.05,-4.63 -0.60,-8.49 -0.08,-0.56 -2.95,-20.14 -2.95,-20.14 0.00,0.00 1.71,1.93 1.95,2.17 0.25,0.25 0.55,0.12 0.41,-0.28 -0.14,-0.40 -3.47,-8.19 -3.57,-8.44 -0.10,-0.25 -0.20,-0.43 -0.33,-0.14 -0.13,0.29 -1.08,2.49 -1.08,2.49 0.02,0.13 0.28,1.09 0.33,1.45 0.44,3.17 3.20,21.91 3.99,27.84 0.39,2.92 0.69,5.54 0.73,6.95 z M 291.95,37.80 c 0.77,-1.69 2.67,-4.79 1.10,-12.54 -0.41,-3.18 -2.21,-16.47 -2.21,-16.47 0.00,0.00 1.62,1.41 1.88,1.66 0.26,0.26 0.58,0.12 0.43,-0.29 -0.15,-0.41 -3.47,-7.82 -3.57,-8.08 -0.11,-0.26 -0.21,-0.44 -0.35,-0.15 -0.13,0.30 -1.20,2.46 -1.20,2.46 0.03,0.18 0.28,0.71 0.45,1.80 0.18,1.14 0.44,2.76 0.72,4.55 0.00,0.00 3.46,21.91 2.79,23.78 -0.24,0.66 -0.63,1.47 -1.28,2.38 0.29,-1.08 0.89,-4.99 -1.55,-8.22 -2.28,-3.02 -6.78,-6.79 -7.77,-7.77 -0.74,-0.73 -4.75,-4.47 -6.81,-7.20 -0.92,-1.25 -2.01,-2.91 -2.01,-2.91 0.69,0.27 1.53,0.53 1.98,0.70 0.46,0.17 1.01,0.05 0.34,-0.59 -0.67,-0.63 -5.81,-4.50 -6.20,-4.95 -0.39,-0.45 -0.45,-0.38 -0.49,-0.05 -0.04,0.33 -0.10,2.11 -0.10,2.67 0.00,0.55 0.12,0.75 0.37,0.93 0.25,0.18 0.65,0.47 0.91,0.89 0.26,0.42 5.08,7.28 9.10,11.21 0.56,0.55 8.17,6.33 10.88,11.76 0.65,1.30 0.81,2.53 0.76,3.73 -0.06,0.29 -0.07,0.49 -0.06,0.62 -2.15,2.57 -6.38,5.79 -14.71,8.94 -0.76,0.32 -1.00,1.05 0.57,0.62 1.57,-0.43 12.08,-0.85 16.02,-9.50 z M 291.28,46.41 c -0.67,-0.13 -1.45,-0.70 -1.63,-0.98 -0.17,-0.27 -0.15,-0.58 0.38,-0.89 0.53,-0.30 1.10,-0.51 1.51,0.16 0.07,0.11 0.16,0.11 0.33,-0.06 0.17,-0.17 0.51,-0.65 0.60,-0.78 0.09,-0.14 0.17,-0.36 0.02,-0.53 -0.14,-0.17 -0.72,-0.97 -1.66,-0.24 -0.94,0.73 -3.10,2.83 -2.13,3.81 0.56,0.46 0.82,0.68 0.82,0.68 -0.26,0.10 -0.49,0.35 -0.65,0.68 -0.16,0.32 -0.18,0.39 -0.26,0.57 -0.08,0.18 -0.13,0.43 0.32,0.17 0.45,-0.25 1.51,-1.26 4.38,-1.89 0.40,-0.08 0.75,-0.74 0.75,-0.74 0.17,-0.27 0.50,-0.92 -0.06,-0.60 -0.56,0.31 -2.05,0.76 -2.72,0.64 z M 216.34,8.05 c 0.16,0.09 0.34,0.10 0.39,-0.09 0.05,-0.20 0.27,-0.65 0.59,-0.32 0.27,0.27 1.99,1.69 2.88,4.71 0.16,0.40 0.53,0.44 0.61,-0.13 0.21,-1.40 0.32,-3.82 0.43,-4.56 0.16,-1.03 0.65,-3.16 1.96,-2.06 0.30,0.25 0.61,0.58 0.61,0.58 0.28,0.35 0.63,0.75 0.80,0.35 0.26,-0.61 0.46,-1.62 0.18,-2.17 -0.12,-0.24 -1.75,-2.29 -2.85,-0.89 -1.37,1.74 -1.46,4.03 -1.64,6.58 -0.19,-0.53 -1.29,-3.95 -4.78,-5.91 -0.25,-0.14 -0.77,0.13 -0.82,0.93 -0.03,0.47 -0.16,1.61 0.17,1.93 0.33,0.32 1.31,0.96 1.47,1.05 z M 246.26,7.70 c 0.16,0.09 0.34,0.10 0.39,-0.09 0.05,-0.19 0.27,-0.65 0.59,-0.32 0.27,0.27 1.99,1.69 2.88,4.71 0.15,0.40 0.52,0.44 0.61,-0.13 0.21,-1.40 0.32,-3.82 0.43,-4.56 0.16,-1.03 0.65,-3.16 1.96,-2.06 0.30,0.25 0.61,0.58 0.61,0.58 0.28,0.35 0.63,0.75 0.80,0.34 0.26,-0.61 0.46,-1.62 0.18,-2.17 -0.12,-0.24 -1.75,-2.30 -2.85,-0.89 -1.37,1.74 -1.46,4.03 -1.64,6.57 -0.19,-0.53 -1.28,-3.95 -4.78,-5.91 -0.25,-0.14 -0.77,0.13 -0.82,0.93 -0.03,0.47 -0.16,1.61 0.17,1.93 0.33,0.32 1.31,0.96 1.47,1.05 z M 276.42,5.74 c 0.15,0.08 0.32,0.10 0.36,-0.09 0.05,-0.18 0.25,-0.60 0.55,-0.30 0.25,0.25 1.85,1.58 2.69,4.39 0.14,0.37 0.49,0.41 0.57,-0.12 0.19,-1.30 0.30,-3.56 0.40,-4.25 0.15,-0.96 0.61,-2.95 1.83,-1.92 0.28,0.23 0.57,0.54 0.57,0.54 0.26,0.33 0.58,0.70 0.74,0.32 0.24,-0.57 0.43,-1.51 0.17,-2.02 -0.12,-0.23 -1.63,-2.14 -2.66,-0.83 -1.27,1.62 -1.36,3.75 -1.53,6.13 -0.18,-0.50 -1.20,-3.68 -4.45,-5.51 -0.24,-0.13 -0.72,0.12 -0.76,0.87 -0.03,0.44 -0.15,1.50 0.16,1.80 0.31,0.30 1.22,0.89 1.37,0.97 z M 239.56,42.38 c -0.55,0.28 -10.29,4.12 -10.86,4.44 -0.57,0.32 -0.77,0.40 -0.88,0.81 -0.11,0.42 -0.17,0.66 -0.20,0.72 -0.12,0.28 -0.21,0.62 0.63,0.14 0.26,-0.15 10.11,-4.04 10.58,-4.31 0.47,-0.27 0.75,-0.36 0.96,-0.79 0.21,-0.42 0.26,-0.50 0.38,-0.80 0.12,-0.32 0.25,-0.65 -0.60,-0.23 z M 294.11,48.11 c -0.48,0.24 -5.58,2.08 -6.07,2.35 -0.50,0.28 -0.67,0.34 -0.77,0.71 -0.10,0.36 -0.15,0.57 -0.18,0.63 -0.10,0.24 -0.18,0.54 0.55,0.13 0.23,-0.13 5.42,-2.01 5.83,-2.24 0.41,-0.23 0.65,-0.31 0.83,-0.69 0.18,-0.37 0.23,-0.44 0.33,-0.69 0.11,-0.28 0.22,-0.57 -0.52,-0.20 z M 246.01,21.77 c -0.10,0.48 -0.15,0.73 -0.18,0.83 -0.09,0.32 -0.22,0.66 0.72,0.12 0.29,-0.17 18.26,-9.42 18.77,-9.76 0.51,-0.33 0.81,-0.46 1.02,-0.95 0.21,-0.49 0.26,-0.58 0.37,-0.92 0.12,-0.37 0.26,-0.70 -0.69,-0.21 -0.63,0.33 -18.43,9.57 -19.07,9.92 -0.64,0.35 -0.83,0.50 -0.93,0.97 z M 281.86,29.33 c 0.18,-0.50 -0.04,-0.78 -0.29,-0.16 -0.25,0.62 -1.31,2.75 -1.15,5.25 0.04,0.58 0.42,1.71 1.29,1.74 0.45,0.00 1.03,-0.33 1.45,-1.75 0.07,-0.32 0.12,-0.58 0.15,-0.70 0.04,-0.19 -0.10,-0.42 -0.24,0.02 -0.33,0.87 -1.19,1.48 -1.83,0.31 -0.10,-0.23 -0.54,-1.29 0.26,-3.59 0.16,-0.45 0.36,-1.12 0.36,-1.12 z M 283.87,17.86 c 0.04,0.58 0.42,1.71 1.29,1.74 0.45,0.00 1.03,-0.33 1.45,-1.75 0.07,-0.32 0.12,-0.58 0.15,-0.70 0.04,-0.19 -0.10,-0.42 -0.24,0.02 -0.33,0.87 -1.19,1.48 -1.83,0.31 -0.10,-0.23 -0.54,-1.29 0.26,-3.59 0.16,-0.45 0.36,-1.11 0.36,-1.11 0.18,-0.51 -0.04,-0.78 -0.29,-0.16 -0.25,0.62 -1.31,2.74 -1.15,5.25 z M 261.23,45.08 c -0.40,-0.14 -1.03,-0.03 -1.84,1.11 -0.16,0.26 -0.28,0.48 -0.35,0.58 -0.10,0.16 -0.04,0.40 0.22,0.06 0.56,-0.67 1.52,-0.95 1.73,0.29 0.02,0.24 0.08,1.32 -1.35,3.13 -0.28,0.35 -0.67,0.88 -0.67,0.88 -0.32,0.40 -0.21,0.71 0.21,0.24 0.42,-0.47 2.02,-2.05 2.66,-4.34 0.15,-0.53 0.15,-1.66 -0.62,-1.96 z M 249.92,26.95 c 0.18,-0.50 -0.04,-0.78 -0.29,-0.16 -0.25,0.62 -1.31,2.74 -1.15,5.25 0.04,0.58 0.42,1.71 1.29,1.74 0.45,0.00 1.03,-0.33 1.45,-1.75 0.07,-0.32 0.12,-0.58 0.15,-0.70 0.04,-0.19 -0.10,-0.42 -0.24,0.02 -0.33,0.87 -1.19,1.48 -1.83,0.31 -0.10,-0.23 -0.54,-1.29 0.26,-3.59 0.16,-0.45 0.36,-1.11 0.36,-1.11 z M 260.51,9.75 c 0.45,0.00 1.03,-0.33 1.45,-1.75 0.07,-0.32 0.12,-0.58 0.15,-0.70 0.04,-0.19 -0.10,-0.42 -0.24,0.02 -0.33,0.87 -1.19,1.48 -1.83,0.31 -0.10,-0.23 -0.54,-1.29 0.26,-3.59 0.16,-0.45 0.36,-1.12 0.36,-1.12 0.18,-0.50 -0.04,-0.78 -0.29,-0.16 -0.25,0.62 -1.31,2.74 -1.15,5.25 0.04,0.58 0.42,1.71 1.29,1.74 z M 222.59,18.37 c 0.18,-0.51 -0.04,-0.78 -0.29,-0.16 -0.25,0.62 -1.31,2.74 -1.15,5.25 0.04,0.58 0.42,1.71 1.29,1.74 0.45,0.00 1.03,-0.33 1.45,-1.75 0.07,-0.32 0.12,-0.58 0.15,-0.70 0.04,-0.19 -0.10,-0.42 -0.24,0.02 -0.33,0.87 -1.19,1.48 -1.83,0.31 -0.10,-0.23 -0.54,-1.29 0.26,-3.59 0.16,-0.45 0.36,-1.11 0.36,-1.11 z M 258.96,21.53 c 0.20,-0.77 -0.11,-1.17 -0.41,-0.22 -0.29,0.95 -1.54,4.22 -1.11,7.98 0.10,0.87 0.72,2.53 1.91,2.51 0.61,-0.04 1.38,-0.57 1.82,-2.74 0.07,-0.49 0.11,-0.88 0.14,-1.07 0.04,-0.29 -0.17,-0.62 -0.33,0.05 -0.38,1.33 -1.49,2.31 -2.46,0.61 -0.16,-0.34 -0.84,-1.89 0.04,-5.42 0.18,-0.68 0.40,-1.70 0.40,-1.70 z M 231.85,16.66 c 0.68,-0.04 1.52,-0.66 2.00,-3.17 0.08,-0.56 0.12,-1.02 0.15,-1.24 0.05,-0.34 -0.19,-0.72 -0.36,0.06 -0.41,1.54 -1.63,2.67 -2.71,0.70 -0.18,-0.39 -0.93,-2.20 0.03,-6.28 0.20,-0.79 0.43,-1.97 0.43,-1.97 0.22,-0.89 -0.13,-1.35 -0.45,-0.26 -0.32,1.10 -1.69,4.89 -1.20,9.25 0.11,1.01 0.80,2.94 2.11,2.92 z M 317.74,12.30 c 0.25,-0.16 13.84,-8.02 14.32,-8.31 0.46,-0.29 0.72,-0.41 0.91,-0.85 0.18,-0.44 0.23,-0.52 0.33,-0.82 0.10,-0.32 0.21,-0.67 -0.61,-0.19 -0.53,0.31 -14.04,8.11 -14.59,8.46 -0.55,0.35 -0.74,0.44 -0.83,0.87 -0.09,0.42 -0.13,0.67 -0.16,0.73 -0.10,0.28 -0.17,0.63 0.64,0.10 z M 335.43,20.27 c 0.48,0.00 1.11,-0.35 1.55,-1.87 0.08,-0.34 0.13,-0.62 0.16,-0.75 0.05,-0.21 -0.10,-0.45 -0.26,0.02 -0.35,0.93 -1.28,1.58 -1.96,0.33 -0.11,-0.25 -0.58,-1.38 0.28,-3.86 0.17,-0.48 0.39,-1.20 0.39,-1.20 0.19,-0.54 -0.04,-0.84 -0.31,-0.17 -0.27,0.66 -1.40,2.94 -1.23,5.64 0.04,0.62 0.45,1.83 1.39,1.86 z M 358.78,6.37 c 0.79,0.58 1.93,1.04 1.93,1.04 -3.66,4.48 -10.84,7.67 -12.55,9.01 -0.51,0.39 -0.44,0.61 -0.12,0.53 0.28,-0.08 5.76,-1.61 10.76,-5.90 2.29,-1.97 2.23,-2.11 2.81,-3.31 0.50,0.26 0.84,0.67 1.03,0.91 0.28,0.34 0.43,0.60 0.56,0.23 0.48,-1.33 -0.20,-2.13 -0.84,-2.54 0.00,0.00 0.67,-2.07 -0.56,-4.14 -0.21,-0.35 -1.43,-1.46 -2.85,0.74 -0.55,0.84 -0.96,2.85 -0.17,3.42 z M 359.51,4.34 c 0.73,-1.02 1.08,-0.98 1.36,-0.82 0.83,0.77 0.70,2.03 0.67,2.31 0.00,0.00 -1.05,-0.49 -1.52,-0.70 -0.47,-0.20 -0.72,-0.50 -0.50,-0.80 z M 361.54,14.30 c 0.18,-0.50 -0.03,-0.77 -0.29,-0.16 -0.25,0.61 -1.30,2.73 -1.14,5.22 0.04,0.58 0.42,1.70 1.29,1.73 0.45,0.00 1.03,-0.33 1.44,-1.74 0.07,-0.32 0.12,-0.57 0.15,-0.70 0.04,-0.19 -0.10,-0.42 -0.24,0.02 -0.33,0.86 -1.18,1.47 -1.82,0.31 -0.10,-0.23 -0.53,-1.28 0.26,-3.57 0.16,-0.45 0.36,-1.11 0.36,-1.11 z M 367.12,24.89 c -0.25,-0.28 -0.38,-0.01 -0.46,0.31 -0.09,0.32 -0.36,1.52 -0.54,2.27 0.00,0.00 0.71,1.16 0.97,1.75 0.25,0.59 -0.12,0.92 -0.86,1.01 -2.08,0.25 -3.73,-0.94 -4.30,-1.48 -0.57,-0.55 0.05,-1.52 0.51,-2.68 0.37,-0.93 -0.32,-1.04 -0.84,0.00 -1.76,4.63 -4.23,5.13 -4.88,5.30 -5.86,1.60 -5.36,-3.76 -5.33,-4.64 0.02,-0.88 -0.62,-0.55 -1.34,0.03 -2.47,1.98 -4.45,3.14 -5.52,3.62 -0.92,-1.80 -2.26,-2.93 -2.82,-3.34 -6.34,-4.62 -6.87,4.71 -6.67,5.71 0.97,3.97 7.44,1.56 8.46,1.44 1.01,-0.12 0.68,1.22 0.11,2.02 -1.41,1.97 -3.03,3.38 -4.50,4.57 -6.28,5.13 -9.43,4.72 -10.41,4.69 -6.17,-0.17 -5.60,-6.82 -5.26,-8.24 1.85,-1.57 3.45,-3.28 4.38,-5.04 0.38,-0.96 1.03,-3.16 -0.15,-5.91 -0.62,-1.21 -2.56,-4.60 -2.56,-4.60 0.00,0.00 1.43,0.04 1.57,0.04 0.14,0.00 0.41,-0.14 0.06,-0.55 -0.35,-0.40 -3.36,-3.40 -3.54,-3.65 -0.18,-0.24 -0.35,-0.42 -0.45,-0.06 -0.10,0.36 -0.36,1.88 -0.42,2.20 -0.06,0.31 -0.06,0.63 0.10,0.90 0.15,0.27 0.55,1.20 0.84,1.96 0.29,0.76 3.26,6.47 3.53,6.98 0.27,0.51 0.33,0.88 0.06,1.22 -9.53,10.05 -27.91,16.23 -28.50,16.58 -0.59,0.34 -0.43,0.61 0.56,0.43 1.48,-0.26 9.74,-1.64 12.09,-2.77 1.55,-0.75 6.97,-3.41 11.41,-6.89 -0.12,0.90 -0.24,2.22 -0.18,3.89 0.30,8.08 7.53,6.74 9.43,6.33 5.68,-1.25 12.64,-9.11 13.23,-10.68 0.58,-1.56 0.67,-2.98 0.54,-4.22 1.50,-0.81 4.71,-3.40 4.71,-3.40 0.13,3.45 2.87,4.48 3.72,4.63 3.96,0.60 5.94,-2.70 6.78,-3.78 0.72,1.89 2.45,2.26 3.34,2.43 3.41,0.68 4.08,-1.73 4.26,-2.29 1.07,-3.33 -0.86,-5.81 -1.11,-6.08 z M 338.49,31.57 c -2.03,-0.14 -1.85,-0.92 -1.57,-1.22 0.30,-0.33 2.78,-1.89 4.85,0.89 0.00,0.00 -0.86,0.50 -3.28,0.33 z M 340.94,7.03 c 0.17,0.10 0.36,0.11 0.41,-0.10 0.05,-0.21 0.29,-0.68 0.62,-0.34 0.28,0.28 2.09,1.78 3.03,4.95 0.16,0.42 0.55,0.46 0.64,-0.14 0.22,-1.47 0.34,-4.02 0.45,-4.79 0.16,-1.09 0.68,-3.33 2.06,-2.16 0.31,0.26 0.64,0.61 0.64,0.61 0.29,0.37 0.66,0.79 0.84,0.36 0.27,-0.64 0.49,-1.70 0.19,-2.28 -0.13,-0.26 -1.83,-2.41 -3.00,-0.93 -1.44,1.83 -1.53,4.23 -1.72,6.91 -0.20,-0.56 -1.35,-4.16 -5.02,-6.21 -0.27,-0.15 -0.81,0.13 -0.86,0.98 -0.03,0.49 -0.17,1.69 0.18,2.03 0.35,0.34 1.37,1.01 1.54,1.10 z M 363.92,37.21 c -0.24,0.68 -0.34,1.12 -0.32,1.38 0.03,0.26 0.12,1.09 0.12,1.09 -0.25,0.20 -1.33,0.87 -2.40,0.08 0.07,-0.23 0.21,-0.70 0.24,-0.95 0.12,-0.40 -0.13,-0.69 -0.32,-0.28 -0.20,0.41 -0.65,1.79 -0.99,2.10 -0.34,0.31 -0.73,1.45 -3.30,0.29 -0.45,-0.17 -1.23,-0.75 -2.46,0.48 -2.77,2.57 -4.68,2.77 -7.79,3.88 -0.38,0.17 -1.16,0.76 -0.23,0.67 0.94,-0.09 4.87,0.00 7.01,-2.46 0.45,-0.43 0.96,-1.58 2.66,-0.92 0.94,0.36 2.68,1.85 4.58,-1.10 1.12,0.75 2.82,0.45 3.09,-0.38 0.27,-0.82 0.58,-1.64 0.58,-2.20 0.00,-0.56 -0.05,-1.30 -0.05,-1.30 -0.04,-0.44 -0.19,-1.07 -0.44,-0.40 z M 307.55,5.62 c 0.79,0.58 1.93,1.04 1.93,1.04 -3.66,4.48 -6.16,5.34 -8.30,6.59 -0.55,0.32 -0.44,0.61 -0.12,0.53 0.17,-0.04 3.05,-0.49 6.41,-3.05 1.82,-1.38 2.92,-3.74 2.92,-3.74 0.00,0.00 0.91,0.76 1.03,0.91 0.28,0.34 0.43,0.60 0.56,0.23 0.48,-1.33 -0.20,-2.13 -0.84,-2.54 0.00,0.00 0.67,-2.07 -0.56,-4.14 -0.21,-0.35 -1.43,-1.46 -2.85,0.74 -0.55,0.84 -0.96,2.85 -0.17,3.42 z M 308.27,3.59 c 0.73,-1.02 1.08,-0.98 1.36,-0.82 0.83,0.77 0.70,2.03 0.67,2.31 0.00,0.00 -1.05,-0.49 -1.52,-0.70 -0.47,-0.20 -0.72,-0.50 -0.50,-0.80 z M 308.01,23.91 c 0.00,0.00 1.25,-0.31 1.47,-0.38 0.22,-0.06 0.34,-0.35 -0.05,-0.55 -0.39,-0.20 -4.09,-1.67 -4.37,-1.79 -0.28,-0.11 -0.38,-0.24 -0.41,0.06 -0.02,0.30 -0.07,2.73 -0.07,2.73 0.00,0.00 -0.06,0.17 0.27,0.35 0.32,0.18 0.64,0.58 0.90,0.84 0.26,0.26 3.70,2.98 3.87,3.07 0.00,0.00 -1.72,3.02 -1.94,5.38 -0.22,2.36 0.04,5.63 3.27,4.58 0.87,-0.25 4.49,-1.69 5.30,-4.21 0.26,-0.93 1.01,-2.61 -0.21,-4.31 -0.70,-1.00 -3.53,-2.69 -3.53,-2.69 0.00,0.00 2.17,-3.00 2.38,-3.37 0.21,-0.37 1.00,-2.69 1.09,-3.26 0.09,-0.56 0.13,-0.84 -0.29,-0.32 -0.42,0.52 -4.63,6.05 -4.63,6.05 z M 314.97,32.79 c -1.20,0.99 -3.72,2.29 -4.43,2.36 -0.71,0.07 -2.59,-0.28 -1.77,-2.20 0.28,-0.62 2.16,-3.84 2.16,-3.84 0.70,0.39 5.24,2.70 4.04,3.69 z M 308.64,14.16 c -0.06,-0.05 -0.15,-0.03 -0.20,0.04 -1.53,2.10 -1.53,2.10 -1.53,2.10 -0.05,0.07 -0.04,0.16 0.03,0.21 2.61,1.91 2.61,1.91 2.61,1.91 0.06,0.05 0.15,0.03 0.20,-0.04 1.32,-1.81 1.32,-1.81 1.32,-1.81 2.54,1.85 2.54,1.85 2.54,1.85 0.06,0.05 0.15,0.03 0.20,-0.04 1.53,-2.10 1.53,-2.10 1.53,-2.10 0.05,-0.07 0.04,-0.16 -0.03,-0.20 -2.61,-1.91 -2.61,-1.91 -2.61,-1.91 -0.06,-0.05 -0.15,-0.03 -0.20,0.04 -1.32,1.81 -1.32,1.81 -1.32,1.81 z M 237.32,31.21 c -0.15,-0.66 -2.78,-6.66 -2.78,-6.66 0.62,0.25 1.01,0.36 1.23,0.46 0.22,0.10 0.59,-0.13 0.24,-0.58 -0.34,-0.45 -2.62,-3.19 -2.68,-3.36 -0.06,-0.18 -0.16,-0.32 -0.23,-0.55 -0.06,-0.24 -0.22,-0.20 -0.32,0.01 -0.09,0.20 -0.67,2.17 -0.70,2.35 -0.04,0.18 0.45,1.97 0.76,2.78 0.81,2.32 2.51,5.57 2.77,6.10 0.27,0.53 0.94,1.61 0.34,2.42 -0.59,0.81 -5.66,5.49 -13.83,7.63 -1.29,0.34 -6.69,1.52 -9.64,-2.54 -0.47,-0.65 -2.63,-3.85 -0.52,-9.90 0.21,0.11 0.44,0.18 0.69,0.17 0.73,-0.04 1.63,-0.71 2.14,-3.40 0.08,-0.61 0.13,-1.09 0.16,-1.33 0.05,-0.36 -0.20,-0.78 -0.39,0.06 -0.44,1.66 -1.75,2.87 -2.91,0.75 -0.19,-0.42 -1.00,-2.36 0.03,-6.75 0.21,-0.85 0.47,-2.12 0.47,-2.12 0.23,-0.96 -0.14,-1.46 -0.48,-0.28 -0.34,1.18 -1.81,5.25 -1.29,9.93 0.08,0.71 0.43,1.85 1.06,2.54 -0.80,1.72 -4.71,13.27 4.33,16.02 2.06,0.63 7.48,1.83 17.29,-5.50 0.93,-0.70 4.94,-4.08 4.25,-8.25 z M 276.61,36.68 c 0.08,-1.04 0.20,-2.55 -0.99,-4.69 -0.63,-1.13 -2.63,-4.77 -2.63,-4.77 0.70,0.22 1.38,0.41 1.68,0.50 0.29,0.09 0.51,-0.03 0.27,-0.36 -0.24,-0.33 -3.75,-4.06 -3.91,-4.23 -0.16,-0.16 -0.21,0.07 -0.24,0.15 -0.03,0.09 -0.44,1.60 -0.52,1.95 -0.09,0.35 -0.08,0.68 0.11,0.88 0.19,0.21 0.63,0.87 0.75,1.14 0.12,0.27 2.03,5.01 2.66,5.99 0.63,0.97 1.57,3.42 1.55,3.63 -0.02,0.21 0.03,0.56 -0.59,0.74 -0.63,0.18 -3.88,0.10 -4.95,-1.88 0.26,-1.24 -0.27,-1.13 -0.53,-0.58 -0.26,0.55 -0.96,2.66 -1.59,3.24 -0.64,0.58 -2.89,1.89 -4.06,-0.95 0.29,-0.78 0.43,-1.18 0.52,-1.40 0.08,-0.22 0.13,-1.10 -0.47,-0.35 -0.60,0.75 -2.06,3.16 -3.60,3.74 -0.45,0.17 -3.08,1.55 -4.50,-1.22 0.13,-0.31 0.36,-1.31 0.43,-1.59 0.07,-0.29 0.02,-1.00 -0.68,-0.32 -0.70,0.68 -2.87,4.02 -6.17,4.11 -0.48,0.01 -3.76,0.18 -5.23,-3.47 -0.78,-1.90 -1.11,-6.07 -1.19,-6.96 -0.08,-0.89 -1.47,-22.12 -3.16,-27.82 -0.42,-1.28 -0.48,-0.86 -0.84,-0.38 -0.35,0.48 -0.97,2.16 -0.88,2.77 1.94,7.96 3.39,29.35 3.65,30.89 0.26,1.54 1.19,8.46 7.04,8.18 1.50,-0.07 3.56,-0.63 5.57,-3.10 0.38,0.55 1.68,3.35 5.18,1.95 0.92,-0.36 2.19,-1.16 3.17,-2.46 0.17,0.55 1.10,2.52 3.47,2.12 0.52,-0.09 2.12,-0.61 2.97,-3.10 0.44,0.34 1.79,2.25 5.44,1.63 0.56,-0.10 2.05,-0.91 2.28,-4.02 z" />
     </g>
</svg>
