<?xml version="1.0" encoding="UTF-8"?>
<svg version="1.1" id="Layer_1" x="0px" y="0px" width="578" height="52" viewBox="0 0 578 52"
xml:space="preserve" xmlns="http://www.w3.org/2000/svg" xmlns:svg="http://www.w3.org/2000/svg" xmlns:rdf="http://www.w3.org/1999/02/22-rdf-syntax-ns#"  xmlns:cc="http://creativecommons.org/ns#" xmlns:dc="http://purl.org/dc/elements/1.1/">
     <g>
<path d="M 302.94,39.36 c 0.39,3.09 0.69,5.88 0.73,7.37 -0.04,0.46 0.17,0.64 0.38,0.19 0.11,-0.24 0.59,-1.22 0.73,-3.80 0.11,-1.94 -0.04,-4.91 -0.60,-9.01 -0.08,-0.60 -2.95,-21.37 -2.95,-21.37 0.00,0.00 1.55,1.46 1.80,1.72 0.25,0.26 0.55,0.12 0.41,-0.30 -0.14,-0.42 -3.31,-8.09 -3.42,-8.36 -0.10,-0.27 -0.20,-0.46 -0.33,-0.15 -0.13,0.31 -1.08,2.64 -1.08,2.64 0.02,0.14 0.28,1.16 0.33,1.54 0.44,3.37 3.20,23.25 3.99,29.54 z M 299.27,32.22 c -0.56,-0.34 -2.24,-1.23 -5.19,0.03 -0.04,0.02 -0.09,0.04 -0.14,0.07 -0.41,-0.82 -0.80,-1.78 -1.05,-2.86 -0.59,-2.33 -3.34,-16.96 -3.34,-16.96 0.00,0.00 1.55,1.46 1.80,1.72 0.25,0.26 0.55,0.12 0.41,-0.30 -0.14,-0.42 -3.36,-7.85 -3.47,-8.12 -0.10,-0.27 -0.20,-0.46 -0.33,-0.15 -0.13,0.31 -1.15,2.55 -1.15,2.55 0.03,0.18 0.27,0.73 0.43,1.87 0.14,0.98 3.69,20.13 4.07,21.44 0.11,0.40 0.31,1.04 0.58,1.80 -0.72,0.34 -1.44,0.67 -1.85,0.83 -0.95,0.38 -4.35,1.26 -6.40,-0.12 0.00,0.00 -1.08,-1.87 -1.22,-2.12 -0.13,-0.24 -0.28,-0.51 -0.42,-0.23 -0.14,0.27 -0.48,1.74 -0.56,2.11 -0.08,0.37 0.06,0.45 0.13,0.60 0.07,0.14 1.75,3.46 2.11,5.41 0.06,0.51 0.20,1.11 -0.26,1.57 -0.46,0.46 -5.26,5.46 -10.16,6.60 -0.95,0.29 -7.50,1.80 -7.88,-3.63 -0.15,-1.03 -0.07,-2.22 -0.04,-2.66 0.01,-0.15 0.00,-0.28 -0.03,-0.40 0.97,0.17 1.84,-0.18 2.11,-0.29 0.53,-0.21 1.81,-0.67 2.99,-3.26 0.39,0.49 2.17,2.00 4.49,1.23 0.44,-0.17 2.55,-1.41 2.19,-5.43 -0.03,-0.58 -0.88,-2.40 -1.17,-2.82 -0.29,-0.43 -0.38,-0.33 -0.52,-0.02 -0.14,0.32 -0.29,0.88 -0.38,1.24 -0.09,0.36 0.00,0.76 0.11,1.06 0.11,0.30 0.56,1.38 0.70,1.81 0.14,0.43 0.20,0.99 -0.41,1.17 -0.61,0.18 -3.60,0.74 -4.16,-1.70 0.06,-0.41 0.26,-0.91 0.39,-1.38 0.14,-0.47 -0.11,-0.86 -0.44,-0.29 -0.33,0.58 -1.49,3.95 -2.49,4.75 -0.67,0.41 -4.25,2.32 -4.87,-1.37 0.12,-0.49 0.21,-0.91 0.33,-1.35 0.12,-0.44 -0.03,-1.29 -0.55,-0.62 -0.52,0.67 -1.40,2.47 -2.05,3.16 -0.65,0.68 -3.91,3.21 -7.44,0.88 -0.61,-0.40 -2.64,-2.46 -3.10,-5.74 -0.21,-1.02 -1.35,-7.79 -1.35,-7.79 0.00,0.00 -2.00,-14.47 -3.76,-18.89 -0.21,-0.51 -0.41,-0.33 -0.63,0.41 -0.21,0.74 -0.59,1.55 -0.20,3.78 0.40,2.23 2.46,13.12 2.66,14.39 0.20,1.27 1.01,6.34 0.94,7.41 -0.03,0.42 -0.03,1.42 -0.40,2.77 -0.20,-1.94 -0.89,-4.94 -2.52,-6.99 -1.91,-2.41 -5.22,-5.34 -6.24,-6.10 -3.17,-2.38 -8.80,-8.56 -8.80,-8.56 0.62,0.22 1.08,0.21 1.50,0.34 0.41,0.13 0.90,0.00 0.28,-0.56 -0.62,-0.56 -5.06,-3.69 -5.43,-4.09 -0.37,-0.40 -0.41,-0.34 -0.44,-0.02 -0.02,0.31 0.00,1.97 0.02,2.48 0.02,0.51 0.14,0.69 0.37,0.85 0.23,0.16 0.60,0.40 0.85,0.78 0.25,0.38 5.13,6.39 9.02,9.67 0.50,0.51 6.63,4.85 10.03,10.56 0.55,1.01 0.78,2.15 0.84,3.15 -0.81,1.88 -2.35,4.14 -5.32,6.36 -0.79,0.59 -7.96,5.06 -8.38,5.35 -0.42,0.29 -0.20,0.42 0.26,0.35 0.46,-0.07 8.69,-2.00 11.55,-5.76 3.56,-4.00 3.54,-7.98 3.54,-7.98 0.20,0.53 1.82,7.94 7.36,8.00 0.74,-0.03 3.36,-0.05 5.87,-3.45 0.53,1.33 1.25,2.01 1.98,2.32 -0.04,0.07 -0.08,0.17 -0.10,0.29 -0.11,0.62 -1.65,8.10 3.70,9.86 0.73,0.22 4.88,1.08 11.11,-3.21 1.01,-0.64 4.58,-3.70 4.97,-5.10 0.40,-1.41 0.60,-3.42 0.63,-5.10 1.45,0.23 3.97,0.13 7.14,-1.37 0.23,-0.11 0.54,-0.33 0.91,-0.57 0.58,1.11 1.32,2.19 2.21,2.96 0.38,0.28 3.91,2.41 5.22,-1.26 0.16,-0.54 0.86,-3.89 -1.17,-5.32 z M 298.61,36.59 c -1.36,0.22 -2.44,-0.90 -2.77,-1.36 -0.07,-0.09 -0.20,-0.25 -0.36,-0.47 0.67,-0.13 1.41,-0.11 2.19,0.19 0.59,0.20 2.31,1.43 0.95,1.65 z M 283.65,27.04 c -0.95,0.70 -1.60,1.11 -1.60,1.11 -0.62,0.44 -1.16,1.28 -0.07,0.81 1.09,-0.46 2.54,-1.19 3.65,-2.86 0.32,-0.49 0.70,-1.14 -0.80,-1.36 -1.50,-0.22 -3.93,-0.58 -4.71,0.28 -0.79,0.86 -1.03,1.44 -1.26,1.81 -0.32,0.50 0.08,0.73 0.45,0.34 0.36,-0.39 0.62,-0.79 1.68,-0.76 1.07,0.03 3.62,-0.07 2.66,0.63 z M 224.73,26.74 c -1.32,1.81 -1.32,1.81 -1.32,1.81 -2.54,-1.85 -2.54,-1.85 -2.54,-1.85 -0.06,-0.05 -0.15,-0.03 -0.20,0.04 -1.53,2.10 -1.53,2.10 -1.53,2.10 -0.05,0.07 -0.04,0.16 0.03,0.21 2.61,1.91 2.61,1.91 2.61,1.91 0.06,0.05 0.15,0.03 0.20,-0.04 1.32,-1.81 1.32,-1.81 1.32,-1.81 2.54,1.85 2.54,1.85 2.54,1.85 0.06,0.05 0.15,0.03 0.20,-0.04 1.53,-2.10 1.53,-2.10 1.53,-2.10 0.05,-0.07 0.04,-0.16 -0.03,-0.21 -2.62,-1.91 -2.62,-1.91 -2.62,-1.91 -0.06,-0.05 -0.15,-0.03 -0.20,0.04 z M 256.72,10.22 c 0.16,0.07 0.33,0.07 0.36,-0.12 0.03,-0.19 0.21,-0.63 0.53,-0.35 0.27,0.23 2.00,1.44 3.07,4.22 0.18,0.36 0.53,0.37 0.56,-0.17 0.09,-1.33 0.01,-3.62 0.06,-4.32 0.07,-0.98 0.37,-3.03 1.69,-2.08 0.30,0.21 0.62,0.50 0.62,0.50 0.29,0.31 0.65,0.66 0.78,0.26 0.19,-0.59 0.31,-1.56 0.01,-2.05 -0.14,-0.22 -1.82,-2.03 -2.75,-0.62 -1.16,1.74 -1.06,3.90 -1.04,6.31 -0.22,-0.49 -1.51,-3.62 -4.95,-5.20 -0.25,-0.11 -0.71,0.18 -0.70,0.94 0.01,0.45 -0.03,1.53 0.30,1.81 0.34,0.28 1.30,0.80 1.46,0.87 z M 236.24,8.25 c 0.27,-0.14 12.08,-5.74 12.57,-6.00 0.48,-0.25 0.72,-0.41 0.91,-0.85 0.18,-0.44 0.23,-0.52 0.33,-0.82 0.10,-0.32 0.25,-0.58 -0.61,-0.19 -0.61,0.28 -12.22,5.85 -12.84,6.15 -0.59,0.28 -0.74,0.44 -0.83,0.87 -0.09,0.42 -0.13,0.67 -0.16,0.73 -0.10,0.28 -0.17,0.53 0.64,0.10 z M 229.40,44.05 c -0.58,0.19 -12.46,4.46 -13.11,4.72 -0.61,0.24 -0.77,0.40 -0.88,0.81 -0.11,0.41 -0.17,0.66 -0.20,0.72 -0.12,0.28 -0.26,0.51 0.63,0.14 0.43,-0.18 12.22,-4.32 12.83,-4.59 0.49,-0.22 0.75,-0.36 0.96,-0.79 0.21,-0.42 0.26,-0.50 0.38,-0.80 0.13,-0.32 0.27,-0.51 -0.60,-0.22 z M 254.22,24.04 c 0.34,-0.19 26.22,-14.23 26.81,-14.62 0.59,-0.39 0.94,-0.53 1.18,-1.10 0.24,-0.57 0.30,-0.67 0.43,-1.07 0.14,-0.42 0.30,-0.81 -0.80,-0.24 -0.73,0.38 -26.42,14.40 -27.17,14.81 -0.75,0.41 -0.97,0.58 -1.08,1.13 -0.11,0.55 -0.17,0.84 -0.20,0.96 -0.11,0.38 -0.26,0.76 0.83,0.14 z M 292.37,44.34 c -0.31,0.83 -1.13,1.41 -1.74,0.30 -0.10,-0.22 -0.51,-1.23 0.25,-3.42 0.15,-0.43 0.35,-1.06 0.35,-1.06 0.17,-0.48 -0.03,-0.74 -0.28,-0.15 -0.24,0.59 -1.25,2.61 -1.09,5.00 0.04,0.55 0.40,1.63 1.23,1.65 0.43,0.00 0.99,-0.31 1.38,-1.66 0.07,-0.30 0.11,-0.55 0.14,-0.67 0.04,-0.18 -0.09,-0.40 -0.23,0.02 z M 252.25,47.37 c -0.31,0.83 -1.13,1.41 -1.74,0.30 -0.10,-0.22 -0.51,-1.22 0.25,-3.42 0.15,-0.43 0.35,-1.06 0.35,-1.06 0.17,-0.48 -0.03,-0.74 -0.28,-0.16 -0.24,0.59 -1.25,2.61 -1.09,5.00 0.04,0.55 0.40,1.63 1.23,1.66 0.43,0.00 0.98,-0.31 1.38,-1.66 0.07,-0.31 0.11,-0.55 0.14,-0.67 0.04,-0.18 -0.09,-0.40 -0.23,0.02 z M 266.84,20.63 c 0.21,-0.64 -0.10,-0.96 -0.40,-0.18 -0.30,0.78 -1.59,3.50 -1.19,6.59 0.09,0.72 0.69,2.08 1.88,2.05 0.61,-0.04 1.38,-0.49 1.85,-2.27 0.08,-0.40 0.12,-0.72 0.15,-0.88 0.05,-0.24 -0.16,-0.51 -0.33,0.04 -0.39,1.10 -1.51,1.92 -2.46,0.53 -0.16,-0.28 -0.82,-1.55 0.10,-4.47 0.19,-0.57 0.41,-1.41 0.41,-1.41 z M 221.49,21.39 c 0.09,0.67 0.65,1.96 1.77,1.93 0.58,-0.03 1.30,-0.46 1.74,-2.14 0.07,-0.38 0.11,-0.68 0.14,-0.83 0.04,-0.23 -0.15,-0.48 -0.31,0.04 -0.36,1.04 -1.42,1.80 -2.32,0.49 -0.15,-0.26 -0.77,-1.46 0.09,-4.20 0.17,-0.53 0.39,-1.33 0.39,-1.33 0.20,-0.60 -0.10,-0.91 -0.38,-0.17 -0.28,0.74 -1.49,3.29 -1.12,6.20 z M 209.13,28.98 c 0.68,-0.04 1.54,-0.66 2.03,-3.18 0.08,-0.57 0.12,-1.02 0.15,-1.24 0.05,-0.34 -0.19,-0.73 -0.37,0.05 -0.42,1.55 -1.66,2.68 -2.75,0.70 -0.18,-0.39 -0.94,-2.20 0.04,-6.30 0.20,-0.80 0.44,-1.98 0.44,-1.98 0.22,-0.90 -0.13,-1.36 -0.45,-0.26 -0.32,1.10 -1.71,4.91 -1.22,9.28 0.11,1.01 0.81,2.95 2.14,2.93 z M 338.28,22.68 c 0.48,0.00 1.11,-0.35 1.55,-1.88 0.08,-0.34 0.13,-0.62 0.16,-0.75 0.05,-0.21 -0.10,-0.45 -0.26,0.02 -0.35,0.93 -1.27,1.58 -1.96,0.33 -0.11,-0.25 -0.58,-1.38 0.28,-3.86 0.17,-0.48 0.39,-1.20 0.39,-1.20 0.19,-0.54 -0.04,-0.84 -0.31,-0.17 -0.27,0.66 -1.40,2.94 -1.23,5.64 0.04,0.62 0.45,1.83 1.39,1.87 z M 320.59,14.70 c 0.25,-0.16 13.84,-8.02 14.32,-8.31 0.46,-0.29 0.72,-0.41 0.91,-0.85 0.18,-0.44 0.23,-0.52 0.33,-0.82 0.10,-0.32 0.21,-0.67 -0.61,-0.19 -0.53,0.31 -14.04,8.11 -14.59,8.46 -0.55,0.35 -0.74,0.44 -0.83,0.86 -0.09,0.42 -0.13,0.67 -0.16,0.73 -0.10,0.28 -0.17,0.63 0.64,0.10 z M 361.64,8.77 c 0.79,0.58 1.93,1.04 1.93,1.04 -3.66,4.48 -10.84,7.67 -12.55,9.01 -0.51,0.39 -0.44,0.61 -0.12,0.53 0.28,-0.08 5.76,-1.61 10.76,-5.90 2.29,-1.97 2.23,-2.11 2.81,-3.31 0.50,0.26 0.84,0.67 1.03,0.91 0.28,0.34 0.43,0.60 0.56,0.23 0.48,-1.33 -0.20,-2.13 -0.84,-2.54 0.00,0.00 0.67,-2.07 -0.56,-4.14 -0.21,-0.35 -1.43,-1.46 -2.85,0.74 -0.55,0.84 -0.96,2.85 -0.17,3.42 z M 362.36,6.74 c 0.73,-1.02 1.08,-0.98 1.36,-0.82 0.83,0.77 0.70,2.03 0.67,2.31 0.00,0.00 -1.05,-0.49 -1.52,-0.70 -0.47,-0.20 -0.72,-0.50 -0.50,-0.80 z M 364.39,16.70 c 0.18,-0.50 -0.03,-0.77 -0.29,-0.16 -0.25,0.61 -1.30,2.73 -1.14,5.22 0.04,0.58 0.42,1.70 1.29,1.73 0.45,0.00 1.03,-0.33 1.44,-1.74 0.07,-0.32 0.12,-0.57 0.15,-0.70 0.04,-0.19 -0.10,-0.42 -0.24,0.02 -0.33,0.86 -1.18,1.47 -1.82,0.31 -0.10,-0.23 -0.53,-1.28 0.26,-3.57 0.16,-0.45 0.36,-1.11 0.36,-1.11 z M 343.79,9.43 c 0.17,0.09 0.36,0.11 0.41,-0.10 0.05,-0.21 0.29,-0.68 0.62,-0.34 0.28,0.28 2.09,1.78 3.03,4.95 0.16,0.42 0.55,0.46 0.64,-0.14 0.22,-1.47 0.34,-4.02 0.45,-4.79 0.16,-1.09 0.68,-3.33 2.06,-2.16 0.31,0.26 0.64,0.61 0.64,0.61 0.29,0.37 0.66,0.79 0.84,0.36 0.27,-0.64 0.49,-1.70 0.19,-2.28 -0.13,-0.26 -1.83,-2.41 -3.00,-0.93 -1.44,1.83 -1.53,4.23 -1.72,6.91 -0.20,-0.56 -1.35,-4.16 -5.02,-6.21 -0.27,-0.15 -0.81,0.13 -0.86,0.98 -0.03,0.49 -0.17,1.69 0.18,2.03 0.35,0.34 1.37,1.01 1.54,1.10 z M 366.77,39.61 c -0.24,0.68 -0.34,1.12 -0.32,1.38 0.03,0.26 0.12,1.10 0.12,1.10 -0.25,0.20 -1.33,0.87 -2.40,0.08 0.07,-0.23 0.21,-0.70 0.24,-0.95 0.12,-0.40 -0.13,-0.69 -0.32,-0.28 -0.20,0.41 -0.65,1.79 -0.99,2.10 -0.34,0.31 -0.73,1.45 -3.30,0.29 -0.45,-0.17 -1.23,-0.75 -2.46,0.48 -2.77,2.57 -4.68,2.77 -7.79,3.88 -0.38,0.17 -1.16,0.76 -0.23,0.67 0.94,-0.09 4.87,0.00 7.01,-2.46 0.45,-0.43 0.96,-1.58 2.66,-0.92 0.94,0.36 2.68,1.85 4.58,-1.10 1.12,0.75 2.82,0.45 3.09,-0.37 0.27,-0.82 0.58,-1.64 0.58,-2.20 0.00,-0.56 -0.05,-1.30 -0.05,-1.30 -0.04,-0.44 -0.19,-1.07 -0.44,-0.40 z M 369.97,27.30 c -0.25,-0.28 -0.38,-0.01 -0.46,0.31 -0.09,0.32 -0.36,1.52 -0.53,2.27 0.00,0.00 0.71,1.16 0.97,1.75 0.25,0.59 -0.12,0.92 -0.86,1.01 -2.08,0.25 -3.73,-0.94 -4.30,-1.49 -0.57,-0.55 0.05,-1.52 0.51,-2.68 0.37,-0.93 -0.32,-1.04 -0.84,0.00 -1.76,4.63 -4.23,5.12 -4.88,5.30 -5.86,1.60 -5.36,-3.76 -5.34,-4.64 0.02,-0.88 -0.62,-0.55 -1.34,0.03 -2.47,1.98 -4.45,3.14 -5.52,3.62 -0.92,-1.80 -2.26,-2.93 -2.82,-3.34 -6.34,-4.63 -6.87,4.71 -6.67,5.71 0.97,3.97 7.44,1.56 8.46,1.44 1.01,-0.12 0.68,1.22 0.11,2.02 -1.41,1.97 -3.03,3.38 -4.50,4.57 -6.28,5.13 -9.43,4.72 -10.41,4.69 -6.17,-0.17 -5.60,-6.82 -5.26,-8.24 1.86,-1.57 3.45,-3.28 4.38,-5.04 0.38,-0.96 1.03,-3.15 -0.15,-5.91 -0.62,-1.21 -2.56,-4.60 -2.56,-4.60 0.00,0.00 1.43,0.04 1.57,0.04 0.14,0.00 0.41,-0.14 0.06,-0.55 -0.35,-0.40 -3.36,-3.40 -3.54,-3.65 -0.18,-0.24 -0.35,-0.42 -0.45,-0.06 -0.10,0.36 -0.36,1.88 -0.42,2.20 -0.06,0.31 -0.06,0.63 0.10,0.90 0.15,0.27 0.55,1.20 0.84,1.96 0.29,0.76 3.26,6.47 3.53,6.98 0.27,0.51 0.33,0.89 0.06,1.22 -9.53,10.05 -27.91,16.23 -28.50,16.57 -0.59,0.34 -0.43,0.61 0.56,0.43 1.48,-0.26 9.74,-1.64 12.09,-2.77 1.55,-0.75 6.97,-3.41 11.41,-6.89 -0.12,0.90 -0.24,2.22 -0.18,3.89 0.30,8.08 7.53,6.74 9.43,6.33 5.68,-1.25 12.64,-9.11 13.23,-10.68 0.58,-1.56 0.67,-2.98 0.54,-4.22 1.50,-0.81 4.71,-3.40 4.71,-3.40 0.13,3.45 2.88,4.48 3.72,4.63 3.96,0.60 5.94,-2.71 6.78,-3.78 0.72,1.89 2.45,2.26 3.34,2.43 3.41,0.68 4.08,-1.74 4.26,-2.29 1.07,-3.33 -0.86,-5.81 -1.11,-6.08 z M 341.34,33.97 c -2.02,-0.14 -1.85,-0.92 -1.57,-1.23 0.30,-0.33 2.78,-1.89 4.85,0.89 0.00,0.00 -0.86,0.50 -3.28,0.33 z M 303.91,16.18 c 0.17,-0.04 3.05,-0.49 6.41,-3.05 1.82,-1.38 2.92,-3.74 2.92,-3.74 0.00,0.00 0.91,0.76 1.03,0.91 0.28,0.34 0.43,0.60 0.56,0.23 0.48,-1.33 -0.20,-2.13 -0.84,-2.54 0.00,0.00 0.67,-2.07 -0.56,-4.14 -0.21,-0.35 -1.43,-1.46 -2.85,0.74 -0.55,0.84 -0.96,2.85 -0.17,3.42 0.79,0.58 1.93,1.04 1.93,1.04 -3.66,4.48 -6.16,5.34 -8.30,6.59 -0.55,0.32 -0.44,0.61 -0.12,0.53 z M 311.63,6.79 c -0.47,-0.20 -0.72,-0.50 -0.50,-0.80 0.73,-1.02 1.08,-0.98 1.36,-0.82 0.83,0.77 0.70,2.03 0.67,2.31 0.00,0.00 -1.05,-0.49 -1.52,-0.70 z M 310.87,26.31 c 0.00,0.00 1.25,-0.31 1.47,-0.38 0.22,-0.06 0.34,-0.35 -0.05,-0.55 -0.39,-0.20 -4.09,-1.67 -4.37,-1.79 -0.28,-0.11 -0.38,-0.24 -0.41,0.06 -0.02,0.30 -0.07,2.73 -0.07,2.73 0.00,0.00 -0.06,0.17 0.27,0.35 0.32,0.18 0.64,0.58 0.90,0.84 0.26,0.26 3.70,2.98 3.87,3.07 0.00,0.00 -1.72,3.02 -1.94,5.38 -0.22,2.36 0.04,5.63 3.27,4.57 0.87,-0.25 4.49,-1.69 5.30,-4.21 0.26,-0.93 1.01,-2.61 -0.21,-4.31 -0.70,-1.00 -3.53,-2.69 -3.53,-2.69 0.00,0.00 2.17,-3.00 2.38,-3.37 0.21,-0.37 1.00,-2.69 1.09,-3.26 0.09,-0.56 0.13,-0.84 -0.29,-0.32 -0.42,0.52 -4.63,6.05 -4.63,6.05 z M 317.82,35.19 c -1.20,0.99 -3.72,2.29 -4.43,2.36 -0.71,0.07 -2.59,-0.28 -1.77,-2.20 0.28,-0.62 2.16,-3.84 2.16,-3.84 0.70,0.39 5.24,2.70 4.04,3.69 z M 311.49,16.57 c -0.06,-0.05 -0.15,-0.03 -0.20,0.04 -1.53,2.10 -1.53,2.10 -1.53,2.10 -0.05,0.07 -0.04,0.16 0.03,0.21 2.61,1.91 2.61,1.91 2.61,1.91 0.06,0.05 0.15,0.03 0.20,-0.04 1.32,-1.81 1.32,-1.81 1.32,-1.81 2.54,1.85 2.54,1.85 2.54,1.85 0.06,0.05 0.15,0.03 0.20,-0.04 1.53,-2.10 1.53,-2.10 1.53,-2.10 0.05,-0.07 0.04,-0.16 -0.03,-0.20 -2.61,-1.91 -2.61,-1.91 -2.61,-1.91 -0.06,-0.05 -0.15,-0.03 -0.20,0.04 -1.32,1.81 -1.32,1.81 -1.32,1.81 z M 213.43,10.20 c 0.17,0.10 0.35,0.11 0.40,-0.10 0.05,-0.21 0.28,-0.68 0.61,-0.34 0.24,0.24 2.17,1.94 2.76,4.27 0.49,2.02 -4.48,6.10 -4.74,6.29 -0.47,0.33 -0.32,0.55 -0.10,0.43 0.22,-0.12 0.43,-0.15 2.98,-1.83 2.06,-1.36 2.49,-2.93 2.66,-4.14 0.02,-0.06 0.04,-0.13 0.05,-0.21 0.21,-1.47 0.33,-4.02 0.44,-4.79 0.16,-1.09 0.67,-3.32 2.03,-2.16 0.31,0.26 0.63,0.61 0.63,0.61 0.29,0.37 0.65,0.79 0.83,0.36 0.27,-0.64 0.48,-1.70 0.19,-2.28 -0.13,-0.25 -1.81,-2.41 -2.95,-0.93 -1.42,1.83 -1.51,4.23 -1.69,6.91 -0.20,-0.56 -1.33,-4.16 -4.95,-6.21 -0.26,-0.15 -0.80,0.13 -0.85,0.98 -0.03,0.49 -0.17,1.69 0.17,2.03 0.34,0.34 1.35,1.01 1.52,1.10 z M 237.03,36.04 c 0.36,-0.47 1.63,-2.91 0.62,-5.20 -0.40,-0.90 -2.14,-3.18 -2.49,-3.63 -0.35,-0.46 -0.61,-0.51 -0.75,-0.02 -0.14,0.49 -0.64,2.91 -0.64,2.91 0.57,0.64 3.10,3.40 2.47,3.99 -0.63,0.59 -6.33,5.12 -19.92,6.15 -1.52,0.12 -8.60,0.11 -8.36,-4.99 0.04,-0.76 0.57,-3.22 1.45,-4.61 0.23,-0.53 -0.38,-0.85 -0.73,-0.25 -0.35,0.60 -4.78,7.15 -0.15,11.45 0.40,0.39 4.17,3.77 18.27,-0.29 3.35,-0.92 8.18,-2.83 10.23,-5.51 z M 282.24,12.96 c -0.53,0.75 -0.95,2.58 -0.25,3.13 0.71,0.55 1.74,1.00 1.74,1.00 -3.46,4.01 -8.24,7.74 -10.23,8.83 -0.51,0.28 -0.42,0.55 -0.12,0.48 0.15,-0.04 2.77,-0.92 5.93,-3.13 2.67,-1.86 5.24,-5.85 5.24,-5.85 0.00,0.00 0.81,0.72 0.92,0.86 0.24,0.32 0.38,0.56 0.50,0.23 0.47,-1.20 -0.13,-1.95 -0.71,-2.35 0.00,0.00 0.67,-1.88 -0.41,-3.81 -0.18,-0.32 -1.27,-1.37 -2.63,0.60 z M 283.97,13.54 c 0.73,0.72 0.59,1.87 0.55,2.13 0.00,0.00 -0.95,-0.48 -1.38,-0.68 -0.43,-0.20 -0.64,-0.48 -0.44,-0.74 0.69,-0.92 1.02,-0.87 1.26,-0.71 z" />
     </g>
</svg>
