<?xml version="1.0" encoding="UTF-8"?>
<svg version="1.1" id="Layer_1" x="0px" y="0px" width="578" height="50" viewBox="0 0 578 50"
xml:space="preserve" xmlns="http://www.w3.org/2000/svg" xmlns:svg="http://www.w3.org/2000/svg" xmlns:rdf="http://www.w3.org/1999/02/22-rdf-syntax-ns#"  xmlns:cc="http://creativecommons.org/ns#" xmlns:dc="http://purl.org/dc/elements/1.1/">
     <g>
<path d="M 258.29,12.10 c -1.92,2.63 -1.92,2.63 -1.92,2.63 -0.06,0.08 -0.05,0.20 0.03,0.25 3.27,2.38 3.27,2.38 3.27,2.38 0.08,0.06 0.19,0.04 0.25,-0.05 1.91,-2.63 1.91,-2.63 1.91,-2.63 0.06,-0.08 0.05,-0.20 -0.03,-0.25 -3.27,-2.38 -3.27,-2.38 -3.27,-2.38 -0.08,-0.06 -0.19,-0.04 -0.25,0.05 z M 285.15,24.12 c -1.92,2.63 -1.92,2.63 -1.92,2.63 -0.06,0.08 -0.05,0.20 0.03,0.25 3.27,2.38 3.27,2.38 3.27,2.38 0.08,0.06 0.19,0.04 0.25,-0.05 1.91,-2.63 1.91,-2.63 1.91,-2.63 0.06,-0.08 0.05,-0.20 -0.03,-0.25 -3.27,-2.38 -3.27,-2.38 -3.27,-2.38 -0.08,-0.06 -0.19,-0.04 -0.25,0.05 z M 304.02,42.03 c -0.04,0.46 0.16,0.64 0.38,0.19 0.11,-0.24 0.59,-1.22 0.75,-3.80 0.12,-1.94 -0.02,-4.91 -0.56,-9.01 -0.08,-0.60 -2.85,-21.38 -2.85,-21.38 0.00,0.00 1.54,1.46 1.79,1.73 0.25,0.26 0.55,0.13 0.41,-0.30 -0.14,-0.43 -3.28,-8.11 -3.38,-8.38 -0.10,-0.27 -0.20,-0.46 -0.33,-0.15 -0.13,0.31 -1.09,2.63 -1.09,2.63 0.02,0.14 0.28,1.16 0.33,1.54 0.42,3.37 3.09,23.27 3.85,29.56 0.38,3.10 0.66,5.88 0.70,7.38 z M 293.88,7.99 c 0.00,0.00 1.26,1.15 1.51,1.41 0.25,0.27 0.55,0.13 0.41,-0.30 -0.14,-0.43 -2.99,-7.80 -3.09,-8.06 -0.10,-0.27 -0.20,-0.46 -0.33,-0.15 -0.13,0.31 -1.16,2.54 -1.16,2.54 0.03,0.18 0.26,0.74 0.42,1.87 0.15,1.07 0.36,2.56 0.60,4.22 0.00,0.00 2.92,19.74 3.05,21.18 0.14,1.44 0.44,4.69 0.39,5.16 -0.05,0.47 -0.13,0.82 -1.16,1.20 -1.04,0.38 -3.93,1.54 -5.97,-0.61 -0.25,-0.29 -0.72,-0.86 -0.85,-1.49 -0.13,-0.63 0.01,-2.47 -0.54,-1.82 -0.46,0.54 -4.26,6.13 -9.54,5.50 -1.13,-0.13 -4.56,-0.71 -5.32,-7.69 -0.20,-1.35 -1.55,-25.25 -3.28,-30.08 -0.29,-0.73 -0.40,-0.09 -0.53,0.09 -0.13,0.18 -0.93,1.71 -0.78,2.57 1.70,7.78 2.62,25.25 2.84,27.23 0.18,1.58 0.78,11.02 7.48,11.22 1.45,0.04 5.97,-0.88 8.10,-5.09 0.26,0.54 1.66,4.95 6.72,3.88 0.86,-0.18 3.63,-1.05 4.15,-4.85 0.10,-0.74 0.31,-2.72 0.05,-5.13 -0.16,-1.52 -3.17,-22.80 -3.17,-22.80 z M 287.31,15.18 c -0.45,-0.75 -0.75,-2.02 -0.75,-2.02 -0.16,-0.45 -0.28,-0.91 -0.48,-0.29 -0.20,0.62 -0.35,1.10 -0.08,1.82 0.27,0.71 1.00,2.33 1.12,2.56 0.12,0.23 0.15,0.49 -0.25,0.66 -0.40,0.17 -2.24,0.56 -2.58,-1.40 -0.34,-1.96 -0.37,-2.53 -0.54,-2.86 -0.17,-0.33 -0.33,-0.37 -0.46,-0.04 -0.13,0.33 -0.21,1.01 -0.23,1.13 -0.02,0.11 -0.02,0.19 0.05,0.31 0.07,0.12 0.80,2.31 0.47,2.91 -0.33,0.60 -1.98,1.69 -2.84,0.55 -0.41,-0.79 -0.16,-2.80 -0.16,-3.27 0.00,-0.47 -0.15,-0.63 -0.35,-0.25 -0.20,0.38 -0.31,0.63 -0.30,0.97 0.01,0.34 0.06,1.81 0.03,2.27 -0.03,0.46 0.00,1.96 0.88,2.38 0.88,0.42 2.17,0.03 3.14,-1.81 0.75,1.09 1.90,1.10 2.51,0.87 0.52,-0.19 1.10,-0.97 1.27,-2.06 0.17,-1.08 -0.11,-1.83 -0.45,-2.44 z M 221.45,23.67 c -1.32,1.81 -1.32,1.81 -1.32,1.81 -2.54,-1.85 -2.54,-1.85 -2.54,-1.85 -0.06,-0.05 -0.15,-0.03 -0.20,0.04 -1.53,2.10 -1.53,2.10 -1.53,2.10 -0.05,0.07 -0.04,0.16 0.03,0.21 2.61,1.91 2.61,1.91 2.61,1.91 0.06,0.05 0.15,0.03 0.20,-0.04 1.32,-1.81 1.32,-1.81 1.32,-1.81 2.54,1.85 2.54,1.85 2.54,1.85 0.06,0.05 0.15,0.03 0.20,-0.04 1.53,-2.10 1.53,-2.10 1.53,-2.10 0.05,-0.07 0.04,-0.16 -0.03,-0.21 -2.61,-1.91 -2.61,-1.91 -2.61,-1.91 -0.06,-0.05 -0.15,-0.03 -0.20,0.04 z M 270.06,41.98 c -0.55,0.28 -7.06,3.05 -7.63,3.36 -0.57,0.32 -0.77,0.40 -0.88,0.81 -0.11,0.41 -0.17,0.66 -0.20,0.72 -0.12,0.28 -0.21,0.62 0.63,0.14 0.26,-0.15 6.88,-2.97 7.35,-3.23 0.47,-0.27 0.75,-0.36 0.96,-0.79 0.21,-0.42 0.26,-0.50 0.38,-0.80 0.13,-0.32 0.25,-0.65 -0.60,-0.22 z M 274.25,11.45 c 0.26,-0.15 13.68,-5.67 14.15,-5.94 0.47,-0.27 0.75,-0.36 0.96,-0.79 0.21,-0.43 0.26,-0.50 0.38,-0.80 0.13,-0.32 0.25,-0.65 -0.60,-0.23 -0.55,0.28 -13.86,5.75 -14.43,6.07 -0.57,0.32 -0.77,0.40 -0.88,0.81 -0.11,0.42 -0.17,0.66 -0.20,0.72 -0.12,0.28 -0.21,0.62 0.63,0.15 z M 229.09,40.72 c -0.58,0.19 -13.01,5.22 -13.65,5.48 -0.60,0.24 -0.77,0.40 -0.88,0.81 -0.11,0.41 -0.17,0.66 -0.20,0.72 -0.12,0.28 -0.26,0.51 0.63,0.14 0.43,-0.18 12.76,-5.08 13.37,-5.35 0.49,-0.22 0.75,-0.36 0.96,-0.79 0.21,-0.42 0.26,-0.50 0.38,-0.80 0.12,-0.32 0.27,-0.51 -0.60,-0.22 z M 241.38,13.30 c 0.29,-0.17 18.44,-9.93 18.95,-10.27 0.51,-0.33 0.81,-0.46 1.02,-0.95 0.21,-0.49 0.26,-0.58 0.37,-0.92 0.12,-0.36 0.26,-0.70 -0.69,-0.21 -0.63,0.33 -18.61,10.08 -19.26,10.43 -0.64,0.35 -0.83,0.50 -0.93,0.97 -0.10,0.47 -0.15,0.73 -0.18,0.83 -0.09,0.32 -0.22,0.66 0.72,0.12 z M 278.59,26.63 c 0.19,-0.54 -0.04,-0.83 -0.31,-0.17 -0.27,0.65 -1.39,2.91 -1.22,5.57 0.04,0.61 0.45,1.81 1.37,1.84 0.48,0.00 1.10,-0.35 1.54,-1.85 0.08,-0.34 0.12,-0.61 0.16,-0.74 0.05,-0.20 -0.10,-0.45 -0.26,0.02 -0.35,0.92 -1.26,1.56 -1.94,0.33 -0.11,-0.25 -0.57,-1.36 0.27,-3.81 0.17,-0.47 0.38,-1.18 0.38,-1.18 z M 286.63,41.35 c -0.47,-0.08 -1.14,0.15 -1.84,1.55 -0.13,0.32 -0.23,0.58 -0.28,0.71 -0.08,0.19 0.02,0.46 0.26,0.02 0.51,-0.85 1.52,-1.32 1.97,0.02 0.07,0.26 0.32,1.44 -0.94,3.70 -0.25,0.44 -0.59,1.10 -0.59,1.10 -0.28,0.49 -0.11,0.82 0.27,0.22 0.38,-0.60 1.88,-2.62 2.18,-5.27 0.07,-0.61 -0.12,-1.86 -1.03,-2.06 z M 251.36,13.46 c 0.20,-0.56 -0.04,-0.87 -0.32,-0.18 -0.28,0.69 -1.46,3.06 -1.28,5.85 0.04,0.64 0.47,1.90 1.44,1.94 0.50,0.00 1.15,-0.37 1.61,-1.95 0.08,-0.36 0.13,-0.64 0.16,-0.78 0.05,-0.21 -0.11,-0.47 -0.27,0.02 -0.37,0.97 -1.32,1.64 -2.04,0.35 -0.12,-0.26 -0.60,-1.43 0.29,-4.00 0.18,-0.50 0.40,-1.24 0.40,-1.24 z M 235.02,45.48 c -0.37,0.97 -1.32,1.64 -2.04,0.35 -0.12,-0.26 -0.60,-1.43 0.29,-4.00 0.18,-0.50 0.40,-1.24 0.40,-1.24 0.20,-0.56 -0.04,-0.87 -0.32,-0.18 -0.28,0.69 -1.46,3.06 -1.28,5.85 0.04,0.65 0.47,1.90 1.44,1.94 0.50,0.00 1.15,-0.37 1.61,-1.95 0.08,-0.36 0.13,-0.64 0.16,-0.78 0.05,-0.21 -0.11,-0.47 -0.27,0.02 z M 228.59,16.24 c 0.61,0.01 1.42,-0.49 2.02,-2.69 0.11,-0.50 0.18,-0.90 0.22,-1.09 0.07,-0.30 -0.12,-0.66 -0.33,0.02 -0.48,1.35 -1.66,2.27 -2.50,0.44 -0.13,-0.36 -0.69,-2.02 0.46,-5.60 0.23,-0.69 0.53,-1.73 0.53,-1.73 0.26,-0.78 -0.03,-1.22 -0.39,-0.26 -0.36,0.96 -1.86,4.25 -1.72,8.16 0.03,0.90 0.52,2.68 1.71,2.74 z M 370.72,24.89 c -0.25,-0.28 -0.37,-0.01 -0.46,0.31 -0.09,0.32 -0.36,1.52 -0.54,2.27 0.00,0.00 0.71,1.16 0.97,1.75 0.25,0.59 -0.12,0.92 -0.86,1.01 -2.08,0.25 -3.73,-0.94 -4.30,-1.49 -0.57,-0.55 0.05,-1.52 0.51,-2.68 0.37,-0.93 -0.32,-1.04 -0.84,0.00 -1.76,4.63 -4.23,5.12 -4.88,5.30 -5.86,1.60 -5.36,-3.76 -5.34,-4.64 0.02,-0.88 -0.62,-0.55 -1.34,0.03 -2.47,1.98 -4.45,3.14 -5.52,3.62 -0.92,-1.80 -2.26,-2.93 -2.82,-3.34 -6.34,-4.63 -6.87,4.71 -6.67,5.71 0.97,3.97 7.45,1.56 8.46,1.44 1.02,-0.12 0.68,1.22 0.11,2.02 -1.41,1.97 -3.03,3.38 -4.50,4.58 -6.28,5.13 -9.44,4.72 -10.41,4.69 -6.17,-0.17 -5.60,-6.82 -5.26,-8.24 1.86,-1.57 3.45,-3.28 4.38,-5.04 0.38,-0.96 1.03,-3.15 -0.15,-5.91 -0.62,-1.21 -2.56,-4.60 -2.56,-4.60 0.00,0.00 1.43,0.04 1.57,0.04 0.14,0.00 0.41,-0.14 0.06,-0.54 -0.35,-0.40 -3.36,-3.41 -3.54,-3.65 -0.18,-0.24 -0.35,-0.41 -0.45,-0.06 -0.10,0.36 -0.36,1.88 -0.42,2.20 -0.06,0.31 -0.06,0.63 0.10,0.90 0.16,0.27 0.55,1.20 0.84,1.96 0.29,0.76 3.25,6.47 3.53,6.98 0.27,0.51 0.33,0.88 0.06,1.22 -9.53,10.05 -27.91,16.23 -28.50,16.58 -0.59,0.34 -0.43,0.61 0.56,0.43 1.48,-0.26 9.74,-1.64 12.09,-2.77 1.55,-0.75 6.97,-3.41 11.41,-6.89 -0.12,0.90 -0.24,2.22 -0.17,3.89 0.30,8.08 7.53,6.74 9.43,6.33 5.68,-1.25 12.64,-9.11 13.23,-10.68 0.58,-1.56 0.67,-2.98 0.54,-4.22 1.50,-0.81 4.71,-3.40 4.71,-3.40 0.13,3.45 2.87,4.48 3.72,4.63 3.96,0.60 5.94,-2.70 6.78,-3.78 0.72,1.89 2.45,2.26 3.34,2.43 3.41,0.68 4.08,-1.73 4.25,-2.29 1.07,-3.33 -0.86,-5.81 -1.11,-6.08 z M 342.08,31.57 c -2.02,-0.14 -1.85,-0.92 -1.57,-1.22 0.30,-0.33 2.78,-1.89 4.85,0.89 0.00,0.00 -0.86,0.50 -3.28,0.33 z M 266.67,35.58 c 0.38,-0.93 0.77,-3.50 -0.41,-6.15 -0.62,-1.16 -2.45,-4.87 -2.45,-4.87 0.00,0.00 1.43,0.04 1.57,0.04 0.14,0.00 0.41,-0.14 0.06,-0.52 -0.35,-0.39 -3.36,-3.28 -3.54,-3.51 -0.18,-0.23 -0.35,-0.40 -0.45,-0.06 -0.10,0.34 -0.36,1.81 -0.42,2.12 -0.06,0.30 -0.06,0.60 0.10,0.86 0.15,0.26 0.55,1.15 0.84,1.88 0.29,0.73 3.03,6.42 3.27,6.93 0.96,2.05 0.41,2.21 0.14,2.53 -10.52,8.88 -26.18,13.13 -27.00,13.59 -0.59,0.33 -0.43,0.58 0.56,0.42 1.48,-0.25 8.42,-0.79 10.77,-1.88 2.35,-1.09 13.75,-5.50 16.97,-11.37 z M 311.61,23.91 c 0.00,0.00 1.25,-0.31 1.47,-0.38 0.22,-0.06 0.34,-0.34 -0.05,-0.55 -0.39,-0.20 -4.09,-1.67 -4.37,-1.79 -0.28,-0.11 -0.38,-0.24 -0.41,0.06 -0.02,0.30 -0.07,2.73 -0.07,2.73 0.00,0.00 -0.06,0.17 0.27,0.35 0.32,0.18 0.64,0.58 0.90,0.84 0.26,0.26 3.70,2.98 3.87,3.07 0.00,0.00 -1.72,3.02 -1.94,5.38 -0.22,2.36 0.04,5.63 3.27,4.57 0.87,-0.25 4.49,-1.69 5.30,-4.21 0.26,-0.93 1.01,-2.61 -0.21,-4.31 -0.70,-1.00 -3.53,-2.69 -3.53,-2.69 0.00,0.00 2.17,-3.00 2.38,-3.37 0.21,-0.37 1.01,-2.69 1.09,-3.26 0.09,-0.56 0.13,-0.84 -0.29,-0.32 -0.42,0.52 -4.63,6.05 -4.63,6.05 z M 318.57,32.79 c -1.20,0.99 -3.72,2.29 -4.43,2.36 -0.71,0.07 -2.59,-0.28 -1.77,-2.20 0.28,-0.62 2.16,-3.84 2.16,-3.84 0.70,0.39 5.24,2.70 4.04,3.69 z M 312.24,14.16 c -0.06,-0.05 -0.15,-0.03 -0.20,0.04 -1.53,2.10 -1.53,2.10 -1.53,2.10 -0.05,0.07 -0.04,0.16 0.03,0.20 2.61,1.91 2.61,1.91 2.61,1.91 0.06,0.05 0.15,0.03 0.20,-0.04 1.32,-1.81 1.32,-1.81 1.32,-1.81 2.54,1.85 2.54,1.85 2.54,1.85 0.06,0.05 0.15,0.03 0.20,-0.04 1.53,-2.10 1.53,-2.10 1.53,-2.10 0.05,-0.07 0.04,-0.16 -0.03,-0.20 -2.61,-1.91 -2.61,-1.91 -2.61,-1.91 -0.06,-0.05 -0.15,-0.03 -0.20,0.04 -1.32,1.81 -1.32,1.81 -1.32,1.81 z M 344.53,7.03 c 0.17,0.10 0.36,0.11 0.41,-0.10 0.05,-0.21 0.28,-0.68 0.62,-0.34 0.28,0.28 2.09,1.78 3.03,4.95 0.16,0.42 0.55,0.46 0.64,-0.14 0.22,-1.47 0.34,-4.02 0.45,-4.79 0.16,-1.08 0.68,-3.32 2.06,-2.16 0.31,0.26 0.64,0.61 0.64,0.61 0.29,0.37 0.66,0.79 0.84,0.36 0.27,-0.64 0.49,-1.70 0.19,-2.28 -0.13,-0.26 -1.84,-2.41 -3.00,-0.93 -1.44,1.83 -1.53,4.23 -1.72,6.91 -0.20,-0.56 -1.35,-4.16 -5.02,-6.21 -0.27,-0.15 -0.81,0.13 -0.86,0.98 -0.03,0.49 -0.17,1.69 0.18,2.03 0.35,0.34 1.37,1.01 1.54,1.10 z M 321.34,12.30 c 0.25,-0.16 13.84,-8.02 14.32,-8.31 0.46,-0.29 0.72,-0.41 0.90,-0.85 0.18,-0.44 0.23,-0.51 0.33,-0.82 0.11,-0.32 0.21,-0.67 -0.61,-0.19 -0.53,0.31 -14.04,8.11 -14.59,8.46 -0.55,0.35 -0.74,0.44 -0.83,0.87 -0.09,0.42 -0.13,0.67 -0.15,0.73 -0.10,0.28 -0.17,0.63 0.64,0.10 z M 365.14,14.30 c 0.18,-0.50 -0.04,-0.77 -0.29,-0.16 -0.25,0.61 -1.30,2.73 -1.14,5.22 0.04,0.58 0.42,1.70 1.29,1.73 0.45,0.00 1.03,-0.33 1.44,-1.73 0.07,-0.32 0.12,-0.57 0.15,-0.70 0.04,-0.19 -0.10,-0.42 -0.24,0.02 -0.33,0.86 -1.18,1.47 -1.82,0.31 -0.10,-0.23 -0.53,-1.28 0.26,-3.57 0.16,-0.45 0.36,-1.11 0.36,-1.11 z M 339.03,20.28 c 0.49,0.00 1.11,-0.35 1.55,-1.88 0.08,-0.34 0.13,-0.62 0.16,-0.75 0.05,-0.21 -0.10,-0.45 -0.26,0.02 -0.35,0.93 -1.27,1.58 -1.96,0.33 -0.11,-0.25 -0.58,-1.38 0.28,-3.86 0.17,-0.48 0.39,-1.20 0.39,-1.20 0.19,-0.54 -0.04,-0.84 -0.31,-0.17 -0.27,0.66 -1.40,2.95 -1.23,5.64 0.04,0.62 0.45,1.83 1.39,1.87 z M 362.38,6.37 c 0.79,0.58 1.94,1.04 1.94,1.04 -3.66,4.48 -10.85,7.67 -12.56,9.01 -0.51,0.39 -0.44,0.61 -0.12,0.53 0.28,-0.08 5.76,-1.61 10.76,-5.90 2.29,-1.97 2.23,-2.11 2.81,-3.31 0.50,0.26 0.84,0.67 1.03,0.91 0.28,0.34 0.43,0.60 0.56,0.23 0.48,-1.33 -0.20,-2.13 -0.84,-2.54 0.00,0.00 0.67,-2.07 -0.56,-4.14 -0.21,-0.35 -1.43,-1.46 -2.85,0.74 -0.55,0.84 -0.96,2.85 -0.17,3.42 z M 363.11,4.34 c 0.73,-1.02 1.08,-0.99 1.36,-0.82 0.82,0.77 0.70,2.03 0.67,2.31 0.00,0.00 -1.05,-0.49 -1.52,-0.69 -0.47,-0.20 -0.72,-0.50 -0.50,-0.80 z M 304.66,13.78 c 0.17,-0.04 3.05,-0.49 6.41,-3.05 1.82,-1.38 2.92,-3.74 2.92,-3.74 0.00,0.00 0.91,0.76 1.03,0.91 0.28,0.34 0.43,0.60 0.56,0.23 0.48,-1.33 -0.20,-2.13 -0.84,-2.54 0.00,0.00 0.67,-2.07 -0.56,-4.14 -0.21,-0.35 -1.43,-1.46 -2.85,0.74 -0.55,0.84 -0.96,2.85 -0.17,3.42 0.79,0.58 1.94,1.04 1.94,1.04 -3.66,4.48 -6.16,5.34 -8.30,6.59 -0.55,0.32 -0.44,0.61 -0.12,0.53 z M 312.37,4.39 c -0.47,-0.20 -0.72,-0.50 -0.50,-0.80 0.73,-1.02 1.08,-0.98 1.36,-0.82 0.82,0.77 0.70,2.03 0.67,2.31 0.00,0.00 -1.05,-0.49 -1.52,-0.70 z M 367.51,37.21 c -0.24,0.68 -0.34,1.12 -0.31,1.38 0.03,0.26 0.12,1.09 0.12,1.09 -0.25,0.20 -1.33,0.87 -2.40,0.08 0.07,-0.23 0.21,-0.70 0.24,-0.95 0.12,-0.40 -0.13,-0.69 -0.32,-0.28 -0.20,0.41 -0.65,1.79 -0.99,2.10 -0.34,0.31 -0.73,1.45 -3.30,0.29 -0.45,-0.17 -1.23,-0.75 -2.46,0.48 -2.77,2.57 -4.68,2.77 -7.79,3.88 -0.38,0.17 -1.16,0.76 -0.23,0.67 0.94,-0.09 4.87,0.00 7.01,-2.46 0.45,-0.43 0.96,-1.58 2.66,-0.92 0.94,0.36 2.68,1.85 4.58,-1.10 1.12,0.75 2.82,0.45 3.09,-0.38 0.27,-0.82 0.58,-1.64 0.58,-2.20 0.00,-0.56 -0.05,-1.30 -0.05,-1.30 -0.04,-0.44 -0.19,-1.07 -0.44,-0.40 z M 214.05,7.76 c 0.18,0.09 0.36,0.09 0.40,-0.12 0.04,-0.21 0.25,-0.69 0.59,-0.37 0.25,0.23 2.27,1.83 2.98,4.12 0.59,2.00 -4.16,6.32 -4.41,6.52 -0.45,0.36 -0.29,0.56 -0.08,0.44 0.21,-0.13 0.42,-0.17 2.89,-1.98 1.98,-1.46 2.33,-3.05 2.45,-4.27 0.02,-0.06 0.03,-0.13 0.04,-0.21 0.14,-1.48 0.12,-4.03 0.20,-4.81 0.11,-1.09 0.50,-3.36 1.92,-2.26 0.32,0.25 0.66,0.58 0.66,0.58 0.31,0.35 0.69,0.75 0.84,0.32 0.23,-0.65 0.39,-1.73 0.07,-2.29 -0.14,-0.25 -1.93,-2.32 -3.00,-0.78 -1.32,1.90 -1.29,4.30 -1.34,6.99 -0.23,-0.55 -1.54,-4.08 -5.26,-5.95 -0.27,-0.14 -0.79,0.17 -0.80,1.02 -0.01,0.49 -0.08,1.70 0.28,2.02 0.36,0.32 1.40,0.94 1.58,1.02 z M 232.56,35.12 c 0.36,-0.42 1.68,-2.65 0.95,-4.91 -0.29,-0.89 -1.68,-3.19 -1.96,-3.65 -0.28,-0.46 -0.51,-0.53 -0.67,-0.08 -0.16,0.45 -0.79,2.73 -0.79,2.73 0.46,0.66 2.52,3.47 1.91,3.99 -0.61,0.52 -6.05,4.42 -18.29,4.41 -1.37,0.00 -7.70,-0.52 -7.10,-5.37 0.09,-0.73 0.76,-3.03 1.64,-4.29 0.03,-0.06 0.05,-0.12 0.06,-0.18 0.61,-0.35 1.25,-1.26 1.65,-3.35 0.09,-0.63 0.13,-1.13 0.17,-1.38 0.05,-0.38 -0.21,-0.81 -0.41,0.06 -0.46,1.72 -1.84,2.98 -3.06,0.78 -0.20,-0.44 -1.05,-2.45 0.04,-7.01 0.22,-0.89 0.49,-2.20 0.49,-2.20 0.25,-1.00 -0.15,-1.51 -0.51,-0.29 -0.36,1.22 -1.91,5.46 -1.36,10.32 0.12,1.05 0.80,3.01 2.10,3.23 -0.90,1.32 -4.28,6.59 -0.81,10.64 0.32,0.40 3.45,3.90 16.36,1.06 3.06,-0.64 7.53,-2.11 9.57,-4.51 z M 244.15,40.75 c 6.19,1.24 13.90,-6.13 13.90,-6.13 0.00,0.00 0.78,-1.95 0.90,-2.47 0.12,-0.52 0.00,-0.86 -0.40,-0.40 -0.40,0.45 -2.68,3.10 -7.09,4.76 -0.72,0.27 -3.21,0.57 -5.16,-1.26 -0.38,-0.36 -2.90,-2.35 -3.16,-6.06 -0.05,-0.43 0.12,-0.81 0.57,-1.05 0.45,-0.24 5.18,-2.23 6.80,-2.28 1.62,-0.05 3.47,0.05 4.59,0.88 0.21,0.21 0.62,-0.02 0.38,-0.33 -0.67,-0.88 -3.74,-2.44 -5.49,-2.64 -0.83,-0.09 -5.59,0.50 -6.80,2.73 -1.00,1.84 -1.90,2.86 -1.66,4.84 0.05,0.42 0.62,4.01 2.20,5.88 0.00,0.00 -3.11,-0.38 -4.68,-6.30 -1.37,-5.17 -2.21,-24.00 -3.85,-28.89 -0.24,-0.62 -0.59,-0.43 -0.76,0.00 -0.17,0.43 -0.50,1.83 -0.57,2.21 -0.07,0.38 -0.12,0.57 0.05,1.14 1.08,2.81 2.89,23.01 3.10,24.59 0.13,0.97 0.60,9.47 7.13,10.78 z" />
     </g>
</svg>
