<?xml version="1.0" encoding="UTF-8"?>
<svg version="1.1" id="Layer_1" x="0px" y="0px" width="578" height="55" viewBox="0 0 578 55"
xml:space="preserve" xmlns="http://www.w3.org/2000/svg" xmlns:svg="http://www.w3.org/2000/svg" xmlns:rdf="http://www.w3.org/1999/02/22-rdf-syntax-ns#"  xmlns:cc="http://creativecommons.org/ns#" xmlns:dc="http://purl.org/dc/elements/1.1/">
     <g>
<path d="M 261.77,22.68 c -1.92,2.63 -1.92,2.63 -1.92,2.63 -0.06,0.08 -0.05,0.20 0.03,0.25 3.27,2.38 3.27,2.38 3.27,2.38 0.08,0.06 0.19,0.04 0.25,-0.05 1.91,-2.63 1.91,-2.63 1.91,-2.63 0.06,-0.08 0.05,-0.20 -0.03,-0.25 -3.27,-2.38 -3.27,-2.38 -3.27,-2.38 -0.08,-0.06 -0.19,-0.04 -0.25,0.05 z M 271.48,25.55 c -1.92,2.63 -1.92,2.63 -1.92,2.63 -0.06,0.08 -0.05,0.20 0.03,0.25 3.27,2.38 3.27,2.38 3.27,2.38 0.08,0.06 0.19,0.04 0.25,-0.05 1.91,-2.63 1.91,-2.63 1.91,-2.63 0.06,-0.08 0.05,-0.20 -0.03,-0.25 -3.27,-2.38 -3.27,-2.38 -3.27,-2.38 -0.08,-0.06 -0.19,-0.04 -0.25,0.05 z M 232.52,36.89 c -0.31,-2.68 -3.71,-24.91 -3.71,-24.91 0.00,0.00 1.47,1.54 1.70,1.81 0.23,0.28 0.54,0.15 0.42,-0.28 -0.12,-0.43 -2.88,-8.26 -2.97,-8.53 -0.09,-0.27 -0.18,-0.47 -0.32,-0.17 -0.14,0.30 -1.23,2.53 -1.23,2.53 0.06,0.60 4.30,28.32 4.43,29.94 0.18,2.24 0.35,3.56 -0.40,4.40 -0.75,0.84 -8.27,7.83 -14.74,7.52 -1.54,-0.13 -9.94,-1.10 -5.68,-11.88 0.12,-0.36 0.21,-0.69 0.26,-0.97 0.01,0.00 0.03,0.00 0.04,0.00 0.76,-0.05 1.71,-0.74 2.25,-3.53 0.09,-0.63 0.13,-1.13 0.17,-1.38 0.05,-0.38 -0.21,-0.81 -0.41,0.06 -0.46,1.72 -1.84,2.98 -3.06,0.78 -0.20,-0.44 -1.05,-2.45 0.04,-7.01 0.22,-0.89 0.49,-2.20 0.49,-2.20 0.25,-1.00 -0.15,-1.51 -0.51,-0.29 -0.36,1.22 -1.91,5.46 -1.36,10.32 0.10,0.87 0.59,2.35 1.49,2.97 -0.07,0.13 -0.13,0.26 -0.21,0.42 -1.06,2.29 -3.21,11.26 1.45,14.52 1.06,0.66 5.15,4.40 16.59,-3.34 2.02,-1.45 6.07,-4.53 5.24,-10.78 z M 289.68,11.80 c 0.00,0.00 1.48,1.56 1.72,1.84 0.24,0.28 0.54,0.15 0.42,-0.29 -0.12,-0.44 -2.95,-8.45 -3.04,-8.73 -0.09,-0.28 -0.18,-0.48 -0.33,-0.17 -0.14,0.31 -1.11,2.50 -1.11,2.50 0.08,0.83 1.43,12.46 2.25,21.60 0.13,1.43 1.41,9.32 1.07,11.00 -0.10,0.49 -0.33,1.36 -0.97,2.45 0.21,-1.38 0.22,-3.90 -1.49,-8.09 -2.36,-5.79 -12.51,-12.35 -15.73,-18.00 -0.03,-0.06 -0.03,-0.12 -0.03,-0.12 0.00,0.00 1.62,0.63 1.86,0.70 0.36,0.10 0.90,0.09 0.54,-0.27 -0.36,-0.36 -5.69,-4.63 -6.19,-5.05 -0.50,-0.42 -0.70,-0.72 -0.72,-0.31 -0.02,0.42 0.13,3.20 0.14,3.46 0.01,0.26 0.02,0.40 0.31,0.65 0.29,0.25 1.39,1.63 2.31,2.90 5.13,6.55 10.28,11.06 11.07,11.80 0.79,0.75 7.22,6.79 7.25,12.22 0.00,0.52 -0.02,0.83 -0.06,1.23 -1.95,2.60 -6.08,6.00 -14.92,8.78 -1.15,0.56 -0.77,0.92 0.03,0.82 0.80,-0.10 11.89,-0.71 16.09,-7.79 1.57,-2.78 2.37,-6.17 1.77,-12.23 -0.18,-1.91 -2.25,-20.89 -2.25,-20.89 z M 235.34,49.42 c -0.54,0.29 -9.09,3.50 -9.65,3.84 -0.56,0.33 -0.76,0.42 -0.86,0.84 -0.10,0.42 -0.15,0.66 -0.18,0.73 -0.11,0.28 -0.19,0.62 0.63,0.13 0.26,-0.15 8.91,-3.42 9.37,-3.70 0.46,-0.28 0.73,-0.38 0.93,-0.82 0.20,-0.43 0.25,-0.51 0.35,-0.81 0.11,-0.32 0.23,-0.66 -0.61,-0.21 z M 261.56,6.23 c 0.30,-0.15 9.61,-3.51 10.15,-3.79 0.54,-0.28 0.86,-0.37 1.11,-0.84 0.26,-0.47 0.32,-0.55 0.47,-0.88 0.16,-0.35 0.31,-0.72 -0.66,-0.28 -0.63,0.28 -9.82,3.59 -10.47,3.92 -0.66,0.33 -0.88,0.41 -1.03,0.87 -0.15,0.46 -0.23,0.73 -0.26,0.80 -0.14,0.30 -0.26,0.69 0.70,0.19 z M 263.20,51.04 c -0.34,0.90 -1.24,1.54 -1.91,0.32 -0.11,-0.24 -0.56,-1.34 0.27,-3.74 0.17,-0.47 0.38,-1.16 0.38,-1.16 0.19,-0.52 -0.04,-0.81 -0.30,-0.17 -0.26,0.64 -1.36,2.86 -1.20,5.47 0.04,0.60 0.44,1.78 1.35,1.81 0.47,0.00 1.08,-0.34 1.51,-1.82 0.07,-0.33 0.12,-0.60 0.15,-0.73 0.05,-0.20 -0.10,-0.44 -0.25,0.02 z M 252.20,28.66 c 0.26,-0.86 -0.12,-1.31 -0.50,-0.25 -0.38,1.06 -1.98,4.73 -1.51,8.93 0.11,0.97 0.85,2.84 2.32,2.83 0.76,-0.04 1.71,-0.64 2.30,-3.06 0.10,-0.54 0.15,-0.98 0.19,-1.20 0.06,-0.33 -0.20,-0.70 -0.41,0.05 -0.49,1.49 -1.88,2.58 -3.05,0.67 -0.19,-0.38 -1.01,-2.12 0.15,-6.07 0.23,-0.77 0.52,-1.91 0.52,-1.91 z M 282.03,35.59 c 0.15,-0.58 -0.09,-0.88 -0.31,-0.17 -0.22,0.72 -1.18,3.20 -0.86,6.04 0.08,0.66 0.55,1.92 1.46,1.90 0.47,-0.03 1.06,-0.43 1.40,-2.07 0.05,-0.37 0.08,-0.66 0.11,-0.81 0.03,-0.22 -0.13,-0.47 -0.25,0.04 -0.29,1.01 -1.14,1.75 -1.89,0.46 -0.12,-0.26 -0.64,-1.43 0.04,-4.10 0.14,-0.52 0.31,-1.29 0.31,-1.29 z M 281.68,13.28 c 0.51,0.00 1.17,-0.41 1.64,-2.17 0.08,-0.40 0.13,-0.72 0.16,-0.87 0.05,-0.24 -0.11,-0.52 -0.28,0.03 -0.37,1.08 -1.34,1.84 -2.08,0.39 -0.12,-0.29 -0.62,-1.59 0.28,-4.46 0.18,-0.56 0.41,-1.39 0.41,-1.39 0.20,-0.63 -0.04,-0.97 -0.33,-0.20 -0.28,0.77 -1.47,3.41 -1.28,6.52 0.05,0.72 0.49,2.12 1.48,2.15 z M 218.96,16.07 c 0.20,-0.61 -0.10,-0.92 -0.39,-0.17 -0.29,0.75 -1.52,3.36 -1.14,6.32 0.09,0.69 0.67,2.00 1.80,1.97 0.59,-0.03 1.33,-0.47 1.77,-2.18 0.07,-0.39 0.11,-0.69 0.14,-0.85 0.05,-0.23 -0.15,-0.49 -0.32,0.04 -0.37,1.06 -1.45,1.84 -2.36,0.50 -0.15,-0.27 -0.79,-1.49 0.09,-4.29 0.18,-0.54 0.40,-1.35 0.40,-1.35 z M 220.92,37.18 c 0.13,1.12 0.90,3.28 2.38,3.26 0.76,-0.05 1.71,-0.74 2.25,-3.53 0.08,-0.63 0.13,-1.13 0.17,-1.38 0.05,-0.38 -0.21,-0.81 -0.41,0.06 -0.46,1.72 -1.84,2.98 -3.06,0.78 -0.20,-0.44 -1.05,-2.45 0.04,-7.01 0.22,-0.88 0.49,-2.20 0.49,-2.20 0.25,-1.00 -0.15,-1.51 -0.51,-0.29 -0.36,1.22 -1.91,5.46 -1.36,10.32 z M 244.18,5.83 c 0.35,0.30 1.37,0.86 1.54,0.93 0.17,0.08 0.35,0.08 0.38,-0.12 0.03,-0.20 0.20,-0.64 0.56,-0.37 1.62,1.24 2.46,2.42 2.90,3.29 1.10,1.87 -0.20,3.51 -0.72,4.25 -0.61,0.87 -3.21,3.11 -3.84,4.02 -0.63,0.91 1.38,-0.35 3.79,-2.50 2.41,-2.15 1.75,-8.38 1.78,-9.33 0.08,-1.04 0.41,-3.20 1.80,-2.20 0.32,0.23 0.65,0.54 0.65,0.54 0.30,0.33 0.68,0.70 0.82,0.28 0.21,-0.63 0.34,-1.65 0.02,-2.17 -0.14,-0.23 -1.91,-2.16 -2.91,-0.67 -1.23,1.84 -1.15,4.12 -1.14,6.68 -0.23,-0.52 -1.58,-3.84 -5.21,-5.54 -0.26,-0.12 -0.76,0.19 -0.75,0.99 0.01,0.47 -0.04,1.62 0.31,1.91 z M 267.22,9.38 c -0.12,0.43 -0.16,0.68 -0.17,0.84 -0.01,0.15 -0.04,0.27 0.21,0.20 0.25,-0.07 0.36,-0.11 0.36,-0.11 0.71,-0.31 3.41,-1.72 5.23,-2.15 0.06,-0.01 0.17,-0.61 0.23,-0.93 0.06,-0.33 -0.28,-0.29 -0.81,-0.18 -0.53,0.12 -2.44,0.67 -3.46,-0.19 -0.87,-0.74 -0.99,-1.05 -0.67,-1.24 0.31,-0.19 1.19,-0.77 1.75,-0.05 0.30,0.38 0.55,0.38 0.68,0.13 0.13,-0.25 0.57,-0.91 0.44,-1.18 -0.13,-0.27 -0.70,-1.19 -1.99,-0.57 -1.29,0.62 -2.56,2.63 -2.07,3.40 0.41,0.66 1.25,1.25 1.25,1.25 -0.41,0.23 -0.86,0.35 -0.98,0.78 z M 242.90,30.56 c 0.68,0.08 1.09,0.46 1.27,0.68 0.08,0.09 0.18,0.02 0.22,-0.05 0.71,-1.56 -0.03,-2.49 -1.36,-2.81 -0.53,-0.13 -0.79,-0.84 1.09,-2.17 1.74,-1.22 19.00,-10.84 19.38,-11.14 0.52,-0.39 0.84,-0.55 1.02,-1.09 0.19,-0.54 0.24,-0.64 0.33,-1.02 0.10,-0.40 0.20,-0.82 -0.75,-0.17 -0.50,0.34 -19.46,10.76 -20.89,12.02 -0.72,0.63 -1.30,1.61 -1.47,2.65 -0.25,1.51 0.18,2.98 1.16,3.09 z M 275.85,41.51 c 0.00,-0.97 0.15,-4.29 -3.16,-6.97 -0.14,-0.10 -0.20,0.07 -0.27,0.41 -0.07,0.34 -0.24,2.40 -0.24,2.40 0.36,0.56 3.09,4.10 2.02,4.69 -1.07,0.60 -5.39,3.30 -8.61,0.12 0.27,-0.32 1.96,-1.50 2.18,-4.49 0.19,-1.26 0.48,-3.40 -1.82,-6.26 -0.58,-0.58 -2.25,-1.44 -3.66,0.83 -1.41,2.28 -1.62,6.17 -0.07,8.83 0.00,0.00 -6.85,4.58 -15.25,3.68 -0.95,-0.13 -6.49,-0.75 -7.24,-7.63 -0.53,-3.65 -2.02,-23.28 -2.38,-25.43 -0.35,-2.16 -1.14,-6.05 -1.25,-6.40 -0.11,-0.35 -0.26,-0.44 -0.57,0.00 -0.31,0.44 -0.62,1.23 -0.77,1.67 -0.15,0.44 -0.09,0.95 0.29,2.64 0.95,4.29 2.20,19.43 2.33,21.45 0.25,3.78 0.72,9.04 1.47,10.96 0.73,1.95 3.16,7.64 13.53,5.74 5.05,-0.92 11.25,-4.22 11.25,-4.22 0.00,0.00 1.50,2.99 4.88,3.40 1.33,0.05 4.10,-0.24 6.58,-2.60 0.31,-0.29 0.75,-1.84 0.75,-2.81 z M 264.01,40.09 c 0.00,0.00 -0.64,-0.59 -1.51,-3.07 -0.44,-1.24 0.19,-2.29 1.33,-2.83 1.14,-0.53 2.69,2.00 2.84,3.23 0.11,0.94 -2.66,2.66 -2.66,2.66 z M 209.56,16.32 c 0.66,-0.37 4.49,-1.86 5.12,-5.65 0.05,-0.50 -0.05,-0.87 -0.17,-1.12 0.05,0.01 0.11,0.05 0.17,0.11 0.27,0.27 1.99,1.69 2.88,4.71 0.16,0.40 0.53,0.44 0.61,-0.13 0.21,-1.39 0.32,-3.82 0.43,-4.56 0.16,-1.03 0.65,-3.16 1.96,-2.06 0.30,0.25 0.61,0.58 0.61,0.58 0.28,0.35 0.63,0.75 0.80,0.35 0.26,-0.61 0.46,-1.62 0.18,-2.17 -0.12,-0.24 -1.75,-2.29 -2.85,-0.89 -1.37,1.74 -1.46,4.03 -1.64,6.58 -0.19,-0.53 -1.29,-3.95 -4.78,-5.91 -0.25,-0.14 -0.77,0.13 -0.82,0.93 -0.03,0.47 -0.16,1.61 0.17,1.93 0.32,0.31 2.68,1.14 1.40,2.49 -0.57,0.60 -3.45,3.59 -4.06,4.31 -0.62,0.72 -0.68,0.85 -0.01,0.49 z M 299.07,45.58 c -0.05,0.46 0.14,0.64 0.37,0.21 0.12,-0.23 0.64,-1.20 0.89,-3.77 0.19,-1.93 0.16,-4.91 -0.23,-9.03 -0.06,-0.60 -2.07,-21.47 -2.07,-21.47 0.00,0.00 1.49,1.52 1.73,1.79 0.24,0.27 0.54,0.15 0.42,-0.28 -0.13,-0.43 -2.98,-8.22 -3.07,-8.49 -0.09,-0.27 -0.19,-0.47 -0.33,-0.17 -0.14,0.30 -1.18,2.59 -1.18,2.59 0.01,0.14 0.23,1.16 0.27,1.55 0.30,3.38 2.24,23.36 2.78,29.68 0.26,3.11 0.45,5.90 0.43,7.40 z M 341.92,9.25 c 0.17,0.10 0.36,0.11 0.41,-0.10 0.05,-0.21 0.29,-0.68 0.62,-0.34 0.28,0.28 2.09,1.78 3.03,4.95 0.16,0.42 0.55,0.46 0.64,-0.14 0.22,-1.47 0.34,-4.02 0.45,-4.79 0.16,-1.09 0.68,-3.32 2.06,-2.16 0.31,0.26 0.64,0.61 0.64,0.61 0.29,0.37 0.66,0.79 0.84,0.36 0.27,-0.64 0.49,-1.70 0.19,-2.28 -0.13,-0.26 -1.83,-2.41 -3.00,-0.94 -1.44,1.83 -1.53,4.23 -1.72,6.91 -0.20,-0.56 -1.35,-4.15 -5.02,-6.21 -0.27,-0.15 -0.81,0.13 -0.86,0.98 -0.03,0.49 -0.17,1.69 0.18,2.03 0.35,0.34 1.37,1.01 1.54,1.10 z M 359.77,8.59 c 0.79,0.58 1.93,1.04 1.93,1.04 -3.66,4.49 -10.84,7.67 -12.55,9.01 -0.51,0.39 -0.44,0.61 -0.12,0.53 0.28,-0.08 5.76,-1.61 10.76,-5.90 2.29,-1.97 2.23,-2.11 2.81,-3.31 0.50,0.26 0.84,0.67 1.03,0.91 0.28,0.34 0.43,0.60 0.56,0.23 0.48,-1.33 -0.20,-2.13 -0.84,-2.54 0.00,0.00 0.67,-2.07 -0.56,-4.14 -0.21,-0.35 -1.43,-1.46 -2.85,0.74 -0.55,0.84 -0.96,2.85 -0.17,3.42 z M 360.49,6.56 c 0.73,-1.02 1.08,-0.99 1.36,-0.82 0.83,0.77 0.70,2.02 0.67,2.31 0.00,0.00 -1.05,-0.49 -1.52,-0.69 -0.47,-0.20 -0.72,-0.50 -0.50,-0.80 z M 336.41,22.50 c 0.48,0.00 1.11,-0.35 1.55,-1.87 0.08,-0.34 0.13,-0.62 0.16,-0.75 0.05,-0.21 -0.10,-0.45 -0.26,0.02 -0.35,0.93 -1.27,1.58 -1.96,0.33 -0.11,-0.25 -0.58,-1.38 0.28,-3.86 0.17,-0.48 0.39,-1.20 0.39,-1.20 0.19,-0.54 -0.04,-0.84 -0.31,-0.17 -0.27,0.66 -1.40,2.94 -1.23,5.64 0.04,0.62 0.45,1.83 1.39,1.86 z M 362.52,16.52 c 0.18,-0.50 -0.03,-0.77 -0.29,-0.16 -0.25,0.61 -1.30,2.73 -1.14,5.22 0.04,0.58 0.42,1.70 1.29,1.73 0.45,0.00 1.03,-0.33 1.44,-1.74 0.07,-0.32 0.12,-0.57 0.15,-0.70 0.04,-0.19 -0.10,-0.42 -0.24,0.02 -0.33,0.86 -1.18,1.47 -1.82,0.31 -0.10,-0.23 -0.53,-1.28 0.26,-3.57 0.16,-0.44 0.36,-1.11 0.36,-1.11 z M 309.62,16.39 c -0.06,-0.05 -0.15,-0.03 -0.20,0.04 -1.53,2.10 -1.53,2.10 -1.53,2.10 -0.05,0.07 -0.04,0.16 0.03,0.21 2.61,1.91 2.61,1.91 2.61,1.91 0.06,0.05 0.15,0.03 0.20,-0.04 1.32,-1.81 1.32,-1.81 1.32,-1.81 2.54,1.85 2.54,1.85 2.54,1.85 0.06,0.05 0.15,0.03 0.20,-0.04 1.53,-2.10 1.53,-2.10 1.53,-2.10 0.05,-0.07 0.04,-0.16 -0.03,-0.20 -2.61,-1.91 -2.61,-1.91 -2.61,-1.91 -0.06,-0.05 -0.15,-0.03 -0.20,0.04 -1.32,1.81 -1.32,1.81 -1.32,1.81 z M 318.72,14.52 c 0.25,-0.16 13.84,-8.02 14.32,-8.31 0.46,-0.29 0.72,-0.41 0.91,-0.85 0.18,-0.44 0.23,-0.52 0.33,-0.82 0.10,-0.32 0.21,-0.67 -0.61,-0.19 -0.53,0.31 -14.04,8.11 -14.59,8.46 -0.55,0.35 -0.74,0.44 -0.83,0.87 -0.09,0.42 -0.13,0.67 -0.16,0.73 -0.10,0.28 -0.17,0.63 0.64,0.10 z M 364.90,39.43 c -0.24,0.68 -0.34,1.12 -0.32,1.38 0.03,0.26 0.12,1.09 0.12,1.09 -0.25,0.20 -1.33,0.87 -2.40,0.08 0.07,-0.23 0.21,-0.70 0.24,-0.95 0.12,-0.40 -0.13,-0.69 -0.32,-0.28 -0.20,0.41 -0.65,1.79 -0.99,2.10 -0.34,0.31 -0.73,1.45 -3.30,0.29 -0.45,-0.17 -1.23,-0.75 -2.46,0.48 -2.77,2.57 -4.68,2.77 -7.79,3.88 -0.38,0.17 -1.16,0.76 -0.23,0.67 0.94,-0.09 4.87,0.00 7.01,-2.46 0.45,-0.43 0.96,-1.58 2.66,-0.92 0.94,0.36 2.68,1.85 4.58,-1.10 1.12,0.75 2.82,0.45 3.09,-0.38 0.27,-0.82 0.58,-1.64 0.58,-2.20 0.00,-0.56 -0.05,-1.30 -0.05,-1.30 -0.04,-0.44 -0.19,-1.07 -0.44,-0.40 z M 368.10,27.12 c -0.25,-0.28 -0.38,-0.01 -0.46,0.31 -0.09,0.32 -0.36,1.52 -0.53,2.27 0.00,0.00 0.71,1.16 0.97,1.75 0.25,0.59 -0.12,0.92 -0.86,1.01 -2.08,0.25 -3.73,-0.94 -4.30,-1.48 -0.57,-0.55 0.05,-1.52 0.51,-2.68 0.37,-0.93 -0.32,-1.04 -0.84,0.00 -1.76,4.63 -4.23,5.13 -4.88,5.30 -5.86,1.60 -5.36,-3.76 -5.33,-4.64 0.02,-0.88 -0.62,-0.55 -1.34,0.03 -2.47,1.98 -4.45,3.14 -5.52,3.62 -0.92,-1.80 -2.26,-2.93 -2.82,-3.34 -6.34,-4.62 -6.87,4.71 -6.67,5.71 0.97,3.97 7.44,1.56 8.46,1.44 1.01,-0.12 0.68,1.22 0.11,2.02 -1.41,1.97 -3.03,3.38 -4.50,4.57 -6.28,5.13 -9.43,4.72 -10.41,4.69 -6.17,-0.17 -5.60,-6.82 -5.26,-8.24 1.86,-1.57 3.45,-3.28 4.38,-5.04 0.38,-0.96 1.03,-3.16 -0.15,-5.91 -0.62,-1.21 -2.56,-4.60 -2.56,-4.60 0.00,0.00 1.43,0.04 1.57,0.04 0.14,0.00 0.41,-0.14 0.06,-0.54 -0.35,-0.40 -3.36,-3.40 -3.54,-3.65 -0.18,-0.24 -0.35,-0.42 -0.45,-0.06 -0.10,0.36 -0.36,1.88 -0.42,2.20 -0.06,0.31 -0.06,0.63 0.10,0.90 0.15,0.27 0.55,1.20 0.84,1.96 0.29,0.76 3.26,6.47 3.53,6.98 0.27,0.51 0.33,0.88 0.06,1.22 -9.53,10.05 -27.91,16.23 -28.50,16.57 -0.59,0.34 -0.43,0.61 0.56,0.43 1.48,-0.26 9.74,-1.64 12.09,-2.77 1.55,-0.75 6.97,-3.41 11.41,-6.89 -0.12,0.90 -0.24,2.22 -0.18,3.89 0.30,8.08 7.53,6.74 9.43,6.33 5.68,-1.25 12.64,-9.11 13.23,-10.68 0.58,-1.56 0.67,-2.98 0.54,-4.22 1.50,-0.81 4.71,-3.40 4.71,-3.40 0.13,3.45 2.87,4.48 3.72,4.63 3.96,0.60 5.94,-2.70 6.78,-3.78 0.72,1.89 2.45,2.26 3.34,2.43 3.41,0.68 4.08,-1.73 4.26,-2.29 1.07,-3.33 -0.86,-5.81 -1.11,-6.08 z M 339.47,33.79 c -2.02,-0.14 -1.85,-0.92 -1.57,-1.22 0.30,-0.33 2.78,-1.89 4.85,0.89 0.00,0.00 -0.86,0.50 -3.28,0.33 z M 309.00,26.13 c 0.00,0.00 1.25,-0.31 1.47,-0.38 0.22,-0.06 0.34,-0.35 -0.05,-0.55 -0.39,-0.20 -4.09,-1.67 -4.37,-1.79 -0.28,-0.11 -0.38,-0.24 -0.41,0.06 -0.02,0.30 -0.07,2.73 -0.07,2.73 0.00,0.00 -0.06,0.17 0.27,0.35 0.32,0.18 0.64,0.58 0.90,0.84 0.26,0.26 3.70,2.98 3.87,3.07 0.00,0.00 -1.72,3.02 -1.94,5.38 -0.22,2.36 0.04,5.63 3.27,4.58 0.87,-0.25 4.49,-1.69 5.30,-4.21 0.26,-0.93 1.01,-2.61 -0.21,-4.31 -0.70,-1.00 -3.53,-2.69 -3.53,-2.69 0.00,0.00 2.17,-3.00 2.38,-3.37 0.21,-0.37 1.00,-2.69 1.09,-3.26 0.09,-0.56 0.13,-0.84 -0.29,-0.32 -0.42,0.52 -4.63,6.05 -4.63,6.05 z M 315.95,35.02 c -1.20,0.99 -3.72,2.29 -4.43,2.36 -0.71,0.07 -2.59,-0.28 -1.77,-2.20 0.28,-0.62 2.16,-3.84 2.16,-3.84 0.70,0.39 5.24,2.70 4.04,3.69 z M 302.04,16.00 c 0.17,-0.04 3.05,-0.49 6.41,-3.05 1.82,-1.38 2.92,-3.74 2.92,-3.74 0.00,0.00 0.91,0.76 1.03,0.91 0.28,0.34 0.43,0.60 0.56,0.23 0.48,-1.33 -0.20,-2.13 -0.84,-2.54 0.00,0.00 0.67,-2.07 -0.56,-4.14 -0.21,-0.35 -1.43,-1.46 -2.85,0.74 -0.55,0.84 -0.96,2.85 -0.17,3.42 0.79,0.58 1.93,1.04 1.93,1.04 -3.66,4.49 -6.16,5.34 -8.30,6.60 -0.55,0.32 -0.44,0.61 -0.12,0.53 z M 309.76,6.61 c -0.47,-0.20 -0.72,-0.50 -0.50,-0.80 0.73,-1.02 1.08,-0.99 1.36,-0.82 0.83,0.77 0.70,2.03 0.67,2.31 0.00,0.00 -1.05,-0.49 -1.52,-0.69 z" />
     </g>
</svg>
