<?xml version="1.0" encoding="UTF-8"?>
<svg version="1.1" id="Layer_1" x="0px" y="0px" width="578" height="50" viewBox="0 0 578 50"
xml:space="preserve" xmlns="http://www.w3.org/2000/svg" xmlns:svg="http://www.w3.org/2000/svg" xmlns:rdf="http://www.w3.org/1999/02/22-rdf-syntax-ns#"  xmlns:cc="http://creativecommons.org/ns#" xmlns:dc="http://purl.org/dc/elements/1.1/">
     <g>
<path d="M 266.96,35.84 c -1.92,2.63 -1.92,2.63 -1.92,2.63 -0.06,0.08 -0.05,0.20 0.03,0.25 3.27,2.38 3.27,2.38 3.27,2.38 0.08,0.06 0.19,0.04 0.25,-0.05 1.91,-2.63 1.91,-2.63 1.91,-2.63 0.06,-0.08 0.05,-0.20 -0.03,-0.26 -3.27,-2.38 -3.27,-2.38 -3.27,-2.38 -0.08,-0.06 -0.19,-0.04 -0.25,0.05 z M 253.34,14.57 c -0.25,1.37 0.12,2.71 1.02,2.83 0.62,0.08 0.99,0.43 1.15,0.64 0.07,0.09 0.17,0.02 0.20,-0.04 0.67,-1.41 0.01,-2.27 -1.20,-2.58 -0.48,-0.13 -0.71,-0.78 1.02,-1.96 1.60,-1.09 14.59,-8.13 14.94,-8.39 0.48,-0.35 0.77,-0.49 0.95,-0.98 0.18,-0.49 0.22,-0.58 0.31,-0.92 0.10,-0.36 0.19,-0.75 -0.68,-0.17 -0.46,0.30 -15.01,8.05 -16.33,9.17 -0.66,0.57 -1.21,1.45 -1.38,2.40 z M 238.39,31.20 c 0.28,0.18 0.59,0.42 0.59,0.42 0.28,0.26 0.62,0.56 0.71,0.20 0.15,-0.55 0.21,-1.43 -0.10,-1.86 -0.13,-0.19 -1.74,-1.74 -2.52,-0.42 -0.96,1.63 -0.77,3.58 -0.63,5.76 -0.22,-0.43 -1.54,-3.20 -4.73,-4.46 -0.23,-0.09 -0.64,0.20 -0.59,0.88 0.03,0.40 0.05,1.38 0.36,1.62 0.32,0.23 1.22,0.66 1.36,0.72 0.15,0.06 0.30,0.05 0.32,-0.12 0.02,-0.17 0.15,-0.58 0.46,-0.34 0.26,0.20 1.88,1.21 2.98,3.66 0.18,0.32 0.50,0.31 0.50,-0.18 0.01,-1.21 -0.17,-3.27 -0.16,-3.91 0.01,-0.89 0.19,-2.75 1.42,-1.97 z M 225.95,8.53 c 0.32,0.23 1.22,0.66 1.36,0.71 0.15,0.06 0.30,0.05 0.32,-0.12 0.02,-0.17 0.16,-0.58 0.46,-0.34 0.26,0.20 1.88,1.21 2.98,3.66 0.18,0.32 0.50,0.31 0.50,-0.18 0.01,-1.21 -0.17,-3.27 -0.16,-3.91 0.01,-0.89 0.19,-2.75 1.42,-1.97 0.28,0.18 0.59,0.42 0.59,0.42 0.28,0.26 0.62,0.56 0.71,0.20 0.15,-0.55 0.21,-1.43 -0.10,-1.86 -0.13,-0.19 -1.74,-1.74 -2.52,-0.42 -0.96,1.63 -0.77,3.58 -0.63,5.76 -0.23,-0.43 -1.54,-3.20 -4.73,-4.46 -0.23,-0.09 -0.64,0.20 -0.58,0.88 0.03,0.40 0.05,1.38 0.36,1.62 z M 231.37,17.81 c -0.10,0.47 -0.15,0.73 -0.18,0.83 -0.09,0.32 -0.22,0.66 0.72,0.12 0.29,-0.17 22.64,-12.29 23.15,-12.62 0.51,-0.33 0.81,-0.46 1.02,-0.95 0.21,-0.49 0.26,-0.58 0.37,-0.92 0.12,-0.36 0.26,-0.70 -0.69,-0.21 -0.63,0.33 -22.80,12.43 -23.45,12.79 -0.64,0.35 -0.84,0.50 -0.93,0.98 z M 268.20,12.13 c -0.10,0.48 -0.15,0.73 -0.18,0.83 -0.09,0.32 -0.22,0.66 0.72,0.12 0.29,-0.17 14.69,-7.82 15.20,-8.16 0.51,-0.33 0.81,-0.46 1.02,-0.95 0.21,-0.49 0.26,-0.58 0.37,-0.92 0.12,-0.36 0.26,-0.70 -0.69,-0.21 -0.63,0.33 -14.86,7.97 -15.51,8.32 -0.64,0.35 -0.83,0.50 -0.93,0.97 z M 245.38,16.63 c 0.17,-0.48 -0.03,-0.74 -0.28,-0.16 -0.24,0.59 -1.25,2.61 -1.09,5.00 0.04,0.55 0.40,1.63 1.23,1.66 0.43,0.00 0.98,-0.31 1.38,-1.66 0.07,-0.31 0.11,-0.55 0.14,-0.67 0.04,-0.18 -0.09,-0.40 -0.23,0.02 -0.31,0.83 -1.13,1.41 -1.74,0.30 -0.10,-0.22 -0.51,-1.22 0.25,-3.42 0.15,-0.43 0.35,-1.06 0.35,-1.06 z M 225.10,30.69 c 0.66,0.03 1.54,-0.49 2.25,-2.86 0.13,-0.54 0.21,-0.97 0.27,-1.18 0.08,-0.32 -0.11,-0.71 -0.36,0.02 -0.55,1.45 -1.85,2.42 -2.71,0.41 -0.14,-0.40 -0.70,-2.21 0.64,-6.05 0.27,-0.75 0.61,-1.86 0.61,-1.86 0.30,-0.84 0.00,-1.32 -0.41,-0.29 -0.41,1.03 -2.12,4.55 -2.06,8.80 0.01,0.98 0.50,2.91 1.77,3.02 z M 327.12,7.03 c 0.17,0.10 0.36,0.11 0.41,-0.10 0.05,-0.21 0.29,-0.68 0.62,-0.34 0.28,0.28 2.09,1.78 3.03,4.95 0.16,0.42 0.55,0.46 0.64,-0.14 0.22,-1.47 0.34,-4.02 0.45,-4.79 0.16,-1.09 0.68,-3.33 2.06,-2.16 0.31,0.26 0.64,0.61 0.64,0.61 0.29,0.37 0.66,0.79 0.84,0.36 0.27,-0.64 0.49,-1.70 0.19,-2.28 -0.13,-0.26 -1.84,-2.41 -3.00,-0.93 -1.44,1.83 -1.53,4.23 -1.72,6.91 -0.20,-0.56 -1.35,-4.15 -5.02,-6.21 -0.27,-0.15 -0.81,0.13 -0.86,0.98 -0.03,0.49 -0.17,1.69 0.18,2.03 0.35,0.34 1.37,1.01 1.54,1.10 z M 321.61,20.27 c 0.48,0.00 1.11,-0.35 1.55,-1.87 0.08,-0.34 0.13,-0.62 0.16,-0.75 0.05,-0.21 -0.10,-0.45 -0.26,0.02 -0.35,0.93 -1.27,1.58 -1.96,0.33 -0.11,-0.25 -0.58,-1.38 0.28,-3.86 0.17,-0.48 0.39,-1.20 0.39,-1.20 0.19,-0.54 -0.04,-0.84 -0.31,-0.17 -0.27,0.66 -1.40,2.94 -1.23,5.64 0.04,0.62 0.45,1.83 1.39,1.86 z M 350.10,37.21 c -0.24,0.68 -0.34,1.12 -0.31,1.38 0.03,0.26 0.11,1.10 0.11,1.10 -0.25,0.20 -1.33,0.87 -2.40,0.08 0.07,-0.23 0.21,-0.70 0.24,-0.95 0.12,-0.40 -0.13,-0.69 -0.32,-0.28 -0.20,0.41 -0.65,1.79 -0.99,2.10 -0.34,0.31 -0.73,1.45 -3.30,0.29 -0.45,-0.17 -1.23,-0.75 -2.46,0.48 -2.77,2.57 -4.68,2.77 -7.79,3.88 -0.38,0.17 -1.16,0.76 -0.23,0.67 0.94,-0.09 4.87,0.00 7.01,-2.46 0.45,-0.43 0.96,-1.58 2.66,-0.92 0.94,0.36 2.68,1.85 4.58,-1.10 1.12,0.75 2.82,0.45 3.09,-0.38 0.27,-0.82 0.58,-1.64 0.58,-2.20 0.00,-0.56 -0.05,-1.30 -0.05,-1.30 -0.04,-0.44 -0.19,-1.07 -0.44,-0.40 z M 353.30,24.89 c -0.25,-0.28 -0.37,-0.01 -0.46,0.31 -0.09,0.32 -0.36,1.52 -0.53,2.27 0.00,0.00 0.71,1.16 0.97,1.75 0.25,0.59 -0.12,0.92 -0.86,1.01 -2.08,0.25 -3.73,-0.94 -4.30,-1.49 -0.57,-0.55 0.05,-1.52 0.51,-2.68 0.37,-0.93 -0.32,-1.04 -0.84,0.00 -1.76,4.63 -4.23,5.12 -4.88,5.30 -5.86,1.60 -5.36,-3.76 -5.34,-4.64 0.02,-0.88 -0.62,-0.55 -1.34,0.03 -2.47,1.98 -4.45,3.14 -5.52,3.62 -0.92,-1.80 -2.26,-2.93 -2.82,-3.34 -6.34,-4.63 -6.86,4.71 -6.67,5.71 0.97,3.97 7.44,1.56 8.46,1.44 1.02,-0.12 0.68,1.22 0.11,2.02 -1.41,1.97 -3.03,3.38 -4.50,4.58 -6.28,5.13 -9.44,4.72 -10.41,4.69 -6.17,-0.17 -5.60,-6.82 -5.26,-8.24 1.86,-1.57 3.45,-3.28 4.38,-5.04 0.38,-0.96 1.03,-3.15 -0.15,-5.91 -0.62,-1.21 -2.56,-4.60 -2.56,-4.60 0.00,0.00 1.43,0.04 1.57,0.04 0.14,0.00 0.41,-0.14 0.06,-0.54 -0.35,-0.40 -3.36,-3.40 -3.54,-3.65 -0.18,-0.24 -0.35,-0.42 -0.45,-0.06 -0.10,0.36 -0.36,1.88 -0.42,2.20 -0.06,0.31 -0.06,0.63 0.10,0.90 0.15,0.27 0.55,1.20 0.84,1.96 0.29,0.76 3.26,6.47 3.53,6.98 0.27,0.51 0.33,0.88 0.06,1.22 -9.53,10.05 -27.91,16.23 -28.50,16.58 -0.59,0.34 -0.43,0.61 0.56,0.43 1.48,-0.26 9.74,-1.64 12.09,-2.77 1.55,-0.75 6.97,-3.41 11.41,-6.89 -0.12,0.90 -0.24,2.22 -0.18,3.89 0.30,8.08 7.53,6.74 9.43,6.33 5.68,-1.25 12.64,-9.11 13.23,-10.68 0.58,-1.56 0.67,-2.98 0.54,-4.22 1.50,-0.81 4.71,-3.40 4.71,-3.40 0.13,3.45 2.88,4.48 3.72,4.63 3.96,0.60 5.94,-2.71 6.78,-3.78 0.72,1.89 2.45,2.26 3.34,2.43 3.41,0.68 4.08,-1.74 4.26,-2.29 1.07,-3.33 -0.86,-5.81 -1.11,-6.08 z M 324.67,31.57 c -2.03,-0.14 -1.85,-0.92 -1.57,-1.22 0.30,-0.33 2.78,-1.89 4.85,0.89 0.00,0.00 -0.86,0.50 -3.28,0.33 z M 344.96,6.37 c 0.79,0.58 1.93,1.04 1.93,1.04 -3.66,4.49 -10.84,7.68 -12.55,9.01 -0.51,0.39 -0.44,0.61 -0.12,0.53 0.29,-0.08 5.76,-1.61 10.76,-5.90 2.29,-1.97 2.23,-2.11 2.82,-3.31 0.50,0.26 0.84,0.67 1.03,0.91 0.28,0.34 0.43,0.60 0.56,0.23 0.48,-1.33 -0.20,-2.13 -0.84,-2.54 0.00,0.00 0.67,-2.07 -0.56,-4.14 -0.21,-0.35 -1.43,-1.46 -2.85,0.74 -0.55,0.84 -0.96,2.85 -0.17,3.42 z M 345.69,4.34 c 0.73,-1.02 1.08,-0.98 1.36,-0.82 0.82,0.77 0.70,2.02 0.67,2.31 0.00,0.00 -1.05,-0.49 -1.52,-0.69 -0.47,-0.20 -0.72,-0.50 -0.50,-0.80 z M 347.72,14.30 c 0.18,-0.50 -0.04,-0.77 -0.29,-0.16 -0.25,0.61 -1.30,2.73 -1.14,5.22 0.04,0.58 0.42,1.70 1.29,1.73 0.45,0.00 1.03,-0.33 1.44,-1.74 0.07,-0.32 0.12,-0.57 0.15,-0.70 0.04,-0.19 -0.10,-0.42 -0.24,0.02 -0.33,0.86 -1.18,1.47 -1.82,0.31 -0.10,-0.23 -0.53,-1.28 0.26,-3.57 0.16,-0.44 0.36,-1.11 0.36,-1.11 z M 303.92,12.30 c 0.25,-0.16 13.84,-8.02 14.32,-8.31 0.46,-0.29 0.72,-0.41 0.91,-0.85 0.18,-0.44 0.23,-0.52 0.33,-0.82 0.10,-0.32 0.21,-0.67 -0.61,-0.19 -0.53,0.31 -14.04,8.11 -14.59,8.46 -0.55,0.35 -0.74,0.44 -0.83,0.87 -0.09,0.42 -0.13,0.67 -0.16,0.73 -0.10,0.28 -0.17,0.63 0.64,0.10 z M 287.24,13.78 c 0.17,-0.05 3.05,-0.49 6.41,-3.05 1.82,-1.38 2.92,-3.74 2.92,-3.74 0.00,0.00 0.91,0.76 1.03,0.91 0.28,0.34 0.43,0.60 0.56,0.23 0.48,-1.33 -0.20,-2.13 -0.84,-2.54 0.00,0.00 0.67,-2.07 -0.56,-4.14 -0.21,-0.35 -1.43,-1.46 -2.85,0.74 -0.55,0.84 -0.96,2.85 -0.17,3.42 0.79,0.58 1.93,1.04 1.93,1.04 -3.66,4.49 -6.16,5.34 -8.30,6.60 -0.55,0.32 -0.44,0.61 -0.12,0.53 z M 294.95,4.39 c -0.47,-0.20 -0.72,-0.50 -0.50,-0.80 0.73,-1.02 1.08,-0.99 1.36,-0.82 0.83,0.77 0.70,2.02 0.67,2.31 0.00,0.00 -1.05,-0.49 -1.52,-0.69 z M 294.19,23.91 c 0.00,0.00 1.25,-0.31 1.47,-0.38 0.22,-0.06 0.34,-0.35 -0.05,-0.55 -0.39,-0.20 -4.09,-1.67 -4.37,-1.79 -0.28,-0.11 -0.38,-0.24 -0.41,0.06 -0.02,0.30 -0.07,2.73 -0.07,2.73 0.00,0.00 -0.06,0.17 0.27,0.35 0.32,0.18 0.64,0.58 0.90,0.84 0.26,0.26 3.70,2.98 3.87,3.07 0.00,0.00 -1.72,3.02 -1.94,5.38 -0.22,2.36 0.04,5.63 3.27,4.58 0.87,-0.25 4.49,-1.69 5.30,-4.21 0.26,-0.93 1.01,-2.61 -0.21,-4.31 -0.70,-1.00 -3.53,-2.69 -3.53,-2.69 0.00,0.00 2.17,-3.00 2.38,-3.37 0.21,-0.37 1.00,-2.69 1.09,-3.26 0.09,-0.56 0.13,-0.85 -0.29,-0.32 -0.42,0.52 -4.63,6.05 -4.63,6.05 z M 301.15,32.79 c -1.20,0.99 -3.72,2.29 -4.43,2.36 -0.71,0.07 -2.59,-0.28 -1.77,-2.20 0.28,-0.62 2.16,-3.84 2.16,-3.84 0.70,0.39 5.24,2.70 4.04,3.69 z M 294.82,14.16 c -0.06,-0.05 -0.15,-0.03 -0.20,0.04 -1.53,2.10 -1.53,2.10 -1.53,2.10 -0.05,0.07 -0.04,0.16 0.03,0.20 2.61,1.91 2.61,1.91 2.61,1.91 0.06,0.05 0.15,0.03 0.20,-0.04 1.32,-1.81 1.32,-1.81 1.32,-1.81 2.54,1.85 2.54,1.85 2.54,1.85 0.06,0.05 0.15,0.03 0.20,-0.04 1.53,-2.10 1.53,-2.10 1.53,-2.10 0.05,-0.07 0.04,-0.16 -0.03,-0.21 -2.62,-1.91 -2.62,-1.91 -2.62,-1.91 -0.06,-0.05 -0.15,-0.03 -0.20,0.04 -1.32,1.81 -1.32,1.81 -1.32,1.81 z M 261.33,38.74 c -0.22,0.60 -0.30,1.00 -0.28,1.23 0.02,0.23 0.10,0.98 0.10,0.98 -0.23,0.18 -1.18,0.78 -2.14,0.07 0.06,-0.21 0.19,-0.62 0.22,-0.85 0.10,-0.35 -0.11,-0.62 -0.29,-0.25 -0.17,0.37 -0.58,1.60 -0.88,1.88 -0.30,0.28 -0.66,1.29 -2.94,0.26 -0.40,-0.15 -1.10,-0.67 -2.19,0.42 -2.47,2.30 -4.18,2.48 -6.95,3.46 -0.34,0.15 -1.04,0.68 -0.20,0.60 0.83,-0.08 4.35,0.00 6.26,-2.19 0.40,-0.39 0.86,-1.41 2.38,-0.82 0.84,0.32 2.39,1.65 4.09,-0.98 1.00,0.67 2.52,0.40 2.76,-0.33 0.24,-0.73 0.52,-1.46 0.52,-1.96 0.00,-0.50 -0.05,-1.16 -0.05,-1.16 -0.03,-0.39 -0.17,-0.96 -0.39,-0.36 z M 288.17,27.07 c 0.45,-0.62 1.08,-2.23 1.16,-2.63 0.07,-0.41 -0.02,-0.48 -0.33,-0.22 -0.31,0.26 -6.31,5.52 -10.67,5.18 -0.80,-0.06 -3.73,-0.43 -5.49,-4.35 -0.30,-0.66 -1.03,-2.64 -1.03,-3.90 -0.02,-0.46 0.22,-0.79 1.09,-1.24 0.87,-0.44 4.82,-2.31 8.19,-2.37 0.91,-0.04 2.57,0.06 3.99,0.54 0.78,0.24 1.42,0.11 0.78,-0.41 -0.65,-0.52 -4.23,-2.20 -6.16,-2.24 -1.92,-0.04 -5.47,0.18 -7.71,2.79 -0.61,0.74 -2.46,3.31 -1.50,7.04 0.26,0.83 1.22,3.60 1.31,3.77 0.00,0.00 -2.53,-0.87 -3.53,-4.03 -0.28,-0.92 -1.85,-8.08 -3.05,-9.89 -0.31,-0.57 -0.50,-0.41 -0.74,0.04 -0.24,0.44 -0.61,1.37 -0.24,2.50 0.37,1.13 2.16,7.25 2.26,8.02 0.09,0.78 0.76,3.05 -1.72,3.11 -0.70,-0.02 -2.88,-0.31 -3.57,-1.90 0.15,-0.48 0.20,-0.55 0.26,-0.85 0.13,-0.48 -0.24,-0.89 -0.59,-0.28 -0.35,0.61 -1.09,2.33 -1.54,2.88 -0.44,0.55 -2.87,2.66 -4.31,-0.43 0.15,-0.41 0.50,-1.33 0.61,-1.66 0.11,-0.33 -0.04,-0.96 -0.44,-0.43 -0.41,0.54 -3.11,3.81 -5.51,3.68 -0.44,-0.06 -1.77,-0.37 -3.14,-3.11 -0.28,-0.50 -0.37,-0.11 -0.41,0.09 -0.04,0.20 -0.37,2.31 -0.37,2.31 0.42,0.72 2.22,3.83 2.33,5.88 0.06,0.61 0.00,1.31 -1.37,2.50 -1.37,1.18 -7.94,6.40 -13.96,6.75 -0.87,0.05 -5.77,0.15 -7.51,-3.70 -0.35,-0.68 -1.89,-4.47 0.35,-9.10 0.22,-0.46 -0.35,-1.11 -0.83,-0.11 -0.48,1.00 -4.21,9.37 0.96,14.16 0.37,0.34 4.72,4.72 15.20,-1.00 0.81,-0.44 6.56,-4.06 7.53,-6.34 0.27,-0.64 1.07,-3.57 0.83,-5.05 0.33,-0.08 2.50,-0.28 4.23,-2.42 0.26,0.44 1.38,2.94 3.99,2.09 0.81,-0.26 2.16,-1.46 2.70,-2.83 0.11,0.11 1.52,2.20 4.46,1.90 1.70,-0.19 2.72,-3.07 2.72,-3.07 0.00,0.00 2.59,6.75 12.14,3.66 1.59,-0.51 6.55,-2.90 8.62,-5.35 z M 284.96,42.90 c 0.03,-0.06 0.05,-0.17 -0.04,-0.19 -0.10,-0.03 -0.26,0.02 -0.36,0.04 -0.15,0.03 -0.30,0.06 -0.44,0.09 -0.34,0.08 -0.68,0.16 -1.02,0.22 -0.68,0.12 -1.39,0.17 -2.07,0.09 -0.65,-0.08 -1.28,-0.36 -1.66,-0.85 -0.38,-0.49 -0.45,-1.13 -0.28,-1.71 0.36,-1.23 1.59,-2.07 2.66,-2.80 0.13,-0.09 0.28,-0.15 0.30,-0.29 0.02,-0.14 0.04,-0.27 0.06,-0.41 0.04,-0.39 -0.47,-0.02 -0.59,0.07 -0.46,0.33 -1.05,0.91 -1.68,0.88 -0.43,-0.02 -0.93,-0.22 -1.22,-0.50 -0.05,-0.05 -0.12,-0.10 -0.08,-0.17 0.05,-0.09 0.14,-0.18 0.23,-0.25 0.18,-0.16 0.40,-0.29 0.61,-0.41 0.41,-0.22 0.77,-0.34 1.24,-0.31 0.08,0.01 0.18,0.03 0.25,-0.02 0.08,-0.05 0.10,-0.15 0.04,-0.22 -0.12,-0.13 -0.44,-0.19 -0.62,-0.23 -0.90,-0.17 -1.85,0.27 -2.15,1.10 -0.13,0.37 -0.13,0.82 0.10,1.14 0.27,0.38 0.75,0.54 1.20,0.66 -1.12,1.34 -1.40,3.93 0.35,4.86 0.83,0.44 1.87,0.39 2.80,0.22 0.52,-0.10 0.98,-0.33 1.44,-0.56 0.21,-0.10 0.43,-0.21 0.66,-0.28 0.12,-0.04 0.22,-0.08 0.28,-0.19 z" />
     </g>
</svg>
