<?xml version="1.0" encoding="UTF-8"?>
<svg version="1.1" id="Layer_1" x="0px" y="0px" width="578" height="55" viewBox="0 0 578 55"
xml:space="preserve" xmlns="http://www.w3.org/2000/svg" xmlns:svg="http://www.w3.org/2000/svg" xmlns:rdf="http://www.w3.org/1999/02/22-rdf-syntax-ns#"  xmlns:cc="http://creativecommons.org/ns#" xmlns:dc="http://purl.org/dc/elements/1.1/">
     <g>
<path d="M 305.90,37.35 c 0.39,3.09 0.69,5.88 0.73,7.37 -0.04,0.46 0.17,0.64 0.38,0.19 0.11,-0.24 0.59,-1.22 0.73,-3.80 0.11,-1.94 -0.05,-4.91 -0.60,-9.01 -0.08,-0.60 -2.95,-21.37 -2.95,-21.37 0.00,0.00 1.55,1.46 1.80,1.72 0.25,0.26 0.55,0.12 0.41,-0.30 -0.14,-0.42 -3.31,-8.09 -3.42,-8.36 -0.10,-0.27 -0.20,-0.46 -0.33,-0.15 -0.13,0.31 -1.08,2.64 -1.08,2.64 0.02,0.14 0.28,1.15 0.33,1.54 0.44,3.37 3.20,23.25 3.99,29.54 z M 295.65,10.14 c 0.00,0.00 1.33,1.20 1.58,1.46 0.25,0.26 0.55,0.12 0.41,-0.30 -0.14,-0.42 -2.98,-7.24 -3.08,-7.51 -0.10,-0.27 -0.21,-0.46 -0.33,-0.15 -0.13,0.31 -1.15,2.55 -1.15,2.55 0.03,0.18 0.27,0.73 0.43,1.87 0.16,1.11 2.76,21.24 2.92,22.63 0.16,1.39 0.63,4.88 0.63,5.43 0.00,0.55 0.18,2.16 -1.46,2.76 -0.77,0.27 -3.60,1.04 -5.33,-0.36 -0.35,-0.31 -1.34,-1.26 -1.37,-3.96 -0.03,-0.36 -0.11,-0.64 -0.39,-0.25 -0.28,0.39 -2.81,5.42 -7.54,5.42 -0.62,-0.02 -2.89,0.12 -5.02,-2.30 -1.19,-1.36 -3.68,-4.97 -5.81,-6.90 -0.95,-0.86 -10.08,-9.28 -21.52,-15.60 -0.29,-0.20 -0.55,-0.37 -0.04,-0.79 0.51,-0.42 15.69,-8.92 28.89,-10.98 1.27,-0.20 3.95,-0.23 4.47,0.86 0.13,0.41 0.36,1.22 -0.31,2.01 -0.67,0.79 -4.16,4.96 -5.09,7.01 -0.18,0.32 -0.16,0.77 0.22,0.40 0.38,-0.38 6.21,-6.93 6.96,-10.47 0.09,-0.76 0.57,-2.97 -3.67,-2.86 -1.10,0.03 -15.03,2.38 -29.15,9.77 -0.97,0.53 -3.05,1.49 -3.68,4.52 -0.15,0.89 -0.46,2.21 0.46,3.00 0.92,0.79 11.52,8.72 14.87,13.38 0.56,0.74 1.33,1.80 1.59,2.41 0.26,0.62 0.24,0.86 -0.04,1.12 -0.22,0.20 -1.34,1.40 -3.96,2.12 -0.48,-1.30 -1.22,-2.57 -2.29,-3.49 -0.76,-0.65 -2.64,-1.96 -4.28,-0.68 -1.64,1.28 -2.89,5.01 -1.26,6.67 1.38,1.41 4.46,1.48 7.34,0.69 0.09,0.23 0.17,0.47 0.25,0.73 0.13,0.90 -0.31,1.03 -0.62,1.41 -0.31,0.37 -4.19,5.13 -9.37,7.00 -1.08,0.39 -6.63,2.59 -8.89,-1.99 -0.44,-0.89 -1.74,-4.46 0.43,-9.67 0.15,-0.37 0.11,-0.67 -0.04,-0.74 0.44,-0.51 0.79,-1.14 0.96,-1.94 0.23,-1.03 0.55,-4.39 -2.23,-6.62 -0.27,-0.27 -0.55,-0.49 -0.67,0.09 -0.12,0.58 -0.24,2.17 -0.24,2.17 0.30,0.46 1.95,2.59 2.07,2.96 0.12,0.37 0.31,0.64 -0.30,1.01 -0.61,0.37 -8.84,5.03 -15.06,1.19 0.00,0.00 -1.41,-2.13 -1.60,-2.47 -0.19,-0.34 -0.37,-0.59 -0.48,-0.22 -0.11,0.37 -0.30,2.31 -0.30,2.31 0.36,0.75 2.41,4.87 2.51,5.53 0.10,0.66 0.07,1.82 -1.02,2.71 -1.09,0.89 -11.12,8.88 -24.32,11.29 -0.63,0.13 -0.46,0.46 0.26,0.43 0.73,-0.03 8.98,-0.33 9.40,-0.46 0.43,-0.13 10.13,-3.76 14.49,-8.32 2.74,-2.77 2.16,-6.89 2.16,-6.89 0.76,0.15 5.18,1.25 10.21,-0.52 0.84,-0.30 2.30,-0.66 3.46,-1.58 -0.07,0.14 -0.14,0.29 -0.22,0.48 -0.68,1.71 -3.37,10.25 1.26,13.95 0.76,0.61 6.00,3.54 13.35,-2.42 1.33,-1.08 5.52,-4.53 5.79,-7.83 0.05,-0.47 0.04,-1.16 -0.07,-1.95 1.57,-0.57 3.00,-1.39 3.94,-2.38 0.75,-0.79 0.87,-2.07 0.63,-3.68 -0.41,-2.72 -1.41,-4.31 -1.41,-4.31 0.00,0.00 2.67,1.41 5.11,4.21 2.44,2.80 6.50,7.86 7.38,8.44 0.88,0.58 3.90,2.82 8.08,0.33 1.44,-0.98 3.27,-3.32 3.27,-3.32 0.40,1.03 1.13,4.06 4.99,4.03 1.06,-0.02 4.36,-0.30 5.44,-4.03 0.23,-1.06 0.43,-3.12 0.18,-5.72 -0.15,-1.69 -2.79,-22.69 -2.79,-22.69 z M 257.06,36.96 c -4.00,0.20 -4.09,-0.75 -3.65,-1.25 0.44,-0.51 1.56,-0.99 2.90,-0.26 0.35,0.25 0.99,0.69 1.66,1.43 -0.29,0.04 -0.60,0.07 -0.91,0.09 z M 270.54,21.57 c -0.32,1.10 -0.13,2.23 0.58,2.40 0.50,0.12 0.77,0.44 0.88,0.62 0.05,0.08 0.13,0.03 0.16,-0.02 0.67,-1.09 0.21,-1.85 -0.75,-2.21 -0.38,-0.14 -0.51,-0.70 1.01,-1.51 1.40,-0.75 17.91,-7.37 18.23,-7.55 0.42,-0.24 0.67,-0.33 0.86,-0.72 0.19,-0.39 0.23,-0.45 0.34,-0.73 0.11,-0.29 0.22,-0.59 -0.54,-0.20 -0.40,0.21 -18.25,7.26 -19.43,8.07 -0.59,0.41 -1.11,1.08 -1.33,1.84 z M 242.07,7.32 c 0.36,-0.39 0.62,-0.79 1.68,-0.76 1.07,0.03 3.62,-0.07 2.66,0.63 -0.95,0.70 -1.60,1.11 -1.60,1.11 -0.62,0.44 -1.16,1.28 -0.07,0.81 1.09,-0.46 2.54,-1.19 3.65,-2.86 0.32,-0.49 0.70,-1.14 -0.80,-1.36 -1.50,-0.23 -3.93,-0.58 -4.71,0.28 -0.78,0.86 -1.03,1.44 -1.26,1.81 -0.32,0.51 0.08,0.73 0.45,0.34 z M 219.28,17.57 c 0.66,-0.37 4.49,-1.86 5.12,-5.65 0.05,-0.50 -0.05,-0.87 -0.17,-1.12 0.05,0.01 0.11,0.05 0.17,0.11 0.27,0.27 1.99,1.69 2.88,4.71 0.16,0.40 0.53,0.44 0.61,-0.13 0.21,-1.40 0.32,-3.82 0.43,-4.56 0.16,-1.03 0.65,-3.16 1.96,-2.06 0.30,0.25 0.61,0.58 0.61,0.58 0.28,0.35 0.63,0.75 0.80,0.34 0.26,-0.61 0.46,-1.62 0.18,-2.17 -0.12,-0.24 -1.75,-2.30 -2.85,-0.89 -1.37,1.74 -1.46,4.03 -1.64,6.57 -0.19,-0.53 -1.29,-3.95 -4.78,-5.91 -0.25,-0.14 -0.77,0.13 -0.82,0.93 -0.03,0.47 -0.16,1.61 0.17,1.93 0.32,0.31 2.68,1.14 1.40,2.49 -0.57,0.61 -3.45,3.59 -4.06,4.31 -0.62,0.72 -0.68,0.85 -0.02,0.49 z M 283.82,24.23 c 0.71,0.34 1.75,0.02 2.54,-1.46 0.61,0.88 1.53,0.88 2.03,0.70 0.42,-0.15 0.89,-0.79 1.03,-1.66 0.14,-0.88 -0.09,-1.48 -0.37,-1.97 -0.36,-0.61 -0.61,-1.63 -0.61,-1.63 -0.13,-0.36 -0.23,-0.74 -0.39,-0.23 -0.16,0.50 -0.28,0.89 -0.06,1.47 0.22,0.58 0.81,1.88 0.91,2.07 0.10,0.19 0.12,0.40 -0.20,0.53 -0.32,0.14 -1.81,0.45 -2.08,-1.13 -0.27,-1.58 -0.30,-2.04 -0.44,-2.31 -0.14,-0.27 -0.27,-0.30 -0.37,-0.03 -0.11,0.27 -0.17,0.82 -0.19,0.91 -0.02,0.09 -0.02,0.15 0.04,0.25 0.06,0.10 0.65,1.86 0.38,2.35 -0.27,0.49 -1.60,1.36 -2.29,0.45 -0.33,-0.64 -0.13,-2.26 -0.13,-2.64 0.00,-0.38 -0.12,-0.51 -0.28,-0.20 -0.16,0.31 -0.25,0.51 -0.24,0.79 0.01,0.28 0.05,1.46 0.02,1.83 -0.02,0.37 0.00,1.58 0.71,1.92 z M 234.33,45.79 c -0.06,-0.05 -0.15,-0.03 -0.20,0.04 -1.32,1.81 -1.32,1.81 -1.32,1.81 -2.54,-1.85 -2.54,-1.85 -2.54,-1.85 -0.06,-0.05 -0.15,-0.03 -0.20,0.04 -1.53,2.10 -1.53,2.10 -1.53,2.10 -0.05,0.07 -0.04,0.16 0.03,0.20 2.61,1.91 2.61,1.91 2.61,1.91 0.06,0.05 0.15,0.03 0.20,-0.04 1.32,-1.81 1.32,-1.81 1.32,-1.81 2.54,1.85 2.54,1.85 2.54,1.85 0.06,0.05 0.15,0.03 0.20,-0.04 1.53,-2.10 1.53,-2.10 1.53,-2.10 0.05,-0.07 0.04,-0.16 -0.03,-0.20 z M 286.09,31.43 c 0.06,0.05 0.15,0.03 0.20,-0.04 1.32,-1.81 1.32,-1.81 1.32,-1.81 2.54,1.85 2.54,1.85 2.54,1.85 0.06,0.05 0.15,0.03 0.20,-0.04 1.53,-2.10 1.53,-2.10 1.53,-2.10 0.05,-0.07 0.04,-0.16 -0.03,-0.20 -2.61,-1.91 -2.61,-1.91 -2.61,-1.91 -0.06,-0.05 -0.15,-0.03 -0.20,0.04 -1.32,1.81 -1.32,1.81 -1.32,1.81 -2.54,-1.85 -2.54,-1.85 -2.54,-1.85 -0.06,-0.05 -0.15,-0.03 -0.20,0.04 -1.53,2.10 -1.53,2.10 -1.53,2.10 -0.05,0.07 -0.04,0.16 0.03,0.20 z M 269.71,46.17 c -0.55,0.28 -10.38,3.94 -10.95,4.26 -0.57,0.32 -0.77,0.39 -0.88,0.81 -0.11,0.41 -0.17,0.66 -0.20,0.72 -0.12,0.28 -0.21,0.62 0.63,0.14 0.26,-0.15 10.20,-3.86 10.67,-4.13 0.47,-0.27 0.75,-0.36 0.96,-0.79 0.21,-0.43 0.26,-0.50 0.38,-0.80 0.12,-0.32 0.25,-0.65 -0.60,-0.22 z M 227.00,50.72 c -0.42,0.14 -6.85,2.88 -7.31,3.07 -0.43,0.17 -0.55,0.28 -0.63,0.58 -0.08,0.30 -0.12,0.47 -0.14,0.52 -0.08,0.20 -0.19,0.37 0.45,0.10 0.31,-0.13 6.67,-2.78 7.11,-2.97 0.35,-0.15 0.53,-0.26 0.68,-0.56 0.15,-0.30 0.19,-0.36 0.27,-0.57 0.09,-0.23 0.19,-0.36 -0.43,-0.16 z M 288.79,47.06 c -0.31,0.83 -1.13,1.41 -1.74,0.30 -0.10,-0.22 -0.51,-1.22 0.25,-3.42 0.15,-0.43 0.35,-1.06 0.35,-1.06 0.17,-0.48 -0.03,-0.74 -0.28,-0.15 -0.24,0.59 -1.25,2.61 -1.09,5.00 0.04,0.55 0.40,1.63 1.23,1.65 0.43,0.00 0.99,-0.31 1.38,-1.66 0.07,-0.30 0.11,-0.55 0.14,-0.67 0.04,-0.18 -0.09,-0.40 -0.23,0.02 z M 303.31,44.55 c -0.31,0.83 -1.13,1.40 -1.74,0.30 -0.10,-0.22 -0.51,-1.23 0.24,-3.42 0.15,-0.43 0.35,-1.06 0.35,-1.06 0.17,-0.48 -0.03,-0.74 -0.28,-0.15 -0.24,0.59 -1.25,2.61 -1.09,5.00 0.04,0.55 0.40,1.63 1.23,1.65 0.43,0.00 0.98,-0.31 1.38,-1.66 0.07,-0.30 0.11,-0.55 0.14,-0.67 0.04,-0.18 -0.09,-0.40 -0.23,0.02 z M 266.06,12.17 c 0.15,-0.49 -0.06,-0.74 -0.28,-0.14 -0.22,0.60 -1.15,2.66 -0.91,5.04 0.06,0.55 0.46,1.61 1.29,1.61 0.43,-0.02 0.97,-0.35 1.32,-1.71 0.06,-0.31 0.09,-0.55 0.11,-0.67 0.04,-0.18 -0.11,-0.40 -0.23,0.03 -0.28,0.84 -1.08,1.45 -1.73,0.36 -0.11,-0.22 -0.56,-1.21 0.12,-3.43 0.14,-0.43 0.31,-1.07 0.31,-1.07 z M 248.76,23.66 c 0.16,-0.51 -0.06,-0.77 -0.29,-0.15 -0.23,0.62 -1.20,2.77 -0.95,5.25 0.06,0.57 0.48,1.68 1.35,1.68 0.45,-0.02 1.01,-0.36 1.37,-1.78 0.06,-0.32 0.09,-0.58 0.12,-0.70 0.04,-0.19 -0.11,-0.41 -0.24,0.03 -0.30,0.87 -1.12,1.51 -1.80,0.38 -0.11,-0.23 -0.58,-1.26 0.13,-3.57 0.14,-0.45 0.32,-1.12 0.32,-1.12 z M 226.98,20.63 c 0.17,-0.53 -0.07,-0.80 -0.30,-0.16 -0.24,0.65 -1.25,2.88 -0.99,5.46 0.06,0.60 0.50,1.75 1.40,1.74 0.47,-0.02 1.05,-0.38 1.43,-1.86 0.06,-0.33 0.10,-0.60 0.12,-0.73 0.04,-0.20 -0.12,-0.43 -0.25,0.03 -0.31,0.91 -1.17,1.57 -1.88,0.39 -0.12,-0.23 -0.60,-1.31 0.13,-3.71 0.15,-0.47 0.33,-1.16 0.33,-1.16 z M 238.16,25.00 c 0.61,-0.04 1.38,-0.56 1.82,-2.65 0.07,-0.47 0.11,-0.85 0.14,-1.03 0.04,-0.28 -0.17,-0.60 -0.33,0.05 -0.38,1.29 -1.49,2.24 -2.46,0.59 -0.16,-0.33 -0.84,-1.83 0.05,-5.25 0.18,-0.66 0.40,-1.65 0.40,-1.65 0.20,-0.75 -0.11,-1.13 -0.41,-0.21 -0.29,0.92 -1.55,4.09 -1.13,7.73 0.10,0.84 0.71,2.45 1.90,2.43 z M 215.32,42.49 c 0.70,-0.04 1.56,-0.67 2.06,-3.22 0.08,-0.58 0.12,-1.03 0.16,-1.26 0.05,-0.34 -0.19,-0.74 -0.37,0.06 -0.42,1.57 -1.68,2.72 -2.79,0.71 -0.18,-0.40 -0.96,-2.24 0.04,-6.40 0.20,-0.81 0.45,-2.01 0.45,-2.01 0.22,-0.91 -0.13,-1.38 -0.46,-0.26 -0.33,1.12 -1.74,4.98 -1.24,9.42 0.12,1.03 0.82,3.00 2.17,2.97 z M 347.60,9.51 c 0.17,0.10 0.36,0.11 0.41,-0.10 0.05,-0.21 0.28,-0.68 0.62,-0.34 0.28,0.28 2.09,1.78 3.03,4.95 0.16,0.42 0.55,0.46 0.64,-0.14 0.22,-1.47 0.34,-4.02 0.45,-4.79 0.16,-1.09 0.68,-3.32 2.06,-2.16 0.31,0.26 0.64,0.61 0.64,0.61 0.29,0.37 0.66,0.79 0.84,0.36 0.27,-0.64 0.49,-1.71 0.19,-2.28 -0.13,-0.25 -1.84,-2.41 -3.00,-0.93 -1.44,1.83 -1.53,4.23 -1.72,6.91 -0.20,-0.56 -1.35,-4.15 -5.03,-6.21 -0.27,-0.15 -0.81,0.13 -0.86,0.98 -0.03,0.49 -0.17,1.69 0.18,2.03 0.35,0.34 1.37,1.01 1.54,1.10 z M 373.78,27.38 c -0.25,-0.28 -0.37,-0.01 -0.46,0.31 -0.09,0.32 -0.36,1.52 -0.54,2.27 0.00,0.00 0.71,1.16 0.97,1.76 0.25,0.59 -0.12,0.92 -0.86,1.01 -2.08,0.25 -3.73,-0.94 -4.30,-1.48 -0.57,-0.55 0.05,-1.52 0.51,-2.68 0.37,-0.93 -0.32,-1.04 -0.84,0.00 -1.76,4.63 -4.23,5.13 -4.88,5.30 -5.86,1.60 -5.36,-3.76 -5.34,-4.64 0.02,-0.88 -0.62,-0.55 -1.34,0.03 -2.47,1.98 -4.45,3.14 -5.52,3.62 -0.92,-1.80 -2.26,-2.93 -2.82,-3.34 -6.34,-4.63 -6.87,4.71 -6.68,5.71 0.97,3.97 7.45,1.56 8.46,1.44 1.02,-0.12 0.68,1.22 0.11,2.02 -1.41,1.97 -3.03,3.38 -4.50,4.57 -6.28,5.13 -9.44,4.72 -10.41,4.69 -6.17,-0.17 -5.60,-6.82 -5.26,-8.24 1.86,-1.57 3.45,-3.28 4.38,-5.04 0.38,-0.96 1.03,-3.16 -0.15,-5.91 -0.62,-1.21 -2.56,-4.60 -2.56,-4.60 0.00,0.00 1.43,0.04 1.57,0.04 0.14,0.00 0.41,-0.14 0.06,-0.54 -0.35,-0.40 -3.36,-3.40 -3.54,-3.65 -0.18,-0.24 -0.35,-0.41 -0.45,-0.06 -0.10,0.35 -0.36,1.88 -0.42,2.20 -0.06,0.31 -0.06,0.63 0.10,0.90 0.15,0.27 0.55,1.20 0.84,1.96 0.29,0.76 3.25,6.47 3.53,6.98 0.27,0.51 0.33,0.88 0.06,1.22 -9.53,10.05 -27.91,16.23 -28.50,16.58 -0.59,0.34 -0.43,0.61 0.56,0.43 1.48,-0.26 9.74,-1.64 12.09,-2.77 1.55,-0.75 6.97,-3.41 11.41,-6.89 -0.12,0.90 -0.24,2.22 -0.17,3.89 0.30,8.08 7.53,6.74 9.43,6.33 5.68,-1.25 12.64,-9.11 13.23,-10.69 0.58,-1.56 0.67,-2.98 0.54,-4.22 1.50,-0.81 4.71,-3.40 4.71,-3.40 0.13,3.45 2.88,4.48 3.72,4.63 3.96,0.60 5.94,-2.70 6.78,-3.78 0.72,1.89 2.45,2.26 3.34,2.43 3.41,0.68 4.08,-1.73 4.26,-2.29 1.07,-3.33 -0.86,-5.81 -1.11,-6.08 z M 345.15,34.06 c -2.03,-0.14 -1.85,-0.92 -1.57,-1.22 0.30,-0.33 2.78,-1.89 4.85,0.89 0.00,0.00 -0.86,0.50 -3.28,0.33 z M 365.44,8.85 c 0.79,0.58 1.94,1.04 1.94,1.04 -3.66,4.49 -10.85,7.67 -12.56,9.01 -0.51,0.39 -0.44,0.61 -0.12,0.53 0.28,-0.08 5.76,-1.61 10.76,-5.90 2.29,-1.97 2.23,-2.11 2.81,-3.30 0.50,0.26 0.84,0.67 1.03,0.91 0.28,0.34 0.43,0.60 0.56,0.23 0.48,-1.33 -0.20,-2.13 -0.84,-2.54 0.00,0.00 0.67,-2.07 -0.56,-4.14 -0.21,-0.35 -1.43,-1.46 -2.85,0.74 -0.55,0.84 -0.96,2.85 -0.17,3.42 z M 366.17,6.82 c 0.73,-1.02 1.08,-0.99 1.36,-0.82 0.82,0.77 0.70,2.03 0.67,2.31 0.00,0.00 -1.05,-0.49 -1.52,-0.69 -0.47,-0.20 -0.72,-0.50 -0.50,-0.80 z M 342.09,22.76 c 0.48,0.00 1.11,-0.35 1.55,-1.87 0.08,-0.34 0.13,-0.62 0.16,-0.75 0.05,-0.21 -0.10,-0.45 -0.26,0.02 -0.35,0.93 -1.27,1.58 -1.96,0.33 -0.11,-0.25 -0.58,-1.38 0.28,-3.86 0.17,-0.48 0.39,-1.20 0.39,-1.20 0.19,-0.54 -0.04,-0.84 -0.31,-0.17 -0.27,0.66 -1.40,2.94 -1.23,5.63 0.04,0.62 0.45,1.83 1.39,1.87 z M 368.20,16.78 c 0.18,-0.50 -0.04,-0.77 -0.29,-0.16 -0.25,0.61 -1.30,2.73 -1.14,5.22 0.04,0.58 0.42,1.70 1.29,1.73 0.45,0.00 1.03,-0.33 1.44,-1.74 0.07,-0.32 0.12,-0.57 0.15,-0.70 0.04,-0.19 -0.10,-0.42 -0.24,0.02 -0.33,0.86 -1.18,1.47 -1.82,0.31 -0.10,-0.23 -0.53,-1.28 0.26,-3.57 0.16,-0.44 0.36,-1.11 0.36,-1.11 z M 324.40,14.78 c 0.25,-0.16 13.84,-8.02 14.32,-8.31 0.46,-0.29 0.72,-0.41 0.91,-0.85 0.18,-0.44 0.23,-0.52 0.33,-0.82 0.11,-0.32 0.21,-0.67 -0.61,-0.19 -0.53,0.31 -14.04,8.11 -14.59,8.46 -0.55,0.35 -0.74,0.44 -0.83,0.87 -0.09,0.42 -0.13,0.67 -0.16,0.73 -0.10,0.28 -0.17,0.63 0.64,0.10 z M 315.30,16.65 c -0.06,-0.05 -0.15,-0.03 -0.20,0.04 -1.53,2.10 -1.53,2.10 -1.53,2.10 -0.05,0.07 -0.04,0.16 0.03,0.20 2.61,1.91 2.61,1.91 2.61,1.91 0.06,0.05 0.15,0.03 0.20,-0.04 1.32,-1.81 1.32,-1.81 1.32,-1.81 2.54,1.85 2.54,1.85 2.54,1.85 0.06,0.05 0.15,0.03 0.20,-0.04 1.53,-2.10 1.53,-2.10 1.53,-2.10 0.05,-0.07 0.04,-0.16 -0.03,-0.20 -2.61,-1.91 -2.61,-1.91 -2.61,-1.91 -0.06,-0.05 -0.15,-0.03 -0.20,0.04 -1.32,1.81 -1.32,1.81 -1.32,1.81 z M 307.72,16.26 c 0.17,-0.04 3.05,-0.49 6.41,-3.05 1.82,-1.38 2.92,-3.74 2.92,-3.74 0.00,0.00 0.91,0.76 1.03,0.91 0.28,0.34 0.43,0.60 0.56,0.23 0.48,-1.33 -0.20,-2.13 -0.84,-2.54 0.00,0.00 0.67,-2.07 -0.56,-4.14 -0.21,-0.35 -1.43,-1.46 -2.85,0.74 -0.55,0.84 -0.96,2.85 -0.17,3.42 0.79,0.58 1.94,1.04 1.94,1.04 -3.66,4.49 -6.16,5.34 -8.30,6.60 -0.55,0.32 -0.44,0.61 -0.12,0.53 z M 315.44,6.87 c -0.47,-0.20 -0.72,-0.50 -0.50,-0.80 0.73,-1.02 1.08,-0.99 1.36,-0.82 0.82,0.77 0.70,2.03 0.67,2.31 0.00,0.00 -1.05,-0.49 -1.52,-0.69 z M 370.58,39.69 c -0.24,0.68 -0.34,1.12 -0.31,1.38 0.03,0.26 0.12,1.10 0.12,1.10 -0.25,0.20 -1.33,0.87 -2.40,0.08 0.07,-0.23 0.21,-0.70 0.24,-0.95 0.12,-0.40 -0.13,-0.69 -0.32,-0.28 -0.20,0.41 -0.65,1.79 -0.99,2.10 -0.34,0.31 -0.73,1.45 -3.30,0.29 -0.45,-0.17 -1.24,-0.75 -2.46,0.48 -2.77,2.57 -4.68,2.78 -7.79,3.88 -0.38,0.17 -1.16,0.77 -0.23,0.67 0.94,-0.09 4.87,0.00 7.01,-2.46 0.45,-0.43 0.96,-1.58 2.66,-0.92 0.94,0.36 2.68,1.85 4.58,-1.10 1.12,0.75 2.82,0.45 3.09,-0.38 0.27,-0.82 0.58,-1.64 0.58,-2.20 0.00,-0.56 -0.05,-1.30 -0.05,-1.30 -0.04,-0.44 -0.19,-1.07 -0.44,-0.40 z M 314.68,26.39 c 0.00,0.00 1.25,-0.31 1.47,-0.38 0.22,-0.06 0.34,-0.35 -0.05,-0.55 -0.39,-0.20 -4.09,-1.67 -4.37,-1.79 -0.28,-0.11 -0.38,-0.24 -0.41,0.06 -0.02,0.30 -0.07,2.73 -0.07,2.73 0.00,0.00 -0.06,0.17 0.27,0.35 0.32,0.18 0.64,0.58 0.90,0.84 0.26,0.26 3.70,2.98 3.87,3.07 0.00,0.00 -1.72,3.02 -1.94,5.38 -0.22,2.36 0.04,5.63 3.27,4.57 0.87,-0.25 4.49,-1.69 5.30,-4.21 0.26,-0.93 1.01,-2.61 -0.21,-4.31 -0.70,-1.00 -3.53,-2.69 -3.53,-2.69 0.00,0.00 2.17,-3.00 2.38,-3.37 0.21,-0.37 1.00,-2.69 1.09,-3.26 0.09,-0.56 0.13,-0.84 -0.29,-0.32 -0.42,0.52 -4.63,6.05 -4.63,6.05 z M 321.63,35.28 c -1.20,0.99 -3.72,2.29 -4.43,2.36 -0.71,0.07 -2.59,-0.28 -1.77,-2.20 0.28,-0.62 2.16,-3.84 2.16,-3.84 0.70,0.39 5.24,2.70 4.04,3.69 z" />
     </g>
</svg>
