<?xml version="1.0" encoding="UTF-8"?>
<svg version="1.1" id="Layer_1" x="0px" y="0px" width="578" height="52" viewBox="0 0 578 52"
xml:space="preserve" xmlns="http://www.w3.org/2000/svg" xmlns:svg="http://www.w3.org/2000/svg" xmlns:rdf="http://www.w3.org/1999/02/22-rdf-syntax-ns#"  xmlns:cc="http://creativecommons.org/ns#" xmlns:dc="http://purl.org/dc/elements/1.1/">
     <g>
<path d="M 269.74,17.67 c -1.92,2.63 -1.92,2.63 -1.92,2.63 -0.06,0.08 -0.05,0.20 0.03,0.25 3.27,2.38 3.27,2.38 3.27,2.38 0.08,0.06 0.19,0.04 0.25,-0.05 1.91,-2.63 1.91,-2.63 1.91,-2.63 0.06,-0.08 0.05,-0.20 -0.03,-0.25 -3.27,-2.38 -3.27,-2.38 -3.27,-2.38 -0.08,-0.06 -0.19,-0.04 -0.25,0.05 z M 280.19,21.92 c -1.92,2.63 -1.92,2.63 -1.92,2.63 -0.06,0.08 -0.05,0.20 0.03,0.25 3.27,2.38 3.27,2.38 3.27,2.38 0.08,0.06 0.19,0.04 0.25,-0.05 1.91,-2.63 1.91,-2.63 1.91,-2.63 0.06,-0.08 0.05,-0.20 -0.03,-0.25 -3.27,-2.38 -3.27,-2.38 -3.27,-2.38 -0.08,-0.06 -0.19,-0.04 -0.25,0.05 z M 307.01,42.24 c -0.04,0.46 0.17,0.64 0.38,0.19 0.11,-0.24 0.59,-1.22 0.73,-3.80 0.11,-1.94 -0.05,-4.91 -0.60,-9.01 -0.08,-0.60 -2.95,-21.37 -2.95,-21.37 0.00,0.00 1.55,1.46 1.80,1.72 0.25,0.26 0.55,0.12 0.41,-0.30 -0.14,-0.42 -3.32,-8.09 -3.42,-8.36 -0.10,-0.27 -0.20,-0.46 -0.33,-0.15 -0.13,0.31 -1.08,2.64 -1.08,2.64 0.02,0.14 0.28,1.16 0.33,1.54 0.44,3.36 3.20,23.25 3.99,29.54 0.39,3.10 0.69,5.88 0.73,7.37 z M 296.71,8.78 c 0.00,0.00 1.55,1.45 1.80,1.72 0.25,0.26 0.55,0.12 0.41,-0.30 -0.14,-0.42 -3.32,-8.09 -3.42,-8.36 -0.10,-0.27 -0.21,-0.46 -0.33,-0.15 -0.13,0.31 -1.15,2.55 -1.15,2.55 0.03,0.18 0.27,0.73 0.43,1.87 0.17,1.18 0.42,2.86 0.69,4.72 0.00,0.00 4.03,22.07 3.42,24.02 -0.08,0.26 -0.21,0.60 -0.39,1.01 0.03,-1.73 -0.29,-4.31 -1.98,-6.49 -2.26,-2.92 -6.62,-6.46 -7.59,-7.40 -0.72,-0.70 -4.63,-4.24 -6.68,-6.87 -0.92,-1.21 -2.00,-2.82 -2.00,-2.82 0.65,0.24 1.45,0.46 1.88,0.60 0.43,0.15 0.94,0.00 0.29,-0.60 -0.65,-0.60 -5.62,-4.22 -6.00,-4.65 -0.39,-0.43 -0.43,-0.36 -0.46,-0.02 -0.02,0.34 0.00,2.12 0.02,2.68 0.02,0.55 0.15,0.75 0.39,0.92 0.24,0.17 0.63,0.43 0.89,0.84 0.26,0.41 4.92,7.23 8.99,10.78 0.53,0.54 7.90,5.94 10.67,11.25 0.56,1.08 0.80,2.13 0.86,3.16 -1.66,2.73 -5.45,6.86 -14.11,10.40 -0.72,0.33 -0.61,0.84 0.89,0.39 1.50,-0.45 11.03,-2.06 14.27,-9.25 0.78,-1.73 2.34,-4.96 0.84,-12.98 -0.39,-3.29 -2.63,-16.97 -2.63,-16.97 z M 213.72,15.61 c 0.66,-0.37 4.49,-1.86 5.12,-5.65 0.05,-0.50 -0.05,-0.87 -0.17,-1.12 0.05,0.01 0.11,0.05 0.17,0.11 0.27,0.27 1.99,1.69 2.88,4.71 0.16,0.40 0.53,0.44 0.61,-0.13 0.21,-1.40 0.32,-3.82 0.43,-4.56 0.16,-1.03 0.65,-3.16 1.96,-2.06 0.30,0.25 0.61,0.58 0.61,0.58 0.28,0.35 0.63,0.75 0.80,0.34 0.26,-0.61 0.46,-1.62 0.18,-2.17 -0.12,-0.24 -1.75,-2.30 -2.85,-0.89 -1.37,1.74 -1.46,4.03 -1.64,6.57 -0.19,-0.53 -1.29,-3.95 -4.78,-5.91 -0.25,-0.14 -0.77,0.13 -0.82,0.93 -0.03,0.47 -0.16,1.61 0.17,1.93 0.32,0.31 2.68,1.14 1.40,2.49 -0.57,0.61 -3.45,3.59 -4.06,4.31 -0.62,0.72 -0.68,0.85 -0.01,0.49 z M 272.81,44.43 c -0.55,0.28 -12.64,5.01 -13.20,5.33 -0.57,0.32 -0.77,0.40 -0.88,0.81 -0.11,0.41 -0.17,0.66 -0.20,0.72 -0.12,0.28 -0.21,0.62 0.63,0.14 0.26,-0.15 12.45,-4.93 12.92,-5.20 0.47,-0.27 0.75,-0.36 0.96,-0.79 0.21,-0.42 0.26,-0.50 0.38,-0.80 0.13,-0.32 0.25,-0.65 -0.60,-0.23 z M 232.25,42.03 c -0.55,0.28 -12.64,5.01 -13.20,5.33 -0.57,0.32 -0.77,0.39 -0.88,0.81 -0.11,0.41 -0.17,0.66 -0.20,0.72 -0.12,0.28 -0.21,0.62 0.63,0.14 0.26,-0.15 12.45,-4.93 12.92,-5.20 0.47,-0.27 0.75,-0.36 0.96,-0.79 0.21,-0.42 0.26,-0.50 0.38,-0.80 0.12,-0.32 0.25,-0.65 -0.60,-0.22 z M 260.86,18.15 c 0.18,-0.51 -0.04,-0.79 -0.29,-0.16 -0.25,0.62 -1.32,2.76 -1.15,5.29 0.04,0.58 0.42,1.72 1.30,1.75 0.45,0.00 1.04,-0.33 1.46,-1.76 0.07,-0.32 0.12,-0.58 0.15,-0.71 0.04,-0.19 -0.10,-0.42 -0.25,0.02 -0.33,0.87 -1.20,1.49 -1.84,0.31 -0.11,-0.23 -0.54,-1.29 0.26,-3.62 0.16,-0.45 0.37,-1.12 0.37,-1.12 z M 242.96,32.34 c 0.50,0.00 1.15,-0.37 1.62,-1.95 0.08,-0.36 0.13,-0.64 0.16,-0.78 0.05,-0.21 -0.11,-0.47 -0.27,0.02 -0.37,0.97 -1.32,1.65 -2.04,0.35 -0.12,-0.26 -0.60,-1.44 0.29,-4.01 0.18,-0.50 0.40,-1.24 0.40,-1.24 0.20,-0.56 -0.04,-0.87 -0.32,-0.18 -0.28,0.69 -1.46,3.06 -1.28,5.86 0.04,0.65 0.47,1.91 1.44,1.94 z M 239.16,13.20 c 0.50,0.00 1.15,-0.37 1.62,-1.95 0.08,-0.36 0.13,-0.64 0.16,-0.78 0.05,-0.21 -0.11,-0.47 -0.27,0.02 -0.37,0.97 -1.33,1.65 -2.04,0.35 -0.12,-0.26 -0.60,-1.44 0.29,-4.01 0.18,-0.50 0.40,-1.24 0.40,-1.24 0.20,-0.56 -0.04,-0.87 -0.32,-0.18 -0.28,0.69 -1.46,3.06 -1.28,5.86 0.04,0.65 0.47,1.91 1.44,1.94 z M 288.66,11.39 c 0.50,0.00 1.15,-0.37 1.62,-1.95 0.08,-0.36 0.13,-0.64 0.16,-0.78 0.05,-0.21 -0.11,-0.47 -0.27,0.02 -0.37,0.97 -1.33,1.65 -2.04,0.35 -0.12,-0.26 -0.60,-1.44 0.29,-4.01 0.18,-0.50 0.40,-1.24 0.40,-1.24 0.20,-0.56 -0.04,-0.87 -0.32,-0.18 -0.28,0.69 -1.46,3.06 -1.28,5.86 0.04,0.65 0.47,1.91 1.44,1.94 z M 251.76,19.80 c 0.55,0.09 0.86,0.42 0.99,0.60 0.06,0.08 0.15,0.03 0.18,-0.03 0.64,-1.22 0.08,-2.00 -0.98,-2.32 -0.42,-0.13 -0.60,-0.71 0.97,-1.70 1.45,-0.91 15.76,-7.93 16.08,-8.15 0.11,-0.07 0.20,-0.13 0.29,-0.19 -0.41,1.24 -0.88,3.08 -0.76,5.12 0.04,0.72 0.47,2.13 1.44,2.16 0.50,0.00 1.15,-0.41 1.62,-2.17 0.08,-0.40 0.13,-0.72 0.16,-0.87 0.05,-0.24 -0.11,-0.52 -0.27,0.02 -0.37,1.08 -1.33,1.84 -2.04,0.39 -0.12,-0.29 -0.60,-1.60 0.29,-4.47 0.18,-0.56 0.40,-1.39 0.40,-1.39 0.04,-0.12 0.06,-0.22 0.07,-0.31 0.08,-0.29 0.11,-0.54 -0.62,-0.09 -0.42,0.25 -16.12,7.84 -17.33,8.79 -0.61,0.48 -1.11,1.24 -1.30,2.07 -0.27,1.20 0.02,2.40 0.80,2.54 z M 256.68,9.96 c 0.43,0.00 0.99,-0.31 1.38,-1.66 0.07,-0.30 0.11,-0.55 0.14,-0.67 0.04,-0.18 -0.09,-0.40 -0.23,0.02 -0.31,0.83 -1.13,1.41 -1.74,0.30 -0.10,-0.22 -0.51,-1.22 0.24,-3.42 0.15,-0.43 0.35,-1.06 0.35,-1.06 0.17,-0.48 -0.03,-0.74 -0.28,-0.15 -0.24,0.59 -1.25,2.61 -1.09,5.00 0.04,0.55 0.40,1.63 1.23,1.66 z M 216.67,22.83 c 0.23,-0.93 -0.14,-1.41 -0.47,-0.27 -0.33,1.14 -1.77,5.07 -1.26,9.58 0.12,1.04 0.84,3.05 2.21,3.02 0.71,-0.04 1.59,-0.69 2.09,-3.28 0.08,-0.58 0.12,-1.05 0.16,-1.28 0.05,-0.35 -0.20,-0.75 -0.38,0.06 -0.43,1.60 -1.71,2.77 -2.84,0.72 -0.19,-0.41 -0.98,-2.27 0.04,-6.51 0.21,-0.82 0.46,-2.04 0.46,-2.04 z M 374.16,24.89 c -0.25,-0.28 -0.37,-0.01 -0.46,0.31 -0.09,0.32 -0.36,1.52 -0.53,2.27 0.00,0.00 0.71,1.16 0.97,1.75 0.25,0.59 -0.12,0.92 -0.86,1.01 -2.08,0.25 -3.73,-0.94 -4.30,-1.49 -0.57,-0.55 0.05,-1.52 0.51,-2.68 0.37,-0.93 -0.32,-1.04 -0.84,0.00 -1.76,4.63 -4.23,5.12 -4.88,5.30 -5.86,1.60 -5.36,-3.76 -5.34,-4.64 0.02,-0.88 -0.62,-0.55 -1.34,0.03 -2.47,1.98 -4.45,3.14 -5.52,3.62 -0.92,-1.80 -2.26,-2.93 -2.82,-3.34 -6.34,-4.63 -6.87,4.71 -6.67,5.71 0.97,3.97 7.45,1.56 8.46,1.44 1.02,-0.12 0.68,1.22 0.11,2.02 -1.41,1.97 -3.03,3.38 -4.50,4.58 -6.28,5.13 -9.44,4.72 -10.41,4.69 -6.17,-0.17 -5.60,-6.82 -5.26,-8.24 1.86,-1.57 3.45,-3.28 4.38,-5.04 0.38,-0.96 1.03,-3.15 -0.15,-5.91 -0.62,-1.21 -2.56,-4.60 -2.56,-4.60 0.00,0.00 1.43,0.04 1.57,0.04 0.14,0.00 0.41,-0.14 0.06,-0.55 -0.35,-0.40 -3.36,-3.40 -3.54,-3.65 -0.18,-0.24 -0.35,-0.41 -0.45,-0.06 -0.10,0.36 -0.36,1.88 -0.42,2.20 -0.06,0.31 -0.06,0.63 0.10,0.90 0.15,0.27 0.55,1.20 0.84,1.96 0.29,0.76 3.26,6.47 3.53,6.98 0.27,0.51 0.33,0.88 0.06,1.22 -9.53,10.05 -27.91,16.23 -28.50,16.58 -0.59,0.34 -0.43,0.61 0.56,0.43 1.48,-0.26 9.74,-1.64 12.09,-2.77 1.55,-0.75 6.97,-3.41 11.41,-6.89 -0.12,0.90 -0.24,2.22 -0.18,3.89 0.30,8.08 7.53,6.74 9.43,6.33 5.68,-1.25 12.64,-9.11 13.23,-10.68 0.58,-1.56 0.67,-2.98 0.54,-4.22 1.50,-0.81 4.71,-3.40 4.71,-3.40 0.13,3.45 2.88,4.48 3.72,4.63 3.96,0.60 5.94,-2.71 6.78,-3.78 0.72,1.89 2.45,2.26 3.34,2.43 3.41,0.68 4.08,-1.74 4.26,-2.29 1.07,-3.33 -0.86,-5.81 -1.11,-6.08 z M 345.52,31.57 c -2.02,-0.14 -1.85,-0.92 -1.57,-1.23 0.30,-0.33 2.78,-1.89 4.85,0.89 0.00,0.00 -0.86,0.50 -3.28,0.33 z M 229.77,33.60 c 0.38,-0.96 1.03,-3.16 -0.15,-5.91 -0.62,-1.21 -2.56,-4.60 -2.56,-4.60 0.00,0.00 1.43,0.04 1.57,0.04 0.14,0.00 0.41,-0.14 0.06,-0.54 -0.35,-0.40 -3.36,-3.40 -3.54,-3.65 -0.18,-0.24 -0.35,-0.42 -0.45,-0.06 -0.10,0.36 -0.36,1.88 -0.42,2.20 -0.06,0.31 -0.06,0.63 0.10,0.90 0.15,0.27 0.55,1.20 0.84,1.96 0.29,0.76 3.25,6.47 3.53,6.98 0.27,0.51 0.33,0.88 0.06,1.22 -9.53,10.05 -27.91,16.23 -28.50,16.58 -0.59,0.34 -0.43,0.61 0.56,0.43 1.48,-0.26 9.74,-1.64 12.09,-2.77 2.35,-1.13 13.60,-6.67 16.82,-12.77 z M 315.05,23.91 c 0.00,0.00 1.25,-0.31 1.47,-0.38 0.22,-0.06 0.34,-0.34 -0.05,-0.55 -0.39,-0.20 -4.09,-1.67 -4.37,-1.79 -0.28,-0.11 -0.38,-0.24 -0.41,0.06 -0.02,0.30 -0.07,2.73 -0.07,2.73 0.00,0.00 -0.06,0.17 0.27,0.35 0.32,0.18 0.64,0.58 0.90,0.84 0.26,0.26 3.70,2.98 3.87,3.07 0.00,0.00 -1.72,3.02 -1.94,5.38 -0.22,2.36 0.04,5.63 3.27,4.58 0.87,-0.25 4.49,-1.69 5.30,-4.21 0.26,-0.93 1.01,-2.61 -0.21,-4.31 -0.70,-1.00 -3.53,-2.69 -3.53,-2.69 0.00,0.00 2.17,-3.00 2.38,-3.37 0.21,-0.37 1.00,-2.69 1.09,-3.26 0.09,-0.56 0.13,-0.84 -0.29,-0.32 -0.42,0.52 -4.63,6.05 -4.63,6.05 z M 322.00,32.79 c -1.20,0.99 -3.72,2.29 -4.43,2.36 -0.71,0.07 -2.59,-0.28 -1.77,-2.20 0.28,-0.62 2.16,-3.84 2.16,-3.84 0.70,0.39 5.24,2.70 4.04,3.69 z M 315.67,14.16 c -0.06,-0.05 -0.15,-0.03 -0.20,0.04 -1.53,2.10 -1.53,2.10 -1.53,2.10 -0.05,0.07 -0.04,0.16 0.03,0.21 2.61,1.91 2.61,1.91 2.61,1.91 0.06,0.05 0.15,0.03 0.20,-0.04 1.32,-1.81 1.32,-1.81 1.32,-1.81 2.54,1.85 2.54,1.85 2.54,1.85 0.06,0.05 0.15,0.03 0.20,-0.04 1.53,-2.10 1.53,-2.10 1.53,-2.10 0.05,-0.07 0.04,-0.16 -0.03,-0.20 -2.61,-1.91 -2.61,-1.91 -2.61,-1.91 -0.06,-0.05 -0.15,-0.03 -0.20,0.04 -1.32,1.81 -1.32,1.81 -1.32,1.81 z M 347.97,7.03 c 0.17,0.09 0.36,0.11 0.41,-0.10 0.05,-0.21 0.28,-0.68 0.62,-0.34 0.28,0.28 2.09,1.78 3.03,4.95 0.16,0.42 0.55,0.46 0.64,-0.14 0.22,-1.47 0.34,-4.02 0.45,-4.79 0.16,-1.09 0.68,-3.33 2.06,-2.16 0.31,0.26 0.64,0.61 0.64,0.61 0.29,0.37 0.66,0.79 0.84,0.36 0.27,-0.64 0.49,-1.70 0.19,-2.28 -0.13,-0.26 -1.84,-2.41 -3.00,-0.93 -1.44,1.83 -1.53,4.23 -1.72,6.91 -0.20,-0.56 -1.35,-4.16 -5.02,-6.21 -0.27,-0.15 -0.81,0.13 -0.86,0.98 -0.03,0.49 -0.17,1.69 0.18,2.03 0.35,0.34 1.37,1.01 1.54,1.10 z M 324.77,12.30 c 0.25,-0.16 13.84,-8.02 14.32,-8.31 0.46,-0.29 0.72,-0.41 0.91,-0.85 0.18,-0.44 0.23,-0.51 0.33,-0.82 0.10,-0.32 0.21,-0.67 -0.61,-0.19 -0.53,0.31 -14.04,8.11 -14.59,8.46 -0.55,0.35 -0.74,0.44 -0.83,0.86 -0.09,0.42 -0.13,0.67 -0.16,0.73 -0.10,0.28 -0.17,0.63 0.64,0.10 z M 368.58,14.30 c 0.18,-0.50 -0.04,-0.77 -0.29,-0.16 -0.25,0.61 -1.30,2.73 -1.14,5.22 0.04,0.58 0.42,1.70 1.29,1.73 0.45,0.00 1.03,-0.33 1.44,-1.74 0.07,-0.32 0.12,-0.57 0.15,-0.70 0.04,-0.19 -0.10,-0.42 -0.24,0.02 -0.33,0.86 -1.18,1.47 -1.82,0.31 -0.10,-0.23 -0.53,-1.28 0.26,-3.57 0.16,-0.45 0.36,-1.11 0.36,-1.11 z M 342.47,20.28 c 0.48,0.00 1.11,-0.35 1.55,-1.88 0.08,-0.34 0.13,-0.62 0.16,-0.75 0.05,-0.21 -0.10,-0.45 -0.26,0.02 -0.35,0.93 -1.27,1.58 -1.96,0.34 -0.11,-0.25 -0.58,-1.38 0.28,-3.86 0.17,-0.48 0.39,-1.20 0.39,-1.20 0.19,-0.54 -0.04,-0.84 -0.31,-0.17 -0.27,0.66 -1.40,2.94 -1.23,5.64 0.04,0.62 0.45,1.83 1.39,1.87 z M 365.82,6.37 c 0.79,0.58 1.93,1.04 1.93,1.04 -3.66,4.48 -10.84,7.67 -12.55,9.01 -0.51,0.39 -0.44,0.61 -0.12,0.53 0.29,-0.08 5.76,-1.61 10.76,-5.90 2.29,-1.97 2.23,-2.11 2.82,-3.31 0.50,0.26 0.84,0.67 1.03,0.91 0.28,0.34 0.43,0.60 0.56,0.23 0.48,-1.33 -0.20,-2.13 -0.84,-2.54 0.00,0.00 0.67,-2.07 -0.56,-4.14 -0.21,-0.35 -1.43,-1.46 -2.85,0.74 -0.55,0.84 -0.96,2.85 -0.17,3.42 z M 366.55,4.34 c 0.73,-1.02 1.08,-0.98 1.36,-0.82 0.82,0.77 0.70,2.03 0.67,2.31 0.00,0.00 -1.05,-0.49 -1.52,-0.70 -0.47,-0.20 -0.72,-0.50 -0.50,-0.80 z M 308.09,13.78 c 0.17,-0.04 3.05,-0.49 6.41,-3.05 1.82,-1.38 2.92,-3.74 2.92,-3.74 0.00,0.00 0.91,0.76 1.03,0.91 0.28,0.34 0.43,0.60 0.56,0.23 0.48,-1.33 -0.20,-2.13 -0.84,-2.54 0.00,0.00 0.67,-2.07 -0.56,-4.14 -0.21,-0.35 -1.43,-1.46 -2.85,0.74 -0.55,0.84 -0.96,2.85 -0.17,3.42 0.79,0.58 1.93,1.04 1.93,1.04 -3.66,4.48 -6.16,5.34 -8.30,6.59 -0.55,0.32 -0.44,0.61 -0.12,0.53 z M 315.81,4.39 c -0.47,-0.20 -0.72,-0.50 -0.50,-0.80 0.73,-1.02 1.08,-0.98 1.36,-0.82 0.82,0.77 0.70,2.03 0.67,2.31 0.00,0.00 -1.05,-0.49 -1.52,-0.70 z M 370.95,37.21 c -0.24,0.68 -0.34,1.12 -0.31,1.38 0.03,0.26 0.11,1.10 0.11,1.10 -0.25,0.20 -1.33,0.87 -2.40,0.08 0.07,-0.23 0.21,-0.70 0.24,-0.95 0.12,-0.40 -0.13,-0.69 -0.32,-0.28 -0.20,0.41 -0.65,1.79 -0.99,2.10 -0.34,0.31 -0.73,1.45 -3.30,0.29 -0.45,-0.17 -1.23,-0.75 -2.46,0.48 -2.77,2.57 -4.68,2.77 -7.79,3.88 -0.38,0.17 -1.16,0.76 -0.23,0.67 0.94,-0.09 4.87,0.00 7.01,-2.46 0.45,-0.43 0.96,-1.58 2.66,-0.92 0.94,0.36 2.68,1.85 4.58,-1.10 1.12,0.75 2.82,0.45 3.09,-0.38 0.27,-0.82 0.58,-1.64 0.58,-2.20 0.00,-0.56 -0.05,-1.30 -0.05,-1.30 -0.04,-0.44 -0.19,-1.07 -0.44,-0.40 z M 285.47,35.79 c -0.29,-2.48 -2.52,-4.78 -2.79,-5.03 -0.27,-0.25 -0.52,-0.48 -0.67,0.10 -0.15,0.58 -0.46,2.02 -0.48,2.27 1.29,1.35 2.31,3.00 2.68,3.81 0.38,0.81 -0.44,1.44 -1.27,1.85 -3.99,1.71 -7.61,0.58 -8.34,0.27 -0.59,-0.32 -1.13,-0.79 -1.60,-1.33 0.95,-0.77 1.55,-1.47 1.87,-1.91 0.60,-0.85 1.12,-3.62 1.16,-4.89 0.04,-1.27 -1.46,-3.87 -2.68,-4.62 -1.23,-0.75 -2.56,0.77 -3.14,1.60 -1.33,2.56 -1.14,5.58 -1.02,6.24 0.17,0.80 0.50,1.73 0.90,2.64 -0.72,0.36 -1.31,0.61 -1.59,0.75 0.00,0.00 -1.55,0.52 -3.93,1.22 0.63,-1.39 1.08,-3.54 1.12,-4.48 -0.31,-3.03 -2.64,-3.82 -3.51,-4.20 -3.82,-1.68 -6.94,0.41 -7.95,1.06 -1.49,1.04 -2.95,2.49 -4.27,4.00 0.36,-1.57 0.63,-4.07 0.24,-7.13 -0.26,-1.85 -3.30,-18.11 -3.30,-18.11 0.00,0.00 1.16,0.75 1.39,0.98 0.23,0.23 0.49,0.10 0.35,-0.27 -0.13,-0.37 -2.86,-6.58 -2.96,-6.81 -0.10,-0.23 -0.19,-0.40 -0.30,-0.13 -0.11,0.27 -1.02,2.69 -1.02,2.69 0.02,0.12 0.28,1.01 0.33,1.35 0.08,0.50 4.99,20.56 4.33,28.54 -2.16,2.65 -3.79,5.26 -4.28,6.06 -0.33,-0.02 -0.64,-0.04 -0.94,-0.08 -8.23,-0.98 -8.22,-8.15 -8.45,-9.74 -0.44,-3.03 -1.32,-18.84 -4.19,-28.21 -0.40,-1.29 -0.86,0.63 -1.09,1.25 -0.23,0.63 -0.10,1.25 0.20,2.28 1.65,5.48 3.36,23.29 3.50,25.05 1.01,12.60 8.98,12.58 10.28,12.65 10.17,0.56 24.23,-5.09 25.43,-5.68 0.61,-0.27 1.17,-0.56 1.67,-0.85 0.48,0.87 0.92,1.55 1.16,1.83 3.62,3.97 10.18,1.65 11.36,0.62 1.98,-1.54 1.77,-4.78 1.77,-5.63 z M 263.52,36.70 c -6.53,4.16 -13.20,5.30 -15.90,5.57 -0.39,0.03 -0.77,0.04 -1.14,0.05 0.18,-0.32 2.38,-4.18 5.85,-7.40 0.70,-0.62 3.63,-2.59 6.51,-2.40 2.88,0.19 4.39,2.14 4.92,2.81 0.53,0.67 0.12,1.08 -0.24,1.37 z M 271.74,35.89 c -0.90,-1.59 -1.40,-3.20 -1.54,-3.62 -0.25,-0.75 -0.15,-1.48 1.25,-2.68 1.39,-1.21 2.93,1.81 3.37,2.73 0.44,0.92 0.12,1.02 -0.23,1.33 -0.78,0.88 -1.83,1.63 -2.85,2.24 z" />
     </g>
</svg>
