<?xml version="1.0" encoding="UTF-8"?>
<svg version="1.1" id="Layer_1" x="0px" y="0px" width="578" height="51" viewBox="0 0 578 51"
xml:space="preserve" xmlns="http://www.w3.org/2000/svg" xmlns:svg="http://www.w3.org/2000/svg" xmlns:rdf="http://www.w3.org/1999/02/22-rdf-syntax-ns#"  xmlns:cc="http://creativecommons.org/ns#" xmlns:dc="http://purl.org/dc/elements/1.1/">
     <g>
<path d="M 215.04,31.85 c -1.92,2.63 -1.92,2.63 -1.92,2.63 -0.06,0.08 -0.05,0.20 0.03,0.25 3.27,2.38 3.27,2.38 3.27,2.38 0.08,0.06 0.19,0.04 0.25,-0.05 1.91,-2.63 1.91,-2.63 1.91,-2.63 0.06,-0.08 0.05,-0.20 -0.03,-0.25 -3.27,-2.38 -3.27,-2.38 -3.27,-2.38 -0.08,-0.06 -0.19,-0.04 -0.25,0.05 z M 247.20,19.99 c -1.92,2.63 -1.92,2.63 -1.92,2.63 -0.06,0.08 -0.05,0.20 0.03,0.25 3.27,2.38 3.27,2.38 3.27,2.38 0.08,0.06 0.19,0.04 0.25,-0.05 1.91,-2.63 1.91,-2.63 1.91,-2.63 0.06,-0.08 0.05,-0.20 -0.03,-0.25 -3.27,-2.38 -3.27,-2.38 -3.27,-2.38 -0.08,-0.06 -0.19,-0.04 -0.25,0.05 z M 259.38,18.43 c -1.92,2.63 -1.92,2.63 -1.92,2.63 -0.06,0.08 -0.05,0.20 0.03,0.25 3.27,2.38 3.27,2.38 3.27,2.38 0.08,0.06 0.19,0.04 0.25,-0.05 1.91,-2.63 1.91,-2.63 1.91,-2.63 0.06,-0.08 0.05,-0.20 -0.03,-0.25 -3.27,-2.38 -3.27,-2.38 -3.27,-2.38 -0.08,-0.06 -0.19,-0.04 -0.25,0.05 z M 304.87,34.87 c 0.39,3.09 0.69,5.88 0.73,7.37 -0.04,0.46 0.17,0.64 0.38,0.19 0.11,-0.24 0.59,-1.22 0.73,-3.80 0.11,-1.94 -0.04,-4.91 -0.60,-9.01 -0.08,-0.60 -2.95,-21.37 -2.95,-21.37 0.00,0.00 1.55,1.46 1.80,1.72 0.25,0.26 0.55,0.12 0.41,-0.30 -0.14,-0.42 -3.31,-8.10 -3.42,-8.36 -0.10,-0.27 -0.20,-0.46 -0.33,-0.15 -0.13,0.31 -1.08,2.64 -1.08,2.64 0.02,0.14 0.28,1.15 0.33,1.54 0.44,3.37 3.20,23.25 3.99,29.54 z M 298.90,31.01 c -0.58,-0.01 -1.93,0.16 -3.65,0.65 -0.25,-0.66 -0.48,-1.42 -0.67,-2.30 -0.66,-2.87 -3.23,-21.77 -3.23,-21.77 0.00,0.00 1.53,1.45 1.78,1.71 0.25,0.26 0.55,0.12 0.41,-0.30 -0.14,-0.42 -3.08,-7.44 -3.18,-7.70 -0.10,-0.27 -0.20,-0.46 -0.33,-0.15 -0.13,0.31 -1.15,2.55 -1.15,2.55 0.03,0.18 0.27,0.73 0.43,1.87 0.17,1.18 0.42,2.86 0.69,4.72 0.00,0.00 1.42,14.34 3.27,22.04 -0.42,0.16 -0.85,0.34 -1.29,0.53 -0.45,0.22 -2.31,1.00 -5.02,1.87 0.17,-0.65 0.56,-2.10 1.05,-3.48 0.66,-1.85 -0.57,-3.35 -1.41,-3.97 -4.41,-2.95 -7.89,-1.63 -9.56,-0.97 -2.14,1.14 -4.55,3.59 -6.57,5.92 0.43,-1.52 0.99,-4.17 0.62,-7.64 -0.40,-3.70 -2.64,-17.33 -2.64,-17.33 0.00,0.00 1.29,1.32 1.54,1.59 0.25,0.26 0.55,0.12 0.41,-0.30 -0.14,-0.42 -2.99,-7.51 -3.10,-7.78 -0.10,-0.27 -0.20,-0.46 -0.33,-0.15 -0.13,0.31 -1.15,2.55 -1.15,2.55 0.03,0.18 0.27,0.73 0.43,1.87 0.17,1.18 0.42,2.86 0.69,4.72 0.00,0.00 0.44,2.79 1.14,6.45 0.15,0.77 1.69,9.10 1.65,11.52 -0.04,2.17 -0.11,4.58 -0.41,5.89 -1.32,1.61 -2.36,3.00 -2.86,3.64 -0.68,-0.09 -1.36,-0.21 -2.03,-0.36 -0.31,-0.09 -0.74,-0.22 -1.23,-0.38 0.68,-0.91 1.23,-2.03 1.43,-3.38 0.62,-4.93 -1.61,-6.14 -2.86,-5.87 -1.25,0.26 -3.06,1.74 -3.94,4.91 -0.22,0.86 -0.86,3.01 0.38,4.93 -0.58,0.24 -1.18,0.45 -1.82,0.60 -0.72,0.17 -2.99,0.92 -6.03,0.13 0.57,-0.66 1.04,-1.43 1.25,-2.32 0.18,-0.68 0.92,-2.73 -0.55,-5.72 -0.31,-0.48 -1.21,-1.87 -2.68,-0.77 -1.47,1.10 -2.97,3.43 -3.28,5.10 -0.18,0.97 -0.60,2.52 0.05,3.92 -0.26,0.07 -0.53,0.14 -0.81,0.20 -0.63,0.18 -3.85,1.20 -6.14,-1.76 -0.36,-0.50 -1.47,-2.73 -1.99,-7.03 -0.08,-1.20 -0.83,-3.70 -1.29,-4.32 -0.47,-0.61 -0.94,-0.65 -1.18,-0.23 -0.24,0.42 -1.28,3.01 -1.68,3.51 -0.40,0.50 -2.21,1.99 -4.12,0.63 -0.27,-0.16 -0.76,-1.10 -0.92,-1.33 -0.16,-0.23 -0.26,-0.15 -0.31,0.03 -0.05,0.18 -0.53,2.41 -0.53,2.41 0.63,1.18 1.92,3.56 2.21,4.83 0.29,1.28 0.29,2.23 -0.88,3.27 -0.48,0.38 -6.62,6.78 -14.37,6.39 -1.45,-0.13 -8.71,-1.12 -8.65,-7.59 0.07,-1.52 0.99,-4.69 1.35,-5.64 0.08,-0.22 0.11,-0.39 0.10,-0.53 0.15,0.05 0.30,0.08 0.47,0.07 0.74,-0.04 1.67,-0.72 2.20,-3.45 0.08,-0.62 0.13,-1.11 0.17,-1.35 0.05,-0.37 -0.21,-0.79 -0.40,0.06 -0.45,1.68 -1.80,2.91 -2.98,0.76 -0.20,-0.43 -1.03,-2.39 0.04,-6.84 0.22,-0.86 0.48,-2.15 0.48,-2.15 0.24,-0.97 -0.14,-1.48 -0.49,-0.28 -0.35,1.20 -1.86,5.33 -1.33,10.07 0.09,0.83 0.55,2.23 1.38,2.86 -0.11,0.08 -0.23,0.23 -0.32,0.45 -0.36,0.86 -3.99,8.81 0.40,13.89 0.79,0.73 6.20,5.64 15.54,0.92 1.68,-0.86 8.51,-4.98 8.65,-9.01 0.10,-1.45 0.03,-3.20 0.00,-3.70 0.54,-0.17 3.14,-1.09 3.97,-3.92 0.13,-0.40 0.44,-1.20 0.70,-0.44 0.26,0.76 1.36,6.58 1.62,7.57 0.26,0.99 1.89,8.07 10.54,4.11 0.15,-0.07 0.46,-0.21 0.86,-0.43 0.41,0.18 0.87,0.35 1.40,0.49 0.59,0.22 3.78,2.05 10.56,-0.99 0.13,-0.07 0.53,-0.26 1.06,-0.59 0.18,0.09 0.37,0.19 0.57,0.28 1.03,0.42 8.10,3.83 24.07,-1.19 1.46,-0.44 5.75,-2.07 8.97,-3.12 0.27,0.78 0.55,1.38 0.83,1.73 0.56,0.75 2.44,2.91 4.98,2.64 0.62,-0.11 2.25,-0.73 2.69,-4.70 0.04,-0.71 -0.15,-3.34 -3.62,-3.63 z M 248.00,36.95 c -0.40,-0.20 -0.81,-0.42 -1.22,-0.68 -0.53,-0.32 -1.47,-1.25 -0.60,-2.31 0.87,-1.07 2.36,-3.33 3.36,-1.73 1.00,1.60 1.31,2.18 0.89,2.72 -0.27,0.34 -0.84,1.18 -2.43,2.00 z M 262.41,34.62 c -0.29,0.23 -0.79,0.61 -1.45,1.03 -0.79,-0.36 -1.52,-0.78 -1.99,-1.22 -0.21,-0.23 -0.65,-0.76 0.13,-2.02 0.78,-1.26 1.91,-2.52 3.02,-1.76 1.12,0.76 1.36,1.86 1.34,2.26 -0.02,0.40 -0.26,1.08 -1.05,1.71 z M 286.11,32.79 c -6.31,4.22 -15.31,4.65 -17.13,4.69 -0.10,-0.01 -0.21,-0.01 -0.31,-0.02 0.51,-0.80 5.05,-7.37 8.50,-8.51 2.20,-0.53 5.16,-1.32 8.99,2.38 0.44,0.48 0.75,0.92 -0.04,1.45 z M 300.45,36.11 c -0.50,0.08 -2.03,-0.06 -3.37,-1.28 -0.12,-0.11 -0.30,-0.32 -0.51,-0.61 0.43,-0.10 0.78,-0.16 0.99,-0.16 0.87,-0.02 2.34,0.02 3.25,1.38 0.15,0.35 0.14,0.60 -0.37,0.68 z M 253.73,13.69 c -0.03,0.43 0.00,1.83 0.82,2.22 0.82,0.39 2.02,0.03 2.93,-1.69 0.70,1.02 1.77,1.02 2.34,0.82 0.49,-0.18 1.03,-0.91 1.19,-1.92 0.16,-1.01 -0.10,-1.71 -0.42,-2.28 -0.42,-0.70 -0.70,-1.88 -0.70,-1.88 -0.15,-0.42 -0.26,-0.85 -0.45,-0.27 -0.19,0.58 -0.33,1.03 -0.08,1.70 0.25,0.67 0.94,2.17 1.05,2.39 0.11,0.22 0.14,0.46 -0.23,0.62 -0.38,0.16 -2.09,0.52 -2.41,-1.30 -0.32,-1.83 -0.35,-2.36 -0.51,-2.67 -0.16,-0.31 -0.31,-0.35 -0.43,-0.04 -0.12,0.31 -0.20,0.95 -0.22,1.05 -0.02,0.10 -0.02,0.18 0.05,0.29 0.07,0.11 0.75,2.15 0.44,2.72 -0.31,0.56 -1.85,1.57 -2.65,0.51 -0.38,-0.74 -0.15,-2.61 -0.15,-3.05 0.00,-0.44 -0.14,-0.59 -0.33,-0.23 -0.19,0.36 -0.29,0.59 -0.28,0.91 0.01,0.32 0.06,1.69 0.03,2.12 z M 210.71,8.60 c 0.16,0.08 0.32,0.08 0.35,-0.12 0.03,-0.20 0.20,-0.67 0.52,-0.37 0.27,0.25 1.98,1.54 3.06,4.48 0.18,0.39 0.52,0.40 0.56,-0.17 0.08,-1.41 -0.02,-3.83 0.02,-4.57 0.06,-1.04 0.34,-3.20 1.65,-2.20 0.30,0.23 0.62,0.53 0.62,0.53 0.29,0.33 0.64,0.70 0.77,0.28 0.19,-0.63 0.30,-1.65 -0.01,-2.17 -0.14,-0.23 -1.81,-2.15 -2.72,-0.67 -1.13,1.84 -1.02,4.12 -0.98,6.68 -0.22,-0.52 -1.52,-3.84 -4.92,-5.53 -0.25,-0.12 -0.70,0.19 -0.68,0.99 0.01,0.47 -0.02,1.61 0.31,1.91 0.33,0.30 1.29,0.85 1.45,0.93 z M 267.67,43.29 c -0.50,0.25 -7.70,3.02 -8.22,3.31 -0.52,0.29 -0.70,0.36 -0.81,0.74 -0.11,0.38 -0.16,0.60 -0.19,0.66 -0.11,0.25 -0.19,0.57 0.58,0.13 0.24,-0.13 7.53,-2.95 7.96,-3.19 0.43,-0.24 0.68,-0.33 0.88,-0.72 0.19,-0.39 0.24,-0.46 0.35,-0.73 0.11,-0.29 0.23,-0.60 -0.55,-0.21 z M 272.18,13.75 c 0.24,-0.13 12.43,-5.26 12.86,-5.50 0.43,-0.25 0.68,-0.33 0.88,-0.72 0.19,-0.39 0.24,-0.46 0.35,-0.73 0.11,-0.29 0.23,-0.60 -0.55,-0.21 -0.50,0.25 -12.59,5.33 -13.11,5.62 -0.52,0.29 -0.70,0.36 -0.81,0.74 -0.10,0.38 -0.16,0.60 -0.18,0.66 -0.11,0.25 -0.19,0.57 0.58,0.13 z M 253.67,43.99 c -0.50,0.25 -7.70,3.13 -8.22,3.43 -0.52,0.29 -0.70,0.36 -0.81,0.74 -0.10,0.38 -0.16,0.60 -0.18,0.66 -0.11,0.25 -0.19,0.57 0.58,0.13 0.24,-0.13 7.53,-3.06 7.96,-3.31 0.43,-0.24 0.68,-0.33 0.88,-0.72 0.19,-0.39 0.24,-0.46 0.35,-0.73 0.11,-0.29 0.23,-0.60 -0.55,-0.21 z M 211.08,19.91 c -0.13,0.50 -0.20,0.77 -0.24,0.87 -0.12,0.34 -0.28,0.69 0.76,0.17 0.32,-0.16 24.93,-11.74 25.49,-12.07 0.56,-0.33 0.90,-0.44 1.15,-0.96 0.25,-0.51 0.31,-0.60 0.45,-0.96 0.15,-0.38 0.32,-0.73 -0.72,-0.27 -0.69,0.31 -25.12,11.89 -25.83,12.23 -0.71,0.33 -0.92,0.48 -1.06,0.98 z M 236.80,14.39 c 0.19,-0.53 -0.04,-0.82 -0.30,-0.17 -0.26,0.65 -1.37,2.88 -1.20,5.50 0.04,0.61 0.44,1.79 1.36,1.82 0.47,0.00 1.08,-0.34 1.52,-1.83 0.08,-0.34 0.12,-0.61 0.15,-0.74 0.05,-0.20 -0.10,-0.44 -0.26,0.02 -0.35,0.91 -1.24,1.55 -1.92,0.33 -0.11,-0.24 -0.56,-1.35 0.27,-3.77 0.17,-0.47 0.38,-1.17 0.38,-1.17 z M 228.12,8.70 c 0.47,0.00 1.08,-0.34 1.52,-1.83 0.08,-0.34 0.12,-0.60 0.15,-0.74 0.05,-0.20 -0.10,-0.44 -0.26,0.02 -0.35,0.91 -1.24,1.55 -1.92,0.33 -0.11,-0.24 -0.56,-1.35 0.27,-3.77 0.17,-0.47 0.38,-1.17 0.38,-1.17 0.19,-0.53 -0.04,-0.82 -0.30,-0.17 -0.26,0.65 -1.37,2.88 -1.20,5.50 0.04,0.61 0.44,1.79 1.36,1.82 z M 220.43,19.94 c 0.19,-0.53 -0.04,-0.82 -0.30,-0.17 -0.26,0.65 -1.37,2.88 -1.20,5.50 0.04,0.61 0.44,1.79 1.36,1.82 0.47,0.00 1.08,-0.34 1.52,-1.83 0.08,-0.34 0.12,-0.61 0.15,-0.74 0.05,-0.20 -0.10,-0.44 -0.26,0.02 -0.35,0.91 -1.24,1.55 -1.92,0.33 -0.11,-0.24 -0.56,-1.35 0.27,-3.77 0.17,-0.47 0.38,-1.17 0.38,-1.17 z M 276.57,7.33 c 0.43,0.00 0.99,-0.31 1.38,-1.66 0.07,-0.30 0.11,-0.55 0.14,-0.67 0.04,-0.18 -0.09,-0.40 -0.23,0.02 -0.31,0.83 -1.13,1.41 -1.74,0.30 -0.10,-0.22 -0.51,-1.23 0.25,-3.42 0.15,-0.43 0.35,-1.06 0.35,-1.06 0.17,-0.48 -0.03,-0.74 -0.28,-0.15 -0.24,0.59 -1.25,2.61 -1.09,5.00 0.04,0.55 0.40,1.63 1.23,1.65 z M 297.96,21.42 c 0.43,0.00 0.99,-0.31 1.38,-1.66 0.07,-0.31 0.11,-0.55 0.14,-0.67 0.04,-0.18 -0.09,-0.40 -0.23,0.02 -0.31,0.83 -1.13,1.41 -1.74,0.30 -0.10,-0.22 -0.51,-1.22 0.25,-3.42 0.15,-0.43 0.34,-1.06 0.34,-1.06 0.17,-0.48 -0.03,-0.74 -0.28,-0.16 -0.24,0.59 -1.25,2.61 -1.09,5.00 0.04,0.55 0.40,1.63 1.23,1.65 z M 293.27,42.41 c -0.34,0.97 -1.33,1.68 -2.16,0.46 -0.14,-0.24 -0.72,-1.36 0.09,-3.92 0.16,-0.50 0.36,-1.23 0.36,-1.23 0.18,-0.56 -0.09,-0.85 -0.36,-0.16 -0.26,0.69 -1.39,3.07 -1.04,5.78 0.08,0.63 0.61,1.83 1.65,1.80 0.54,-0.03 1.21,-0.43 1.62,-1.99 0.07,-0.35 0.10,-0.64 0.13,-0.77 0.04,-0.21 -0.14,-0.45 -0.29,0.04 z M 346.57,7.03 c 0.17,0.10 0.36,0.11 0.41,-0.10 0.05,-0.21 0.29,-0.68 0.62,-0.34 0.28,0.28 2.09,1.78 3.03,4.95 0.16,0.42 0.55,0.46 0.64,-0.14 0.22,-1.47 0.34,-4.02 0.45,-4.79 0.16,-1.08 0.68,-3.32 2.06,-2.16 0.31,0.26 0.64,0.61 0.64,0.61 0.29,0.37 0.66,0.79 0.84,0.36 0.27,-0.64 0.49,-1.70 0.19,-2.28 -0.13,-0.25 -1.83,-2.41 -3.00,-0.93 -1.44,1.83 -1.53,4.23 -1.72,6.91 -0.20,-0.56 -1.35,-4.15 -5.02,-6.21 -0.27,-0.15 -0.81,0.13 -0.86,0.98 -0.03,0.49 -0.17,1.69 0.18,2.03 0.35,0.34 1.37,1.01 1.54,1.10 z M 341.06,20.27 c 0.48,0.00 1.11,-0.35 1.55,-1.87 0.08,-0.34 0.13,-0.62 0.16,-0.75 0.05,-0.21 -0.10,-0.45 -0.26,0.02 -0.35,0.93 -1.28,1.58 -1.96,0.33 -0.11,-0.25 -0.58,-1.38 0.28,-3.86 0.17,-0.48 0.39,-1.20 0.39,-1.20 0.19,-0.54 -0.04,-0.84 -0.31,-0.17 -0.27,0.66 -1.40,2.94 -1.23,5.63 0.04,0.62 0.45,1.83 1.39,1.87 z M 372.75,24.89 c -0.25,-0.27 -0.38,-0.01 -0.46,0.31 -0.09,0.32 -0.36,1.52 -0.53,2.27 0.00,0.00 0.71,1.16 0.97,1.75 0.25,0.59 -0.12,0.92 -0.86,1.01 -2.08,0.25 -3.73,-0.94 -4.30,-1.48 -0.57,-0.55 0.05,-1.52 0.51,-2.68 0.37,-0.93 -0.32,-1.04 -0.84,0.00 -1.76,4.63 -4.23,5.12 -4.88,5.30 -5.86,1.60 -5.36,-3.76 -5.34,-4.64 0.02,-0.88 -0.62,-0.55 -1.34,0.03 -2.47,1.98 -4.45,3.14 -5.52,3.62 -0.92,-1.80 -2.26,-2.93 -2.82,-3.33 -6.34,-4.63 -6.87,4.71 -6.67,5.71 0.97,3.97 7.44,1.56 8.46,1.44 1.01,-0.12 0.68,1.22 0.11,2.02 -1.41,1.97 -3.03,3.38 -4.50,4.58 -6.28,5.12 -9.43,4.72 -10.41,4.69 -6.17,-0.17 -5.60,-6.82 -5.26,-8.24 1.86,-1.57 3.45,-3.28 4.38,-5.04 0.38,-0.96 1.03,-3.16 -0.15,-5.91 -0.62,-1.21 -2.56,-4.60 -2.56,-4.60 0.00,0.00 1.43,0.04 1.57,0.04 0.14,0.00 0.41,-0.14 0.06,-0.54 -0.35,-0.40 -3.36,-3.40 -3.54,-3.65 -0.18,-0.24 -0.35,-0.42 -0.45,-0.06 -0.10,0.35 -0.36,1.88 -0.42,2.20 -0.06,0.31 -0.06,0.63 0.10,0.90 0.15,0.27 0.55,1.20 0.84,1.96 0.29,0.76 3.26,6.47 3.53,6.98 0.27,0.51 0.33,0.88 0.06,1.22 -9.53,10.05 -27.91,16.23 -28.50,16.58 -0.59,0.34 -0.43,0.61 0.56,0.43 1.48,-0.26 9.74,-1.64 12.09,-2.77 1.55,-0.75 6.97,-3.41 11.41,-6.89 -0.12,0.90 -0.24,2.22 -0.18,3.89 0.30,8.08 7.53,6.74 9.43,6.33 5.68,-1.25 12.64,-9.11 13.23,-10.69 0.58,-1.56 0.67,-2.98 0.54,-4.22 1.50,-0.81 4.71,-3.40 4.71,-3.40 0.13,3.45 2.88,4.48 3.72,4.63 3.96,0.60 5.94,-2.71 6.78,-3.78 0.72,1.89 2.45,2.26 3.34,2.43 3.41,0.68 4.08,-1.73 4.26,-2.29 1.07,-3.33 -0.86,-5.81 -1.11,-6.08 z M 344.11,31.57 c -2.03,-0.14 -1.85,-0.92 -1.57,-1.22 0.30,-0.33 2.78,-1.89 4.85,0.89 0.00,0.00 -0.86,0.50 -3.28,0.33 z M 323.37,12.30 c 0.25,-0.16 13.84,-8.02 14.32,-8.31 0.46,-0.29 0.72,-0.41 0.91,-0.85 0.18,-0.44 0.23,-0.52 0.33,-0.82 0.10,-0.32 0.21,-0.67 -0.61,-0.19 -0.53,0.31 -14.04,8.11 -14.59,8.46 -0.55,0.35 -0.74,0.44 -0.83,0.87 -0.09,0.42 -0.13,0.67 -0.16,0.73 -0.10,0.28 -0.17,0.63 0.64,0.10 z M 364.41,6.37 c 0.79,0.58 1.93,1.04 1.93,1.04 -3.66,4.49 -10.84,7.67 -12.55,9.01 -0.51,0.39 -0.44,0.61 -0.12,0.53 0.28,-0.08 5.76,-1.61 10.76,-5.90 2.29,-1.97 2.23,-2.11 2.81,-3.30 0.50,0.26 0.84,0.67 1.03,0.91 0.28,0.34 0.43,0.60 0.56,0.23 0.48,-1.33 -0.20,-2.13 -0.84,-2.54 0.00,0.00 0.67,-2.07 -0.56,-4.14 -0.21,-0.35 -1.43,-1.46 -2.85,0.74 -0.55,0.84 -0.96,2.85 -0.17,3.42 z M 365.14,4.34 c 0.73,-1.02 1.08,-0.99 1.36,-0.82 0.83,0.77 0.70,2.02 0.67,2.31 0.00,0.00 -1.05,-0.49 -1.52,-0.69 -0.47,-0.20 -0.72,-0.50 -0.50,-0.80 z M 367.17,14.30 c 0.18,-0.50 -0.03,-0.77 -0.29,-0.16 -0.25,0.61 -1.30,2.73 -1.14,5.22 0.04,0.58 0.42,1.70 1.29,1.73 0.45,0.00 1.03,-0.33 1.44,-1.74 0.07,-0.32 0.12,-0.57 0.15,-0.70 0.04,-0.19 -0.10,-0.42 -0.24,0.02 -0.33,0.86 -1.18,1.47 -1.82,0.31 -0.10,-0.23 -0.53,-1.28 0.26,-3.57 0.16,-0.44 0.36,-1.11 0.36,-1.11 z M 306.69,13.78 c 0.17,-0.05 3.05,-0.49 6.41,-3.05 1.82,-1.38 2.92,-3.74 2.92,-3.74 0.00,0.00 0.91,0.76 1.03,0.91 0.28,0.34 0.43,0.60 0.56,0.23 0.48,-1.33 -0.20,-2.13 -0.84,-2.54 0.00,0.00 0.67,-2.07 -0.56,-4.14 -0.21,-0.35 -1.43,-1.46 -2.85,0.74 -0.55,0.84 -0.96,2.85 -0.17,3.42 0.79,0.58 1.93,1.04 1.93,1.04 -3.66,4.49 -6.16,5.34 -8.30,6.60 -0.55,0.32 -0.44,0.61 -0.12,0.53 z M 314.40,4.39 c -0.47,-0.20 -0.72,-0.50 -0.50,-0.80 0.73,-1.02 1.08,-0.99 1.36,-0.82 0.83,0.77 0.70,2.03 0.67,2.31 0.00,0.00 -1.05,-0.49 -1.52,-0.69 z M 314.27,14.16 c -0.06,-0.05 -0.15,-0.03 -0.20,0.04 -1.53,2.10 -1.53,2.10 -1.53,2.10 -0.05,0.07 -0.04,0.16 0.03,0.20 2.61,1.91 2.61,1.91 2.61,1.91 0.06,0.05 0.15,0.03 0.20,-0.04 1.32,-1.81 1.32,-1.81 1.32,-1.81 2.54,1.85 2.54,1.85 2.54,1.85 0.06,0.05 0.15,0.03 0.20,-0.04 1.53,-2.10 1.53,-2.10 1.53,-2.10 0.05,-0.07 0.04,-0.16 -0.03,-0.21 -2.61,-1.91 -2.61,-1.91 -2.61,-1.91 -0.06,-0.05 -0.15,-0.03 -0.20,0.04 -1.32,1.81 -1.32,1.81 -1.32,1.81 z M 369.55,37.21 c -0.24,0.68 -0.34,1.12 -0.32,1.38 0.03,0.26 0.12,1.10 0.12,1.10 -0.25,0.20 -1.33,0.87 -2.40,0.08 0.07,-0.23 0.21,-0.70 0.24,-0.95 0.12,-0.40 -0.13,-0.69 -0.32,-0.28 -0.20,0.41 -0.65,1.79 -0.99,2.10 -0.34,0.31 -0.73,1.45 -3.30,0.29 -0.45,-0.17 -1.23,-0.75 -2.46,0.48 -2.77,2.57 -4.68,2.78 -7.79,3.88 -0.38,0.17 -1.16,0.77 -0.23,0.67 0.94,-0.09 4.87,0.00 7.01,-2.46 0.45,-0.43 0.96,-1.58 2.66,-0.92 0.94,0.36 2.68,1.85 4.58,-1.10 1.12,0.75 2.82,0.45 3.09,-0.38 0.27,-0.82 0.58,-1.64 0.58,-2.20 0.00,-0.56 -0.05,-1.30 -0.05,-1.30 -0.04,-0.44 -0.19,-1.07 -0.44,-0.40 z M 313.64,23.91 c 0.00,0.00 1.25,-0.31 1.47,-0.38 0.22,-0.06 0.34,-0.35 -0.05,-0.55 -0.39,-0.20 -4.09,-1.67 -4.37,-1.79 -0.28,-0.11 -0.38,-0.24 -0.41,0.06 -0.02,0.30 -0.07,2.73 -0.07,2.73 0.00,0.00 -0.06,0.17 0.27,0.35 0.32,0.18 0.64,0.58 0.90,0.84 0.26,0.26 3.70,2.98 3.87,3.07 0.00,0.00 -1.72,3.02 -1.94,5.38 -0.22,2.36 0.04,5.63 3.27,4.57 0.87,-0.25 4.49,-1.69 5.30,-4.21 0.26,-0.93 1.01,-2.61 -0.21,-4.31 -0.70,-1.00 -3.53,-2.69 -3.53,-2.69 0.00,0.00 2.17,-3.00 2.38,-3.37 0.21,-0.37 1.00,-2.69 1.09,-3.26 0.09,-0.56 0.13,-0.84 -0.29,-0.32 -0.42,0.52 -4.63,6.05 -4.63,6.05 z M 320.60,32.79 c -1.20,0.99 -3.72,2.29 -4.43,2.36 -0.71,0.07 -2.59,-0.28 -1.77,-2.21 0.28,-0.62 2.16,-3.84 2.16,-3.84 0.70,0.39 5.24,2.70 4.04,3.69 z M 245.12,6.01 c 0.16,0.09 0.33,0.10 0.37,-0.09 0.05,-0.19 0.26,-0.63 0.56,-0.31 0.22,0.23 2.01,1.80 2.56,3.95 0.46,1.87 -4.15,5.65 -4.39,5.82 -0.43,0.31 -0.29,0.51 -0.09,0.40 0.20,-0.11 0.40,-0.14 2.76,-1.70 1.90,-1.26 2.30,-2.71 2.46,-3.83 0.02,-0.05 0.04,-0.12 0.05,-0.19 0.20,-1.36 0.30,-3.72 0.41,-4.43 0.15,-1.00 0.62,-3.08 1.88,-2.00 0.28,0.25 0.59,0.57 0.59,0.57 0.27,0.34 0.60,0.73 0.76,0.34 0.25,-0.59 0.44,-1.58 0.17,-2.11 -0.12,-0.24 -1.67,-2.23 -2.73,-0.86 -1.31,1.69 -1.39,3.92 -1.57,6.40 -0.19,-0.52 -1.23,-3.85 -4.58,-5.75 -0.24,-0.14 -0.74,0.12 -0.78,0.91 -0.03,0.46 -0.16,1.56 0.16,1.88 0.32,0.31 1.25,0.93 1.41,1.02 z M 284.66,11.60 c -0.42,0.60 -0.76,2.06 -0.20,2.50 0.56,0.44 1.40,0.80 1.40,0.80 -2.77,3.21 -6.59,6.19 -8.18,7.07 -0.41,0.22 -0.34,0.44 -0.10,0.38 0.12,-0.03 2.21,-0.73 4.75,-2.51 2.13,-1.49 4.19,-4.68 4.19,-4.68 0.00,0.00 0.65,0.57 0.74,0.69 0.20,0.26 0.30,0.44 0.40,0.18 0.38,-0.96 -0.10,-1.56 -0.57,-1.88 0.00,0.00 0.53,-1.50 -0.33,-3.04 -0.14,-0.26 -1.02,-1.10 -2.10,0.48 z M 286.49,13.76 c 0.00,0.00 -0.76,-0.38 -1.10,-0.54 -0.34,-0.16 -0.52,-0.38 -0.35,-0.59 0.55,-0.73 0.81,-0.70 1.01,-0.57 0.59,0.58 0.47,1.50 0.44,1.71 z M 237.58,44.09 c -0.06,-0.05 -0.15,-0.03 -0.20,0.04 -1.32,1.81 -1.32,1.81 -1.32,1.81 -2.54,-1.85 -2.54,-1.85 -2.54,-1.85 -0.06,-0.05 -0.15,-0.03 -0.20,0.04 -1.53,2.10 -1.53,2.10 -1.53,2.10 -0.05,0.07 -0.04,0.16 0.03,0.21 2.61,1.91 2.61,1.91 2.61,1.91 0.06,0.05 0.15,0.03 0.20,-0.04 1.32,-1.81 1.32,-1.81 1.32,-1.81 2.54,1.85 2.54,1.85 2.54,1.85 0.06,0.05 0.15,0.03 0.20,-0.04 1.53,-2.10 1.53,-2.10 1.53,-2.10 0.05,-0.07 0.04,-0.16 -0.03,-0.20 z" />
     </g>
</svg>
