<?xml version="1.0" encoding="UTF-8"?>
<svg version="1.1" id="Layer_1" x="0px" y="0px" width="578" height="51" viewBox="0 0 578 51"
xml:space="preserve" xmlns="http://www.w3.org/2000/svg" xmlns:svg="http://www.w3.org/2000/svg" xmlns:rdf="http://www.w3.org/1999/02/22-rdf-syntax-ns#"  xmlns:cc="http://creativecommons.org/ns#" xmlns:dc="http://purl.org/dc/elements/1.1/">
     <g>
<path d="M 273.07,14.53 c -1.92,2.63 -1.92,2.63 -1.92,2.63 -0.06,0.08 -0.05,0.20 0.03,0.25 3.27,2.38 3.27,2.38 3.27,2.38 0.08,0.06 0.19,0.04 0.25,-0.05 1.91,-2.63 1.91,-2.63 1.91,-2.63 0.06,-0.08 0.05,-0.20 -0.03,-0.26 -3.27,-2.38 -3.27,-2.38 -3.27,-2.38 -0.08,-0.06 -0.19,-0.04 -0.25,0.05 z M 305.17,42.24 c -0.04,0.46 0.17,0.64 0.38,0.19 0.11,-0.24 0.59,-1.22 0.73,-3.80 0.11,-1.94 -0.04,-4.91 -0.60,-9.01 -0.08,-0.60 -2.95,-21.37 -2.95,-21.37 0.00,0.00 1.55,1.46 1.80,1.72 0.25,0.26 0.55,0.12 0.41,-0.30 -0.14,-0.42 -3.31,-8.09 -3.42,-8.36 -0.10,-0.27 -0.20,-0.46 -0.33,-0.15 -0.13,0.31 -1.08,2.64 -1.08,2.64 0.02,0.14 0.28,1.16 0.33,1.54 0.44,3.37 3.20,23.25 3.99,29.54 0.39,3.09 0.69,5.88 0.73,7.37 z M 294.87,8.25 c 0.00,0.00 1.55,1.46 1.80,1.72 0.25,0.26 0.55,0.12 0.41,-0.30 -0.14,-0.42 -3.32,-8.09 -3.42,-8.36 -0.10,-0.27 -0.20,-0.46 -0.33,-0.15 -0.13,0.31 -1.15,2.55 -1.15,2.55 0.03,0.18 0.27,0.73 0.43,1.87 0.17,1.18 0.42,2.86 0.69,4.72 0.00,0.00 4.03,22.07 3.42,24.02 -0.08,0.26 -0.21,0.61 -0.39,1.01 0.03,-1.73 -0.29,-4.31 -1.98,-6.49 -2.26,-2.92 -6.62,-6.46 -7.59,-7.40 -0.72,-0.70 -4.63,-4.24 -6.68,-6.87 -0.92,-1.21 -2.00,-2.82 -2.00,-2.82 0.65,0.24 1.45,0.46 1.88,0.60 0.43,0.14 0.94,0.00 0.29,-0.60 -0.65,-0.60 -5.62,-4.22 -6.00,-4.65 -0.39,-0.43 -0.43,-0.36 -0.46,-0.02 -0.02,0.34 0.00,2.12 0.02,2.68 0.02,0.55 0.14,0.75 0.39,0.92 0.24,0.17 0.63,0.43 0.89,0.84 0.27,0.41 4.92,7.23 8.99,10.78 0.53,0.54 7.90,5.94 10.67,11.25 0.57,1.08 0.80,2.13 0.86,3.16 -1.66,2.73 -5.45,6.86 -14.11,10.40 -0.72,0.34 -0.61,0.84 0.89,0.39 1.50,-0.45 11.13,-1.71 14.36,-8.90 0.78,-1.73 2.25,-5.31 0.74,-13.33 -0.39,-3.29 -2.63,-16.97 -2.63,-16.97 z M 264.74,21.41 c -1.53,2.10 -1.53,2.10 -1.53,2.10 -0.05,0.07 -0.04,0.16 0.03,0.20 2.61,1.91 2.61,1.91 2.61,1.91 0.06,0.05 0.15,0.03 0.20,-0.04 1.53,-2.10 1.53,-2.10 1.53,-2.10 0.05,-0.07 0.04,-0.16 -0.03,-0.20 -2.62,-1.91 -2.62,-1.91 -2.62,-1.91 -0.06,-0.05 -0.15,-0.03 -0.20,0.04 z M 251.66,24.08 c -1.32,1.81 -1.32,1.81 -1.32,1.81 -2.54,-1.85 -2.54,-1.85 -2.54,-1.85 -0.06,-0.05 -0.15,-0.03 -0.20,0.04 -1.53,2.10 -1.53,2.10 -1.53,2.10 -0.05,0.07 -0.04,0.16 0.03,0.20 2.61,1.91 2.61,1.91 2.61,1.91 0.06,0.05 0.15,0.03 0.20,-0.04 1.32,-1.81 1.32,-1.81 1.32,-1.81 2.54,1.85 2.54,1.85 2.54,1.85 0.06,0.05 0.15,0.03 0.20,-0.04 1.53,-2.10 1.53,-2.10 1.53,-2.10 0.05,-0.07 0.04,-0.16 -0.03,-0.21 -2.62,-1.91 -2.62,-1.91 -2.62,-1.91 -0.06,-0.05 -0.15,-0.03 -0.20,0.04 z M 267.83,25.72 c -1.32,1.81 -1.32,1.81 -1.32,1.81 -2.54,-1.85 -2.54,-1.85 -2.54,-1.85 -0.06,-0.05 -0.15,-0.03 -0.20,0.04 -1.53,2.10 -1.53,2.10 -1.53,2.10 -0.05,0.07 -0.04,0.16 0.03,0.20 2.61,1.91 2.61,1.91 2.61,1.91 0.06,0.05 0.15,0.03 0.20,-0.04 1.32,-1.81 1.32,-1.81 1.32,-1.81 2.54,1.85 2.54,1.85 2.54,1.85 0.06,0.05 0.15,0.03 0.20,-0.04 1.53,-2.10 1.53,-2.10 1.53,-2.10 0.05,-0.07 0.04,-0.16 -0.03,-0.20 -2.61,-1.91 -2.61,-1.91 -2.61,-1.91 -0.06,-0.05 -0.15,-0.03 -0.20,0.04 z M 222.84,20.30 c 0.06,0.05 0.15,0.03 0.20,-0.04 1.32,-1.81 1.32,-1.81 1.32,-1.81 2.54,1.85 2.54,1.85 2.54,1.85 0.06,0.05 0.15,0.03 0.20,-0.04 1.53,-2.10 1.53,-2.10 1.53,-2.10 0.05,-0.07 0.04,-0.16 -0.03,-0.20 -2.61,-1.91 -2.61,-1.91 -2.61,-1.91 -0.06,-0.05 -0.15,-0.03 -0.20,0.04 -1.32,1.81 -1.32,1.81 -1.32,1.81 -2.54,-1.85 -2.54,-1.85 -2.54,-1.85 -0.06,-0.05 -0.15,-0.03 -0.20,0.04 -1.53,2.10 -1.53,2.10 -1.53,2.10 -0.05,0.07 -0.04,0.16 0.03,0.21 z M 272.41,42.85 c -0.55,0.28 -9.24,3.47 -9.81,3.79 -0.57,0.32 -0.77,0.40 -0.88,0.81 -0.11,0.41 -0.17,0.66 -0.20,0.72 -0.12,0.28 -0.21,0.62 0.63,0.14 0.26,-0.15 9.06,-3.39 9.52,-3.66 0.47,-0.27 0.75,-0.36 0.96,-0.79 0.21,-0.42 0.26,-0.50 0.38,-0.80 0.13,-0.32 0.25,-0.65 -0.60,-0.23 z M 234.73,42.29 c -0.58,0.19 -10.20,3.77 -10.84,4.03 -0.60,0.24 -0.77,0.39 -0.88,0.81 -0.11,0.42 -0.17,0.66 -0.20,0.72 -0.12,0.28 -0.26,0.51 0.63,0.14 0.43,-0.18 9.95,-3.63 10.56,-3.90 0.49,-0.22 0.75,-0.36 0.96,-0.79 0.21,-0.42 0.26,-0.50 0.38,-0.80 0.12,-0.32 0.27,-0.51 -0.60,-0.22 z M 240.31,17.92 c 0.29,-0.17 22.64,-12.29 23.14,-12.62 0.51,-0.33 0.81,-0.46 1.02,-0.95 0.21,-0.49 0.26,-0.58 0.37,-0.92 0.12,-0.36 0.26,-0.70 -0.69,-0.21 -0.63,0.33 -22.80,12.43 -23.45,12.79 -0.64,0.35 -0.83,0.50 -0.93,0.97 -0.10,0.47 -0.15,0.73 -0.18,0.83 -0.09,0.32 -0.22,0.66 0.72,0.12 z M 287.54,29.77 c 0.18,-0.51 -0.04,-0.80 -0.30,-0.17 -0.26,0.63 -1.33,2.80 -1.17,5.35 0.04,0.59 0.43,1.74 1.32,1.77 0.46,0.00 1.05,-0.34 1.48,-1.78 0.07,-0.33 0.12,-0.59 0.15,-0.72 0.05,-0.20 -0.10,-0.43 -0.25,0.02 -0.34,0.88 -1.21,1.50 -1.86,0.32 -0.11,-0.24 -0.55,-1.31 0.26,-3.66 0.16,-0.46 0.37,-1.14 0.37,-1.14 z M 268.93,10.72 c 0.46,0.00 1.05,-0.33 1.48,-1.78 0.07,-0.33 0.12,-0.59 0.15,-0.72 0.04,-0.20 -0.10,-0.43 -0.25,0.02 -0.34,0.88 -1.21,1.50 -1.86,0.32 -0.11,-0.24 -0.55,-1.31 0.26,-3.66 0.16,-0.46 0.37,-1.14 0.37,-1.14 0.18,-0.51 -0.04,-0.80 -0.30,-0.17 -0.26,0.63 -1.33,2.80 -1.17,5.35 0.04,0.59 0.43,1.74 1.32,1.77 z M 285.18,9.65 c 0.46,0.00 1.05,-0.33 1.48,-1.78 0.07,-0.33 0.12,-0.59 0.15,-0.72 0.04,-0.20 -0.10,-0.43 -0.25,0.02 -0.34,0.88 -1.21,1.50 -1.87,0.32 -0.11,-0.24 -0.55,-1.31 0.26,-3.66 0.16,-0.46 0.37,-1.14 0.37,-1.14 0.18,-0.51 -0.04,-0.79 -0.29,-0.17 -0.26,0.63 -1.33,2.80 -1.17,5.35 0.04,0.59 0.43,1.74 1.32,1.77 z M 257.43,14.34 c 0.18,-0.51 -0.04,-0.79 -0.29,-0.17 -0.26,0.63 -1.33,2.80 -1.17,5.35 0.04,0.59 0.43,1.74 1.32,1.77 0.46,0.00 1.05,-0.34 1.48,-1.78 0.07,-0.33 0.12,-0.59 0.15,-0.72 0.04,-0.20 -0.10,-0.43 -0.25,0.02 -0.34,0.89 -1.21,1.50 -1.87,0.32 -0.11,-0.24 -0.55,-1.31 0.26,-3.66 0.16,-0.46 0.37,-1.14 0.37,-1.14 z M 243.82,9.31 c 0.43,0.00 0.98,-0.31 1.38,-1.66 0.07,-0.30 0.11,-0.55 0.14,-0.67 0.04,-0.18 -0.09,-0.40 -0.23,0.02 -0.31,0.83 -1.13,1.41 -1.74,0.30 -0.10,-0.22 -0.51,-1.22 0.25,-3.42 0.15,-0.43 0.35,-1.06 0.35,-1.06 0.17,-0.48 -0.03,-0.74 -0.27,-0.15 -0.24,0.59 -1.25,2.61 -1.09,5.00 0.04,0.55 0.40,1.63 1.23,1.65 z M 216.30,30.50 c 0.18,-0.51 -0.04,-0.79 -0.29,-0.17 -0.26,0.63 -1.33,2.80 -1.17,5.35 0.04,0.59 0.43,1.74 1.32,1.77 0.46,0.00 1.05,-0.33 1.48,-1.78 0.07,-0.33 0.12,-0.59 0.15,-0.72 0.05,-0.20 -0.10,-0.43 -0.25,0.02 -0.34,0.88 -1.21,1.50 -1.87,0.32 -0.11,-0.24 -0.55,-1.31 0.26,-3.66 0.16,-0.46 0.37,-1.14 0.37,-1.14 z M 223.73,12.87 c 0.59,-0.04 1.33,-0.47 1.77,-2.18 0.07,-0.39 0.11,-0.69 0.14,-0.85 0.04,-0.23 -0.15,-0.49 -0.32,0.04 -0.37,1.06 -1.45,1.84 -2.36,0.51 -0.15,-0.27 -0.79,-1.49 0.09,-4.29 0.18,-0.54 0.40,-1.35 0.40,-1.35 0.20,-0.61 -0.10,-0.92 -0.39,-0.17 -0.29,0.75 -1.52,3.36 -1.14,6.32 0.09,0.69 0.66,2.00 1.80,1.97 z M 210.12,8.85 c 0.17,0.08 0.35,0.08 0.38,-0.12 0.04,-0.20 0.23,-0.66 0.57,-0.36 0.25,0.22 1.65,1.24 2.73,3.44 0.93,1.76 -1.25,4.81 -1.18,8.06 0.01,0.74 0.39,2.19 1.40,2.28 0.52,0.02 1.22,-0.36 1.79,-2.14 0.10,-0.40 0.17,-0.73 0.21,-0.89 0.06,-0.24 -0.09,-0.54 -0.28,0.01 -0.44,1.08 -1.47,1.81 -2.14,0.29 -0.11,-0.30 -0.58,-1.68 0.52,-4.55 0.93,-2.42 0.82,-6.01 0.88,-6.75 0.09,-1.04 0.44,-3.20 1.82,-2.18 0.31,0.23 0.65,0.54 0.65,0.54 0.30,0.33 0.67,0.71 0.82,0.29 0.22,-0.62 0.36,-1.65 0.04,-2.17 -0.14,-0.23 -1.89,-2.18 -2.90,-0.70 -1.25,1.83 -1.19,4.11 -1.20,6.67 -0.23,-0.52 -1.54,-3.86 -5.16,-5.58 -0.26,-0.13 -0.76,0.18 -0.75,0.98 0.00,0.47 -0.06,1.61 0.30,1.92 0.35,0.30 1.37,0.87 1.54,0.95 z M 340.62,20.28 c 0.48,0.00 1.11,-0.35 1.55,-1.87 0.08,-0.34 0.13,-0.62 0.16,-0.75 0.05,-0.21 -0.10,-0.45 -0.26,0.02 -0.35,0.93 -1.28,1.58 -1.96,0.33 -0.11,-0.25 -0.58,-1.38 0.28,-3.86 0.17,-0.48 0.39,-1.20 0.39,-1.20 0.19,-0.54 -0.04,-0.84 -0.31,-0.17 -0.27,0.66 -1.40,2.95 -1.23,5.64 0.04,0.62 0.45,1.83 1.39,1.87 z M 346.13,7.03 c 0.17,0.09 0.36,0.11 0.41,-0.10 0.05,-0.21 0.29,-0.68 0.62,-0.34 0.28,0.28 2.09,1.78 3.03,4.95 0.16,0.42 0.55,0.46 0.64,-0.14 0.22,-1.47 0.34,-4.02 0.45,-4.79 0.16,-1.09 0.68,-3.32 2.06,-2.16 0.31,0.26 0.64,0.61 0.64,0.61 0.29,0.37 0.66,0.79 0.84,0.36 0.27,-0.64 0.49,-1.70 0.19,-2.28 -0.13,-0.26 -1.83,-2.41 -3.00,-0.93 -1.44,1.83 -1.53,4.23 -1.72,6.91 -0.20,-0.56 -1.35,-4.16 -5.02,-6.21 -0.27,-0.15 -0.81,0.13 -0.86,0.98 -0.03,0.49 -0.17,1.69 0.18,2.03 0.35,0.34 1.37,1.01 1.54,1.10 z M 363.98,6.37 c 0.79,0.58 1.93,1.04 1.93,1.04 -3.66,4.48 -10.84,7.67 -12.55,9.01 -0.51,0.38 -0.44,0.61 -0.12,0.53 0.28,-0.08 5.76,-1.61 10.76,-5.90 2.29,-1.97 2.23,-2.11 2.81,-3.31 0.50,0.26 0.84,0.67 1.03,0.91 0.28,0.34 0.43,0.60 0.56,0.23 0.48,-1.33 -0.20,-2.13 -0.84,-2.54 0.00,0.00 0.67,-2.07 -0.56,-4.14 -0.21,-0.35 -1.43,-1.46 -2.85,0.74 -0.55,0.84 -0.96,2.85 -0.17,3.42 z M 364.70,4.34 c 0.73,-1.02 1.08,-0.99 1.36,-0.82 0.83,0.77 0.70,2.02 0.67,2.31 0.00,0.00 -1.05,-0.49 -1.52,-0.69 -0.47,-0.20 -0.72,-0.50 -0.50,-0.80 z M 366.73,14.30 c 0.18,-0.50 -0.03,-0.77 -0.29,-0.16 -0.25,0.61 -1.30,2.73 -1.14,5.22 0.04,0.58 0.42,1.70 1.29,1.73 0.45,0.00 1.03,-0.33 1.44,-1.73 0.07,-0.32 0.12,-0.57 0.15,-0.70 0.04,-0.19 -0.10,-0.42 -0.24,0.02 -0.33,0.86 -1.18,1.47 -1.82,0.31 -0.10,-0.23 -0.53,-1.28 0.26,-3.57 0.16,-0.44 0.36,-1.11 0.36,-1.11 z M 372.31,24.89 c -0.25,-0.28 -0.38,-0.01 -0.46,0.31 -0.09,0.32 -0.36,1.52 -0.54,2.27 0.00,0.00 0.71,1.16 0.97,1.75 0.25,0.59 -0.12,0.92 -0.86,1.01 -2.08,0.25 -3.73,-0.94 -4.30,-1.48 -0.57,-0.55 0.05,-1.52 0.51,-2.68 0.37,-0.93 -0.32,-1.04 -0.84,0.00 -1.76,4.63 -4.23,5.13 -4.88,5.30 -5.86,1.60 -5.36,-3.76 -5.33,-4.64 0.02,-0.88 -0.62,-0.55 -1.34,0.03 -2.47,1.98 -4.45,3.14 -5.52,3.62 -0.92,-1.80 -2.26,-2.93 -2.82,-3.34 -6.34,-4.63 -6.87,4.71 -6.67,5.71 0.97,3.97 7.44,1.56 8.46,1.44 1.01,-0.12 0.68,1.22 0.11,2.02 -1.41,1.97 -3.03,3.38 -4.50,4.57 -6.28,5.13 -9.43,4.72 -10.41,4.69 -6.17,-0.17 -5.60,-6.82 -5.26,-8.24 1.86,-1.57 3.45,-3.28 4.38,-5.04 0.38,-0.96 1.03,-3.16 -0.15,-5.91 -0.62,-1.21 -2.56,-4.60 -2.56,-4.60 0.00,0.00 1.43,0.04 1.57,0.04 0.14,0.00 0.41,-0.14 0.06,-0.54 -0.35,-0.40 -3.36,-3.41 -3.54,-3.65 -0.18,-0.24 -0.35,-0.41 -0.45,-0.06 -0.10,0.36 -0.36,1.88 -0.42,2.20 -0.06,0.31 -0.06,0.63 0.10,0.90 0.15,0.27 0.55,1.20 0.84,1.96 0.29,0.76 3.26,6.47 3.53,6.98 0.27,0.51 0.33,0.88 0.06,1.22 -9.53,10.05 -27.91,16.23 -28.50,16.58 -0.59,0.34 -0.43,0.61 0.56,0.43 1.48,-0.26 9.74,-1.64 12.09,-2.78 1.55,-0.75 6.98,-3.41 11.41,-6.89 -0.12,0.90 -0.24,2.22 -0.18,3.89 0.30,8.08 7.53,6.74 9.43,6.33 5.68,-1.25 12.64,-9.11 13.23,-10.68 0.58,-1.56 0.67,-2.98 0.54,-4.22 1.50,-0.81 4.71,-3.40 4.71,-3.40 0.13,3.45 2.87,4.48 3.72,4.63 3.96,0.60 5.94,-2.70 6.78,-3.78 0.72,1.89 2.45,2.26 3.34,2.43 3.41,0.68 4.08,-1.73 4.26,-2.29 1.07,-3.33 -0.86,-5.81 -1.11,-6.08 z M 343.68,31.57 c -2.03,-0.14 -1.85,-0.92 -1.57,-1.22 0.30,-0.33 2.78,-1.89 4.85,0.89 0.00,0.00 -0.86,0.50 -3.28,0.33 z M 322.93,12.30 c 0.25,-0.16 13.84,-8.02 14.32,-8.31 0.46,-0.29 0.72,-0.41 0.91,-0.85 0.18,-0.44 0.23,-0.51 0.33,-0.82 0.10,-0.32 0.21,-0.67 -0.61,-0.19 -0.53,0.31 -14.04,8.11 -14.59,8.46 -0.55,0.35 -0.74,0.44 -0.83,0.87 -0.09,0.42 -0.13,0.67 -0.16,0.73 -0.10,0.28 -0.17,0.63 0.64,0.10 z M 306.25,13.78 c 0.17,-0.04 3.05,-0.49 6.41,-3.05 1.82,-1.38 2.92,-3.74 2.92,-3.74 0.00,0.00 0.91,0.76 1.03,0.91 0.28,0.34 0.43,0.60 0.56,0.23 0.48,-1.33 -0.20,-2.13 -0.84,-2.54 0.00,0.00 0.67,-2.07 -0.56,-4.14 -0.21,-0.35 -1.43,-1.46 -2.85,0.74 -0.55,0.84 -0.96,2.85 -0.17,3.42 0.79,0.58 1.93,1.04 1.93,1.04 -3.66,4.48 -6.16,5.34 -8.30,6.59 -0.55,0.32 -0.44,0.61 -0.12,0.53 z M 313.97,4.39 c -0.47,-0.20 -0.72,-0.50 -0.50,-0.80 0.73,-1.02 1.08,-0.99 1.36,-0.82 0.82,0.77 0.70,2.03 0.67,2.31 0.00,0.00 -1.05,-0.49 -1.52,-0.69 z M 369.11,37.21 c -0.24,0.68 -0.34,1.12 -0.32,1.38 0.03,0.26 0.12,1.09 0.12,1.09 -0.25,0.20 -1.33,0.87 -2.40,0.08 0.07,-0.23 0.21,-0.70 0.24,-0.95 0.12,-0.40 -0.13,-0.69 -0.32,-0.28 -0.20,0.41 -0.65,1.79 -0.99,2.10 -0.34,0.31 -0.73,1.45 -3.30,0.29 -0.45,-0.17 -1.23,-0.75 -2.46,0.48 -2.77,2.57 -4.68,2.77 -7.79,3.88 -0.37,0.17 -1.16,0.76 -0.23,0.67 0.94,-0.09 4.87,0.00 7.01,-2.46 0.45,-0.43 0.96,-1.58 2.66,-0.92 0.94,0.36 2.68,1.85 4.58,-1.10 1.12,0.75 2.82,0.45 3.09,-0.38 0.27,-0.82 0.58,-1.64 0.58,-2.20 0.00,-0.56 -0.05,-1.30 -0.05,-1.30 -0.04,-0.44 -0.19,-1.07 -0.44,-0.40 z M 313.83,14.16 c -0.06,-0.05 -0.15,-0.03 -0.20,0.04 -1.53,2.10 -1.53,2.10 -1.53,2.10 -0.05,0.07 -0.04,0.16 0.03,0.20 2.61,1.91 2.61,1.91 2.61,1.91 0.06,0.05 0.15,0.03 0.20,-0.04 1.32,-1.81 1.32,-1.81 1.32,-1.81 2.54,1.85 2.54,1.85 2.54,1.85 0.06,0.05 0.15,0.03 0.20,-0.04 1.53,-2.10 1.53,-2.10 1.53,-2.10 0.05,-0.07 0.04,-0.16 -0.03,-0.20 -2.61,-1.91 -2.61,-1.91 -2.61,-1.91 -0.06,-0.05 -0.15,-0.03 -0.20,0.04 -1.32,1.81 -1.32,1.81 -1.32,1.81 z M 313.21,23.91 c 0.00,0.00 1.25,-0.31 1.47,-0.38 0.22,-0.06 0.34,-0.35 -0.05,-0.55 -0.39,-0.20 -4.09,-1.67 -4.37,-1.79 -0.28,-0.11 -0.38,-0.24 -0.41,0.06 -0.02,0.30 -0.07,2.73 -0.07,2.73 0.00,0.00 -0.06,0.17 0.27,0.35 0.32,0.18 0.64,0.58 0.90,0.84 0.26,0.26 3.70,2.98 3.87,3.07 0.00,0.00 -1.72,3.02 -1.94,5.38 -0.22,2.36 0.04,5.63 3.27,4.57 0.87,-0.25 4.49,-1.69 5.30,-4.21 0.26,-0.93 1.01,-2.61 -0.21,-4.31 -0.70,-1.00 -3.53,-2.69 -3.53,-2.69 0.00,0.00 2.17,-3.00 2.38,-3.37 0.21,-0.37 1.00,-2.69 1.09,-3.26 0.09,-0.56 0.13,-0.84 -0.29,-0.32 -0.42,0.52 -4.63,6.05 -4.63,6.05 z M 320.16,32.79 c -1.20,0.99 -3.72,2.29 -4.43,2.36 -0.71,0.07 -2.59,-0.28 -1.77,-2.20 0.28,-0.62 2.16,-3.84 2.16,-3.84 0.70,0.39 5.24,2.70 4.04,3.69 z M 230.70,28.08 c -3.18,-7.74 -7.32,-4.88 -8.40,-3.68 -1.35,1.52 -2.87,6.01 0.24,6.60 3.11,0.59 6.85,-0.24 7.90,2.43 0.13,0.32 0.07,1.57 -3.32,3.76 -1.07,0.69 -9.67,6.77 -16.67,5.02 -1.44,-0.36 -7.95,-2.73 -4.37,-12.96 0.10,-0.28 0.15,-0.54 0.15,-0.73 0.62,-0.25 1.33,-1.11 1.87,-3.35 0.12,-0.63 0.20,-1.14 0.25,-1.39 0.07,-0.38 -0.15,-0.83 -0.38,0.04 -0.54,1.72 -1.90,2.91 -2.89,0.59 -0.16,-0.46 -0.82,-2.56 0.48,-7.13 0.26,-0.89 0.59,-2.21 0.59,-2.21 0.29,-1.00 -0.04,-1.55 -0.45,-0.33 -0.41,1.22 -2.12,5.43 -1.92,10.41 0.05,1.10 0.58,3.20 1.83,3.44 -0.05,0.06 -0.10,0.13 -0.15,0.21 -0.77,1.19 -3.90,9.61 -0.11,13.84 7.93,8.82 22.93,-3.38 22.93,-3.38 0.79,-0.72 5.46,-3.75 2.41,-11.18 z M 226.06,28.44 c -0.94,0.06 -1.47,0.22 -2.52,-0.38 -0.83,-0.47 -0.37,-1.62 0.45,-1.81 2.33,-0.53 4.17,2.42 4.17,2.42 -0.16,-0.09 -1.15,-0.29 -2.09,-0.23 z M 281.39,33.34 c -0.41,-1.34 -1.65,-3.40 -2.18,-4.12 -0.53,-0.72 -1.44,-2.78 -1.61,-3.21 0.00,0.00 1.44,0.31 1.68,0.41 0.24,0.10 0.29,-0.22 -0.10,-0.58 -0.38,-0.36 -2.90,-3.00 -3.26,-3.36 -0.36,-0.36 -0.34,-0.07 -0.41,0.17 -0.07,0.24 -0.41,1.46 -0.45,2.09 -0.05,0.62 1.89,4.70 2.71,6.14 0.81,1.44 2.23,3.67 2.78,4.99 0.24,0.60 -0.15,0.95 -0.69,1.10 -2.07,0.56 -3.50,-0.10 -4.24,-0.58 -0.74,-0.48 -0.96,-1.08 -0.77,-2.11 0.19,-1.03 -0.50,-0.46 -0.65,0.02 -0.72,3.14 -2.06,3.96 -2.76,4.07 -2.06,0.17 -2.28,-1.49 -2.35,-1.75 -0.07,-0.26 0.34,-0.96 0.55,-1.41 0.22,-0.46 -0.19,-0.50 -0.50,-0.10 -0.31,0.41 -0.57,0.84 -1.15,1.61 -3.93,4.72 -6.62,1.61 -6.95,1.08 -0.34,-0.53 0.00,-1.13 0.19,-1.65 0.19,-0.53 -0.12,-0.53 -0.65,0.02 -0.53,0.55 -1.05,1.34 -1.68,1.92 -2.47,1.68 -4.80,1.89 -6.68,1.56 0.62,-0.86 0.91,-1.68 1.10,-2.42 1.02,-3.56 0.07,-5.02 -1.06,-6.37 -1.12,-1.35 -2.26,-0.64 -3.14,0.36 -2.13,2.44 -2.90,5.61 -2.80,6.83 0.01,0.99 0.23,1.74 0.56,2.34 -0.92,0.35 -1.67,0.55 -2.01,0.62 0.00,0.00 -4.36,1.14 -6.07,-3.02 -0.88,-2.14 -1.24,-4.92 -1.35,-5.82 -0.18,-1.45 -1.41,-21.25 -4.00,-28.57 -0.31,-0.86 -0.59,0.07 -0.86,0.89 -0.26,0.83 -0.69,1.12 -0.40,2.08 2.11,6.73 3.66,23.59 3.76,25.28 0.44,7.06 1.95,9.56 2.61,10.43 3.26,4.33 8.53,1.16 9.54,0.63 0.44,-0.23 0.85,-0.47 1.21,-0.70 0.67,0.20 1.28,0.26 1.59,0.30 5.67,0.77 7.52,-1.62 8.75,-2.61 0.89,2.41 3.33,2.71 4.98,2.11 1.65,-0.59 3.13,-2.44 3.13,-2.44 0.53,1.15 1.87,1.87 2.35,1.92 2.23,0.22 3.31,-2.20 3.79,-3.09 0.53,0.53 1.44,1.29 2.11,1.53 2.11,0.78 3.91,0.17 4.51,-0.38 1.68,-2.11 1.27,-4.87 0.86,-6.21 z M 249.90,38.90 c -1.12,-0.53 -1.86,-1.13 -2.03,-1.31 -0.48,-0.53 -0.36,-0.89 -0.05,-1.46 0.31,-0.58 0.74,-1.58 1.87,-2.42 1.13,-0.84 1.92,0.29 2.45,1.29 0.53,1.01 0.26,1.58 -0.19,2.11 -0.54,0.69 -1.27,1.29 -2.05,1.80 z" />
     </g>
</svg>
