<?xml version="1.0" encoding="UTF-8"?>
<svg version="1.1" id="Layer_1" x="0px" y="0px" width="578" height="50" viewBox="0 0 578 50"
xml:space="preserve" xmlns="http://www.w3.org/2000/svg" xmlns:svg="http://www.w3.org/2000/svg" xmlns:rdf="http://www.w3.org/1999/02/22-rdf-syntax-ns#"  xmlns:cc="http://creativecommons.org/ns#" xmlns:dc="http://purl.org/dc/elements/1.1/">
     <g>
<path d="M 272.68,40.59 c -1.92,2.63 -1.92,2.63 -1.92,2.63 -0.06,0.08 -0.05,0.20 0.03,0.25 3.27,2.38 3.27,2.38 3.27,2.38 0.08,0.06 0.19,0.04 0.25,-0.05 1.91,-2.63 1.91,-2.63 1.91,-2.63 0.06,-0.08 0.05,-0.20 -0.03,-0.25 -3.27,-2.38 -3.27,-2.38 -3.27,-2.38 -0.08,-0.06 -0.19,-0.04 -0.25,0.05 z M 291.46,33.87 c 0.39,2.87 0.69,5.45 0.73,6.83 -0.04,0.43 0.17,0.59 0.38,0.18 0.11,-0.22 0.59,-1.13 0.73,-3.52 0.11,-1.80 -0.05,-4.56 -0.60,-8.35 -0.08,-0.55 -2.95,-19.81 -2.95,-19.81 0.00,0.00 1.55,1.35 1.80,1.59 0.25,0.24 0.55,0.11 0.41,-0.28 -0.14,-0.39 -3.31,-7.50 -3.42,-7.75 -0.10,-0.25 -0.20,-0.43 -0.33,-0.14 -0.13,0.28 -1.08,2.45 -1.08,2.45 0.02,0.13 0.28,1.07 0.33,1.42 0.44,3.12 3.20,21.55 3.99,27.38 z M 282.22,8.94 c 0.00,0.00 1.75,1.61 2.00,1.86 0.25,0.24 0.55,0.11 0.41,-0.28 -0.14,-0.39 -3.31,-7.50 -3.42,-7.75 -0.10,-0.25 -0.20,-0.43 -0.33,-0.14 -0.13,0.28 -1.15,2.36 -1.15,2.36 0.03,0.17 0.27,0.68 0.43,1.73 0.16,1.00 0.38,2.39 0.62,3.94 0.00,0.00 3.28,17.17 3.55,19.28 0.26,2.11 0.40,3.39 -0.49,3.91 -0.88,0.51 -3.33,1.53 -5.21,0.24 -0.91,-0.63 -1.99,-2.77 -4.96,-3.37 -0.56,-0.11 -4.58,-0.38 -8.25,2.59 -1.87,1.52 -6.92,7.15 -7.96,8.30 -0.96,1.06 -4.62,5.40 -7.19,5.35 -0.86,-0.02 -3.66,-0.92 -2.18,-5.81 0.19,-0.63 0.19,-1.06 0.08,-1.28 2.81,-2.06 5.73,-4.49 7.44,-6.77 1.33,-1.78 2.44,-4.20 1.15,-8.61 -2.04,-6.99 -6.18,-5.75 -7.30,-4.92 -0.77,0.57 -2.55,2.40 -2.44,5.17 0.11,0.81 0.51,2.68 3.30,2.51 0.75,-0.05 2.57,-0.35 3.42,-0.24 0.86,0.11 2.73,1.29 2.16,2.19 -3.94,7.41 -25.08,17.25 -25.08,17.25 -0.52,0.28 -3.88,1.67 -3.80,1.89 0.07,0.22 0.22,0.21 0.63,0.09 0.41,-0.12 12.44,-3.28 12.92,-3.56 0.25,-0.15 3.26,-1.90 6.64,-4.30 -0.02,0.04 -0.03,0.08 -0.05,0.13 -0.50,1.48 -1.35,8.20 3.93,8.61 1.32,0.10 3.83,-0.06 8.71,-6.80 1.29,-1.77 6.97,-7.65 10.79,-8.28 1.49,-0.25 3.40,-0.86 6.01,1.75 0.64,0.64 2.38,2.84 6.24,1.52 1.48,-0.59 3.71,-2.46 3.17,-7.09 -0.15,-1.32 -3.79,-21.45 -3.79,-21.45 z M 249.18,24.00 c -0.94,-0.28 0.10,-1.37 0.83,-1.57 0.47,-0.13 1.99,-0.44 3.74,1.35 0.00,0.00 -2.19,0.71 -4.57,0.21 z M 275.69,18.58 c -4.07,4.07 -9.54,7.72 -11.79,8.74 -0.58,0.26 -0.50,0.56 -0.17,0.51 0.17,-0.03 3.07,-0.77 6.68,-2.92 3.04,-1.80 6.14,-5.92 6.14,-5.92 0.00,0.00 0.82,0.84 0.93,1.01 0.24,0.37 0.36,0.63 0.53,0.29 0.61,-1.26 0.02,-2.12 -0.58,-2.60 0.00,0.00 0.87,-1.98 -0.14,-4.15 -0.17,-0.36 -1.27,-1.59 -2.89,0.44 -0.63,0.77 -1.24,2.72 -0.52,3.37 0.72,0.65 1.81,1.23 1.81,1.23 z M 274.80,15.42 c 0.82,-0.94 1.17,-0.86 1.43,-0.67 0.74,0.84 0.49,2.07 0.42,2.36 0.00,0.00 -0.99,-0.59 -1.44,-0.84 -0.44,-0.25 -0.66,-0.57 -0.41,-0.84 z M 257.47,19.45 c 6.62,-2.10 10.41,-9.40 10.41,-9.40 0.00,0.00 0.99,0.89 1.13,1.10 0.30,0.46 0.46,0.80 0.66,0.36 0.77,-1.59 0.02,-2.68 -0.73,-3.28 0.00,0.00 1.10,-2.49 -0.17,-5.24 -0.21,-0.46 -1.60,-2.00 -3.65,0.56 -0.79,0.97 -1.56,3.43 -0.66,4.25 0.91,0.82 2.44,1.65 2.44,1.65 -2.38,2.98 -6.80,7.84 -9.22,9.35 -0.68,0.43 -0.62,0.77 -0.22,0.64 z M 266.15,6.42 c -0.56,-0.31 -0.83,-0.71 -0.52,-1.06 1.04,-1.18 1.48,-1.09 1.80,-0.85 0.93,1.06 0.61,2.62 0.54,2.97 0.00,0.00 -1.25,-0.75 -1.81,-1.06 z M 249.17,8.68 c 0.15,0.07 0.31,0.06 0.34,-0.12 0.03,-0.18 0.19,-0.60 0.50,-0.34 0.26,0.22 1.92,1.34 2.98,3.96 0.17,0.34 0.51,0.35 0.53,-0.17 0.06,-1.26 -0.05,-3.44 -0.01,-4.10 0.05,-0.94 0.31,-2.88 1.57,-2.01 0.29,0.20 0.60,0.47 0.60,0.47 0.28,0.29 0.62,0.61 0.74,0.24 0.18,-0.57 0.27,-1.49 -0.03,-1.95 -0.13,-0.21 -1.76,-1.90 -2.62,-0.55 -1.07,1.67 -0.95,3.72 -0.89,6.01 -0.22,-0.46 -1.49,-3.42 -4.78,-4.86 -0.24,-0.11 -0.68,0.18 -0.65,0.90 0.01,0.42 -0.01,1.45 0.32,1.71 0.32,0.26 1.25,0.74 1.40,0.81 z M 236.62,30.14 c -0.55,0.28 -9.51,3.78 -10.08,4.10 -0.57,0.32 -0.77,0.39 -0.88,0.81 -0.11,0.42 -0.17,0.66 -0.20,0.72 -0.12,0.28 -0.21,0.62 0.63,0.14 0.26,-0.15 9.33,-3.70 9.80,-3.96 0.47,-0.27 0.75,-0.36 0.96,-0.79 0.21,-0.42 0.26,-0.50 0.38,-0.80 0.12,-0.32 0.25,-0.65 -0.60,-0.22 z M 288.66,41.15 c -0.31,0.83 -1.13,1.41 -1.74,0.30 -0.10,-0.22 -0.51,-1.22 0.24,-3.42 0.15,-0.43 0.35,-1.06 0.35,-1.06 0.17,-0.48 -0.03,-0.74 -0.28,-0.15 -0.24,0.59 -1.25,2.61 -1.09,5.00 0.04,0.55 0.40,1.63 1.23,1.66 0.43,0.00 0.98,-0.31 1.38,-1.66 0.07,-0.30 0.11,-0.55 0.14,-0.67 0.04,-0.18 -0.09,-0.40 -0.23,0.02 z M 266.61,44.44 c -0.31,0.97 -1.21,1.69 -1.98,0.45 -0.13,-0.25 -0.67,-1.38 0.06,-3.95 0.15,-0.50 0.33,-1.24 0.33,-1.24 0.16,-0.56 -0.09,-0.85 -0.33,-0.16 -0.24,0.69 -1.26,3.09 -0.93,5.82 0.08,0.63 0.57,1.84 1.52,1.82 0.49,-0.03 1.11,-0.42 1.48,-2.00 0.06,-0.36 0.09,-0.64 0.12,-0.78 0.04,-0.21 -0.13,-0.45 -0.26,0.04 z M 244.17,16.03 c 0.56,-0.03 1.27,-0.45 1.70,-2.09 0.07,-0.37 0.11,-0.67 0.14,-0.81 0.04,-0.22 -0.15,-0.47 -0.30,0.04 -0.36,1.01 -1.39,1.76 -2.27,0.48 -0.14,-0.26 -0.75,-1.43 0.09,-4.11 0.17,-0.52 0.38,-1.29 0.38,-1.29 0.19,-0.59 -0.09,-0.88 -0.37,-0.16 -0.28,0.72 -1.46,3.22 -1.09,6.06 0.08,0.66 0.64,1.91 1.73,1.89 z M 333.16,7.03 c 0.17,0.09 0.36,0.11 0.41,-0.10 0.05,-0.21 0.29,-0.68 0.62,-0.34 0.28,0.28 2.09,1.78 3.03,4.95 0.16,0.42 0.55,0.46 0.64,-0.14 0.22,-1.47 0.33,-4.02 0.45,-4.79 0.16,-1.09 0.68,-3.32 2.06,-2.16 0.31,0.26 0.64,0.61 0.64,0.61 0.29,0.37 0.66,0.79 0.84,0.36 0.27,-0.64 0.49,-1.70 0.19,-2.28 -0.13,-0.26 -1.84,-2.41 -3.00,-0.93 -1.44,1.83 -1.53,4.23 -1.72,6.91 -0.20,-0.56 -1.35,-4.16 -5.02,-6.21 -0.27,-0.15 -0.81,0.13 -0.86,0.98 -0.03,0.49 -0.17,1.69 0.18,2.03 0.35,0.34 1.37,1.01 1.54,1.10 z M 353.76,14.30 c 0.18,-0.50 -0.04,-0.77 -0.29,-0.16 -0.25,0.61 -1.30,2.73 -1.14,5.22 0.04,0.58 0.42,1.70 1.29,1.73 0.45,0.00 1.03,-0.33 1.44,-1.73 0.07,-0.32 0.12,-0.57 0.15,-0.70 0.04,-0.19 -0.10,-0.42 -0.24,0.02 -0.33,0.86 -1.18,1.47 -1.82,0.31 -0.10,-0.23 -0.53,-1.28 0.26,-3.57 0.16,-0.44 0.36,-1.11 0.36,-1.11 z M 351.00,6.37 c 0.79,0.58 1.94,1.04 1.94,1.04 -3.66,4.48 -10.84,7.67 -12.56,9.01 -0.51,0.38 -0.44,0.61 -0.12,0.53 0.28,-0.08 5.76,-1.61 10.76,-5.90 2.29,-1.97 2.23,-2.11 2.81,-3.31 0.50,0.26 0.84,0.67 1.03,0.91 0.28,0.34 0.43,0.60 0.56,0.23 0.48,-1.33 -0.20,-2.13 -0.84,-2.54 0.00,0.00 0.67,-2.07 -0.56,-4.14 -0.21,-0.35 -1.43,-1.46 -2.85,0.74 -0.55,0.84 -0.96,2.85 -0.18,3.42 z M 351.73,4.34 c 0.73,-1.02 1.08,-0.99 1.36,-0.82 0.82,0.77 0.70,2.03 0.67,2.31 0.00,0.00 -1.05,-0.49 -1.52,-0.69 -0.47,-0.20 -0.72,-0.50 -0.50,-0.80 z M 359.34,24.89 c -0.25,-0.28 -0.37,-0.01 -0.46,0.31 -0.09,0.32 -0.36,1.52 -0.54,2.27 0.00,0.00 0.71,1.16 0.97,1.75 0.25,0.59 -0.12,0.92 -0.86,1.01 -2.08,0.25 -3.73,-0.94 -4.30,-1.48 -0.57,-0.55 0.05,-1.52 0.51,-2.68 0.37,-0.93 -0.32,-1.04 -0.84,0.00 -1.76,4.63 -4.23,5.13 -4.88,5.30 -5.86,1.60 -5.36,-3.76 -5.33,-4.64 0.02,-0.88 -0.62,-0.55 -1.34,0.03 -2.47,1.98 -4.45,3.14 -5.52,3.62 -0.92,-1.80 -2.26,-2.93 -2.82,-3.34 -6.34,-4.63 -6.87,4.71 -6.67,5.71 0.96,3.97 7.44,1.56 8.46,1.44 1.02,-0.12 0.68,1.22 0.11,2.02 -1.41,1.97 -3.03,3.38 -4.50,4.58 -6.28,5.13 -9.43,4.72 -10.41,4.69 -6.17,-0.17 -5.60,-6.82 -5.26,-8.24 1.86,-1.57 3.45,-3.28 4.38,-5.04 0.38,-0.96 1.03,-3.16 -0.15,-5.91 -0.62,-1.21 -2.56,-4.61 -2.56,-4.61 0.00,0.00 1.43,0.04 1.57,0.04 0.14,0.00 0.41,-0.14 0.06,-0.54 -0.35,-0.40 -3.36,-3.41 -3.54,-3.65 -0.18,-0.24 -0.35,-0.41 -0.45,-0.06 -0.10,0.36 -0.36,1.88 -0.42,2.20 -0.06,0.31 -0.06,0.63 0.10,0.90 0.15,0.27 0.55,1.20 0.84,1.96 0.29,0.76 3.25,6.47 3.53,6.98 0.27,0.51 0.33,0.88 0.06,1.22 -9.53,10.05 -27.91,16.23 -28.50,16.58 -0.59,0.34 -0.43,0.61 0.56,0.43 1.48,-0.26 9.74,-1.64 12.09,-2.77 1.55,-0.75 6.97,-3.41 11.41,-6.89 -0.12,0.90 -0.24,2.22 -0.18,3.89 0.30,8.08 7.53,6.74 9.43,6.33 5.68,-1.25 12.64,-9.11 13.23,-10.69 0.58,-1.56 0.67,-2.98 0.54,-4.22 1.50,-0.81 4.71,-3.40 4.71,-3.40 0.13,3.45 2.87,4.48 3.72,4.63 3.96,0.60 5.94,-2.70 6.78,-3.78 0.72,1.89 2.45,2.26 3.34,2.43 3.41,0.68 4.08,-1.73 4.25,-2.29 1.07,-3.33 -0.86,-5.81 -1.11,-6.08 z M 330.71,31.57 c -2.02,-0.14 -1.85,-0.92 -1.57,-1.22 0.30,-0.33 2.78,-1.89 4.85,0.89 0.00,0.00 -0.86,0.50 -3.28,0.33 z M 327.65,20.28 c 0.48,0.00 1.11,-0.35 1.55,-1.87 0.08,-0.34 0.13,-0.62 0.16,-0.75 0.05,-0.21 -0.10,-0.45 -0.26,0.02 -0.36,0.93 -1.27,1.58 -1.96,0.33 -0.11,-0.25 -0.58,-1.38 0.28,-3.86 0.17,-0.48 0.39,-1.20 0.39,-1.20 0.19,-0.54 -0.04,-0.84 -0.31,-0.17 -0.27,0.66 -1.40,2.94 -1.23,5.63 0.04,0.62 0.45,1.83 1.39,1.87 z M 293.28,13.78 c 0.17,-0.04 3.05,-0.49 6.41,-3.05 1.82,-1.38 2.92,-3.74 2.92,-3.74 0.00,0.00 0.91,0.76 1.03,0.91 0.28,0.34 0.43,0.60 0.56,0.23 0.48,-1.33 -0.20,-2.13 -0.84,-2.54 0.00,0.00 0.67,-2.07 -0.56,-4.14 -0.21,-0.35 -1.43,-1.46 -2.85,0.74 -0.55,0.84 -0.96,2.85 -0.18,3.42 0.79,0.58 1.94,1.04 1.94,1.04 -3.66,4.48 -6.16,5.34 -8.30,6.59 -0.55,0.32 -0.44,0.61 -0.12,0.53 z M 300.99,4.39 c -0.47,-0.20 -0.72,-0.50 -0.50,-0.80 0.73,-1.02 1.08,-0.99 1.36,-0.82 0.82,0.77 0.70,2.03 0.67,2.31 0.00,0.00 -1.05,-0.49 -1.52,-0.69 z M 309.96,12.30 c 0.25,-0.16 13.84,-8.02 14.32,-8.31 0.46,-0.29 0.72,-0.41 0.90,-0.85 0.18,-0.44 0.23,-0.51 0.33,-0.82 0.10,-0.32 0.21,-0.67 -0.61,-0.19 -0.53,0.31 -14.04,8.11 -14.59,8.46 -0.55,0.35 -0.74,0.44 -0.83,0.87 -0.09,0.42 -0.13,0.67 -0.16,0.73 -0.10,0.28 -0.17,0.63 0.64,0.10 z M 300.23,23.91 c 0.00,0.00 1.25,-0.31 1.47,-0.38 0.22,-0.06 0.34,-0.35 -0.05,-0.55 -0.39,-0.20 -4.09,-1.67 -4.37,-1.79 -0.28,-0.11 -0.38,-0.24 -0.41,0.06 -0.02,0.30 -0.07,2.73 -0.07,2.73 0.00,0.00 -0.06,0.17 0.27,0.35 0.32,0.18 0.64,0.58 0.90,0.84 0.26,0.26 3.70,2.98 3.87,3.07 0.00,0.00 -1.72,3.02 -1.94,5.38 -0.22,2.36 0.04,5.63 3.27,4.57 0.87,-0.25 4.49,-1.69 5.30,-4.21 0.26,-0.93 1.01,-2.61 -0.21,-4.31 -0.70,-1.00 -3.53,-2.69 -3.53,-2.69 0.00,0.00 2.17,-3.00 2.38,-3.37 0.21,-0.37 1.00,-2.69 1.09,-3.26 0.09,-0.56 0.13,-0.84 -0.29,-0.32 -0.42,0.52 -4.63,6.05 -4.63,6.05 z M 307.19,32.79 c -1.20,0.99 -3.72,2.29 -4.43,2.36 -0.71,0.07 -2.59,-0.28 -1.77,-2.20 0.28,-0.62 2.16,-3.84 2.16,-3.84 0.70,0.39 5.24,2.70 4.04,3.69 z M 300.86,14.16 c -0.06,-0.05 -0.15,-0.03 -0.20,0.04 -1.53,2.10 -1.53,2.10 -1.53,2.10 -0.05,0.07 -0.04,0.16 0.03,0.20 2.61,1.91 2.61,1.91 2.61,1.91 0.06,0.05 0.15,0.03 0.20,-0.04 1.32,-1.81 1.32,-1.81 1.32,-1.81 2.54,1.85 2.54,1.85 2.54,1.85 0.06,0.05 0.15,0.03 0.20,-0.04 1.53,-2.10 1.53,-2.10 1.53,-2.10 0.05,-0.07 0.04,-0.16 -0.03,-0.20 -2.61,-1.91 -2.61,-1.91 -2.61,-1.91 -0.06,-0.05 -0.15,-0.03 -0.20,0.04 -1.32,1.81 -1.32,1.81 -1.32,1.81 z M 356.14,37.21 c -0.24,0.68 -0.34,1.12 -0.32,1.38 0.03,0.26 0.12,1.10 0.12,1.10 -0.25,0.20 -1.33,0.87 -2.40,0.08 0.07,-0.23 0.21,-0.70 0.24,-0.95 0.12,-0.40 -0.13,-0.69 -0.32,-0.28 -0.20,0.41 -0.65,1.79 -0.99,2.10 -0.34,0.31 -0.74,1.45 -3.30,0.29 -0.45,-0.17 -1.23,-0.75 -2.46,0.48 -2.77,2.57 -4.68,2.78 -7.79,3.88 -0.38,0.17 -1.16,0.76 -0.23,0.67 0.94,-0.09 4.87,0.00 7.01,-2.46 0.45,-0.43 0.96,-1.58 2.66,-0.92 0.94,0.36 2.68,1.85 4.58,-1.10 1.12,0.75 2.82,0.45 3.09,-0.38 0.27,-0.82 0.58,-1.64 0.58,-2.20 0.00,-0.56 -0.05,-1.30 -0.05,-1.30 -0.04,-0.44 -0.19,-1.07 -0.44,-0.40 z M 242.79,28.99 c 0.16,-1.02 1.67,-7.40 -3.55,-9.24 -1.62,-0.57 -4.62,-1.13 -8.98,-0.53 -0.94,0.10 -5.23,0.51 -8.65,0.71 0.68,-0.90 1.51,-1.80 2.51,-2.65 0.48,0.44 0.86,0.81 0.95,0.94 0.26,0.41 0.54,0.34 0.60,-0.02 0.03,-0.21 0.22,-0.96 -0.12,-2.03 0.31,-0.22 0.63,-0.43 0.97,-0.65 1.06,-0.66 12.90,-8.08 12.90,-8.08 0.42,-1.24 0.47,-1.55 0.62,-2.06 0.15,-0.52 0.10,-0.72 -0.43,-0.87 -0.54,-0.15 -14.55,-1.70 -20.41,0.93 -0.97,0.43 -1.48,0.89 -1.89,1.91 -0.41,1.03 -1.08,3.30 -0.03,4.54 1.05,1.25 3.63,2.69 4.14,3.05 0.17,0.13 0.63,0.50 1.16,0.95 -1.03,1.13 -2.04,2.49 -2.90,4.12 -0.79,0.02 -2.53,-0.49 -3.14,-0.70 -0.55,-0.01 0.11,0.76 0.78,1.32 0.24,0.21 0.76,0.52 1.61,0.93 -0.18,0.42 -0.34,0.85 -0.50,1.30 -0.22,0.69 -3.88,11.48 1.35,17.62 0.86,1.01 6.26,6.02 14.66,0.81 1.23,-0.76 7.30,-5.66 8.37,-12.31 z M 218.54,9.83 c -0.28,-0.21 -0.87,-0.62 -0.02,-1.15 0.85,-0.54 3.62,-1.90 16.30,-1.33 -0.34,0.24 -5.92,3.65 -6.81,4.19 -0.40,0.24 -1.91,1.07 -3.66,2.61 -0.22,-0.26 -0.48,-0.52 -0.77,-0.79 -0.60,-0.54 -4.76,-3.31 -5.04,-3.52 z M 218.28,30.22 c 0.00,-0.63 -0.14,-4.24 1.96,-8.16 1.68,0.46 4.32,0.72 8.53,0.24 0.73,-0.08 7.88,-0.82 10.66,1.21 0.91,0.64 3.33,2.15 2.30,5.53 -0.20,0.65 -3.54,9.36 -11.68,10.81 -1.40,0.25 -11.85,1.99 -11.76,-9.63 z M 229.30,25.19 c -1.92,2.63 -1.92,2.63 -1.92,2.63 -0.06,0.08 -0.05,0.20 0.03,0.25 3.27,2.38 3.27,2.38 3.27,2.38 0.08,0.06 0.19,0.04 0.25,-0.05 1.91,-2.63 1.91,-2.63 1.91,-2.63 0.06,-0.08 0.05,-0.20 -0.03,-0.26 -3.27,-2.38 -3.27,-2.38 -3.27,-2.38 -0.08,-0.06 -0.19,-0.04 -0.25,0.05 z" />
     </g>
</svg>
