<?xml version="1.0" encoding="UTF-8"?>
<svg version="1.1" id="Layer_1" x="0px" y="0px" width="578" height="51" viewBox="0 0 578 51"
xml:space="preserve" xmlns="http://www.w3.org/2000/svg" xmlns:svg="http://www.w3.org/2000/svg" xmlns:rdf="http://www.w3.org/1999/02/22-rdf-syntax-ns#"  xmlns:cc="http://creativecommons.org/ns#" xmlns:dc="http://purl.org/dc/elements/1.1/">
     <g>
<path d="M 297.99,35.93 c 0.39,3.09 0.69,5.88 0.73,7.37 -0.04,0.46 0.17,0.64 0.38,0.19 0.11,-0.24 0.59,-1.22 0.73,-3.80 0.11,-1.94 -0.05,-4.91 -0.60,-9.01 -0.08,-0.60 -2.95,-21.37 -2.95,-21.37 0.00,0.00 1.55,1.46 1.80,1.72 0.25,0.26 0.55,0.12 0.41,-0.30 -0.14,-0.42 -3.31,-8.09 -3.42,-8.36 -0.10,-0.27 -0.20,-0.46 -0.33,-0.15 -0.13,0.31 -1.08,2.64 -1.08,2.64 0.02,0.14 0.28,1.16 0.33,1.54 0.44,3.36 3.20,23.25 3.99,29.54 z M 277.87,23.17 c 0.80,0.38 1.95,0.03 2.83,-1.63 0.68,0.99 1.71,0.99 2.26,0.79 0.47,-0.17 0.99,-0.88 1.15,-1.85 0.15,-0.98 -0.10,-1.64 -0.41,-2.19 -0.41,-0.68 -0.68,-1.82 -0.68,-1.82 -0.14,-0.41 -0.25,-0.82 -0.43,-0.26 -0.18,0.56 -0.32,0.99 -0.07,1.63 0.24,0.64 0.90,2.10 1.01,2.30 0.11,0.21 0.14,0.44 -0.22,0.60 -0.36,0.15 -2.02,0.51 -2.32,-1.26 -0.31,-1.76 -0.33,-2.28 -0.49,-2.57 -0.15,-0.30 -0.30,-0.33 -0.41,-0.04 -0.12,0.30 -0.19,0.91 -0.21,1.01 -0.02,0.10 -0.02,0.17 0.05,0.28 0.06,0.11 0.72,2.08 0.42,2.62 -0.30,0.54 -1.78,1.52 -2.56,0.50 -0.37,-0.71 -0.14,-2.52 -0.14,-2.94 0.00,-0.42 -0.14,-0.57 -0.32,-0.23 -0.18,0.34 -0.28,0.57 -0.27,0.88 0.01,0.31 0.05,1.63 0.03,2.04 -0.03,0.42 0.00,1.76 0.79,2.14 z M 230.64,16.88 c 0.06,0.05 0.15,0.03 0.20,-0.04 1.32,-1.81 1.32,-1.81 1.32,-1.81 2.54,1.85 2.54,1.85 2.54,1.85 0.06,0.05 0.15,0.03 0.20,-0.04 1.53,-2.10 1.53,-2.10 1.53,-2.10 0.05,-0.07 0.04,-0.16 -0.03,-0.20 -2.61,-1.91 -2.61,-1.91 -2.61,-1.91 -0.06,-0.05 -0.15,-0.03 -0.20,0.04 -1.32,1.81 -1.32,1.81 -1.32,1.81 -2.54,-1.85 -2.54,-1.85 -2.54,-1.85 -0.06,-0.05 -0.15,-0.03 -0.20,0.04 -1.53,2.10 -1.53,2.10 -1.53,2.10 -0.05,0.07 -0.04,0.16 0.03,0.20 z M 240.18,8.24 c 0.17,0.09 0.34,0.10 0.39,-0.09 0.05,-0.19 0.27,-0.65 0.59,-0.32 0.27,0.27 1.99,1.69 2.88,4.71 0.15,0.40 0.52,0.44 0.61,-0.13 0.21,-1.40 0.32,-3.82 0.43,-4.56 0.16,-1.03 0.65,-3.16 1.96,-2.06 0.30,0.25 0.61,0.58 0.61,0.58 0.28,0.35 0.63,0.75 0.80,0.34 0.26,-0.61 0.46,-1.62 0.18,-2.17 -0.12,-0.24 -1.75,-2.30 -2.85,-0.89 -1.37,1.74 -1.46,4.03 -1.64,6.58 -0.19,-0.53 -1.29,-3.95 -4.78,-5.91 -0.25,-0.14 -0.77,0.13 -0.82,0.93 -0.03,0.47 -0.16,1.61 0.17,1.93 0.33,0.32 1.31,0.96 1.47,1.05 z M 254.03,42.49 c -0.55,0.28 -9.71,3.98 -10.28,4.30 -0.57,0.32 -0.77,0.39 -0.88,0.81 -0.11,0.41 -0.17,0.66 -0.20,0.72 -0.12,0.28 -0.21,0.62 0.63,0.14 0.26,-0.15 9.53,-3.90 10.00,-4.17 0.47,-0.27 0.75,-0.36 0.96,-0.79 0.21,-0.42 0.26,-0.50 0.38,-0.80 0.12,-0.32 0.25,-0.65 -0.60,-0.22 z M 273.52,14.15 c 0.26,-0.15 9.53,-3.90 10.00,-4.17 0.47,-0.27 0.75,-0.36 0.96,-0.79 0.21,-0.42 0.26,-0.50 0.38,-0.80 0.12,-0.32 0.25,-0.65 -0.60,-0.22 -0.55,0.28 -9.71,3.98 -10.28,4.30 -0.57,0.32 -0.77,0.40 -0.88,0.81 -0.11,0.41 -0.17,0.66 -0.20,0.72 -0.12,0.28 -0.21,0.62 0.63,0.14 z M 225.80,44.24 c 0.21,-0.42 0.26,-0.50 0.38,-0.80 0.12,-0.32 0.27,-0.51 -0.60,-0.23 -0.58,0.19 -9.52,3.69 -10.17,3.95 -0.60,0.24 -0.77,0.39 -0.88,0.81 -0.11,0.42 -0.17,0.66 -0.20,0.72 -0.12,0.28 -0.26,0.51 0.63,0.15 0.43,-0.18 9.28,-3.55 9.89,-3.82 0.49,-0.22 0.75,-0.36 0.96,-0.79 z M 294.94,42.07 c -0.31,0.83 -1.13,1.41 -1.74,0.30 -0.10,-0.22 -0.51,-1.22 0.24,-3.42 0.15,-0.43 0.35,-1.06 0.35,-1.06 0.17,-0.48 -0.03,-0.74 -0.28,-0.16 -0.24,0.59 -1.25,2.61 -1.09,5.00 0.04,0.55 0.40,1.63 1.23,1.66 0.43,0.00 0.99,-0.31 1.38,-1.66 0.07,-0.31 0.11,-0.55 0.14,-0.67 0.04,-0.18 -0.09,-0.40 -0.23,0.02 z M 263.05,27.83 c 0.08,0.67 0.58,1.96 1.56,1.94 0.50,-0.03 1.13,-0.45 1.50,-2.12 0.06,-0.38 0.09,-0.68 0.12,-0.83 0.04,-0.23 -0.14,-0.48 -0.27,0.04 -0.31,1.03 -1.23,1.79 -2.02,0.48 -0.13,-0.26 -0.68,-1.46 0.05,-4.19 0.15,-0.53 0.33,-1.32 0.33,-1.32 0.17,-0.60 -0.09,-0.90 -0.33,-0.17 -0.24,0.73 -1.28,3.27 -0.93,6.17 z M 261.83,12.82 c 0.50,-0.03 1.13,-0.45 1.50,-2.12 0.06,-0.38 0.09,-0.68 0.12,-0.83 0.04,-0.23 -0.14,-0.48 -0.27,0.04 -0.31,1.03 -1.23,1.79 -2.02,0.48 -0.13,-0.26 -0.68,-1.46 0.05,-4.19 0.15,-0.53 0.33,-1.32 0.33,-1.32 0.17,-0.60 -0.09,-0.90 -0.33,-0.17 -0.24,0.73 -1.28,3.27 -0.93,6.17 0.08,0.67 0.58,1.96 1.56,1.94 z M 223.04,25.68 c 0.17,-0.64 -0.09,-0.96 -0.34,-0.18 -0.24,0.78 -1.30,3.48 -0.94,6.58 0.08,0.71 0.60,2.09 1.59,2.07 0.51,-0.03 1.15,-0.47 1.52,-2.26 0.06,-0.40 0.09,-0.72 0.12,-0.88 0.04,-0.24 -0.14,-0.51 -0.28,0.04 -0.31,1.10 -1.25,1.90 -2.06,0.50 -0.13,-0.28 -0.70,-1.56 0.04,-4.47 0.15,-0.56 0.33,-1.41 0.33,-1.41 z M 365.60,24.89 c -0.25,-0.27 -0.37,-0.01 -0.46,0.31 -0.09,0.32 -0.36,1.52 -0.54,2.27 0.00,0.00 0.71,1.16 0.97,1.76 0.25,0.59 -0.12,0.92 -0.86,1.01 -2.08,0.25 -3.73,-0.94 -4.30,-1.48 -0.57,-0.55 0.05,-1.52 0.51,-2.68 0.37,-0.93 -0.32,-1.04 -0.84,0.00 -1.76,4.63 -4.23,5.13 -4.88,5.30 -5.86,1.60 -5.36,-3.76 -5.34,-4.64 0.02,-0.88 -0.62,-0.55 -1.34,0.03 -2.47,1.98 -4.45,3.14 -5.52,3.62 -0.92,-1.80 -2.26,-2.93 -2.82,-3.34 -6.34,-4.63 -6.87,4.71 -6.67,5.71 0.97,3.97 7.45,1.56 8.46,1.44 1.02,-0.12 0.68,1.22 0.11,2.02 -1.41,1.97 -3.03,3.38 -4.50,4.58 -6.28,5.13 -9.44,4.72 -10.41,4.69 -6.17,-0.17 -5.60,-6.82 -5.26,-8.24 1.86,-1.57 3.45,-3.28 4.38,-5.04 0.38,-0.96 1.03,-3.16 -0.15,-5.91 -0.62,-1.21 -2.56,-4.60 -2.56,-4.60 0.00,0.00 1.43,0.04 1.57,0.04 0.14,0.00 0.41,-0.14 0.06,-0.54 -0.35,-0.40 -3.36,-3.40 -3.54,-3.65 -0.18,-0.24 -0.35,-0.41 -0.45,-0.06 -0.10,0.36 -0.36,1.88 -0.42,2.20 -0.06,0.31 -0.06,0.63 0.10,0.90 0.15,0.27 0.55,1.20 0.84,1.96 0.29,0.76 3.26,6.47 3.53,6.98 0.27,0.51 0.33,0.88 0.06,1.22 -9.53,10.05 -27.91,16.23 -28.50,16.57 -0.59,0.34 -0.43,0.61 0.56,0.43 1.48,-0.26 9.74,-1.64 12.09,-2.77 1.55,-0.75 6.97,-3.41 11.41,-6.89 -0.12,0.90 -0.24,2.22 -0.17,3.89 0.30,8.08 7.53,6.74 9.43,6.33 5.68,-1.25 12.64,-9.11 13.23,-10.69 0.58,-1.56 0.67,-2.98 0.54,-4.22 1.50,-0.81 4.71,-3.40 4.71,-3.40 0.13,3.45 2.88,4.48 3.72,4.63 3.96,0.60 5.94,-2.71 6.78,-3.78 0.72,1.89 2.45,2.26 3.34,2.43 3.41,0.68 4.08,-1.73 4.26,-2.29 1.07,-3.33 -0.86,-5.81 -1.11,-6.08 z M 336.97,31.57 c -2.03,-0.14 -1.85,-0.92 -1.57,-1.22 0.30,-0.33 2.78,-1.89 4.85,0.89 0.00,0.00 -0.86,0.50 -3.28,0.33 z M 251.43,34.77 c 0.38,-0.99 1.03,-3.23 -0.15,-6.04 -0.62,-1.24 -2.56,-4.71 -2.56,-4.71 0.00,0.00 1.43,0.05 1.57,0.04 0.14,0.00 0.41,-0.15 0.06,-0.56 -0.35,-0.41 -3.36,-3.48 -3.54,-3.73 -0.18,-0.25 -0.35,-0.42 -0.45,-0.06 -0.10,0.36 -0.36,1.93 -0.42,2.25 -0.06,0.32 -0.06,0.64 0.10,0.92 0.15,0.28 0.55,1.23 0.84,2.00 0.29,0.77 3.25,6.62 3.53,7.14 0.27,0.52 0.33,0.90 0.06,1.25 -9.53,10.28 -27.91,16.60 -28.50,16.95 -0.59,0.35 -0.43,0.62 0.56,0.44 1.48,-0.27 9.74,-1.68 12.09,-2.84 2.35,-1.16 13.60,-6.81 16.82,-13.05 z M 306.50,23.91 c 0.00,0.00 1.25,-0.31 1.47,-0.38 0.22,-0.06 0.34,-0.35 -0.05,-0.55 -0.39,-0.20 -4.09,-1.67 -4.37,-1.79 -0.28,-0.11 -0.38,-0.24 -0.41,0.06 -0.02,0.30 -0.07,2.73 -0.07,2.73 0.00,0.00 -0.06,0.17 0.26,0.35 0.32,0.18 0.64,0.58 0.90,0.84 0.26,0.26 3.70,2.98 3.87,3.07 0.00,0.00 -1.72,3.02 -1.94,5.38 -0.22,2.36 0.04,5.63 3.27,4.57 0.87,-0.25 4.49,-1.69 5.30,-4.21 0.26,-0.93 1.01,-2.61 -0.21,-4.31 -0.70,-1.00 -3.53,-2.69 -3.53,-2.69 0.00,0.00 2.17,-3.00 2.38,-3.37 0.21,-0.37 1.00,-2.69 1.09,-3.26 0.09,-0.56 0.13,-0.84 -0.29,-0.32 -0.42,0.52 -4.63,6.05 -4.63,6.05 z M 313.45,32.79 c -1.20,0.99 -3.72,2.29 -4.43,2.36 -0.71,0.07 -2.59,-0.28 -1.77,-2.20 0.28,-0.62 2.16,-3.84 2.16,-3.84 0.70,0.39 5.24,2.70 4.04,3.69 z M 307.12,14.16 c -0.06,-0.05 -0.15,-0.03 -0.20,0.04 -1.53,2.10 -1.53,2.10 -1.53,2.10 -0.05,0.07 -0.04,0.16 0.03,0.20 2.61,1.91 2.61,1.91 2.61,1.91 0.06,0.05 0.15,0.03 0.20,-0.04 1.32,-1.81 1.32,-1.81 1.32,-1.81 2.54,1.85 2.54,1.85 2.54,1.85 0.06,0.05 0.15,0.03 0.20,-0.04 1.53,-2.10 1.53,-2.10 1.53,-2.10 0.05,-0.07 0.04,-0.16 -0.03,-0.20 -2.61,-1.91 -2.61,-1.91 -2.61,-1.91 -0.06,-0.05 -0.15,-0.03 -0.20,0.04 -1.32,1.81 -1.32,1.81 -1.32,1.81 z M 339.42,7.03 c 0.17,0.10 0.36,0.11 0.41,-0.10 0.05,-0.21 0.28,-0.68 0.62,-0.34 0.28,0.28 2.09,1.78 3.03,4.95 0.16,0.42 0.55,0.46 0.64,-0.14 0.22,-1.47 0.34,-4.02 0.45,-4.79 0.16,-1.09 0.68,-3.32 2.06,-2.16 0.31,0.26 0.64,0.61 0.64,0.61 0.29,0.37 0.66,0.79 0.84,0.36 0.27,-0.64 0.49,-1.70 0.19,-2.28 -0.13,-0.25 -1.84,-2.41 -3.00,-0.93 -1.44,1.83 -1.53,4.23 -1.72,6.91 -0.20,-0.56 -1.35,-4.15 -5.02,-6.21 -0.27,-0.15 -0.81,0.13 -0.86,0.98 -0.03,0.49 -0.17,1.69 0.18,2.03 0.35,0.34 1.37,1.01 1.54,1.10 z M 316.22,12.30 c 0.25,-0.16 13.84,-8.02 14.32,-8.32 0.46,-0.28 0.72,-0.41 0.91,-0.84 0.18,-0.44 0.23,-0.52 0.33,-0.82 0.11,-0.32 0.21,-0.67 -0.61,-0.19 -0.53,0.31 -14.04,8.11 -14.59,8.46 -0.55,0.35 -0.74,0.44 -0.83,0.87 -0.09,0.42 -0.13,0.67 -0.16,0.73 -0.10,0.28 -0.17,0.63 0.64,0.10 z M 360.02,14.30 c 0.18,-0.50 -0.04,-0.77 -0.29,-0.16 -0.25,0.61 -1.30,2.73 -1.14,5.22 0.04,0.58 0.42,1.70 1.29,1.73 0.45,0.00 1.03,-0.33 1.44,-1.73 0.07,-0.32 0.12,-0.57 0.15,-0.70 0.04,-0.19 -0.10,-0.42 -0.24,0.02 -0.33,0.86 -1.18,1.47 -1.82,0.31 -0.10,-0.23 -0.53,-1.28 0.26,-3.57 0.16,-0.44 0.36,-1.11 0.36,-1.11 z M 333.91,20.27 c 0.48,0.00 1.11,-0.35 1.55,-1.87 0.08,-0.34 0.13,-0.62 0.16,-0.75 0.05,-0.21 -0.10,-0.45 -0.26,0.02 -0.35,0.93 -1.27,1.58 -1.96,0.33 -0.11,-0.25 -0.58,-1.38 0.28,-3.86 0.17,-0.48 0.39,-1.20 0.39,-1.20 0.19,-0.54 -0.04,-0.84 -0.31,-0.17 -0.27,0.66 -1.40,2.94 -1.23,5.63 0.04,0.62 0.45,1.83 1.39,1.87 z M 357.26,6.37 c 0.79,0.58 1.93,1.04 1.93,1.04 -3.66,4.49 -10.84,7.67 -12.55,9.01 -0.51,0.39 -0.44,0.61 -0.12,0.53 0.29,-0.08 5.76,-1.61 10.77,-5.90 2.29,-1.97 2.23,-2.11 2.81,-3.30 0.50,0.26 0.84,0.67 1.03,0.91 0.28,0.34 0.43,0.60 0.56,0.23 0.48,-1.33 -0.20,-2.13 -0.84,-2.54 0.00,0.00 0.67,-2.07 -0.56,-4.14 -0.21,-0.35 -1.43,-1.46 -2.85,0.74 -0.55,0.84 -0.96,2.85 -0.17,3.42 z M 357.99,4.34 c 0.73,-1.02 1.08,-0.99 1.36,-0.82 0.82,0.77 0.70,2.02 0.67,2.31 0.00,0.00 -1.05,-0.49 -1.52,-0.69 -0.47,-0.20 -0.72,-0.50 -0.50,-0.80 z M 299.54,13.78 c 0.17,-0.04 3.05,-0.49 6.41,-3.05 1.82,-1.38 2.92,-3.74 2.92,-3.74 0.00,0.00 0.91,0.76 1.03,0.91 0.28,0.34 0.43,0.60 0.56,0.23 0.48,-1.33 -0.20,-2.13 -0.84,-2.54 0.00,0.00 0.67,-2.07 -0.56,-4.14 -0.21,-0.35 -1.43,-1.46 -2.85,0.74 -0.55,0.84 -0.96,2.85 -0.17,3.42 0.79,0.58 1.93,1.04 1.93,1.04 -3.66,4.49 -6.16,5.34 -8.30,6.60 -0.55,0.32 -0.44,0.61 -0.12,0.53 z M 307.25,4.39 c -0.47,-0.20 -0.72,-0.50 -0.50,-0.80 0.73,-1.02 1.08,-0.99 1.36,-0.82 0.82,0.77 0.70,2.02 0.67,2.31 0.00,0.00 -1.05,-0.49 -1.52,-0.69 z M 362.40,37.21 c -0.24,0.68 -0.34,1.12 -0.31,1.38 0.03,0.26 0.11,1.10 0.11,1.10 -0.25,0.20 -1.33,0.87 -2.40,0.08 0.07,-0.23 0.21,-0.70 0.24,-0.95 0.12,-0.40 -0.13,-0.69 -0.32,-0.28 -0.20,0.41 -0.65,1.79 -0.99,2.10 -0.34,0.31 -0.73,1.45 -3.30,0.29 -0.45,-0.17 -1.23,-0.75 -2.46,0.48 -2.77,2.57 -4.68,2.78 -7.79,3.88 -0.38,0.17 -1.16,0.77 -0.23,0.67 0.94,-0.09 4.87,0.00 7.01,-2.46 0.45,-0.43 0.96,-1.58 2.66,-0.92 0.94,0.36 2.68,1.85 4.58,-1.10 1.12,0.75 2.82,0.45 3.09,-0.38 0.27,-0.82 0.58,-1.64 0.58,-2.20 0.00,-0.56 -0.05,-1.30 -0.05,-1.30 -0.04,-0.44 -0.19,-1.07 -0.44,-0.40 z M 235.88,36.04 c 0.81,-0.77 5.60,-4.03 2.39,-11.87 -3.35,-8.17 -7.60,-5.09 -8.70,-3.80 -1.38,1.62 -2.91,6.40 0.31,6.99 3.22,0.59 7.07,-0.33 8.18,2.49 0.13,0.34 0.09,1.66 -3.39,4.02 -1.10,0.75 -9.92,7.27 -17.17,5.50 -1.49,-0.36 -8.23,-2.81 -4.63,-13.68 0.14,-0.41 0.18,-0.79 0.12,-0.99 0.71,-0.11 1.55,-0.88 2.04,-3.52 0.08,-0.63 0.13,-1.13 0.16,-1.38 0.05,-0.38 -0.20,-0.81 -0.39,0.06 -0.44,1.72 -1.77,2.98 -2.94,0.77 -0.19,-0.44 -1.02,-2.45 0.02,-7.01 0.21,-0.88 0.47,-2.20 0.47,-2.20 0.24,-1.00 -0.14,-1.51 -0.49,-0.29 -0.34,1.22 -1.82,5.46 -1.29,10.32 0.12,1.05 0.78,3.02 2.04,3.24 -0.11,0.11 -0.24,0.27 -0.39,0.52 -0.78,1.26 -3.95,10.23 0.01,14.66 8.27,9.26 23.65,-3.83 23.65,-3.83 z M 233.48,24.60 c -0.97,0.07 -1.51,0.25 -2.61,-0.38 -0.86,-0.49 -0.39,-1.71 0.45,-1.92 2.40,-0.59 4.32,2.52 4.32,2.52 -0.16,-0.10 -1.19,-0.29 -2.16,-0.22 z M 219.20,8.44 c 0.16,0.07 0.32,0.07 0.35,-0.11 0.03,-0.18 0.21,-0.61 0.52,-0.33 0.23,0.20 1.52,1.14 2.51,3.16 0.85,1.61 -1.15,4.41 -1.09,7.41 0.01,0.68 0.36,2.01 1.28,2.09 0.48,0.02 1.12,-0.33 1.64,-1.96 0.09,-0.37 0.16,-0.67 0.20,-0.81 0.06,-0.22 -0.08,-0.49 -0.26,0.01 -0.40,1.00 -1.35,1.66 -1.97,0.27 -0.10,-0.27 -0.54,-1.54 0.47,-4.18 0.85,-2.22 0.76,-5.52 0.81,-6.20 0.08,-0.96 0.40,-2.94 1.67,-2.01 0.29,0.21 0.60,0.50 0.60,0.50 0.28,0.30 0.62,0.65 0.75,0.27 0.20,-0.57 0.33,-1.51 0.03,-2.00 -0.13,-0.22 -1.74,-2.00 -2.67,-0.64 -1.15,1.68 -1.09,3.78 -1.10,6.13 -0.21,-0.48 -1.42,-3.54 -4.74,-5.13 -0.24,-0.11 -0.70,0.17 -0.69,0.90 0.00,0.43 -0.05,1.48 0.27,1.76 0.32,0.28 1.26,0.80 1.41,0.87 z M 288.42,9.30 c 0.00,0.00 1.55,1.46 1.80,1.72 0.25,0.26 0.55,0.12 0.41,-0.30 -0.14,-0.42 -3.31,-8.09 -3.42,-8.36 -0.10,-0.27 -0.20,-0.46 -0.33,-0.15 -0.13,0.31 -1.15,2.55 -1.15,2.55 0.03,0.18 0.27,0.74 0.43,1.87 0.17,1.18 3.85,25.50 3.96,26.55 0.10,1.05 1.45,4.02 -4.16,5.30 0.00,0.00 1.66,-3.23 1.66,-4.64 0.00,-1.41 -1.28,-4.09 -5.50,-4.80 -2.02,-0.22 -4.71,0.79 -8.58,4.05 -0.32,0.36 -0.99,1.08 -1.78,1.95 0.41,-1.51 1.50,-8.19 -2.31,-26.11 0.00,0.00 1.01,0.53 1.54,0.97 0.53,0.44 0.88,0.26 0.53,-0.35 -0.35,-0.62 -2.95,-6.12 -3.21,-6.73 -0.26,-0.62 -0.40,-0.57 -0.57,-0.22 -0.18,0.35 -0.66,2.24 -0.66,2.24 0.18,1.01 0.48,1.85 0.70,3.21 0.22,1.36 2.64,16.76 2.82,18.70 0.18,1.94 0.79,7.52 -0.44,9.94 -0.03,0.07 -0.07,0.13 -0.10,0.19 -1.79,1.94 -3.56,3.86 -3.56,3.86 -1.58,0.04 -6.47,0.57 -8.58,-4.88 -1.72,-4.49 -3.30,-27.90 -4.58,-32.69 -0.31,-0.92 -0.57,-0.92 -0.97,0.00 -0.40,0.92 -0.70,2.33 -0.70,2.33 1.59,5.81 2.15,12.40 2.58,18.41 0.59,8.30 1.04,15.48 4.46,17.89 2.11,1.49 8.23,4.36 22.79,0.44 3.04,-0.84 7.88,-2.07 8.98,-4.36 1.10,-2.29 1.36,-4.31 0.75,-9.77 -0.44,-2.77 -2.81,-18.81 -2.81,-18.81 z M 285.21,36.08 c -9.55,5.59 -16.85,4.71 -16.85,4.71 0.88,-1.19 7.44,-8.67 10.60,-8.84 1.94,-0.11 4.44,0.26 6.42,2.42 0.57,0.62 0.81,1.14 -0.18,1.72 z" />
     </g>
</svg>
