<?xml version="1.0" encoding="UTF-8"?>
<svg version="1.1" id="Layer_1" x="0px" y="0px" width="578" height="58" viewBox="0 0 578 58"
xml:space="preserve" xmlns="http://www.w3.org/2000/svg" xmlns:svg="http://www.w3.org/2000/svg" xmlns:rdf="http://www.w3.org/1999/02/22-rdf-syntax-ns#"  xmlns:cc="http://creativecommons.org/ns#" xmlns:dc="http://purl.org/dc/elements/1.1/">
     <g>
<path d="M 293.13,44.64 c -0.04,0.45 0.17,0.62 0.38,0.19 0.11,-0.23 0.59,-1.19 0.73,-3.70 0.11,-1.88 -0.05,-4.78 -0.60,-8.77 -0.08,-0.58 -2.95,-20.79 -2.95,-20.79 0.00,0.00 1.55,1.42 1.80,1.67 0.25,0.26 0.55,0.12 0.41,-0.29 -0.14,-0.41 -3.31,-7.87 -3.42,-8.13 -0.10,-0.26 -0.20,-0.45 -0.33,-0.15 -0.13,0.30 -1.08,2.57 -1.08,2.57 0.02,0.13 0.28,1.12 0.33,1.50 0.44,3.27 3.20,22.62 3.99,28.74 0.39,3.01 0.69,5.72 0.73,7.17 z M 282.68,11.46 c 0.00,0.00 1.62,1.39 1.88,1.65 0.26,0.25 0.58,0.12 0.43,-0.29 -0.15,-0.41 -3.47,-7.75 -3.58,-8.00 -0.11,-0.26 -0.21,-0.44 -0.35,-0.15 -0.13,0.29 -1.20,2.44 -1.20,2.44 0.03,0.17 0.28,0.70 0.45,1.79 0.18,1.13 0.44,2.74 0.72,4.52 0.00,0.00 3.27,21.79 2.72,23.68 -0.77,2.61 -4.54,7.71 -16.96,12.35 -0.76,0.32 -0.64,0.80 0.93,0.37 1.58,-0.43 11.84,-1.19 16.33,-9.38 0.82,-1.65 2.08,-3.89 0.73,-12.49 -0.41,-3.15 -2.11,-16.49 -2.11,-16.49 z M 260.72,11.15 c -0.03,0.32 0.00,2.03 0.02,2.56 0.03,0.53 0.15,0.71 0.40,0.88 0.25,0.16 0.66,0.42 0.93,0.81 0.28,0.39 5.15,6.93 9.41,10.32 0.55,0.52 6.85,4.34 9.75,9.43 0.69,1.22 0.91,2.39 0.92,3.54 -0.18,1.22 0.33,0.81 0.56,-0.18 0.23,-0.99 0.67,-4.83 -1.89,-7.85 -2.36,-2.79 -5.52,-4.84 -6.53,-5.74 -0.76,-0.67 -4.84,-4.06 -6.99,-6.58 -0.96,-1.15 -2.09,-2.70 -2.09,-2.70 0.68,0.23 1.51,0.44 1.97,0.58 0.45,0.14 0.98,0.00 0.30,-0.58 -0.68,-0.58 -5.88,-4.04 -6.28,-4.46 -0.40,-0.42 -0.45,-0.35 -0.48,-0.02 z M 249.21,17.63 c 0.40,-0.44 0.68,-0.87 1.87,-0.84 1.18,0.03 4.02,-0.08 2.96,0.70 -1.06,0.78 -1.77,1.23 -1.77,1.23 -0.69,0.49 -1.29,1.42 -0.08,0.90 1.21,-0.51 2.82,-1.32 4.05,-3.18 0.36,-0.54 0.78,-1.26 -0.89,-1.51 -1.67,-0.25 -4.36,-0.64 -5.23,0.31 -0.87,0.95 -1.14,1.60 -1.40,2.01 -0.36,0.56 0.09,0.81 0.50,0.37 z M 259.64,10.42 c -0.16,0.32 -0.18,0.39 -0.27,0.58 -0.08,0.18 -0.13,0.43 0.32,0.17 0.45,-0.26 1.51,-1.26 4.38,-1.90 0.40,-0.08 0.75,-0.74 0.75,-0.74 0.17,-0.28 0.50,-0.92 -0.06,-0.60 -0.56,0.31 -2.05,0.76 -2.72,0.64 -0.67,-0.13 -1.45,-0.70 -1.63,-0.98 -0.17,-0.28 -0.15,-0.58 0.38,-0.89 0.53,-0.30 1.10,-0.51 1.51,0.16 0.08,0.11 0.16,0.11 0.33,-0.06 0.17,-0.17 0.51,-0.65 0.60,-0.78 0.09,-0.14 0.16,-0.37 0.02,-0.53 -0.14,-0.17 -0.72,-0.97 -1.66,-0.24 -0.94,0.73 -3.10,2.83 -2.13,3.81 0.56,0.46 0.82,0.68 0.82,0.68 -0.26,0.10 -0.49,0.35 -0.65,0.67 z M 254.47,6.70 c 0.26,-0.15 10.11,-4.19 10.58,-4.46 0.47,-0.27 0.75,-0.36 0.96,-0.79 0.21,-0.42 0.26,-0.50 0.38,-0.80 0.13,-0.32 0.25,-0.65 -0.60,-0.22 -0.55,0.28 -10.29,4.27 -10.86,4.59 -0.57,0.32 -0.77,0.40 -0.88,0.81 -0.11,0.42 -0.17,0.66 -0.20,0.72 -0.12,0.28 -0.21,0.62 0.63,0.14 z M 233.09,9.34 c 0.26,-0.15 12.45,-4.93 12.92,-5.20 0.47,-0.27 0.75,-0.36 0.96,-0.79 0.21,-0.42 0.26,-0.50 0.38,-0.80 0.12,-0.32 0.25,-0.65 -0.60,-0.22 -0.55,0.28 -12.64,5.01 -13.20,5.33 -0.57,0.32 -0.77,0.40 -0.88,0.81 -0.11,0.41 -0.17,0.66 -0.20,0.72 -0.12,0.28 -0.21,0.62 0.63,0.14 z M 273.63,13.23 c 0.50,0.00 1.14,-0.36 1.60,-1.93 0.08,-0.35 0.13,-0.64 0.16,-0.78 0.05,-0.21 -0.11,-0.46 -0.27,0.02 -0.36,0.96 -1.31,1.63 -2.02,0.34 -0.11,-0.26 -0.60,-1.42 0.28,-3.98 0.18,-0.50 0.40,-1.23 0.40,-1.23 0.20,-0.56 -0.04,-0.86 -0.32,-0.18 -0.28,0.68 -1.45,3.04 -1.27,5.81 0.04,0.64 0.47,1.89 1.43,1.92 z M 237.93,19.48 c 0.07,-0.30 0.11,-0.55 0.14,-0.67 0.04,-0.18 -0.09,-0.40 -0.23,0.02 -0.31,0.83 -1.13,1.40 -1.74,0.30 -0.10,-0.22 -0.51,-1.22 0.25,-3.42 0.15,-0.43 0.35,-1.06 0.35,-1.06 0.17,-0.48 -0.03,-0.74 -0.28,-0.15 -0.24,0.59 -1.25,2.61 -1.09,5.00 0.04,0.55 0.40,1.63 1.23,1.66 0.43,0.00 0.98,-0.31 1.38,-1.66 z M 234.56,26.26 c 0.17,-0.48 -0.03,-0.74 -0.27,-0.15 -0.24,0.59 -1.25,2.61 -1.09,5.00 0.04,0.55 0.40,1.63 1.23,1.66 0.43,0.00 0.98,-0.31 1.38,-1.66 0.07,-0.30 0.11,-0.55 0.14,-0.67 0.04,-0.18 -0.09,-0.40 -0.23,0.02 -0.31,0.83 -1.13,1.41 -1.74,0.30 -0.10,-0.22 -0.51,-1.22 0.25,-3.42 0.15,-0.43 0.35,-1.06 0.35,-1.06 z M 271.63,32.59 c 0.25,-0.81 -0.03,-1.25 -0.39,-0.27 -0.36,0.99 -1.84,4.39 -1.68,8.43 0.04,0.93 0.54,2.76 1.72,2.82 0.61,0.01 1.41,-0.51 2.01,-2.78 0.10,-0.51 0.17,-0.93 0.22,-1.13 0.06,-0.31 -0.12,-0.68 -0.33,0.03 -0.47,1.39 -1.65,2.35 -2.50,0.47 -0.14,-0.37 -0.70,-2.08 0.43,-5.78 0.23,-0.72 0.52,-1.79 0.52,-1.79 z M 310.89,15.82 c 0.25,-0.16 13.84,-8.02 14.32,-8.31 0.46,-0.29 0.72,-0.41 0.91,-0.85 0.18,-0.44 0.23,-0.51 0.33,-0.82 0.10,-0.32 0.21,-0.67 -0.61,-0.19 -0.53,0.31 -14.04,8.11 -14.59,8.46 -0.55,0.35 -0.74,0.44 -0.83,0.87 -0.09,0.42 -0.13,0.67 -0.16,0.73 -0.10,0.28 -0.17,0.63 0.64,0.10 z M 328.58,23.79 c 0.48,0.00 1.11,-0.35 1.55,-1.87 0.08,-0.34 0.13,-0.62 0.16,-0.75 0.05,-0.21 -0.10,-0.45 -0.26,0.02 -0.36,0.93 -1.27,1.58 -1.96,0.33 -0.11,-0.25 -0.58,-1.38 0.28,-3.86 0.17,-0.48 0.39,-1.20 0.39,-1.20 0.19,-0.54 -0.04,-0.84 -0.31,-0.17 -0.27,0.66 -1.40,2.94 -1.23,5.63 0.04,0.62 0.45,1.83 1.39,1.87 z M 351.94,9.89 c 0.79,0.58 1.94,1.04 1.94,1.04 -3.66,4.48 -10.84,7.67 -12.56,9.01 -0.51,0.38 -0.44,0.61 -0.12,0.52 0.28,-0.08 5.76,-1.61 10.76,-5.90 2.29,-1.97 2.23,-2.11 2.81,-3.31 0.50,0.26 0.84,0.67 1.03,0.91 0.28,0.34 0.43,0.60 0.56,0.23 0.48,-1.33 -0.20,-2.13 -0.84,-2.54 0.00,0.00 0.67,-2.07 -0.56,-4.14 -0.21,-0.35 -1.43,-1.46 -2.85,0.74 -0.55,0.84 -0.96,2.85 -0.18,3.42 z M 352.67,7.85 c 0.73,-1.02 1.08,-0.99 1.36,-0.82 0.83,0.77 0.70,2.02 0.67,2.31 0.00,0.00 -1.05,-0.49 -1.52,-0.69 -0.47,-0.20 -0.72,-0.50 -0.50,-0.80 z M 360.27,28.41 c -0.25,-0.28 -0.37,-0.01 -0.46,0.31 -0.09,0.32 -0.36,1.52 -0.54,2.27 0.00,0.00 0.71,1.16 0.97,1.75 0.25,0.59 -0.12,0.92 -0.86,1.01 -2.08,0.25 -3.73,-0.94 -4.30,-1.48 -0.57,-0.55 0.05,-1.52 0.51,-2.68 0.37,-0.93 -0.32,-1.04 -0.84,0.00 -1.76,4.63 -4.23,5.13 -4.88,5.30 -5.86,1.60 -5.36,-3.76 -5.33,-4.64 0.02,-0.88 -0.62,-0.55 -1.34,0.03 -2.47,1.98 -4.45,3.14 -5.52,3.62 -0.92,-1.80 -2.26,-2.93 -2.82,-3.34 -6.34,-4.63 -6.87,4.71 -6.67,5.71 0.96,3.97 7.44,1.56 8.46,1.44 1.02,-0.12 0.68,1.22 0.11,2.02 -1.41,1.96 -3.03,3.38 -4.50,4.57 -6.28,5.13 -9.43,4.72 -10.41,4.69 -6.17,-0.17 -5.60,-6.82 -5.26,-8.24 1.86,-1.57 3.45,-3.28 4.38,-5.04 0.38,-0.96 1.03,-3.16 -0.15,-5.91 -0.62,-1.21 -2.56,-4.61 -2.56,-4.61 0.00,0.00 1.43,0.04 1.57,0.04 0.14,0.00 0.41,-0.14 0.06,-0.54 -0.35,-0.40 -3.36,-3.41 -3.54,-3.65 -0.18,-0.24 -0.35,-0.42 -0.45,-0.06 -0.10,0.36 -0.36,1.88 -0.42,2.20 -0.06,0.31 -0.06,0.63 0.10,0.90 0.15,0.27 0.55,1.20 0.84,1.96 0.29,0.76 3.25,6.47 3.53,6.98 0.27,0.51 0.33,0.88 0.06,1.22 -9.53,10.05 -27.91,16.23 -28.50,16.57 -0.59,0.34 -0.43,0.61 0.56,0.43 1.48,-0.26 9.74,-1.64 12.09,-2.77 1.55,-0.75 6.97,-3.41 11.41,-6.89 -0.12,0.90 -0.24,2.22 -0.18,3.89 0.30,8.08 7.53,6.74 9.43,6.33 5.68,-1.25 12.64,-9.11 13.23,-10.69 0.58,-1.56 0.67,-2.98 0.54,-4.22 1.50,-0.81 4.71,-3.40 4.71,-3.40 0.13,3.45 2.87,4.48 3.72,4.63 3.96,0.60 5.94,-2.70 6.78,-3.78 0.72,1.89 2.45,2.26 3.34,2.43 3.41,0.68 4.08,-1.73 4.25,-2.29 1.07,-3.33 -0.86,-5.81 -1.11,-6.08 z M 331.64,35.09 c -2.03,-0.14 -1.85,-0.92 -1.57,-1.22 0.30,-0.33 2.78,-1.89 4.85,0.89 0.00,0.00 -0.86,0.50 -3.28,0.33 z M 354.70,17.81 c 0.18,-0.50 -0.04,-0.77 -0.29,-0.16 -0.25,0.61 -1.30,2.73 -1.14,5.22 0.04,0.58 0.42,1.70 1.29,1.73 0.45,0.00 1.03,-0.33 1.44,-1.73 0.07,-0.32 0.12,-0.57 0.15,-0.70 0.04,-0.19 -0.10,-0.42 -0.24,0.02 -0.33,0.86 -1.18,1.47 -1.82,0.31 -0.10,-0.23 -0.54,-1.28 0.26,-3.57 0.16,-0.44 0.36,-1.11 0.36,-1.11 z M 334.09,10.54 c 0.17,0.09 0.36,0.11 0.41,-0.10 0.05,-0.21 0.29,-0.68 0.62,-0.34 0.28,0.28 2.09,1.78 3.03,4.95 0.16,0.42 0.55,0.46 0.64,-0.14 0.22,-1.47 0.33,-4.02 0.45,-4.79 0.17,-1.09 0.68,-3.32 2.06,-2.16 0.31,0.26 0.64,0.61 0.64,0.61 0.29,0.37 0.66,0.79 0.84,0.36 0.27,-0.64 0.49,-1.70 0.19,-2.28 -0.13,-0.26 -1.83,-2.41 -3.00,-0.93 -1.44,1.83 -1.53,4.23 -1.72,6.91 -0.20,-0.56 -1.35,-4.16 -5.02,-6.21 -0.27,-0.15 -0.81,0.13 -0.86,0.98 -0.03,0.49 -0.17,1.69 0.18,2.03 0.35,0.34 1.37,1.01 1.54,1.10 z M 301.79,17.68 c -0.06,-0.05 -0.15,-0.03 -0.20,0.04 -1.53,2.10 -1.53,2.10 -1.53,2.10 -0.05,0.07 -0.04,0.16 0.03,0.20 2.61,1.91 2.61,1.91 2.61,1.91 0.06,0.05 0.15,0.03 0.20,-0.04 1.32,-1.81 1.32,-1.81 1.32,-1.81 2.54,1.85 2.54,1.85 2.54,1.85 0.06,0.05 0.15,0.03 0.20,-0.04 1.53,-2.10 1.53,-2.10 1.53,-2.10 0.05,-0.07 0.04,-0.16 -0.03,-0.20 -2.61,-1.91 -2.61,-1.91 -2.61,-1.91 -0.06,-0.05 -0.15,-0.03 -0.20,0.04 -1.32,1.81 -1.32,1.81 -1.32,1.81 z M 294.21,17.30 c 0.17,-0.04 3.05,-0.49 6.41,-3.05 1.82,-1.38 2.92,-3.74 2.92,-3.74 0.00,0.00 0.91,0.76 1.03,0.91 0.28,0.34 0.43,0.60 0.56,0.23 0.48,-1.33 -0.20,-2.13 -0.84,-2.54 0.00,0.00 0.67,-2.07 -0.56,-4.14 -0.21,-0.35 -1.43,-1.46 -2.85,0.74 -0.55,0.84 -0.96,2.85 -0.18,3.42 0.79,0.58 1.94,1.04 1.94,1.04 -3.66,4.48 -6.16,5.34 -8.30,6.59 -0.55,0.32 -0.44,0.61 -0.12,0.53 z M 301.93,7.90 c -0.47,-0.20 -0.72,-0.50 -0.50,-0.80 0.73,-1.02 1.08,-0.99 1.36,-0.82 0.83,0.77 0.70,2.02 0.67,2.31 0.00,0.00 -1.05,-0.49 -1.52,-0.70 z M 357.07,40.73 c -0.24,0.68 -0.34,1.12 -0.32,1.38 0.03,0.26 0.12,1.09 0.12,1.09 -0.25,0.20 -1.33,0.87 -2.40,0.08 0.07,-0.23 0.21,-0.70 0.24,-0.95 0.12,-0.40 -0.13,-0.69 -0.32,-0.28 -0.20,0.41 -0.65,1.79 -0.99,2.10 -0.34,0.31 -0.74,1.45 -3.30,0.29 -0.45,-0.17 -1.23,-0.75 -2.46,0.48 -2.77,2.57 -4.68,2.77 -7.79,3.88 -0.38,0.17 -1.16,0.76 -0.23,0.67 0.94,-0.09 4.87,0.00 7.01,-2.46 0.45,-0.43 0.96,-1.58 2.66,-0.92 0.94,0.36 2.68,1.85 4.58,-1.10 1.12,0.75 2.82,0.45 3.09,-0.38 0.27,-0.82 0.58,-1.64 0.58,-2.20 0.00,-0.56 -0.05,-1.30 -0.05,-1.30 -0.04,-0.44 -0.19,-1.07 -0.44,-0.40 z M 301.17,27.43 c 0.00,0.00 1.25,-0.31 1.47,-0.38 0.22,-0.06 0.34,-0.35 -0.05,-0.55 -0.39,-0.20 -4.09,-1.67 -4.37,-1.79 -0.28,-0.12 -0.38,-0.24 -0.41,0.06 -0.02,0.30 -0.07,2.73 -0.07,2.73 0.00,0.00 -0.06,0.17 0.27,0.35 0.32,0.18 0.64,0.58 0.90,0.84 0.26,0.26 3.70,2.98 3.87,3.07 0.00,0.00 -1.72,3.02 -1.94,5.38 -0.22,2.36 0.04,5.63 3.27,4.58 0.87,-0.25 4.49,-1.69 5.30,-4.21 0.26,-0.93 1.01,-2.61 -0.21,-4.31 -0.70,-1.00 -3.53,-2.69 -3.53,-2.69 0.00,0.00 2.17,-3.00 2.38,-3.37 0.21,-0.37 1.00,-2.69 1.09,-3.26 0.09,-0.56 0.13,-0.84 -0.29,-0.32 -0.42,0.52 -4.63,6.05 -4.63,6.05 z M 308.12,36.31 c -1.20,0.99 -3.72,2.29 -4.43,2.36 -0.71,0.07 -2.59,-0.28 -1.77,-2.20 0.28,-0.62 2.16,-3.84 2.16,-3.84 0.70,0.39 5.24,2.70 4.04,3.69 z M 229.91,50.13 c 0.52,-0.91 2.71,-8.90 -2.58,-15.33 -0.59,-0.71 -0.63,-0.42 -0.81,-0.14 -0.18,0.28 -0.59,1.55 -0.59,1.55 0.35,0.59 4.72,5.74 3.67,13.57 -0.15,0.78 0.12,0.69 0.31,0.35 z M 260.49,49.40 c -0.14,-0.03 -0.34,0.04 -0.48,0.07 -0.19,0.04 -0.39,0.09 -0.58,0.13 -0.44,0.11 -0.89,0.23 -1.33,0.32 -0.89,0.18 -1.82,0.29 -2.71,0.24 -0.85,-0.04 -1.68,-0.32 -2.17,-0.85 -0.49,-0.53 -0.58,-1.26 -0.36,-1.93 0.47,-1.42 2.10,-2.45 3.50,-3.35 0.16,-0.11 0.36,-0.18 0.40,-0.35 0.03,-0.16 0.06,-0.31 0.08,-0.47 0.06,-0.45 -0.61,0.01 -0.78,0.12 -0.61,0.40 -1.38,1.10 -2.20,1.11 -0.57,0.00 -1.22,-0.18 -1.60,-0.49 -0.07,-0.05 -0.16,-0.11 -0.11,-0.19 0.07,-0.11 0.19,-0.21 0.30,-0.30 0.24,-0.19 0.52,-0.35 0.80,-0.50 0.54,-0.28 1.01,-0.44 1.63,-0.43 0.10,0.00 0.23,0.02 0.33,-0.04 0.10,-0.06 0.13,-0.18 0.05,-0.25 -0.16,-0.14 -0.58,-0.19 -0.81,-0.22 -1.18,-0.14 -2.42,0.42 -2.81,1.39 -0.17,0.43 -0.18,0.94 0.12,1.29 0.35,0.41 0.97,0.56 1.57,0.67 -1.48,1.59 -1.85,4.55 0.44,5.49 1.08,0.44 2.45,0.33 3.66,0.07 0.68,-0.14 1.28,-0.44 1.89,-0.73 0.28,-0.13 0.56,-0.26 0.86,-0.37 0.16,-0.05 0.28,-0.10 0.37,-0.23 0.04,-0.07 0.07,-0.19 -0.06,-0.22 z M 223.60,14.70 c 0.15,0.07 0.31,0.07 0.34,-0.11 0.03,-0.18 0.20,-0.60 0.51,-0.32 0.22,0.20 1.48,1.11 2.45,3.09 0.83,1.58 -1.12,4.31 -1.06,7.23 0.01,0.66 0.35,1.96 1.25,2.04 0.47,0.02 1.09,-0.32 1.60,-1.92 0.09,-0.36 0.15,-0.65 0.19,-0.79 0.06,-0.22 -0.08,-0.48 -0.25,0.01 -0.39,0.97 -1.31,1.62 -1.92,0.26 -0.10,-0.27 -0.52,-1.50 0.46,-4.08 0.83,-2.17 0.74,-5.39 0.79,-6.05 0.08,-0.93 0.39,-2.87 1.63,-1.96 0.28,0.21 0.58,0.49 0.58,0.49 0.27,0.30 0.61,0.63 0.73,0.26 0.19,-0.56 0.32,-1.48 0.03,-1.95 -0.13,-0.21 -1.70,-1.95 -2.60,-0.63 -1.12,1.64 -1.06,3.69 -1.07,5.98 -0.20,-0.47 -1.38,-3.46 -4.63,-5.00 -0.24,-0.11 -0.68,0.16 -0.68,0.88 0.00,0.42 -0.05,1.45 0.26,1.72 0.31,0.27 1.22,0.78 1.38,0.85 z M 265.72,29.73 c -0.27,0.27 -7.12,6.62 -10.10,6.10 -0.94,-0.20 -6.06,-2.25 -6.55,-8.16 -0.07,-0.82 0.97,-1.12 1.63,-1.46 2.00,-1.03 5.88,-2.72 7.41,-2.49 1.99,0.30 3.18,0.58 3.56,0.61 0.37,0.02 0.82,-0.22 0.15,-0.60 -0.67,-0.37 -4.57,-2.18 -7.00,-1.79 -2.22,0.36 -4.34,0.89 -5.58,2.68 -1.24,1.79 -2.23,4.07 -1.61,6.70 0.27,0.97 1.36,3.82 1.74,4.46 -0.27,-0.05 -3.47,-1.29 -4.61,-6.62 -0.25,-1.14 -1.74,-10.73 -2.17,-13.24 -0.43,-2.51 -1.35,-6.80 -1.62,-7.49 -0.26,-0.69 -0.43,-0.07 -0.46,0.13 -0.03,0.20 -0.66,1.68 -0.59,2.24 0.07,0.56 2.18,13.07 2.31,14.45 0.13,1.39 1.55,6.30 -0.79,7.89 -2.34,1.58 -6.77,3.96 -6.77,3.96 -0.43,0.92 -0.59,1.85 -0.73,2.24 -0.13,0.40 -0.10,0.73 1.29,1.09 1.39,0.36 7.36,1.32 7.95,1.52 0.59,0.20 2.51,0.69 1.45,1.72 -1.06,1.02 -10.83,8.33 -18.68,7.33 -1.92,-0.24 -9.92,-1.95 -8.28,-10.63 0.31,-1.64 1.38,-4.23 1.96,-5.47 0.00,0.00 0.01,0.00 0.01,0.00 0.76,-0.05 1.71,-0.74 2.25,-3.53 0.09,-0.63 0.13,-1.13 0.17,-1.38 0.05,-0.38 -0.21,-0.81 -0.41,0.06 -0.46,1.72 -1.84,2.98 -3.06,0.78 -0.20,-0.44 -1.05,-2.45 0.04,-7.01 0.22,-0.89 0.49,-2.20 0.49,-2.20 0.25,-1.00 -0.15,-1.51 -0.51,-0.29 -0.36,1.22 -1.91,5.46 -1.36,10.32 0.10,0.89 0.61,2.44 1.56,3.02 -1.08,2.11 -5.23,11.22 0.23,16.62 1.16,1.15 6.08,6.32 18.64,0.03 1.53,-0.77 8.28,-3.96 8.94,-7.89 0.20,-1.39 0.33,-3.89 -1.65,-4.39 -1.98,-0.50 -5.77,-1.16 -5.77,-1.16 1.02,-0.76 3.12,-2.05 3.73,-3.76 0.39,-1.10 0.73,-1.80 0.73,-1.80 0.62,1.44 2.67,9.72 11.82,6.84 1.37,-0.43 6.94,-3.06 9.57,-6.65 0.38,-0.67 0.83,-2.00 1.00,-2.52 0.17,-0.52 -0.07,-0.55 -0.35,-0.27 z" />
     </g>
</svg>
