<?xml version="1.0" encoding="UTF-8"?>
<svg version="1.1" id="Layer_1" x="0px" y="0px" width="578" height="50" viewBox="0 0 578 50"
xml:space="preserve" xmlns="http://www.w3.org/2000/svg" xmlns:svg="http://www.w3.org/2000/svg" xmlns:rdf="http://www.w3.org/1999/02/22-rdf-syntax-ns#"  xmlns:cc="http://creativecommons.org/ns#" xmlns:dc="http://purl.org/dc/elements/1.1/">
     <g>
<path d="M 284.95,20.37 c -1.92,2.63 -1.92,2.63 -1.92,2.63 -0.06,0.08 -0.05,0.20 0.03,0.25 3.27,2.38 3.27,2.38 3.27,2.38 0.08,0.06 0.19,0.04 0.25,-0.05 1.91,-2.63 1.91,-2.63 1.91,-2.63 0.06,-0.08 0.05,-0.20 -0.03,-0.25 -3.27,-2.38 -3.27,-2.38 -3.27,-2.38 -0.08,-0.06 -0.19,-0.04 -0.25,0.05 z M 307.59,43.56 c -0.04,0.46 0.17,0.64 0.38,0.19 0.11,-0.24 0.59,-1.22 0.73,-3.80 0.11,-1.94 -0.05,-4.91 -0.60,-9.01 -0.08,-0.60 -2.95,-21.37 -2.95,-21.37 0.00,0.00 1.55,1.46 1.80,1.72 0.25,0.26 0.55,0.12 0.41,-0.30 -0.14,-0.42 -3.31,-8.09 -3.42,-8.36 -0.10,-0.27 -0.20,-0.46 -0.33,-0.15 -0.13,0.31 -1.08,2.64 -1.08,2.64 0.02,0.14 0.28,1.16 0.33,1.54 0.44,3.37 3.20,23.25 3.99,29.54 0.39,3.09 0.69,5.88 0.73,7.37 z M 246.50,18.13 c -1.53,2.10 -1.53,2.10 -1.53,2.10 -0.05,0.07 -0.04,0.16 0.03,0.20 2.61,1.91 2.61,1.91 2.61,1.91 0.06,0.05 0.15,0.03 0.20,-0.04 1.53,-2.10 1.53,-2.10 1.53,-2.10 0.05,-0.07 0.04,-0.16 -0.03,-0.20 -2.61,-1.91 -2.61,-1.91 -2.61,-1.91 -0.06,-0.05 -0.15,-0.03 -0.20,0.04 z M 245.74,22.45 c -0.06,-0.05 -0.15,-0.03 -0.20,0.04 -1.53,2.10 -1.53,2.10 -1.53,2.10 -0.05,0.07 -0.04,0.16 0.03,0.20 2.61,1.91 2.61,1.91 2.61,1.91 0.06,0.05 0.15,0.03 0.20,-0.04 1.32,-1.81 1.32,-1.81 1.32,-1.81 2.54,1.85 2.54,1.85 2.54,1.85 0.06,0.05 0.15,0.03 0.20,-0.04 1.53,-2.10 1.53,-2.10 1.53,-2.10 0.05,-0.07 0.04,-0.16 -0.03,-0.21 -2.62,-1.91 -2.62,-1.91 -2.62,-1.91 -0.06,-0.05 -0.15,-0.03 -0.20,0.04 -1.32,1.81 -1.32,1.81 -1.32,1.81 z M 234.49,44.63 c -0.06,-0.05 -0.15,-0.03 -0.20,0.04 -1.32,1.81 -1.32,1.81 -1.32,1.81 -2.54,-1.85 -2.54,-1.85 -2.54,-1.85 -0.06,-0.05 -0.15,-0.03 -0.20,0.04 -1.53,2.10 -1.53,2.10 -1.53,2.10 -0.05,0.07 -0.04,0.16 0.03,0.20 2.61,1.91 2.61,1.91 2.61,1.91 0.06,0.05 0.15,0.03 0.20,-0.04 1.32,-1.81 1.32,-1.81 1.32,-1.81 2.54,1.85 2.54,1.85 2.54,1.85 0.06,0.05 0.15,0.03 0.20,-0.04 1.53,-2.10 1.53,-2.10 1.53,-2.10 0.05,-0.07 0.04,-0.16 -0.03,-0.20 z M 212.96,21.92 c -0.06,-0.05 -0.15,-0.03 -0.20,0.04 -1.53,2.10 -1.53,2.10 -1.53,2.10 -0.05,0.07 -0.04,0.16 0.03,0.20 2.61,1.91 2.61,1.91 2.61,1.91 0.06,0.05 0.15,0.03 0.20,-0.04 1.32,-1.81 1.32,-1.81 1.32,-1.81 2.54,1.85 2.54,1.85 2.54,1.85 0.06,0.05 0.15,0.03 0.20,-0.04 1.53,-2.10 1.53,-2.10 1.53,-2.10 0.05,-0.07 0.04,-0.16 -0.03,-0.20 -2.61,-1.91 -2.61,-1.91 -2.61,-1.91 -0.06,-0.05 -0.15,-0.03 -0.20,0.04 -1.32,1.81 -1.32,1.81 -1.32,1.81 z M 234.00,17.23 c -1.16,1.67 -1.11,3.77 -1.14,6.12 -0.21,-0.48 -1.40,-3.55 -4.71,-5.16 -0.24,-0.12 -0.70,0.16 -0.70,0.90 0.00,0.43 -0.06,1.48 0.26,1.76 0.32,0.28 1.25,0.81 1.40,0.88 0.16,0.07 0.32,0.08 0.35,-0.11 0.03,-0.18 0.21,-0.61 0.52,-0.33 0.26,0.23 1.92,1.44 2.90,4.16 0.16,0.36 0.51,0.37 0.55,-0.15 0.11,-1.29 0.08,-3.52 0.14,-4.20 0.09,-0.96 0.42,-2.93 1.68,-1.99 0.29,0.21 0.59,0.50 0.59,0.50 0.27,0.30 0.62,0.65 0.75,0.27 0.20,-0.57 0.34,-1.51 0.05,-2.00 -0.13,-0.22 -1.73,-2.01 -2.66,-0.66 z M 269.82,8.01 c 0.16,0.07 0.32,0.07 0.35,-0.11 0.03,-0.18 0.21,-0.61 0.52,-0.33 0.26,0.23 1.92,1.44 2.90,4.16 0.16,0.36 0.51,0.37 0.55,-0.15 0.11,-1.29 0.08,-3.52 0.14,-4.20 0.09,-0.96 0.42,-2.94 1.68,-1.99 0.29,0.21 0.59,0.50 0.59,0.50 0.27,0.30 0.62,0.65 0.75,0.27 0.20,-0.57 0.34,-1.51 0.05,-2.00 -0.13,-0.22 -1.73,-2.01 -2.66,-0.66 -1.16,1.67 -1.11,3.77 -1.14,6.12 -0.21,-0.48 -1.40,-3.55 -4.71,-5.16 -0.24,-0.12 -0.70,0.16 -0.70,0.90 0.00,0.43 -0.06,1.48 0.26,1.76 0.32,0.28 1.25,0.81 1.40,0.88 z M 208.57,10.25 c 0.16,0.07 0.32,0.07 0.35,-0.11 0.03,-0.18 0.21,-0.61 0.52,-0.33 0.26,0.23 1.91,1.44 2.90,4.16 0.16,0.36 0.51,0.37 0.55,-0.15 0.11,-1.29 0.08,-3.52 0.14,-4.20 0.09,-0.96 0.42,-2.94 1.68,-1.99 0.29,0.21 0.59,0.50 0.59,0.50 0.27,0.31 0.62,0.65 0.75,0.27 0.20,-0.57 0.34,-1.51 0.05,-2.00 -0.13,-0.22 -1.73,-2.01 -2.66,-0.66 -1.16,1.67 -1.11,3.77 -1.14,6.12 -0.21,-0.48 -1.40,-3.55 -4.71,-5.16 -0.24,-0.12 -0.70,0.16 -0.70,0.90 0.00,0.43 -0.06,1.48 0.26,1.76 0.32,0.28 1.25,0.81 1.40,0.88 z M 219.72,18.93 c 0.32,-0.17 25.04,-10.85 25.63,-11.17 0.57,-0.30 0.87,-0.49 1.09,-1.02 0.22,-0.53 0.28,-0.62 0.39,-0.99 0.13,-0.39 0.31,-0.70 -0.74,-0.22 -0.73,0.33 -25.21,10.98 -25.96,11.34 -0.71,0.34 -0.89,0.53 -1.00,1.04 -0.11,0.51 -0.16,0.80 -0.19,0.88 -0.12,0.34 -0.20,0.64 0.77,0.13 z M 259.75,40.00 c -0.55,0.28 -9.68,3.91 -10.25,4.23 -0.57,0.32 -0.77,0.40 -0.88,0.81 -0.11,0.41 -0.17,0.66 -0.20,0.72 -0.12,0.28 -0.21,0.62 0.63,0.14 0.26,-0.15 9.50,-3.83 9.97,-4.10 0.47,-0.27 0.75,-0.36 0.96,-0.79 0.21,-0.42 0.26,-0.50 0.38,-0.80 0.13,-0.32 0.25,-0.65 -0.60,-0.22 z M 223.19,43.17 c -0.55,0.28 -9.68,3.91 -10.25,4.23 -0.57,0.32 -0.77,0.40 -0.88,0.81 -0.11,0.41 -0.17,0.66 -0.20,0.72 -0.12,0.28 -0.21,0.62 0.63,0.15 0.26,-0.15 9.50,-3.83 9.97,-4.10 0.47,-0.27 0.75,-0.36 0.96,-0.79 0.21,-0.42 0.26,-0.50 0.38,-0.80 0.12,-0.32 0.25,-0.65 -0.60,-0.22 z M 266.50,22.14 c 0.31,-0.16 24.41,-12.09 24.96,-12.43 0.55,-0.33 0.88,-0.45 1.11,-0.97 0.24,-0.51 0.30,-0.60 0.43,-0.96 0.14,-0.38 0.31,-0.73 -0.72,-0.25 -0.68,0.32 -24.59,12.25 -25.29,12.59 -0.69,0.35 -0.90,0.49 -1.02,0.99 -0.12,0.50 -0.18,0.76 -0.22,0.87 -0.11,0.34 -0.26,0.68 0.75,0.15 z M 291.29,13.70 c 0.19,-0.55 -0.04,-0.85 -0.32,-0.18 -0.27,0.67 -1.42,2.99 -1.25,5.71 0.04,0.63 0.46,1.86 1.41,1.89 0.49,0.00 1.13,-0.36 1.57,-1.90 0.08,-0.35 0.13,-0.63 0.16,-0.76 0.05,-0.21 -0.11,-0.46 -0.27,0.02 -0.36,0.94 -1.29,1.61 -1.99,0.34 -0.11,-0.25 -0.58,-1.40 0.28,-3.91 0.17,-0.49 0.39,-1.21 0.39,-1.21 z M 253.52,15.89 c 0.72,0.00 1.64,-0.57 2.30,-3.04 0.11,-0.56 0.19,-1.01 0.23,-1.22 0.07,-0.33 -0.15,-0.73 -0.39,0.03 -0.52,1.51 -1.88,2.57 -2.90,0.54 -0.16,-0.40 -0.85,-2.24 0.41,-6.26 0.25,-0.78 0.58,-1.94 0.58,-1.94 0.28,-0.88 -0.06,-1.36 -0.46,-0.28 -0.40,1.07 -2.07,4.78 -1.82,9.14 0.06,1.01 0.67,2.98 2.05,3.03 z M 272.55,23.08 c 0.21,-0.64 -0.10,-0.96 -0.40,-0.18 -0.30,0.78 -1.59,3.50 -1.19,6.59 0.02,0.14 0.06,0.30 0.11,0.48 0.08,0.65 0.50,1.75 1.40,1.78 0.21,0.00 0.44,-0.07 0.68,-0.26 0.55,-0.16 1.15,-0.72 1.54,-2.22 0.08,-0.40 0.12,-0.72 0.15,-0.88 0.05,-0.24 -0.16,-0.51 -0.33,0.04 -0.07,0.21 -0.17,0.41 -0.29,0.58 0.00,-0.18 -0.13,-0.33 -0.27,0.09 -0.05,0.13 -0.12,0.26 -0.19,0.38 -0.50,0.34 -1.14,0.31 -1.71,-0.53 -0.07,-0.12 -0.23,-0.43 -0.32,-0.97 0.02,-0.61 0.15,-1.41 0.51,-2.46 0.17,-0.49 0.39,-1.21 0.39,-1.21 0.19,-0.55 -0.04,-0.85 -0.31,-0.18 -0.05,0.12 -0.13,0.30 -0.22,0.52 0.02,-0.06 0.03,-0.11 0.05,-0.18 0.19,-0.57 0.41,-1.41 0.41,-1.41 z M 224.97,11.28 c 0.54,-0.03 1.23,-0.42 1.64,-1.94 0.07,-0.34 0.11,-0.62 0.13,-0.75 0.04,-0.21 -0.14,-0.44 -0.29,0.04 -0.35,0.94 -1.34,1.64 -2.18,0.45 -0.14,-0.24 -0.72,-1.32 0.10,-3.81 0.17,-0.48 0.37,-1.20 0.37,-1.20 0.19,-0.54 -0.09,-0.82 -0.36,-0.15 -0.27,0.67 -1.41,2.99 -1.07,5.62 0.08,0.61 0.61,1.78 1.66,1.75 z M 202.71,30.62 c 0.72,-0.02 1.64,-0.64 2.25,-3.28 0.10,-0.59 0.16,-1.07 0.21,-1.30 0.06,-0.35 -0.17,-0.77 -0.39,0.05 -0.49,1.61 -1.84,2.77 -2.92,0.64 -0.18,-0.42 -0.92,-2.35 0.26,-6.64 0.24,-0.83 0.53,-2.07 0.53,-2.07 0.26,-0.94 -0.09,-1.44 -0.47,-0.29 -0.38,1.15 -1.98,5.11 -1.62,9.73 0.08,1.07 0.75,3.14 2.15,3.16 z M 347.49,7.03 c 0.17,0.09 0.36,0.11 0.41,-0.10 0.05,-0.21 0.29,-0.68 0.62,-0.34 0.28,0.28 2.09,1.78 3.03,4.95 0.16,0.42 0.55,0.46 0.64,-0.14 0.22,-1.47 0.33,-4.02 0.45,-4.79 0.16,-1.09 0.68,-3.32 2.06,-2.16 0.31,0.26 0.64,0.61 0.64,0.61 0.29,0.37 0.66,0.79 0.84,0.36 0.27,-0.64 0.49,-1.70 0.19,-2.28 -0.13,-0.26 -1.84,-2.41 -3.00,-0.93 -1.44,1.83 -1.53,4.23 -1.72,6.91 -0.20,-0.56 -1.35,-4.16 -5.02,-6.21 -0.27,-0.15 -0.81,0.13 -0.86,0.98 -0.03,0.49 -0.17,1.69 0.18,2.03 0.35,0.34 1.37,1.01 1.54,1.10 z M 324.29,12.30 c 0.25,-0.16 13.84,-8.02 14.32,-8.31 0.46,-0.29 0.72,-0.41 0.90,-0.85 0.18,-0.44 0.23,-0.51 0.33,-0.82 0.10,-0.32 0.21,-0.67 -0.61,-0.19 -0.53,0.31 -14.04,8.11 -14.59,8.46 -0.55,0.35 -0.74,0.44 -0.83,0.87 -0.09,0.42 -0.13,0.67 -0.16,0.73 -0.10,0.28 -0.17,0.63 0.64,0.10 z M 365.33,6.37 c 0.79,0.58 1.94,1.04 1.94,1.04 -3.66,4.48 -10.84,7.67 -12.56,9.01 -0.51,0.38 -0.44,0.61 -0.12,0.52 0.28,-0.08 5.76,-1.61 10.76,-5.90 2.29,-1.97 2.23,-2.11 2.81,-3.31 0.50,0.26 0.84,0.67 1.03,0.91 0.28,0.34 0.43,0.60 0.56,0.23 0.48,-1.33 -0.20,-2.13 -0.84,-2.54 0.00,0.00 0.67,-2.07 -0.56,-4.14 -0.21,-0.35 -1.43,-1.46 -2.85,0.74 -0.55,0.84 -0.96,2.85 -0.17,3.42 z M 366.06,4.34 c 0.73,-1.02 1.08,-0.99 1.36,-0.82 0.82,0.77 0.70,2.03 0.67,2.31 0.00,0.00 -1.05,-0.49 -1.52,-0.69 -0.47,-0.20 -0.72,-0.50 -0.50,-0.80 z M 368.09,14.30 c 0.18,-0.50 -0.04,-0.77 -0.29,-0.16 -0.25,0.61 -1.30,2.73 -1.14,5.22 0.04,0.58 0.42,1.70 1.29,1.73 0.45,0.00 1.03,-0.33 1.44,-1.73 0.07,-0.32 0.12,-0.57 0.15,-0.70 0.04,-0.19 -0.10,-0.42 -0.24,0.02 -0.33,0.86 -1.18,1.47 -1.82,0.31 -0.10,-0.23 -0.53,-1.28 0.26,-3.57 0.16,-0.44 0.36,-1.11 0.36,-1.11 z M 373.67,24.89 c -0.25,-0.28 -0.37,-0.01 -0.46,0.31 -0.09,0.32 -0.36,1.52 -0.54,2.27 0.00,0.00 0.71,1.16 0.97,1.75 0.25,0.59 -0.12,0.92 -0.86,1.01 -2.08,0.25 -3.73,-0.94 -4.30,-1.48 -0.57,-0.55 0.05,-1.52 0.51,-2.68 0.37,-0.93 -0.32,-1.04 -0.84,0.00 -1.76,4.63 -4.23,5.13 -4.88,5.30 -5.86,1.60 -5.36,-3.76 -5.33,-4.64 0.02,-0.88 -0.62,-0.55 -1.34,0.03 -2.47,1.98 -4.45,3.14 -5.52,3.62 -0.92,-1.80 -2.26,-2.93 -2.82,-3.34 -6.34,-4.63 -6.87,4.71 -6.68,5.71 0.97,3.97 7.45,1.56 8.46,1.44 1.02,-0.12 0.68,1.22 0.11,2.02 -1.41,1.97 -3.03,3.38 -4.50,4.57 -6.28,5.13 -9.43,4.72 -10.41,4.69 -6.17,-0.17 -5.60,-6.82 -5.26,-8.24 1.85,-1.57 3.45,-3.28 4.38,-5.04 0.38,-0.96 1.03,-3.16 -0.15,-5.91 -0.62,-1.21 -2.56,-4.61 -2.56,-4.61 0.00,0.00 1.43,0.04 1.57,0.04 0.14,0.00 0.41,-0.14 0.06,-0.54 -0.35,-0.40 -3.36,-3.41 -3.54,-3.65 -0.18,-0.24 -0.35,-0.41 -0.45,-0.06 -0.10,0.36 -0.36,1.88 -0.42,2.20 -0.06,0.31 -0.06,0.63 0.10,0.90 0.16,0.27 0.55,1.20 0.84,1.96 0.29,0.76 3.25,6.47 3.53,6.98 0.27,0.51 0.33,0.88 0.06,1.22 -9.53,10.05 -27.91,16.23 -28.50,16.58 -0.59,0.34 -0.43,0.61 0.56,0.43 1.48,-0.26 9.74,-1.64 12.09,-2.77 1.55,-0.75 6.98,-3.41 11.41,-6.89 -0.12,0.90 -0.24,2.22 -0.18,3.89 0.30,8.08 7.53,6.74 9.43,6.33 5.68,-1.25 12.64,-9.11 13.23,-10.69 0.58,-1.56 0.67,-2.98 0.54,-4.22 1.50,-0.81 4.71,-3.40 4.71,-3.40 0.13,3.45 2.87,4.48 3.72,4.63 3.96,0.60 5.94,-2.70 6.78,-3.78 0.72,1.89 2.45,2.26 3.34,2.43 3.41,0.68 4.08,-1.73 4.25,-2.29 1.07,-3.33 -0.86,-5.81 -1.11,-6.08 z M 345.04,31.57 c -2.03,-0.14 -1.85,-0.92 -1.57,-1.22 0.30,-0.33 2.78,-1.89 4.85,0.89 0.00,0.00 -0.86,0.50 -3.28,0.33 z M 341.98,20.28 c 0.48,0.00 1.11,-0.35 1.55,-1.87 0.08,-0.34 0.12,-0.62 0.16,-0.75 0.05,-0.21 -0.10,-0.45 -0.26,0.02 -0.36,0.93 -1.28,1.58 -1.96,0.33 -0.11,-0.25 -0.58,-1.38 0.28,-3.86 0.17,-0.48 0.39,-1.20 0.39,-1.20 0.19,-0.54 -0.04,-0.84 -0.31,-0.17 -0.27,0.66 -1.40,2.94 -1.23,5.63 0.04,0.62 0.45,1.83 1.39,1.87 z M 307.61,13.78 c 0.17,-0.04 3.05,-0.49 6.41,-3.05 1.82,-1.38 2.92,-3.74 2.92,-3.74 0.00,0.00 0.91,0.76 1.03,0.91 0.28,0.34 0.43,0.60 0.56,0.23 0.48,-1.33 -0.20,-2.13 -0.84,-2.54 0.00,0.00 0.67,-2.07 -0.56,-4.14 -0.21,-0.35 -1.43,-1.46 -2.85,0.74 -0.55,0.84 -0.96,2.85 -0.17,3.42 0.79,0.58 1.94,1.04 1.94,1.04 -3.66,4.48 -6.16,5.34 -8.30,6.59 -0.55,0.32 -0.44,0.61 -0.12,0.53 z M 315.33,4.39 c -0.47,-0.20 -0.72,-0.50 -0.50,-0.80 0.73,-1.02 1.08,-0.99 1.36,-0.82 0.82,0.77 0.70,2.03 0.67,2.31 0.00,0.00 -1.05,-0.49 -1.52,-0.70 z M 370.47,37.21 c -0.24,0.68 -0.34,1.12 -0.32,1.38 0.03,0.26 0.12,1.09 0.12,1.09 -0.25,0.20 -1.33,0.87 -2.40,0.08 0.07,-0.23 0.21,-0.70 0.24,-0.95 0.12,-0.40 -0.13,-0.69 -0.32,-0.28 -0.20,0.41 -0.65,1.79 -0.99,2.10 -0.34,0.31 -0.74,1.45 -3.30,0.29 -0.45,-0.17 -1.23,-0.75 -2.46,0.48 -2.77,2.57 -4.68,2.78 -7.79,3.88 -0.38,0.17 -1.16,0.76 -0.23,0.67 0.94,-0.09 4.87,0.00 7.01,-2.46 0.45,-0.43 0.96,-1.58 2.66,-0.92 0.94,0.36 2.68,1.85 4.58,-1.10 1.12,0.75 2.82,0.45 3.09,-0.38 0.27,-0.82 0.58,-1.64 0.58,-2.20 0.00,-0.56 -0.05,-1.30 -0.05,-1.30 -0.04,-0.44 -0.19,-1.07 -0.44,-0.40 z M 315.19,14.16 c -0.06,-0.05 -0.15,-0.03 -0.20,0.04 -1.53,2.10 -1.53,2.10 -1.53,2.10 -0.05,0.07 -0.04,0.16 0.03,0.20 2.61,1.91 2.61,1.91 2.61,1.91 0.06,0.05 0.15,0.03 0.20,-0.04 1.32,-1.81 1.32,-1.81 1.32,-1.81 2.54,1.85 2.54,1.85 2.54,1.85 0.06,0.05 0.15,0.03 0.20,-0.04 1.53,-2.10 1.53,-2.10 1.53,-2.10 0.05,-0.07 0.04,-0.16 -0.03,-0.20 -2.61,-1.91 -2.61,-1.91 -2.61,-1.91 -0.06,-0.05 -0.15,-0.03 -0.20,0.04 -1.32,1.81 -1.32,1.81 -1.32,1.81 z M 314.57,23.91 c 0.00,0.00 1.25,-0.31 1.47,-0.38 0.22,-0.06 0.34,-0.35 -0.05,-0.55 -0.39,-0.20 -4.09,-1.67 -4.37,-1.79 -0.28,-0.11 -0.38,-0.24 -0.41,0.06 -0.02,0.30 -0.07,2.73 -0.07,2.73 0.00,0.00 -0.06,0.17 0.27,0.35 0.32,0.18 0.64,0.58 0.90,0.84 0.26,0.26 3.70,2.98 3.87,3.07 0.00,0.00 -1.72,3.02 -1.94,5.38 -0.22,2.36 0.04,5.63 3.27,4.57 0.87,-0.25 4.49,-1.69 5.30,-4.21 0.26,-0.93 1.01,-2.61 -0.21,-4.31 -0.70,-1.00 -3.53,-2.69 -3.53,-2.69 0.00,0.00 2.17,-3.00 2.38,-3.37 0.21,-0.37 1.00,-2.69 1.09,-3.26 0.09,-0.56 0.13,-0.84 -0.29,-0.32 -0.42,0.52 -4.63,6.05 -4.63,6.05 z M 321.52,32.79 c -1.20,0.99 -3.72,2.29 -4.43,2.36 -0.71,0.07 -2.59,-0.28 -1.77,-2.20 0.28,-0.62 2.16,-3.84 2.16,-3.84 0.70,0.39 5.24,2.70 4.04,3.69 z M 299.32,23.12 c -2.30,-13.55 -2.30,-13.55 -2.30,-13.55 0.00,0.00 1.55,1.46 1.80,1.72 0.25,0.26 0.55,0.12 0.41,-0.30 -0.14,-0.42 -3.32,-8.09 -3.42,-8.36 -0.10,-0.27 -0.21,-0.46 -0.33,-0.15 -0.13,0.31 -1.15,2.55 -1.15,2.55 0.03,0.18 0.27,0.73 0.43,1.87 0.16,1.11 0.39,2.67 0.64,4.40 0.00,0.00 3.70,21.21 3.88,22.51 0.19,1.30 0.57,3.64 0.07,4.09 -0.50,0.45 -4.07,2.70 -6.97,1.77 -0.53,-0.18 -1.63,-0.64 -2.96,-1.82 2.31,-1.27 4.82,-2.61 5.96,-3.05 0.00,0.00 0.82,-1.82 0.93,-2.12 0.11,-0.30 0.04,-0.63 -0.65,-0.99 -0.69,-0.37 -9.52,-3.03 -16.51,0.00 -0.45,0.28 -0.80,0.67 -1.02,1.17 -0.22,0.50 -0.48,1.51 -0.56,1.80 -0.09,0.28 0.09,0.56 0.43,0.41 0.10,-0.05 0.56,-0.31 1.38,-0.63 0.63,-0.27 1.18,-0.19 1.32,-0.15 0.69,0.19 2.32,0.80 3.87,2.57 0.04,0.04 0.22,0.23 0.48,0.50 -2.94,1.52 -6.46,3.04 -9.70,3.59 -0.84,0.09 -6.77,1.04 -9.63,-3.24 -1.63,-2.65 -1.88,-7.25 -2.19,-10.63 -0.70,-7.71 -1.96,-20.40 -3.61,-25.09 -0.37,-1.04 -0.50,-0.10 -0.76,0.63 -0.26,0.73 -0.77,1.12 -0.36,2.47 1.69,5.62 3.79,28.67 3.82,29.07 0.20,2.55 1.08,8.14 6.37,9.51 7.99,1.98 15.65,-3.13 15.65,-3.13 0.14,-0.08 1.03,-0.60 2.27,-1.30 1.00,1.00 2.02,1.99 2.39,2.27 0.78,0.61 3.30,2.12 6.99,0.91 0.77,-0.25 3.38,-0.67 4.28,-4.82 0.45,-1.99 0.17,-4.41 0.04,-5.56 -0.13,-1.15 -1.34,-8.91 -1.34,-8.91 z M 287.67,35.95 c -0.15,-0.20 -0.30,-0.41 -0.46,-0.61 -0.49,-0.60 -1.20,-1.24 -2.21,-2.04 1.82,-0.12 4.00,-0.07 6.58,0.31 -0.35,0.19 -1.83,1.16 -3.91,2.34 z M 251.54,35.68 c 0.41,0.45 1.35,2.09 4.64,1.92 0.59,-0.03 1.98,-0.48 2.59,-3.24 0.13,-0.61 0.36,-3.10 -1.24,-5.27 -0.34,-0.43 -0.38,-0.10 -0.47,0.08 -0.10,0.18 -0.63,2.09 -0.63,2.09 0.22,0.61 0.89,1.97 0.99,2.39 0.10,0.41 0.22,0.87 -0.39,1.01 -0.61,0.14 -2.92,0.32 -4.48,-1.97 0.14,-0.30 0.59,-1.60 0.69,-1.95 0.16,-0.47 -0.20,-1.03 -0.53,-0.36 -0.34,0.67 -1.56,3.69 -2.61,4.42 -1.05,0.73 -3.42,2.01 -5.37,-1.03 0.14,-0.39 0.30,-1.16 0.49,-1.58 0.30,-0.57 0.08,-1.11 -0.43,-0.47 -0.51,0.63 -1.67,3.33 -4.50,4.31 -1.06,0.36 -6.08,1.24 -7.54,-3.28 0.12,-0.38 0.16,-0.55 0.28,-1.13 0.12,-0.57 -0.12,-1.16 -0.67,-0.53 -0.55,0.63 -1.66,3.16 -2.80,4.05 -1.14,0.89 -5.54,4.37 -9.72,-2.45 -0.48,-0.79 -1.46,-2.01 -3.75,-0.63 -2.29,1.38 -3.74,3.26 -4.56,5.12 -0.57,1.29 -1.76,5.37 -2.49,6.10 -0.73,0.73 -1.91,1.99 -3.79,0.22 -0.70,-0.66 -3.36,-3.75 -3.26,-9.32 0.00,-0.40 -0.24,-0.53 -0.38,-0.06 -0.14,0.47 -0.77,6.95 2.45,11.43 0.47,0.59 2.76,3.31 5.13,0.28 0.37,-0.48 2.69,-5.67 3.18,-6.66 0.49,-0.99 2.60,-3.78 4.40,-4.33 0.48,-0.14 1.48,-0.65 2.29,0.77 0.81,1.42 2.33,5.05 6.99,4.32 1.23,-0.19 3.79,-1.03 5.53,-4.40 0.45,0.85 1.32,3.76 5.90,3.83 0.67,0.01 4.29,-0.38 5.98,-2.98 0.38,0.49 1.96,3.09 5.37,1.94 1.25,-0.43 2.72,-2.63 2.72,-2.63 z" />
     </g>
</svg>
