<?xml version="1.0" encoding="UTF-8"?>
<svg version="1.1" id="Layer_1" x="0px" y="0px" width="578" height="50" viewBox="0 0 578 50"
xml:space="preserve" xmlns="http://www.w3.org/2000/svg" xmlns:svg="http://www.w3.org/2000/svg" xmlns:rdf="http://www.w3.org/1999/02/22-rdf-syntax-ns#"  xmlns:cc="http://creativecommons.org/ns#" xmlns:dc="http://purl.org/dc/elements/1.1/">
     <g>
<path d="M 250.25,38.31 c -1.92,2.63 -1.92,2.63 -1.92,2.63 -0.06,0.08 -0.05,0.20 0.03,0.25 3.27,2.38 3.27,2.38 3.27,2.38 0.08,0.06 0.19,0.04 0.25,-0.05 1.91,-2.63 1.91,-2.63 1.91,-2.63 0.06,-0.08 0.05,-0.20 -0.03,-0.25 -3.27,-2.38 -3.27,-2.38 -3.27,-2.38 -0.08,-0.06 -0.19,-0.04 -0.25,0.05 z M 270.39,18.33 c -1.92,2.63 -1.92,2.63 -1.92,2.63 -0.06,0.08 -0.05,0.20 0.03,0.25 3.27,2.38 3.27,2.38 3.27,2.38 0.08,0.06 0.19,0.04 0.25,-0.05 1.91,-2.63 1.91,-2.63 1.91,-2.63 0.06,-0.08 0.05,-0.20 -0.03,-0.25 -3.27,-2.38 -3.27,-2.38 -3.27,-2.38 -0.08,-0.06 -0.19,-0.04 -0.25,0.05 z M 288.27,42.24 c -0.04,0.46 0.17,0.64 0.38,0.19 0.11,-0.24 0.59,-1.22 0.73,-3.80 0.11,-1.94 -0.05,-4.91 -0.60,-9.01 -0.08,-0.60 -2.95,-21.37 -2.95,-21.37 0.00,0.00 1.55,1.45 1.80,1.72 0.25,0.26 0.55,0.12 0.41,-0.30 -0.14,-0.42 -3.31,-8.10 -3.42,-8.36 -0.10,-0.27 -0.20,-0.46 -0.33,-0.15 -0.13,0.31 -1.08,2.64 -1.08,2.64 0.02,0.14 0.28,1.15 0.33,1.54 0.44,3.37 3.20,23.25 3.99,29.54 0.39,3.09 0.69,5.88 0.73,7.37 z M 241.37,13.14 c 0.48,-0.52 0.82,-1.04 2.22,-1.00 1.41,0.04 4.78,-0.09 3.52,0.83 -1.26,0.93 -2.11,1.46 -2.11,1.46 -0.82,0.59 -1.54,1.69 -0.09,1.07 1.44,-0.61 3.35,-1.57 4.81,-3.78 0.43,-0.64 0.93,-1.50 -1.06,-1.80 -1.98,-0.30 -5.18,-0.76 -6.22,0.37 -1.04,1.13 -1.36,1.90 -1.67,2.39 -0.43,0.67 0.11,0.96 0.59,0.45 z M 225.21,6.66 c 0.32,0.27 1.24,0.77 1.39,0.84 0.15,0.07 0.31,0.07 0.34,-0.11 0.03,-0.18 0.20,-0.60 0.51,-0.33 0.26,0.22 1.90,1.39 2.91,4.04 0.17,0.35 0.50,0.36 0.54,-0.16 0.09,-1.27 0.03,-3.45 0.08,-4.12 0.07,-0.94 0.37,-2.89 1.62,-1.98 0.28,0.21 0.59,0.48 0.59,0.48 0.27,0.29 0.61,0.63 0.74,0.26 0.19,-0.56 0.31,-1.49 0.02,-1.96 -0.13,-0.21 -1.72,-1.94 -2.62,-0.60 -1.11,1.66 -1.03,3.71 -1.02,6.02 -0.21,-0.47 -1.42,-3.46 -4.70,-4.98 -0.24,-0.11 -0.68,0.17 -0.67,0.89 0.00,0.42 -0.04,1.46 0.28,1.72 z M 244.31,42.94 c -0.46,0.23 -10.50,4.16 -10.97,4.42 -0.47,0.26 -0.64,0.33 -0.73,0.68 -0.09,0.35 -0.14,0.55 -0.17,0.60 -0.10,0.23 -0.17,0.51 0.52,0.12 0.22,-0.12 10.35,-4.09 10.74,-4.32 0.39,-0.22 0.62,-0.30 0.80,-0.65 0.17,-0.35 0.22,-0.42 0.31,-0.66 0.10,-0.26 0.21,-0.54 -0.50,-0.19 z M 251.87,17.89 c 0.30,-0.15 19.17,-8.58 19.69,-8.88 0.53,-0.30 0.84,-0.40 1.08,-0.88 0.24,-0.48 0.30,-0.56 0.43,-0.90 0.14,-0.36 0.31,-0.68 -0.67,-0.26 -0.65,0.28 -19.34,8.71 -20.01,9.02 -0.67,0.31 -0.87,0.44 -1.00,0.91 -0.13,0.47 -0.20,0.71 -0.23,0.81 -0.11,0.32 -0.27,0.64 0.71,0.17 z M 257.26,10.26 c 0.48,0.00 1.09,-0.35 1.53,-1.85 0.08,-0.34 0.12,-0.61 0.16,-0.74 0.05,-0.20 -0.10,-0.44 -0.26,0.02 -0.35,0.92 -1.26,1.56 -1.93,0.33 -0.11,-0.24 -0.57,-1.36 0.27,-3.80 0.17,-0.47 0.38,-1.18 0.38,-1.18 0.19,-0.53 -0.04,-0.82 -0.31,-0.17 -0.27,0.65 -1.38,2.90 -1.21,5.55 0.04,0.61 0.45,1.80 1.37,1.84 z M 272.72,41.51 c -0.37,-0.15 -0.96,-0.09 -1.79,0.93 -0.17,0.24 -0.30,0.43 -0.36,0.52 -0.10,0.14 -0.07,0.38 0.21,0.07 0.57,-0.60 1.49,-0.80 1.61,0.38 0.00,0.23 -0.01,1.24 -1.46,2.86 -0.29,0.31 -0.68,0.79 -0.68,0.79 -0.32,0.35 -0.24,0.65 0.18,0.23 0.42,-0.42 2.02,-1.80 2.76,-3.91 0.17,-0.49 0.25,-1.55 -0.46,-1.88 z M 231.08,17.05 c 0.17,-0.64 -0.10,-0.96 -0.35,-0.18 -0.25,0.78 -1.33,3.49 -0.97,6.58 0.08,0.71 0.61,2.09 1.63,2.07 0.52,-0.03 1.18,-0.47 1.56,-2.26 0.06,-0.40 0.09,-0.72 0.12,-0.88 0.04,-0.24 -0.14,-0.51 -0.28,0.04 -0.32,1.10 -1.28,1.91 -2.10,0.51 -0.14,-0.28 -0.71,-1.56 0.05,-4.47 0.15,-0.56 0.34,-1.41 0.34,-1.41 z M 329.75,7.03 c 0.17,0.10 0.36,0.11 0.41,-0.10 0.05,-0.21 0.28,-0.68 0.62,-0.34 0.28,0.28 2.09,1.78 3.03,4.95 0.16,0.42 0.55,0.46 0.64,-0.14 0.22,-1.47 0.34,-4.02 0.45,-4.79 0.16,-1.09 0.68,-3.33 2.06,-2.16 0.31,0.26 0.64,0.61 0.64,0.61 0.29,0.37 0.66,0.79 0.84,0.36 0.27,-0.64 0.49,-1.70 0.19,-2.28 -0.13,-0.26 -1.84,-2.41 -3.00,-0.93 -1.44,1.83 -1.53,4.23 -1.72,6.91 -0.20,-0.56 -1.35,-4.15 -5.02,-6.21 -0.27,-0.15 -0.81,0.13 -0.86,0.98 -0.03,0.49 -0.17,1.69 0.18,2.03 0.35,0.34 1.37,1.01 1.54,1.10 z M 350.36,14.30 c 0.18,-0.50 -0.04,-0.77 -0.29,-0.16 -0.25,0.61 -1.30,2.73 -1.14,5.22 0.04,0.58 0.42,1.70 1.29,1.73 0.45,0.00 1.03,-0.33 1.44,-1.74 0.07,-0.32 0.12,-0.57 0.15,-0.70 0.04,-0.19 -0.10,-0.42 -0.24,0.02 -0.33,0.86 -1.18,1.47 -1.82,0.31 -0.10,-0.23 -0.53,-1.28 0.26,-3.57 0.16,-0.44 0.36,-1.11 0.36,-1.11 z M 324.25,20.27 c 0.49,0.00 1.11,-0.35 1.55,-1.87 0.08,-0.34 0.13,-0.62 0.16,-0.75 0.05,-0.21 -0.10,-0.45 -0.26,0.02 -0.35,0.93 -1.27,1.58 -1.96,0.33 -0.11,-0.25 -0.58,-1.38 0.28,-3.86 0.17,-0.48 0.39,-1.20 0.39,-1.20 0.19,-0.54 -0.04,-0.84 -0.31,-0.17 -0.27,0.66 -1.40,2.94 -1.23,5.64 0.04,0.62 0.45,1.83 1.39,1.86 z M 347.60,6.37 c 0.79,0.58 1.94,1.04 1.94,1.04 -3.66,4.49 -10.85,7.68 -12.56,9.01 -0.51,0.39 -0.44,0.61 -0.12,0.53 0.28,-0.08 5.76,-1.61 10.76,-5.90 2.29,-1.97 2.23,-2.11 2.81,-3.31 0.50,0.26 0.84,0.67 1.03,0.91 0.28,0.34 0.43,0.60 0.56,0.23 0.48,-1.33 -0.20,-2.13 -0.84,-2.54 0.00,0.00 0.67,-2.07 -0.56,-4.14 -0.21,-0.35 -1.43,-1.46 -2.85,0.74 -0.55,0.84 -0.96,2.85 -0.17,3.42 z M 348.33,4.34 c 0.73,-1.02 1.08,-0.98 1.36,-0.82 0.82,0.77 0.70,2.03 0.67,2.31 0.00,0.00 -1.05,-0.49 -1.52,-0.70 -0.47,-0.20 -0.72,-0.50 -0.50,-0.80 z M 306.56,12.30 c 0.25,-0.16 13.84,-8.02 14.32,-8.31 0.46,-0.29 0.72,-0.41 0.90,-0.85 0.18,-0.44 0.23,-0.52 0.33,-0.82 0.11,-0.32 0.21,-0.67 -0.61,-0.19 -0.53,0.31 -14.04,8.11 -14.59,8.46 -0.55,0.35 -0.74,0.44 -0.83,0.87 -0.09,0.42 -0.13,0.67 -0.15,0.73 -0.10,0.28 -0.17,0.63 0.64,0.10 z M 297.46,14.16 c -0.06,-0.05 -0.15,-0.03 -0.20,0.04 -1.53,2.10 -1.53,2.10 -1.53,2.10 -0.05,0.07 -0.04,0.16 0.03,0.21 2.61,1.91 2.61,1.91 2.61,1.91 0.06,0.05 0.15,0.03 0.20,-0.04 1.32,-1.81 1.32,-1.81 1.32,-1.81 2.54,1.85 2.54,1.85 2.54,1.85 0.06,0.05 0.15,0.03 0.20,-0.04 1.53,-2.10 1.53,-2.10 1.53,-2.10 0.05,-0.07 0.04,-0.16 -0.03,-0.21 -2.61,-1.91 -2.61,-1.91 -2.61,-1.91 -0.06,-0.05 -0.15,-0.03 -0.20,0.04 -1.32,1.81 -1.32,1.81 -1.32,1.81 z M 352.73,37.21 c -0.24,0.68 -0.34,1.12 -0.31,1.38 0.03,0.26 0.12,1.10 0.12,1.10 -0.25,0.20 -1.33,0.87 -2.40,0.08 0.07,-0.23 0.21,-0.70 0.24,-0.95 0.12,-0.40 -0.13,-0.69 -0.32,-0.28 -0.20,0.41 -0.65,1.79 -0.99,2.10 -0.34,0.31 -0.73,1.45 -3.30,0.29 -0.45,-0.17 -1.23,-0.75 -2.46,0.48 -2.77,2.57 -4.68,2.78 -7.79,3.88 -0.38,0.17 -1.16,0.77 -0.23,0.67 0.94,-0.09 4.87,0.00 7.01,-2.46 0.45,-0.43 0.96,-1.58 2.66,-0.92 0.94,0.36 2.68,1.85 4.58,-1.10 1.12,0.75 2.82,0.45 3.09,-0.38 0.27,-0.82 0.58,-1.64 0.58,-2.20 0.00,-0.56 -0.05,-1.30 -0.05,-1.30 -0.04,-0.44 -0.19,-1.07 -0.44,-0.40 z M 289.87,13.78 c 0.17,-0.04 3.05,-0.49 6.41,-3.05 1.82,-1.38 2.92,-3.74 2.92,-3.74 0.00,0.00 0.91,0.76 1.03,0.91 0.28,0.34 0.43,0.60 0.56,0.23 0.48,-1.33 -0.20,-2.13 -0.84,-2.54 0.00,0.00 0.67,-2.07 -0.56,-4.14 -0.21,-0.35 -1.43,-1.46 -2.85,0.74 -0.55,0.84 -0.96,2.85 -0.17,3.42 0.79,0.58 1.94,1.04 1.94,1.04 -3.66,4.49 -6.16,5.34 -8.30,6.60 -0.55,0.32 -0.44,0.61 -0.12,0.53 z M 297.59,4.39 c -0.47,-0.20 -0.72,-0.50 -0.50,-0.80 0.73,-1.02 1.08,-0.99 1.36,-0.82 0.82,0.77 0.70,2.03 0.67,2.31 0.00,0.00 -1.05,-0.49 -1.52,-0.69 z M 296.83,23.91 c 0.00,0.00 1.25,-0.31 1.47,-0.38 0.22,-0.06 0.34,-0.35 -0.05,-0.55 -0.39,-0.20 -4.09,-1.67 -4.37,-1.79 -0.28,-0.11 -0.38,-0.24 -0.41,0.06 -0.02,0.30 -0.07,2.73 -0.07,2.73 0.00,0.00 -0.06,0.17 0.27,0.35 0.32,0.18 0.64,0.58 0.90,0.84 0.26,0.26 3.70,2.98 3.87,3.07 0.00,0.00 -1.72,3.02 -1.94,5.38 -0.22,2.36 0.04,5.63 3.27,4.57 0.87,-0.25 4.49,-1.69 5.30,-4.21 0.26,-0.93 1.01,-2.61 -0.21,-4.31 -0.70,-1.00 -3.53,-2.69 -3.53,-2.69 0.00,0.00 2.17,-3.00 2.38,-3.37 0.21,-0.37 1.01,-2.69 1.09,-3.26 0.09,-0.56 0.13,-0.84 -0.29,-0.32 -0.42,0.52 -4.63,6.05 -4.63,6.05 z M 303.79,32.79 c -1.20,0.99 -3.72,2.29 -4.43,2.36 -0.71,0.07 -2.59,-0.28 -1.77,-2.20 0.28,-0.62 2.16,-3.84 2.16,-3.84 0.70,0.39 5.24,2.70 4.04,3.69 z M 355.94,24.89 c -0.25,-0.28 -0.37,-0.01 -0.46,0.31 -0.09,0.32 -0.36,1.52 -0.54,2.27 0.00,0.00 0.71,1.16 0.97,1.75 0.25,0.59 -0.12,0.92 -0.86,1.01 -2.08,0.25 -3.73,-0.94 -4.30,-1.48 -0.57,-0.55 0.05,-1.52 0.51,-2.68 0.37,-0.93 -0.32,-1.04 -0.84,0.00 -1.76,4.63 -4.23,5.12 -4.88,5.30 -5.86,1.60 -5.36,-3.76 -5.34,-4.64 0.02,-0.88 -0.62,-0.55 -1.34,0.03 -2.47,1.98 -4.45,3.14 -5.52,3.62 -0.92,-1.80 -2.26,-2.93 -2.82,-3.34 -6.34,-4.63 -6.87,4.71 -6.67,5.71 0.97,3.97 7.45,1.56 8.46,1.44 1.02,-0.12 0.68,1.22 0.11,2.02 -1.41,1.97 -3.03,3.38 -4.50,4.58 -6.28,5.13 -9.44,4.72 -10.41,4.69 -6.17,-0.17 -5.60,-6.82 -5.26,-8.24 1.86,-1.57 3.45,-3.28 4.38,-5.04 0.38,-0.96 1.03,-3.16 -0.15,-5.91 -0.62,-1.21 -2.56,-4.60 -2.56,-4.60 0.00,0.00 1.43,0.04 1.57,0.04 0.14,0.00 0.41,-0.14 0.06,-0.54 -0.35,-0.40 -3.36,-3.40 -3.54,-3.65 -0.18,-0.24 -0.35,-0.42 -0.45,-0.06 -0.10,0.36 -0.36,1.88 -0.42,2.20 -0.06,0.31 -0.06,0.63 0.10,0.90 0.16,0.27 0.55,1.20 0.84,1.96 0.29,0.76 3.25,6.47 3.53,6.98 0.27,0.51 0.33,0.88 0.06,1.22 -9.53,10.05 -27.91,16.23 -28.50,16.57 -0.59,0.34 -0.43,0.61 0.56,0.43 1.48,-0.26 9.74,-1.64 12.09,-2.77 1.55,-0.75 6.97,-3.41 11.41,-6.89 -0.12,0.90 -0.24,2.22 -0.17,3.89 0.30,8.08 7.53,6.74 9.43,6.33 5.68,-1.25 12.64,-9.11 13.23,-10.69 0.58,-1.56 0.67,-2.98 0.54,-4.22 1.50,-0.81 4.71,-3.40 4.71,-3.40 0.13,3.45 2.87,4.48 3.72,4.63 3.96,0.60 5.94,-2.71 6.78,-3.78 0.72,1.89 2.45,2.25 3.34,2.43 3.41,0.68 4.08,-1.74 4.25,-2.29 1.07,-3.33 -0.86,-5.81 -1.11,-6.08 z M 327.30,31.57 c -2.03,-0.14 -1.85,-0.92 -1.57,-1.22 0.30,-0.33 2.78,-1.89 4.85,0.89 0.00,0.00 -0.86,0.50 -3.28,0.33 z M 279.57,22.48 c -2.36,-14.38 -2.36,-14.38 -2.36,-14.38 0.00,0.00 1.58,1.32 1.83,1.59 0.25,0.26 0.55,0.12 0.41,-0.30 -0.14,-0.42 -3.11,-7.81 -3.22,-8.08 -0.10,-0.27 -0.20,-0.46 -0.33,-0.15 -0.13,0.31 -1.15,2.55 -1.15,2.55 0.03,0.18 0.27,0.73 0.43,1.87 0.17,1.18 0.42,2.86 0.69,4.72 0.13,1.16 2.77,18.13 2.97,19.82 0.20,1.69 0.85,4.63 0.05,5.18 -0.80,0.55 -2.08,1.13 -4.33,0.70 -0.14,-0.03 -0.64,-0.16 -1.29,-0.38 0.59,-0.83 1.09,-1.85 1.33,-3.11 0.17,-0.63 0.53,-3.19 -1.07,-5.03 -0.35,-0.31 -1.44,-1.18 -2.84,0.20 -1.40,1.38 -2.43,3.61 -2.77,4.78 -0.20,0.71 -0.50,2.38 0.45,3.87 -0.58,0.28 -1.03,0.48 -1.25,0.56 -0.77,0.28 -7.63,2.93 -10.22,-1.33 -0.41,-0.70 -1.37,-2.90 -0.39,-5.44 0.00,0.00 0.00,0.00 0.00,0.00 3.05,-1.53 6.76,-3.45 6.76,-3.45 0.43,-0.91 1.29,-3.49 1.29,-3.49 -0.83,-0.25 -15.78,-2.55 -21.75,-1.26 -1.47,0.33 -4.98,0.86 -5.03,4.88 0.18,1.01 0.83,2.35 1.92,3.09 0.41,0.24 2.07,1.26 3.54,2.78 -0.26,0.09 -0.50,0.18 -0.74,0.26 -9.23,3.14 -15.01,10.56 -16.14,11.60 -1.06,0.97 -3.58,2.69 -5.63,1.10 -0.71,-0.48 -1.89,-1.68 -1.16,-4.71 0.25,-1.19 1.95,-5.51 3.57,-7.79 0.07,-0.10 0.12,-0.20 0.15,-0.29 0.77,-0.12 1.73,-0.91 2.56,-3.47 0.17,-0.66 0.29,-1.19 0.36,-1.45 0.11,-0.39 -0.12,-0.89 -0.45,0.01 -0.72,1.78 -2.36,2.95 -3.37,0.43 -0.16,-0.50 -0.80,-2.76 0.96,-7.49 0.35,-0.92 0.81,-2.29 0.81,-2.29 0.39,-1.03 0.04,-1.63 -0.50,-0.38 -0.54,1.26 -2.75,5.59 -2.81,10.85 -0.01,1.01 0.36,2.82 1.38,3.52 -0.69,1.03 -2.65,4.60 -3.43,7.53 -0.81,3.01 -0.89,8.52 4.58,8.93 0.99,0.02 3.16,-0.45 5.92,-3.59 1.09,-1.21 6.52,-6.88 11.35,-8.62 0.63,-0.23 2.40,-0.93 4.40,-1.74 0.20,0.37 0.36,0.76 0.49,1.16 0.15,0.47 0.28,0.61 0.56,-0.05 0.12,-0.29 0.34,-0.86 0.32,-1.66 2.75,-1.12 5.57,-2.27 6.36,-2.59 0.41,-0.16 1.37,-0.62 2.54,-1.21 -0.46,2.08 -1.44,7.38 2.90,9.62 0.74,0.35 5.18,2.25 11.58,-1.77 0.11,-0.07 0.38,-0.21 0.73,-0.43 0.41,0.20 0.88,0.38 1.42,0.52 0.65,0.18 5.14,1.79 7.23,-0.87 0.39,-0.53 1.81,-3.34 1.44,-7.04 -0.06,-0.94 -1.05,-8.24 -1.05,-8.24 z M 245.53,31.78 c -0.28,-0.46 -0.65,-0.94 -1.12,-1.45 -0.72,-0.78 -3.84,-3.01 -4.15,-3.31 -0.30,-0.30 -1.42,-0.83 -0.10,-1.39 1.31,-0.56 6.55,-2.02 19.60,-0.10 0.39,0.06 -2.07,1.21 -3.06,1.67 -0.79,0.37 -6.63,2.85 -11.17,4.59 z M 271.20,34.81 c -0.72,-0.33 -1.40,-0.73 -1.88,-1.17 -0.35,-0.30 -0.63,-0.37 -0.26,-1.07 0.37,-0.70 1.44,-2.14 1.99,-2.32 0.55,-0.19 1.48,-0.15 1.95,0.92 0.48,1.07 0.66,1.86 0.28,2.23 -0.49,0.43 -1.26,0.92 -2.09,1.41 z" />
     </g>
</svg>
