<?xml version="1.0" encoding="UTF-8"?>
<svg version="1.1" id="Layer_1" x="0px" y="0px" width="578" height="51" viewBox="0 0 578 51"
xml:space="preserve" xmlns="http://www.w3.org/2000/svg" xmlns:svg="http://www.w3.org/2000/svg" xmlns:rdf="http://www.w3.org/1999/02/22-rdf-syntax-ns#"  xmlns:cc="http://creativecommons.org/ns#" xmlns:dc="http://purl.org/dc/elements/1.1/">
     <g>
<path d="M 253.62,37.73 c -1.92,2.63 -1.92,2.63 -1.92,2.63 -0.06,0.08 -0.05,0.20 0.03,0.25 3.27,2.38 3.27,2.38 3.27,2.38 0.08,0.06 0.19,0.04 0.25,-0.05 1.91,-2.63 1.91,-2.63 1.91,-2.63 0.06,-0.08 0.05,-0.20 -0.03,-0.25 -3.27,-2.38 -3.27,-2.38 -3.27,-2.38 -0.08,-0.06 -0.19,-0.04 -0.25,0.05 z M 226.56,20.78 c -1.53,2.10 -1.53,2.10 -1.53,2.10 -0.05,0.07 -0.04,0.16 0.03,0.20 2.61,1.91 2.61,1.91 2.61,1.91 0.06,0.05 0.15,0.03 0.20,-0.04 1.32,-1.81 1.32,-1.81 1.32,-1.81 2.54,1.85 2.54,1.85 2.54,1.85 0.06,0.05 0.15,0.03 0.20,-0.04 1.53,-2.10 1.53,-2.10 1.53,-2.10 0.05,-0.07 0.04,-0.16 -0.03,-0.21 -2.61,-1.91 -2.61,-1.91 -2.61,-1.91 -0.06,-0.05 -0.15,-0.03 -0.20,0.04 -1.32,1.81 -1.32,1.81 -1.32,1.81 -2.54,-1.85 -2.54,-1.85 -2.54,-1.85 -0.06,-0.05 -0.15,-0.03 -0.20,0.04 z M 274.14,20.64 c -1.32,1.81 -1.32,1.81 -1.32,1.81 -2.54,-1.85 -2.54,-1.85 -2.54,-1.85 -0.06,-0.05 -0.15,-0.03 -0.20,0.04 -1.53,2.10 -1.53,2.10 -1.53,2.10 -0.05,0.07 -0.04,0.16 0.03,0.20 2.61,1.91 2.61,1.91 2.61,1.91 0.06,0.05 0.15,0.03 0.20,-0.04 1.32,-1.81 1.32,-1.81 1.32,-1.81 2.54,1.85 2.54,1.85 2.54,1.85 0.06,0.05 0.15,0.03 0.20,-0.04 1.53,-2.10 1.53,-2.10 1.53,-2.10 0.05,-0.07 0.04,-0.16 -0.03,-0.20 -2.62,-1.91 -2.62,-1.91 -2.62,-1.91 -0.06,-0.05 -0.15,-0.03 -0.20,0.04 z M 220.51,9.42 c 0.16,0.09 0.34,0.10 0.39,-0.09 0.05,-0.20 0.27,-0.65 0.59,-0.32 0.27,0.27 1.99,1.69 2.88,4.71 0.15,0.40 0.53,0.44 0.61,-0.13 0.21,-1.39 0.32,-3.82 0.43,-4.56 0.16,-1.03 0.65,-3.16 1.96,-2.06 0.30,0.25 0.61,0.58 0.61,0.58 0.28,0.35 0.63,0.75 0.80,0.35 0.26,-0.61 0.46,-1.62 0.18,-2.17 -0.12,-0.24 -1.75,-2.29 -2.85,-0.89 -1.37,1.74 -1.46,4.03 -1.64,6.58 -0.19,-0.53 -1.29,-3.95 -4.78,-5.91 -0.25,-0.14 -0.77,0.13 -0.82,0.93 -0.03,0.47 -0.16,1.61 0.17,1.93 0.33,0.32 1.31,0.96 1.47,1.04 z M 239.07,41.22 c -0.53,0.31 -13.75,6.68 -14.30,7.03 -0.55,0.35 -0.74,0.44 -0.83,0.86 -0.09,0.42 -0.14,0.67 -0.16,0.73 -0.10,0.28 -0.17,0.63 0.64,0.11 0.25,-0.16 13.58,-6.59 14.03,-6.89 0.45,-0.29 0.72,-0.40 0.91,-0.84 0.19,-0.44 0.23,-0.51 0.33,-0.82 0.11,-0.32 0.21,-0.67 -0.61,-0.19 z M 252.29,14.37 c -0.12,0.58 -0.18,0.91 -0.21,1.00 -0.14,0.39 -0.23,0.86 0.87,0.14 0.34,-0.22 21.53,-10.40 22.15,-10.81 0.61,-0.41 0.99,-0.56 1.24,-1.16 0.25,-0.60 0.31,-0.70 0.45,-1.12 0.14,-0.44 0.29,-0.91 -0.84,-0.25 -0.72,0.42 -21.78,10.53 -22.52,11.01 -0.75,0.48 -1.01,0.61 -1.13,1.18 z M 273.81,42.10 c -0.42,-0.10 -1.03,0.06 -1.74,1.28 -0.14,0.28 -0.24,0.51 -0.30,0.62 -0.09,0.17 -0.01,0.41 0.23,0.04 0.51,-0.73 1.44,-1.09 1.76,0.14 0.04,0.24 0.20,1.31 -1.07,3.26 -0.25,0.38 -0.59,0.95 -0.59,0.95 -0.28,0.42 -0.15,0.73 0.23,0.22 0.38,-0.51 1.84,-2.23 2.27,-4.59 0.10,-0.54 0.01,-1.68 -0.79,-1.91 z M 288.79,40.70 c -0.40,-0.16 -1.03,-0.08 -1.91,1.02 -0.18,0.26 -0.31,0.47 -0.38,0.57 -0.11,0.15 -0.07,0.40 0.22,0.07 0.60,-0.65 1.58,-0.87 1.72,0.39 0.01,0.24 0.01,1.33 -1.52,3.07 -0.30,0.34 -0.72,0.85 -0.72,0.85 -0.34,0.38 -0.25,0.70 0.20,0.25 0.45,-0.45 2.14,-1.95 2.91,-4.21 0.18,-0.52 0.24,-1.66 -0.51,-2.00 z M 234.69,13.04 c 0.47,0.00 1.07,-0.34 1.50,-1.81 0.07,-0.33 0.12,-0.60 0.15,-0.73 0.05,-0.20 -0.10,-0.44 -0.25,0.02 -0.34,0.90 -1.23,1.53 -1.90,0.32 -0.11,-0.24 -0.56,-1.34 0.27,-3.73 0.17,-0.46 0.38,-1.16 0.38,-1.16 0.19,-0.52 -0.04,-0.81 -0.30,-0.17 -0.26,0.64 -1.36,2.85 -1.19,5.45 0.04,0.60 0.44,1.77 1.34,1.80 z M 244.30,18.91 c 0.19,-0.54 -0.04,-0.84 -0.31,-0.18 -0.27,0.67 -1.41,2.97 -1.24,5.68 0.04,0.63 0.46,1.85 1.40,1.88 0.49,0.00 1.12,-0.36 1.57,-1.89 0.08,-0.35 0.13,-0.62 0.16,-0.76 0.05,-0.21 -0.10,-0.45 -0.26,0.02 -0.36,0.94 -1.28,1.60 -1.98,0.34 -0.11,-0.25 -0.58,-1.39 0.28,-3.88 0.17,-0.48 0.39,-1.21 0.39,-1.21 z M 216.18,30.08 c 0.76,-0.05 1.71,-0.74 2.25,-3.53 0.09,-0.63 0.13,-1.13 0.17,-1.38 0.05,-0.38 -0.21,-0.81 -0.41,0.06 -0.46,1.72 -1.84,2.98 -3.06,0.78 -0.20,-0.44 -1.05,-2.45 0.04,-7.01 0.22,-0.88 0.49,-2.20 0.49,-2.20 0.25,-1.00 -0.15,-1.51 -0.51,-0.29 -0.36,1.22 -1.91,5.46 -1.36,10.32 0.13,1.12 0.90,3.28 2.38,3.26 z M 234.38,16.68 c -0.31,1.50 0.06,2.98 1.04,3.14 0.68,0.11 1.07,0.50 1.24,0.73 0.07,0.10 0.18,0.03 0.22,-0.04 0.77,-1.53 0.07,-2.49 -1.24,-2.87 -0.52,-0.15 -0.76,-0.88 1.18,-2.12 1.78,-1.15 19.42,-10.07 19.81,-10.35 0.53,-0.37 0.86,-0.52 1.07,-1.05 0.21,-0.53 0.26,-0.63 0.37,-1.00 0.12,-0.39 0.23,-0.81 -0.75,-0.21 -0.52,0.32 -19.88,9.96 -21.36,11.16 -0.74,0.60 -1.36,1.56 -1.58,2.59 z M 260.88,21.56 c -0.95,0.70 -1.60,1.11 -1.60,1.11 -0.62,0.44 -1.16,1.28 -0.07,0.81 1.09,-0.46 2.54,-1.19 3.65,-2.86 0.32,-0.49 0.70,-1.14 -0.80,-1.36 -1.50,-0.23 -3.93,-0.58 -4.71,0.28 -0.79,0.86 -1.03,1.44 -1.26,1.81 -0.32,0.50 0.08,0.73 0.45,0.34 0.36,-0.39 0.62,-0.79 1.68,-0.76 1.07,0.03 3.62,-0.07 2.66,0.63 z M 266.38,13.92 c -0.22,0.59 -0.64,1.73 -0.44,2.56 0.20,0.83 1.60,2.67 4.07,0.00 0.57,0.33 2.33,1.08 3.71,-1.67 0.51,-1.31 0.40,-3.08 0.40,-3.08 -0.06,-0.84 -0.24,-1.19 -0.60,-0.46 -0.36,0.74 -0.45,0.96 -0.43,1.30 0.01,0.33 0.12,1.41 0.00,1.68 -0.12,0.27 -1.66,1.13 -2.23,0.43 -0.19,-0.27 -0.02,-1.30 -0.02,-1.80 0.00,-0.50 -0.03,-1.07 -0.45,-0.39 -0.42,0.68 -0.36,0.92 -0.38,1.38 -0.01,0.46 0.11,1.04 -0.29,1.43 -0.40,0.40 -2.19,1.48 -2.92,0.02 -0.11,-0.30 0.00,-0.79 0.07,-1.17 0.07,-0.39 -0.26,-0.82 -0.48,-0.23 z M 282.76,10.61 c -0.12,-0.83 -0.20,-1.31 -0.20,-1.31 0.00,0.00 1.55,1.46 1.80,1.72 0.25,0.26 0.55,0.12 0.41,-0.30 -0.14,-0.42 -3.31,-8.09 -3.41,-8.36 -0.10,-0.27 -0.20,-0.46 -0.33,-0.15 -0.13,0.31 -0.88,2.38 -0.88,2.38 0.05,0.35 3.88,28.12 4.00,28.92 0.12,0.80 0.31,1.69 -0.29,2.13 -0.60,0.43 -4.30,2.24 -6.76,0.80 -0.53,-0.43 -2.68,-2.27 -2.00,-5.70 0.02,-0.63 0.12,-1.28 -1.06,-0.56 -1.18,0.72 -4.15,2.39 -5.29,2.78 0.00,0.00 -1.37,-2.67 -2.99,-3.82 -1.00,-0.70 -2.70,-1.28 -4.35,0.60 -1.64,1.88 -2.39,4.80 -0.60,6.54 1.79,1.74 6.66,0.07 6.83,0.02 0.17,-0.05 0.70,0.60 0.24,1.30 -0.46,0.70 -7.75,9.18 -14.42,8.98 -1.58,-0.07 -6.93,-2.01 -5.05,-8.98 0.06,-0.28 0.08,-0.50 0.05,-0.67 2.17,-0.84 3.85,-1.90 4.60,-2.68 0.68,-0.71 1.79,-3.97 0.91,-6.89 -0.41,-1.06 -1.92,-4.08 -2.33,-2.87 -0.41,1.21 -0.48,2.66 -0.48,2.66 0.65,0.91 2.72,3.26 1.64,4.10 -1.08,0.84 -5.77,4.51 -12.16,3.93 -1.04,-0.09 -5.05,-0.67 -7.19,-4.86 -0.28,-0.55 -1.30,-2.48 -3.46,-1.19 -2.16,1.29 -4.43,3.68 -5.27,6.00 -0.37,1.03 -1.62,5.12 -1.97,5.77 -0.35,0.65 -1.68,2.66 -3.52,1.53 -0.52,-0.35 -3.02,-2.07 -3.50,-6.41 -0.13,-1.12 -0.06,-3.64 -0.03,-4.33 0.03,-0.86 -0.51,-0.75 -0.60,-0.06 -0.09,0.66 -1.27,10.09 3.18,13.57 2.35,1.47 3.84,-0.26 4.12,-0.76 0.89,-1.23 3.47,-8.25 3.93,-9.11 1.29,-2.42 3.48,-3.24 4.67,-3.35 0.44,-0.04 0.98,0.41 1.17,0.69 0.86,1.36 3.18,4.63 6.19,5.31 3.18,0.72 6.52,0.18 9.25,-0.75 -0.05,0.12 -0.10,0.25 -0.14,0.40 -0.43,1.52 -1.95,10.13 3.73,11.68 1.52,0.40 8.18,1.82 16.86,-8.58 0.79,-1.25 1.15,-2.21 1.25,-4.92 0.33,-0.25 3.60,-2.03 3.92,-2.22 0.31,-0.19 0.38,-0.25 0.44,0.12 0.06,0.37 0.52,6.88 6.13,6.29 0.55,-0.07 3.13,-0.43 4.58,-1.83 0.71,-0.68 1.52,-2.97 1.36,-5.37 -0.09,-1.01 -2.98,-22.22 -2.98,-22.22 z M 262.33,33.81 c -0.94,-0.14 -0.75,-1.03 -0.39,-1.36 0.29,-0.27 2.20,-1.60 3.99,1.15 0.00,0.00 -1.34,0.55 -3.59,0.21 z M 292.74,34.87 c 0.39,3.09 0.69,5.88 0.73,7.37 -0.04,0.46 0.17,0.64 0.38,0.19 0.11,-0.24 0.59,-1.22 0.73,-3.80 0.11,-1.94 -0.05,-4.91 -0.60,-9.01 -0.08,-0.60 -2.95,-21.37 -2.95,-21.37 0.00,0.00 1.55,1.46 1.80,1.72 0.25,0.26 0.55,0.12 0.41,-0.30 -0.14,-0.42 -3.31,-8.09 -3.42,-8.36 -0.10,-0.27 -0.20,-0.46 -0.33,-0.15 -0.13,0.31 -1.08,2.64 -1.08,2.64 0.02,0.14 0.28,1.16 0.33,1.54 0.44,3.37 3.20,23.25 3.99,29.54 z M 352.28,6.37 c 0.79,0.58 1.94,1.04 1.94,1.04 -3.66,4.49 -10.85,7.67 -12.56,9.01 -0.51,0.39 -0.44,0.61 -0.12,0.53 0.28,-0.08 5.76,-1.61 10.76,-5.90 2.29,-1.97 2.23,-2.11 2.81,-3.31 0.50,0.26 0.84,0.67 1.03,0.91 0.28,0.34 0.43,0.60 0.56,0.23 0.48,-1.33 -0.20,-2.13 -0.84,-2.54 0.00,0.00 0.67,-2.07 -0.56,-4.14 -0.21,-0.35 -1.43,-1.46 -2.85,0.74 -0.55,0.84 -0.96,2.85 -0.17,3.42 z M 353.01,4.34 c 0.73,-1.02 1.08,-0.99 1.36,-0.82 0.82,0.77 0.70,2.02 0.67,2.31 0.00,0.00 -1.05,-0.49 -1.52,-0.69 -0.47,-0.20 -0.72,-0.50 -0.50,-0.80 z M 334.43,7.03 c 0.17,0.09 0.36,0.11 0.41,-0.10 0.05,-0.21 0.28,-0.68 0.62,-0.34 0.28,0.28 2.09,1.78 3.03,4.95 0.16,0.42 0.55,0.46 0.64,-0.14 0.22,-1.47 0.34,-4.02 0.45,-4.79 0.16,-1.09 0.68,-3.32 2.06,-2.16 0.31,0.26 0.64,0.61 0.64,0.61 0.29,0.37 0.66,0.79 0.84,0.36 0.27,-0.64 0.49,-1.70 0.19,-2.28 -0.13,-0.26 -1.84,-2.41 -3.00,-0.93 -1.44,1.83 -1.53,4.23 -1.72,6.91 -0.20,-0.56 -1.35,-4.16 -5.02,-6.21 -0.27,-0.15 -0.81,0.13 -0.86,0.98 -0.03,0.49 -0.17,1.69 0.18,2.03 0.35,0.34 1.37,1.00 1.54,1.10 z M 355.04,14.30 c 0.18,-0.50 -0.04,-0.77 -0.29,-0.16 -0.25,0.61 -1.30,2.73 -1.14,5.22 0.04,0.58 0.42,1.70 1.29,1.73 0.45,0.00 1.03,-0.33 1.44,-1.73 0.07,-0.32 0.12,-0.57 0.15,-0.70 0.04,-0.19 -0.10,-0.42 -0.24,0.02 -0.33,0.86 -1.18,1.46 -1.82,0.31 -0.10,-0.23 -0.53,-1.28 0.26,-3.57 0.16,-0.44 0.36,-1.11 0.36,-1.11 z M 311.23,12.30 c 0.25,-0.16 13.84,-8.02 14.32,-8.31 0.46,-0.28 0.72,-0.41 0.90,-0.85 0.18,-0.44 0.23,-0.51 0.33,-0.82 0.11,-0.32 0.21,-0.67 -0.61,-0.19 -0.53,0.31 -14.04,8.11 -14.59,8.46 -0.55,0.35 -0.74,0.44 -0.83,0.87 -0.09,0.42 -0.13,0.67 -0.15,0.73 -0.10,0.28 -0.17,0.63 0.64,0.10 z M 328.93,20.27 c 0.49,0.00 1.11,-0.35 1.55,-1.87 0.08,-0.34 0.13,-0.62 0.16,-0.75 0.05,-0.21 -0.10,-0.45 -0.26,0.02 -0.36,0.93 -1.28,1.58 -1.96,0.33 -0.11,-0.25 -0.58,-1.38 0.28,-3.86 0.17,-0.48 0.39,-1.20 0.39,-1.20 0.19,-0.54 -0.04,-0.84 -0.31,-0.17 -0.27,0.66 -1.40,2.94 -1.23,5.63 0.04,0.62 0.45,1.83 1.39,1.87 z M 301.51,23.91 c 0.00,0.00 1.25,-0.31 1.47,-0.38 0.22,-0.06 0.34,-0.35 -0.05,-0.55 -0.39,-0.20 -4.09,-1.67 -4.37,-1.79 -0.28,-0.11 -0.38,-0.24 -0.41,0.06 -0.02,0.30 -0.07,2.73 -0.07,2.73 0.00,0.00 -0.06,0.17 0.27,0.35 0.32,0.18 0.64,0.58 0.90,0.84 0.26,0.26 3.70,2.98 3.87,3.07 0.00,0.00 -1.72,3.02 -1.94,5.38 -0.22,2.36 0.04,5.63 3.27,4.57 0.87,-0.25 4.49,-1.69 5.30,-4.21 0.26,-0.93 1.01,-2.61 -0.21,-4.31 -0.70,-1.00 -3.53,-2.69 -3.53,-2.69 0.00,0.00 2.17,-3.00 2.38,-3.37 0.21,-0.37 1.01,-2.69 1.09,-3.26 0.09,-0.56 0.13,-0.84 -0.29,-0.32 -0.42,0.52 -4.63,6.05 -4.63,6.05 z M 308.46,32.79 c -1.20,0.99 -3.72,2.29 -4.43,2.36 -0.71,0.07 -2.59,-0.28 -1.77,-2.20 0.28,-0.62 2.16,-3.84 2.16,-3.84 0.70,0.39 5.24,2.70 4.04,3.69 z M 357.41,37.21 c -0.24,0.68 -0.34,1.12 -0.31,1.38 0.03,0.26 0.12,1.10 0.12,1.10 -0.25,0.20 -1.33,0.87 -2.40,0.08 0.07,-0.23 0.21,-0.70 0.24,-0.95 0.12,-0.40 -0.13,-0.69 -0.32,-0.28 -0.20,0.41 -0.65,1.79 -0.99,2.10 -0.34,0.31 -0.73,1.45 -3.30,0.29 -0.45,-0.17 -1.23,-0.75 -2.46,0.48 -2.77,2.57 -4.68,2.77 -7.79,3.88 -0.38,0.17 -1.16,0.77 -0.23,0.67 0.94,-0.09 4.87,0.00 7.01,-2.46 0.45,-0.43 0.96,-1.58 2.66,-0.92 0.94,0.36 2.68,1.85 4.58,-1.10 1.12,0.75 2.82,0.45 3.09,-0.38 0.27,-0.82 0.58,-1.64 0.58,-2.20 0.00,-0.56 -0.05,-1.30 -0.05,-1.30 -0.04,-0.44 -0.19,-1.07 -0.44,-0.40 z M 360.62,24.89 c -0.25,-0.28 -0.37,-0.01 -0.46,0.31 -0.09,0.32 -0.36,1.52 -0.54,2.27 0.00,0.00 0.71,1.16 0.97,1.76 0.25,0.59 -0.12,0.92 -0.86,1.01 -2.08,0.25 -3.73,-0.94 -4.30,-1.48 -0.57,-0.55 0.05,-1.52 0.51,-2.68 0.37,-0.93 -0.32,-1.04 -0.84,0.00 -1.76,4.63 -4.23,5.13 -4.88,5.30 -5.86,1.60 -5.36,-3.76 -5.34,-4.64 0.02,-0.88 -0.62,-0.55 -1.34,0.03 -2.47,1.98 -4.45,3.14 -5.52,3.62 -0.92,-1.80 -2.26,-2.93 -2.82,-3.34 -6.34,-4.63 -6.87,4.71 -6.68,5.71 0.97,3.97 7.45,1.56 8.46,1.44 1.02,-0.12 0.68,1.22 0.11,2.02 -1.41,1.97 -3.03,3.38 -4.50,4.58 -6.28,5.13 -9.44,4.72 -10.41,4.69 -6.17,-0.17 -5.60,-6.82 -5.26,-8.24 1.86,-1.57 3.45,-3.28 4.38,-5.04 0.38,-0.96 1.03,-3.16 -0.15,-5.91 -0.62,-1.21 -2.56,-4.61 -2.56,-4.61 0.00,0.00 1.43,0.04 1.57,0.04 0.14,0.00 0.41,-0.14 0.06,-0.54 -0.35,-0.40 -3.36,-3.40 -3.54,-3.65 -0.18,-0.24 -0.35,-0.41 -0.45,-0.06 -0.10,0.36 -0.36,1.88 -0.42,2.20 -0.06,0.31 -0.06,0.63 0.10,0.90 0.16,0.27 0.55,1.20 0.84,1.96 0.29,0.76 3.25,6.47 3.53,6.98 0.27,0.51 0.33,0.88 0.06,1.22 -9.53,10.05 -27.91,16.23 -28.50,16.58 -0.59,0.34 -0.43,0.61 0.56,0.43 1.48,-0.26 9.74,-1.64 12.09,-2.77 1.55,-0.75 6.97,-3.41 11.41,-6.89 -0.12,0.90 -0.24,2.22 -0.17,3.89 0.30,8.08 7.53,6.74 9.43,6.33 5.68,-1.25 12.64,-9.11 13.23,-10.69 0.58,-1.56 0.67,-2.98 0.54,-4.22 1.50,-0.81 4.71,-3.40 4.71,-3.40 0.13,3.45 2.87,4.48 3.72,4.63 3.96,0.60 5.94,-2.70 6.78,-3.78 0.72,1.89 2.45,2.26 3.34,2.43 3.41,0.68 4.08,-1.73 4.25,-2.29 1.07,-3.33 -0.86,-5.81 -1.11,-6.08 z M 331.98,31.57 c -2.02,-0.14 -1.85,-0.92 -1.57,-1.22 0.30,-0.33 2.78,-1.89 4.85,0.89 0.00,0.00 -0.86,0.50 -3.28,0.33 z M 294.55,13.78 c 0.17,-0.04 3.05,-0.49 6.41,-3.05 1.82,-1.38 2.92,-3.74 2.92,-3.74 0.00,0.00 0.91,0.76 1.03,0.91 0.28,0.34 0.43,0.60 0.56,0.23 0.48,-1.33 -0.20,-2.13 -0.84,-2.54 0.00,0.00 0.67,-2.07 -0.56,-4.14 -0.21,-0.35 -1.43,-1.46 -2.85,0.74 -0.55,0.84 -0.96,2.85 -0.17,3.42 0.79,0.58 1.94,1.04 1.94,1.04 -3.66,4.49 -6.16,5.34 -8.30,6.60 -0.55,0.32 -0.44,0.61 -0.12,0.52 z M 302.27,4.39 c -0.47,-0.20 -0.72,-0.50 -0.50,-0.80 0.73,-1.02 1.08,-0.99 1.36,-0.82 0.82,0.77 0.70,2.02 0.67,2.31 0.00,0.00 -1.05,-0.49 -1.52,-0.69 z M 302.13,14.16 c -0.06,-0.05 -0.15,-0.03 -0.20,0.04 -1.53,2.10 -1.53,2.10 -1.53,2.10 -0.05,0.07 -0.04,0.16 0.03,0.20 2.61,1.91 2.61,1.91 2.61,1.91 0.06,0.05 0.15,0.03 0.20,-0.04 1.32,-1.81 1.32,-1.81 1.32,-1.81 2.54,1.85 2.54,1.85 2.54,1.85 0.06,0.05 0.15,0.03 0.20,-0.04 1.53,-2.10 1.53,-2.10 1.53,-2.10 0.05,-0.07 0.04,-0.16 -0.03,-0.20 -2.61,-1.91 -2.61,-1.91 -2.61,-1.91 -0.06,-0.05 -0.15,-0.03 -0.20,0.04 -1.32,1.81 -1.32,1.81 -1.32,1.81 z" />
     </g>
</svg>
