<?xml version="1.0" encoding="UTF-8"?>
<svg version="1.1" id="Layer_1" x="0px" y="0px" width="578" height="53" viewBox="0 0 578 53"
xml:space="preserve" xmlns="http://www.w3.org/2000/svg" xmlns:svg="http://www.w3.org/2000/svg" xmlns:rdf="http://www.w3.org/1999/02/22-rdf-syntax-ns#"  xmlns:cc="http://creativecommons.org/ns#" xmlns:dc="http://purl.org/dc/elements/1.1/">
     <g>
<path d="M 275.42,44.81 c -1.92,2.63 -1.92,2.63 -1.92,2.63 -0.06,0.08 -0.05,0.20 0.03,0.25 3.27,2.38 3.27,2.38 3.27,2.38 0.08,0.06 0.19,0.04 0.25,-0.05 1.91,-2.63 1.91,-2.63 1.91,-2.63 0.06,-0.08 0.05,-0.20 -0.03,-0.25 -3.27,-2.38 -3.27,-2.38 -3.27,-2.38 -0.08,-0.06 -0.19,-0.04 -0.25,0.05 z M 293.21,38.26 c 0.39,3.09 0.69,5.88 0.73,7.37 -0.04,0.46 0.17,0.64 0.38,0.19 0.11,-0.24 0.59,-1.22 0.73,-3.80 0.11,-1.94 -0.04,-4.91 -0.60,-9.01 -0.08,-0.60 -2.95,-21.37 -2.95,-21.37 0.00,0.00 1.55,1.46 1.80,1.72 0.25,0.26 0.55,0.12 0.41,-0.30 -0.14,-0.42 -3.31,-8.09 -3.42,-8.36 -0.10,-0.27 -0.20,-0.46 -0.33,-0.15 -0.13,0.31 -1.08,2.64 -1.08,2.64 0.02,0.14 0.28,1.15 0.33,1.54 0.44,3.37 3.20,23.25 3.99,29.54 z M 287.46,30.02 c -0.29,-1.69 -3.29,-18.38 -3.29,-18.38 0.00,0.00 1.37,1.18 1.61,1.45 0.25,0.26 0.55,0.12 0.41,-0.30 -0.14,-0.42 -3.13,-7.82 -3.23,-8.09 -0.10,-0.27 -0.20,-0.46 -0.33,-0.15 -0.13,0.31 -1.15,2.55 -1.15,2.55 0.03,0.18 0.27,0.73 0.43,1.87 0.17,1.18 4.69,27.19 4.86,28.04 0.17,0.85 0.40,2.06 -0.06,2.49 -0.46,0.43 -3.10,2.31 -5.65,1.24 -0.36,-0.13 -1.50,-0.76 -1.96,-2.67 -0.12,-0.66 -0.02,-1.71 0.05,-2.14 0.07,-0.43 0.03,-0.64 -0.41,-0.36 -0.44,0.28 -9.90,7.10 -16.92,7.25 -1.29,0.03 -9.27,0.92 -10.79,-7.75 -0.26,-1.58 -3.89,-25.87 -4.16,-26.83 -0.26,-0.96 -0.40,-1.22 -0.63,-0.69 -0.23,0.53 -1.09,2.31 -0.92,3.47 0.16,1.16 2.94,19.56 3.16,21.32 0.22,1.76 1.54,7.96 0.66,8.80 -0.88,0.84 -3.68,2.96 -6.82,1.58 -1.55,-0.68 -2.91,-1.45 -3.78,-4.40 -0.53,-1.80 -0.98,-6.52 -1.72,-9.02 -1.99,-6.81 -6.46,-13.72 -6.69,-12.16 -0.06,0.43 -0.14,2.90 -0.14,2.90 0.32,0.69 5.21,9.30 6.18,15.23 0.06,0.30 0.16,1.05 -0.61,2.03 -0.77,0.97 -6.96,7.28 -11.56,8.77 -1.02,0.33 -4.50,1.90 -5.99,-1.25 -0.20,-0.42 -1.50,-2.66 1.40,-10.40 0.06,-0.16 0.11,-0.36 0.14,-0.54 0.22,0.12 0.47,0.19 0.74,0.19 0.76,-0.05 1.71,-0.74 2.25,-3.53 0.08,-0.63 0.13,-1.13 0.17,-1.38 0.05,-0.38 -0.21,-0.81 -0.41,0.06 -0.46,1.72 -1.84,2.98 -3.06,0.78 -0.20,-0.44 -1.05,-2.45 0.04,-7.01 0.22,-0.89 0.49,-2.20 0.49,-2.20 0.25,-1.00 -0.15,-1.51 -0.51,-0.29 -0.36,1.22 -1.91,5.46 -1.36,10.32 0.09,0.75 0.46,1.96 1.14,2.67 -0.04,0.07 -0.09,0.15 -0.13,0.25 -0.79,1.55 -6.13,14.76 0.79,16.01 1.41,0.25 7.23,0.33 14.72,-7.85 0.48,-0.52 2.17,-2.30 2.27,-4.38 0.00,0.00 0.34,6.45 5.37,8.40 0.81,0.31 4.09,1.41 7.22,-1.52 0.38,-0.36 1.29,-1.36 1.33,-3.58 0.00,0.00 2.75,6.54 12.60,5.08 1.84,-0.27 6.81,-1.13 14.29,-6.48 0.70,1.80 1.64,6.22 7.28,4.25 1.02,-0.36 3.76,-1.98 3.72,-5.68 -0.07,-1.30 -0.75,-6.23 -1.03,-7.92 z M 236.75,13.65 c 0.64,0.10 1.01,0.47 1.17,0.69 0.07,0.09 0.17,0.03 0.20,-0.04 0.73,-1.44 0.07,-2.34 -1.17,-2.69 -0.49,-0.14 -0.71,-0.82 1.11,-1.99 1.68,-1.08 14.89,-6.67 15.27,-6.93 0.50,-0.35 0.81,-0.49 1.00,-0.99 0.19,-0.50 0.24,-0.59 0.35,-0.94 0.11,-0.37 0.22,-0.77 -0.70,-0.19 -0.49,0.30 -15.32,6.57 -16.72,7.70 -0.70,0.57 -1.28,1.46 -1.48,2.44 -0.29,1.41 0.06,2.80 0.97,2.95 z M 221.74,11.39 c 0.16,0.07 0.32,0.07 0.35,-0.11 0.03,-0.18 0.20,-0.62 0.52,-0.34 0.26,0.23 1.95,1.41 2.98,4.13 0.17,0.36 0.51,0.37 0.55,-0.16 0.09,-1.30 0.02,-3.53 0.07,-4.22 0.07,-0.96 0.37,-2.95 1.65,-2.03 0.29,0.21 0.60,0.49 0.60,0.49 0.28,0.30 0.63,0.64 0.76,0.26 0.19,-0.58 0.31,-1.52 0.01,-2.01 -0.13,-0.21 -1.77,-1.98 -2.68,-0.61 -1.13,1.70 -1.05,3.80 -1.04,6.16 -0.22,-0.48 -1.46,-3.54 -4.81,-5.09 -0.24,-0.11 -0.70,0.17 -0.68,0.92 0.01,0.43 -0.04,1.49 0.29,1.76 0.33,0.27 1.27,0.79 1.42,0.86 z M 256.69,11.39 c 0.16,0.07 0.32,0.07 0.35,-0.11 0.03,-0.18 0.20,-0.62 0.52,-0.34 0.26,0.23 1.95,1.41 2.98,4.13 0.17,0.36 0.51,0.37 0.55,-0.16 0.09,-1.30 0.02,-3.53 0.07,-4.22 0.07,-0.96 0.37,-2.95 1.65,-2.03 0.29,0.21 0.60,0.49 0.60,0.49 0.28,0.30 0.63,0.64 0.76,0.26 0.19,-0.58 0.31,-1.52 0.01,-2.01 -0.13,-0.21 -1.77,-1.98 -2.68,-0.61 -1.13,1.70 -1.05,3.80 -1.04,6.16 -0.21,-0.48 -1.46,-3.54 -4.81,-5.09 -0.24,-0.11 -0.70,0.17 -0.68,0.92 0.01,0.43 -0.04,1.49 0.29,1.76 0.33,0.27 1.27,0.79 1.42,0.86 z M 238.54,47.41 c -0.55,0.28 -8.12,3.37 -8.68,3.69 -0.57,0.32 -0.77,0.40 -0.88,0.81 -0.11,0.42 -0.17,0.66 -0.20,0.72 -0.12,0.28 -0.21,0.62 0.63,0.14 0.26,-0.15 7.93,-3.29 8.40,-3.56 0.47,-0.27 0.75,-0.36 0.96,-0.79 0.21,-0.42 0.26,-0.50 0.38,-0.80 0.12,-0.32 0.25,-0.65 -0.60,-0.22 z M 253.89,28.20 c -0.13,0.47 -0.19,0.72 -0.23,0.81 -0.11,0.32 -0.27,0.64 0.71,0.16 0.30,-0.15 23.39,-10.78 23.92,-11.08 0.53,-0.30 0.84,-0.40 1.08,-0.88 0.24,-0.48 0.30,-0.56 0.43,-0.90 0.14,-0.36 0.31,-0.68 -0.67,-0.25 -0.65,0.28 -23.57,10.91 -24.24,11.22 -0.67,0.31 -0.87,0.44 -1.00,0.91 z M 253.94,46.99 c -0.37,-0.22 -1.00,-0.24 -2.04,0.70 -0.22,0.22 -0.38,0.41 -0.47,0.50 -0.13,0.13 -0.13,0.39 0.21,0.11 0.70,-0.54 1.70,-0.61 1.64,0.65 -0.03,0.24 -0.20,1.31 -1.99,2.80 -0.35,0.28 -0.85,0.73 -0.85,0.73 -0.39,0.32 -0.36,0.65 0.15,0.28 0.51,-0.38 2.42,-1.59 3.53,-3.71 0.26,-0.49 0.50,-1.60 -0.19,-2.05 z M 290.70,43.57 c -0.37,-0.22 -1.00,-0.24 -2.04,0.71 -0.22,0.23 -0.38,0.41 -0.47,0.50 -0.13,0.13 -0.13,0.39 0.21,0.10 0.70,-0.54 1.70,-0.61 1.64,0.65 -0.03,0.24 -0.20,1.31 -1.99,2.80 -0.35,0.28 -0.85,0.73 -0.85,0.73 -0.39,0.32 -0.36,0.65 0.15,0.28 0.51,-0.38 2.42,-1.59 3.53,-3.70 0.26,-0.49 0.50,-1.60 -0.19,-2.06 z M 278.57,29.73 c -0.10,-0.22 -0.51,-1.23 0.24,-3.42 0.15,-0.43 0.35,-1.06 0.35,-1.06 0.17,-0.48 -0.03,-0.74 -0.28,-0.15 -0.24,0.59 -1.25,2.61 -1.09,5.00 0.04,0.55 0.40,1.63 1.23,1.65 0.43,0.00 0.98,-0.31 1.38,-1.66 0.07,-0.30 0.11,-0.55 0.14,-0.67 0.04,-0.18 -0.09,-0.40 -0.23,0.02 -0.32,0.83 -1.13,1.41 -1.74,0.30 z M 265.27,28.10 c 0.21,-0.64 -0.10,-0.96 -0.40,-0.18 -0.30,0.78 -1.59,3.50 -1.19,6.59 0.09,0.71 0.69,2.08 1.88,2.05 0.61,-0.04 1.38,-0.49 1.85,-2.27 0.08,-0.40 0.12,-0.72 0.15,-0.88 0.05,-0.24 -0.16,-0.51 -0.33,0.04 -0.39,1.10 -1.51,1.92 -2.46,0.53 -0.16,-0.28 -0.82,-1.55 0.10,-4.47 0.19,-0.57 0.41,-1.41 0.41,-1.41 z M 272.39,13.17 c 0.53,-0.03 1.20,-0.42 1.60,-1.97 0.07,-0.35 0.10,-0.63 0.13,-0.77 0.04,-0.21 -0.14,-0.44 -0.29,0.04 -0.34,0.96 -1.31,1.67 -2.14,0.46 -0.14,-0.24 -0.71,-1.35 0.09,-3.88 0.16,-0.49 0.36,-1.22 0.36,-1.22 0.18,-0.55 -0.09,-0.84 -0.35,-0.16 -0.26,0.68 -1.37,3.04 -1.03,5.72 0.08,0.62 0.60,1.81 1.63,1.78 z M 242.03,19.03 c 0.18,-0.55 -0.09,-0.84 -0.35,-0.16 -0.26,0.68 -1.37,3.04 -1.03,5.72 0.08,0.62 0.60,1.81 1.63,1.78 0.53,-0.03 1.20,-0.42 1.60,-1.97 0.07,-0.35 0.10,-0.63 0.13,-0.77 0.04,-0.21 -0.14,-0.44 -0.29,0.04 -0.34,0.96 -1.31,1.66 -2.14,0.46 -0.14,-0.24 -0.71,-1.35 0.09,-3.88 0.16,-0.49 0.36,-1.22 0.36,-1.22 z M 228.22,26.60 c 0.18,-0.64 -0.10,-0.96 -0.37,-0.18 -0.27,0.78 -1.42,3.49 -1.04,6.58 0.09,0.72 0.64,2.09 1.71,2.06 0.55,-0.03 1.25,-0.48 1.66,-2.26 0.07,-0.40 0.10,-0.72 0.13,-0.88 0.04,-0.24 -0.15,-0.51 -0.30,0.04 -0.34,1.10 -1.36,1.91 -2.23,0.51 -0.14,-0.28 -0.75,-1.56 0.07,-4.47 0.17,-0.57 0.37,-1.41 0.37,-1.41 z M 329.39,23.67 c 0.48,0.00 1.11,-0.35 1.55,-1.87 0.08,-0.34 0.13,-0.62 0.16,-0.75 0.05,-0.21 -0.10,-0.45 -0.26,0.02 -0.35,0.93 -1.27,1.58 -1.96,0.33 -0.11,-0.25 -0.58,-1.38 0.28,-3.86 0.17,-0.48 0.39,-1.20 0.39,-1.20 0.19,-0.54 -0.04,-0.84 -0.31,-0.17 -0.27,0.66 -1.40,2.94 -1.23,5.63 0.04,0.62 0.45,1.83 1.39,1.87 z M 334.90,10.42 c 0.17,0.10 0.36,0.11 0.41,-0.10 0.05,-0.21 0.29,-0.68 0.62,-0.34 0.28,0.28 2.09,1.78 3.03,4.95 0.16,0.42 0.55,0.46 0.64,-0.14 0.22,-1.47 0.34,-4.02 0.45,-4.79 0.16,-1.09 0.68,-3.32 2.06,-2.16 0.31,0.26 0.64,0.61 0.64,0.61 0.29,0.37 0.66,0.79 0.84,0.36 0.27,-0.64 0.49,-1.71 0.19,-2.28 -0.13,-0.25 -1.83,-2.41 -3.00,-0.93 -1.44,1.83 -1.53,4.23 -1.72,6.91 -0.20,-0.56 -1.35,-4.15 -5.02,-6.21 -0.27,-0.15 -0.81,0.13 -0.86,0.98 -0.03,0.49 -0.17,1.69 0.18,2.03 0.35,0.34 1.37,1.01 1.54,1.10 z M 352.75,9.76 c 0.79,0.58 1.93,1.04 1.93,1.04 -3.66,4.49 -10.84,7.67 -12.55,9.01 -0.51,0.39 -0.44,0.61 -0.12,0.53 0.28,-0.08 5.76,-1.61 10.76,-5.90 2.29,-1.97 2.23,-2.11 2.81,-3.30 0.50,0.26 0.84,0.67 1.03,0.91 0.28,0.34 0.43,0.60 0.56,0.23 0.48,-1.33 -0.20,-2.13 -0.84,-2.54 0.00,0.00 0.67,-2.07 -0.56,-4.14 -0.21,-0.35 -1.43,-1.46 -2.85,0.74 -0.55,0.84 -0.96,2.85 -0.17,3.42 z M 353.48,7.73 c 0.73,-1.02 1.08,-0.99 1.36,-0.82 0.82,0.77 0.70,2.02 0.67,2.31 0.00,0.00 -1.05,-0.49 -1.52,-0.70 -0.47,-0.20 -0.72,-0.50 -0.50,-0.80 z M 361.08,28.28 c -0.25,-0.28 -0.38,-0.01 -0.46,0.31 -0.09,0.32 -0.36,1.52 -0.54,2.27 0.00,0.00 0.71,1.16 0.97,1.75 0.25,0.59 -0.12,0.92 -0.86,1.01 -2.08,0.25 -3.73,-0.94 -4.30,-1.48 -0.57,-0.55 0.05,-1.52 0.51,-2.68 0.37,-0.93 -0.32,-1.04 -0.84,0.00 -1.76,4.63 -4.23,5.13 -4.88,5.30 -5.86,1.60 -5.36,-3.76 -5.33,-4.64 0.02,-0.88 -0.62,-0.55 -1.34,0.03 -2.47,1.98 -4.45,3.14 -5.52,3.62 -0.92,-1.80 -2.26,-2.93 -2.82,-3.33 -6.34,-4.63 -6.87,4.71 -6.67,5.71 0.97,3.97 7.44,1.56 8.46,1.44 1.01,-0.12 0.68,1.22 0.11,2.02 -1.41,1.97 -3.03,3.38 -4.50,4.57 -6.28,5.13 -9.43,4.72 -10.41,4.69 -6.17,-0.17 -5.60,-6.82 -5.26,-8.24 1.86,-1.57 3.45,-3.28 4.38,-5.04 0.38,-0.96 1.03,-3.16 -0.15,-5.91 -0.62,-1.21 -2.56,-4.60 -2.56,-4.60 0.00,0.00 1.43,0.04 1.57,0.04 0.14,0.00 0.41,-0.14 0.06,-0.54 -0.35,-0.40 -3.36,-3.40 -3.54,-3.65 -0.18,-0.24 -0.35,-0.42 -0.45,-0.06 -0.10,0.36 -0.36,1.88 -0.42,2.20 -0.06,0.31 -0.06,0.63 0.10,0.90 0.15,0.27 0.55,1.20 0.84,1.96 0.29,0.76 3.26,6.47 3.53,6.98 0.27,0.51 0.33,0.88 0.06,1.22 -9.53,10.05 -27.91,16.23 -28.50,16.57 -0.59,0.34 -0.43,0.61 0.56,0.43 1.48,-0.26 9.74,-1.64 12.09,-2.77 1.55,-0.75 6.97,-3.41 11.41,-6.88 -0.12,0.90 -0.24,2.22 -0.18,3.89 0.30,8.08 7.53,6.74 9.43,6.33 5.68,-1.25 12.64,-9.11 13.23,-10.69 0.58,-1.56 0.67,-2.98 0.54,-4.22 1.50,-0.81 4.71,-3.40 4.71,-3.40 0.13,3.45 2.87,4.48 3.72,4.63 3.96,0.60 5.94,-2.71 6.78,-3.78 0.72,1.89 2.45,2.26 3.34,2.43 3.41,0.68 4.08,-1.73 4.26,-2.29 1.07,-3.33 -0.86,-5.81 -1.11,-6.08 z M 332.45,34.96 c -2.02,-0.14 -1.85,-0.92 -1.57,-1.22 0.30,-0.33 2.78,-1.89 4.85,0.89 0.00,0.00 -0.86,0.50 -3.28,0.33 z M 355.51,17.69 c 0.18,-0.50 -0.03,-0.77 -0.29,-0.16 -0.25,0.61 -1.30,2.73 -1.14,5.22 0.04,0.58 0.42,1.70 1.29,1.73 0.45,0.00 1.03,-0.33 1.44,-1.74 0.07,-0.32 0.12,-0.57 0.15,-0.70 0.04,-0.19 -0.10,-0.42 -0.24,0.02 -0.33,0.86 -1.18,1.47 -1.82,0.31 -0.10,-0.23 -0.53,-1.28 0.26,-3.57 0.16,-0.44 0.36,-1.11 0.36,-1.11 z M 295.02,17.17 c 0.17,-0.04 3.05,-0.49 6.41,-3.05 1.82,-1.38 2.92,-3.74 2.92,-3.74 0.00,0.00 0.91,0.76 1.03,0.91 0.28,0.34 0.43,0.60 0.56,0.23 0.48,-1.33 -0.20,-2.13 -0.84,-2.54 0.00,0.00 0.67,-2.07 -0.56,-4.14 -0.21,-0.35 -1.43,-1.46 -2.85,0.74 -0.55,0.84 -0.96,2.85 -0.17,3.42 0.79,0.58 1.93,1.04 1.93,1.04 -3.66,4.49 -6.16,5.34 -8.30,6.60 -0.55,0.32 -0.44,0.61 -0.12,0.52 z M 302.74,7.78 c -0.47,-0.20 -0.72,-0.50 -0.50,-0.80 0.73,-1.02 1.08,-0.99 1.36,-0.82 0.82,0.77 0.70,2.02 0.67,2.31 0.00,0.00 -1.05,-0.49 -1.52,-0.70 z M 302.60,17.55 c -0.06,-0.05 -0.15,-0.03 -0.20,0.04 -1.53,2.10 -1.53,2.10 -1.53,2.10 -0.05,0.07 -0.04,0.16 0.03,0.20 2.61,1.91 2.61,1.91 2.61,1.91 0.06,0.05 0.15,0.03 0.20,-0.04 1.32,-1.81 1.32,-1.81 1.32,-1.81 2.54,1.85 2.54,1.85 2.54,1.85 0.06,0.05 0.15,0.03 0.20,-0.04 1.53,-2.10 1.53,-2.10 1.53,-2.10 0.05,-0.07 0.04,-0.16 -0.03,-0.20 -2.61,-1.91 -2.61,-1.91 -2.61,-1.91 -0.06,-0.05 -0.15,-0.03 -0.20,0.04 -1.32,1.81 -1.32,1.81 -1.32,1.81 z M 311.70,15.69 c 0.25,-0.16 13.84,-8.02 14.32,-8.31 0.46,-0.29 0.72,-0.41 0.91,-0.85 0.18,-0.44 0.23,-0.52 0.33,-0.82 0.10,-0.32 0.21,-0.67 -0.61,-0.19 -0.53,0.31 -14.04,8.11 -14.59,8.46 -0.55,0.35 -0.74,0.44 -0.83,0.87 -0.09,0.42 -0.13,0.67 -0.16,0.73 -0.10,0.28 -0.17,0.63 0.64,0.10 z M 357.88,40.60 c -0.24,0.68 -0.34,1.12 -0.32,1.38 0.03,0.26 0.12,1.10 0.12,1.10 -0.25,0.20 -1.33,0.87 -2.40,0.08 0.07,-0.23 0.21,-0.70 0.24,-0.95 0.12,-0.40 -0.13,-0.69 -0.32,-0.28 -0.20,0.41 -0.65,1.79 -0.99,2.10 -0.34,0.31 -0.73,1.45 -3.30,0.29 -0.45,-0.17 -1.23,-0.75 -2.46,0.48 -2.77,2.57 -4.68,2.78 -7.79,3.88 -0.38,0.17 -1.16,0.77 -0.23,0.67 0.94,-0.09 4.87,0.00 7.01,-2.46 0.45,-0.43 0.96,-1.58 2.66,-0.92 0.94,0.36 2.68,1.85 4.58,-1.10 1.12,0.75 2.82,0.45 3.09,-0.38 0.27,-0.82 0.58,-1.64 0.58,-2.20 0.00,-0.56 -0.05,-1.30 -0.05,-1.30 -0.04,-0.44 -0.19,-1.07 -0.44,-0.40 z M 301.98,27.30 c 0.00,0.00 1.25,-0.31 1.47,-0.38 0.22,-0.06 0.34,-0.35 -0.05,-0.55 -0.39,-0.20 -4.09,-1.67 -4.37,-1.79 -0.28,-0.11 -0.38,-0.24 -0.41,0.06 -0.02,0.30 -0.07,2.73 -0.07,2.73 0.00,0.00 -0.06,0.17 0.27,0.35 0.32,0.18 0.64,0.58 0.90,0.84 0.26,0.26 3.70,2.98 3.87,3.07 0.00,0.00 -1.72,3.02 -1.94,5.38 -0.22,2.36 0.04,5.63 3.27,4.57 0.87,-0.25 4.49,-1.69 5.30,-4.21 0.26,-0.93 1.01,-2.61 -0.21,-4.31 -0.70,-1.00 -3.53,-2.69 -3.53,-2.69 0.00,0.00 2.17,-3.00 2.38,-3.37 0.21,-0.37 1.00,-2.69 1.09,-3.26 0.09,-0.56 0.13,-0.84 -0.29,-0.32 -0.42,0.52 -4.63,6.05 -4.63,6.05 z M 308.93,36.18 c -1.20,0.99 -3.72,2.29 -4.43,2.36 -0.71,0.07 -2.59,-0.28 -1.77,-2.21 0.28,-0.62 2.16,-3.84 2.16,-3.84 0.70,0.39 5.24,2.70 4.04,3.69 z" />
     </g>
</svg>
