<?xml version="1.0" encoding="UTF-8"?>
<svg version="1.1" id="Layer_1" x="0px" y="0px" width="578" height="51" viewBox="0 0 578 51"
xml:space="preserve" xmlns="http://www.w3.org/2000/svg" xmlns:svg="http://www.w3.org/2000/svg" xmlns:rdf="http://www.w3.org/1999/02/22-rdf-syntax-ns#"  xmlns:cc="http://creativecommons.org/ns#" xmlns:dc="http://purl.org/dc/elements/1.1/">
     <g>
<path d="M 296.90,43.03 c -0.04,0.46 0.17,0.64 0.38,0.19 0.11,-0.24 0.59,-1.22 0.73,-3.80 0.11,-1.94 -0.05,-4.91 -0.60,-9.01 -0.08,-0.60 -2.95,-21.37 -2.95,-21.37 0.00,0.00 1.55,1.46 1.80,1.72 0.25,0.26 0.55,0.12 0.41,-0.30 -0.14,-0.42 -3.31,-8.09 -3.42,-8.36 -0.10,-0.27 -0.20,-0.46 -0.33,-0.15 -0.13,0.31 -1.08,2.64 -1.08,2.64 0.02,0.14 0.28,1.16 0.33,1.54 0.44,3.37 3.20,23.25 3.99,29.54 0.39,3.09 0.69,5.88 0.73,7.37 z M 248.77,19.23 c 0.71,0.17 1.09,0.62 1.26,0.87 0.07,0.11 0.19,0.04 0.23,-0.02 0.93,-1.56 0.27,-2.62 -1.10,-3.12 -0.54,-0.20 -0.73,-0.98 1.41,-2.15 1.97,-1.08 28.40,-11.64 28.84,-11.90 0.59,-0.35 0.95,-0.48 1.21,-1.03 0.26,-0.55 0.32,-0.65 0.47,-1.03 0.15,-0.41 0.31,-0.84 -0.77,-0.27 -0.57,0.30 -28.88,11.49 -30.54,12.65 -0.83,0.58 -1.56,1.54 -1.86,2.62 -0.44,1.56 -0.16,3.15 0.86,3.39 z M 262.11,19.11 c -1.02,0.75 -1.72,1.19 -1.72,1.19 -0.66,0.48 -1.25,1.37 -0.07,0.87 1.17,-0.50 2.72,-1.28 3.91,-3.07 0.35,-0.52 0.75,-1.22 -0.86,-1.46 -1.61,-0.24 -4.21,-0.62 -5.06,0.30 -0.84,0.92 -1.10,1.55 -1.35,1.94 -0.35,0.54 0.09,0.78 0.48,0.36 0.39,-0.42 0.66,-0.84 1.81,-0.81 1.14,0.03 3.88,-0.08 2.86,0.68 z M 270.72,12.83 c 0.71,0.34 1.73,0.02 2.51,-1.44 0.60,0.87 1.52,0.88 2.01,0.70 0.42,-0.15 0.88,-0.78 1.02,-1.65 0.14,-0.87 -0.09,-1.46 -0.36,-1.95 -0.36,-0.60 -0.60,-1.61 -0.60,-1.61 -0.13,-0.36 -0.22,-0.73 -0.38,-0.23 -0.16,0.50 -0.28,0.88 -0.06,1.45 0.22,0.57 0.80,1.86 0.90,2.05 0.10,0.18 0.12,0.39 -0.20,0.53 -0.32,0.14 -1.79,0.45 -2.06,-1.12 -0.27,-1.57 -0.30,-2.02 -0.43,-2.29 -0.14,-0.26 -0.26,-0.30 -0.37,-0.03 -0.10,0.26 -0.17,0.81 -0.19,0.90 -0.02,0.09 -0.02,0.15 0.04,0.25 0.06,0.10 0.64,1.85 0.38,2.33 -0.26,0.48 -1.58,1.35 -2.27,0.44 -0.33,-0.63 -0.13,-2.24 -0.13,-2.62 0.00,-0.38 -0.12,-0.51 -0.28,-0.20 -0.16,0.30 -0.25,0.51 -0.24,0.78 0.01,0.27 0.05,1.44 0.02,1.81 -0.02,0.37 0.00,1.57 0.71,1.90 z M 274.31,13.86 c -1.53,2.10 -1.53,2.10 -1.53,2.10 -0.05,0.07 -0.04,0.16 0.03,0.21 2.61,1.91 2.61,1.91 2.61,1.91 0.06,0.05 0.15,0.03 0.20,-0.04 1.53,-2.10 1.53,-2.10 1.53,-2.10 0.05,-0.07 0.04,-0.16 -0.03,-0.20 -2.61,-1.91 -2.61,-1.91 -2.61,-1.91 -0.06,-0.05 -0.15,-0.03 -0.20,0.04 z M 274.59,22.56 c 0.06,0.05 0.15,0.03 0.20,-0.04 1.32,-1.81 1.32,-1.81 1.32,-1.81 2.54,1.85 2.54,1.85 2.54,1.85 0.06,0.05 0.15,0.03 0.20,-0.04 1.53,-2.10 1.53,-2.10 1.53,-2.10 0.05,-0.07 0.04,-0.16 -0.03,-0.20 -2.61,-1.91 -2.61,-1.91 -2.61,-1.91 -0.06,-0.05 -0.15,-0.03 -0.20,0.04 -1.32,1.81 -1.32,1.81 -1.32,1.81 -2.54,-1.85 -2.54,-1.85 -2.54,-1.85 -0.06,-0.05 -0.15,-0.03 -0.20,0.04 -1.53,2.10 -1.53,2.10 -1.53,2.10 -0.05,0.07 -0.04,0.16 0.03,0.21 z M 233.84,25.38 c 0.14,0.09 0.29,0.10 0.34,-0.09 0.04,-0.19 0.23,-0.62 0.51,-0.31 0.23,0.26 1.72,1.60 2.51,4.46 0.14,0.38 0.46,0.42 0.53,-0.12 0.17,-1.32 0.26,-3.63 0.35,-4.32 0.13,-0.98 0.55,-3.00 1.68,-1.96 0.26,0.24 0.53,0.55 0.53,0.55 0.24,0.33 0.54,0.71 0.69,0.33 0.22,-0.58 0.39,-1.54 0.15,-2.06 -0.11,-0.23 -1.52,-2.17 -2.47,-0.84 -1.17,1.65 -1.24,3.82 -1.39,6.24 -0.17,-0.51 -1.13,-3.75 -4.15,-5.60 -0.22,-0.13 -0.66,0.12 -0.70,0.89 -0.02,0.45 -0.13,1.53 0.15,1.83 0.29,0.31 1.13,0.90 1.27,0.99 z M 254.67,40.45 c -0.55,0.28 -14.99,6.22 -15.56,6.54 -0.57,0.32 -0.77,0.39 -0.88,0.81 -0.11,0.41 -0.17,0.66 -0.20,0.72 -0.12,0.28 -0.21,0.62 0.63,0.14 0.26,-0.15 14.81,-6.14 15.28,-6.41 0.47,-0.27 0.75,-0.36 0.96,-0.79 0.21,-0.42 0.26,-0.50 0.38,-0.80 0.12,-0.32 0.25,-0.65 -0.60,-0.22 z M 284.33,2.09 c -0.10,-0.27 -0.20,-0.46 -0.33,-0.15 -0.13,0.31 -1.15,2.55 -1.15,2.55 0.03,0.18 0.27,0.73 0.43,1.87 0.17,1.18 2.69,19.61 2.77,20.45 0.04,0.40 0.40,2.23 -1.31,2.06 -0.48,-0.08 -2.89,-0.58 -3.71,-2.41 0.12,-0.31 0.14,-0.50 0.21,-0.81 0.07,-0.31 0.02,-0.90 -0.34,-0.31 -0.36,0.59 -1.21,3.03 -2.23,3.62 -0.34,0.15 -2.84,1.03 -3.29,-1.72 0.23,-0.64 0.36,-0.97 0.41,-1.17 0.04,-0.20 0.02,-0.83 -0.40,-0.30 -0.42,0.53 -1.95,3.41 -4.61,3.50 -0.75,-0.02 -2.77,0.42 -4.58,-3.45 -0.40,-0.73 -1.12,-1.64 -2.82,-0.77 -1.57,0.81 -4.82,3.75 -4.42,8.14 -0.17,0.07 -0.35,0.14 -0.53,0.22 -1.03,0.40 -6.86,1.89 -7.90,-1.83 0.07,-0.40 0.13,-1.89 -0.42,-1.03 -0.55,0.86 -1.47,3.83 -3.17,4.20 -1.69,0.37 -2.71,-1.23 -2.68,-1.80 0.02,-0.57 0.35,-1.52 0.44,-1.96 0.09,-0.44 -0.04,-1.21 -0.55,-0.51 -0.51,0.70 -3.74,5.94 -7.66,2.73 -0.18,-0.31 -0.90,-1.96 -1.14,-2.42 -0.24,-0.46 -0.35,-0.33 -0.46,0.02 -0.11,0.35 -0.53,2.29 -0.53,2.29 0.53,1.17 2.07,4.58 1.85,6.20 -0.13,0.88 -6.21,8.00 -15.58,6.25 -1.31,-0.25 -7.24,-1.41 -5.85,-8.65 0.22,-1.30 1.06,-3.17 1.41,-3.76 0.14,-0.24 0.16,-0.47 0.10,-0.61 0.63,-0.24 1.38,-0.99 2.12,-2.87 0.19,-0.58 0.33,-1.05 0.41,-1.28 0.12,-0.35 -0.06,-0.80 -0.40,-0.01 -0.74,1.55 -2.28,2.50 -3.04,0.20 -0.11,-0.45 -0.56,-2.51 1.28,-6.64 0.37,-0.80 0.85,-2.00 0.85,-2.00 0.41,-0.90 0.13,-1.46 -0.43,-0.36 -0.56,1.10 -2.78,4.84 -3.12,9.54 -0.08,1.09 0.27,3.27 1.68,3.51 0.06,0.01 0.11,0.01 0.17,0.01 -0.06,0.08 -0.12,0.17 -0.18,0.30 -0.48,0.97 -5.82,10.57 1.67,14.83 0.81,0.46 7.63,2.95 14.44,-1.56 0.56,-0.37 4.81,-3.14 5.19,-5.81 0.26,-1.21 0.53,-3.15 0.53,-3.15 0.59,0.04 2.97,0.46 5.43,-2.02 0.59,1.19 2.66,4.29 5.50,1.10 0.51,-0.66 1.19,-1.56 1.19,-1.56 0.40,0.53 2.42,3.78 9.17,1.52 0.20,-0.07 0.50,-0.21 0.87,-0.38 0.15,0.38 0.33,0.76 0.54,1.15 1.08,1.89 2.77,3.37 4.31,3.56 0.81,0.00 3.32,-0.04 3.30,-4.29 -0.02,-0.92 -0.09,-3.21 -2.68,-4.07 -0.62,-0.21 -2.25,-0.32 -4.70,0.43 -0.17,-0.85 -0.06,-1.83 0.61,-2.90 0.29,-0.55 2.95,-3.06 4.00,-1.21 1.06,1.85 3.72,5.76 8.05,2.38 0.62,-0.55 1.01,-1.03 1.01,-1.03 0.62,2.60 3.65,3.54 5.92,-0.18 3.61,3.43 6.05,1.28 6.42,0.42 0.37,-0.86 1.23,-2.38 0.84,-5.59 -0.18,-1.43 -1.85,-15.93 -1.85,-15.93 0.00,0.00 1.36,1.03 1.61,1.30 0.25,0.26 0.55,0.12 0.41,-0.30 -0.14,-0.42 -3.00,-7.28 -3.10,-7.55 z M 265.44,35.86 c 0.79,0.59 1.36,1.67 0.02,1.52 -1.34,-0.15 -2.22,-0.64 -2.95,-1.41 -0.17,-0.18 -0.44,-0.44 -0.74,-0.78 1.18,-0.23 2.50,-0.19 3.66,0.67 z M 260.75,44.31 c -0.31,0.83 -1.13,1.41 -1.74,0.30 -0.10,-0.22 -0.51,-1.23 0.24,-3.42 0.15,-0.43 0.35,-1.06 0.35,-1.06 0.17,-0.48 -0.03,-0.74 -0.28,-0.16 -0.24,0.59 -1.25,2.61 -1.09,5.00 0.04,0.55 0.40,1.63 1.23,1.65 0.43,0.00 0.99,-0.31 1.38,-1.66 0.07,-0.30 0.11,-0.55 0.14,-0.67 0.04,-0.18 -0.09,-0.40 -0.23,0.02 z M 253.61,7.68 c 0.43,0.00 0.98,-0.31 1.38,-1.66 0.07,-0.30 0.11,-0.55 0.14,-0.67 0.04,-0.18 -0.09,-0.40 -0.23,0.02 -0.31,0.83 -1.13,1.41 -1.74,0.30 -0.10,-0.22 -0.51,-1.23 0.25,-3.42 0.15,-0.43 0.35,-1.06 0.35,-1.06 0.17,-0.48 -0.03,-0.74 -0.28,-0.15 -0.24,0.59 -1.25,2.61 -1.09,5.00 0.04,0.55 0.40,1.63 1.23,1.65 z M 227.38,28.40 c 0.30,-0.66 0.03,-1.05 -0.38,-0.25 -0.41,0.80 -2.07,3.56 -2.09,6.95 0.00,0.78 0.41,2.34 1.61,2.47 0.62,0.04 1.46,-0.34 2.17,-2.20 0.13,-0.42 0.22,-0.76 0.27,-0.93 0.08,-0.25 -0.09,-0.57 -0.34,0.00 -0.54,1.14 -1.78,1.87 -2.55,0.24 -0.12,-0.32 -0.62,-1.78 0.71,-4.81 0.26,-0.58 0.61,-1.46 0.61,-1.46 z M 234.66,12.25 c 0.56,0.03 1.30,-0.34 1.91,-2.06 0.11,-0.39 0.18,-0.71 0.23,-0.86 0.07,-0.23 -0.09,-0.53 -0.30,0.01 -0.47,1.05 -1.57,1.75 -2.29,0.26 -0.11,-0.29 -0.58,-1.63 0.57,-4.43 0.23,-0.54 0.53,-1.36 0.53,-1.36 0.26,-0.61 0.01,-0.97 -0.35,-0.22 -0.36,0.75 -1.81,3.31 -1.78,6.43 0.01,0.72 0.41,2.15 1.48,2.24 z M 217.16,14.24 c 0.66,-0.37 4.49,-1.86 5.12,-5.65 0.05,-0.50 -0.05,-0.87 -0.17,-1.12 0.05,0.01 0.11,0.05 0.17,0.11 0.24,0.24 1.67,1.43 2.60,3.88 0.10,0.26 0.18,1.38 0.05,1.64 -0.55,1.13 -1.50,3.29 -1.48,5.81 0.01,0.72 0.41,2.15 1.48,2.24 0.56,0.03 1.30,-0.34 1.91,-2.06 0.11,-0.39 0.18,-0.71 0.23,-0.86 0.07,-0.23 -0.09,-0.53 -0.30,0.01 -0.47,1.05 -1.57,1.75 -2.29,0.26 -0.11,-0.29 -0.70,-1.68 0.57,-4.43 0.80,-1.74 1.04,-5.72 1.15,-6.46 0.16,-1.03 0.65,-3.16 1.96,-2.06 0.30,0.25 0.61,0.58 0.61,0.58 0.28,0.35 0.63,0.75 0.80,0.35 0.26,-0.61 0.46,-1.62 0.18,-2.17 -0.12,-0.24 -1.75,-2.29 -2.85,-0.89 -1.37,1.74 -1.46,4.03 -1.64,6.58 -0.19,-0.53 -1.29,-3.95 -4.78,-5.91 -0.25,-0.14 -0.77,0.13 -0.82,0.93 -0.03,0.47 -0.16,1.61 0.17,1.93 0.32,0.31 2.68,1.14 1.40,2.49 -0.57,0.61 -3.45,3.59 -4.06,4.31 -0.62,0.72 -0.68,0.85 -0.01,0.49 z M 242.72,17.31 c 0.74,0.01 1.70,-0.58 2.43,-3.23 0.13,-0.60 0.21,-1.08 0.26,-1.32 0.08,-0.36 -0.14,-0.79 -0.40,0.03 -0.57,1.62 -1.99,2.73 -3.00,0.53 -0.16,-0.44 -0.83,-2.43 0.55,-6.74 0.28,-0.84 0.63,-2.08 0.63,-2.08 0.31,-0.94 -0.03,-1.46 -0.47,-0.32 -0.43,1.15 -2.23,5.11 -2.07,9.83 0.04,1.09 0.63,3.22 2.05,3.31 z M 364.04,25.15 c -0.25,-0.28 -0.37,-0.01 -0.46,0.31 -0.09,0.32 -0.36,1.52 -0.54,2.27 0.00,0.00 0.71,1.16 0.97,1.75 0.25,0.59 -0.12,0.92 -0.86,1.01 -2.08,0.25 -3.73,-0.94 -4.30,-1.48 -0.57,-0.55 0.05,-1.52 0.51,-2.68 0.37,-0.93 -0.32,-1.04 -0.84,0.00 -1.76,4.63 -4.23,5.12 -4.88,5.30 -5.86,1.60 -5.36,-3.76 -5.34,-4.64 0.02,-0.88 -0.62,-0.55 -1.34,0.03 -2.47,1.98 -4.45,3.14 -5.52,3.62 -0.92,-1.80 -2.26,-2.93 -2.82,-3.34 -6.34,-4.63 -6.87,4.71 -6.67,5.71 0.97,3.97 7.45,1.56 8.46,1.44 1.02,-0.12 0.68,1.22 0.11,2.02 -1.41,1.97 -3.03,3.38 -4.50,4.58 -6.28,5.12 -9.44,4.72 -10.41,4.69 -6.17,-0.17 -5.60,-6.83 -5.26,-8.24 1.86,-1.57 3.45,-3.28 4.38,-5.04 0.38,-0.96 1.03,-3.16 -0.15,-5.91 -0.62,-1.21 -2.56,-4.60 -2.56,-4.60 0.00,0.00 1.43,0.04 1.57,0.04 0.14,0.00 0.41,-0.14 0.06,-0.54 -0.35,-0.40 -3.36,-3.40 -3.54,-3.65 -0.18,-0.24 -0.35,-0.42 -0.45,-0.06 -0.10,0.36 -0.36,1.88 -0.42,2.20 -0.06,0.31 -0.06,0.63 0.10,0.90 0.15,0.27 0.55,1.20 0.84,1.96 0.29,0.76 3.25,6.47 3.53,6.98 0.27,0.51 0.33,0.88 0.06,1.22 -9.53,10.05 -27.91,16.23 -28.50,16.57 -0.59,0.34 -0.43,0.61 0.56,0.43 1.48,-0.26 9.74,-1.64 12.09,-2.77 1.55,-0.75 6.98,-3.41 11.41,-6.89 -0.12,0.90 -0.24,2.22 -0.17,3.89 0.30,8.08 7.53,6.74 9.43,6.33 5.68,-1.25 12.64,-9.11 13.23,-10.69 0.58,-1.56 0.67,-2.98 0.54,-4.22 1.50,-0.81 4.71,-3.40 4.71,-3.40 0.13,3.45 2.88,4.48 3.72,4.63 3.96,0.60 5.94,-2.71 6.78,-3.78 0.72,1.89 2.45,2.26 3.34,2.43 3.41,0.68 4.08,-1.73 4.26,-2.29 1.07,-3.33 -0.86,-5.81 -1.11,-6.08 z M 335.40,31.83 c -2.03,-0.14 -1.85,-0.92 -1.57,-1.22 0.30,-0.33 2.78,-1.89 4.85,0.89 0.00,0.00 -0.86,0.50 -3.28,0.33 z M 304.93,24.17 c 0.00,0.00 1.25,-0.31 1.47,-0.38 0.22,-0.06 0.34,-0.35 -0.05,-0.55 -0.39,-0.20 -4.09,-1.67 -4.37,-1.79 -0.28,-0.11 -0.38,-0.24 -0.41,0.06 -0.02,0.30 -0.07,2.73 -0.07,2.73 0.00,0.00 -0.06,0.17 0.27,0.35 0.32,0.18 0.64,0.58 0.90,0.84 0.26,0.26 3.70,2.98 3.87,3.07 0.00,0.00 -1.72,3.02 -1.94,5.38 -0.22,2.36 0.04,5.63 3.27,4.57 0.87,-0.25 4.49,-1.69 5.30,-4.21 0.26,-0.93 1.01,-2.61 -0.21,-4.31 -0.70,-1.00 -3.53,-2.69 -3.53,-2.69 0.00,0.00 2.17,-3.00 2.38,-3.37 0.21,-0.37 1.00,-2.69 1.09,-3.26 0.09,-0.56 0.13,-0.84 -0.29,-0.32 -0.42,0.52 -4.63,6.05 -4.63,6.05 z M 311.89,33.05 c -1.20,0.99 -3.72,2.29 -4.43,2.36 -0.71,0.07 -2.59,-0.28 -1.77,-2.21 0.28,-0.62 2.16,-3.84 2.16,-3.84 0.70,0.39 5.24,2.70 4.04,3.69 z M 305.56,14.42 c -0.06,-0.05 -0.15,-0.03 -0.20,0.04 -1.53,2.10 -1.53,2.10 -1.53,2.10 -0.05,0.07 -0.04,0.16 0.03,0.20 2.61,1.91 2.61,1.91 2.61,1.91 0.06,0.05 0.15,0.03 0.20,-0.04 1.32,-1.81 1.32,-1.81 1.32,-1.81 2.54,1.85 2.54,1.85 2.54,1.85 0.06,0.05 0.15,0.03 0.20,-0.04 1.53,-2.10 1.53,-2.10 1.53,-2.10 0.05,-0.07 0.04,-0.16 -0.03,-0.21 -2.61,-1.91 -2.61,-1.91 -2.61,-1.91 -0.06,-0.05 -0.15,-0.03 -0.20,0.04 -1.32,1.81 -1.32,1.81 -1.32,1.81 z M 337.85,7.29 c 0.17,0.10 0.36,0.11 0.41,-0.10 0.05,-0.21 0.28,-0.68 0.62,-0.34 0.28,0.28 2.09,1.78 3.03,4.95 0.16,0.42 0.55,0.46 0.64,-0.14 0.22,-1.47 0.34,-4.02 0.45,-4.79 0.16,-1.09 0.68,-3.33 2.06,-2.16 0.31,0.26 0.64,0.61 0.64,0.61 0.29,0.37 0.66,0.79 0.84,0.36 0.27,-0.64 0.49,-1.70 0.19,-2.28 -0.13,-0.26 -1.84,-2.41 -3.00,-0.93 -1.44,1.83 -1.53,4.23 -1.72,6.91 -0.20,-0.56 -1.35,-4.15 -5.03,-6.21 -0.27,-0.15 -0.81,0.13 -0.86,0.98 -0.03,0.49 -0.17,1.69 0.18,2.03 0.35,0.34 1.37,1.01 1.54,1.10 z M 314.66,12.56 c 0.25,-0.16 13.84,-8.02 14.32,-8.31 0.46,-0.29 0.72,-0.41 0.91,-0.85 0.18,-0.44 0.23,-0.52 0.33,-0.82 0.11,-0.32 0.21,-0.67 -0.61,-0.19 -0.53,0.31 -14.04,8.11 -14.59,8.46 -0.55,0.35 -0.74,0.44 -0.83,0.87 -0.09,0.42 -0.13,0.67 -0.16,0.73 -0.10,0.28 -0.17,0.63 0.64,0.10 z M 358.46,14.56 c 0.18,-0.50 -0.04,-0.77 -0.29,-0.16 -0.25,0.61 -1.30,2.73 -1.14,5.22 0.04,0.58 0.42,1.70 1.29,1.73 0.45,0.00 1.03,-0.33 1.44,-1.74 0.07,-0.32 0.12,-0.57 0.15,-0.70 0.04,-0.19 -0.10,-0.42 -0.24,0.02 -0.33,0.86 -1.18,1.47 -1.82,0.31 -0.10,-0.23 -0.53,-1.28 0.26,-3.57 0.16,-0.44 0.36,-1.11 0.36,-1.11 z M 332.35,20.53 c 0.48,0.00 1.11,-0.35 1.55,-1.87 0.08,-0.34 0.13,-0.62 0.16,-0.75 0.05,-0.21 -0.10,-0.45 -0.26,0.02 -0.35,0.93 -1.27,1.58 -1.96,0.33 -0.11,-0.25 -0.58,-1.38 0.28,-3.86 0.17,-0.48 0.39,-1.20 0.39,-1.20 0.19,-0.54 -0.04,-0.84 -0.31,-0.17 -0.27,0.66 -1.40,2.94 -1.23,5.64 0.04,0.62 0.45,1.83 1.39,1.86 z M 355.70,6.63 c 0.79,0.58 1.94,1.04 1.94,1.04 -3.66,4.49 -10.85,7.67 -12.56,9.01 -0.51,0.39 -0.44,0.61 -0.12,0.53 0.28,-0.08 5.76,-1.61 10.76,-5.90 2.29,-1.97 2.23,-2.11 2.81,-3.31 0.50,0.26 0.84,0.67 1.03,0.91 0.28,0.34 0.43,0.60 0.56,0.23 0.48,-1.33 -0.20,-2.13 -0.84,-2.54 0.00,0.00 0.67,-2.07 -0.56,-4.14 -0.21,-0.35 -1.43,-1.46 -2.85,0.74 -0.55,0.84 -0.96,2.85 -0.17,3.42 z M 356.43,4.60 c 0.73,-1.02 1.08,-0.98 1.36,-0.82 0.82,0.77 0.70,2.03 0.67,2.31 0.00,0.00 -1.05,-0.49 -1.52,-0.69 -0.47,-0.20 -0.72,-0.50 -0.50,-0.80 z M 297.98,14.04 c 0.17,-0.05 3.05,-0.49 6.41,-3.05 1.82,-1.38 2.92,-3.74 2.92,-3.74 0.00,0.00 0.91,0.76 1.03,0.91 0.28,0.34 0.43,0.60 0.56,0.23 0.48,-1.33 -0.20,-2.13 -0.84,-2.54 0.00,0.00 0.67,-2.07 -0.56,-4.14 -0.21,-0.35 -1.43,-1.46 -2.85,0.74 -0.55,0.84 -0.96,2.85 -0.17,3.42 0.79,0.58 1.94,1.04 1.94,1.04 -3.66,4.49 -6.16,5.34 -8.30,6.60 -0.55,0.32 -0.44,0.61 -0.12,0.53 z M 305.69,4.65 c -0.47,-0.20 -0.72,-0.50 -0.50,-0.80 0.73,-1.02 1.08,-0.99 1.36,-0.82 0.82,0.77 0.70,2.03 0.67,2.31 0.00,0.00 -1.05,-0.49 -1.52,-0.69 z M 360.83,37.47 c -0.24,0.68 -0.34,1.12 -0.31,1.38 0.03,0.26 0.12,1.10 0.12,1.10 -0.25,0.20 -1.33,0.87 -2.40,0.08 0.07,-0.23 0.21,-0.70 0.24,-0.95 0.12,-0.40 -0.13,-0.69 -0.32,-0.28 -0.20,0.41 -0.65,1.79 -0.99,2.10 -0.34,0.31 -0.73,1.45 -3.30,0.29 -0.45,-0.17 -1.24,-0.75 -2.46,0.48 -2.77,2.57 -4.68,2.78 -7.79,3.88 -0.38,0.17 -1.16,0.77 -0.23,0.67 0.94,-0.09 4.87,0.00 7.01,-2.46 0.45,-0.43 0.96,-1.58 2.66,-0.92 0.94,0.36 2.68,1.85 4.58,-1.10 1.12,0.75 2.82,0.45 3.09,-0.38 0.27,-0.82 0.58,-1.64 0.58,-2.20 0.00,-0.56 -0.05,-1.30 -0.05,-1.30 -0.04,-0.44 -0.19,-1.07 -0.44,-0.40 z M 286.12,37.47 c -0.24,0.68 -0.34,1.12 -0.31,1.38 0.03,0.26 0.11,1.10 0.11,1.10 -0.25,0.20 -1.33,0.87 -2.40,0.08 0.07,-0.23 0.21,-0.70 0.24,-0.95 0.12,-0.40 -0.13,-0.69 -0.32,-0.28 -0.20,0.41 -0.65,1.79 -0.99,2.10 -0.34,0.31 -0.73,1.45 -3.30,0.29 -0.45,-0.17 -1.23,-0.75 -2.46,0.48 -2.77,2.57 -4.68,2.78 -7.79,3.88 -0.38,0.17 -1.16,0.77 -0.23,0.67 0.94,-0.09 4.87,0.00 7.01,-2.46 0.45,-0.43 0.96,-1.58 2.66,-0.92 0.94,0.36 2.68,1.85 4.58,-1.10 1.12,0.75 2.82,0.45 3.09,-0.38 0.27,-0.82 0.58,-1.64 0.58,-2.20 0.00,-0.56 -0.05,-1.30 -0.05,-1.30 -0.04,-0.44 -0.19,-1.07 -0.44,-0.40 z" />
     </g>
</svg>
