<?xml version="1.0" encoding="UTF-8"?>
<svg version="1.1" id="Layer_1" x="0px" y="0px" width="578" height="60" viewBox="0 0 578 60"
xml:space="preserve" xmlns="http://www.w3.org/2000/svg" xmlns:svg="http://www.w3.org/2000/svg" xmlns:rdf="http://www.w3.org/1999/02/22-rdf-syntax-ns#"  xmlns:cc="http://creativecommons.org/ns#" xmlns:dc="http://purl.org/dc/elements/1.1/">
     <g>
<path d="M 237.62,11.02 c -0.13,-0.22 -1.75,-2.00 -2.68,-0.64 -1.15,1.68 -1.09,3.79 -1.11,6.15 -0.21,-0.48 -1.42,-3.56 -4.76,-5.15 -0.24,-0.12 -0.70,0.16 -0.70,0.91 0.00,0.43 -0.05,1.49 0.27,1.77 0.32,0.28 1.26,0.80 1.42,0.87 0.16,0.07 0.32,0.07 0.35,-0.11 0.03,-0.18 0.21,-0.61 0.52,-0.33 0.23,0.20 1.52,1.14 2.52,3.18 0.85,1.62 -1.15,4.43 -1.09,7.44 0.01,0.68 0.36,2.02 1.29,2.10 0.48,0.02 1.13,-0.33 1.65,-1.97 0.09,-0.37 0.16,-0.67 0.20,-0.82 0.06,-0.22 -0.08,-0.50 -0.26,0.01 -0.40,1.00 -1.35,1.67 -1.98,0.27 -0.10,-0.28 -0.54,-1.55 0.48,-4.20 0.86,-2.23 0.76,-5.54 0.82,-6.23 0.08,-0.96 0.40,-2.95 1.68,-2.01 0.29,0.21 0.60,0.50 0.60,0.50 0.28,0.30 0.62,0.65 0.75,0.27 0.20,-0.58 0.33,-1.52 0.04,-2.01 z M 349.77,46.07 c -0.24,0.68 -0.34,1.12 -0.31,1.38 0.03,0.26 0.12,1.10 0.12,1.10 -0.25,0.20 -1.33,0.87 -2.40,0.08 0.07,-0.23 0.21,-0.70 0.24,-0.95 0.12,-0.40 -0.13,-0.69 -0.32,-0.28 -0.20,0.41 -0.65,1.79 -0.99,2.10 -0.34,0.31 -0.74,1.45 -3.30,0.29 -0.45,-0.17 -1.23,-0.75 -2.46,0.48 -2.77,2.57 -4.68,2.77 -7.79,3.88 -0.38,0.17 -1.16,0.76 -0.23,0.67 0.94,-0.09 4.87,0.00 7.01,-2.46 0.45,-0.43 0.96,-1.58 2.66,-0.92 0.94,0.36 2.68,1.85 4.58,-1.10 1.12,0.75 2.82,0.45 3.09,-0.37 0.27,-0.82 0.58,-1.64 0.58,-2.20 0.00,-0.56 -0.05,-1.30 -0.05,-1.30 -0.04,-0.44 -0.19,-1.07 -0.44,-0.40 z M 294.13,12.44 c 0.73,-1.02 1.08,-0.98 1.36,-0.82 0.82,0.77 0.70,2.03 0.67,2.31 0.00,0.00 -1.05,-0.49 -1.52,-0.70 -0.47,-0.20 -0.72,-0.50 -0.50,-0.80 z M 296.98,14.46 c 0.00,0.00 0.67,-2.07 -0.56,-4.14 -0.21,-0.35 -1.43,-1.46 -2.85,0.74 -0.55,0.84 -0.96,2.85 -0.17,3.42 0.79,0.58 1.94,1.04 1.94,1.04 -3.66,4.48 -6.16,5.34 -8.31,6.59 -0.55,0.32 -0.44,0.61 -0.12,0.53 0.17,-0.04 3.05,-0.49 6.41,-3.05 1.82,-1.38 2.92,-3.74 2.92,-3.74 0.00,0.00 0.91,0.76 1.03,0.91 0.28,0.34 0.43,0.60 0.56,0.23 0.48,-1.33 -0.20,-2.13 -0.84,-2.54 z M 345.36,13.20 c 0.73,-1.02 1.08,-0.98 1.36,-0.82 0.82,0.77 0.70,2.03 0.67,2.31 0.00,0.00 -1.05,-0.49 -1.52,-0.70 -0.47,-0.20 -0.72,-0.50 -0.50,-0.80 z M 348.22,15.21 c 0.00,0.00 0.67,-2.07 -0.56,-4.14 -0.21,-0.35 -1.43,-1.46 -2.85,0.74 -0.55,0.84 -0.96,2.85 -0.17,3.42 0.79,0.58 1.94,1.04 1.94,1.04 -3.66,4.48 -10.85,7.67 -12.56,9.01 -0.51,0.39 -0.44,0.61 -0.12,0.53 0.28,-0.08 5.76,-1.61 10.76,-5.90 2.29,-1.96 2.23,-2.11 2.81,-3.31 0.50,0.26 0.84,0.67 1.03,0.91 0.28,0.34 0.43,0.60 0.56,0.23 0.48,-1.33 -0.20,-2.13 -0.84,-2.54 z M 321.43,21.81 c 0.19,-0.54 -0.04,-0.84 -0.31,-0.17 -0.27,0.66 -1.40,2.94 -1.23,5.64 0.04,0.62 0.45,1.83 1.39,1.87 0.48,0.00 1.11,-0.35 1.55,-1.88 0.08,-0.34 0.13,-0.62 0.16,-0.75 0.05,-0.21 -0.10,-0.45 -0.26,0.02 -0.36,0.93 -1.27,1.58 -1.96,0.33 -0.11,-0.25 -0.58,-1.38 0.28,-3.86 0.17,-0.48 0.39,-1.20 0.39,-1.20 z M 347.39,23.16 c 0.18,-0.50 -0.04,-0.77 -0.29,-0.16 -0.25,0.61 -1.30,2.73 -1.14,5.22 0.04,0.58 0.42,1.70 1.29,1.73 0.45,0.00 1.03,-0.33 1.44,-1.74 0.07,-0.32 0.12,-0.57 0.15,-0.70 0.04,-0.19 -0.10,-0.42 -0.24,0.02 -0.33,0.86 -1.18,1.47 -1.82,0.31 -0.10,-0.23 -0.53,-1.28 0.26,-3.57 0.16,-0.45 0.36,-1.11 0.36,-1.11 z M 317.91,12.84 c 0.46,-0.29 0.72,-0.41 0.90,-0.85 0.18,-0.44 0.23,-0.52 0.33,-0.82 0.10,-0.32 0.21,-0.67 -0.61,-0.19 -0.53,0.31 -14.04,8.11 -14.59,8.46 -0.55,0.35 -0.74,0.44 -0.83,0.86 -0.09,0.42 -0.13,0.67 -0.15,0.73 -0.10,0.28 -0.17,0.63 0.64,0.10 0.25,-0.16 13.84,-8.02 14.32,-8.31 z M 334.64,13.93 c 0.29,0.37 0.66,0.79 0.84,0.36 0.27,-0.64 0.49,-1.70 0.19,-2.28 -0.13,-0.26 -1.84,-2.41 -3.00,-0.93 -1.44,1.83 -1.53,4.23 -1.72,6.91 -0.20,-0.56 -1.35,-4.16 -5.02,-6.21 -0.27,-0.15 -0.81,0.13 -0.86,0.98 -0.03,0.49 -0.17,1.69 0.18,2.03 0.35,0.34 1.37,1.01 1.54,1.10 0.17,0.09 0.36,0.11 0.41,-0.10 0.05,-0.21 0.29,-0.68 0.62,-0.34 0.28,0.28 2.09,1.78 3.03,4.95 0.16,0.42 0.55,0.46 0.64,-0.14 0.22,-1.47 0.34,-4.02 0.45,-4.79 0.16,-1.09 0.68,-3.33 2.06,-2.16 0.31,0.27 0.64,0.61 0.64,0.61 z M 301.17,24.93 c -2.61,-1.91 -2.61,-1.91 -2.61,-1.91 -0.06,-0.05 -0.15,-0.03 -0.20,0.04 -1.32,1.81 -1.32,1.81 -1.32,1.81 -2.54,-1.85 -2.54,-1.85 -2.54,-1.85 -0.06,-0.05 -0.15,-0.03 -0.20,0.04 -1.53,2.10 -1.53,2.10 -1.53,2.10 -0.05,0.07 -0.04,0.16 0.03,0.21 2.61,1.91 2.61,1.91 2.61,1.91 0.06,0.05 0.15,0.03 0.20,-0.04 1.32,-1.81 1.32,-1.81 1.32,-1.81 2.54,1.85 2.54,1.85 2.54,1.85 0.06,0.05 0.15,0.03 0.20,-0.04 1.53,-2.10 1.53,-2.10 1.53,-2.10 0.05,-0.07 0.04,-0.16 -0.03,-0.20 z M 301.90,38.54 c -0.70,-1.00 -3.53,-2.69 -3.53,-2.69 0.00,0.00 2.17,-3.00 2.38,-3.37 0.21,-0.37 1.00,-2.69 1.09,-3.26 0.09,-0.56 0.13,-0.84 -0.29,-0.32 -0.42,0.52 -4.63,6.05 -4.63,6.05 -3.06,-2.18 -3.06,-2.18 -3.06,-2.18 0.00,0.00 1.25,-0.31 1.47,-0.38 0.22,-0.06 0.34,-0.34 -0.05,-0.55 -0.39,-0.20 -4.09,-1.67 -4.37,-1.79 -0.28,-0.11 -0.38,-0.24 -0.41,0.06 -0.02,0.30 -0.07,2.73 -0.07,2.73 0.00,0.00 -0.06,0.17 0.27,0.35 0.32,0.18 0.64,0.58 0.90,0.84 0.26,0.27 3.70,2.98 3.87,3.07 0.00,0.00 -1.72,3.02 -1.94,5.38 -0.22,2.36 0.04,5.63 3.27,4.58 0.87,-0.25 4.49,-1.69 5.30,-4.21 0.26,-0.93 1.01,-2.61 -0.21,-4.31 z M 300.82,41.65 c -1.20,0.99 -3.72,2.29 -4.43,2.36 -0.71,0.07 -2.59,-0.28 -1.77,-2.20 0.28,-0.63 2.16,-3.84 2.16,-3.84 0.70,0.39 5.24,2.70 4.04,3.69 z M 308.73,26.13 c -0.05,0.01 -0.10,0.07 -0.14,0.20 -0.10,0.36 -0.36,1.88 -0.42,2.20 -0.06,0.31 -0.06,0.63 0.10,0.90 0.16,0.27 0.55,1.20 0.84,1.95 0.29,0.76 3.25,6.48 3.53,6.98 0.27,0.51 0.33,0.88 0.06,1.22 -9.53,10.05 -27.91,16.23 -28.50,16.57 -0.59,0.34 -0.43,0.61 0.56,0.43 1.48,-0.26 9.74,-1.64 12.09,-2.77 1.56,-0.75 6.98,-3.42 11.42,-6.90 -0.13,0.90 -0.25,2.19 -0.19,3.91 0.30,8.08 7.53,6.74 9.43,6.33 5.68,-1.25 12.64,-9.10 13.23,-10.68 0.58,-1.56 0.67,-2.98 0.54,-4.23 1.50,-0.81 4.71,-3.40 4.71,-3.40 0.13,3.45 2.87,4.48 3.72,4.63 3.96,0.60 5.94,-2.70 6.78,-3.78 0.72,1.89 2.45,2.26 3.34,2.43 3.41,0.68 4.08,-1.74 4.25,-2.29 1.07,-3.33 -0.86,-5.81 -1.11,-6.08 -0.25,-0.28 -0.37,-0.01 -0.46,0.31 -0.09,0.32 -0.36,1.52 -0.54,2.27 0.00,0.00 0.71,1.16 0.97,1.76 0.25,0.59 -0.12,0.92 -0.86,1.01 -2.08,0.25 -3.73,-0.94 -4.30,-1.49 -0.57,-0.55 0.05,-1.52 0.51,-2.68 0.37,-0.93 -0.32,-1.04 -0.84,0.00 -1.76,4.63 -4.23,5.12 -4.88,5.30 -5.86,1.60 -5.36,-3.76 -5.34,-4.64 0.02,-0.88 -0.62,-0.56 -1.34,0.02 -2.47,1.98 -4.45,3.14 -5.52,3.62 -0.92,-1.80 -2.26,-2.93 -2.82,-3.34 -6.34,-4.63 -6.87,4.71 -6.67,5.71 0.97,3.97 7.45,1.56 8.46,1.44 1.02,-0.12 0.68,1.22 0.11,2.02 -1.41,1.97 -3.03,3.38 -4.50,4.58 -6.28,5.13 -9.43,4.72 -10.40,4.69 -6.21,-0.17 -5.60,-6.90 -5.25,-8.26 1.85,-1.57 3.45,-3.27 4.37,-5.03 0.38,-0.96 1.03,-3.16 -0.15,-5.91 -0.62,-1.21 -2.57,-4.60 -2.57,-4.60 0.00,0.00 1.43,0.04 1.57,0.04 0.14,0.00 0.41,-0.14 0.06,-0.55 -0.35,-0.40 -3.36,-3.41 -3.54,-3.65 -0.11,-0.15 -0.22,-0.27 -0.31,-0.26 z M 324.34,40.43 c -2.02,-0.14 -1.85,-0.92 -1.57,-1.23 0.30,-0.33 2.78,-1.89 4.85,0.89 0.00,0.00 -0.86,0.50 -3.28,0.33 z M 226.39,25.80 c 0.35,-1.05 -0.02,-1.63 -0.52,-0.35 -0.49,1.28 -2.53,5.67 -2.38,10.91 0.04,1.21 0.67,3.59 2.25,3.69 0.82,0.02 1.89,-0.64 2.73,-3.58 0.15,-0.67 0.24,-1.20 0.31,-1.46 0.09,-0.40 -0.15,-0.88 -0.44,0.03 -0.65,1.80 -2.24,3.02 -3.34,0.56 -0.18,-0.49 -0.90,-2.71 0.67,-7.49 0.32,-0.93 0.72,-2.31 0.72,-2.31 z M 236.31,34.42 c 0.26,-0.68 -0.06,-1.05 -0.43,-0.22 -0.37,0.83 -1.90,3.69 -1.65,7.05 0.06,0.78 0.63,2.29 1.92,2.32 0.66,-0.01 1.52,-0.45 2.12,-2.35 0.10,-0.43 0.17,-0.77 0.21,-0.94 0.06,-0.26 -0.15,-0.56 -0.36,0.03 -0.48,1.17 -1.73,1.99 -2.69,0.43 -0.15,-0.31 -0.80,-1.72 0.35,-4.82 0.23,-0.60 0.52,-1.50 0.52,-1.50 z M 226.35,16.78 c 0.17,-0.48 -0.03,-0.74 -0.28,-0.15 -0.24,0.59 -1.25,2.61 -1.09,5.00 0.04,0.55 0.40,1.63 1.23,1.65 0.43,0.00 0.98,-0.31 1.38,-1.66 0.07,-0.30 0.11,-0.55 0.14,-0.67 0.04,-0.18 -0.09,-0.40 -0.23,0.02 -0.31,0.83 -1.13,1.40 -1.74,0.30 -0.10,-0.22 -0.51,-1.22 0.25,-3.42 0.15,-0.43 0.35,-1.06 0.35,-1.06 z M 247.05,55.13 c 0.40,-0.23 0.64,-0.31 0.82,-0.68 0.18,-0.37 0.23,-0.43 0.33,-0.69 0.11,-0.27 0.22,-0.56 -0.52,-0.19 -0.47,0.24 -10.86,4.31 -11.35,4.58 -0.49,0.27 -0.66,0.34 -0.76,0.70 -0.10,0.36 -0.15,0.56 -0.17,0.62 -0.10,0.24 -0.18,0.53 0.54,0.12 0.22,-0.13 10.71,-4.24 11.11,-4.47 z M 258.45,21.21 c 0.29,0.29 0.65,0.62 0.73,0.22 0.13,-0.61 0.15,-1.58 -0.17,-2.06 -0.14,-0.21 -1.83,-1.91 -2.57,-0.45 -0.91,1.82 -0.64,3.97 -0.41,6.38 -0.24,-0.47 -1.69,-3.53 -4.96,-4.89 -0.24,-0.10 -0.64,0.22 -0.56,0.98 0.05,0.44 0.10,1.53 0.43,1.79 0.33,0.26 1.26,0.72 1.41,0.78 0.15,0.06 0.31,0.05 0.32,-0.14 0.01,-0.19 0.13,-0.64 0.45,-0.38 0.27,0.22 1.95,1.32 3.16,4.03 0.19,0.35 0.51,0.34 0.50,-0.20 -0.03,-1.34 -0.30,-3.62 -0.32,-4.33 -0.02,-0.99 0.08,-3.05 1.36,-2.19 0.29,0.20 0.61,0.46 0.61,0.46 z M 264.62,57.85 c -2.61,-1.91 -2.61,-1.91 -2.61,-1.91 -0.06,-0.05 -0.15,-0.03 -0.20,0.04 -1.32,1.81 -1.32,1.81 -1.32,1.81 -2.54,-1.85 -2.54,-1.85 -2.54,-1.85 -0.06,-0.05 -0.15,-0.03 -0.20,0.04 -1.53,2.10 -1.53,2.10 -1.53,2.10 -0.05,0.07 -0.04,0.16 0.03,0.21 2.61,1.91 2.61,1.91 2.61,1.91 0.06,0.05 0.15,0.03 0.20,-0.04 1.32,-1.81 1.32,-1.81 1.32,-1.81 2.54,1.85 2.54,1.85 2.54,1.85 0.06,0.05 0.15,0.03 0.20,-0.04 1.53,-2.10 1.53,-2.10 1.53,-2.10 0.05,-0.07 0.04,-0.16 -0.03,-0.20 z M 266.48,5.89 c -0.14,-0.39 -0.24,-0.80 -0.42,-0.25 -0.18,0.54 -0.31,0.96 -0.07,1.58 0.24,0.62 0.87,2.03 0.98,2.23 0.10,0.20 0.13,0.43 -0.22,0.58 -0.35,0.15 -1.95,0.49 -2.25,-1.21 -0.30,-1.71 -0.32,-2.20 -0.47,-2.49 -0.15,-0.29 -0.29,-0.32 -0.40,-0.04 -0.11,0.29 -0.18,0.88 -0.20,0.98 -0.02,0.10 -0.02,0.17 0.04,0.27 0.06,0.10 0.70,2.01 0.41,2.54 -0.29,0.52 -1.72,1.47 -2.48,0.48 -0.36,-0.69 -0.14,-2.44 -0.14,-2.85 0.00,-0.41 -0.13,-0.55 -0.31,-0.22 -0.17,0.33 -0.27,0.55 -0.26,0.85 0.01,0.30 0.05,1.58 0.03,1.98 -0.03,0.40 0.00,1.71 0.77,2.07 0.77,0.37 1.89,0.03 2.74,-1.58 0.66,0.95 1.65,0.96 2.19,0.76 0.46,-0.17 0.96,-0.85 1.11,-1.79 0.15,-0.94 -0.10,-1.59 -0.39,-2.13 -0.39,-0.66 -0.66,-1.76 -0.66,-1.76 z M 257.52,37.17 c -0.64,0.46 -1.21,1.32 -0.07,0.84 1.13,-0.48 2.63,-1.24 3.78,-2.97 0.34,-0.50 0.73,-1.18 -0.83,-1.41 -1.56,-0.23 -4.07,-0.60 -4.88,0.29 -0.81,0.89 -1.06,1.49 -1.31,1.88 -0.33,0.52 0.09,0.76 0.47,0.35 0.38,-0.41 0.64,-0.81 1.74,-0.79 1.11,0.03 3.75,-0.07 2.76,0.65 -0.99,0.73 -1.66,1.15 -1.66,1.15 z M 268.97,0.48 c -0.47,0.25 -18.02,7.58 -19.39,8.54 -0.69,0.48 -1.29,1.29 -1.54,2.18 -0.36,1.30 -0.12,2.62 0.73,2.81 0.59,0.13 0.91,0.51 1.05,0.71 0.06,0.09 0.16,0.04 0.19,-0.02 0.77,-1.29 0.21,-2.18 -0.92,-2.58 -0.45,-0.16 -0.61,-0.81 1.16,-1.79 1.63,-0.90 17.62,-7.69 17.99,-7.92 0.49,-0.30 0.78,-0.40 1.00,-0.86 0.21,-0.46 0.27,-0.54 0.38,-0.86 0.13,-0.34 0.25,-0.70 -0.64,-0.22 z M 275.79,18.43 c 0.00,0.00 1.55,1.46 1.80,1.72 0.25,0.26 0.55,0.12 0.41,-0.30 -0.14,-0.42 -3.31,-8.09 -3.42,-8.36 -0.10,-0.27 -0.20,-0.46 -0.33,-0.15 -0.13,0.31 -1.17,2.90 -1.17,2.90 0.03,0.18 0.33,0.55 0.50,1.68 0.17,1.18 2.09,12.00 3.04,18.64 0.08,0.57 1.89,12.10 1.68,12.33 -0.20,0.24 -2.95,2.38 -6.07,0.22 -0.53,-0.36 -2.52,-1.71 -3.42,-8.39 -0.20,-1.31 -1.95,-15.57 -1.95,-15.57 0.00,0.00 -0.90,-6.98 -1.20,-8.49 -0.13,-0.50 -0.26,-0.57 -0.41,-0.24 -0.15,0.33 -1.27,1.55 -1.01,3.79 0.26,2.25 2.83,20.18 3.03,21.73 0.20,1.55 1.09,7.23 0.23,8.12 -0.86,0.89 -3.20,1.98 -5.58,0.83 -0.83,-0.36 -1.89,-1.40 -1.55,-3.53 0.13,-0.79 -0.25,-1.40 -0.81,-0.53 -0.56,0.87 -3.16,6.00 -7.10,5.26 -0.95,-0.18 -3.62,-0.44 -4.86,-5.28 -0.41,-1.58 -2.29,-16.92 -2.73,-20.00 -0.44,-3.08 -1.72,-11.79 -2.02,-12.72 -0.31,-0.92 -0.70,-0.26 -1.01,0.44 -0.31,0.70 -0.77,1.46 -0.40,3.65 0.39,2.25 3.12,21.56 3.30,23.28 0.18,1.72 0.75,4.58 -1.41,6.56 -2.16,1.98 -9.65,8.34 -15.00,6.25 -1.40,-0.55 -5.85,-2.55 -2.99,-11.66 0.34,-1.08 -0.26,-1.80 -0.88,-0.48 -0.62,1.32 -3.54,9.21 0.84,13.68 0.94,0.96 5.71,4.71 13.77,-1.28 1.24,-0.92 6.13,-4.29 6.59,-8.36 0.06,-0.53 0.18,0.31 0.22,0.52 0.04,0.20 0.80,8.44 7.00,8.69 1.02,0.04 3.56,0.07 6.27,-4.26 0.69,1.55 1.62,3.48 4.45,3.50 1.12,0.01 4.62,-0.16 5.41,-4.88 1.22,1.42 2.81,4.14 6.90,3.43 1.26,-0.22 3.70,-0.73 3.70,-6.37 -0.03,-1.29 -0.53,-5.58 -0.79,-7.23 -0.26,-1.65 -3.01,-19.15 -3.01,-19.15 z M 283.39,18.43 c 0.00,0.00 1.55,1.46 1.80,1.72 0.25,0.26 0.55,0.12 0.41,-0.30 -0.14,-0.42 -3.32,-8.09 -3.42,-8.36 -0.10,-0.27 -0.20,-0.46 -0.33,-0.15 -0.13,0.31 -1.08,2.64 -1.08,2.64 0.02,0.14 0.28,1.16 0.33,1.54 0.44,3.37 3.40,23.24 4.19,29.53 0.39,3.10 0.49,5.89 0.53,7.38 -0.04,0.46 0.17,0.64 0.38,0.19 0.11,-0.24 0.59,-1.22 0.73,-3.80 0.11,-1.94 -0.05,-4.91 -0.60,-9.01 -0.08,-0.60 -2.95,-21.37 -2.95,-21.37 z" />
     </g>
</svg>
