<?xml version="1.0" encoding="UTF-8"?>
<svg version="1.1" id="Layer_1" x="0px" y="0px" width="578" height="52" viewBox="0 0 578 52"
xml:space="preserve" xmlns="http://www.w3.org/2000/svg" xmlns:svg="http://www.w3.org/2000/svg" xmlns:rdf="http://www.w3.org/1999/02/22-rdf-syntax-ns#"  xmlns:cc="http://creativecommons.org/ns#" xmlns:dc="http://purl.org/dc/elements/1.1/">
     <g>
<path d="M 267.95,20.44 c -1.92,2.63 -1.92,2.63 -1.92,2.63 -0.06,0.08 -0.05,0.20 0.03,0.25 3.27,2.38 3.27,2.38 3.27,2.38 0.08,0.06 0.19,0.04 0.25,-0.05 1.91,-2.63 1.91,-2.63 1.91,-2.63 0.06,-0.08 0.05,-0.20 -0.03,-0.25 -3.27,-2.38 -3.27,-2.38 -3.27,-2.38 -0.08,-0.06 -0.19,-0.04 -0.25,0.05 z M 287.30,25.97 c -0.24,-1.54 -3.04,-17.38 -3.04,-17.38 0.00,0.00 1.55,1.46 1.80,1.72 0.25,0.26 0.55,0.12 0.41,-0.30 -0.14,-0.42 -3.09,-7.91 -3.19,-8.17 -0.10,-0.27 -0.20,-0.46 -0.33,-0.15 -0.13,0.31 -1.15,2.55 -1.15,2.55 0.03,0.18 0.27,0.73 0.43,1.87 0.17,1.18 4.13,25.70 4.05,26.55 -0.07,0.85 -0.04,1.24 -0.43,1.49 -0.20,0.13 -1.67,1.11 -4.10,2.11 1.68,-5.59 1.10,-5.97 0.80,-6.42 -2.37,-3.53 -6.04,-3.17 -6.91,-3.05 -4.34,0.59 -8.33,6.43 -9.37,7.68 -0.48,0.57 -1.46,1.88 -2.44,3.40 -1.50,-0.61 -2.85,-1.63 -3.73,-3.32 0.30,-0.88 0.10,-1.62 -0.51,-0.79 -0.61,0.83 -1.54,2.85 -2.23,3.62 -0.69,0.76 -4.27,3.58 -7.57,0.95 -0.52,-0.41 -3.97,-2.96 -1.41,-11.01 0.00,0.00 0.00,0.00 0.00,0.00 5.18,-2.61 9.93,-4.91 10.11,-5.03 0.40,-0.26 0.79,-2.74 0.79,-2.74 -19.37,-3.07 -25.00,-0.36 -26.08,0.28 -1.08,0.63 -1.76,2.75 -1.61,3.76 0.15,1.01 0.85,1.93 1.26,2.24 0.41,0.31 2.17,1.46 3.66,2.71 0.45,0.38 0.98,0.88 1.50,1.41 -3.59,1.81 -6.50,3.30 -6.94,3.63 -0.64,0.40 -0.75,2.48 -0.75,3.11 0.00,0.00 1.62,1.01 7.20,1.95 3.28,0.55 3.75,1.14 3.99,1.52 0.24,0.39 -2.53,2.25 -3.62,2.93 -11.93,7.50 -17.85,4.90 -18.98,4.52 -7.26,-2.45 -3.37,-13.10 -3.07,-14.32 0.30,-1.22 -0.17,-1.52 -0.73,-0.33 -2.71,6.33 -1.96,10.66 -1.75,11.94 1.19,7.27 9.77,6.66 11.19,6.53 8.43,-0.76 15.31,-6.77 16.83,-7.99 1.52,-1.22 1.62,-2.61 1.75,-3.33 0.43,-3.40 -1.52,-3.93 -2.24,-4.19 -0.73,-0.26 -5.74,-1.35 -5.74,-1.35 0.63,-0.55 2.37,-1.57 4.63,-2.79 0.44,0.47 0.75,0.83 0.82,0.92 0.20,0.26 0.30,0.49 0.49,-0.16 0.11,-0.49 0.10,-0.98 0.00,-1.46 1.83,-0.97 3.90,-2.04 5.95,-3.07 -0.41,1.67 -1.24,5.45 -0.26,9.82 1.05,4.67 6.63,6.57 10.46,2.79 0.44,-0.43 1.78,-2.36 2.05,-3.05 0.26,0.51 1.17,2.15 2.36,2.85 0.15,0.09 0.32,0.18 0.54,0.27 -0.46,0.92 -0.83,1.81 -0.99,2.56 0.00,0.00 -0.37,1.30 -0.14,1.35 0.23,0.06 0.48,-0.14 0.79,-0.85 0.39,-0.96 0.83,-1.86 1.30,-2.72 1.87,0.55 5.26,0.94 11.10,0.06 1.23,-0.19 5.92,-0.99 11.07,-4.07 0.84,-0.48 1.80,-0.90 2.13,-4.75 0.13,-0.99 0.07,-4.73 -0.18,-6.27 z M 237.16,25.97 c 0.00,0.00 -3.57,-2.81 -4.00,-3.11 -0.43,-0.30 1.71,-1.43 4.69,-1.65 7.85,-0.58 15.05,0.33 15.74,0.59 0.33,0.13 -7.08,3.84 -13.50,7.07 -1.04,-1.45 -2.50,-2.57 -2.93,-2.91 z M 280.61,34.10 c -5.20,4.55 -13.38,4.21 -15.64,4.04 2.75,-3.84 6.01,-6.41 8.11,-7.74 2.99,-1.89 5.81,0.28 7.31,1.41 1.50,1.13 0.71,1.87 0.23,2.29 z M 266.44,3.49 c 0.69,-0.92 1.02,-0.87 1.26,-0.71 0.73,0.72 0.59,1.87 0.55,2.13 0.00,0.00 -0.95,-0.48 -1.38,-0.68 -0.43,-0.20 -0.64,-0.48 -0.44,-0.74 z M 269.00,5.40 c 0.00,0.00 0.67,-1.88 -0.41,-3.81 -0.18,-0.32 -1.27,-1.37 -2.63,0.60 -0.53,0.75 -0.95,2.58 -0.25,3.13 0.71,0.55 1.74,1.00 1.74,1.00 -3.46,4.01 -8.24,7.74 -10.23,8.83 -0.51,0.28 -0.42,0.55 -0.12,0.48 0.15,-0.04 2.77,-0.92 5.93,-3.13 2.67,-1.86 5.24,-5.85 5.24,-5.85 0.00,0.00 0.81,0.72 0.92,0.86 0.24,0.32 0.38,0.56 0.50,0.23 0.47,-1.20 -0.13,-1.95 -0.71,-2.35 z M 223.81,32.18 c -0.57,-0.69 -0.61,-0.41 -0.79,-0.14 -0.18,0.28 -0.58,1.52 -0.58,1.52 0.34,0.57 4.62,5.62 3.59,13.27 -0.15,0.76 0.12,0.67 0.30,0.34 0.50,-0.89 2.65,-8.71 -2.53,-14.99 z M 358.99,37.21 c -0.24,0.68 -0.34,1.12 -0.31,1.38 0.03,0.26 0.11,1.10 0.11,1.10 -0.25,0.20 -1.33,0.87 -2.40,0.08 0.07,-0.23 0.21,-0.70 0.24,-0.95 0.12,-0.40 -0.13,-0.69 -0.32,-0.28 -0.20,0.41 -0.65,1.79 -0.99,2.10 -0.34,0.31 -0.73,1.45 -3.30,0.29 -0.45,-0.17 -1.23,-0.75 -2.46,0.48 -2.77,2.57 -4.68,2.78 -7.79,3.88 -0.38,0.17 -1.16,0.77 -0.23,0.67 0.94,-0.09 4.87,0.00 7.01,-2.46 0.45,-0.43 0.96,-1.58 2.66,-0.92 0.94,0.36 2.68,1.85 4.58,-1.10 1.12,0.75 2.82,0.45 3.09,-0.38 0.27,-0.82 0.58,-1.64 0.58,-2.20 0.00,-0.56 -0.05,-1.30 -0.05,-1.30 -0.04,-0.44 -0.19,-1.07 -0.44,-0.40 z M 303.35,3.59 c 0.73,-1.02 1.08,-0.99 1.36,-0.82 0.82,0.77 0.70,2.02 0.67,2.31 0.00,0.00 -1.05,-0.49 -1.52,-0.69 -0.47,-0.20 -0.72,-0.50 -0.50,-0.80 z M 306.21,5.60 c 0.00,0.00 0.67,-2.07 -0.56,-4.14 -0.21,-0.35 -1.43,-1.46 -2.85,0.74 -0.55,0.84 -0.96,2.85 -0.17,3.42 0.79,0.58 1.93,1.04 1.93,1.04 -3.66,4.48 -6.16,5.34 -8.30,6.59 -0.55,0.32 -0.44,0.61 -0.12,0.53 0.17,-0.04 3.05,-0.49 6.41,-3.05 1.82,-1.38 2.92,-3.74 2.92,-3.74 0.00,0.00 0.91,0.76 1.03,0.91 0.28,0.34 0.43,0.60 0.56,0.23 0.48,-1.33 -0.20,-2.13 -0.84,-2.54 z M 354.59,4.34 c 0.73,-1.02 1.08,-0.99 1.36,-0.82 0.82,0.77 0.70,2.03 0.67,2.31 0.00,0.00 -1.05,-0.49 -1.52,-0.69 -0.47,-0.20 -0.72,-0.50 -0.50,-0.80 z M 357.45,6.35 c 0.00,0.00 0.67,-2.07 -0.56,-4.14 -0.21,-0.35 -1.43,-1.46 -2.85,0.74 -0.55,0.84 -0.96,2.85 -0.17,3.42 0.79,0.58 1.93,1.04 1.93,1.04 -3.66,4.49 -10.84,7.67 -12.55,9.01 -0.51,0.39 -0.44,0.61 -0.12,0.52 0.29,-0.08 5.76,-1.61 10.76,-5.90 2.29,-1.97 2.23,-2.11 2.82,-3.31 0.50,0.26 0.84,0.67 1.03,0.91 0.28,0.34 0.43,0.60 0.56,0.23 0.48,-1.33 -0.20,-2.13 -0.84,-2.54 z M 330.66,12.95 c 0.19,-0.54 -0.04,-0.84 -0.31,-0.17 -0.27,0.66 -1.40,2.94 -1.23,5.63 0.04,0.62 0.45,1.83 1.39,1.87 0.48,0.00 1.11,-0.35 1.55,-1.87 0.08,-0.34 0.13,-0.62 0.16,-0.75 0.05,-0.21 -0.10,-0.45 -0.26,0.02 -0.35,0.93 -1.27,1.58 -1.96,0.33 -0.11,-0.25 -0.58,-1.38 0.28,-3.86 0.17,-0.48 0.39,-1.20 0.39,-1.20 z M 356.62,14.30 c 0.18,-0.50 -0.04,-0.77 -0.29,-0.16 -0.25,0.61 -1.30,2.73 -1.14,5.22 0.04,0.58 0.42,1.70 1.29,1.73 0.45,0.00 1.03,-0.33 1.44,-1.73 0.07,-0.32 0.12,-0.57 0.15,-0.70 0.04,-0.19 -0.10,-0.42 -0.24,0.02 -0.33,0.86 -1.18,1.47 -1.82,0.31 -0.10,-0.23 -0.53,-1.28 0.26,-3.57 0.16,-0.44 0.36,-1.11 0.36,-1.11 z M 327.13,3.98 c 0.46,-0.28 0.72,-0.41 0.91,-0.85 0.18,-0.44 0.23,-0.51 0.33,-0.82 0.10,-0.32 0.21,-0.67 -0.61,-0.19 -0.53,0.31 -14.04,8.11 -14.59,8.46 -0.55,0.35 -0.74,0.44 -0.83,0.87 -0.09,0.42 -0.13,0.67 -0.16,0.73 -0.10,0.28 -0.17,0.63 0.64,0.10 0.25,-0.16 13.84,-8.02 14.32,-8.31 z M 343.87,5.07 c 0.29,0.37 0.66,0.79 0.84,0.36 0.27,-0.64 0.49,-1.70 0.19,-2.28 -0.13,-0.25 -1.84,-2.41 -3.00,-0.93 -1.44,1.83 -1.53,4.23 -1.72,6.91 -0.20,-0.56 -1.35,-4.16 -5.02,-6.21 -0.27,-0.15 -0.81,0.13 -0.86,0.98 -0.03,0.49 -0.17,1.69 0.18,2.03 0.35,0.34 1.37,1.00 1.54,1.10 0.17,0.09 0.36,0.11 0.41,-0.10 0.05,-0.21 0.28,-0.68 0.62,-0.34 0.28,0.28 2.09,1.78 3.03,4.95 0.16,0.42 0.55,0.46 0.64,-0.14 0.22,-1.47 0.34,-4.02 0.45,-4.79 0.16,-1.09 0.68,-3.32 2.06,-2.16 0.31,0.26 0.64,0.61 0.64,0.61 z M 310.39,16.07 c -2.61,-1.91 -2.61,-1.91 -2.61,-1.91 -0.06,-0.05 -0.15,-0.03 -0.20,0.04 -1.32,1.81 -1.32,1.81 -1.32,1.81 -2.54,-1.85 -2.54,-1.85 -2.54,-1.85 -0.06,-0.05 -0.15,-0.03 -0.20,0.04 -1.53,2.10 -1.53,2.10 -1.53,2.10 -0.05,0.07 -0.04,0.16 0.03,0.20 2.61,1.91 2.61,1.91 2.61,1.91 0.06,0.05 0.15,0.03 0.20,-0.04 1.32,-1.81 1.32,-1.81 1.32,-1.81 2.54,1.85 2.54,1.85 2.54,1.85 0.06,0.05 0.15,0.03 0.20,-0.04 1.53,-2.10 1.53,-2.10 1.53,-2.10 0.05,-0.07 0.04,-0.16 -0.03,-0.20 z M 311.13,29.68 c -0.70,-1.00 -3.53,-2.69 -3.53,-2.69 0.00,0.00 2.17,-3.00 2.38,-3.37 0.21,-0.37 1.00,-2.69 1.09,-3.26 0.09,-0.56 0.13,-0.84 -0.29,-0.32 -0.42,0.52 -4.63,6.05 -4.63,6.05 -3.06,-2.19 -3.06,-2.19 -3.06,-2.19 0.00,0.00 1.25,-0.31 1.47,-0.38 0.22,-0.06 0.34,-0.35 -0.05,-0.55 -0.39,-0.20 -4.09,-1.67 -4.37,-1.79 -0.28,-0.11 -0.38,-0.24 -0.41,0.06 -0.02,0.30 -0.07,2.73 -0.07,2.73 0.00,0.00 -0.06,0.17 0.27,0.35 0.32,0.18 0.64,0.58 0.90,0.84 0.26,0.26 3.70,2.98 3.87,3.07 0.00,0.00 -1.72,3.02 -1.94,5.38 -0.22,2.36 0.04,5.63 3.27,4.57 0.87,-0.25 4.49,-1.69 5.30,-4.21 0.26,-0.93 1.01,-2.61 -0.21,-4.31 z M 310.04,32.79 c -1.20,0.99 -3.72,2.29 -4.43,2.36 -0.71,0.07 -2.59,-0.28 -1.77,-2.20 0.28,-0.62 2.16,-3.84 2.16,-3.84 0.70,0.39 5.24,2.70 4.04,3.69 z M 317.95,17.27 c -0.05,0.01 -0.10,0.07 -0.14,0.20 -0.10,0.35 -0.36,1.89 -0.42,2.20 -0.06,0.31 -0.06,0.63 0.10,0.90 0.15,0.27 0.55,1.20 0.84,1.95 0.29,0.76 3.26,6.48 3.53,6.98 0.27,0.51 0.33,0.89 0.06,1.22 -9.53,10.05 -27.91,16.23 -28.50,16.57 -0.59,0.34 -0.43,0.60 0.56,0.43 1.48,-0.26 9.74,-1.64 12.09,-2.78 1.55,-0.75 6.98,-3.42 11.42,-6.90 -0.13,0.90 -0.25,2.20 -0.19,3.91 0.30,8.08 7.53,6.74 9.43,6.33 5.68,-1.25 12.64,-9.11 13.23,-10.69 0.58,-1.56 0.67,-2.98 0.54,-4.23 1.50,-0.81 4.71,-3.40 4.71,-3.40 0.13,3.45 2.88,4.48 3.72,4.63 3.96,0.60 5.94,-2.71 6.78,-3.78 0.72,1.89 2.45,2.26 3.34,2.43 3.41,0.68 4.08,-1.73 4.25,-2.29 1.07,-3.33 -0.86,-5.81 -1.10,-6.08 -0.25,-0.28 -0.38,-0.01 -0.46,0.31 -0.09,0.32 -0.36,1.52 -0.53,2.27 0.00,0.00 0.71,1.16 0.97,1.76 0.25,0.59 -0.12,0.92 -0.86,1.01 -2.08,0.25 -3.73,-0.94 -4.30,-1.48 -0.57,-0.55 0.05,-1.52 0.51,-2.68 0.37,-0.93 -0.32,-1.04 -0.84,0.00 -1.76,4.63 -4.23,5.13 -4.88,5.30 -5.86,1.60 -5.36,-3.76 -5.33,-4.64 0.02,-0.88 -0.62,-0.55 -1.34,0.03 -2.47,1.98 -4.45,3.14 -5.52,3.62 -0.92,-1.80 -2.26,-2.93 -2.82,-3.34 -6.34,-4.63 -6.87,4.71 -6.68,5.71 0.97,3.97 7.44,1.56 8.46,1.44 1.02,-0.12 0.69,1.22 0.11,2.02 -1.41,1.97 -3.03,3.38 -4.50,4.57 -6.28,5.13 -9.44,4.72 -10.41,4.69 -6.21,-0.17 -5.59,-6.91 -5.25,-8.26 1.85,-1.57 3.44,-3.27 4.37,-5.02 0.38,-0.96 1.03,-3.16 -0.15,-5.91 -0.62,-1.21 -2.56,-4.61 -2.56,-4.61 0.00,0.00 1.43,0.04 1.57,0.04 0.14,0.00 0.41,-0.14 0.06,-0.54 -0.35,-0.40 -3.36,-3.41 -3.54,-3.65 -0.11,-0.15 -0.22,-0.28 -0.31,-0.26 z M 333.56,31.57 c -2.02,-0.14 -1.85,-0.92 -1.57,-1.22 0.30,-0.33 2.78,-1.89 4.85,0.89 0.00,0.00 -0.86,0.50 -3.28,0.33 z M 215.78,19.55 c 0.25,-1.00 -0.15,-1.51 -0.51,-0.29 -0.36,1.22 -1.91,5.46 -1.36,10.32 0.13,1.12 0.90,3.28 2.38,3.26 0.76,-0.05 1.71,-0.74 2.25,-3.54 0.08,-0.63 0.13,-1.13 0.17,-1.38 0.05,-0.38 -0.21,-0.81 -0.41,0.06 -0.46,1.72 -1.84,2.98 -3.06,0.78 -0.20,-0.44 -1.05,-2.45 0.04,-7.01 0.22,-0.89 0.49,-2.20 0.49,-2.20 z M 225.03,19.46 c 0.20,-0.64 -0.10,-0.96 -0.39,-0.18 -0.29,0.78 -1.53,3.50 -1.14,6.59 0.09,0.71 0.67,2.09 1.82,2.06 0.59,-0.04 1.34,-0.48 1.78,-2.27 0.07,-0.40 0.11,-0.72 0.14,-0.88 0.05,-0.24 -0.16,-0.51 -0.32,0.04 -0.37,1.10 -1.46,1.92 -2.38,0.52 -0.15,-0.28 -0.80,-1.55 0.09,-4.47 0.18,-0.57 0.40,-1.41 0.40,-1.41 z M 251.55,6.59 c 0.17,-0.61 -0.09,-0.92 -0.35,-0.17 -0.25,0.75 -1.34,3.34 -0.98,6.29 0.08,0.68 0.61,2.00 1.62,1.97 0.52,-0.03 1.18,-0.46 1.57,-2.16 0.06,-0.38 0.10,-0.69 0.12,-0.84 0.04,-0.23 -0.14,-0.49 -0.28,0.04 -0.33,1.05 -1.28,1.83 -2.11,0.49 -0.14,-0.27 -0.71,-1.49 0.06,-4.27 0.16,-0.54 0.35,-1.34 0.35,-1.34 z M 277.96,10.55 c 0.17,-0.61 -0.09,-0.92 -0.35,-0.17 -0.25,0.75 -1.34,3.33 -0.98,6.29 0.08,0.68 0.60,2.00 1.62,1.97 0.52,-0.03 1.18,-0.46 1.57,-2.16 0.06,-0.38 0.10,-0.69 0.12,-0.84 0.04,-0.23 -0.14,-0.49 -0.28,0.04 -0.33,1.05 -1.28,1.83 -2.11,0.49 -0.14,-0.27 -0.71,-1.49 0.06,-4.27 0.16,-0.54 0.35,-1.34 0.35,-1.34 z M 244.62,50.12 c -0.35,0.37 -0.27,0.69 0.19,0.25 0.46,-0.44 2.19,-1.89 3.01,-4.14 0.19,-0.52 0.28,-1.65 -0.47,-2.01 -0.39,-0.17 -1.03,-0.11 -1.93,0.97 -0.19,0.25 -0.32,0.46 -0.40,0.56 -0.11,0.15 -0.08,0.40 0.22,0.08 0.62,-0.63 1.60,-0.83 1.71,0.43 0.00,0.24 -0.02,1.33 -1.60,3.04 -0.31,0.33 -0.74,0.83 -0.74,0.83 z M 285.80,47.09 c -0.35,0.37 -0.27,0.69 0.19,0.25 0.46,-0.44 2.19,-1.89 3.01,-4.14 0.19,-0.52 0.28,-1.65 -0.46,-2.01 -0.39,-0.17 -1.03,-0.11 -1.93,0.97 -0.18,0.25 -0.32,0.46 -0.40,0.56 -0.11,0.15 -0.08,0.40 0.22,0.08 0.62,-0.63 1.60,-0.83 1.71,0.43 0.00,0.24 -0.02,1.33 -1.60,3.04 -0.31,0.33 -0.74,0.83 -0.74,0.83 z M 264.02,50.12 c -0.35,0.37 -0.27,0.69 0.19,0.25 0.46,-0.44 2.19,-1.89 3.01,-4.14 0.19,-0.52 0.28,-1.65 -0.47,-2.01 -0.39,-0.17 -1.03,-0.11 -1.93,0.97 -0.19,0.25 -0.32,0.46 -0.40,0.56 -0.11,0.15 -0.08,0.40 0.22,0.08 0.62,-0.63 1.60,-0.83 1.72,0.43 0.00,0.24 -0.02,1.33 -1.60,3.04 -0.31,0.33 -0.74,0.83 -0.74,0.83 z M 253.37,4.57 c 0.58,-0.33 0.93,-0.45 1.20,-0.98 0.26,-0.53 0.33,-0.62 0.48,-0.99 0.16,-0.39 0.34,-0.76 -0.74,-0.28 -0.72,0.31 -26.11,12.04 -26.85,12.38 -0.74,0.34 -0.96,0.49 -1.10,1.01 -0.14,0.52 -0.22,0.79 -0.25,0.90 -0.13,0.35 -0.30,0.71 0.78,0.18 0.33,-0.16 25.91,-11.89 26.50,-12.22 z M 225.71,7.42 c 0.28,0.35 0.63,0.75 0.80,0.35 0.26,-0.61 0.46,-1.62 0.18,-2.17 -0.12,-0.24 -1.75,-2.29 -2.85,-0.89 -1.37,1.74 -1.46,4.03 -1.64,6.58 -0.19,-0.53 -1.29,-3.95 -4.78,-5.91 -0.25,-0.14 -0.77,0.13 -0.82,0.93 -0.03,0.47 -0.16,1.61 0.17,1.93 0.33,0.32 1.31,0.96 1.47,1.05 0.16,0.09 0.34,0.10 0.39,-0.09 0.05,-0.19 0.27,-0.65 0.59,-0.32 0.27,0.27 1.99,1.69 2.88,4.71 0.16,0.40 0.53,0.44 0.61,-0.13 0.21,-1.40 0.32,-3.82 0.43,-4.56 0.16,-1.03 0.65,-3.16 1.96,-2.06 0.30,0.25 0.61,0.58 0.61,0.58 z M 271.57,11.57 c -0.15,-0.41 -0.25,-0.82 -0.43,-0.26 -0.18,0.56 -0.32,1.00 -0.07,1.64 0.24,0.64 0.91,2.10 1.02,2.31 0.11,0.21 0.14,0.44 -0.23,0.60 -0.36,0.15 -2.02,0.51 -2.33,-1.26 -0.31,-1.77 -0.34,-2.29 -0.49,-2.59 -0.15,-0.30 -0.30,-0.34 -0.42,-0.04 -0.12,0.30 -0.19,0.92 -0.21,1.02 -0.02,0.10 -0.02,0.17 0.05,0.28 0.06,0.11 0.73,2.09 0.43,2.63 -0.30,0.54 -1.79,1.52 -2.57,0.50 -0.37,-0.72 -0.15,-2.53 -0.15,-2.96 0.00,-0.43 -0.14,-0.57 -0.32,-0.23 -0.18,0.34 -0.28,0.57 -0.27,0.88 0.01,0.31 0.05,1.63 0.03,2.05 -0.03,0.42 0.00,1.77 0.80,2.15 0.80,0.38 1.96,0.03 2.84,-1.63 0.68,0.99 1.71,0.99 2.27,0.79 0.47,-0.17 1.00,-0.88 1.15,-1.86 0.15,-0.98 -0.10,-1.65 -0.41,-2.21 -0.41,-0.68 -0.68,-1.82 -0.68,-1.82 z M 292.62,8.78 c 0.00,0.00 1.55,1.46 1.80,1.72 0.25,0.26 0.55,0.12 0.41,-0.30 -0.14,-0.42 -3.32,-8.09 -3.42,-8.36 -0.10,-0.27 -0.20,-0.46 -0.33,-0.15 -0.13,0.31 -1.08,2.64 -1.08,2.64 0.02,0.14 0.28,1.16 0.33,1.54 0.44,3.36 3.20,23.25 3.99,29.54 0.39,3.09 0.69,5.88 0.73,7.37 -0.04,0.46 0.17,0.64 0.38,0.19 0.11,-0.24 0.59,-1.22 0.73,-3.80 0.11,-1.94 -0.05,-4.91 -0.60,-9.01 -0.08,-0.60 -2.95,-21.37 -2.95,-21.37 z" />
     </g>
</svg>
