<?xml version="1.0" encoding="UTF-8"?>
<svg version="1.1" id="Layer_1" x="0px" y="0px" width="578" height="50" viewBox="0 0 578 50"
xml:space="preserve" xmlns="http://www.w3.org/2000/svg" xmlns:svg="http://www.w3.org/2000/svg" xmlns:rdf="http://www.w3.org/1999/02/22-rdf-syntax-ns#"  xmlns:cc="http://creativecommons.org/ns#" xmlns:dc="http://purl.org/dc/elements/1.1/">
     <g>
<path d="M 289.59,41.71 c -0.04,0.46 0.17,0.64 0.38,0.19 0.11,-0.24 0.59,-1.22 0.73,-3.80 0.11,-1.94 -0.05,-4.92 -0.60,-9.01 -0.08,-0.60 -2.95,-21.37 -2.95,-21.37 0.00,0.00 1.55,1.46 1.80,1.72 0.25,0.26 0.55,0.12 0.41,-0.30 -0.14,-0.42 -3.32,-8.09 -3.42,-8.36 -0.10,-0.27 -0.20,-0.46 -0.33,-0.15 -0.13,0.31 -1.08,2.64 -1.08,2.64 0.02,0.14 0.28,1.16 0.33,1.54 0.44,3.36 3.20,23.25 3.99,29.54 0.39,3.09 0.69,5.88 0.73,7.37 z M 281.48,23.85 c -0.24,-1.50 -2.69,-16.88 -2.69,-16.88 0.00,0.00 1.55,1.46 1.80,1.72 0.25,0.26 0.55,0.12 0.41,-0.30 -0.14,-0.42 -3.08,-7.34 -3.18,-7.61 -0.10,-0.27 -0.20,-0.46 -0.33,-0.15 -0.13,0.31 -1.15,2.55 -1.15,2.55 0.03,0.18 0.27,0.73 0.43,1.87 0.17,1.18 0.42,2.86 0.69,4.71 0.00,0.00 3.26,20.93 3.28,21.45 0.02,0.63 0.12,1.21 -0.53,1.31 -0.66,0.10 -3.88,0.51 -5.03,-1.97 0.08,-0.45 0.16,-0.86 0.18,-1.03 0.02,-0.21 -0.26,-0.64 -0.52,-0.04 -0.14,0.32 -0.87,2.79 -1.66,3.66 -0.25,0.29 -2.44,2.27 -4.10,-0.68 0.17,-0.60 0.39,-1.41 0.49,-1.83 0.10,-0.42 0.08,-0.78 -0.22,-0.41 -0.30,0.37 -3.61,5.91 -7.60,4.31 -0.89,-0.36 -4.31,-3.90 -9.27,-1.55 -1.60,0.76 -5.03,2.85 -7.85,5.74 -0.63,0.64 -5.86,6.84 -8.54,7.00 -0.67,0.04 -4.22,0.36 -3.12,-4.40 0.01,-0.06 0.02,-0.12 0.01,-0.19 2.97,-0.38 6.53,-2.03 10.13,-6.49 0.81,-1.00 6.46,-9.72 1.41,-14.39 -1.10,-1.02 -3.60,-1.95 -9.86,-1.36 -2.20,0.20 -7.39,0.83 -9.65,0.70 -0.38,-0.04 -1.00,-0.11 -1.66,-0.18 0.60,-1.01 1.36,-2.00 2.33,-2.94 0.13,-0.12 0.58,-0.46 1.25,-0.93 0.56,0.52 0.96,0.95 1.10,1.20 0.28,0.54 0.49,0.12 0.49,-0.12 0.00,-0.14 0.14,-0.91 -0.26,-2.02 3.68,-2.54 10.30,-6.92 13.74,-8.73 0.26,-0.75 1.36,-2.64 0.92,-2.86 -10.62,-1.62 -18.46,-0.56 -19.22,-0.43 -1.92,0.31 -4.80,1.14 -5.12,3.47 -0.13,1.28 -0.53,2.77 1.23,3.87 1.06,0.66 3.60,2.60 5.58,4.28 -1.22,1.28 -2.50,2.95 -3.47,5.03 -0.70,-0.10 -1.31,-0.21 -1.57,-0.30 -0.36,-0.13 -0.89,0.11 -0.09,0.65 0.22,0.15 0.62,0.45 1.17,0.81 -0.30,0.80 -0.56,1.65 -0.74,2.56 -0.24,1.18 -3.03,11.35 4.93,16.63 0.52,0.34 3.01,1.82 6.48,1.64 -0.02,0.06 -0.04,0.13 -0.05,0.20 -0.27,1.26 -0.57,4.49 1.70,5.86 0.72,0.44 4.12,2.06 8.71,-2.90 0.54,-0.58 5.67,-6.44 9.47,-8.01 1.31,-0.54 3.74,-1.93 7.65,0.65 0.58,0.38 3.04,1.81 5.52,0.11 0.77,-0.53 2.44,-2.33 2.67,-2.72 0.00,0.00 0.79,2.56 2.78,2.65 0.54,0.02 2.89,0.18 3.91,-3.54 0.47,0.58 1.81,2.90 5.01,2.20 0.51,-0.11 1.91,-0.38 2.71,-4.53 0.07,-0.85 0.05,-3.54 -0.70,-7.32 z M 220.23,7.33 c -0.37,-0.35 -0.98,-0.68 -0.16,-0.96 0.82,-0.28 4.68,-2.20 17.89,-0.98 -0.40,0.23 -7.84,5.05 -8.90,5.75 -0.31,0.21 -1.05,0.69 -1.96,1.46 -0.18,-0.22 -0.39,-0.45 -0.62,-0.69 -0.72,-0.66 -5.87,-4.23 -6.24,-4.58 z M 231.00,37.89 c -1.81,-0.10 -8.05,-1.22 -9.50,-8.49 -0.20,-1.00 -0.61,-4.61 1.03,-8.40 1.50,0.78 3.66,1.55 6.45,1.49 1.74,-0.04 10.52,-1.05 12.72,-0.04 2.20,1.01 4.93,2.90 3.04,6.42 -1.89,3.52 -7.62,9.35 -13.73,9.02 z M 255.78,23.73 c -1.00,0.74 -1.68,1.16 -1.68,1.16 -0.65,0.47 -1.22,1.34 -0.07,0.85 1.15,-0.49 2.66,-1.25 3.82,-3.00 0.34,-0.51 0.74,-1.19 -0.84,-1.43 -1.57,-0.24 -4.12,-0.60 -4.94,0.29 -0.82,0.90 -1.08,1.51 -1.32,1.90 -0.34,0.53 0.09,0.76 0.47,0.35 0.38,-0.41 0.65,-0.82 1.76,-0.79 1.12,0.03 3.79,-0.07 2.79,0.66 z M 265.61,14.92 c 0.77,0.37 1.89,0.03 2.74,-1.57 0.66,0.95 1.65,0.96 2.19,0.76 0.45,-0.17 0.96,-0.85 1.11,-1.79 0.15,-0.94 -0.10,-1.59 -0.39,-2.13 -0.39,-0.65 -0.66,-1.76 -0.66,-1.76 -0.14,-0.39 -0.24,-0.80 -0.42,-0.25 -0.18,0.54 -0.31,0.96 -0.07,1.58 0.24,0.62 0.87,2.03 0.98,2.23 0.11,0.20 0.13,0.43 -0.22,0.58 -0.35,0.15 -1.95,0.49 -2.25,-1.22 -0.30,-1.71 -0.32,-2.20 -0.47,-2.49 -0.15,-0.29 -0.29,-0.32 -0.40,-0.04 -0.11,0.29 -0.18,0.88 -0.20,0.98 -0.02,0.10 -0.02,0.17 0.04,0.27 0.06,0.11 0.70,2.01 0.41,2.54 -0.29,0.52 -1.72,1.47 -2.48,0.48 -0.36,-0.69 -0.14,-2.44 -0.14,-2.85 0.00,-0.41 -0.13,-0.55 -0.31,-0.22 -0.17,0.33 -0.27,0.55 -0.26,0.85 0.01,0.30 0.05,1.57 0.03,1.98 -0.03,0.40 0.00,1.71 0.77,2.07 z M 270.87,17.40 c -1.53,2.10 -1.53,2.10 -1.53,2.10 -0.05,0.07 -0.04,0.16 0.03,0.21 2.61,1.91 2.61,1.91 2.61,1.91 0.06,0.05 0.15,0.03 0.20,-0.04 1.53,-2.10 1.53,-2.10 1.53,-2.10 0.05,-0.07 0.04,-0.16 -0.03,-0.20 -2.61,-1.91 -2.61,-1.91 -2.61,-1.91 -0.06,-0.05 -0.15,-0.03 -0.20,0.04 z M 273.31,21.61 c -1.32,1.81 -1.32,1.81 -1.32,1.81 -2.54,-1.85 -2.54,-1.85 -2.54,-1.85 -0.06,-0.05 -0.15,-0.03 -0.20,0.04 -1.53,2.10 -1.53,2.10 -1.53,2.10 -0.05,0.07 -0.04,0.16 0.03,0.21 2.61,1.91 2.61,1.91 2.61,1.91 0.06,0.05 0.15,0.03 0.20,-0.04 1.32,-1.81 1.32,-1.81 1.32,-1.81 2.54,1.85 2.54,1.85 2.54,1.85 0.06,0.05 0.15,0.03 0.20,-0.04 1.53,-2.10 1.53,-2.10 1.53,-2.10 0.05,-0.07 0.04,-0.16 -0.03,-0.21 -2.61,-1.91 -2.61,-1.91 -2.61,-1.91 -0.06,-0.05 -0.15,-0.03 -0.20,0.04 z M 239.36,24.82 c -0.61,0.28 -11.39,5.56 -12.01,5.86 -0.59,0.28 -0.74,0.44 -0.83,0.86 -0.09,0.42 -0.13,0.67 -0.16,0.73 -0.10,0.28 -0.17,0.53 0.64,0.10 0.27,-0.14 11.24,-5.45 11.73,-5.71 0.48,-0.25 0.72,-0.41 0.91,-0.85 0.18,-0.44 0.23,-0.51 0.33,-0.82 0.10,-0.32 0.25,-0.58 -0.61,-0.19 z M 245.85,15.06 c 0.33,-0.16 25.85,-11.38 26.43,-11.70 0.58,-0.32 0.93,-0.43 1.20,-0.95 0.27,-0.52 0.34,-0.61 0.49,-0.97 0.16,-0.39 0.35,-0.74 -0.73,-0.29 -0.72,0.30 -26.04,11.53 -26.78,11.85 -0.73,0.33 -0.96,0.47 -1.11,0.98 -0.15,0.51 -0.23,0.78 -0.27,0.89 -0.13,0.35 -0.30,0.70 0.77,0.19 z M 283.07,38.03 c -0.41,-0.14 -1.03,-0.03 -1.85,1.11 -0.17,0.26 -0.29,0.48 -0.36,0.58 -0.10,0.16 -0.05,0.41 0.23,0.06 0.57,-0.67 1.54,-0.95 1.74,0.30 0.02,0.24 0.08,1.33 -1.37,3.15 -0.29,0.35 -0.68,0.89 -0.68,0.89 -0.32,0.40 -0.22,0.71 0.21,0.24 0.42,-0.47 2.05,-2.05 2.70,-4.35 0.15,-0.53 0.16,-1.67 -0.61,-1.97 z M 251.22,7.95 c 0.46,0.00 1.06,-0.34 1.48,-1.79 0.07,-0.33 0.12,-0.59 0.15,-0.72 0.05,-0.20 -0.10,-0.43 -0.25,0.02 -0.34,0.89 -1.22,1.51 -1.87,0.32 -0.11,-0.24 -0.55,-1.32 0.26,-3.68 0.16,-0.46 0.37,-1.14 0.37,-1.14 0.18,-0.52 -0.04,-0.80 -0.30,-0.17 -0.26,0.63 -1.34,2.81 -1.17,5.38 0.04,0.59 0.43,1.75 1.33,1.78 z M 239.92,9.23 c 0.18,-0.52 -0.04,-0.80 -0.30,-0.17 -0.26,0.63 -1.34,2.81 -1.17,5.38 0.04,0.59 0.43,1.75 1.33,1.78 0.46,0.00 1.06,-0.34 1.48,-1.79 0.07,-0.33 0.12,-0.59 0.15,-0.72 0.05,-0.20 -0.10,-0.43 -0.25,0.02 -0.34,0.89 -1.22,1.51 -1.87,0.32 -0.11,-0.24 -0.55,-1.32 0.26,-3.68 0.16,-0.46 0.37,-1.14 0.37,-1.14 z M 347.86,6.37 c 0.79,0.58 1.93,1.04 1.93,1.04 -3.66,4.48 -10.84,7.67 -12.55,9.01 -0.51,0.39 -0.44,0.61 -0.12,0.53 0.29,-0.08 5.76,-1.61 10.77,-5.90 2.29,-1.97 2.23,-2.11 2.81,-3.31 0.50,0.26 0.84,0.67 1.03,0.91 0.28,0.34 0.43,0.60 0.56,0.23 0.48,-1.33 -0.20,-2.13 -0.84,-2.54 0.00,0.00 0.67,-2.07 -0.56,-4.14 -0.21,-0.35 -1.43,-1.46 -2.85,0.74 -0.55,0.84 -0.96,2.85 -0.17,3.42 z M 348.59,4.34 c 0.73,-1.02 1.08,-0.98 1.36,-0.82 0.82,0.77 0.70,2.03 0.67,2.31 0.00,0.00 -1.05,-0.49 -1.52,-0.70 -0.47,-0.20 -0.72,-0.50 -0.50,-0.80 z M 330.02,7.03 c 0.17,0.10 0.36,0.11 0.41,-0.10 0.05,-0.21 0.28,-0.68 0.62,-0.34 0.28,0.28 2.09,1.78 3.03,4.95 0.16,0.42 0.55,0.46 0.64,-0.14 0.22,-1.47 0.34,-4.02 0.45,-4.79 0.16,-1.09 0.68,-3.33 2.06,-2.16 0.31,0.26 0.64,0.61 0.64,0.61 0.29,0.37 0.66,0.79 0.84,0.36 0.27,-0.64 0.49,-1.70 0.19,-2.28 -0.13,-0.26 -1.84,-2.41 -3.00,-0.93 -1.44,1.83 -1.53,4.23 -1.72,6.91 -0.20,-0.56 -1.35,-4.16 -5.02,-6.21 -0.27,-0.15 -0.81,0.13 -0.86,0.98 -0.03,0.49 -0.17,1.69 0.18,2.03 0.35,0.34 1.37,1.01 1.54,1.10 z M 350.62,14.30 c 0.18,-0.50 -0.04,-0.77 -0.29,-0.16 -0.25,0.61 -1.30,2.73 -1.14,5.22 0.04,0.58 0.42,1.70 1.29,1.73 0.45,0.00 1.03,-0.33 1.44,-1.74 0.07,-0.32 0.12,-0.57 0.15,-0.70 0.04,-0.19 -0.10,-0.42 -0.24,0.02 -0.33,0.86 -1.18,1.47 -1.82,0.31 -0.10,-0.23 -0.53,-1.28 0.26,-3.57 0.16,-0.45 0.36,-1.11 0.36,-1.11 z M 324.51,20.28 c 0.48,0.00 1.11,-0.35 1.55,-1.88 0.08,-0.34 0.13,-0.62 0.16,-0.75 0.05,-0.21 -0.10,-0.45 -0.26,0.02 -0.35,0.93 -1.27,1.58 -1.96,0.33 -0.11,-0.25 -0.58,-1.38 0.28,-3.86 0.17,-0.48 0.39,-1.20 0.39,-1.20 0.19,-0.54 -0.04,-0.84 -0.31,-0.17 -0.27,0.66 -1.40,2.95 -1.23,5.64 0.04,0.62 0.45,1.83 1.39,1.87 z M 356.20,24.89 c -0.25,-0.28 -0.37,-0.01 -0.46,0.31 -0.09,0.32 -0.36,1.52 -0.54,2.27 0.00,0.00 0.71,1.16 0.97,1.75 0.25,0.59 -0.12,0.92 -0.86,1.01 -2.08,0.25 -3.73,-0.94 -4.30,-1.48 -0.57,-0.55 0.05,-1.52 0.51,-2.68 0.37,-0.93 -0.32,-1.04 -0.84,0.00 -1.76,4.63 -4.23,5.13 -4.88,5.30 -5.86,1.60 -5.36,-3.76 -5.34,-4.64 0.02,-0.88 -0.62,-0.55 -1.34,0.03 -2.47,1.98 -4.45,3.14 -5.52,3.62 -0.92,-1.80 -2.26,-2.93 -2.82,-3.34 -6.34,-4.63 -6.87,4.71 -6.67,5.71 0.97,3.97 7.45,1.56 8.46,1.44 1.02,-0.12 0.68,1.22 0.11,2.02 -1.41,1.97 -3.03,3.38 -4.50,4.58 -6.28,5.13 -9.44,4.72 -10.41,4.69 -6.17,-0.17 -5.60,-6.82 -5.26,-8.24 1.86,-1.57 3.45,-3.28 4.38,-5.04 0.38,-0.96 1.03,-3.16 -0.15,-5.91 -0.62,-1.21 -2.56,-4.60 -2.56,-4.60 0.00,0.00 1.43,0.04 1.57,0.04 0.14,0.00 0.41,-0.14 0.06,-0.55 -0.35,-0.40 -3.36,-3.40 -3.54,-3.65 -0.18,-0.24 -0.35,-0.41 -0.45,-0.06 -0.10,0.36 -0.36,1.88 -0.42,2.20 -0.06,0.31 -0.06,0.63 0.10,0.90 0.15,0.27 0.55,1.20 0.84,1.96 0.29,0.76 3.26,6.47 3.53,6.98 0.27,0.51 0.33,0.88 0.06,1.22 -9.53,10.05 -27.91,16.23 -28.50,16.58 -0.59,0.34 -0.43,0.61 0.56,0.43 1.48,-0.26 9.74,-1.64 12.09,-2.77 1.55,-0.75 6.98,-3.41 11.41,-6.89 -0.12,0.90 -0.24,2.22 -0.17,3.89 0.30,8.08 7.53,6.74 9.43,6.33 5.68,-1.25 12.64,-9.11 13.23,-10.68 0.58,-1.56 0.67,-2.98 0.54,-4.22 1.50,-0.81 4.71,-3.40 4.71,-3.40 0.13,3.45 2.88,4.48 3.72,4.63 3.96,0.60 5.94,-2.70 6.78,-3.78 0.72,1.89 2.45,2.26 3.34,2.43 3.41,0.68 4.08,-1.73 4.26,-2.29 1.07,-3.33 -0.86,-5.81 -1.11,-6.08 z M 327.57,31.57 c -2.03,-0.14 -1.85,-0.92 -1.57,-1.22 0.30,-0.33 2.78,-1.89 4.85,0.89 0.00,0.00 -0.86,0.50 -3.28,0.33 z M 297.72,14.16 c -0.06,-0.05 -0.15,-0.03 -0.20,0.04 -1.53,2.10 -1.53,2.10 -1.53,2.10 -0.05,0.07 -0.04,0.16 0.03,0.21 2.61,1.91 2.61,1.91 2.61,1.91 0.06,0.05 0.15,0.03 0.20,-0.04 1.32,-1.81 1.32,-1.81 1.32,-1.81 2.54,1.85 2.54,1.85 2.54,1.85 0.06,0.05 0.15,0.03 0.20,-0.04 1.53,-2.10 1.53,-2.10 1.53,-2.10 0.05,-0.07 0.04,-0.16 -0.03,-0.20 -2.61,-1.91 -2.61,-1.91 -2.61,-1.91 -0.06,-0.05 -0.15,-0.03 -0.20,0.04 -1.32,1.81 -1.32,1.81 -1.32,1.81 z M 297.10,23.91 c 0.00,0.00 1.25,-0.31 1.47,-0.38 0.22,-0.06 0.34,-0.35 -0.05,-0.55 -0.39,-0.20 -4.09,-1.67 -4.37,-1.79 -0.28,-0.11 -0.38,-0.24 -0.41,0.06 -0.02,0.30 -0.07,2.73 -0.07,2.73 0.00,0.00 -0.06,0.17 0.26,0.35 0.32,0.18 0.64,0.58 0.90,0.84 0.26,0.26 3.70,2.98 3.87,3.07 0.00,0.00 -1.72,3.02 -1.94,5.38 -0.22,2.36 0.04,5.63 3.27,4.57 0.87,-0.25 4.49,-1.69 5.30,-4.21 0.26,-0.93 1.01,-2.61 -0.21,-4.31 -0.70,-1.00 -3.53,-2.69 -3.53,-2.69 0.00,0.00 2.17,-3.00 2.38,-3.37 0.21,-0.37 1.00,-2.69 1.09,-3.26 0.09,-0.56 0.13,-0.84 -0.29,-0.32 -0.42,0.52 -4.63,6.05 -4.63,6.05 z M 304.05,32.79 c -1.20,0.99 -3.72,2.29 -4.43,2.36 -0.71,0.07 -2.59,-0.28 -1.77,-2.20 0.28,-0.62 2.16,-3.84 2.16,-3.84 0.70,0.39 5.24,2.70 4.04,3.69 z M 290.14,13.78 c 0.17,-0.04 3.05,-0.49 6.41,-3.05 1.82,-1.38 2.92,-3.74 2.92,-3.74 0.00,0.00 0.91,0.76 1.03,0.91 0.28,0.34 0.43,0.60 0.56,0.23 0.48,-1.33 -0.20,-2.13 -0.84,-2.54 0.00,0.00 0.67,-2.07 -0.56,-4.14 -0.21,-0.35 -1.43,-1.46 -2.85,0.74 -0.55,0.84 -0.96,2.85 -0.17,3.42 0.79,0.58 1.93,1.04 1.93,1.04 -3.66,4.48 -6.16,5.34 -8.30,6.59 -0.55,0.32 -0.44,0.61 -0.12,0.53 z M 297.86,4.39 c -0.47,-0.20 -0.72,-0.50 -0.50,-0.80 0.73,-1.02 1.08,-0.98 1.36,-0.82 0.82,0.77 0.70,2.03 0.67,2.31 0.00,0.00 -1.05,-0.49 -1.52,-0.70 z M 353.00,37.21 c -0.24,0.68 -0.34,1.12 -0.31,1.38 0.03,0.26 0.11,1.09 0.11,1.09 -0.25,0.20 -1.33,0.87 -2.40,0.08 0.07,-0.23 0.21,-0.70 0.24,-0.95 0.12,-0.40 -0.13,-0.69 -0.32,-0.28 -0.20,0.41 -0.65,1.79 -0.99,2.10 -0.34,0.31 -0.73,1.45 -3.30,0.29 -0.45,-0.17 -1.23,-0.75 -2.46,0.48 -2.77,2.57 -4.68,2.77 -7.79,3.88 -0.38,0.17 -1.16,0.76 -0.23,0.67 0.94,-0.09 4.87,0.00 7.01,-2.46 0.45,-0.43 0.96,-1.58 2.66,-0.92 0.94,0.36 2.68,1.85 4.58,-1.10 1.12,0.75 2.82,0.45 3.09,-0.38 0.27,-0.82 0.58,-1.64 0.58,-2.20 0.00,-0.56 -0.05,-1.30 -0.05,-1.30 -0.04,-0.44 -0.19,-1.07 -0.44,-0.40 z M 306.82,12.30 c 0.25,-0.16 13.84,-8.02 14.32,-8.31 0.46,-0.29 0.72,-0.41 0.91,-0.85 0.18,-0.44 0.23,-0.52 0.33,-0.82 0.10,-0.32 0.21,-0.67 -0.61,-0.19 -0.53,0.31 -14.04,8.11 -14.59,8.46 -0.55,0.35 -0.74,0.44 -0.83,0.87 -0.09,0.42 -0.13,0.67 -0.16,0.73 -0.10,0.28 -0.17,0.63 0.64,0.10 z M 268.15,38.75 c -0.21,0.57 -0.29,0.95 -0.27,1.17 0.02,0.22 0.10,0.93 0.10,0.93 -0.21,0.17 -1.12,0.74 -2.03,0.07 0.06,-0.19 0.18,-0.59 0.21,-0.81 0.10,-0.33 -0.11,-0.58 -0.27,-0.24 -0.17,0.35 -0.55,1.52 -0.84,1.78 -0.29,0.26 -0.62,1.23 -2.79,0.25 -0.38,-0.15 -1.04,-0.64 -2.08,0.40 -2.34,2.18 -3.96,2.35 -6.59,3.28 -0.32,0.15 -0.98,0.65 -0.19,0.57 0.79,-0.08 4.12,0.00 5.93,-2.08 0.38,-0.37 0.81,-1.34 2.25,-0.77 0.80,0.30 2.27,1.56 3.88,-0.93 0.95,0.63 2.38,0.38 2.61,-0.32 0.23,-0.69 0.49,-1.39 0.49,-1.86 0.00,-0.47 -0.04,-1.10 -0.04,-1.10 -0.03,-0.38 -0.16,-0.91 -0.37,-0.34 z" />
     </g>
</svg>
