<?xml version="1.0" encoding="UTF-8"?>
<svg version="1.1" id="Layer_1" x="0px" y="0px" width="578" height="51" viewBox="0 0 578 51"
xml:space="preserve" xmlns="http://www.w3.org/2000/svg" xmlns:svg="http://www.w3.org/2000/svg" xmlns:rdf="http://www.w3.org/1999/02/22-rdf-syntax-ns#"  xmlns:cc="http://creativecommons.org/ns#" xmlns:dc="http://purl.org/dc/elements/1.1/">
     <g>
<path d="M 235.55,25.66 c -1.92,2.63 -1.92,2.63 -1.92,2.63 -0.06,0.08 -0.05,0.20 0.03,0.25 3.27,2.38 3.27,2.38 3.27,2.38 0.08,0.06 0.19,0.04 0.25,-0.05 1.91,-2.63 1.91,-2.63 1.91,-2.63 0.06,-0.08 0.05,-0.20 -0.03,-0.26 -3.27,-2.38 -3.27,-2.38 -3.27,-2.38 -0.08,-0.06 -0.19,-0.04 -0.25,0.05 z M 285.39,41.59 c 0.11,-0.24 0.59,-1.22 0.73,-3.80 0.11,-1.94 -0.05,-4.91 -0.60,-9.01 -0.08,-0.60 -2.95,-21.37 -2.95,-21.37 0.00,0.00 1.55,1.46 1.80,1.72 0.25,0.26 0.55,0.12 0.41,-0.30 -0.14,-0.42 -3.31,-8.10 -3.42,-8.36 -0.10,-0.27 -0.20,-0.46 -0.33,-0.15 -0.13,0.31 -1.08,2.64 -1.08,2.64 0.02,0.14 0.28,1.15 0.33,1.54 0.44,3.37 3.20,23.25 3.99,29.54 0.39,3.09 0.69,5.88 0.73,7.37 -0.04,0.46 0.17,0.63 0.38,0.19 z M 274.17,7.35 c 0.00,0.00 1.31,1.20 1.56,1.47 0.25,0.26 0.55,0.12 0.41,-0.30 -0.14,-0.42 -3.06,-7.79 -3.16,-8.06 -0.10,-0.27 -0.20,-0.46 -0.33,-0.15 -0.13,0.31 -1.15,2.55 -1.15,2.55 0.03,0.18 0.27,0.73 0.43,1.87 0.15,0.99 3.88,27.05 3.93,27.68 0.06,0.63 0.27,3.54 0.07,3.84 -0.21,0.30 -2.80,2.11 -5.83,0.40 -0.37,-0.18 -1.47,-1.13 -1.69,-2.81 -0.07,-0.52 -0.07,-0.59 -0.08,-0.92 -0.01,-0.33 -0.07,-0.66 -0.37,-0.29 -0.30,0.37 -2.03,4.00 -4.78,5.04 -0.73,0.29 -4.19,1.44 -5.94,-1.67 -0.48,-0.85 -1.32,-3.19 -1.83,-7.68 -0.16,-1.43 -0.38,-3.40 -1.28,-4.29 -0.10,-0.09 -0.44,-0.38 -0.78,0.07 -0.34,0.45 -0.65,1.29 -0.77,1.72 -0.12,0.44 -0.69,4.92 -4.95,3.31 0.00,0.00 -1.28,-2.16 -1.46,-2.41 -0.17,-0.25 -0.27,-0.44 -0.39,0.00 -0.12,0.44 -0.47,2.25 -0.47,2.25 0.37,0.73 3.22,5.37 1.79,7.57 -0.46,0.64 -7.72,7.10 -15.29,6.52 -1.09,-0.08 -6.97,-0.17 -7.36,-6.83 -0.07,-1.12 0.17,-3.10 1.16,-5.61 0.05,-0.13 0.08,-0.25 0.10,-0.36 0.03,0.00 0.05,0.01 0.08,0.01 0.76,0.01 1.76,-0.65 2.53,-3.60 0.13,-0.67 0.22,-1.20 0.28,-1.47 0.08,-0.40 -0.15,-0.88 -0.41,0.03 -0.60,1.81 -2.07,3.04 -3.11,0.59 -0.17,-0.49 -0.85,-2.71 0.60,-7.51 0.29,-0.93 0.66,-2.32 0.66,-2.32 0.32,-1.05 -0.03,-1.63 -0.48,-0.35 -0.45,1.28 -2.33,5.69 -2.17,10.95 0.03,1.01 0.45,2.82 1.45,3.46 -0.01,0.03 -0.03,0.05 -0.04,0.08 -0.46,0.89 -4.69,10.23 1.29,14.62 0.67,0.49 4.22,3.29 10.79,0.99 2.27,-0.79 8.78,-3.65 10.56,-7.15 0.61,-1.24 1.04,-3.05 0.93,-5.78 0.00,0.00 3.63,-0.10 4.54,-4.89 0.12,-0.34 0.12,-1.18 0.50,-0.24 0.38,0.94 0.97,3.07 1.06,5.71 0.05,1.29 0.56,8.01 6.34,7.92 0.77,-0.01 3.94,-0.64 5.81,-4.41 0.63,0.93 2.06,4.47 6.88,3.39 0.93,-0.21 4.15,-1.80 3.77,-7.68 -0.09,-1.39 -3.40,-25.26 -3.40,-25.26 z M 265.61,12.36 c -0.18,0.57 -0.32,1.01 -0.07,1.66 0.25,0.65 0.92,2.13 1.03,2.34 0.11,0.21 0.14,0.45 -0.23,0.61 -0.37,0.16 -2.05,0.51 -2.36,-1.28 -0.31,-1.79 -0.34,-2.31 -0.50,-2.62 -0.16,-0.30 -0.30,-0.34 -0.42,-0.04 -0.12,0.30 -0.19,0.93 -0.21,1.03 -0.02,0.10 -0.02,0.17 0.05,0.28 0.06,0.11 0.73,2.11 0.43,2.66 -0.30,0.55 -1.81,1.54 -2.60,0.51 -0.38,-0.73 -0.15,-2.56 -0.15,-2.99 0.00,-0.43 -0.14,-0.58 -0.32,-0.23 -0.18,0.35 -0.28,0.58 -0.28,0.89 0.01,0.31 0.06,1.65 0.03,2.07 -0.03,0.42 0.00,1.79 0.81,2.17 0.81,0.39 1.98,0.03 2.87,-1.65 0.69,1.00 1.73,1.00 2.30,0.80 0.48,-0.17 1.01,-0.89 1.17,-1.88 0.16,-0.99 -0.10,-1.67 -0.41,-2.23 -0.41,-0.69 -0.69,-1.84 -0.69,-1.84 -0.15,-0.41 -0.26,-0.84 -0.44,-0.27 z M 264.58,23.93 c -1.53,2.10 -1.53,2.10 -1.53,2.10 -0.05,0.07 -0.04,0.16 0.03,0.20 2.61,1.91 2.61,1.91 2.61,1.91 0.06,0.05 0.15,0.03 0.20,-0.04 1.32,-1.81 1.32,-1.81 1.32,-1.81 2.54,1.85 2.54,1.85 2.54,1.85 0.06,0.05 0.15,0.03 0.20,-0.04 1.53,-2.10 1.53,-2.10 1.53,-2.10 0.05,-0.07 0.04,-0.16 -0.03,-0.20 -2.61,-1.91 -2.61,-1.91 -2.61,-1.91 -0.06,-0.05 -0.15,-0.03 -0.20,0.04 -1.32,1.81 -1.32,1.81 -1.32,1.81 -2.54,-1.85 -2.54,-1.85 -2.54,-1.85 -0.06,-0.05 -0.15,-0.03 -0.20,0.04 z M 255.39,45.01 c -0.06,-0.05 -0.15,-0.03 -0.20,0.04 -1.32,1.81 -1.32,1.81 -1.32,1.81 -2.54,-1.85 -2.54,-1.85 -2.54,-1.85 -0.06,-0.05 -0.15,-0.03 -0.20,0.04 -1.53,2.10 -1.53,2.10 -1.53,2.10 -0.05,0.07 -0.04,0.16 0.03,0.20 2.61,1.91 2.61,1.91 2.61,1.91 0.06,0.05 0.15,0.03 0.20,-0.04 1.32,-1.81 1.32,-1.81 1.32,-1.81 2.54,1.85 2.54,1.85 2.54,1.85 0.06,0.05 0.15,0.03 0.20,-0.04 1.53,-2.10 1.53,-2.10 1.53,-2.10 0.05,-0.07 0.04,-0.16 -0.03,-0.21 z M 258.66,5.90 c 0.14,0.08 0.30,0.09 0.34,-0.09 0.04,-0.19 0.22,-0.62 0.50,-0.32 0.24,0.25 1.74,1.58 2.57,4.43 0.14,0.38 0.46,0.41 0.53,-0.13 0.15,-1.33 0.21,-3.63 0.29,-4.33 0.12,-0.98 0.51,-3.01 1.65,-1.98 0.26,0.23 0.54,0.54 0.54,0.54 0.25,0.33 0.55,0.70 0.69,0.32 0.21,-0.58 0.37,-1.55 0.12,-2.06 -0.11,-0.23 -1.55,-2.15 -2.48,-0.80 -1.15,1.67 -1.19,3.84 -1.30,6.26 -0.18,-0.50 -1.18,-3.73 -4.23,-5.54 -0.22,-0.13 -0.66,0.13 -0.69,0.90 -0.02,0.45 -0.11,1.53 0.18,1.83 0.29,0.30 1.14,0.89 1.29,0.97 z M 246.28,45.29 c -0.58,0.19 -9.09,3.27 -9.74,3.53 -0.60,0.24 -0.77,0.40 -0.88,0.81 -0.11,0.41 -0.17,0.66 -0.20,0.72 -0.12,0.28 -0.26,0.51 0.63,0.14 0.43,-0.18 8.84,-3.13 9.45,-3.40 0.49,-0.22 0.75,-0.36 0.96,-0.79 0.21,-0.43 0.26,-0.50 0.38,-0.80 0.12,-0.32 0.27,-0.51 -0.60,-0.22 z M 274.27,42.47 c -0.58,0.19 -10.32,3.45 -10.97,3.71 -0.60,0.24 -0.77,0.39 -0.88,0.81 -0.11,0.41 -0.17,0.66 -0.20,0.72 -0.12,0.28 -0.26,0.51 0.63,0.14 0.43,-0.18 10.07,-3.31 10.69,-3.58 0.49,-0.22 0.75,-0.36 0.96,-0.79 0.21,-0.43 0.26,-0.50 0.38,-0.80 0.13,-0.32 0.27,-0.51 -0.60,-0.22 z M 236.00,32.75 c 0.17,-0.48 -0.03,-0.74 -0.27,-0.15 -0.24,0.59 -1.25,2.61 -1.09,5.00 0.04,0.55 0.40,1.63 1.23,1.66 0.43,0.00 0.98,-0.31 1.38,-1.66 0.07,-0.30 0.11,-0.55 0.14,-0.67 0.04,-0.18 -0.09,-0.40 -0.23,0.02 -0.31,0.83 -1.13,1.41 -1.74,0.30 -0.10,-0.22 -0.51,-1.22 0.25,-3.42 0.15,-0.43 0.35,-1.06 0.35,-1.06 z M 280.33,39.75 c -0.40,-0.15 -1.03,-0.06 -1.88,1.06 -0.17,0.26 -0.30,0.47 -0.37,0.58 -0.10,0.15 -0.06,0.41 0.22,0.06 0.59,-0.66 1.56,-0.91 1.73,0.34 0.01,0.24 0.04,1.33 -1.45,3.11 -0.29,0.34 -0.70,0.87 -0.70,0.87 -0.33,0.39 -0.23,0.71 0.20,0.24 0.43,-0.46 2.10,-2.00 2.80,-4.28 0.16,-0.53 0.21,-1.66 -0.56,-1.99 z M 247.85,17.23 c 0.76,0.04 1.79,-0.58 2.66,-3.50 0.16,-0.66 0.27,-1.19 0.34,-1.45 0.10,-0.39 -0.11,-0.89 -0.41,0.02 -0.67,1.78 -2.19,2.96 -3.13,0.47 -0.15,-0.49 -0.75,-2.74 0.88,-7.48 0.33,-0.92 0.75,-2.29 0.75,-2.29 0.36,-1.04 0.04,-1.63 -0.47,-0.37 -0.50,1.26 -2.55,5.60 -2.59,10.86 -0.01,1.21 0.50,3.61 1.97,3.76 z M 327.29,7.24 c 0.17,0.09 0.36,0.11 0.41,-0.10 0.05,-0.21 0.28,-0.68 0.62,-0.34 0.28,0.28 2.09,1.78 3.03,4.95 0.16,0.42 0.55,0.46 0.64,-0.14 0.22,-1.47 0.34,-4.02 0.45,-4.79 0.16,-1.09 0.68,-3.32 2.06,-2.16 0.31,0.26 0.64,0.61 0.64,0.61 0.29,0.37 0.66,0.79 0.84,0.36 0.27,-0.64 0.49,-1.70 0.19,-2.28 -0.13,-0.26 -1.84,-2.41 -3.00,-0.93 -1.44,1.83 -1.53,4.23 -1.72,6.91 -0.20,-0.56 -1.35,-4.16 -5.03,-6.21 -0.27,-0.15 -0.81,0.13 -0.86,0.98 -0.03,0.49 -0.17,1.69 0.18,2.03 0.35,0.34 1.37,1.01 1.54,1.10 z M 304.09,12.51 c 0.25,-0.16 13.84,-8.02 14.32,-8.31 0.46,-0.29 0.72,-0.41 0.90,-0.85 0.18,-0.44 0.23,-0.51 0.33,-0.82 0.11,-0.32 0.21,-0.67 -0.61,-0.19 -0.53,0.31 -14.04,8.11 -14.59,8.46 -0.55,0.35 -0.74,0.44 -0.83,0.86 -0.09,0.42 -0.13,0.67 -0.16,0.73 -0.10,0.28 -0.17,0.63 0.64,0.10 z M 350.27,37.42 c -0.24,0.68 -0.34,1.12 -0.31,1.38 0.03,0.26 0.12,1.09 0.12,1.09 -0.25,0.20 -1.33,0.87 -2.40,0.08 0.07,-0.23 0.21,-0.70 0.24,-0.95 0.12,-0.40 -0.13,-0.69 -0.32,-0.28 -0.20,0.41 -0.65,1.79 -0.99,2.10 -0.34,0.31 -0.73,1.45 -3.30,0.29 -0.45,-0.17 -1.23,-0.75 -2.46,0.48 -2.77,2.57 -4.68,2.78 -7.79,3.88 -0.38,0.17 -1.16,0.76 -0.23,0.67 0.94,-0.09 4.87,0.00 7.01,-2.46 0.45,-0.43 0.96,-1.58 2.66,-0.92 0.94,0.36 2.68,1.85 4.58,-1.10 1.12,0.75 2.82,0.45 3.09,-0.38 0.27,-0.82 0.58,-1.64 0.58,-2.20 0.00,-0.56 -0.05,-1.30 -0.05,-1.30 -0.04,-0.44 -0.19,-1.07 -0.44,-0.40 z M 347.90,14.51 c 0.18,-0.50 -0.04,-0.77 -0.29,-0.16 -0.25,0.61 -1.30,2.73 -1.14,5.22 0.04,0.58 0.42,1.70 1.29,1.73 0.45,0.00 1.03,-0.33 1.44,-1.73 0.07,-0.32 0.12,-0.57 0.15,-0.70 0.04,-0.19 -0.10,-0.42 -0.24,0.02 -0.33,0.86 -1.18,1.47 -1.82,0.31 -0.10,-0.23 -0.53,-1.28 0.26,-3.57 0.16,-0.45 0.36,-1.11 0.36,-1.11 z M 345.14,6.58 c 0.79,0.58 1.94,1.04 1.94,1.04 -3.66,4.48 -10.85,7.67 -12.56,9.01 -0.51,0.39 -0.44,0.61 -0.12,0.53 0.28,-0.08 5.76,-1.61 10.76,-5.90 2.29,-1.97 2.23,-2.11 2.81,-3.31 0.50,0.26 0.84,0.67 1.03,0.91 0.28,0.34 0.43,0.60 0.56,0.23 0.48,-1.33 -0.20,-2.13 -0.84,-2.54 0.00,0.00 0.67,-2.07 -0.56,-4.14 -0.21,-0.35 -1.43,-1.46 -2.85,0.74 -0.55,0.84 -0.96,2.85 -0.17,3.42 z M 345.87,4.55 c 0.73,-1.02 1.08,-0.99 1.36,-0.82 0.82,0.77 0.70,2.03 0.67,2.31 0.00,0.00 -1.05,-0.49 -1.52,-0.69 -0.47,-0.20 -0.72,-0.50 -0.50,-0.80 z M 321.78,20.49 c 0.49,0.00 1.11,-0.35 1.55,-1.88 0.08,-0.34 0.13,-0.62 0.16,-0.75 0.05,-0.21 -0.10,-0.45 -0.26,0.02 -0.35,0.93 -1.27,1.58 -1.96,0.33 -0.11,-0.25 -0.58,-1.38 0.28,-3.86 0.17,-0.48 0.39,-1.20 0.39,-1.20 0.19,-0.54 -0.04,-0.84 -0.31,-0.17 -0.27,0.66 -1.40,2.94 -1.23,5.64 0.04,0.62 0.45,1.83 1.39,1.87 z M 294.99,14.37 c -0.06,-0.05 -0.15,-0.03 -0.20,0.04 -1.53,2.10 -1.53,2.10 -1.53,2.10 -0.05,0.07 -0.04,0.16 0.03,0.20 2.61,1.91 2.61,1.91 2.61,1.91 0.06,0.05 0.15,0.03 0.20,-0.04 1.32,-1.81 1.32,-1.81 1.32,-1.81 2.54,1.85 2.54,1.85 2.54,1.85 0.06,0.05 0.15,0.03 0.20,-0.04 1.53,-2.10 1.53,-2.10 1.53,-2.10 0.05,-0.07 0.04,-0.16 -0.03,-0.20 -2.61,-1.91 -2.61,-1.91 -2.61,-1.91 -0.06,-0.05 -0.15,-0.03 -0.20,0.04 -1.32,1.81 -1.32,1.81 -1.32,1.81 z M 353.47,25.10 c -0.25,-0.28 -0.37,-0.01 -0.46,0.31 -0.09,0.32 -0.36,1.52 -0.54,2.27 0.00,0.00 0.71,1.16 0.97,1.75 0.25,0.59 -0.12,0.92 -0.86,1.01 -2.08,0.25 -3.73,-0.94 -4.30,-1.49 -0.57,-0.55 0.05,-1.52 0.51,-2.68 0.37,-0.93 -0.32,-1.04 -0.84,0.00 -1.76,4.63 -4.23,5.12 -4.88,5.30 -5.86,1.60 -5.36,-3.76 -5.34,-4.64 0.02,-0.88 -0.62,-0.55 -1.34,0.03 -2.47,1.98 -4.45,3.14 -5.52,3.62 -0.92,-1.80 -2.26,-2.93 -2.82,-3.34 -6.34,-4.63 -6.87,4.71 -6.67,5.71 0.97,3.97 7.45,1.56 8.46,1.44 1.02,-0.12 0.68,1.22 0.11,2.02 -1.41,1.97 -3.03,3.38 -4.50,4.57 -6.28,5.13 -9.44,4.72 -10.41,4.69 -6.17,-0.17 -5.60,-6.82 -5.26,-8.24 1.86,-1.57 3.45,-3.28 4.38,-5.04 0.38,-0.96 1.03,-3.15 -0.15,-5.91 -0.62,-1.21 -2.56,-4.60 -2.56,-4.60 0.00,0.00 1.43,0.04 1.57,0.04 0.14,0.00 0.41,-0.14 0.06,-0.54 -0.35,-0.40 -3.36,-3.41 -3.54,-3.65 -0.18,-0.24 -0.35,-0.41 -0.45,-0.06 -0.10,0.36 -0.36,1.88 -0.42,2.20 -0.06,0.31 -0.06,0.63 0.10,0.90 0.15,0.27 0.55,1.20 0.84,1.96 0.29,0.76 3.25,6.47 3.53,6.98 0.27,0.51 0.33,0.88 0.06,1.22 -9.53,10.05 -27.91,16.23 -28.50,16.57 -0.59,0.34 -0.43,0.61 0.56,0.43 1.48,-0.26 9.74,-1.64 12.09,-2.78 1.55,-0.75 6.97,-3.41 11.41,-6.89 -0.12,0.90 -0.24,2.22 -0.17,3.89 0.30,8.08 7.53,6.74 9.43,6.33 5.68,-1.25 12.64,-9.11 13.23,-10.68 0.58,-1.56 0.67,-2.98 0.54,-4.22 1.50,-0.81 4.71,-3.40 4.71,-3.40 0.13,3.45 2.87,4.48 3.72,4.63 3.96,0.60 5.94,-2.70 6.78,-3.78 0.72,1.89 2.45,2.26 3.34,2.43 3.41,0.68 4.08,-1.73 4.26,-2.29 1.07,-3.33 -0.86,-5.81 -1.11,-6.08 z M 324.84,31.78 c -2.02,-0.14 -1.85,-0.92 -1.57,-1.22 0.30,-0.33 2.78,-1.89 4.85,0.89 0.00,0.00 -0.86,0.50 -3.28,0.33 z M 287.41,13.99 c 0.17,-0.04 3.05,-0.49 6.41,-3.05 1.82,-1.38 2.92,-3.74 2.92,-3.74 0.00,0.00 0.91,0.76 1.03,0.91 0.28,0.34 0.43,0.60 0.56,0.23 0.48,-1.33 -0.20,-2.13 -0.84,-2.54 0.00,0.00 0.67,-2.07 -0.56,-4.14 -0.21,-0.35 -1.43,-1.46 -2.85,0.74 -0.55,0.84 -0.96,2.85 -0.17,3.42 0.79,0.58 1.94,1.04 1.94,1.04 -3.66,4.48 -6.16,5.34 -8.30,6.59 -0.55,0.32 -0.44,0.61 -0.12,0.53 z M 295.13,4.59 c -0.47,-0.20 -0.72,-0.50 -0.50,-0.80 0.73,-1.02 1.08,-0.98 1.36,-0.82 0.82,0.77 0.70,2.03 0.67,2.31 0.00,0.00 -1.05,-0.49 -1.52,-0.70 z M 294.37,24.12 c 0.00,0.00 1.25,-0.31 1.47,-0.38 0.22,-0.06 0.34,-0.34 -0.05,-0.55 -0.39,-0.20 -4.09,-1.67 -4.37,-1.79 -0.28,-0.11 -0.38,-0.24 -0.41,0.06 -0.02,0.30 -0.07,2.73 -0.07,2.73 0.00,0.00 -0.06,0.17 0.27,0.35 0.32,0.18 0.64,0.58 0.90,0.84 0.26,0.26 3.70,2.98 3.87,3.07 0.00,0.00 -1.72,3.02 -1.94,5.38 -0.22,2.36 0.04,5.63 3.27,4.57 0.87,-0.25 4.49,-1.69 5.30,-4.21 0.26,-0.93 1.01,-2.61 -0.21,-4.31 -0.70,-1.00 -3.53,-2.69 -3.53,-2.69 0.00,0.00 2.17,-3.00 2.38,-3.37 0.21,-0.37 1.01,-2.69 1.09,-3.26 0.09,-0.56 0.13,-0.84 -0.29,-0.32 -0.42,0.52 -4.63,6.05 -4.63,6.05 z M 301.32,33.00 c -1.20,0.99 -3.72,2.29 -4.43,2.36 -0.71,0.07 -2.59,-0.28 -1.77,-2.20 0.28,-0.62 2.16,-3.84 2.16,-3.84 0.70,0.39 5.24,2.70 4.04,3.69 z M 230.94,6.86 c 0.17,0.08 0.35,0.08 0.38,-0.12 0.04,-0.20 0.23,-0.66 0.57,-0.36 0.25,0.22 1.65,1.24 2.73,3.44 0.93,1.76 -1.25,4.81 -1.18,8.06 0.01,0.74 0.39,2.19 1.40,2.28 0.52,0.02 1.22,-0.36 1.79,-2.14 0.10,-0.40 0.17,-0.73 0.21,-0.88 0.06,-0.24 -0.09,-0.54 -0.28,0.01 -0.44,1.09 -1.47,1.81 -2.14,0.30 -0.11,-0.30 -0.58,-1.68 0.52,-4.55 0.93,-2.42 0.82,-6.01 0.89,-6.75 0.09,-1.04 0.44,-3.20 1.82,-2.18 0.31,0.23 0.65,0.54 0.65,0.54 0.30,0.33 0.68,0.71 0.82,0.29 0.22,-0.62 0.36,-1.65 0.04,-2.18 -0.14,-0.23 -1.89,-2.17 -2.91,-0.70 -1.25,1.83 -1.19,4.11 -1.20,6.67 -0.23,-0.52 -1.54,-3.86 -5.16,-5.58 -0.26,-0.12 -0.76,0.18 -0.75,0.98 0.00,0.47 -0.06,1.62 0.30,1.92 0.35,0.30 1.37,0.87 1.53,0.95 z" />
     </g>
</svg>
