<?xml version="1.0" encoding="UTF-8"?>
<svg version="1.1" id="Layer_1" x="0px" y="0px" width="578" height="52" viewBox="0 0 578 52"
xml:space="preserve" xmlns="http://www.w3.org/2000/svg" xmlns:svg="http://www.w3.org/2000/svg" xmlns:rdf="http://www.w3.org/1999/02/22-rdf-syntax-ns#"  xmlns:cc="http://creativecommons.org/ns#" xmlns:dc="http://purl.org/dc/elements/1.1/">
     <g>
<path d="M 290.81,36.86 c 0.39,3.10 0.69,5.88 0.73,7.37 -0.04,0.46 0.17,0.64 0.38,0.19 0.11,-0.24 0.59,-1.22 0.73,-3.80 0.11,-1.94 -0.05,-4.91 -0.60,-9.01 -0.08,-0.60 -2.95,-21.37 -2.95,-21.37 0.00,0.00 1.55,1.45 1.80,1.72 0.25,0.26 0.55,0.12 0.41,-0.30 -0.14,-0.42 -3.32,-8.09 -3.42,-8.36 -0.10,-0.27 -0.20,-0.46 -0.33,-0.15 -0.13,0.31 -1.08,2.64 -1.08,2.64 0.02,0.14 0.28,1.15 0.33,1.54 0.44,3.37 3.20,23.25 3.99,29.54 z M 233.20,11.88 c 0.60,0.33 0.87,0.77 1.10,1.22 1.31,-2.38 -0.44,-2.04 -1.25,-3.17 -0.41,-0.56 2.86,-2.39 5.43,-3.50 7.46,-3.29 10.88,-4.73 10.98,-4.79 0.12,-0.06 0.21,-0.12 0.22,-0.19 0.01,-0.07 0.32,-1.08 0.36,-1.26 0.04,-0.19 -0.19,-0.04 -0.39,0.06 -0.17,0.08 -8.37,3.65 -11.76,5.15 -0.33,0.14 -3.48,1.35 -4.69,3.19 -1.16,1.90 -0.59,2.98 0.00,3.30 z M 232.45,26.84 c 0.06,0.05 0.15,0.03 0.20,-0.04 1.32,-1.81 1.32,-1.81 1.32,-1.81 2.54,1.85 2.54,1.85 2.54,1.85 0.06,0.05 0.15,0.03 0.20,-0.04 1.53,-2.10 1.53,-2.10 1.53,-2.10 0.05,-0.07 0.04,-0.16 -0.03,-0.21 -2.61,-1.91 -2.61,-1.91 -2.61,-1.91 -0.06,-0.05 -0.15,-0.03 -0.20,0.04 -1.32,1.81 -1.32,1.81 -1.32,1.81 -2.54,-1.85 -2.54,-1.85 -2.54,-1.85 -0.06,-0.05 -0.15,-0.03 -0.20,0.04 -1.53,2.10 -1.53,2.10 -1.53,2.10 -0.05,0.07 -0.04,0.16 0.03,0.20 z M 220.61,10.80 c 0.15,0.08 0.30,0.09 0.35,-0.08 0.04,-0.17 0.24,-0.58 0.52,-0.29 0.24,0.24 1.77,1.51 2.57,4.20 0.14,0.36 0.47,0.39 0.54,-0.12 0.18,-1.24 0.28,-3.40 0.38,-4.06 0.14,-0.92 0.58,-2.82 1.74,-1.83 0.26,0.22 0.55,0.52 0.55,0.52 0.25,0.31 0.56,0.67 0.71,0.31 0.23,-0.54 0.41,-1.44 0.16,-1.93 -0.11,-0.22 -1.56,-2.04 -2.54,-0.79 -1.22,1.55 -1.30,3.59 -1.46,5.86 -0.17,-0.48 -1.14,-3.52 -4.26,-5.27 -0.23,-0.13 -0.69,0.11 -0.73,0.83 -0.03,0.42 -0.15,1.43 0.15,1.72 0.29,0.29 1.16,0.85 1.31,0.93 z M 251.18,9.44 c 0.34,0.23 1.29,0.64 1.45,0.70 0.16,0.06 0.31,0.04 0.33,-0.14 0.01,-0.18 0.14,-0.61 0.47,-0.37 0.27,0.20 2.00,1.19 3.24,3.70 0.20,0.33 0.53,0.31 0.52,-0.21 -0.03,-1.26 -0.30,-3.40 -0.31,-4.07 -0.02,-0.93 0.09,-2.88 1.41,-2.10 0.30,0.18 0.63,0.42 0.63,0.42 0.30,0.27 0.66,0.56 0.75,0.18 0.13,-0.57 0.16,-1.49 -0.17,-1.93 -0.15,-0.19 -1.88,-1.75 -2.64,-0.35 -0.94,1.73 -0.67,3.75 -0.45,6.02 -0.25,-0.44 -1.73,-3.28 -5.09,-4.47 -0.24,-0.09 -0.66,0.23 -0.58,0.94 0.05,0.42 0.10,1.44 0.44,1.67 z M 247.25,45.41 c -0.55,0.28 -10.81,4.22 -11.37,4.54 -0.57,0.32 -0.77,0.40 -0.88,0.81 -0.11,0.42 -0.17,0.66 -0.20,0.72 -0.12,0.27 -0.21,0.62 0.63,0.14 0.26,-0.15 10.62,-4.14 11.09,-4.41 0.47,-0.27 0.75,-0.36 0.96,-0.79 0.21,-0.42 0.26,-0.50 0.38,-0.80 0.12,-0.32 0.25,-0.65 -0.60,-0.22 z M 250.64,24.41 c 0.30,-0.15 23.22,-11.15 23.74,-11.46 0.52,-0.31 0.83,-0.42 1.06,-0.90 0.23,-0.48 0.29,-0.57 0.41,-0.90 0.14,-0.36 0.30,-0.69 -0.68,-0.24 -0.65,0.30 -23.39,11.29 -24.06,11.61 -0.66,0.32 -0.86,0.46 -0.98,0.93 -0.12,0.47 -0.18,0.72 -0.22,0.82 -0.11,0.32 -0.26,0.64 0.71,0.15 z M 255.79,27.26 c 0.17,-0.48 -0.03,-0.74 -0.28,-0.15 -0.24,0.59 -1.25,2.61 -1.09,5.00 0.04,0.55 0.40,1.63 1.23,1.65 0.43,0.00 0.99,-0.31 1.38,-1.66 0.07,-0.30 0.11,-0.55 0.14,-0.67 0.04,-0.18 -0.09,-0.40 -0.23,0.02 -0.31,0.83 -1.13,1.41 -1.74,0.30 -0.10,-0.22 -0.51,-1.22 0.25,-3.42 0.15,-0.43 0.35,-1.06 0.35,-1.06 z M 274.27,22.37 c -0.10,-0.22 -0.51,-1.22 0.24,-3.42 0.15,-0.43 0.35,-1.06 0.35,-1.06 0.17,-0.48 -0.03,-0.74 -0.28,-0.16 -0.24,0.59 -1.25,2.61 -1.09,5.00 0.04,0.55 0.40,1.63 1.23,1.65 0.43,0.00 0.98,-0.31 1.38,-1.66 0.07,-0.31 0.11,-0.55 0.14,-0.67 0.04,-0.18 -0.09,-0.40 -0.23,0.02 -0.32,0.83 -1.13,1.41 -1.74,0.30 z M 269.39,42.53 c -0.39,-0.18 -1.03,-0.13 -1.95,0.94 -0.19,0.25 -0.33,0.45 -0.41,0.55 -0.11,0.15 -0.08,0.40 0.22,0.08 0.63,-0.62 1.61,-0.81 1.71,0.46 0.00,0.24 -0.05,1.33 -1.65,3.01 -0.32,0.32 -0.76,0.82 -0.76,0.82 -0.36,0.37 -0.28,0.69 0.19,0.26 0.46,-0.43 2.22,-1.85 3.08,-4.09 0.20,-0.52 0.31,-1.65 -0.43,-2.02 z M 286.91,40.52 c -0.42,-0.11 -1.03,0.05 -1.76,1.26 -0.14,0.28 -0.25,0.50 -0.30,0.61 -0.09,0.17 -0.01,0.41 0.23,0.04 0.51,-0.72 1.45,-1.07 1.76,0.15 0.04,0.24 0.19,1.31 -1.10,3.25 -0.26,0.37 -0.60,0.94 -0.60,0.94 -0.29,0.42 -0.15,0.73 0.23,0.22 0.38,-0.51 1.87,-2.21 2.32,-4.56 0.11,-0.54 0.02,-1.68 -0.77,-1.91 z M 267.66,11.33 c 0.43,0.00 0.98,-0.31 1.38,-1.66 0.07,-0.31 0.11,-0.55 0.14,-0.67 0.04,-0.18 -0.09,-0.40 -0.23,0.02 -0.31,0.83 -1.13,1.40 -1.74,0.30 -0.10,-0.22 -0.51,-1.22 0.24,-3.42 0.15,-0.43 0.35,-1.06 0.35,-1.06 0.17,-0.48 -0.03,-0.74 -0.28,-0.15 -0.24,0.59 -1.25,2.61 -1.09,5.00 0.04,0.55 0.40,1.63 1.23,1.66 z M 224.28,18.20 c 0.19,-0.64 -0.10,-0.96 -0.38,-0.18 -0.28,0.78 -1.47,3.49 -1.09,6.59 0.09,0.71 0.66,2.09 1.76,2.06 0.57,-0.03 1.29,-0.48 1.72,-2.27 0.07,-0.40 0.11,-0.72 0.14,-0.88 0.04,-0.24 -0.15,-0.51 -0.31,0.04 -0.36,1.10 -1.40,1.91 -2.30,0.52 -0.15,-0.28 -0.77,-1.56 0.08,-4.47 0.17,-0.56 0.38,-1.41 0.38,-1.41 z M 226.35,38.94 c -0.13,-0.25 -0.70,-1.41 0.07,-4.06 0.16,-0.51 0.35,-1.28 0.35,-1.28 0.17,-0.58 -0.09,-0.87 -0.34,-0.16 -0.25,0.71 -1.33,3.17 -0.99,5.98 0.08,0.65 0.59,1.89 1.60,1.87 0.52,-0.03 1.17,-0.44 1.56,-2.06 0.06,-0.36 0.10,-0.66 0.12,-0.80 0.04,-0.22 -0.14,-0.47 -0.28,0.04 -0.33,1.00 -1.27,1.74 -2.09,0.47 z M 309.05,14.02 c 0.25,-0.16 13.84,-8.02 14.32,-8.32 0.46,-0.28 0.72,-0.41 0.91,-0.85 0.18,-0.44 0.23,-0.52 0.33,-0.82 0.10,-0.32 0.21,-0.67 -0.61,-0.19 -0.53,0.31 -14.04,8.11 -14.59,8.46 -0.55,0.35 -0.74,0.44 -0.83,0.87 -0.09,0.42 -0.13,0.67 -0.16,0.73 -0.10,0.28 -0.17,0.63 0.64,0.11 z M 326.74,22.00 c 0.48,0.00 1.11,-0.35 1.55,-1.87 0.08,-0.34 0.13,-0.62 0.16,-0.75 0.05,-0.21 -0.10,-0.45 -0.26,0.02 -0.35,0.93 -1.28,1.58 -1.96,0.33 -0.11,-0.25 -0.58,-1.38 0.28,-3.86 0.17,-0.48 0.39,-1.20 0.39,-1.20 0.19,-0.54 -0.04,-0.84 -0.31,-0.17 -0.27,0.66 -1.40,2.94 -1.23,5.63 0.04,0.62 0.45,1.83 1.39,1.87 z M 332.24,8.75 c 0.17,0.10 0.36,0.11 0.41,-0.10 0.05,-0.21 0.29,-0.68 0.62,-0.34 0.28,0.28 2.09,1.78 3.03,4.95 0.16,0.42 0.55,0.46 0.64,-0.14 0.22,-1.47 0.33,-4.02 0.45,-4.79 0.17,-1.08 0.68,-3.32 2.06,-2.16 0.31,0.27 0.64,0.61 0.64,0.61 0.29,0.37 0.66,0.79 0.84,0.36 0.27,-0.64 0.49,-1.70 0.19,-2.28 -0.13,-0.25 -1.83,-2.41 -3.00,-0.93 -1.44,1.83 -1.53,4.23 -1.72,6.91 -0.20,-0.56 -1.35,-4.16 -5.02,-6.21 -0.27,-0.15 -0.81,0.13 -0.86,0.98 -0.03,0.49 -0.17,1.69 0.18,2.03 0.35,0.34 1.37,1.00 1.54,1.10 z M 350.09,8.09 c 0.79,0.58 1.94,1.04 1.94,1.04 -3.66,4.49 -10.84,7.67 -12.56,9.01 -0.51,0.39 -0.44,0.61 -0.12,0.53 0.28,-0.08 5.76,-1.61 10.76,-5.90 2.29,-1.96 2.23,-2.11 2.81,-3.31 0.50,0.26 0.84,0.67 1.03,0.91 0.28,0.34 0.43,0.60 0.56,0.23 0.48,-1.33 -0.20,-2.13 -0.84,-2.54 0.00,0.00 0.67,-2.07 -0.56,-4.14 -0.21,-0.35 -1.43,-1.46 -2.85,0.74 -0.55,0.84 -0.96,2.85 -0.18,3.42 z M 350.82,6.06 c 0.73,-1.02 1.08,-0.99 1.36,-0.82 0.82,0.77 0.70,2.02 0.67,2.31 0.00,0.00 -1.05,-0.49 -1.52,-0.69 -0.47,-0.20 -0.72,-0.50 -0.50,-0.80 z M 352.85,16.02 c 0.18,-0.50 -0.04,-0.77 -0.29,-0.16 -0.25,0.61 -1.30,2.73 -1.14,5.22 0.04,0.58 0.42,1.70 1.29,1.73 0.45,0.00 1.03,-0.33 1.44,-1.73 0.07,-0.32 0.12,-0.57 0.15,-0.70 0.04,-0.19 -0.10,-0.42 -0.24,0.02 -0.33,0.86 -1.18,1.47 -1.82,0.31 -0.10,-0.23 -0.54,-1.28 0.26,-3.57 0.16,-0.44 0.36,-1.11 0.36,-1.11 z M 355.22,38.93 c -0.24,0.68 -0.34,1.12 -0.32,1.38 0.03,0.26 0.12,1.10 0.12,1.10 -0.25,0.20 -1.33,0.87 -2.40,0.08 0.07,-0.23 0.21,-0.70 0.24,-0.95 0.12,-0.40 -0.13,-0.69 -0.32,-0.28 -0.20,0.41 -0.65,1.79 -0.99,2.10 -0.34,0.31 -0.73,1.45 -3.30,0.29 -0.45,-0.17 -1.23,-0.75 -2.46,0.48 -2.77,2.57 -4.68,2.77 -7.79,3.88 -0.38,0.17 -1.16,0.77 -0.23,0.67 0.94,-0.09 4.87,0.00 7.01,-2.46 0.45,-0.43 0.96,-1.58 2.66,-0.92 0.94,0.36 2.68,1.85 4.58,-1.10 1.12,0.75 2.82,0.45 3.09,-0.38 0.27,-0.82 0.58,-1.64 0.58,-2.20 0.00,-0.56 -0.05,-1.30 -0.05,-1.30 -0.04,-0.44 -0.19,-1.07 -0.44,-0.40 z M 358.43,26.62 c -0.25,-0.28 -0.37,-0.01 -0.46,0.31 -0.09,0.32 -0.36,1.52 -0.54,2.27 0.00,0.00 0.71,1.16 0.97,1.76 0.25,0.59 -0.12,0.92 -0.86,1.01 -2.08,0.25 -3.73,-0.94 -4.30,-1.48 -0.57,-0.55 0.05,-1.52 0.51,-2.68 0.37,-0.93 -0.32,-1.04 -0.84,0.00 -1.76,4.63 -4.23,5.13 -4.88,5.30 -5.86,1.60 -5.36,-3.76 -5.33,-4.64 0.02,-0.88 -0.62,-0.55 -1.34,0.03 -2.47,1.98 -4.45,3.14 -5.52,3.62 -0.92,-1.80 -2.26,-2.93 -2.82,-3.33 -6.34,-4.63 -6.87,4.71 -6.67,5.71 0.96,3.97 7.44,1.56 8.46,1.44 1.02,-0.12 0.68,1.22 0.11,2.02 -1.41,1.97 -3.03,3.38 -4.50,4.58 -6.28,5.13 -9.43,4.72 -10.41,4.69 -6.17,-0.17 -5.60,-6.82 -5.26,-8.24 1.86,-1.57 3.45,-3.28 4.38,-5.04 0.38,-0.96 1.03,-3.16 -0.15,-5.91 -0.62,-1.21 -2.56,-4.61 -2.56,-4.61 0.00,0.00 1.43,0.04 1.57,0.04 0.14,0.00 0.41,-0.14 0.06,-0.54 -0.35,-0.40 -3.36,-3.40 -3.54,-3.65 -0.18,-0.24 -0.35,-0.42 -0.45,-0.06 -0.10,0.35 -0.36,1.88 -0.42,2.20 -0.06,0.31 -0.06,0.63 0.10,0.90 0.15,0.27 0.55,1.20 0.84,1.96 0.29,0.76 3.26,6.47 3.53,6.98 0.27,0.51 0.33,0.88 0.06,1.22 -9.53,10.05 -27.91,16.23 -28.50,16.58 -0.59,0.34 -0.43,0.61 0.56,0.43 1.48,-0.26 9.74,-1.64 12.09,-2.77 1.55,-0.75 6.97,-3.41 11.41,-6.89 -0.12,0.90 -0.24,2.22 -0.18,3.89 0.30,8.08 7.53,6.74 9.43,6.33 5.68,-1.25 12.64,-9.11 13.23,-10.69 0.58,-1.56 0.67,-2.98 0.54,-4.22 1.50,-0.81 4.71,-3.40 4.71,-3.40 0.13,3.45 2.87,4.48 3.72,4.63 3.96,0.60 5.94,-2.70 6.78,-3.78 0.72,1.89 2.45,2.26 3.34,2.43 3.41,0.68 4.08,-1.73 4.25,-2.29 1.07,-3.33 -0.86,-5.81 -1.11,-6.08 z M 329.79,33.29 c -2.02,-0.14 -1.85,-0.92 -1.57,-1.22 0.30,-0.33 2.78,-1.89 4.85,0.89 0.00,0.00 -0.86,0.50 -3.28,0.33 z M 292.36,15.50 c 0.17,-0.04 3.05,-0.49 6.41,-3.05 1.82,-1.38 2.92,-3.74 2.92,-3.74 0.00,0.00 0.91,0.76 1.03,0.91 0.28,0.34 0.43,0.60 0.56,0.23 0.48,-1.33 -0.20,-2.13 -0.84,-2.54 0.00,0.00 0.67,-2.07 -0.56,-4.14 -0.21,-0.35 -1.43,-1.46 -2.85,0.74 -0.55,0.84 -0.96,2.85 -0.18,3.42 0.79,0.58 1.94,1.04 1.94,1.04 -3.66,4.49 -6.16,5.34 -8.30,6.60 -0.55,0.32 -0.44,0.61 -0.12,0.53 z M 300.08,6.11 c -0.47,-0.20 -0.72,-0.50 -0.50,-0.80 0.73,-1.02 1.08,-0.99 1.36,-0.82 0.83,0.77 0.70,2.02 0.67,2.31 0.00,0.00 -1.05,-0.49 -1.52,-0.69 z M 299.32,25.63 c 0.00,0.00 1.25,-0.31 1.47,-0.38 0.22,-0.06 0.34,-0.35 -0.05,-0.55 -0.39,-0.20 -4.09,-1.67 -4.37,-1.79 -0.28,-0.11 -0.38,-0.24 -0.41,0.06 -0.02,0.30 -0.07,2.73 -0.07,2.73 0.00,0.00 -0.06,0.17 0.27,0.35 0.32,0.18 0.64,0.58 0.90,0.84 0.26,0.26 3.70,2.98 3.87,3.07 0.00,0.00 -1.72,3.02 -1.94,5.38 -0.22,2.36 0.04,5.63 3.27,4.57 0.87,-0.25 4.49,-1.69 5.30,-4.21 0.26,-0.93 1.01,-2.61 -0.21,-4.31 -0.70,-1.00 -3.53,-2.69 -3.53,-2.69 0.00,0.00 2.17,-3.00 2.38,-3.37 0.21,-0.37 1.00,-2.69 1.09,-3.26 0.09,-0.56 0.13,-0.85 -0.29,-0.32 -0.42,0.52 -4.63,6.05 -4.63,6.05 z M 306.28,34.52 c -1.20,0.99 -3.72,2.29 -4.43,2.36 -0.71,0.07 -2.59,-0.28 -1.77,-2.20 0.28,-0.62 2.16,-3.84 2.16,-3.84 0.70,0.39 5.24,2.70 4.04,3.69 z M 299.95,15.89 c -0.06,-0.05 -0.15,-0.03 -0.20,0.04 -1.53,2.10 -1.53,2.10 -1.53,2.10 -0.05,0.07 -0.04,0.16 0.03,0.20 2.61,1.91 2.61,1.91 2.61,1.91 0.06,0.05 0.15,0.03 0.20,-0.04 1.32,-1.81 1.32,-1.81 1.32,-1.81 2.54,1.85 2.54,1.85 2.54,1.85 0.06,0.05 0.15,0.03 0.20,-0.04 1.53,-2.10 1.53,-2.10 1.53,-2.10 0.05,-0.07 0.04,-0.16 -0.03,-0.20 -2.61,-1.91 -2.61,-1.91 -2.61,-1.91 -0.06,-0.05 -0.15,-0.03 -0.20,0.04 -1.32,1.81 -1.32,1.81 -1.32,1.81 z M 280.18,10.22 c 0.00,0.00 1.64,1.36 1.90,1.60 0.26,0.25 0.56,0.09 0.39,-0.32 -0.17,-0.42 -3.81,-7.87 -3.93,-8.13 -0.12,-0.26 -0.23,-0.45 -0.34,-0.13 -0.11,0.32 -0.99,2.62 -0.99,2.62 0.04,0.18 0.31,0.72 0.55,1.84 0.25,1.16 4.95,24.89 5.20,26.07 0.25,1.18 0.33,1.96 -0.27,2.49 -0.60,0.53 -4.46,3.49 -8.36,1.27 -0.53,-0.30 -1.10,-0.78 -1.70,-1.35 2.11,-1.20 4.38,-2.41 6.21,-3.21 0.23,-0.82 0.66,-3.04 0.66,-3.04 -1.29,-0.58 -9.35,-3.06 -16.58,0.14 -0.63,0.35 -1.33,0.84 -1.54,1.54 -0.21,0.70 -0.26,1.50 -0.33,1.78 -0.07,0.28 0.14,0.52 0.42,0.33 1.88,-1.29 3.83,-0.57 4.10,-0.41 0.89,0.55 1.84,1.42 2.85,2.40 -1.32,0.72 -2.58,1.37 -3.51,1.75 -1.12,0.49 -10.87,5.37 -15.00,-0.88 -1.01,-1.27 -2.20,-6.14 -3.83,-16.41 -0.35,-2.19 -2.20,-12.98 -2.42,-13.86 -0.22,-0.88 -0.48,-0.18 -0.62,0.13 -0.13,0.31 -0.78,2.42 -0.78,2.42 0.09,0.79 1.79,10.69 1.97,11.77 0.11,0.66 0.81,4.74 1.43,8.17 -1.26,2.76 -3.12,4.20 -4.97,4.91 -0.48,-1.25 -1.08,-2.09 -1.44,-2.59 -2.46,-3.42 -4.61,-1.82 -5.27,-1.28 -2.14,1.72 -2.86,5.59 -0.50,7.05 2.22,1.37 5.07,0.40 5.64,0.25 0.31,-0.08 0.61,-0.17 0.90,-0.26 0.38,1.65 -0.07,4.09 -6.31,7.98 -7.43,4.63 -11.61,2.15 -12.51,1.75 -5.42,-2.42 -3.19,-10.45 -2.97,-11.48 0.02,-0.09 0.03,-0.18 0.04,-0.26 0.03,0.00 0.06,0.01 0.10,0.01 0.76,-0.04 1.71,-0.74 2.25,-3.53 0.09,-0.63 0.13,-1.13 0.17,-1.38 0.05,-0.38 -0.21,-0.81 -0.41,0.06 -0.46,1.72 -1.84,2.98 -3.06,0.78 -0.20,-0.44 -1.05,-2.45 0.04,-7.01 0.22,-0.89 0.49,-2.20 0.49,-2.20 0.25,-1.00 -0.15,-1.51 -0.51,-0.29 -0.36,1.22 -1.91,5.46 -1.36,10.32 0.11,0.93 0.65,2.55 1.67,3.08 -0.31,1.05 -1.08,3.90 -1.21,6.23 -0.32,5.73 2.73,8.62 5.68,9.37 7.22,1.83 13.34,-3.26 14.22,-3.89 4.94,-3.52 5.04,-6.80 5.08,-7.56 0.05,-0.92 0.01,-1.75 -0.09,-2.50 2.84,-1.35 4.16,-3.47 4.79,-4.96 0.18,0.96 0.34,1.72 0.43,2.09 0.43,1.73 1.39,9.89 11.34,9.33 3.94,-0.22 8.38,-2.95 8.38,-2.95 0.51,-0.27 2.06,-1.20 4.00,-2.34 2.03,1.94 4.24,3.81 6.64,4.16 1.14,0.17 6.09,0.06 7.36,-5.94 0.13,-0.77 0.39,-5.11 -0.63,-9.15 z M 234.46,33.94 c -0.67,-0.33 -0.45,-0.72 -0.08,-1.02 0.77,-0.63 2.40,-0.24 3.05,0.14 0.52,0.31 0.95,0.71 1.31,1.15 -2.16,0.33 -3.97,-0.13 -4.28,-0.28 z M 268.23,31.73 c 1.90,-0.22 4.18,-0.26 6.80,0.09 0.00,0.00 -1.91,1.19 -4.19,2.51 -0.92,-0.99 -1.82,-1.96 -2.61,-2.60 z" />
     </g>
</svg>
