<?xml version="1.0" encoding="UTF-8"?>
<svg version="1.1" id="Layer_1" x="0px" y="0px" width="578" height="50" viewBox="0 0 578 50"
xml:space="preserve" xmlns="http://www.w3.org/2000/svg" xmlns:svg="http://www.w3.org/2000/svg" xmlns:rdf="http://www.w3.org/1999/02/22-rdf-syntax-ns#"  xmlns:cc="http://creativecommons.org/ns#" xmlns:dc="http://purl.org/dc/elements/1.1/">
     <g>
<path d="M 298.96,42.35 c -0.04,0.45 0.17,0.62 0.38,0.19 0.11,-0.23 0.59,-1.20 0.73,-3.72 0.11,-1.90 -0.05,-4.81 -0.60,-8.82 -0.08,-0.58 -2.95,-20.92 -2.95,-20.92 0.00,0.00 1.55,1.43 1.80,1.68 0.25,0.26 0.55,0.12 0.41,-0.29 -0.14,-0.42 -3.31,-7.93 -3.42,-8.19 -0.10,-0.26 -0.20,-0.45 -0.33,-0.15 -0.13,0.30 -1.08,2.58 -1.08,2.58 0.02,0.13 0.28,1.13 0.33,1.50 0.44,3.29 3.20,22.76 3.99,28.92 0.39,3.03 0.69,5.76 0.73,7.22 z M 288.13,9.07 c 0.00,0.00 1.55,1.43 1.80,1.68 0.25,0.26 0.55,0.12 0.41,-0.29 -0.14,-0.41 -3.31,-7.92 -3.42,-8.19 -0.10,-0.26 -0.20,-0.45 -0.33,-0.15 -0.13,0.30 -1.15,2.50 -1.15,2.50 0.03,0.18 0.27,0.72 0.43,1.83 0.17,1.15 5.31,31.34 5.05,31.76 -0.27,0.42 -3.68,3.16 -6.94,2.32 -0.29,-0.07 -1.38,-0.13 -2.73,-1.97 1.31,-1.10 2.65,-2.79 3.22,-5.32 0.22,-0.96 0.65,-3.14 -1.75,-6.04 -0.45,-0.54 -2.38,-2.11 -4.36,0.59 -0.90,1.23 -1.62,4.82 -0.56,7.49 0.09,0.29 0.28,1.14 0.63,2.19 -0.78,0.44 -1.64,0.85 -2.57,1.21 -0.96,0.45 -5.30,2.52 -10.39,3.10 -2.76,0.32 -7.74,0.14 -10.60,-1.74 -1.19,-0.78 -2.52,-2.12 -3.07,-5.06 -0.32,-1.71 -0.89,-12.87 -6.40,-19.50 -0.23,-0.30 -0.66,3.04 -0.66,3.04 0.69,1.39 4.39,10.26 4.92,14.59 0.03,0.53 0.00,1.91 -1.45,3.43 -1.45,1.52 -6.51,5.26 -9.44,6.70 -1.06,0.52 -5.07,2.59 -6.53,-1.85 -0.26,-0.78 -0.48,-3.11 0.76,-5.97 0.07,-0.17 0.13,-0.33 0.17,-0.47 1.97,-1.63 3.68,-3.43 4.66,-5.27 0.38,-0.96 1.03,-3.16 -0.15,-5.91 -0.62,-1.21 -2.56,-4.61 -2.56,-4.61 0.00,0.00 1.43,0.04 1.57,0.04 0.14,0.00 0.41,-0.14 0.06,-0.54 -0.35,-0.40 -3.36,-3.41 -3.54,-3.65 -0.18,-0.24 -0.35,-0.42 -0.45,-0.06 -0.10,0.36 -0.36,1.88 -0.42,2.20 -0.06,0.31 -0.06,0.63 0.10,0.90 0.16,0.27 0.55,1.20 0.84,1.96 0.29,0.76 3.25,6.47 3.53,6.98 0.27,0.51 0.33,0.88 0.06,1.22 -9.53,10.05 -27.91,16.23 -28.50,16.57 -0.59,0.34 -0.43,0.61 0.56,0.43 1.48,-0.26 9.74,-1.64 12.09,-2.78 1.49,-0.72 6.54,-3.20 10.87,-6.47 -0.79,2.53 -2.84,9.84 2.94,11.13 1.35,0.30 4.95,0.66 12.87,-7.23 1.06,-1.05 2.53,-3.47 2.61,-3.89 0.00,0.00 0.25,6.38 6.91,8.64 1.27,0.43 10.32,2.38 20.97,-4.16 0.18,-0.11 0.63,-0.30 1.22,-0.63 1.00,2.00 2.56,3.93 4.95,4.10 0.76,0.05 6.55,0.24 7.79,-5.08 0.39,-1.67 0.17,-4.82 -0.17,-6.93 -0.33,-2.11 -3.84,-22.85 -3.84,-22.85 z M 280.04,36.49 c -0.24,-0.49 -0.48,-1.05 -0.72,-1.67 -0.32,-0.99 -1.34,-3.76 -0.32,-4.66 0.35,-0.31 1.48,-1.25 2.47,-0.14 0.99,1.11 2.54,2.93 1.73,3.81 -0.47,0.51 -1.56,1.57 -3.16,2.66 z M 242.26,7.12 c 0.36,-0.39 0.62,-0.79 1.68,-0.76 1.07,0.03 3.62,-0.07 2.66,0.63 -0.95,0.70 -1.60,1.11 -1.60,1.11 -0.62,0.44 -1.16,1.28 -0.07,0.81 1.09,-0.46 2.54,-1.19 3.65,-2.86 0.32,-0.49 0.70,-1.13 -0.80,-1.36 -1.50,-0.22 -3.93,-0.57 -4.71,0.28 -0.79,0.86 -1.03,1.44 -1.26,1.81 -0.32,0.50 0.08,0.73 0.45,0.34 z M 280.66,19.49 c -1.32,1.81 -1.32,1.81 -1.32,1.81 -2.54,-1.85 -2.54,-1.85 -2.54,-1.85 -0.06,-0.05 -0.15,-0.03 -0.20,0.04 -1.53,2.10 -1.53,2.10 -1.53,2.10 -0.05,0.07 -0.04,0.16 0.03,0.20 2.61,1.91 2.61,1.91 2.61,1.91 0.06,0.05 0.15,0.03 0.20,-0.04 1.32,-1.81 1.32,-1.81 1.32,-1.81 2.54,1.85 2.54,1.85 2.54,1.85 0.06,0.05 0.15,0.03 0.20,-0.04 1.53,-2.10 1.53,-2.10 1.53,-2.10 0.05,-0.07 0.04,-0.16 -0.03,-0.20 -2.61,-1.91 -2.61,-1.91 -2.61,-1.91 -0.06,-0.05 -0.15,-0.03 -0.20,0.04 z M 224.20,8.80 c 0.16,0.09 0.32,0.10 0.37,-0.09 0.05,-0.19 0.26,-0.63 0.55,-0.31 0.25,0.26 1.88,1.64 2.72,4.57 0.15,0.39 0.50,0.43 0.58,-0.13 0.19,-1.35 0.30,-3.71 0.40,-4.42 0.15,-1.00 0.61,-3.07 1.85,-2.00 0.28,0.24 0.58,0.57 0.58,0.57 0.26,0.34 0.59,0.73 0.75,0.34 0.24,-0.59 0.44,-1.57 0.17,-2.10 -0.12,-0.24 -1.65,-2.23 -2.69,-0.86 -1.29,1.69 -1.37,3.91 -1.54,6.38 -0.18,-0.52 -1.21,-3.84 -4.51,-5.74 -0.24,-0.14 -0.73,0.12 -0.77,0.90 -0.03,0.46 -0.15,1.56 0.16,1.88 0.31,0.31 1.23,0.93 1.39,1.01 z M 258.08,8.04 c 0.16,0.08 0.32,0.09 0.36,-0.10 0.04,-0.19 0.24,-0.64 0.54,-0.33 0.26,0.25 1.93,1.58 2.87,4.48 0.16,0.38 0.51,0.41 0.57,-0.14 0.15,-1.36 0.17,-3.72 0.25,-4.43 0.11,-1.01 0.51,-3.09 1.78,-2.06 0.29,0.23 0.60,0.55 0.60,0.55 0.27,0.33 0.62,0.71 0.76,0.31 0.22,-0.60 0.38,-1.59 0.10,-2.11 -0.13,-0.23 -1.72,-2.17 -2.72,-0.77 -1.23,1.73 -1.24,3.95 -1.33,6.43 -0.20,-0.51 -1.34,-3.79 -4.70,-5.58 -0.24,-0.13 -0.72,0.15 -0.74,0.93 -0.01,0.46 -0.10,1.57 0.22,1.87 0.32,0.30 1.26,0.89 1.42,0.97 z M 266.00,27.16 c -1.23,1.73 -1.24,3.95 -1.33,6.43 -0.20,-0.51 -1.34,-3.79 -4.70,-5.58 -0.24,-0.13 -0.72,0.15 -0.74,0.93 -0.01,0.46 -0.10,1.57 0.22,1.87 0.32,0.30 1.26,0.89 1.42,0.97 0.16,0.08 0.32,0.09 0.36,-0.10 0.04,-0.19 0.23,-0.64 0.54,-0.33 0.26,0.25 1.93,1.58 2.87,4.48 0.16,0.38 0.51,0.41 0.57,-0.15 0.15,-1.36 0.17,-3.72 0.25,-4.43 0.11,-1.01 0.51,-3.09 1.78,-2.06 0.29,0.23 0.60,0.55 0.60,0.55 0.27,0.33 0.62,0.71 0.76,0.31 0.22,-0.60 0.38,-1.59 0.10,-2.11 -0.13,-0.23 -1.72,-2.17 -2.72,-0.77 z M 227.95,43.41 c -0.48,0.22 -8.68,4.25 -9.21,4.53 -0.49,0.26 -0.62,0.41 -0.68,0.78 -0.06,0.37 -0.09,0.58 -0.10,0.64 -0.07,0.25 -0.17,0.46 0.55,0.06 0.35,-0.19 8.48,-4.11 8.98,-4.39 0.40,-0.23 0.60,-0.38 0.74,-0.76 0.14,-0.38 0.18,-0.45 0.25,-0.72 0.08,-0.28 0.19,-0.46 -0.53,-0.14 z M 254.00,21.84 c 0.34,-0.17 26.71,-12.44 27.31,-12.78 0.60,-0.34 0.96,-0.47 1.23,-1.01 0.27,-0.55 0.34,-0.64 0.49,-1.03 0.16,-0.41 0.35,-0.78 -0.77,-0.29 -0.74,0.33 -26.91,12.59 -27.67,12.95 -0.76,0.36 -0.99,0.51 -1.13,1.05 -0.15,0.54 -0.22,0.82 -0.26,0.93 -0.13,0.36 -0.30,0.73 0.81,0.19 z M 250.52,44.07 c -0.36,-0.14 -0.92,-0.05 -1.69,0.95 -0.15,0.23 -0.27,0.42 -0.33,0.51 -0.09,0.14 -0.05,0.36 0.20,0.06 0.53,-0.59 1.40,-0.81 1.55,0.31 0.01,0.22 0.04,1.19 -1.30,2.78 -0.26,0.31 -0.63,0.78 -0.63,0.78 -0.30,0.35 -0.21,0.63 0.18,0.22 0.39,-0.41 1.88,-1.79 2.51,-3.83 0.15,-0.47 0.18,-1.49 -0.50,-1.78 z M 222.60,33.05 c 0.76,0.01 1.76,-0.60 2.52,-3.35 0.13,-0.62 0.22,-1.12 0.27,-1.36 0.08,-0.37 -0.15,-0.82 -0.41,0.03 -0.59,1.68 -2.06,2.83 -3.11,0.55 -0.17,-0.45 -0.86,-2.52 0.57,-6.99 0.29,-0.87 0.66,-2.16 0.66,-2.16 0.32,-0.98 -0.03,-1.52 -0.48,-0.33 -0.45,1.19 -2.32,5.30 -2.14,10.19 0.04,1.13 0.65,3.34 2.12,3.43 z M 316.72,12.30 c 0.25,-0.16 13.84,-8.02 14.32,-8.31 0.46,-0.29 0.72,-0.41 0.90,-0.85 0.18,-0.44 0.23,-0.52 0.33,-0.82 0.10,-0.32 0.21,-0.67 -0.61,-0.19 -0.53,0.31 -14.04,8.11 -14.59,8.46 -0.55,0.35 -0.74,0.44 -0.83,0.87 -0.09,0.42 -0.13,0.67 -0.16,0.73 -0.10,0.28 -0.17,0.63 0.64,0.10 z M 334.41,20.27 c 0.48,0.00 1.11,-0.35 1.55,-1.87 0.08,-0.34 0.12,-0.62 0.16,-0.75 0.05,-0.21 -0.10,-0.45 -0.26,0.02 -0.36,0.93 -1.28,1.58 -1.96,0.33 -0.11,-0.25 -0.58,-1.38 0.28,-3.86 0.17,-0.48 0.39,-1.20 0.39,-1.20 0.19,-0.54 -0.04,-0.84 -0.31,-0.17 -0.27,0.66 -1.40,2.94 -1.23,5.63 0.04,0.62 0.45,1.83 1.39,1.87 z M 339.92,7.03 c 0.17,0.10 0.36,0.11 0.41,-0.10 0.05,-0.21 0.29,-0.68 0.62,-0.34 0.28,0.28 2.09,1.78 3.03,4.95 0.16,0.42 0.55,0.46 0.64,-0.14 0.22,-1.47 0.33,-4.02 0.45,-4.79 0.16,-1.09 0.68,-3.32 2.06,-2.16 0.31,0.26 0.64,0.61 0.64,0.61 0.29,0.37 0.66,0.79 0.84,0.36 0.27,-0.64 0.49,-1.71 0.19,-2.28 -0.13,-0.25 -1.84,-2.41 -3.00,-0.93 -1.44,1.83 -1.53,4.23 -1.72,6.91 -0.20,-0.56 -1.35,-4.15 -5.02,-6.21 -0.27,-0.15 -0.81,0.13 -0.86,0.98 -0.03,0.49 -0.17,1.69 0.18,2.03 0.35,0.34 1.37,1.01 1.54,1.10 z M 360.52,14.30 c 0.18,-0.50 -0.04,-0.77 -0.29,-0.16 -0.25,0.61 -1.30,2.73 -1.14,5.22 0.04,0.58 0.42,1.70 1.29,1.73 0.45,0.00 1.03,-0.33 1.44,-1.74 0.07,-0.32 0.12,-0.57 0.15,-0.70 0.04,-0.19 -0.10,-0.42 -0.24,0.02 -0.33,0.86 -1.18,1.47 -1.82,0.31 -0.10,-0.23 -0.53,-1.28 0.26,-3.57 0.16,-0.44 0.36,-1.11 0.36,-1.11 z M 357.77,6.37 c 0.79,0.58 1.94,1.04 1.94,1.04 -3.66,4.49 -10.84,7.67 -12.56,9.01 -0.51,0.39 -0.44,0.61 -0.12,0.53 0.28,-0.08 5.76,-1.61 10.76,-5.90 2.29,-1.97 2.23,-2.11 2.81,-3.30 0.50,0.26 0.84,0.67 1.03,0.91 0.28,0.34 0.43,0.60 0.56,0.23 0.48,-1.33 -0.20,-2.13 -0.84,-2.54 0.00,0.00 0.67,-2.07 -0.56,-4.14 -0.21,-0.35 -1.43,-1.46 -2.85,0.74 -0.55,0.84 -0.96,2.85 -0.17,3.42 z M 358.50,4.34 c 0.73,-1.02 1.08,-0.99 1.36,-0.82 0.82,0.77 0.70,2.03 0.67,2.31 0.00,0.00 -1.05,-0.49 -1.52,-0.69 -0.47,-0.20 -0.72,-0.50 -0.50,-0.80 z M 362.90,37.21 c -0.24,0.68 -0.34,1.12 -0.32,1.38 0.03,0.26 0.12,1.10 0.12,1.10 -0.25,0.20 -1.33,0.87 -2.40,0.08 0.07,-0.23 0.21,-0.70 0.24,-0.95 0.12,-0.40 -0.13,-0.69 -0.32,-0.28 -0.20,0.41 -0.65,1.79 -0.99,2.10 -0.34,0.31 -0.74,1.45 -3.30,0.29 -0.45,-0.17 -1.23,-0.75 -2.46,0.48 -2.77,2.57 -4.68,2.78 -7.79,3.88 -0.38,0.17 -1.16,0.77 -0.23,0.67 0.94,-0.09 4.87,0.00 7.01,-2.46 0.45,-0.43 0.96,-1.58 2.66,-0.92 0.94,0.36 2.68,1.85 4.58,-1.10 1.12,0.75 2.82,0.45 3.09,-0.38 0.27,-0.82 0.58,-1.64 0.58,-2.20 0.00,-0.56 -0.05,-1.30 -0.05,-1.30 -0.04,-0.44 -0.19,-1.07 -0.44,-0.40 z M 366.10,24.89 c -0.25,-0.28 -0.37,-0.01 -0.46,0.31 -0.09,0.32 -0.36,1.52 -0.54,2.27 0.00,0.00 0.71,1.16 0.97,1.75 0.25,0.59 -0.12,0.92 -0.86,1.01 -2.08,0.25 -3.73,-0.94 -4.30,-1.48 -0.57,-0.55 0.05,-1.52 0.51,-2.68 0.37,-0.93 -0.32,-1.04 -0.84,0.00 -1.76,4.63 -4.23,5.13 -4.88,5.30 -5.86,1.60 -5.36,-3.76 -5.33,-4.64 0.02,-0.88 -0.62,-0.55 -1.34,0.03 -2.47,1.98 -4.45,3.14 -5.52,3.62 -0.92,-1.80 -2.26,-2.93 -2.82,-3.34 -6.34,-4.63 -6.87,4.71 -6.68,5.71 0.97,3.97 7.45,1.56 8.46,1.44 1.02,-0.12 0.68,1.22 0.11,2.02 -1.41,1.97 -3.03,3.38 -4.50,4.58 -6.28,5.13 -9.43,4.72 -10.41,4.69 -6.17,-0.17 -5.60,-6.82 -5.26,-8.24 1.86,-1.57 3.45,-3.28 4.38,-5.04 0.38,-0.96 1.03,-3.16 -0.15,-5.91 -0.62,-1.21 -2.56,-4.60 -2.56,-4.60 0.00,0.00 1.43,0.04 1.57,0.04 0.14,0.00 0.41,-0.14 0.06,-0.54 -0.35,-0.40 -3.36,-3.40 -3.54,-3.65 -0.18,-0.24 -0.35,-0.41 -0.45,-0.06 -0.10,0.35 -0.36,1.88 -0.42,2.20 -0.06,0.31 -0.06,0.63 0.10,0.90 0.16,0.27 0.55,1.20 0.84,1.96 0.29,0.76 3.25,6.47 3.53,6.98 0.27,0.51 0.33,0.88 0.06,1.22 -9.53,10.05 -27.91,16.23 -28.50,16.57 -0.59,0.34 -0.43,0.61 0.56,0.43 1.48,-0.26 9.74,-1.64 12.09,-2.77 1.55,-0.75 6.98,-3.41 11.41,-6.89 -0.12,0.90 -0.24,2.22 -0.18,3.89 0.30,8.08 7.53,6.74 9.43,6.33 5.68,-1.25 12.64,-9.11 13.23,-10.69 0.58,-1.56 0.67,-2.98 0.54,-4.22 1.50,-0.81 4.71,-3.40 4.71,-3.40 0.13,3.45 2.87,4.48 3.72,4.63 3.96,0.60 5.94,-2.71 6.78,-3.78 0.72,1.89 2.45,2.26 3.34,2.43 3.41,0.68 4.08,-1.73 4.25,-2.29 1.07,-3.33 -0.86,-5.81 -1.11,-6.08 z M 337.47,31.57 c -2.02,-0.14 -1.85,-0.92 -1.57,-1.22 0.30,-0.33 2.78,-1.89 4.85,0.89 0.00,0.00 -0.86,0.50 -3.28,0.33 z M 307.00,23.91 c 0.00,0.00 1.25,-0.31 1.47,-0.38 0.22,-0.06 0.34,-0.35 -0.05,-0.55 -0.39,-0.20 -4.09,-1.67 -4.37,-1.79 -0.28,-0.11 -0.38,-0.24 -0.41,0.06 -0.02,0.30 -0.07,2.73 -0.07,2.73 0.00,0.00 -0.06,0.17 0.27,0.35 0.32,0.18 0.64,0.58 0.90,0.84 0.26,0.26 3.70,2.98 3.87,3.07 0.00,0.00 -1.72,3.02 -1.94,5.38 -0.22,2.36 0.04,5.63 3.27,4.57 0.87,-0.25 4.49,-1.69 5.30,-4.21 0.26,-0.93 1.01,-2.61 -0.21,-4.31 -0.70,-1.00 -3.53,-2.69 -3.53,-2.69 0.00,0.00 2.17,-3.00 2.38,-3.37 0.21,-0.37 1.00,-2.69 1.09,-3.26 0.09,-0.56 0.13,-0.84 -0.29,-0.32 -0.42,0.52 -4.63,6.05 -4.63,6.05 z M 313.95,32.79 c -1.20,0.99 -3.72,2.29 -4.43,2.36 -0.71,0.07 -2.59,-0.28 -1.77,-2.21 0.28,-0.62 2.16,-3.84 2.16,-3.84 0.70,0.39 5.24,2.70 4.04,3.69 z M 307.62,14.16 c -0.06,-0.05 -0.15,-0.03 -0.20,0.04 -1.53,2.10 -1.53,2.10 -1.53,2.10 -0.05,0.07 -0.04,0.16 0.03,0.20 2.61,1.91 2.61,1.91 2.61,1.91 0.06,0.05 0.15,0.03 0.20,-0.04 1.32,-1.81 1.32,-1.81 1.32,-1.81 2.54,1.85 2.54,1.85 2.54,1.85 0.06,0.05 0.15,0.03 0.20,-0.04 1.53,-2.10 1.53,-2.10 1.53,-2.10 0.05,-0.07 0.04,-0.16 -0.03,-0.21 -2.61,-1.91 -2.61,-1.91 -2.61,-1.91 -0.06,-0.05 -0.15,-0.03 -0.20,0.04 -1.32,1.81 -1.32,1.81 -1.32,1.81 z M 300.04,13.78 c 0.17,-0.04 3.05,-0.49 6.41,-3.05 1.82,-1.38 2.92,-3.74 2.92,-3.74 0.00,0.00 0.91,0.76 1.03,0.91 0.28,0.34 0.43,0.60 0.56,0.23 0.48,-1.33 -0.20,-2.13 -0.84,-2.54 0.00,0.00 0.67,-2.07 -0.56,-4.14 -0.21,-0.35 -1.43,-1.46 -2.85,0.74 -0.55,0.84 -0.96,2.85 -0.17,3.42 0.79,0.58 1.94,1.04 1.94,1.04 -3.66,4.49 -6.16,5.34 -8.30,6.60 -0.55,0.32 -0.44,0.61 -0.12,0.52 z M 307.76,4.39 c -0.47,-0.20 -0.72,-0.50 -0.50,-0.80 0.73,-1.02 1.08,-0.99 1.36,-0.82 0.82,0.77 0.70,2.03 0.67,2.31 0.00,0.00 -1.05,-0.49 -1.52,-0.69 z" />
     </g>
</svg>
