<?xml version="1.0" encoding="UTF-8"?>
<svg version="1.1" id="Layer_1" x="0px" y="0px" width="578" height="50" viewBox="0 0 578 50"
xml:space="preserve" xmlns="http://www.w3.org/2000/svg" xmlns:svg="http://www.w3.org/2000/svg" xmlns:rdf="http://www.w3.org/1999/02/22-rdf-syntax-ns#"  xmlns:cc="http://creativecommons.org/ns#" xmlns:dc="http://purl.org/dc/elements/1.1/">
     <g>
<path d="M 246.65,21.95 c -1.92,2.63 -1.92,2.63 -1.92,2.63 -0.06,0.08 -0.05,0.20 0.03,0.25 3.27,2.38 3.27,2.38 3.27,2.38 0.08,0.06 0.19,0.04 0.25,-0.05 1.91,-2.63 1.91,-2.63 1.91,-2.63 0.06,-0.08 0.05,-0.20 -0.03,-0.25 -3.27,-2.38 -3.27,-2.38 -3.27,-2.38 -0.08,-0.06 -0.19,-0.04 -0.25,0.05 z M 273.14,44.47 c -1.92,2.63 -1.92,2.63 -1.92,2.63 -0.06,0.08 -0.05,0.20 0.03,0.25 3.27,2.38 3.27,2.38 3.27,2.38 0.08,0.06 0.19,0.04 0.25,-0.05 1.91,-2.63 1.91,-2.63 1.91,-2.63 0.06,-0.08 0.05,-0.20 -0.03,-0.25 -3.27,-2.38 -3.27,-2.38 -3.27,-2.38 -0.08,-0.06 -0.19,-0.04 -0.25,0.05 z M 291.32,42.24 c -0.04,0.46 0.17,0.63 0.38,0.19 0.11,-0.24 0.59,-1.22 0.73,-3.80 0.11,-1.94 -0.05,-4.92 -0.60,-9.01 -0.08,-0.60 -2.95,-21.37 -2.95,-21.37 0.00,0.00 1.55,1.46 1.80,1.72 0.25,0.26 0.55,0.12 0.41,-0.30 -0.14,-0.42 -3.31,-8.09 -3.42,-8.36 -0.10,-0.27 -0.20,-0.46 -0.33,-0.15 -0.13,0.31 -1.08,2.64 -1.08,2.64 0.02,0.14 0.28,1.16 0.33,1.54 0.44,3.36 3.20,23.25 3.99,29.54 0.39,3.09 0.69,5.88 0.73,7.37 z M 281.28,8.25 c 0.00,0.00 1.27,1.25 1.52,1.51 0.25,0.26 0.55,0.12 0.41,-0.30 -0.14,-0.42 -3.03,-7.89 -3.14,-8.16 -0.10,-0.27 -0.20,-0.46 -0.33,-0.15 -0.13,0.31 -1.15,2.55 -1.15,2.55 0.03,0.18 0.27,0.73 0.43,1.87 0.17,1.16 4.03,30.47 3.57,30.93 -0.46,0.46 -2.23,1.97 -5.17,1.06 -0.21,-0.07 -2.07,-1.02 -2.34,-2.75 -0.02,-0.27 -0.05,-0.82 -0.09,-1.16 -0.05,-0.34 -0.12,-0.76 -0.49,-0.38 -0.37,0.38 -2.10,2.87 -2.58,3.38 -1.52,1.61 -5.52,2.76 -8.42,0.80 -0.98,-0.64 -2.51,-2.19 -3.23,-6.55 -0.21,-1.09 -1.20,-7.31 -2.08,-8.65 -0.17,-0.29 -0.29,-0.04 -0.38,0.15 -0.09,0.19 -0.82,2.48 -0.82,2.48 0.12,0.51 2.00,7.37 1.84,10.22 -0.04,0.69 -0.51,2.59 -4.49,2.84 -0.45,0.00 -4.21,0.16 -4.27,-3.84 0.00,-0.43 0.12,-0.76 0.17,-1.04 0.05,-0.28 0.07,-1.10 -0.43,-0.56 -0.50,0.54 -3.21,5.92 -8.21,5.74 -0.62,0.00 -4.36,0.04 -6.20,-5.28 -0.35,-0.92 -1.17,-4.18 -3.89,-2.62 -2.73,1.56 -4.73,3.06 -6.20,7.04 -0.31,0.81 -1.47,3.72 -1.98,4.31 -0.51,0.59 -2.67,2.66 -5.10,-1.36 -0.37,-0.61 -1.43,-2.35 -1.30,-8.34 0.00,-0.48 -0.35,-1.06 -0.59,0.04 -0.24,1.10 -0.91,11.17 3.72,13.33 0.57,0.27 2.74,1.28 4.18,-1.85 0.45,-0.98 3.00,-8.47 7.22,-10.03 0.76,-0.28 1.83,-0.75 2.29,0.40 0.46,1.14 1.76,7.35 7.37,7.59 0.70,0.00 4.49,0.55 7.85,-5.04 0.44,1.80 1.05,4.71 5.30,4.66 1.17,-0.01 4.27,-0.68 5.35,-4.33 0.68,1.23 2.27,5.01 7.72,4.84 0.95,-0.03 4.62,-0.68 6.36,-4.38 0.57,1.28 2.20,5.21 7.06,3.43 1.11,-0.40 2.79,-0.95 3.26,-4.95 0.03,-0.40 0.26,-3.17 -0.35,-8.18 -0.97,-8.10 -2.37,-19.25 -2.37,-19.25 z M 253.65,18.17 c 0.77,0.37 1.89,0.03 2.74,-1.58 0.66,0.95 1.65,0.96 2.19,0.76 0.45,-0.17 0.96,-0.85 1.11,-1.79 0.15,-0.94 -0.10,-1.59 -0.39,-2.13 -0.39,-0.66 -0.66,-1.76 -0.66,-1.76 -0.14,-0.39 -0.24,-0.80 -0.42,-0.25 -0.18,0.54 -0.31,0.96 -0.07,1.58 0.24,0.62 0.87,2.03 0.98,2.23 0.10,0.20 0.13,0.43 -0.22,0.58 -0.35,0.15 -1.95,0.49 -2.25,-1.22 -0.30,-1.71 -0.32,-2.20 -0.47,-2.49 -0.15,-0.29 -0.29,-0.32 -0.40,-0.04 -0.11,0.29 -0.18,0.88 -0.20,0.98 -0.02,0.10 -0.02,0.17 0.04,0.27 0.06,0.11 0.70,2.01 0.41,2.54 -0.29,0.52 -1.72,1.47 -2.48,0.48 -0.36,-0.69 -0.14,-2.44 -0.14,-2.85 0.00,-0.41 -0.13,-0.55 -0.31,-0.22 -0.17,0.33 -0.27,0.55 -0.26,0.85 0.01,0.30 0.05,1.57 0.03,1.98 -0.03,0.40 0.00,1.71 0.77,2.07 z M 262.48,44.54 c -0.06,-0.05 -0.15,-0.03 -0.20,0.04 -1.32,1.81 -1.32,1.81 -1.32,1.81 -2.54,-1.85 -2.54,-1.85 -2.54,-1.85 -0.06,-0.05 -0.15,-0.03 -0.20,0.04 -1.53,2.10 -1.53,2.10 -1.53,2.10 -0.05,0.07 -0.04,0.16 0.03,0.20 2.61,1.91 2.61,1.91 2.61,1.91 0.06,0.05 0.15,0.03 0.20,-0.04 1.32,-1.81 1.32,-1.81 1.32,-1.81 2.54,1.85 2.54,1.85 2.54,1.85 0.06,0.05 0.15,0.03 0.20,-0.04 1.53,-2.10 1.53,-2.10 1.53,-2.10 0.05,-0.07 0.04,-0.16 -0.03,-0.20 z M 231.04,21.25 c -1.32,1.81 -1.32,1.81 -1.32,1.81 -2.54,-1.85 -2.54,-1.85 -2.54,-1.85 -0.06,-0.05 -0.15,-0.03 -0.20,0.04 -1.53,2.10 -1.53,2.10 -1.53,2.10 -0.05,0.07 -0.04,0.16 0.03,0.20 2.61,1.91 2.61,1.91 2.61,1.91 0.06,0.05 0.15,0.03 0.20,-0.04 1.32,-1.81 1.32,-1.81 1.32,-1.81 2.54,1.85 2.54,1.85 2.54,1.85 0.06,0.05 0.15,0.03 0.20,-0.04 1.53,-2.10 1.53,-2.10 1.53,-2.10 0.05,-0.07 0.04,-0.16 -0.03,-0.21 -2.61,-1.91 -2.61,-1.91 -2.61,-1.91 -0.06,-0.05 -0.15,-0.03 -0.20,0.04 z M 222.50,7.65 c 0.16,0.07 0.33,0.07 0.36,-0.11 0.03,-0.19 0.21,-0.63 0.53,-0.34 0.27,0.24 1.98,1.47 3.03,4.25 0.17,0.37 0.52,0.38 0.57,-0.16 0.10,-1.33 0.05,-3.62 0.10,-4.32 0.08,-0.98 0.40,-3.02 1.71,-2.07 0.30,0.22 0.62,0.51 0.62,0.51 0.29,0.31 0.64,0.66 0.77,0.27 0.20,-0.59 0.33,-1.56 0.03,-2.06 -0.13,-0.22 -1.80,-2.05 -2.75,-0.65 -1.18,1.73 -1.11,3.89 -1.11,6.30 -0.22,-0.49 -1.47,-3.64 -4.89,-5.26 -0.25,-0.12 -0.72,0.17 -0.71,0.93 0.00,0.45 -0.05,1.53 0.29,1.81 0.33,0.28 1.29,0.82 1.45,0.89 z M 263.61,16.01 c 0.28,-0.11 12.67,-4.29 13.19,-4.49 0.50,-0.20 0.76,-0.32 1.00,-0.73 0.23,-0.41 0.29,-0.49 0.42,-0.78 0.14,-0.31 0.32,-0.55 -0.59,-0.26 -0.64,0.20 -12.82,4.38 -13.47,4.60 -0.62,0.21 -0.79,0.35 -0.92,0.76 -0.14,0.41 -0.21,0.65 -0.24,0.71 -0.13,0.27 -0.23,0.51 0.62,0.18 z M 235.74,43.26 c -0.55,0.28 -9.48,3.74 -10.04,4.06 -0.57,0.32 -0.77,0.40 -0.88,0.81 -0.11,0.42 -0.17,0.66 -0.20,0.72 -0.12,0.28 -0.21,0.62 0.63,0.14 0.26,-0.15 9.29,-3.66 9.76,-3.93 0.47,-0.27 0.75,-0.36 0.96,-0.79 0.21,-0.42 0.26,-0.50 0.38,-0.80 0.12,-0.32 0.25,-0.65 -0.60,-0.22 z M 231.86,17.26 c 0.34,-0.14 26.05,-10.23 26.65,-10.53 0.59,-0.29 0.94,-0.38 1.23,-0.89 0.29,-0.50 0.36,-0.59 0.52,-0.95 0.18,-0.38 0.38,-0.72 -0.71,-0.32 -0.73,0.27 -26.25,10.37 -27.00,10.66 -0.74,0.29 -0.97,0.43 -1.14,0.93 -0.17,0.50 -0.26,0.77 -0.30,0.87 -0.14,0.34 -0.33,0.68 0.76,0.22 z M 248.47,42.14 c -0.40,-0.10 -0.99,0.06 -1.68,1.22 -0.14,0.27 -0.23,0.49 -0.29,0.59 -0.08,0.16 -0.01,0.39 0.22,0.04 0.49,-0.70 1.39,-1.04 1.70,0.14 0.04,0.23 0.19,1.26 -1.04,3.14 -0.24,0.36 -0.57,0.91 -0.57,0.91 -0.27,0.41 -0.15,0.70 0.22,0.21 0.36,-0.49 1.78,-2.14 2.21,-4.41 0.10,-0.52 0.01,-1.61 -0.76,-1.84 z M 269.24,9.18 c 0.43,0.00 0.98,-0.31 1.38,-1.66 0.07,-0.30 0.11,-0.55 0.14,-0.67 0.04,-0.18 -0.09,-0.40 -0.23,0.02 -0.32,0.83 -1.13,1.40 -1.74,0.30 -0.10,-0.22 -0.51,-1.22 0.24,-3.42 0.15,-0.43 0.35,-1.06 0.35,-1.06 0.17,-0.48 -0.03,-0.74 -0.28,-0.15 -0.24,0.59 -1.25,2.61 -1.09,5.00 0.04,0.55 0.40,1.63 1.23,1.66 z M 235.50,10.73 c 0.51,0.00 1.17,-0.37 1.64,-1.98 0.08,-0.36 0.13,-0.65 0.17,-0.80 0.05,-0.22 -0.11,-0.47 -0.28,0.02 -0.37,0.98 -1.35,1.67 -2.07,0.35 -0.12,-0.26 -0.61,-1.46 0.29,-4.07 0.18,-0.51 0.41,-1.26 0.41,-1.26 0.20,-0.57 -0.04,-0.88 -0.33,-0.18 -0.29,0.70 -1.48,3.11 -1.30,5.95 0.04,0.66 0.48,1.94 1.47,1.97 z M 217.53,30.67 c 0.69,0.03 1.62,-0.56 2.40,-3.28 0.14,-0.62 0.24,-1.11 0.29,-1.36 0.09,-0.37 -0.11,-0.82 -0.38,0.02 -0.59,1.67 -1.97,2.78 -2.85,0.46 -0.14,-0.46 -0.70,-2.54 0.75,-6.97 0.29,-0.86 0.67,-2.14 0.67,-2.14 0.32,-0.97 0.02,-1.52 -0.43,-0.34 -0.45,1.18 -2.28,5.24 -2.28,10.13 0.00,1.13 0.48,3.36 1.82,3.48 z M 273.77,16.09 c 0.32,-0.97 0.02,-1.52 -0.43,-0.34 -0.45,1.18 -2.28,5.24 -2.28,10.13 0.00,1.13 0.48,3.36 1.82,3.48 0.69,0.03 1.62,-0.56 2.40,-3.28 0.14,-0.62 0.24,-1.11 0.29,-1.36 0.09,-0.37 -0.11,-0.82 -0.38,0.02 -0.59,1.66 -1.97,2.78 -2.85,0.46 -0.14,-0.46 -0.70,-2.54 0.75,-6.97 0.29,-0.86 0.67,-2.14 0.67,-2.14 z M 326.77,20.28 c 0.49,0.00 1.11,-0.35 1.55,-1.88 0.08,-0.34 0.13,-0.62 0.16,-0.75 0.05,-0.21 -0.10,-0.45 -0.26,0.02 -0.36,0.93 -1.28,1.58 -1.96,0.33 -0.11,-0.25 -0.58,-1.38 0.28,-3.86 0.17,-0.48 0.39,-1.20 0.39,-1.20 0.19,-0.54 -0.04,-0.84 -0.31,-0.17 -0.27,0.66 -1.40,2.95 -1.23,5.64 0.04,0.62 0.45,1.83 1.39,1.87 z M 350.12,6.37 c 0.79,0.58 1.94,1.04 1.94,1.04 -3.66,4.48 -10.85,7.67 -12.56,9.01 -0.51,0.39 -0.44,0.61 -0.12,0.53 0.28,-0.08 5.76,-1.61 10.76,-5.90 2.29,-1.97 2.23,-2.11 2.81,-3.31 0.50,0.26 0.84,0.67 1.03,0.91 0.28,0.34 0.43,0.60 0.56,0.23 0.48,-1.33 -0.20,-2.13 -0.84,-2.54 0.00,0.00 0.67,-2.07 -0.56,-4.14 -0.21,-0.35 -1.43,-1.46 -2.85,0.74 -0.55,0.84 -0.96,2.85 -0.17,3.42 z M 350.85,4.34 c 0.73,-1.02 1.08,-0.99 1.36,-0.82 0.82,0.77 0.70,2.03 0.67,2.31 0.00,0.00 -1.05,-0.49 -1.52,-0.69 -0.47,-0.20 -0.72,-0.50 -0.50,-0.80 z M 332.27,7.03 c 0.17,0.10 0.36,0.11 0.41,-0.10 0.05,-0.21 0.28,-0.68 0.62,-0.34 0.28,0.28 2.09,1.78 3.03,4.95 0.16,0.42 0.55,0.46 0.64,-0.14 0.22,-1.47 0.34,-4.02 0.45,-4.79 0.16,-1.08 0.68,-3.32 2.06,-2.16 0.31,0.27 0.64,0.61 0.64,0.61 0.29,0.37 0.66,0.79 0.84,0.36 0.27,-0.64 0.49,-1.70 0.19,-2.28 -0.13,-0.26 -1.84,-2.41 -3.00,-0.93 -1.44,1.83 -1.53,4.23 -1.72,6.91 -0.20,-0.56 -1.35,-4.16 -5.02,-6.21 -0.27,-0.15 -0.81,0.13 -0.86,0.98 -0.03,0.49 -0.17,1.69 0.18,2.03 0.35,0.34 1.37,1.01 1.54,1.10 z M 352.88,14.30 c 0.18,-0.50 -0.04,-0.77 -0.29,-0.16 -0.25,0.61 -1.30,2.73 -1.14,5.22 0.04,0.58 0.42,1.70 1.29,1.73 0.45,0.00 1.03,-0.33 1.44,-1.74 0.07,-0.32 0.12,-0.57 0.15,-0.70 0.04,-0.19 -0.10,-0.42 -0.24,0.02 -0.33,0.86 -1.18,1.47 -1.82,0.31 -0.10,-0.23 -0.53,-1.28 0.26,-3.57 0.16,-0.45 0.36,-1.11 0.36,-1.11 z M 299.35,23.91 c 0.00,0.00 1.25,-0.31 1.47,-0.38 0.22,-0.06 0.34,-0.34 -0.05,-0.55 -0.39,-0.20 -4.09,-1.67 -4.37,-1.79 -0.28,-0.11 -0.38,-0.24 -0.41,0.06 -0.02,0.30 -0.07,2.73 -0.07,2.73 0.00,0.00 -0.06,0.17 0.27,0.35 0.32,0.18 0.64,0.58 0.90,0.84 0.26,0.26 3.70,2.98 3.87,3.07 0.00,0.00 -1.72,3.02 -1.94,5.38 -0.22,2.36 0.04,5.63 3.27,4.57 0.87,-0.25 4.49,-1.69 5.30,-4.21 0.26,-0.93 1.01,-2.61 -0.21,-4.31 -0.70,-1.00 -3.53,-2.69 -3.53,-2.69 0.00,0.00 2.17,-3.00 2.38,-3.37 0.21,-0.37 1.00,-2.69 1.09,-3.26 0.09,-0.56 0.13,-0.84 -0.29,-0.32 -0.42,0.52 -4.63,6.05 -4.63,6.05 z M 306.31,32.79 c -1.20,0.99 -3.72,2.29 -4.43,2.36 -0.71,0.07 -2.59,-0.28 -1.77,-2.20 0.28,-0.62 2.16,-3.84 2.16,-3.84 0.70,0.39 5.24,2.70 4.04,3.69 z M 309.08,12.30 c 0.25,-0.16 13.84,-8.02 14.32,-8.31 0.46,-0.29 0.72,-0.41 0.90,-0.85 0.18,-0.44 0.23,-0.51 0.33,-0.82 0.10,-0.32 0.21,-0.67 -0.61,-0.19 -0.53,0.31 -14.04,8.11 -14.59,8.46 -0.55,0.35 -0.74,0.44 -0.83,0.87 -0.09,0.42 -0.13,0.67 -0.15,0.73 -0.10,0.28 -0.17,0.63 0.64,0.10 z M 358.46,24.89 c -0.25,-0.28 -0.37,-0.01 -0.46,0.31 -0.09,0.32 -0.36,1.52 -0.54,2.27 0.00,0.00 0.71,1.16 0.97,1.75 0.25,0.59 -0.12,0.92 -0.86,1.01 -2.08,0.25 -3.73,-0.94 -4.30,-1.49 -0.57,-0.55 0.05,-1.52 0.51,-2.68 0.37,-0.93 -0.32,-1.04 -0.84,0.00 -1.76,4.63 -4.23,5.12 -4.88,5.30 -5.86,1.60 -5.36,-3.76 -5.34,-4.64 0.02,-0.88 -0.62,-0.55 -1.34,0.03 -2.47,1.98 -4.45,3.14 -5.52,3.62 -0.92,-1.80 -2.26,-2.93 -2.82,-3.34 -6.34,-4.63 -6.87,4.71 -6.67,5.71 0.97,3.97 7.45,1.56 8.46,1.44 1.02,-0.12 0.68,1.22 0.11,2.02 -1.41,1.97 -3.03,3.38 -4.50,4.58 -6.28,5.13 -9.44,4.72 -10.41,4.69 -6.17,-0.17 -5.60,-6.82 -5.26,-8.24 1.86,-1.57 3.45,-3.28 4.38,-5.04 0.38,-0.96 1.03,-3.15 -0.15,-5.91 -0.62,-1.21 -2.56,-4.60 -2.56,-4.60 0.00,0.00 1.43,0.04 1.57,0.04 0.14,0.00 0.41,-0.14 0.06,-0.55 -0.35,-0.40 -3.36,-3.40 -3.54,-3.65 -0.18,-0.24 -0.35,-0.41 -0.45,-0.06 -0.10,0.36 -0.36,1.88 -0.42,2.20 -0.06,0.32 -0.06,0.63 0.10,0.90 0.16,0.27 0.55,1.20 0.84,1.96 0.29,0.76 3.25,6.47 3.53,6.98 0.27,0.51 0.33,0.88 0.06,1.22 -9.53,10.05 -27.91,16.23 -28.50,16.58 -0.59,0.34 -0.43,0.61 0.56,0.43 1.48,-0.26 9.74,-1.64 12.09,-2.77 1.55,-0.75 6.98,-3.41 11.41,-6.89 -0.12,0.90 -0.24,2.22 -0.17,3.89 0.30,8.08 7.53,6.74 9.43,6.33 5.68,-1.25 12.64,-9.11 13.23,-10.68 0.58,-1.56 0.67,-2.98 0.54,-4.22 1.50,-0.81 4.71,-3.40 4.71,-3.40 0.13,3.45 2.87,4.48 3.72,4.63 3.96,0.60 5.94,-2.71 6.78,-3.78 0.72,1.89 2.45,2.26 3.34,2.43 3.41,0.68 4.08,-1.74 4.25,-2.29 1.07,-3.33 -0.86,-5.81 -1.11,-6.08 z M 329.82,31.57 c -2.02,-0.14 -1.85,-0.92 -1.57,-1.22 0.30,-0.33 2.78,-1.89 4.85,0.89 0.00,0.00 -0.86,0.50 -3.28,0.33 z M 355.25,37.21 c -0.24,0.68 -0.34,1.12 -0.31,1.38 0.03,0.26 0.12,1.09 0.12,1.09 -0.25,0.20 -1.33,0.87 -2.40,0.08 0.07,-0.23 0.21,-0.70 0.24,-0.95 0.12,-0.40 -0.13,-0.69 -0.32,-0.28 -0.20,0.41 -0.65,1.79 -0.99,2.10 -0.34,0.31 -0.73,1.45 -3.30,0.29 -0.45,-0.17 -1.23,-0.75 -2.46,0.48 -2.77,2.57 -4.68,2.77 -7.79,3.88 -0.38,0.17 -1.16,0.76 -0.23,0.67 0.94,-0.09 4.87,0.00 7.01,-2.46 0.45,-0.43 0.96,-1.58 2.66,-0.92 0.94,0.36 2.68,1.85 4.58,-1.10 1.12,0.75 2.82,0.45 3.09,-0.38 0.27,-0.82 0.58,-1.64 0.58,-2.20 0.00,-0.56 -0.05,-1.30 -0.05,-1.30 -0.04,-0.44 -0.19,-1.07 -0.44,-0.40 z M 292.39,13.78 c 0.17,-0.04 3.05,-0.49 6.41,-3.05 1.82,-1.38 2.92,-3.74 2.92,-3.74 0.00,0.00 0.91,0.76 1.03,0.91 0.28,0.34 0.43,0.60 0.56,0.23 0.48,-1.33 -0.20,-2.13 -0.84,-2.54 0.00,0.00 0.67,-2.07 -0.56,-4.14 -0.21,-0.35 -1.43,-1.46 -2.85,0.74 -0.55,0.84 -0.96,2.85 -0.17,3.42 0.79,0.58 1.94,1.04 1.94,1.04 -3.66,4.48 -6.16,5.34 -8.30,6.59 -0.55,0.32 -0.44,0.61 -0.12,0.53 z M 300.11,4.39 c -0.47,-0.20 -0.72,-0.50 -0.50,-0.80 0.73,-1.02 1.08,-0.98 1.36,-0.82 0.82,0.77 0.70,2.03 0.67,2.31 0.00,0.00 -1.05,-0.49 -1.52,-0.70 z M 299.98,14.16 c -0.06,-0.05 -0.15,-0.03 -0.20,0.04 -1.53,2.10 -1.53,2.10 -1.53,2.10 -0.05,0.07 -0.04,0.16 0.03,0.21 2.61,1.91 2.61,1.91 2.61,1.91 0.06,0.05 0.15,0.03 0.20,-0.04 1.32,-1.81 1.32,-1.81 1.32,-1.81 2.54,1.85 2.54,1.85 2.54,1.85 0.06,0.05 0.15,0.03 0.20,-0.04 1.53,-2.10 1.53,-2.10 1.53,-2.10 0.05,-0.07 0.04,-0.16 -0.03,-0.20 -2.61,-1.91 -2.61,-1.91 -2.61,-1.91 -0.06,-0.05 -0.15,-0.03 -0.20,0.04 -1.32,1.81 -1.32,1.81 -1.32,1.81 z" />
     </g>
</svg>
