<?xml version="1.0" encoding="UTF-8"?>
<svg version="1.1" id="Layer_1" x="0px" y="0px" width="578" height="58" viewBox="0 0 578 58"
xml:space="preserve" xmlns="http://www.w3.org/2000/svg" xmlns:svg="http://www.w3.org/2000/svg" xmlns:rdf="http://www.w3.org/1999/02/22-rdf-syntax-ns#"  xmlns:cc="http://creativecommons.org/ns#" xmlns:dc="http://purl.org/dc/elements/1.1/">
     <g>
<path d="M 252.07,30.95 c -1.92,2.63 -1.92,2.63 -1.92,2.63 -0.06,0.08 -0.05,0.20 0.03,0.25 3.27,2.38 3.27,2.38 3.27,2.38 0.08,0.06 0.19,0.04 0.25,-0.05 1.91,-2.63 1.91,-2.63 1.91,-2.63 0.06,-0.08 0.05,-0.20 -0.03,-0.25 -3.27,-2.38 -3.27,-2.38 -3.27,-2.38 -0.08,-0.06 -0.19,-0.04 -0.25,0.05 z M 275.25,31.61 c -1.92,2.63 -1.92,2.63 -1.92,2.63 -0.06,0.08 -0.05,0.20 0.03,0.25 3.27,2.38 3.27,2.38 3.27,2.38 0.08,0.06 0.19,0.04 0.25,-0.05 1.91,-2.63 1.91,-2.63 1.91,-2.63 0.06,-0.08 0.05,-0.20 -0.03,-0.25 -3.27,-2.38 -3.27,-2.38 -3.27,-2.38 -0.08,-0.06 -0.19,-0.04 -0.25,0.05 z M 295.62,47.80 c -0.04,0.46 0.17,0.63 0.38,0.19 0.11,-0.24 0.59,-1.22 0.73,-3.80 0.11,-1.94 -0.05,-4.91 -0.60,-9.01 -0.08,-0.60 -2.95,-21.37 -2.95,-21.37 0.00,0.00 1.55,1.46 1.80,1.72 0.25,0.26 0.55,0.12 0.41,-0.30 -0.14,-0.42 -3.31,-8.10 -3.42,-8.36 -0.10,-0.27 -0.20,-0.46 -0.33,-0.15 -0.13,0.31 -1.08,2.64 -1.08,2.64 0.02,0.14 0.28,1.15 0.33,1.54 0.44,3.37 3.20,23.25 3.99,29.54 0.39,3.09 0.69,5.88 0.73,7.37 z M 284.90,13.54 c 0.00,0.00 1.30,1.41 1.55,1.67 0.25,0.26 0.55,0.12 0.41,-0.30 -0.14,-0.42 -3.18,-7.78 -3.28,-8.05 -0.10,-0.27 -0.20,-0.46 -0.33,-0.15 -0.13,0.31 -1.15,2.55 -1.15,2.55 0.03,0.18 0.27,0.73 0.43,1.87 0.16,1.11 3.08,23.08 3.17,24.26 0.09,1.18 0.44,2.00 -0.52,2.57 -3.70,1.92 -10.49,4.05 -13.94,6.05 -1.94,1.12 -4.85,3.74 -7.05,6.15 -0.93,1.02 -2.64,3.66 -4.96,4.23 -1.95,0.47 -2.83,-0.56 -3.27,-1.59 -1.06,-2.46 1.44,-8.18 1.94,-9.11 0.05,-0.10 0.08,-0.19 0.09,-0.28 2.21,-0.76 5.33,-2.06 6.32,-3.65 0.63,-1.09 1.41,-2.38 1.32,-6.26 -2.47,-19.96 -2.47,-19.96 -2.47,-19.96 0.00,0.00 1.30,1.41 1.55,1.67 0.25,0.26 0.55,0.12 0.41,-0.30 -0.14,-0.42 -3.18,-7.78 -3.28,-8.05 -0.10,-0.27 -0.20,-0.46 -0.33,-0.15 -0.13,0.31 -1.15,2.55 -1.15,2.55 0.03,0.18 0.27,0.73 0.43,1.87 0.16,1.11 3.08,23.08 3.17,24.26 0.09,1.18 0.44,2.00 -0.52,2.57 -3.70,1.92 -10.49,4.05 -13.94,6.05 -1.94,1.12 -4.85,3.74 -7.05,6.15 -0.93,1.02 -2.64,3.66 -4.96,4.23 -1.95,0.47 -2.83,-0.56 -3.27,-1.59 -0.80,-1.86 0.42,-5.55 1.29,-7.66 0.76,0.18 1.63,0.27 2.62,0.23 1.35,-0.11 4.21,-0.66 5.90,-3.48 0.38,-0.62 1.22,-3.55 0.85,-6.94 -0.13,-1.18 -3.01,-21.07 -3.01,-21.07 0.00,0.00 1.43,1.38 1.68,1.65 0.25,0.26 0.55,0.12 0.41,-0.30 -0.14,-0.42 -3.31,-8.09 -3.42,-8.36 -0.10,-0.27 -0.20,-0.46 -0.33,-0.15 -0.13,0.31 -1.15,2.55 -1.15,2.55 0.03,0.18 0.27,0.73 0.43,1.87 0.16,1.11 0.39,2.67 0.64,4.40 0.00,0.00 2.73,17.71 2.92,19.10 0.20,1.39 0.57,4.01 0.44,4.50 -0.13,0.49 -2.46,3.95 -7.44,3.03 -0.73,-0.19 -3.33,-0.75 -5.09,-5.02 -1.07,-2.50 -3.21,-1.28 -4.02,-0.75 -0.81,0.53 -3.55,2.78 -4.96,6.73 -0.30,1.07 -1.97,6.51 -4.04,6.35 -0.39,-0.03 -3.10,-1.09 -3.97,-5.21 -0.17,-0.81 -0.45,-3.61 -0.04,-5.19 0.21,-0.82 -0.15,-1.18 -0.51,-0.24 -0.36,0.94 -2.34,7.58 2.50,12.82 1.53,1.66 3.57,0.66 4.14,-0.34 0.58,-1.00 2.76,-5.81 3.08,-6.73 0.24,-0.69 1.60,-3.18 3.25,-4.55 0.55,-0.45 2.60,-2.05 3.52,-0.11 0.51,1.08 1.55,3.84 4.71,4.97 -0.72,1.62 -1.76,4.45 -1.63,7.37 0.09,2.03 1.87,6.07 6.70,3.80 1.32,-0.62 3.15,-2.49 5.90,-5.56 1.12,-1.25 4.56,-4.60 11.23,-6.70 0.04,-0.01 0.09,-0.03 0.13,-0.04 -0.15,0.23 -0.32,0.52 -0.49,0.90 -0.71,1.58 -1.87,4.54 -1.73,7.60 0.09,2.03 1.87,6.07 6.70,3.80 1.32,-0.62 3.15,-2.49 5.90,-5.56 1.12,-1.25 4.56,-4.60 11.23,-6.70 2.09,-0.66 6.28,-2.13 7.46,-4.03 0.63,-1.09 1.41,-2.38 1.32,-6.26 z M 257.93,3.00 c 0.36,-0.39 0.62,-0.79 1.68,-0.76 1.07,0.03 3.62,-0.07 2.66,0.63 -0.95,0.70 -1.60,1.11 -1.60,1.11 -0.62,0.44 -1.16,1.28 -0.07,0.81 1.09,-0.46 2.54,-1.19 3.65,-2.86 0.32,-0.49 0.70,-1.14 -0.80,-1.36 -1.50,-0.23 -3.93,-0.58 -4.71,0.28 -0.79,0.85 -1.03,1.44 -1.26,1.81 -0.32,0.51 0.08,0.73 0.45,0.34 z M 278.08,21.41 c -0.45,-0.75 -0.75,-2.02 -0.75,-2.02 -0.16,-0.45 -0.28,-0.91 -0.48,-0.29 -0.20,0.62 -0.35,1.11 -0.08,1.82 0.27,0.71 1.00,2.33 1.13,2.56 0.12,0.23 0.15,0.49 -0.25,0.66 -0.40,0.17 -2.24,0.56 -2.58,-1.40 -0.34,-1.96 -0.37,-2.53 -0.54,-2.86 -0.17,-0.33 -0.33,-0.37 -0.46,-0.04 -0.13,0.33 -0.21,1.01 -0.23,1.13 -0.02,0.11 -0.02,0.19 0.05,0.31 0.07,0.12 0.80,2.31 0.47,2.91 -0.33,0.60 -1.98,1.69 -2.84,0.55 -0.41,-0.79 -0.16,-2.80 -0.16,-3.27 0.00,-0.47 -0.15,-0.63 -0.35,-0.25 -0.20,0.38 -0.31,0.63 -0.30,0.97 0.01,0.34 0.06,1.81 0.03,2.27 -0.03,0.46 0.00,1.96 0.88,2.38 0.88,0.42 2.17,0.03 3.14,-1.81 0.75,1.10 1.90,1.10 2.51,0.87 0.52,-0.19 1.11,-0.97 1.28,-2.06 0.17,-1.08 -0.11,-1.83 -0.45,-2.44 z M 229.98,12.94 c 0.59,0.33 0.87,0.78 1.09,1.23 1.33,-2.37 -0.42,-2.05 -1.23,-3.18 -0.40,-0.56 2.88,-2.36 5.46,-3.46 7.49,-3.23 11.90,-5.08 12.01,-5.13 0.12,-0.06 0.21,-0.12 0.22,-0.19 0.01,-0.07 0.33,-1.08 0.37,-1.26 0.05,-0.19 -0.19,-0.04 -0.39,0.06 -0.17,0.08 -9.39,4.01 -12.78,5.48 -0.33,0.14 -3.49,1.32 -4.72,3.15 -1.18,1.88 -0.62,2.97 -0.03,3.30 z M 223.54,26.81 c -1.53,2.10 -1.53,2.10 -1.53,2.10 -0.05,0.07 -0.04,0.16 0.03,0.20 2.61,1.91 2.61,1.91 2.61,1.91 0.06,0.05 0.15,0.03 0.20,-0.04 1.32,-1.81 1.32,-1.81 1.32,-1.81 2.54,1.85 2.54,1.85 2.54,1.85 0.06,0.05 0.15,0.03 0.20,-0.04 1.53,-2.10 1.53,-2.10 1.53,-2.10 0.05,-0.07 0.04,-0.16 -0.03,-0.21 -2.62,-1.91 -2.62,-1.91 -2.62,-1.91 -0.06,-0.05 -0.15,-0.03 -0.20,0.04 -1.32,1.81 -1.32,1.81 -1.32,1.81 -2.54,-1.85 -2.54,-1.85 -2.54,-1.85 -0.06,-0.05 -0.15,-0.03 -0.20,0.04 z M 246.86,8.99 c -0.01,0.41 -0.07,1.41 0.23,1.68 0.30,0.27 1.18,0.78 1.33,0.85 0.15,0.07 0.30,0.08 0.34,-0.10 0.03,-0.17 0.21,-0.58 0.50,-0.31 0.24,0.23 1.81,1.40 2.72,4.00 0.15,0.34 0.48,0.36 0.53,-0.14 0.12,-1.23 0.12,-3.36 0.18,-4.00 0.09,-0.91 0.44,-2.79 1.63,-1.88 0.27,0.21 0.56,0.49 0.56,0.49 0.26,0.29 0.58,0.63 0.71,0.27 0.20,-0.54 0.34,-1.44 0.07,-1.90 -0.12,-0.21 -1.62,-1.93 -2.53,-0.66 -1.12,1.58 -1.10,3.58 -1.16,5.82 -0.19,-0.46 -1.29,-3.40 -4.43,-4.97 -0.23,-0.11 -0.67,0.14 -0.68,0.85 z M 230.04,50.27 c -0.51,0.23 -9.41,4.46 -9.93,4.71 -0.49,0.24 -0.62,0.37 -0.70,0.73 -0.07,0.35 -0.11,0.56 -0.13,0.62 -0.08,0.24 -0.14,0.45 0.54,0.09 0.22,-0.12 9.28,-4.37 9.70,-4.59 0.40,-0.21 0.61,-0.34 0.76,-0.71 0.15,-0.37 0.19,-0.43 0.28,-0.69 0.09,-0.27 0.21,-0.49 -0.52,-0.16 z M 260.23,18.50 c -0.51,0.23 -12.31,5.60 -12.83,5.86 -0.49,0.24 -0.63,0.37 -0.70,0.73 -0.07,0.36 -0.11,0.56 -0.13,0.62 -0.08,0.24 -0.14,0.45 0.54,0.09 0.22,-0.12 12.19,-5.51 12.60,-5.73 0.40,-0.21 0.61,-0.34 0.76,-0.71 0.15,-0.37 0.19,-0.43 0.28,-0.69 0.09,-0.27 0.21,-0.49 -0.52,-0.16 z M 267.16,17.35 c 0.22,-0.12 12.10,-5.86 12.52,-6.08 0.40,-0.21 0.61,-0.34 0.76,-0.71 0.15,-0.37 0.19,-0.43 0.28,-0.69 0.09,-0.27 0.21,-0.49 -0.51,-0.16 -0.51,0.23 -12.22,5.96 -12.75,6.21 -0.49,0.24 -0.62,0.37 -0.70,0.73 -0.07,0.36 -0.11,0.56 -0.13,0.62 -0.08,0.24 -0.14,0.45 0.54,0.09 z M 259.02,23.98 c 0.18,-0.52 -0.04,-0.80 -0.30,-0.17 -0.26,0.63 -1.34,2.81 -1.18,5.38 0.04,0.59 0.43,1.75 1.33,1.78 0.46,0.00 1.06,-0.34 1.48,-1.79 0.07,-0.33 0.12,-0.59 0.15,-0.72 0.05,-0.20 -0.10,-0.43 -0.25,0.02 -0.34,0.89 -1.22,1.51 -1.87,0.32 -0.11,-0.24 -0.55,-1.32 0.26,-3.68 0.16,-0.46 0.37,-1.14 0.37,-1.14 z M 235.70,19.94 c 0.18,-0.52 -0.04,-0.80 -0.30,-0.17 -0.26,0.63 -1.34,2.81 -1.17,5.38 0.04,0.59 0.43,1.75 1.33,1.78 0.46,0.00 1.06,-0.34 1.48,-1.79 0.07,-0.33 0.12,-0.59 0.15,-0.72 0.05,-0.20 -0.10,-0.43 -0.25,0.02 -0.34,0.89 -1.22,1.51 -1.87,0.32 -0.11,-0.24 -0.55,-1.32 0.26,-3.68 0.16,-0.46 0.37,-1.14 0.37,-1.14 z M 284.49,49.25 c -0.44,0.89 -1.48,1.47 -2.14,0.19 -0.10,-0.25 -0.53,-1.40 0.55,-3.77 0.22,-0.46 0.50,-1.15 0.50,-1.15 0.24,-0.52 0.01,-0.83 -0.32,-0.19 -0.34,0.63 -1.71,2.79 -1.70,5.45 0.00,0.62 0.37,1.84 1.38,1.93 0.52,0.03 1.22,-0.27 1.80,-1.73 0.11,-0.33 0.18,-0.60 0.22,-0.73 0.07,-0.20 -0.08,-0.45 -0.28,0.00 z M 214.14,36.56 c 0.79,0.04 1.85,-0.60 2.74,-3.57 0.16,-0.67 0.27,-1.21 0.34,-1.48 0.10,-0.40 -0.12,-0.90 -0.43,0.02 -0.68,1.81 -2.25,3.02 -3.24,0.49 -0.15,-0.50 -0.79,-2.78 0.87,-7.60 0.33,-0.93 0.76,-2.33 0.76,-2.33 0.37,-1.05 0.03,-1.66 -0.49,-0.37 -0.51,1.29 -2.61,5.70 -2.62,11.03 0.00,1.23 0.54,3.67 2.06,3.81 z M 331.07,25.83 c 0.48,0.00 1.11,-0.35 1.55,-1.87 0.08,-0.34 0.13,-0.62 0.16,-0.75 0.05,-0.21 -0.10,-0.45 -0.26,0.02 -0.35,0.93 -1.27,1.58 -1.96,0.33 -0.11,-0.25 -0.58,-1.38 0.28,-3.86 0.17,-0.48 0.39,-1.20 0.39,-1.20 0.19,-0.54 -0.04,-0.84 -0.31,-0.17 -0.27,0.66 -1.40,2.94 -1.23,5.64 0.04,0.62 0.45,1.83 1.39,1.86 z M 313.38,17.86 c 0.25,-0.16 13.84,-8.02 14.32,-8.31 0.46,-0.29 0.72,-0.41 0.91,-0.85 0.18,-0.44 0.23,-0.52 0.33,-0.82 0.11,-0.32 0.21,-0.67 -0.61,-0.19 -0.53,0.31 -14.04,8.11 -14.59,8.46 -0.55,0.35 -0.74,0.44 -0.83,0.87 -0.09,0.42 -0.13,0.67 -0.16,0.73 -0.10,0.28 -0.17,0.63 0.64,0.10 z M 336.58,12.58 c 0.17,0.10 0.36,0.11 0.41,-0.10 0.05,-0.21 0.28,-0.68 0.62,-0.34 0.28,0.28 2.09,1.78 3.03,4.95 0.16,0.42 0.55,0.46 0.64,-0.14 0.22,-1.47 0.34,-4.02 0.45,-4.79 0.16,-1.09 0.68,-3.33 2.06,-2.16 0.31,0.26 0.64,0.61 0.64,0.61 0.29,0.37 0.66,0.79 0.84,0.36 0.27,-0.64 0.49,-1.70 0.19,-2.28 -0.13,-0.26 -1.84,-2.41 -3.00,-0.94 -1.44,1.83 -1.53,4.23 -1.72,6.91 -0.20,-0.56 -1.35,-4.15 -5.02,-6.21 -0.27,-0.15 -0.81,0.13 -0.86,0.98 -0.03,0.49 -0.17,1.69 0.18,2.03 0.35,0.34 1.37,1.01 1.54,1.10 z M 357.19,19.85 c 0.18,-0.50 -0.04,-0.77 -0.29,-0.16 -0.25,0.61 -1.30,2.73 -1.14,5.22 0.04,0.58 0.42,1.70 1.29,1.73 0.45,0.00 1.03,-0.33 1.44,-1.74 0.07,-0.32 0.12,-0.57 0.15,-0.70 0.04,-0.19 -0.10,-0.42 -0.24,0.02 -0.33,0.86 -1.18,1.47 -1.82,0.31 -0.10,-0.23 -0.53,-1.28 0.26,-3.57 0.16,-0.44 0.36,-1.11 0.36,-1.11 z M 354.43,11.93 c 0.79,0.58 1.94,1.04 1.94,1.04 -3.66,4.49 -10.85,7.67 -12.56,9.01 -0.51,0.39 -0.44,0.61 -0.12,0.53 0.28,-0.08 5.76,-1.61 10.76,-5.90 2.29,-1.97 2.23,-2.11 2.81,-3.31 0.50,0.26 0.84,0.67 1.03,0.91 0.28,0.34 0.43,0.60 0.56,0.23 0.48,-1.33 -0.20,-2.13 -0.84,-2.54 0.00,0.00 0.67,-2.07 -0.56,-4.14 -0.21,-0.35 -1.43,-1.46 -2.85,0.74 -0.55,0.84 -0.96,2.85 -0.17,3.42 z M 355.16,9.89 c 0.73,-1.02 1.08,-0.99 1.36,-0.82 0.82,0.77 0.70,2.03 0.67,2.31 0.00,0.00 -1.05,-0.49 -1.52,-0.69 -0.47,-0.20 -0.72,-0.50 -0.50,-0.80 z M 296.70,19.34 c 0.17,-0.05 3.05,-0.49 6.41,-3.05 1.82,-1.38 2.92,-3.74 2.92,-3.74 0.00,0.00 0.91,0.76 1.03,0.91 0.28,0.34 0.43,0.60 0.56,0.23 0.48,-1.33 -0.20,-2.13 -0.84,-2.54 0.00,0.00 0.67,-2.07 -0.56,-4.14 -0.21,-0.35 -1.43,-1.46 -2.85,0.74 -0.55,0.84 -0.96,2.85 -0.17,3.42 0.79,0.58 1.94,1.04 1.94,1.04 -3.66,4.49 -6.16,5.34 -8.30,6.60 -0.55,0.32 -0.44,0.61 -0.12,0.53 z M 304.42,9.94 c -0.47,-0.20 -0.72,-0.50 -0.50,-0.80 0.73,-1.02 1.08,-0.99 1.36,-0.82 0.82,0.77 0.70,2.03 0.67,2.31 0.00,0.00 -1.05,-0.49 -1.52,-0.69 z M 304.28,19.72 c -0.06,-0.05 -0.15,-0.03 -0.20,0.04 -1.53,2.10 -1.53,2.10 -1.53,2.10 -0.05,0.07 -0.04,0.16 0.03,0.20 2.62,1.91 2.62,1.91 2.62,1.91 0.06,0.05 0.15,0.03 0.20,-0.04 1.32,-1.81 1.32,-1.81 1.32,-1.81 2.54,1.85 2.54,1.85 2.54,1.85 0.06,0.05 0.15,0.03 0.20,-0.04 1.53,-2.10 1.53,-2.10 1.53,-2.10 0.05,-0.07 0.04,-0.16 -0.03,-0.21 -2.61,-1.91 -2.61,-1.91 -2.61,-1.91 -0.06,-0.05 -0.15,-0.03 -0.20,0.04 -1.32,1.81 -1.32,1.81 -1.32,1.81 z M 359.56,42.76 c -0.24,0.68 -0.34,1.12 -0.31,1.38 0.03,0.26 0.12,1.10 0.12,1.10 -0.25,0.20 -1.33,0.87 -2.40,0.08 0.07,-0.23 0.21,-0.70 0.24,-0.95 0.12,-0.40 -0.13,-0.69 -0.32,-0.28 -0.20,0.41 -0.65,1.79 -0.99,2.10 -0.34,0.31 -0.73,1.45 -3.30,0.29 -0.45,-0.17 -1.24,-0.75 -2.46,0.48 -2.77,2.57 -4.68,2.78 -7.79,3.88 -0.38,0.17 -1.16,0.76 -0.23,0.67 0.94,-0.09 4.87,0.00 7.01,-2.46 0.45,-0.43 0.96,-1.58 2.66,-0.92 0.94,0.36 2.68,1.85 4.58,-1.10 1.12,0.75 2.82,0.45 3.09,-0.38 0.27,-0.82 0.58,-1.64 0.58,-2.20 0.00,-0.56 -0.05,-1.30 -0.05,-1.30 -0.04,-0.44 -0.19,-1.07 -0.44,-0.40 z M 362.76,30.45 c -0.25,-0.28 -0.37,-0.01 -0.46,0.31 -0.09,0.32 -0.36,1.52 -0.54,2.27 0.00,0.00 0.71,1.16 0.97,1.75 0.25,0.59 -0.12,0.92 -0.86,1.01 -2.08,0.25 -3.73,-0.94 -4.30,-1.48 -0.57,-0.55 0.05,-1.52 0.51,-2.68 0.37,-0.93 -0.32,-1.04 -0.84,0.00 -1.76,4.63 -4.23,5.12 -4.88,5.30 -5.86,1.60 -5.36,-3.76 -5.34,-4.64 0.02,-0.88 -0.62,-0.55 -1.34,0.03 -2.47,1.98 -4.45,3.14 -5.52,3.62 -0.92,-1.80 -2.26,-2.93 -2.82,-3.34 -6.34,-4.63 -6.87,4.71 -6.67,5.71 0.97,3.97 7.45,1.56 8.46,1.44 1.02,-0.12 0.68,1.22 0.11,2.02 -1.41,1.97 -3.03,3.38 -4.50,4.57 -6.28,5.13 -9.44,4.72 -10.41,4.69 -6.17,-0.17 -5.60,-6.82 -5.26,-8.24 1.86,-1.57 3.45,-3.28 4.38,-5.04 0.38,-0.97 1.03,-3.16 -0.15,-5.91 -0.62,-1.21 -2.56,-4.60 -2.56,-4.60 0.00,0.00 1.43,0.04 1.57,0.04 0.14,0.00 0.41,-0.14 0.06,-0.54 -0.35,-0.40 -3.36,-3.40 -3.54,-3.65 -0.18,-0.24 -0.35,-0.42 -0.45,-0.06 -0.10,0.36 -0.36,1.88 -0.42,2.20 -0.06,0.31 -0.06,0.63 0.10,0.90 0.15,0.27 0.55,1.20 0.84,1.96 0.29,0.76 3.25,6.47 3.53,6.98 0.27,0.51 0.33,0.88 0.06,1.22 -9.53,10.05 -27.91,16.23 -28.50,16.57 -0.59,0.34 -0.43,0.61 0.56,0.43 1.48,-0.26 9.74,-1.64 12.09,-2.78 1.55,-0.75 6.98,-3.41 11.41,-6.89 -0.12,0.90 -0.24,2.22 -0.17,3.89 0.30,8.08 7.53,6.74 9.43,6.33 5.68,-1.25 12.64,-9.11 13.23,-10.68 0.58,-1.56 0.67,-2.98 0.54,-4.22 1.50,-0.81 4.71,-3.40 4.71,-3.40 0.13,3.45 2.88,4.48 3.72,4.63 3.96,0.60 5.94,-2.71 6.78,-3.78 0.72,1.89 2.45,2.26 3.34,2.43 3.41,0.68 4.08,-1.74 4.26,-2.29 1.07,-3.33 -0.86,-5.81 -1.11,-6.08 z M 334.13,37.13 c -2.03,-0.14 -1.85,-0.92 -1.57,-1.22 0.30,-0.33 2.78,-1.89 4.85,0.89 0.00,0.00 -0.86,0.50 -3.28,0.33 z M 303.66,29.46 c 0.00,0.00 1.25,-0.31 1.47,-0.38 0.22,-0.06 0.34,-0.35 -0.05,-0.55 -0.39,-0.20 -4.09,-1.67 -4.37,-1.79 -0.28,-0.11 -0.38,-0.24 -0.41,0.06 -0.02,0.30 -0.07,2.73 -0.07,2.73 0.00,0.00 -0.06,0.17 0.26,0.35 0.32,0.18 0.64,0.58 0.90,0.84 0.26,0.26 3.70,2.98 3.87,3.07 0.00,0.00 -1.72,3.02 -1.94,5.38 -0.22,2.36 0.04,5.63 3.27,4.57 0.87,-0.25 4.49,-1.69 5.30,-4.21 0.26,-0.93 1.01,-2.61 -0.21,-4.31 -0.70,-1.00 -3.53,-2.69 -3.53,-2.69 0.00,0.00 2.17,-3.00 2.38,-3.37 0.21,-0.37 1.00,-2.69 1.09,-3.26 0.09,-0.56 0.13,-0.84 -0.29,-0.32 -0.42,0.52 -4.63,6.05 -4.63,6.05 z M 310.61,38.35 c -1.20,0.99 -3.72,2.29 -4.43,2.36 -0.71,0.07 -2.59,-0.28 -1.77,-2.20 0.28,-0.62 2.16,-3.84 2.16,-3.84 0.70,0.39 5.24,2.70 4.04,3.69 z M 216.62,11.08 c 0.33,0.31 1.28,0.91 1.43,0.99 0.16,0.08 0.32,0.09 0.35,-0.12 0.03,-0.21 0.21,-0.69 0.52,-0.37 0.23,0.23 2.07,1.78 2.75,4.03 0.57,1.96 -3.61,6.26 -3.83,6.46 -0.40,0.36 -0.25,0.56 -0.06,0.43 0.19,-0.13 0.38,-0.17 2.55,-1.98 1.75,-1.46 2.03,-3.03 2.11,-4.22 0.02,-0.06 0.03,-0.13 0.03,-0.21 0.09,-1.45 0.03,-3.97 0.08,-4.73 0.07,-1.08 0.38,-3.31 1.67,-2.25 0.29,0.24 0.61,0.56 0.61,0.56 0.28,0.34 0.63,0.73 0.76,0.31 0.20,-0.65 0.32,-1.70 0.02,-2.25 -0.13,-0.24 -1.78,-2.26 -2.70,-0.74 -1.15,1.88 -1.07,4.25 -1.06,6.89 -0.22,-0.54 -1.46,-4.00 -4.84,-5.81 -0.25,-0.13 -0.70,0.18 -0.69,1.01 0.00,0.49 -0.04,1.67 0.29,1.99 z" />
     </g>
</svg>
